<?xml version="1.0" standalone="no"?>
<!DOCTYPE svg PUBLIC "-//W3C//DTD SVG 1.1//EN" "http://www.w3.org/Graphics/SVG/1.1/DTD/svg11.dtd" >
<svg xmlns="http://www.w3.org/2000/svg">
<metadata>Generated by IcoMoon</metadata>
<defs>
<font id="icomoon" horiz-adv-x="1024">
<font-face units-per-em="1024" ascent="960" descent="-64" />
<missing-glyph horiz-adv-x="1024" />
<glyph unicode="&#x20;" d="" horiz-adv-x="512" />
<glyph unicode="&#xe600;" d="M256 579.765l256-256 256 256z" />
<glyph unicode="&#xe601;" d="M209.797 337.323v-87.88c87.409-39.383 192.041-60.682 302.203-60.682 124.867 0 242.647 27.361 336.261 77.414v86.876c76.657 34.816 129.802 110.531 129.802 198.39 0 120.852-100.516 218.808-224.522 218.808-32.666 0-63.672-6.861-91.668-19.087-39.629 37.028-92.836 59.72-151.347 59.72-57.672 0-110.182-22.016-149.647-58.081-28.303 13.107-59.822 20.48-93.082 20.48-122.532 0-221.839-99.328-221.839-221.839-0.020-102.461 69.448-188.621 163.84-214.118zM512 138.585c-108.667 0-212.705 19.702-302.203 56.3v-35.389c0-36.925 57.283-66.867 127.959-66.867h382.546c70.676 0 127.959 29.921 127.959 66.867v50.463c-96.625-46.285-213.504-71.373-336.261-71.373z" />
<glyph unicode="&#xe602;" d="M308.449 783.111c-90.399 0-163.697-73.298-163.697-163.697s73.298-163.697 163.697-163.697 163.697 73.298 163.697 163.697-73.277 163.697-163.697 163.697zM308.449 479.106c-77.496 0-140.308 62.812-140.308 140.308s62.812 140.308 140.308 140.308c77.496 0 140.308-62.812 140.308-140.308 0-77.476-62.812-140.308-140.308-140.308zM715.551 783.111c-90.399 0-163.697-73.298-163.697-163.697s73.298-163.697 163.697-163.697 163.697 73.298 163.697 163.697-73.298 163.697-163.697 163.697zM715.551 479.106c-77.496 0-140.308 62.812-140.308 140.308s62.812 140.308 140.308 140.308c77.496 0 140.308-62.812 140.308-140.308 0-77.476-62.812-140.308-140.308-140.308zM551.854 641.144c-28.836 16.916-58.45 10.732-79.708-0.369v-27.177c12.268 8.929 46.449 28.672 78.889-0.307 0.102-3.359 0.492-6.636 0.799-9.953v37.806zM715.551 771.273c41.882 0 79.524-17.797 106.066-46.121 22.897 24.535 46.797 50.135 68.792 73.708-45.834 42.803-107.192 69.181-174.858 69.181s-129.024-26.399-174.858-69.181l68.792-73.708c26.542 28.303 64.184 46.121 106.066 46.121zM308.449 778.769c41.882 0 79.524-17.797 106.066-46.121 22.897 24.535 46.797 50.135 68.792 73.708-45.834 42.803-107.192 69.181-174.858 69.181s-129.024-26.399-174.858-69.181l68.792-73.708c26.542 28.324 64.184 46.121 106.066 46.121zM667.668 338.941c-2.56 17.613-12.268 32.399-22.057 46.735-10.363 15.196-20.234 30.7-28.938 46.899-18.964 35.287-26.276 73.421-26.563 113.213-0.082 10.056-15.647 10.056-15.585 0 0.225-30.269 3.973-59.945 14.131-88.556 10.138-28.59 26.624-54.436 43.5-79.401 17.388-25.723 29.512-54.108 13.906-84.029-15.462-29.655-48.026-26.849-71.619-9.482 2.99 5.53 5.427 11.325 7.27 17.183 3.011 9.626-12.042 13.701-15.032 4.137-6.595-21.074-20.726-39.199-44.421-39.342-24.637-0.102-42.926 22.733-53.494 42.209-4.792 8.847-18.248 0.963-13.455-7.864 2.724-5.018 5.775-9.912 9.155-14.582-20.091-11.633-45.036-17.080-67.666-11.53-22.528 5.489-39.793 36.803-11.428 47.739 9.277 3.564 5.243 18.657-4.137 15.032-31.334-12.063-34.222-45.998-9.236-67.215 27.628-23.45 73.974-13.722 102.584 3.85 13.353-13.763 30.331-23.286 50.708-23.183 16.978 0.061 30.556 8.602 40.53 20.746 0.164-0.123 0.287-0.287 0.451-0.43 22.63-16.835 51.159-22.651 75.346-5.53 23.347 16.486 29.942 46.633 26.051 73.4zM474.87 275.944l0.86-0.901c14.623-15.073 31.232-22.733 49.295-22.733v-1.536l0.287 1.536c14.93 0.082 28.529 7.045 39.322 20.193l1.004 1.208 1.475-1.27c13.763-10.26 28.447-15.626 42.598-15.626v0c11.182 0 21.627 3.379 31.027 10.056 23.962 16.916 28.815 48.251 25.375 71.864-2.417 16.63-11.305 30.7-21.811 46.1-12.022 17.613-21.258 32.584-29.041 47.043-17.674 32.87-26.419 70.144-26.767 113.951-0.041 6.533-7.864 7.291-10.895 4.219-1.065-1.065-1.577-2.478-1.556-4.198 0.246-33.321 4.833-62.116 14.029-88.044 10.322-29.082 27.075-55.009 43.336-79.073 15.421-22.794 30.925-53.125 14.008-85.606-7.844-15.032-20.951-23.286-36.966-23.286-12.206 0-25.334 4.71-36.946 13.292l-1.106 0.799 0.655 1.208c2.929 5.366 5.325 11.039 7.148 16.876 0.594 1.884 0.369 3.584-0.655 4.977-1.167 1.577-3.277 2.58-5.53 2.58-1.352 0-4.669-0.43-5.898-4.342-4.71-15.053-16.916-40.284-45.916-40.407-27.443 0-46.141 26.952-54.866 43.008-1.372 2.519-3.359 3.052-4.772 3.052-2.314 0-4.71-1.393-5.939-3.461-0.758-1.29-1.413-3.4 0-5.98 2.785-5.12 5.816-9.933 9.052-14.418l1.024-1.393-1.495-0.86c-21.565-12.472-47.37-16.937-68.792-11.715-14.254 3.482-26.542 16.753-27.361 29.594-0.614 9.462 4.997 16.937 15.749 21.094 3.83 1.475 4.608 5.079 4.137 7.741-0.451 2.417-2.13 4.833-4.915 4.833-0.696 0-1.454-0.143-2.232-0.471-13.537-5.202-22.467-15.176-24.535-27.341-2.232-13.066 3.666-26.972 15.729-37.212 10.404-8.806 24.617-13.476 41.124-13.476 19.517 0 41.82 6.533 59.658 17.49l1.106 0.635zM382.341 265.52c24.187-17.121 52.716-11.305 75.346 5.53 0.164 0.123 0.287 0.287 0.451 0.43 9.974-12.124 23.552-20.685 40.53-20.746 20.378-0.102 37.356 9.441 50.708 23.183 28.611-17.572 74.957-27.3 102.584-3.85 24.986 21.217 22.098 55.153-9.236 67.215-9.38 3.625-13.414-11.469-4.137-15.032 28.365-10.936 11.121-42.25-11.428-47.739-22.61-5.53-47.575-0.082-67.666 11.53 3.379 4.669 6.431 9.564 9.155 14.582 4.792 8.827-8.663 16.691-13.455 7.864-10.547-19.476-28.856-42.312-53.494-42.209-23.695 0.123-37.827 18.268-44.421 39.342-2.99 9.564-18.022 5.489-15.032-4.137 1.843-5.837 4.28-11.653 7.27-17.183-23.593-17.388-56.156-20.173-71.619 9.482-15.606 29.921-3.482 58.307 13.906 84.029 16.896 24.986 33.362 50.831 43.5 79.401 10.158 28.611 13.906 58.286 14.131 88.556 0.061 10.056-15.503 10.056-15.585 0-0.287-39.793-7.598-77.926-26.563-113.213-8.724-16.2-18.575-31.703-28.938-46.899-9.789-14.356-19.517-29.123-22.057-46.735-3.85-26.747 2.744-56.893 26.051-73.4zM550.216 275.268c17.838-10.957 40.12-17.49 59.658-17.49 16.507 0 30.72 4.669 41.124 13.476 12.063 10.26 17.961 24.166 15.729 37.212-2.068 12.186-10.998 22.139-24.535 27.341-0.778 0.307-1.536 0.471-2.232 0.471-2.765 0-4.465-2.417-4.915-4.833-0.492-2.662 0.307-6.267 4.137-7.741 10.752-4.157 16.364-11.653 15.749-21.094-0.819-12.841-13.087-26.132-27.361-29.594-21.422-5.222-47.227-0.758-68.792 11.715l-1.495 0.86 1.024 1.393c3.236 4.465 6.267 9.298 9.052 14.418 1.413 2.58 0.758 4.69 0 5.98-1.229 2.068-3.625 3.461-5.939 3.461-1.413 0-3.4-0.532-4.772-3.052-8.724-16.056-27.402-43.008-54.866-43.008-28.979 0.123-41.206 25.354-45.916 40.407-1.229 3.912-4.526 4.342-5.898 4.342-2.232 0-4.362-1.004-5.53-2.58-1.024-1.393-1.249-3.092-0.655-4.977 1.823-5.837 4.219-11.51 7.148-16.876l0.655-1.208-1.106-0.799c-11.633-8.581-24.76-13.292-36.946-13.292-16.015 0-29.123 8.274-36.966 23.286-16.916 32.481-1.413 62.833 14.008 85.606 16.261 24.044 33.014 49.971 43.336 79.073 9.196 25.928 13.804 54.723 14.029 88.044 0.020 1.72-0.512 3.133-1.556 4.198-3.052 3.072-10.875 2.314-10.895-4.219-0.328-43.807-9.093-81.080-26.767-113.951-7.782-14.459-17.019-29.43-29.041-47.043-10.506-15.401-19.395-29.471-21.811-46.1-3.441-23.634 1.434-54.948 25.375-71.864 9.4-6.676 19.845-10.056 31.027-10.056v0c14.152 0 28.836 5.386 42.598 15.626l1.475 1.27 1.004-1.208c10.813-13.148 24.412-20.111 39.322-20.193l0.287-1.536v1.556c18.084 0 34.673 7.66 49.295 22.733l0.86 0.901 1.106-0.655zM667.628 338.408c-2.54 17.613-12.268 32.399-22.057 46.735-10.363 15.196-20.234 30.7-28.938 46.899-18.964 35.287-26.276 73.421-26.563 113.213-0.020 2.191-0.86 3.83-2.028 5.059l-36.209 90.296c-28.836 16.916-58.45 10.732-79.708-0.369l-34.14-88.412c-2.294-1.126-4.096-3.236-4.116-6.574-0.287-39.793-7.598-77.926-26.563-113.213-8.724-16.2-18.575-31.703-28.938-46.899-9.81-14.356-19.517-29.123-22.057-46.735-1.352-9.318-1.352-19.005 0.102-28.426-3.072-13.537 1.946-28.856 15.606-40.448 7.434-6.308 16.261-10.056 25.682-12.063 11.387-3.666 23.142-3.359 34.509 0.061 10.465 1.884 20.705 5.059 29.942 9.298 9.523-9.789 21.627-16.568 36.516-16.63 0.102 0 0.184 0.041 0.287 0.041v0c4.526 0 8.847 0.573 13.025 1.454 4.178-0.881 8.499-1.475 13.025-1.454v0c0.102 0 0.184-0.041 0.287-0.041 14.889 0.061 26.993 6.82 36.516 16.63 9.236-4.239 19.476-7.414 29.942-9.298 11.366-3.42 23.142-3.727 34.509-0.061 9.421 2.007 18.248 5.755 25.682 12.063 13.66 11.592 18.678 26.89 15.606 40.428 1.434 9.441 1.434 19.149 0.082 28.447zM886.333 142.21c-11.264 65.331-28.733 139.592-71.332 150.569-23.921 6.124-73.277 13.373-75.059 12.124l-63.447 0.328c-0.123-1.044-0.082-2.089-0.246-3.133 3.256-14.295-2.048-30.474-16.466-42.701-7.844-6.656-17.162-10.609-27.136-12.739-12.022-3.871-24.453-3.543-36.454 0.061-11.039 1.987-21.873 5.345-31.621 9.81-10.056-10.342-22.835-17.49-38.564-17.551-0.102 0-0.205 0.041-0.307 0.041v0c-4.772 0-9.339 0.594-13.763 1.536-4.424-0.942-8.991-1.556-13.763-1.536v0c-0.102 0-0.205-0.041-0.307-0.041-15.729 0.061-28.508 7.209-38.564 17.551-9.748-4.465-20.582-7.844-31.621-9.81-12.001-3.604-24.433-3.932-36.454-0.061-9.953 2.109-19.272 6.083-27.136 12.739-14.418 12.247-19.722 28.406-16.466 42.721-0.246 1.577-0.205 3.174-0.369 4.772l-91.116 0.451c-30.74-7.967-47.165-14.541-47.165-14.541-35.676-36.946-60.068-85.217-71.311-150.569-1.884-14.254-13.169-71.066-3.768-85.217 15.032-22.774 48.824 16.998 58.204 31.212 11.244-59.638 63.836-25.559 84.48 2.847 20.644-53.985 71.332-48.292 95.744-5.652 26.255-53.985 63.795-28.385 80.712 19.866 1.884-31.252 26.276-42.598 43.172-28.385 7.393 4.813 12.37 12.124 15.79 20.931 3.42-8.806 8.397-16.118 15.79-20.931 16.896-14.213 41.308-2.867 43.192 28.385 16.876-48.251 54.436-73.83 80.712-19.866 24.392-42.639 75.1-48.333 95.744 5.652 20.623-28.385 73.236-62.484 84.48-2.847 9.38-14.213 43.151-53.985 58.184-31.212 9.38 14.131-1.905 70.963-3.768 85.197z" />
<glyph unicode="&#xe603;" d="M901.939 635.901h-205.804v205.804c0 25.846-11.715 48.886-29.819 64.799v5.919h-7.168c-14.111 9.953-31.191 15.933-49.664 15.933h-194.97c-18.473 0-35.574-5.98-49.664-15.933h-0.246v-0.205c-22.139-15.749-36.741-41.452-36.741-70.533v-205.804h-205.804c-47.657 0-86.651-38.994-86.651-86.651v-194.97c0-47.657 38.994-86.651 86.651-86.651h205.804v-205.783c0-47.657 38.994-86.651 86.651-86.651h194.97c21.606 0 41.185 8.294 56.402 21.484h0.43v0.369c18.104 15.913 29.819 38.953 29.819 64.799v205.804h205.804c21.32 0 40.653 8.090 55.788 20.972h0.492v0.41c18.432 15.913 30.372 39.158 30.372 65.27v194.97c0 47.657-38.994 86.651-86.651 86.651zM262.881 375.948l-119.153 75.817 119.153 75.817v-151.634zM512 83.494l-75.817 119.153h151.634l-75.817-119.153zM436.183 700.884l75.817 119.153 75.817-119.153h-151.634zM761.119 375.948v151.634l119.153-75.817-119.153-75.817z" />
<glyph unicode="&#xe604;" d="M610.468 678.315c0 0-469.729 75.018-491.848 71.332s-47.964-17.101-62.71-35.594c-14.766-18.493-14.766-23.429 0-28.344s438.989-189.358 438.989-189.358l-149.996-236.114h-124.191c0 0-36.884 3.686-47.944-13.537-11.080-17.224-35.656-47.944-35.656-47.944s-18.432-17.244 11.080-22.139c29.512-4.936 162.304-20.91 162.304-20.91l-23.368-39.342c0 0-14.766-24.596-3.686-29.512 11.059-4.915 28.283-3.686 36.884 11.080 8.622 14.746 27.054 31.969 27.054 31.969l65.147-132.833c0 0 9.83-19.661 29.512 0 19.681 19.681 25.825 30.761 25.825 30.761s17.224 25.825 4.915 56.566c-12.288 30.72-41.82 122.941-41.82 122.941s363.971 411.955 432.845 563.2c68.833 151.245-2.437 180.756-94.679 103.281s-158.659-195.502-158.659-195.502zM646.124 386.884l127.898 159.867c0 0 183.214-351.703 196.731-375.071 13.537-23.347 8.602-59.023 0-79.913s-22.118-56.566-54.108-14.746c-31.949 41.82-270.52 309.862-270.52 309.862z" />
<glyph unicode="&#xe605;" d="M773.673 808.609v-52.634h-500.163v52.634h-212.070v-713.687h212.070v50.463h500.163v-50.463h188.887v713.687h-188.887zM190.136 154.887h-43.868v43.868h43.868v-43.868zM190.136 246.289h-43.868v43.868h43.868v-43.868zM190.136 337.691h-43.868v43.868h43.868v-43.868zM190.136 429.094h-43.868v43.868h43.868v-43.868zM190.136 520.516h-43.868v43.868h43.868v-43.868zM190.136 611.898h-43.868v43.868h43.868v-43.868zM190.136 703.3h-43.868v43.868h43.868v-43.868zM773.673 207.541h-500.163v486.994h500.163v-486.994zM894.321 154.887h-43.868v43.868h43.868v-43.868zM894.321 246.289h-43.868v43.868h43.868v-43.868zM894.321 337.691h-43.868v43.868h43.868v-43.868zM894.321 429.094h-43.868v43.868h43.868v-43.868zM894.321 520.516h-43.868v43.868h43.868v-43.868zM894.321 611.898h-43.868v43.868h43.868v-43.868zM894.321 703.3h-43.868v43.868h43.868v-43.868z" />
<glyph unicode="&#xe606;" d="M512 921.863c-259.625 0-470.098-210.473-470.098-470.098s210.473-470.098 470.098-470.098c259.625 0 470.098 210.473 470.098 470.098s-210.473 470.098-470.098 470.098zM512 295.073c-86.548 0-156.713 70.164-156.713 156.692 0 86.548 70.164 156.692 156.713 156.692s156.713-70.164 156.713-156.692-70.164-156.692-156.713-156.692zM523.756 451.765c0-6.492-5.263-11.756-11.756-11.756s-11.756 5.263-11.756 11.756c0 6.492 5.263 11.756 11.756 11.756s11.756-5.263 11.756-11.756z" />
<glyph unicode="&#xe607;" d="M207.38 857.945h710.799v-746.762c0-18.371-6.349-33.853-19.046-46.551s-28.242-19.046-46.531-19.046h-681.206c-18.33 0-33.853 6.349-46.531 19.046s-19.046 28.18-19.046 46.551v645.222h67.707v-609.28h33.853v710.82zM308.92 756.405v-33.853h270.787v33.853h-270.787zM816.62 553.305v33.853h-507.699v-33.853h507.699zM308.92 417.912v-33.853h406.159v33.853h-406.159zM816.62 214.811v33.853h-507.699v-33.853h507.699z" />
<glyph unicode="&#xe608;" d="M719.196 873.489c71.516 0 132.854-26.010 184.054-78.008s76.78-113.766 76.78-185.262c0-74.752-26.808-137.318-80.445-187.699l-387.584-392.479-26.808 26.808-368.108 372.982c-48.763 51.999-73.134 112.128-73.134 180.388 0 71.516 25.6 133.263 76.78 185.262s112.538 78.008 184.054 78.008c86.139 0 155.197-34.12 207.196-102.38 52.019 68.26 121.098 102.38 207.217 102.38z" />
<glyph unicode="&#xe609;" d="M357.97 92.136c7.107-38.011 17.162-74.383 30.269-108.626 39.526-10.404 80.998-16.015 123.781-16.015 56.197 0 110.1 9.667 160.276 27.279-70.615 15.974-122.716 35.758-169.513 53.596-48.189 18.33-91.238 34.714-144.814 43.766zM183.972 95.618c50.483-46.531 110.858-82.391 177.644-104.182-11.612 33.198-20.541 68.055-27.034 104.079-41.411 4.997-89.58 5.734-150.61 0.102zM330.854 118.002c-3.4 22.405-5.878 45.24-7.557 68.301-122.86 24.125-220.242 68.547-274.985 125.665 22.467-74.629 62.484-141.599 115.2-196.28 67.953 7.352 121.713 7.311 167.342 2.314zM283.279 326.857c11.1-5.796 23.921-10.895 38.42-14.438 11.53 267.223 110.981 537.498 191.652 623.575-0.451 0-0.881 0.041-1.352 0.041-144.753 0-274.637-63.611-363.377-164.332-45.138-125.768-4.28-372.429 134.656-444.846zM321.884 209.364c-1.311 26.665-1.597 53.596-0.942 80.609-18.289 3.953-34.243 10.179-47.882 17.265-133.857 69.755-182.886 279.9-158.269 421.417-54.804-78.5-87.060-173.896-87.060-276.89 0-28.877 2.683-57.119 7.516-84.623 36.27-70.84 143.667-128.451 286.638-157.778zM344.576 308.446c104.305-11.141 280.125 61.788 534.548 458.936-82.166 95.519-200.868 158.556-334.479 167.444-78.049-54.845-188.211-344.351-200.069-626.381zM469.606 168.199c-43.049 2.478-84.296 7.168-123.249 13.865 1.741-22.712 4.28-45.097 7.7-67.072 59.924-9.155 106.414-26.849 156.549-45.957 52.941-20.173 112.783-42.885 198.82-59.433 122.532 54.804 218.112 159.007 261.386 287.355-111.882-108.769-330.875-138.609-501.207-128.758zM343.859 286.45c-0.635-27.361-0.328-54.62 1.065-81.49 39.772-7.127 81.961-12.145 125.932-14.684 182.907-10.568 423.014 24.822 513.987 157.082 7.393 33.628 11.428 68.547 11.428 104.428 0 112.271-38.318 215.511-102.441 297.656-256.102-397.64-438.723-473.6-549.97-462.991z" />
<glyph unicode="&#xe60a;" d="M976.773 371.442l-80.589 342.282c-8.376 55.153-60.027 93.184-115.18 84.89-11.039-1.659-18.657-11.94-16.998-23.020 1.659-11.039 11.94-18.616 23.020-16.957 32.85 5.059 64.061-17.838 69.427-52.572l73.134-310.927c-18.473 19.702-44.585 32.317-73.626 32.317h-222.556c-27.443 0-51.999-11.162-67.502-30.802-2.662-3.4-4.567-7.291-6.676-10.998-2.191 0.778-4.362 1.393-6.758 1.393h-80.937c-2.396 0-4.608-0.635-6.758-1.372-2.068 3.85-4.014 7.598-6.676 10.998-15.462 19.558-40.059 30.802-67.502 30.802h-222.536c-29.143 0-55.235-12.616-73.687-32.317l73.441 312.586c4.977 33.096 36.168 56.013 69.079 50.954 10.998-1.659 21.402 5.898 23.060 16.957 1.659 11.039-5.898 21.361-16.957 23.020-55.194 8.294-106.824-29.757-114.831-83.333l-80.937-343.941c-2.54-10.916 4.198-21.791 15.053-24.351 1.577-0.369 3.113-0.573 4.649-0.573 0.737 0 1.413 0.328 2.109 0.41-1.372-6.676-2.15-13.476-2.15-20.603v-121.385c0-55.726 45.404-101.171 101.171-101.171h154.706c53.412 0 107.028 42.291 119.46 94.29l30.147 125.768c1.823 7.598 2.519 15.217 2.478 22.733h74.404c0-7.496 0.655-15.012 2.478-22.733l30.147-125.768c12.452-51.999 66.028-94.29 119.46-94.29h154.665c55.808 0 101.171 45.445 101.171 101.171v121.385c0 7.045-0.778 13.967-2.15 20.644 0.717-0.082 1.372-0.41 2.15-0.41 1.495 0 3.092 0.164 4.649 0.573 10.711 2.58 17.49 13.496 14.95 24.351v0z" />
<glyph unicode="&#xe60b;" d="M926.29 845.739h-835.379c-40.079 0-53.74-17.183-53.74-57.262v-559.329c0-40.161 12.82-56.443 52.9-56.443h344.74v-57.016c-87.982-12.186-160.768-37.212-160.768-42.66 0-2.212 1.004-4.444 2.437-15.217h485.356c1.434 10.772 2.437 12.984 2.437 15.217 0 0-81.961 29.225-173.732 42.66v57.016h336.568c40.141 0 59.72 14.397 59.72 54.538v570.245c0.020 40.1-20.378 48.251-60.539 48.251zM923.668 269.411c0-34.406-8.049-35.983-31.908-35.983h-761.446c-22.671 0-29.983 4.956-29.983 39.404v475.156c0 34.304 2.499 37.007 30.802 37.007h754.811c34.755 0 37.724-3.543 37.724-28.488v-487.096z" />
<glyph unicode="&#xe60c;" d="M591.565 382.625v-34.079c0-5.202-4.219-9.441-9.441-9.441h-140.247c-5.222 0-9.441 4.239-9.441 9.441v34.079c-123.597 5.345-242.299 22.917-350.31 51.876v-299.438c0-15.503 12.595-28.099 28.119-28.099h803.512c15.524 0 28.119 12.595 28.119 28.099v299.438c-108.012-28.959-226.714-46.531-350.31-51.876zM913.756 671.761h-803.512c-15.524 0-28.119-12.595-28.119-28.119v-168.284c105.533-28.979 224.215-47.432 350.31-53.023v31.027c0 5.222 4.219 9.441 9.441 9.441h140.247c5.222 0 9.441-4.239 9.441-9.441v-31.027c126.095 5.591 244.797 24.044 350.31 53.023v168.284c0 15.524-12.595 28.119-28.119 28.119zM566.026 367.183c0-3.359-2.888-6.103-6.41-6.103h-95.212c-3.543 0-6.41 2.744-6.41 6.103v67.543c0 3.359 2.867 6.103 6.41 6.103h95.212c3.523 0 6.41-2.724 6.41-6.103v-67.543zM634.307 714.278v38.892c0 23.941-19.476 43.418-43.418 43.418h-158.72c-23.921 0-43.397-19.476-43.397-43.418v-38.584h-8.745v-21.381h8.745v-0.307h44.626v0.307h10.465v21.381h-10.465v37.356h156.242v-37.663h-9.544v-21.381h63.857v21.381h-9.646z" />
<glyph unicode="&#xe60d;" d="M0 963.765v-1024h983.67v1024h-983.67zM316.029 761.813v47.516h572.624v-47.516h-572.624zM602.334 688.238v-47.516h-286.305v47.516h286.305zM247.015 726.244c0-45.89-37.194-83.084-83.084-83.084s-83.084 37.194-83.084 83.084c0 45.89 37.194 83.084 83.084 83.084s83.084-37.194 83.084-83.084zM47.501-12.719v525.051h888.653v-525.051h-888.653zM468.070 384.626h47.516v-286.305h-47.516v286.305z" horiz-adv-x="984" />
<glyph unicode="&#xe60e;" d="M810.705 531.98h-647.218v-497.846h696.986v497.846h-49.767zM625.931 363.792l-137.71-176.986c-2.209-2.209-3.874-3.319-4.974-3.319-1.846 0-3.692 0.918-5.529 2.764l-79.65 76.876c-0.747 1.473-1.11 2.573-1.11 3.319 0 0.363 0.363 1.281 1.11 2.764l1.11 1.11c10.321 11.057 18.432 19.542 24.334 25.444 2.209 2.209 3.682 3.319 4.429 3.319 1.473 0 3.319-1.11 5.529-3.319l44.249-43.139 110.612 142.139c0.736 0.736 1.836 1.11 3.319 1.11 1.11 0 2.391-0.373 3.874-1.11l30.417-24.334c0.736-1.473 1.11-2.583 1.11-3.319-0.010-0.747-0.383-1.856-1.12-3.319zM312.86 620.478c0 109.523 89.618 199.14 199.14 199.14s199.14-89.618 199.14-199.14v-77.431h49.788v77.431c0 137.408-111.52 248.928-248.928 248.928s-248.928-111.52-248.928-248.928v-77.431h49.788v77.431z" />
<glyph unicode="&#xe60f;" d="M435.366 64.915h230.082v-24.637h-230.082v24.637zM864.528 327.402l-19.723 19.723c-11.531-17.494-24.616-33.847-38.932-49.041l-28.844 28.844c53.278 56.789 85.955 133.15 85.955 217.179 0 175.412-142.21 317.601-317.612 317.601-84.029 0-160.369-32.687-217.179-85.955l-28.833 28.833c15.173 14.326 31.547 27.401 49.021 38.932l-19.713 19.723c-17.292-11.773-33.545-24.949-48.668-39.285l-25.070 25.050-14.487-14.497 25.040-25.050c-65.677-69.218-106.042-162.65-106.042-265.372 0-210.54 169.5-382.129 379.223-385.74 1.987-15.163 4.268-55.407-22.326-82.697h59.755c0 0-24.949 37.55-18.099 82.727 97.729 3.158 186.297 42.937 252.661 105.911l26.836-26.826 14.497 14.487-26.806 26.816c14.356 15.163 27.552 31.366 39.346 48.637zM545.373 185.525c-197.728 0-358.582 160.874-358.582 358.592 0 95.177 37.379 181.727 98.112 245.982l28.803-28.813c-53.258-56.809-85.945-133.16-85.945-217.169 0-175.422 142.19-317.622 317.601-317.622 84.029 0 160.369 32.707 217.179 85.945l28.813-28.813c-64.265-60.744-150.795-98.102-245.982-98.102zM538.685 158.346h19.3v-82.697h-19.3v82.697z" />
<glyph unicode="&#xe610;" d="M854 494.515h-519.408l239.404 239.404-61.996 59.846-342-342 342-342 59.844 59.848-237.252 239.402h519.408v85.5z" />
<glyph unicode="&#xe611;" d="M512 12.623c-129.946 0-240.988 44.186-333.128 132.567-92.17 88.381-138.24 195.246-138.24 320.666 0 125.379 46.060 232.643 138.24 321.792 92.14 89.119 203.182 133.704 333.128 133.704 129.915 0 240.947-44.585 333.128-133.704 92.14-89.149 138.24-196.413 138.24-321.792 0-89.149-24.924-170.732-74.783-244.746-1.526-1.526-3.041-3.041-4.536-4.536-1.526-1.526-2.263-3.041-2.263-4.536-6.062-12.104-9.062-23.429-9.062-33.997l49.859-199.424-190.362 70.246c-6.062 3-15.124 4.536-27.197 4.536-4.536 0-12.861-1.526-24.924-4.536-1.526 0-2.263-0.389-2.263-1.137 0-0.768-0.768-1.137-2.263-1.137-55.931-22.63-117.115-33.966-183.572-33.966z" />
<glyph unicode="&#xe612;" d="M989.972 531.422v-159.324h-398.305v-398.326h-159.324v398.326h-398.326v159.324h398.326v398.326h159.324v-398.326h398.305z" />
<glyph unicode="&#xe613;" d="M959.386 768.847c2.888-5.806 4.342-10.148 4.342-13.036 0-2.918-1.454-7.26-4.342-13.036l-540.774-694.968c-8.684-8.684-15.206-13.036-19.548-13.036-7.26 0-14.49 3.594-21.719 10.854l-312.73 301.875c-2.918 5.765-4.342 10.117-4.342 13.036 0 1.423 1.423 5.059 4.342 10.854l4.342 4.342c40.52 43.438 72.387 76.728 95.56 99.901 8.684 8.684 14.459 13.036 17.377 13.036 5.775 0 13.036-4.342 21.719-13.036l173.742-169.4 434.36 558.152c2.888 2.888 7.229 4.342 13.036 4.342 4.342 0 9.4-1.454 15.206-4.342l119.429-95.539z" />
<glyph unicode="&#xe614;" d="M918.886 207.009l0.952 1.925v0.707l3.328 3.318 2.079 2.314c51.784 76.882 78.049 162.826 78.049 255.457 0 130.181-48.507 243.149-144.189 335.739-95.611 92.457-212.408 139.336-347.126 139.336-134.748 0-251.546-46.879-347.136-139.336-95.662-92.57-144.179-205.537-144.179-335.739 0-130.273 48.517-242.862 144.21-334.612 95.56-91.679 212.347-138.148 347.105-138.148 68.362 0 132.25 11.745 189.911 34.908 2.55 0.369 4.598 1.393 6.113 2.796 14.223 3.492 19.814 4.024 21.903 4.024 13.517 0 20.388-2.007 23.788-3.686l211.784-78.223-54.886 219.576c0.195 9.073 2.98 19.036 8.294 29.645v0zM690.995 434.828l-179.005-181.176-18.391 18.381-164.127 166.298c-23.419 24.975-35.215 54.118-35.215 86.804 0 34.191 12.39 64.123 36.844 88.965 24.484 24.873 54.262 37.489 88.525 37.489 37.335 0 68.352-13.588 92.355-40.448 24.003 26.849 55.020 40.448 92.365 40.448 34.253 0 64.031-12.616 88.525-37.489 24.453-24.852 36.833-54.784 36.833-88.965 0.020-35.789-13.005-66.171-38.707-90.307v0z" />
</font>
</defs>
</svg>
