<?xml version="1.0" encoding="utf-8"?>
<!-- Generator: Adobe Illustrator 18.1.0, SVG Export Plug-In . SVG Version: 6.00 Build 0)  -->
<!DOCTYPE svg PUBLIC "-//W3C//DTD SVG 1.1//EN" "http://www.w3.org/Graphics/SVG/1.1/DTD/svg11.dtd">
<svg version="1.1" id="Layer_1" xmlns="http://www.w3.org/2000/svg" xmlns:xlink="http://www.w3.org/1999/xlink" x="0px" y="0px"
	 viewBox="0 0 420 60" enable-background="new 0 0 420 60" xml:space="preserve">
<g>
	<path fill="#FFFFFF" d="M34,41.6c0,3.9-1.3,7-3.8,9.3c-2.5,2.3-5.8,3.5-9.8,3.5c-4.7,0-8.4-1.7-11-5C8,47.6,6.8,45,5.8,41.7
		c-0.3-1,0-1.6,1-1.9l4.4-1.5c0.2,0,0.4-0.1,0.5-0.1c0.8,0,1.3,0.4,1.6,1.1c1.4,5,3.7,7.5,7.1,7.5c1.7,0,3-0.5,3.9-1.4
		c0.9-0.9,1.4-2.2,1.4-3.8c0-2.1-1.6-4.6-4.9-7.4c-3-2.5-6-5-9-7.5c-3.3-3.2-4.9-6.4-4.9-9.6c0-3.7,1.3-6.7,3.8-8.9
		c2.3-2,5.2-3.1,8.6-3.1c4.2,0,7.6,1.6,10.2,4.9c1.3,1.7,2.3,3.6,3,5.9c0,0.2,0.1,0.3,0.1,0.5c0,0.7-0.4,1.2-1.1,1.4l-3.9,1.3
		c-0.2,0.1-0.3,0.1-0.5,0.1c-0.7,0-1.2-0.4-1.5-1.1c-1.8-4.2-3.9-6.3-6.3-6.3c-1.3,0-2.4,0.5-3.3,1.6c-0.9,1.1-1.4,2.3-1.4,3.6
		c0,1.6,1.7,3.8,5,6.5c5.4,4.4,8.5,7,9.3,7.8C32.3,34.8,34,38.2,34,41.6z"/>
	<path fill="#FFFFFF" d="M63.2,11.4c0,1.1-0.6,1.6-1.7,1.6h-7.4c-0.4,0-0.8,0.2-1.1,0.5c-0.3,0.3-0.5,0.7-0.5,1.1V52
		c0,1.1-0.5,1.6-1.5,1.6h-4.9c-1.1,0-1.6-0.5-1.6-1.6V14.6c0-1-0.5-1.6-1.5-1.6h-7.4c-1.1,0-1.6-0.5-1.6-1.6V7.3
		c0-1,0.5-1.6,1.6-1.6h25.8c1.1,0,1.7,0.5,1.7,1.6V11.4z"/>
	<path fill="#FFFFFF" d="M91.6,51.9c0.1,0.4,0,0.8-0.3,1.2c-0.3,0.4-0.7,0.5-1.2,0.5h-5.4c-0.8,0-1.3-0.6-1.6-1.7l-1.4-7.1
		c-0.2-1-0.7-1.6-1.6-1.6h-7.3c-1,0-1.6,0.5-1.7,1.6l-1.3,7.1c-0.2,1.2-0.8,1.7-1.7,1.7h-5.3c-0.4,0-0.8-0.2-1.1-0.5
		c-0.3-0.4-0.4-0.8-0.3-1.2l8.8-44.5c0.2-1.1,0.8-1.7,1.7-1.7h8.6c0.9,0,1.4,0.6,1.7,1.7L91.6,51.9z M79.6,33.7L76.7,18
		c-0.2-0.8-0.4-1.3-0.7-1.3c-0.3,0-0.5,0.4-0.6,1.3l-2.6,15.7c-0.2,1.2,0.2,1.7,1.3,1.7h3.9c0.4,0,0.8-0.2,1.1-0.5
		C79.5,34.5,79.6,34.1,79.6,33.7z"/>
	<path fill="#FFFFFF" d="M120.1,7.3l-10.3,26.6c-0.2,0.6-0.4,1-0.4,1.4V52c0,1.1-0.5,1.6-1.6,1.6h-5.2c-1.1,0-1.6-0.5-1.6-1.6V35.3
		c0-0.4-0.1-0.9-0.4-1.4L89.5,7.3c-0.1-0.1-0.1-0.3-0.1-0.4c0-0.8,0.5-1.1,1.4-1.1h5.8c0.7,0,1.2,0.5,1.6,1.5l6.3,16.2
		c0.2,0.6,0.5,1,0.8,1s0.6-0.3,0.8-1l5.2-16.2c0.3-1,0.8-1.6,1.6-1.6h5.9c0.9,0,1.3,0.4,1.3,1.1C120.1,7.1,120.1,7.2,120.1,7.3z"/>
	<path fill="#FFFFFF" d="M164.8,40.9c0,3.7-1.3,6.8-3.9,9.5c-2.6,2.6-5.8,3.9-9.4,3.9h-0.5c-3.7,0-6.8-1.3-9.5-3.9s-3.9-5.8-3.9-9.5
		V18.5c0-3.7,1.3-6.8,3.9-9.4c2.6-2.6,5.8-3.9,9.5-3.9h0.5c3.7,0,6.8,1.3,9.4,3.9c2.6,2.6,3.9,5.8,3.9,9.4v2c0,0.4-0.2,0.8-0.5,1.1
		c-0.3,0.3-0.7,0.5-1.2,0.5h-5c-0.4,0-0.8-0.2-1.2-0.5c-0.4-0.3-0.5-0.7-0.5-1.1v-0.7c0-1.8-0.5-3.4-1.4-4.7
		c-0.9-1.3-2.1-1.9-3.5-1.9c-1.5,0-2.7,0.6-3.8,1.9c-1,1.3-1.6,2.9-1.6,4.7V40c0,1.9,0.5,3.5,1.6,4.8c1,1.3,2.3,1.9,3.7,1.9
		s2.7-0.6,3.7-1.9c1-1.3,1.5-2.9,1.5-4.8v-1.6c0-1.1,0.5-1.7,1.6-1.7h5c1.1,0,1.7,0.6,1.7,1.7V40.9z"/>
	<path fill="#FFFFFF" d="M197.4,41.4c0,3.6-1.2,6.6-3.7,9.1c-2.5,2.5-5.5,3.8-9.1,3.8h-1.9c-3.6,0-6.6-1.3-9.1-3.8
		c-2.5-2.5-3.7-5.5-3.7-9.1V17.9c0-3.5,1.2-6.6,3.7-9c2.5-2.5,5.5-3.7,9.1-3.7h1.9c3.6,0,6.6,1.2,9.1,3.7c2.5,2.5,3.7,5.5,3.7,9
		V41.4z M188.9,40.2V19.4c0-1.8-0.5-3.3-1.5-4.5c-1-1.2-2.2-1.9-3.6-1.9c-1.4,0-2.6,0.6-3.6,1.9c-1,1.3-1.6,2.8-1.6,4.5v20.8
		c0,1.7,0.5,3.2,1.6,4.4c1,1.2,2.3,1.9,3.6,1.9c1.4,0,2.6-0.6,3.6-1.8C188.4,43.4,188.9,41.9,188.9,40.2z"/>
	<path fill="#FFFFFF" d="M231.1,52c0,1.1-0.5,1.6-1.6,1.6h-4.7c-0.7,0-1.3-0.5-1.7-1.5l-11.4-25.4c-0.1-0.3-0.3-0.5-0.5-0.5
		c-0.3,0-0.4,0.2-0.4,0.7V52c0,1.1-0.6,1.6-1.7,1.6h-4.9c-1,0-1.5-0.5-1.5-1.6V7.4c0-1.1,0.5-1.6,1.5-1.6h4.9c0.9,0,1.6,0.6,2,1.7
		l11,24.6c0.2,0.3,0.4,0.4,0.6,0.4c0.2,0,0.4-0.2,0.4-0.7V7.4c0-0.4,0.2-0.8,0.5-1.2c0.4-0.3,0.8-0.5,1.2-0.5h4.7
		c1.1,0,1.6,0.6,1.6,1.7V52z"/>
	<path fill="#FFFFFF" d="M264.7,52c0,1.1-0.5,1.6-1.6,1.6h-4.7c-0.7,0-1.3-0.5-1.7-1.5l-11.4-25.4c-0.1-0.3-0.3-0.5-0.5-0.5
		c-0.3,0-0.4,0.2-0.4,0.7V52c0,1.1-0.6,1.6-1.7,1.6h-4.9c-1,0-1.5-0.5-1.5-1.6V7.4c0-1.1,0.5-1.6,1.5-1.6h4.9c0.9,0,1.6,0.6,2,1.7
		l11,24.6c0.2,0.3,0.4,0.4,0.6,0.4s0.4-0.2,0.4-0.7V7.4c0-0.4,0.2-0.8,0.5-1.2c0.4-0.3,0.8-0.5,1.2-0.5h4.7c1.1,0,1.6,0.6,1.6,1.7
		V52z"/>
	<path fill="#FFFFFF" d="M293.6,51.9c0,0.5-0.2,0.9-0.5,1.2c-0.4,0.3-0.8,0.5-1.2,0.5h-20.2c-0.4,0-0.8-0.2-1.2-0.5
		c-0.4-0.4-0.5-0.8-0.5-1.2V7.4c0-1.1,0.6-1.7,1.7-1.7h19.6c1.2,0,1.7,0.6,1.7,1.7v4.2c0,0.5-0.2,0.9-0.5,1.2
		c-0.4,0.3-0.8,0.5-1.2,0.5h-11.4c-1.2,0-1.7,0.6-1.7,1.7v8.1c0,1.1,0.6,1.6,1.7,1.6h8.6c1.2,0,1.7,0.6,1.7,1.7v4.1
		c0,0.5-0.2,0.9-0.5,1.2c-0.3,0.3-0.8,0.5-1.2,0.5h-8.6c-1.2,0-1.7,0.6-1.7,1.7v10.1c0,1.1,0.6,1.7,1.7,1.7h12
		c0.4,0,0.8,0.2,1.2,0.5s0.5,0.8,0.5,1.2V51.9z"/>
	<path fill="#FFFFFF" d="M325.4,40.9c0,3.7-1.3,6.8-3.9,9.5s-5.8,3.9-9.4,3.9h-0.5c-3.7,0-6.8-1.3-9.5-3.9s-3.9-5.8-3.9-9.5V18.5
		c0-3.7,1.3-6.8,3.9-9.4c2.6-2.6,5.8-3.9,9.5-3.9h0.5c3.7,0,6.8,1.3,9.4,3.9c2.6,2.6,3.9,5.8,3.9,9.4v2c0,0.4-0.2,0.8-0.5,1.1
		c-0.3,0.3-0.7,0.5-1.2,0.5h-5c-0.4,0-0.8-0.2-1.2-0.5c-0.4-0.3-0.5-0.7-0.5-1.1v-0.7c0-1.8-0.5-3.4-1.4-4.7
		c-0.9-1.3-2.1-1.9-3.5-1.9c-1.5,0-2.7,0.6-3.8,1.9c-1,1.3-1.6,2.9-1.6,4.7V40c0,1.9,0.5,3.5,1.6,4.8c1,1.3,2.3,1.9,3.7,1.9
		c1.4,0,2.7-0.6,3.7-1.9c1-1.3,1.5-2.9,1.5-4.8v-1.6c0-1.1,0.5-1.7,1.6-1.7h5c1.1,0,1.7,0.6,1.7,1.7V40.9z"/>
	<path fill="#FFFFFF" d="M357.7,11.4c0,1.1-0.6,1.6-1.7,1.6h-7.4c-0.4,0-0.8,0.2-1.1,0.5c-0.3,0.3-0.5,0.7-0.5,1.1V52
		c0,1.1-0.5,1.6-1.5,1.6h-4.9c-1.1,0-1.6-0.5-1.6-1.6V14.6c0-1-0.5-1.6-1.5-1.6h-7.4c-1.1,0-1.6-0.5-1.6-1.6V7.3
		c0-1,0.5-1.6,1.6-1.6H356c1.1,0,1.7,0.5,1.7,1.6V11.4z"/>
	<path fill="#FFFFFF" d="M384.5,51.9c0,0.5-0.2,0.9-0.5,1.2c-0.4,0.3-0.8,0.5-1.2,0.5h-20.2c-0.4,0-0.8-0.2-1.2-0.5
		c-0.4-0.4-0.5-0.8-0.5-1.2V7.4c0-1.1,0.6-1.7,1.7-1.7h19.6c1.2,0,1.7,0.6,1.7,1.7v4.2c0,0.5-0.2,0.9-0.5,1.2
		c-0.4,0.3-0.8,0.5-1.2,0.5h-11.4c-1.2,0-1.7,0.6-1.7,1.7v8.1c0,1.1,0.6,1.6,1.7,1.6h8.6c1.2,0,1.7,0.6,1.7,1.7v4.1
		c0,0.5-0.2,0.9-0.5,1.2c-0.3,0.3-0.8,0.5-1.2,0.5h-8.6c-1.2,0-1.7,0.6-1.7,1.7v10.1c0,1.1,0.6,1.7,1.7,1.7h12
		c0.4,0,0.8,0.2,1.2,0.5s0.5,0.8,0.5,1.2V51.9z"/>
	<path fill="#FFFFFF" d="M416,40.3c0,3.7-1.3,6.8-3.9,9.4c-2.6,2.6-5.7,3.9-9.5,3.9h-11.9c-0.4,0-0.8-0.2-1.2-0.5
		c-0.3-0.3-0.5-0.7-0.5-1.2V7.4c0-1.1,0.6-1.7,1.7-1.7h11.9c3.7,0,6.9,1.3,9.5,3.9c2.6,2.6,3.9,5.8,3.9,9.4V40.3z M407.7,39.6V20
		c0-1.8-0.7-3.4-2-4.7s-3-2-4.8-2H399c-1.2,0-1.8,0.6-1.8,1.7v29.6c0,0.5,0.2,0.9,0.5,1.2c0.4,0.3,0.8,0.5,1.2,0.5h1.8
		c1.9,0,3.5-0.6,4.8-1.9C407,43,407.7,41.5,407.7,39.6z"/>
</g>
</svg>
