<?xml version="1.0" encoding="utf-8"?>
<!-- Generator: Adobe Illustrator 18.1.1, SVG Export Plug-In . SVG Version: 6.00 Build 0)  -->
<svg version="1.1" id="Layer_1" xmlns="http://www.w3.org/2000/svg" xmlns:xlink="http://www.w3.org/1999/xlink" x="0px" y="0px"
	 viewBox="283 66 393.2 427.7" enable-background="new 283 66 393.2 427.7" xml:space="preserve">
<g>
	<g>
		<rect x="553" y="189" fill="#18E598" width="75" height="12"/>
		<rect x="283" y="397" fill="#18E598" width="123" height="11"/>
		<rect x="420" y="301" fill="#18E598" width="124" height="11"/>
		<rect x="553" y="397" fill="#18E598" width="123" height="11"/>
		<rect x="553" y="301" fill="#18E598" width="64" height="11"/>
		<rect x="283" y="300" fill="#18E598" width="55" height="12"/>
		<rect x="489" y="189" fill="#18E598" width="55" height="12"/>
		<rect x="283" y="237" fill="#18E598" width="12" height="75"/>
		<rect x="532" y="189" fill="#18E598" width="12" height="123"/>
		<rect x="331" y="189" fill="#18E598" width="75" height="12"/>
		<rect x="283" y="364" fill="#18E598" width="12" height="33"/>
		<rect x="379" y="189" fill="#18E598" width="27" height="219"/>
		<rect x="553" y="189" fill="#18E598" width="27" height="123"/>
		<rect x="553" y="365" fill="#18E598" width="27" height="43"/>
		<rect x="420" y="189" fill="#18E598" width="28" height="123"/>
		<rect x="420" y="66" fill="#18E598" width="28" height="123"/>
		<g>
			
				<rect x="305.4" y="183.9" transform="matrix(0.7071 0.7071 -0.7071 0.7071 244.6042 -156.586)" fill="#18E598" width="11.8" height="66.2"/>
			<polygon fill="#18E598" points="330.4,189.5 330.8,189 332.4,189 332.1,190.6 			"/>
			<polygon fill="#18E598" points="284.5,235.5 283,237 283,239.8 289.1,239.5 			"/>
		</g>
		<rect x="664" y="237" fill="#18E598" width="12" height="171"/>
		<g>
			
				<rect x="642.4" y="184" transform="matrix(-0.7071 0.7071 -0.7071 -0.7071 1260.2733 -87.842)" fill="#18E598" width="11.8" height="66.2"/>
			<polygon fill="#18E598" points="629.2,189.5 628.9,189 627.2,189 627.6,190.6 			"/>
			<polygon fill="#18E598" points="674.8,235.5 676,237 676,239.8 670.1,239.5 			"/>
		</g>
	</g>
	<g>
		<path fill="#18E598" d="M307.6,458.4H325v1c0,4.6-1.4,9.7-4,13.2c-1.3,1.7-6,7.5-15.5,7.5c-12.4,0-21.7-9.5-21.7-21.6
			c0-12.2,9.3-21.6,21.8-21.6c4,0,8.7,1,12.8,4.1c1.9,1.4,3.6,3.3,4.8,5l-3.4,3.1c-1.2-1.7-2.6-3.2-3.9-4.3c-2-1.6-5.1-3.5-10.2-3.5
			c-10.1,0-17.1,7.6-17.1,17.3c0,11.4,9.1,17.2,17,17.2c5.6,0,10.4-2.8,12.8-7c0.8-1.3,1.6-3.3,1.7-6h-12.4L307.6,458.4L307.6,458.4
			z"/>
		<path fill="#18E598" d="M352.4,453.4h4.5v26h-4.5v-3.6c-1.5,1.9-4.3,4.4-8.9,4.4c-6.6,0-12.7-4.6-12.7-13.8c0-9,6-13.6,12.7-13.6
			c5,0,7.7,2.8,8.9,4.3V453.4z M335.4,466.3c0,5.6,3.1,9.8,8.5,9.8c5.5,0,8.7-4.6,8.7-9.7c0-6.7-4.6-9.7-8.7-9.7
			C339.5,456.8,335.4,460,335.4,466.3z"/>
		<path fill="#18E598" d="M365.4,453.4h4.5v2.8c1.4-2.1,3.7-3.4,6.5-3.4c4.7,0,6.6,3.3,7.1,4.2c2.5-3.9,6.1-4.2,7.8-4.2
			c7.7,0,8.5,6.5,8.5,10.2v16.5h-4.5v-15.8c0-2.9-0.4-6.8-4.6-6.8c-5.2,0-5.8,5-5.8,8.1v14.5h-4.5V464c0-1.8,0.1-7.2-4.7-7.2
			c-5.1,0-5.7,5.3-5.7,8.5v14.2h-4.5L365.4,453.4L365.4,453.4z"/>
		<path fill="#18E598" d="M431.4,472.7c-0.8,1.4-1.9,3-3.2,4.2c-2.4,2.1-5.3,3.2-8.7,3.2c-6.3,0-12.9-3.9-12.9-13.6
			c0-7.8,4.8-13.8,12.6-13.8c5.1,0,8.3,2.5,9.8,4.8c1.6,2.3,2.6,6.3,2.4,9.8h-20.2c0.1,5.4,3.8,8.8,8.3,8.8c2.1,0,3.8-0.6,5.3-1.9
			c1.2-1,2.1-2.3,2.7-3.6L431.4,472.7z M426.9,463.5c-0.8-4.1-3.8-6.8-7.6-6.8c-3.8,0-7,2.9-7.6,6.8H426.9z"/>
		<path fill="#18E598" d="M447.1,437.6c2.3,0,6.5,0.2,9.6,2.6c1.3,1,3.8,3.6,3.8,8.7c0,2.1-0.4,5.7-4.1,8.2c5.8,1.4,8,6.5,8,10.5
			s-2,7.3-4.3,9c-3.3,2.6-7.1,2.8-10,2.8h-10.4v-41.8L447.1,437.6L447.1,437.6z M444.2,455.9h3.5c2.4,0,8.2-0.5,8.2-7
			c0-6.9-6.8-7-8.1-7h-3.6V455.9z M444.2,475h5.3c2.7,0,5.3-0.2,7.3-1.8c1.6-1.2,2.8-3.3,2.8-5.8c0-3.3-1.9-5.3-3.6-6.1
			c-1.6-0.9-3.8-1.3-7.1-1.3h-4.8v15H444.2z"/>
		<path fill="#18E598" d="M476.2,468.5c0,1.8,0,3.9,1.3,5.6c0.7,0.9,2.1,2,4.6,2s3.9-1.1,4.6-2c1.3-1.6,1.3-3.8,1.3-5.6v-15.2h4.5
			V469c0,3.2-0.3,5.6-2.4,7.8c-2.3,2.4-5.4,3.3-8,3.3s-5.6-0.8-8-3.3c-2.1-2.3-2.4-4.6-2.4-7.8v-15.7h4.5V468.5z"/>
		<path fill="#18E598" d="M509.1,476.9l-12-23.6h5.1l9.2,18.6l8.5-18.6h5l-19.1,40.4h-5L509.1,476.9z"/>
		<path fill="#18E598" d="M552.4,458.4h17.4v1c0,4.6-1.4,9.7-4,13.2c-1.3,1.7-6,7.5-15.5,7.5c-12.4,0-21.7-9.5-21.7-21.6
			c0-12.2,9.3-21.6,21.8-21.6c4,0,8.7,1,12.8,4.1c1.9,1.4,3.6,3.3,4.8,5l-3.4,3.1c-1.2-1.7-2.6-3.2-3.9-4.3c-2-1.6-5.1-3.5-10.2-3.5
			c-10.1,0-17.1,7.6-17.1,17.3c0,11.4,9.1,17.2,17,17.2c5.6,0,10.4-2.8,12.8-7c0.8-1.3,1.6-3.3,1.7-6h-12.4L552.4,458.4L552.4,458.4
			z"/>
		<path fill="#18E598" d="M597.2,453.4h4.5v26h-4.5v-3.6c-1.5,1.9-4.3,4.4-8.9,4.4c-6.6,0-12.7-4.6-12.7-13.8c0-9,6-13.6,12.7-13.6
			c5,0,7.7,2.8,8.9,4.3V453.4z M580.3,466.3c0,5.6,3.1,9.8,8.5,9.8c5.5,0,8.7-4.6,8.7-9.7c0-6.7-4.6-9.7-8.7-9.7
			C584.3,456.8,580.3,460,580.3,466.3z"/>
		<path fill="#18E598" d="M610.2,453.4h4.5v2.8c1.4-2.1,3.7-3.4,6.5-3.4c4.7,0,6.6,3.3,7.1,4.2c2.5-3.9,6.1-4.2,7.8-4.2
			c7.7,0,8.5,6.5,8.5,10.2v16.5h-4.5v-15.8c0-2.9-0.4-6.8-4.6-6.8c-5.2,0-5.8,5-5.8,8.1v14.5h-4.5V464c0-1.8,0.1-7.2-4.7-7.2
			c-5.1,0-5.7,5.3-5.7,8.5v14.2h-4.5L610.2,453.4L610.2,453.4z"/>
		<path fill="#18E598" d="M676.2,472.7c-0.8,1.4-1.9,3-3.2,4.2c-2.4,2.1-5.3,3.2-8.7,3.2c-6.3,0-12.9-3.9-12.9-13.6
			c0-7.8,4.8-13.8,12.6-13.8c5.1,0,8.3,2.5,9.8,4.8c1.6,2.3,2.6,6.3,2.4,9.8H656c0.1,5.4,3.8,8.8,8.3,8.8c2.1,0,3.8-0.6,5.3-1.9
			c1.2-1,2.1-2.3,2.7-3.6L676.2,472.7z M671.8,463.5c-0.8-4.1-3.8-6.8-7.6-6.8s-7,2.9-7.6,6.8H671.8z"/>
	</g>
</g>
</svg>
