<?xml version="1.0" encoding="iso-8859-1"?>
<!-- Generator: Adobe Illustrator 18.1.0, SVG Export Plug-In . SVG Version: 6.00 Build 0)  -->
<!DOCTYPE svg PUBLIC "-//W3C//DTD SVG 1.1//EN" "http://www.w3.org/Graphics/SVG/1.1/DTD/svg11.dtd">
<svg version="1.1" id="Layer_1" xmlns="http://www.w3.org/2000/svg" xmlns:xlink="http://www.w3.org/1999/xlink" x="0px" y="0px"
	 viewBox="0 0 57 58.5" style="enable-background:new 0 0 57 58.5;" xml:space="preserve">
<path style="fill-rule:evenodd;clip-rule:evenodd;" d="M24.5,14h-10c-1.104,0-2,0.895-2,2v10c0,1.105,0.896,2,2,2h10
	c1.105,0,2-0.895,2-2V16C26.5,14.895,25.604,14,24.5,14z M24.5,22h-4v4h-2v-4h-4v-2h4v-4h2v4h4V22z"/>
<path style="fill-rule:evenodd;clip-rule:evenodd;" d="M43.5,14h-10c-1.105,0-2,0.895-2,2v10c0,1.105,0.895,2,2,2h10
	c1.105,0,2-0.895,2-2V16C45.5,14.895,44.605,14,43.5,14z M43.5,22h-10v-2h10V22z"/>
<path style="fill-rule:evenodd;clip-rule:evenodd;" d="M43.5,33h-10c-1.105,0-2,0.896-2,2v10c0,1.105,0.895,2,2,2h10
	c1.105,0,2-0.895,2-2V35C45.5,33.895,44.605,33,43.5,33z M38.5,35c0.552,0,1,0.448,1,1c0,0.552-0.448,1-1,1c-0.552,0-1-0.448-1-1
	C37.5,35.448,37.948,35,38.5,35z M38.5,45c-0.552,0-1-0.448-1-1c0-0.552,0.448-1,1-1c0.552,0,1,0.448,1,1
	C39.5,44.552,39.052,45,38.5,45z M43.5,41h-10v-2h10V41z"/>
<path style="fill-rule:evenodd;clip-rule:evenodd;" d="M24.5,33h-10c-1.104,0-2,0.896-2,2v10c0,1.105,0.896,2,2,2h10
	c1.105,0,2-0.895,2-2V35C26.5,33.895,25.604,33,24.5,33z M23.743,42.829l-1.414,1.414L19.5,41.414l-2.828,2.828l-1.414-1.414
	L18.086,40l-2.828-2.828l1.414-1.414l2.828,2.828l2.828-2.828l1.414,1.414L20.914,40L23.743,42.829z"/>
</svg>
