<?xml version="1.0" encoding="iso-8859-1"?>
<!-- Generator: Adobe Illustrator 18.1.0, SVG Export Plug-In . SVG Version: 6.00 Build 0)  -->
<!DOCTYPE svg PUBLIC "-//W3C//DTD SVG 1.1//EN" "http://www.w3.org/Graphics/SVG/1.1/DTD/svg11.dtd">
<svg version="1.1" id="Layer_1" xmlns="http://www.w3.org/2000/svg" xmlns:xlink="http://www.w3.org/1999/xlink" x="0px" y="0px"
	 viewBox="0 0 137.72 131.703" style="enable-background:new 0 0 137.72 131.703;" xml:space="preserve">
<g id="_x38_">
	<path ng-show='style="fill:#27AAE1;" d="M40.804,37.795L29.72,26.712c-10.017,10.017-16.212,23.855-16.212,39.14h15.675
		C29.183,54.895,33.624,44.976,40.804,37.795z"/>
</g>
<g id="_x37_">
	<path style="fill:#27AAE1;" d="M29.183,65.851H13.508c0,15.285,6.195,29.123,16.212,39.14l11.084-11.084
		C33.624,86.727,29.183,76.808,29.183,65.851z"/>
</g>
<g id="_x36_">
	<path style="fill:#27AAE1;" d="M40.804,93.907L29.72,104.991c10.017,10.017,23.855,16.212,39.14,16.212v-15.675
		C57.904,105.528,47.984,101.087,40.804,93.907z"/>
</g>
<g id="_x35_">
	<path style="fill:#27AAE1;" d="M68.86,105.528v15.675c15.285,0,29.123-6.195,39.14-16.212L96.916,93.907
		C89.736,101.087,79.816,105.528,68.86,105.528z"/>
</g>
<g id="_x34_">
	<path style="fill:#27AAE1;" d="M108.537,65.851c0,10.956-4.441,20.876-11.621,28.056L108,104.991
		c10.017-10.017,16.212-23.855,16.212-39.14H108.537z"/>
</g>
<g id="_x33_">
	<path style="fill:#27AAE1;" d="M108.537,65.851h15.675c0-15.285-6.195-29.123-16.212-39.14L96.916,37.795
		C104.096,44.976,108.537,54.895,108.537,65.851z"/>
</g>
<g id="_x32__1_">
	<path style="fill:#27AAE1;" d="M96.916,37.795L108,26.712C97.983,16.695,84.145,10.499,68.86,10.499v15.675
		C79.816,26.174,89.736,30.615,96.916,37.795z"/>
</g>
<g id="_x31_">
	<path style="fill:#27AAE1;" d="M68.86,26.174V10.499c-15.285,0-29.123,6.195-39.14,16.212l11.084,11.084
		C47.984,30.615,57.904,26.174,68.86,26.174z"/>
</g>
</svg>
