<?xml version="1.0" encoding="iso-8859-1"?>
<!-- Generator: Adobe Illustrator 18.1.0, SVG Export Plug-In . SVG Version: 6.00 Build 0)  -->
<!DOCTYPE svg PUBLIC "-//W3C//DTD SVG 1.1//EN" "http://www.w3.org/Graphics/SVG/1.1/DTD/svg11.dtd">
<svg version="1.1" id="Layer_1" xmlns="http://www.w3.org/2000/svg" xmlns:xlink="http://www.w3.org/1999/xlink" x="0px" y="0px"
	 viewBox="0 0 72 79.525" style="enable-background:new 0 0 72 79.525;" xml:space="preserve">
<g>
	
		<rect x="44.532" y="24.983" transform="matrix(-0.7071 0.7071 -0.7071 -0.7071 99.4019 18.6914)" style="fill-rule:evenodd;clip-rule:evenodd;" width="2.596" height="9.899"/>
	<path style="fill-rule:evenodd;clip-rule:evenodd;" d="M51.455,24.308c-2-2-4-3-6-1l-1.043,1.043l7,7l1.043-1.043
		C54.455,28.307,53.455,26.308,51.455,24.308z"/>
	<path style="fill-rule:evenodd;clip-rule:evenodd;" d="M40.248,28.515L22.455,46.307l-3.903,9.585
		c-0.059,0.128-0.097,0.267-0.097,0.417c0,0.552,0.447,0.999,0.999,0.999c0.151,0,0.291-0.039,0.419-0.099l9.582-3.901
		l17.793-17.793L40.248,28.515z"/>
</g>
</svg>
