<?xml version="1.0" encoding="utf-8"?>
<!-- Generator: Adobe Illustrator 15.0.0, SVG Export Plug-In . SVG Version: 6.00 Build 0)  -->
<!DOCTYPE svg PUBLIC "-//W3C//DTD SVG 1.1//EN" "http://www.w3.org/Graphics/SVG/1.1/DTD/svg11.dtd">
<svg version="1.1" id="Layer_1" xmlns="http://www.w3.org/2000/svg" xmlns:xlink="http://www.w3.org/1999/xlink" x="0px" y="0px"
	 width="792px" height="612px" viewBox="0 0 792 612" enable-background="new 0 0 792 612" xml:space="preserve">
<g>
	<path fill="#F8F7F7" d="M678.043,296.781h-68.262v-3.641l-2.801-2.66c-0.68-0.646-16.921-15.818-40.6-15.818
		c-23.88,0-39.828,16.076-40.495,16.761l-2.57,2.635l0.011,2.723h-10.191v-5.252v-0.221v-19.769v-0.221v-8.779v-0.221h-9h-2.713
		v-10.677v-0.221v-8.779v-0.221h-9h-2.988c5.3-9.555,6.601-18.641,3.854-27.057c-3.191-9.781-10.94-15.537-15.969-18.366
		c-3.06-9.795-8.936-17.347-17.17-21.998c-7.769-4.388-16.01-5.309-21.555-5.309c-1.095,0-2.088,0.035-2.958,0.087
		c-15.31-9.856-31.201-14.852-47.281-14.854c-26.997-0.002-47.079,14.046-55.572,21.218c-1.403-0.464-2.802-0.899-4.192-1.307
		c-9.416-18.492-23.52-34.185-40.996-45.56c-19.169-12.477-41.44-19.071-64.406-19.071c-31.581,0-61.271,12.299-83.603,34.631
		c-22.331,22.332-34.629,52.023-34.629,83.604c0,51.344,33.126,96.589,81.383,112.37v53.787v0.221v3.762h-69.988h-9v9v10.531v9h9
		h359.637c6.47,5.004,14.379,7.723,22.645,7.723c8.265,0,16.175-2.719,22.645-7.723h26.546c1.156,1.068,2.384,2.221,3.677,3.449
		v8.201c-0.19,0.107-0.379,0.215-0.562,0.324l-4.087,2.828l-4.756,4.848l-0.077,3.32l-0.054,3.344l-0.203,7.895l-0.109,4.277
		l3.249,2.785c0.825,0.707,8.424,6.906,21.129,6.906c12.383,0,20.566-5.869,21.459-6.539l3.6-2.699v-4.5v-9.016l0.097-4.535
		l-0.097-2.197l-4.819-3.303l-3.344-2.688c-0.437-0.262-0.875-0.514-1.313-0.754v-2.934c1.795-5.344,2.601-12.814,2.961-18.807
		c2.942-0.77,5.659-1.773,8.123-3.006l4.975-2.488v-5.562v-6.336c0.04-0.021,0.078-0.045,0.118-0.066
		c0.743,19.797,17.07,35.678,37.046,35.678c20.448,0,37.084-16.637,37.084-37.086c0-20.447-16.636-37.082-37.084-37.082
		c-9.65,0-18.449,3.709-25.053,9.771v-51.094h68.262h9v-9v-5.266v-9H678.043z M113.957,228.44
		c0-60.327,48.905-109.235,109.232-109.235c43.893,0,81.732,25.894,99.096,63.235c4.015,1.021,8.21,2.335,12.586,3.986
		c0,0,21.452-22.504,53.483-22.502c13.406,0.002,28.671,3.945,44.983,15.131c0,0,2.078-0.364,5.257-0.364
		c8.899,0,26.42,2.859,31.075,24.586c0,0,27.907,10.53,10.004,37.911c0,0-0.017,0.449-0.141,1.232h-30.621h-9v9v10.897h-0.349h-9
		v5.812c-2.033-1.441-4.228-2.775-6.588-3.996c-9.165-4.742-20.695-7.146-34.272-7.146c-11.17,0-21.288,1.973-30.074,5.863
		c-6.394,2.832-11.652,6.601-15.728,11.244v-33.62v-9h-9h-58.849h-7.793l-1.114,7.714l-1.971,13.648
		c-0.832-5.028-1.653-9.711-2.46-14.02l-1.375-7.343h-7.471H195.34h-9v9v90.812C144.146,316.168,113.957,275.834,113.957,228.44z
		 M386.48,372.256c0.932,1.652,2.721,2.477,5.372,2.477c3.293,0,5.496-1.096,6.606-3.287c1.109-2.188,1.666-6.426,1.666-12.707
		v-0.221v-16.439h39.787v13.393c0,4.721,0.055,8.566,0.146,11.73c-0.139,0.695-0.286,1.363-0.449,1.979
		c-1.113,4.188-3.707,8.664-7.79,13.424s-9.258,8.328-15.524,10.707c-6.27,2.381-14.127,3.572-23.584,3.572
		c-9.168,0-17.262-1.178-24.279-3.521c-7.022-2.35-12.481-5.57-16.385-9.664c-3.905-4.094-6.607-8.6-8.111-13.518
		c-0.012-0.039-0.022-0.086-0.034-0.125v-76.782c0.754-2.699,1.686-5.15,2.827-7.312c2.053-3.89,4.915-7.217,8.566-9.998
		c-0.104,0.011-0.206,0.021-0.31,0.031c2.412-1.882,5.162-3.529,8.289-4.914c7.663-3.394,16.475-5.093,26.43-5.093
		c11.22,0,20.606,1.759,28.208,5.234c-0.155,0.002-0.308,0.002-0.463,0.004c0.812,0.36,1.62,0.723,2.392,1.122
		c7.913,4.094,13.465,9.52,16.652,16.279c1.537,3.26,2.699,7.164,3.495,11.699l-0.075-0.018v33.362h-54.828v0.221v27.104v0.221
		C385.084,366.924,385.549,370.605,386.48,372.256z M442.101,384.303c1.538,4.279,4.327,8.088,8.315,11.346
		c1.341,1.096,2.749,2.074,4.221,2.932h-27.996c4.595-2.629,8.616-5.939,12.01-9.896
		C439.918,387.207,441.066,385.748,442.101,384.303z M357.099,398.58h-13.197v-3.762v-0.221v-6.266
		c0.525,0.607,1.07,1.207,1.633,1.799C348.661,393.408,352.532,396.236,357.099,398.58z M334.901,371.293v23.305h-39.536
		l-0.055-104.051l-15.739,104.051H251.53l-16.599-101.67l-0.023,44.118l-0.016,30.537l-0.014,27.016H195.34v-60.514v-93.609h58.527
		c1.735,9.266,3.525,20.186,5.367,32.766l6.424,39.203l10.395-71.969h58.849v37.44v13.856c-1.487,5.787-2.223,12.441-2.223,20.102
		v36.84C332.679,358.227,333.409,365.635,334.901,371.293z M634.834,370.369c15.512,0,28.084,12.574,28.084,28.082
		c0,15.512-12.572,28.086-28.084,28.086c-15.508,0-28.082-12.574-28.082-28.086c0-1.633,0.147-3.232,0.415-4.791l2.614-2.012v-4.43
		v-1.449C614.415,376.635,623.891,370.369,634.834,370.369z M678.043,311.047h-77.262v72.74c-0.643,1.486-1.186,3.025-1.631,4.605
		c-2.012,1.391-5.751,3.812-10.48,6.107v11.762c-3.853,1.928-8.275,3.01-12.825,3.531c-0.152,11.174-1.443,20.588-3.233,24.699
		v10.42c2.952,0.949,6.126,2.605,9.477,5.252v1.117v10.27c0,0-6.318,4.738-16.059,4.738c-9.742,0-15.271-4.738-15.271-4.738
		l0.264-10.27l-0.003-0.865c0,0,3.457-4,9.481-5.754v-17.939c-2.971-2.871-6.217-5.941-9.19-8.611h-31.598
		c-5.219,5.855-12.813,9.547-21.274,9.547s-16.056-3.691-21.274-9.547H116.352V407.58h354.856c-0.821-2.66-1.265-5.486-1.265-8.416
		c0-1.791,0.173-3.541,0.489-5.24c-1.18-0.123-2.235-0.264-3.149-0.422c-4.229-0.73-7.951-2.412-11.174-5.045
		c-3.224-2.633-5.23-5.648-6.018-9.045c-0.486-2.094-0.821-5.939-1.007-11.523c0.794-4.473,1.188-9.969,1.188-16.701v-8.518v-9
		v-16.754c0-13.719-1.845-24.299-5.64-32.349c-1.359-2.882-3.057-5.567-5.069-8.061v-4.968h9.349v-0.221v-2.59v-17.308h27.181
		c-0.045,0.074-0.085,0.146-0.131,0.221h16.46v19.677v0.221h11.713v19.769h-11.713v0.221v14.252v5.266v47.852v0.221
		c0,0.32,0.003,0.617,0.004,0.926c0.001,0.137,0.001,0.279,0.002,0.414c0.03,4.396,0.21,7.662,0.539,9.781
		c0.011-0.002,0.022-0.004,0.033-0.006c0.057,0.342,0.117,0.65,0.183,0.928c1.704-0.318,3.459-0.492,5.255-0.492
		c6.162,0,11.862,1.961,16.523,5.287v-1.047c6.206,4.443,10.529,11.352,11.531,19.293c0.283,1.611,0.439,3.268,0.439,4.961
		c0,2.93-0.443,5.756-1.265,8.416h14.604c0.151-1.162,1.35-1.9,2.063-2.24v-11.869c-5.812-2.861-9.652-5.551-9.652-5.551
		l-0.3-76.873h-30.96v-5.266h30.939l-0.031-8.076c0,0,13.691-14.042,34.051-14.042c20.357,0,34.4,13.341,34.4,13.341v8.777h77.262
		V311.047z M501.422,320.047h21.995l0.196,50.32c-5.949-5.432-13.67-8.955-22.182-9.594c-0.003-0.23-0.004-0.469-0.006-0.711
		c-0.001-0.195-0.002-0.389-0.003-0.592c0-0.189-0.001-0.375-0.001-0.572V320.047z"/>
	<path fill="#F8F7F7" d="M536.253,396.771c-0.758-20.199-17.415-36.4-37.795-36.4c-0.008,0-0.015,0-0.021,0
		c-0.006,0-0.012,0-0.018,0c-1.944,0-3.851,0.152-5.715,0.436c-0.002,0.002-0.004,0.002-0.006,0.002
		c-7.582,1.156-14.434,4.566-19.84,9.531l-0.027,0.061c-7.501,6.92-12.209,16.822-12.209,27.807c0,0.453,0.019,0.902,0.033,1.352
		l-0.033,0.082c0.758,20.199,17.415,36.4,37.797,36.4c0.006,0,0.012,0,0.018,0c0.007,0,0.014,0,0.021,0
		c1.941,0,3.849-0.152,5.714-0.438c0.002,0,0.004,0,0.006,0c7.583-1.156,14.433-4.566,19.839-9.531l0.026-0.061
		c7.502-6.92,12.21-16.822,12.21-27.807c0-0.453-0.018-0.902-0.033-1.354L536.253,396.771z M498.438,425.105
		c-14.856,0-26.899-12.043-26.899-26.9c0-14.855,12.043-26.898,26.899-26.898s26.899,12.043,26.899,26.898
		C525.337,413.062,513.294,425.105,498.438,425.105z"/>
	<path fill="#F8F7F7" d="M385.515,312.922h12.678v-9.235c0-6.537-0.395-10.758-1.183-12.662s-2.399-2.855-4.835-2.855
		c-3.008,0-4.871,0.811-5.587,2.428c-0.716,1.619-1.073,5.98-1.073,13.09V312.922"/>
</g>
</svg>
