<?xml version="1.0" encoding="utf-8"?>
<!-- Generator: Adobe Illustrator 15.0.0, SVG Export Plug-In . SVG Version: 6.00 Build 0)  -->
<!DOCTYPE svg PUBLIC "-//W3C//DTD SVG 1.1//EN" "http://www.w3.org/Graphics/SVG/1.1/DTD/svg11.dtd">
<svg version="1.1" id="Layer_1" xmlns="http://www.w3.org/2000/svg" xmlns:xlink="http://www.w3.org/1999/xlink" x="0px" y="0px"
	 width="360px" height="360px" viewBox="0 0 360 360" enable-background="new 0 0 360 360" xml:space="preserve">
<path fill="#4990CD" d="M331.042,300.066c0,11.93-9.671,21.6-21.6,21.6H50.559c-11.93,0-21.6-9.67-21.6-21.6V59.933
	c0-11.93,9.67-21.6,21.6-21.6h258.883c11.929,0,21.6,9.67,21.6,21.6V300.066z"/>
<path fill="#4990CD" d="M711.041,300.066c0,11.93-9.67,21.6-21.6,21.6H430.559c-11.93,0-21.6-9.67-21.6-21.6V59.933
	c0-11.93,9.67-21.6,21.6-21.6h258.883c11.93,0,21.6,9.67,21.6,21.6V300.066z"/>
<path fill="#FFFFFF" d="M286.998,124.793c-1.845,0.166-3.198,0.795-4.964,1.035c-0.934,0.284-1.617,0.801-2.234,1.383
	c-0.844,3.288-2.193,7.738-1.611,11.975c0.308,2.243,1.883,4.03,2.48,5.756c0.228,4.588,0.456,9.205,1.615,12.893
	c0.869,2.786,3.845,6.027,1.858,9.328c-1.698,2.829-6.376,2.505-7.442,6.098c-0.339,2.841-0.21,6.255,0.496,9.213
	c1.624,6.822,5.014,13.284,7.445,19.577c0.816,2.114,1.26,4.486,3.226,5.753c3.704-0.29,6.222,0.521,7.322,2.65
	c0.154,3.636-2.585,4.584-5.337,5.525c-1.827,2.166-1.436,5.25-1.738,8.406c-0.508,5.364-2.736,9.823-3.227,15.081
	c-0.083,0.905-0.071,1.864,0,2.65c0.145,1.593,0.845,2.832,1.242,4.489c0.432,1.809,0.389,3.56,1.119,5.525
	c0.357,0.58,4.249,5.713,1.488,6.45c-1.59,0.422-3.34-1.356-4.222-2.071c-1.152-0.946-2.662-2.209-4.092-2.071
	c-0.866,0.077-1.347,0.992-1.984,1.726c-1.815,2.065-4.604,2.906-6.952,4.259c-1.879,1.085-3.306,2.823-4.837,4.141
	c-1.648,1.424-3.347,2.314-5.707,3.224c-4.598,1.106-9.657,0.862-14.393,1.383c-2.69,0.299-5.097,1.387-7.571,1.843
	c-2.946,0.545-6.401,0.459-9.43,0.228c-4.089-0.308-7.815-1.196-12.036-1.605c-2.049-0.203-4.209-0.166-6.08,0
	c-1.871,0.16-3.525,1.06-5.463,1.377c-0.807,0.129-1.72,0.104-2.607,0.228c-2.262,0.333-4.573,0.142-6.822-0.228
	c-2.034-0.333-3.957-1.294-6.822-0.921c-3.069,0.397-5.861,2.681-9.06,2.764c-0.425,0.012-0.927-0.191-1.362-0.231
	c-5.916-0.511-12.35-0.213-17.746-0.69c-2.524-0.222-5.436-0.838-8.687-0.345c-1.707,0.256-3.321,0.693-4.961,1.267
	c-2.829,0.305-6.16,0.57-9.309,0.921c-2.943,0.327-5.846,1.106-9.056,1.378c-2.573,0.225-5.874-0.188-7.568-0.916
	c-1.75-0.745-2.761-2.767-4.967-3.226c-0.419-0.089-0.964,0.071-1.488,0c-0.65-0.083-1.297-0.416-1.735-0.456
	c-1.649-0.167-3.359,0.12-5.091,0c-2.567-0.185-5.01-0.512-7.315-0.693c-3.99-0.321-6.582,1.688-11.044,1.149
	c-2.668-0.32-5.269-1.689-8.067-0.921c-1.959,0.537-3.701,2.064-5.833,2.764c-2.027,0.663-4.339,0.69-6.08,1.494
	c-1.078,0.505-2.064,1.295-3.103,1.96c-3.085,1.978-6.228,3.786-9.802,5.407c-2.238-0.067-4.789,0.145-6.822-0.11
	c-0.913-3.63,0.958-6.598,2.231-8.751c0.905-1.532,1.836-3.09,2.853-4.145c0.86-0.89,2.099-1.442,2.73-2.305
	c1.104-1.491,1.122-3.885,3.476-3.914c2.172-0.03,2.97,2.037,4.462,2.765c2.391-0.003,4.973-0.342,6.828-1.039
	c2.718-1.017,1.688-5.574,3.476-7.595c0.583-0.66,2.077-1.633,3.347-1.957c1.882-0.483,4.246-0.425,6.329-1.038
	c2.539-0.746,4.825-1.846,7.198-2.302c4.937-0.943,12.438-0.145,16.255-2.305c1.759-0.992,2.862-2.49,4.468-3.565
	c1.655-1.118,3.583-1.821,5.087-2.881c1.876-1.322,2.81-3.165,3.723-4.949c1.337-2.626,2.28-6.2,5.337-7.488
	c7.42-2.438,11.414,5.09,18.488,4.03c2.148-0.321,4.894-1.235,6.946-1.957c2.212-0.771,4.277-1.831,5.959-2.761
	c3.214-1.784,7.291-4.465,8.314-8.982c1.097-4.856-0.21-9.972-1.368-14.159c-0.66-2.388-0.74-4.955-1.615-7.026
	c-1.023-2.425-3.494-4.206-3.969-6.792c-0.481-2.619,0.333-4.973,0.496-7.254c1.8-4.884,3.972-10.461,5.833-15.77
	c1.104-3.149,3.199-5.981,2.108-10.021c-0.398-1.488-1.452-3.082-2.357-4.604c-0.869-1.457-1.741-3.044-2.604-4.373
	c-1.245-1.913-3.384-3.162-4.345-4.952c-0.792-1.738-0.721-3.683-1.119-5.642c-1.216-1.42-2.936-2.438-4.465-3.568
	c-1.546-1.149-3.288-2.104-4.837-3.227c-1.874-1.415-5.479-2.742-8.81-3.454c-1.14-0.24-2.345-0.579-3.349-0.688
	c-2.059-0.225-3.646,0.216-3.229,2.299c-0.98,0.943-1.381,2.179-3.593,1.843c-0.746-0.107-3.683-1.911-4.225-2.533
	c-0.33-0.379-0.376-0.884-0.496-1.152c-1.454-0.025-3.309,0.854-4.838,0.462c-0.853-0.219-0.869-0.912-1.488-1.38
	c-0.385-1.383,0.595-2.767,0.619-4.145c0.019-0.928-0.45-1.732-0.246-2.418c0.425-1.436,2.354-1.701,4.222-2.074
	c0.659-0.527,0.807-1.048,1.362-1.491c1.149-0.937,2.859-1.001,4.092-1.849c1.032-0.706,1.549-2.249,2.856-2.875
	c4.367-2.095,12.477-0.357,18.489-1.152c3.112-0.413,6.425-2.178,9.306-2.188c1.519-0.006,3.245,0.742,4.714,0.348
	c1.181-0.318,2.61-2.869,4.838-2.999c0.946-0.052,1.488,0.24,2.606,0.462c0.916-0.407,1.192-1.005,2.234-1.035
	c1.719-0.053,3.211,1.531,3.472,2.995c2.009-1.014,2.524-3.417,4.964-4.031c4.351,0.389,5.288-2.388,7.321-4.144
	c0.956-0.309,1.807-0.376,2.73-0.576c2.878-0.616,3.815-3.294,7.199-2.647c2.443,0.462,4.949,1.771,7.567,2.302
	c1.633,0.33,3.144,0.287,5.211,0.456c0.866,0.077,1.679,0.397,2.483,0.465c0.838,0.068,1.649-0.068,2.478,0
	c2.526,0.2,4.859,0.638,7.447,0.462c0.882-0.064,1.793-0.375,2.73-0.462c2.977-0.268,6.262-0.389,9.06-0.921
	c4.838-0.924,8.908-3.731,14.144-4.606c2.015-0.336,4.486-0.586,6.945-0.573c1.852,0.009,3.914,0.207,5.46-0.348
	c0.826-0.293,1.812-1.079,2.856-1.492c2.678-0.693,5.118,0.317,7.445-0.465c1.809-0.611,3.008-2.398,4.964-2.647
	c3.417-0.336,5.651,0.949,8.314,1.263c4.872,0.58,11.494-0.576,15.755,0c0.447,0.068,0.94,0.336,1.615,0.462
	c1.254,0.237,4.188,0.342,4.465,1.387c0.323,1.199-1.319,3.546-1.985,4.718c-0.955,1.682-1.879,2.749-2.854,3.799
	c-2.055,2.215-4.098,5.198-5.333,7.941C296.637,116.568,293.553,122.183,286.998,124.793z"/>
<path fill="#FFFFFF" d="M679.684,91.956c3.771,3.499,7.009,7.511,9.593,12.176v13.353c-2.685,7.399-7.634,11.733-6.394,20.029
	c1.131,7.553,6.125,13.091,4.791,20.417c-0.984,5.451-7.012,11.45-14.38,10.602c-3.442-0.395-7.814-3.311-11.991-2.354
	c-5,1.138-3.723,13.039-13.182,11.785c-4.215-0.562-6.91-7.965-11.191-7.857c-3.422,0.084-5.607,6.46-7.193,10.21
	c-3.373,7.993-5.35,15.252-13.98,18.063c-3.108-0.307-5.078,0.506-7.994,0.391c-12.119,3.014-10.482,19.541-21.579,23.56
	c-9.048-0.45-16.646,3.778-24.771,3.143c-4.444-0.342-8.472-2.654-13.587-1.571c-2.74,1.494-2.898,5.534-3.198,9.424
	c-1.229,0.883-2.298,1.931-3.195,3.143c-10.382,2.49-25.19,0.639-35.163,3.538c-8.202,3.719-10.598,13.143-18.779,16.886
	c0.311,1.613-0.614,2.015-0.401,3.534c-4.459,5.287-13.698,10-22.774,6.673c-5.328-1.956-11.16-3.932-15.584-7.068
	c-1.896-1.348-3.244-4.078-5.191-4.323c-2.061-0.255-3.227,1.603-5.197,1.575c-4.099-0.059-7.961-4.508-7.591-8.248
	c0.511-5.203,7.319-5.455,11.587-7.071c0.861-5.699,8.037-5.192,10.391-9.421c-0.412-4.725,0.346-8.296,1.195-11.785
	c3.065-3.464,5.129-7.085,8.792-10.601c3.163-3.031,7.64-5.262,10.388-9.03c4.299-5.88,4.738-15.972,11.59-18.849
	c2.951-1.24,6.02-0.981,8.789-1.962c3.217-1.383,4.334-4.1,7.197-5.891c6.166-3.873,17.525-4.292,20.375-10.604
	c1.299-2.881,1.693-6.579,3.596-9.03c5.137-6.627,17.491-9.784,25.97-13.748c4.63-2.161,8.024-4.284,13.192-6.285
	c12.264,1.819,14.246-7.12,22.773-9.421c2.832-0.765,4.931,0.031,7.99-1.966c2.514-2.137,2.321-4.533,3.998-6.677
	c6.016-7.699,20.234-5.475,25.57-13.744c4.291-1.355,12.68-1.568,17.982,0c4.638,1.375,6.842,7.497,11.587,6.676
	c3.575-0.618,3.768-5.388,4.396-10.21C665.717,97.344,668.633,90.649,679.684,91.956z"/>
<path fill="#FFFFFF" stroke="#4990CD" stroke-width="4" stroke-miterlimit="10" d="M331.042,685.482
	c0,11.93-9.671,21.601-21.6,21.601H50.559c-11.93,0-21.6-9.671-21.6-21.601V445.35c0-11.93,9.67-21.6,21.6-21.6h258.883
	c11.929,0,21.6,9.67,21.6,21.6V685.482z"/>
<path fill="#FFFFFF" stroke="#4990CD" stroke-width="4" stroke-miterlimit="10" d="M711.041,685.482
	c0,11.93-9.67,21.601-21.6,21.601H430.559c-11.93,0-21.6-9.671-21.6-21.601V445.35c0-11.93,9.67-21.6,21.6-21.6h258.883
	c11.93,0,21.6,9.67,21.6,21.6V685.482z"/>
<path fill="#FFFFFF" stroke="#4990CD" stroke-width="4" stroke-miterlimit="10" d="M286.998,510.209
	c-1.845,0.166-3.198,0.795-4.964,1.035c-0.934,0.284-1.617,0.801-2.234,1.384c-0.844,3.288-2.193,7.737-1.611,11.975
	c0.308,2.243,1.883,4.03,2.48,5.756c0.228,4.589,0.456,9.204,1.615,12.894c0.869,2.785,3.845,6.027,1.858,9.327
	c-1.698,2.829-6.376,2.505-7.442,6.099c-0.339,2.84-0.21,6.255,0.496,9.213c1.624,6.822,5.014,13.284,7.445,19.576
	c0.816,2.114,1.26,4.486,3.226,5.754c3.704-0.29,6.222,0.52,7.322,2.65c0.154,3.635-2.585,4.584-5.337,5.524
	c-1.827,2.166-1.436,5.251-1.738,8.406c-0.508,5.364-2.736,9.823-3.227,15.081c-0.083,0.904-0.071,1.863,0,2.649
	c0.145,1.593,0.845,2.831,1.242,4.489c0.432,1.809,0.389,3.56,1.119,5.525c0.357,0.579,4.249,5.713,1.488,6.449
	c-1.59,0.422-3.34-1.355-4.222-2.07c-1.152-0.946-2.662-2.21-4.092-2.071c-0.866,0.077-1.347,0.992-1.984,1.726
	c-1.815,2.064-4.604,2.906-6.952,4.259c-1.879,1.085-3.306,2.823-4.837,4.142c-1.648,1.424-3.347,2.313-5.707,3.223
	c-4.598,1.106-9.657,0.863-14.393,1.384c-2.69,0.3-5.097,1.387-7.571,1.843c-2.946,0.545-6.401,0.459-9.43,0.229
	c-4.089-0.309-7.815-1.196-12.036-1.605c-2.049-0.203-4.209-0.166-6.08,0c-1.871,0.16-3.525,1.06-5.463,1.377
	c-0.807,0.129-1.72,0.104-2.607,0.229c-2.262,0.332-4.573,0.141-6.822-0.229c-2.034-0.333-3.957-1.295-6.822-0.922
	c-3.069,0.398-5.861,2.682-9.06,2.765c-0.425,0.013-0.927-0.19-1.362-0.231c-5.916-0.512-12.35-0.213-17.746-0.689
	c-2.524-0.223-5.436-0.839-8.687-0.346c-1.707,0.256-3.321,0.693-4.961,1.267c-2.829,0.306-6.16,0.57-9.309,0.921
	c-2.943,0.327-5.846,1.106-9.056,1.378c-2.573,0.226-5.874-0.188-7.568-0.915c-1.75-0.746-2.761-2.768-4.967-3.227
	c-0.419-0.09-0.964,0.07-1.488,0c-0.65-0.083-1.297-0.416-1.735-0.456c-1.649-0.167-3.359,0.12-5.091,0
	c-2.567-0.185-5.01-0.512-7.315-0.693c-3.99-0.321-6.582,1.688-11.044,1.149c-2.668-0.32-5.269-1.689-8.067-0.922
	c-1.959,0.537-3.701,2.064-5.833,2.765c-2.027,0.663-4.339,0.69-6.08,1.494c-1.078,0.505-2.064,1.295-3.103,1.96
	c-3.085,1.979-6.228,3.787-9.802,5.408c-2.238-0.068-4.789,0.145-6.822-0.111c-0.913-3.63,0.958-6.598,2.231-8.751
	c0.905-1.532,1.836-3.091,2.853-4.145c0.86-0.89,2.099-1.442,2.73-2.306c1.104-1.49,1.122-3.885,3.476-3.913
	c2.172-0.03,2.97,2.037,4.462,2.765c2.391-0.004,4.973-0.342,6.828-1.039c2.718-1.017,1.688-5.574,3.476-7.596
	c0.583-0.659,2.077-1.633,3.347-1.957c1.882-0.482,4.246-0.425,6.329-1.037c2.539-0.746,4.825-1.847,7.198-2.303
	c4.937-0.942,12.438-0.145,16.255-2.305c1.759-0.992,2.862-2.49,4.468-3.565c1.655-1.118,3.583-1.821,5.087-2.881
	c1.876-1.321,2.81-3.165,3.723-4.948c1.337-2.627,2.28-6.2,5.337-7.488c7.42-2.438,11.414,5.09,18.488,4.03
	c2.148-0.321,4.894-1.235,6.946-1.956c2.212-0.771,4.277-1.831,5.959-2.762c3.214-1.784,7.291-4.465,8.314-8.982
	c1.097-4.856-0.21-9.972-1.368-14.159c-0.66-2.388-0.74-4.955-1.615-7.026c-1.023-2.424-3.494-4.205-3.969-6.791
	c-0.481-2.619,0.333-4.973,0.496-7.254c1.8-4.884,3.972-10.461,5.833-15.77c1.104-3.15,3.199-5.981,2.108-10.021
	c-0.398-1.488-1.452-3.082-2.357-4.604c-0.869-1.457-1.741-3.045-2.604-4.373c-1.245-1.913-3.384-3.162-4.345-4.951
	c-0.792-1.738-0.721-3.684-1.119-5.643c-1.216-1.42-2.936-2.438-4.465-3.568c-1.546-1.149-3.288-2.104-4.837-3.227
	c-1.874-1.414-5.479-2.742-8.81-3.454c-1.14-0.24-2.345-0.579-3.349-0.688c-2.059-0.225-3.646,0.216-3.229,2.299
	c-0.98,0.943-1.381,2.179-3.593,1.843c-0.746-0.107-3.683-1.91-4.225-2.533c-0.33-0.379-0.376-0.883-0.496-1.152
	c-1.454-0.024-3.309,0.854-4.838,0.463c-0.853-0.219-0.869-0.912-1.488-1.381c-0.385-1.383,0.595-2.768,0.619-4.145
	c0.019-0.928-0.45-1.732-0.246-2.418c0.425-1.437,2.354-1.701,4.222-2.074c0.659-0.527,0.807-1.049,1.362-1.492
	c1.149-0.937,2.859-1.001,4.092-1.849c1.032-0.706,1.549-2.249,2.856-2.875c4.367-2.095,12.477-0.357,18.489-1.152
	c3.112-0.413,6.425-2.179,9.306-2.188c1.519-0.007,3.245,0.742,4.714,0.349c1.181-0.318,2.61-2.869,4.838-2.999
	c0.946-0.052,1.488,0.24,2.606,0.462c0.916-0.406,1.192-1.004,2.234-1.035c1.719-0.053,3.211,1.531,3.472,2.995
	c2.009-1.014,2.524-3.417,4.964-4.03c4.351,0.389,5.288-2.389,7.321-4.145c0.956-0.309,1.807-0.377,2.73-0.576
	c2.878-0.616,3.815-3.294,7.199-2.646c2.443,0.461,4.949,1.771,7.567,2.301c1.633,0.33,3.144,0.287,5.211,0.457
	c0.866,0.076,1.679,0.396,2.483,0.465c0.838,0.068,1.649-0.068,2.478,0c2.526,0.2,4.859,0.639,7.447,0.462
	c0.882-0.064,1.793-0.376,2.73-0.462c2.977-0.268,6.262-0.389,9.06-0.922c4.838-0.924,8.908-3.73,14.144-4.605
	c2.015-0.336,4.486-0.586,6.945-0.574c1.852,0.01,3.914,0.207,5.46-0.348c0.826-0.293,1.812-1.078,2.856-1.492
	c2.678-0.693,5.118,0.317,7.445-0.465c1.809-0.61,3.008-2.397,4.964-2.646c3.417-0.336,5.651,0.949,8.314,1.263
	c4.872,0.579,11.494-0.576,15.755,0c0.447,0.067,0.94,0.336,1.615,0.462c1.254,0.238,4.188,0.342,4.465,1.387
	c0.323,1.199-1.319,3.547-1.985,4.719c-0.955,1.682-1.879,2.748-2.854,3.799c-2.055,2.215-4.098,5.198-5.333,7.941
	C296.637,501.984,293.553,507.6,286.998,510.209z"/>
<path fill="#FFFFFF" stroke="#4990CD" stroke-width="4" stroke-miterlimit="10" d="M679.684,477.372
	c3.771,3.499,7.009,7.511,9.593,12.177V502.9c-2.685,7.4-7.634,11.733-6.394,20.029c1.131,7.554,6.125,13.092,4.791,20.418
	c-0.984,5.451-7.012,11.449-14.38,10.602c-3.442-0.395-7.814-3.311-11.991-2.354c-5,1.138-3.723,13.038-13.182,11.785
	c-4.215-0.562-6.91-7.966-11.191-7.857c-3.422,0.084-5.607,6.46-7.193,10.211c-3.373,7.992-5.35,15.252-13.98,18.062
	c-3.108-0.307-5.078,0.506-7.994,0.391c-12.119,3.014-10.482,19.541-21.579,23.561c-9.048-0.451-16.646,3.777-24.771,3.143
	c-4.444-0.342-8.472-2.654-13.587-1.571c-2.74,1.494-2.898,5.534-3.198,9.425c-1.229,0.883-2.298,1.931-3.195,3.143
	c-10.382,2.489-25.19,0.639-35.163,3.537c-8.202,3.719-10.598,13.143-18.779,16.887c0.311,1.613-0.614,2.015-0.401,3.533
	c-4.459,5.287-13.698,10.001-22.774,6.674c-5.328-1.956-11.16-3.933-15.584-7.068c-1.896-1.348-3.244-4.078-5.191-4.322
	c-2.061-0.256-3.227,1.603-5.197,1.574c-4.099-0.059-7.961-4.508-7.591-8.248c0.511-5.203,7.319-5.454,11.587-7.07
	c0.861-5.699,8.037-5.193,10.391-9.422c-0.412-4.725,0.346-8.296,1.195-11.785c3.065-3.463,5.129-7.084,8.792-10.601
	c3.163-3.03,7.64-5.263,10.388-9.03c4.299-5.88,4.738-15.972,11.59-18.849c2.951-1.239,6.02-0.981,8.789-1.962
	c3.217-1.383,4.334-4.1,7.197-5.892c6.166-3.872,17.525-4.292,20.375-10.604c1.299-2.881,1.693-6.578,3.596-9.03
	c5.137-6.628,17.491-9.784,25.97-13.747c4.63-2.162,8.024-4.285,13.192-6.285c12.264,1.818,14.246-7.121,22.773-9.422
	c2.832-0.764,4.931,0.031,7.99-1.965c2.514-2.138,2.321-4.533,3.998-6.678c6.016-7.699,20.234-5.475,25.57-13.743
	c4.291-1.354,12.68-1.567,17.982,0c4.638,1.376,6.842,7.497,11.587,6.677c3.575-0.619,3.768-5.389,4.396-10.211
	C665.717,482.76,668.633,476.066,679.684,477.372z"/>
</svg>
