<?xml version="1.0" encoding="utf-8"?>
<!-- Generator: Adobe Illustrator 18.0.0, SVG Export Plug-In . SVG Version: 6.00 Build 0)  -->
<!DOCTYPE svg PUBLIC "-//W3C//DTD SVG 1.1//EN" "http://www.w3.org/Graphics/SVG/1.1/DTD/svg11.dtd">
<svg version="1.1" id="Layer_1" xmlns="http://www.w3.org/2000/svg" xmlns:xlink="http://www.w3.org/1999/xlink" x="0px" y="0px"
	 viewBox="0 0 290 234" enable-background="new 0 0 290 234" xml:space="preserve">
<g>
	<path fill="#939FA3" d="M147.9,230.6c-16.3,0-46.4,0-59.5,0c-5.2,0-5.3-0.4-5.3-0.4l7.1-1.9c0,0,1.8-0.5,2.5-1.9
		c1.1-2.1,1.4-5.4,1.4-5.4l1.1-16H141l1.1,16c0,0,0.3,3.3,1.4,5.4c0.7,1.4,2.5,1.9,2.5,1.9l7.1,1.9
		C153.2,230.2,153.2,230.6,147.9,230.6z"/>
	<path fill="#939FA3" d="M233.7,183.7v15.7c0,3.2-2.8,5.8-6,5.8H8.3c-3.2,0-5.8-2.6-5.8-5.7v-15.7h231.2V183.7z"/>
	<path fill="#FFFFFF" d="M2.5,183.9V52.1c0-3.2,2.6-5.8,5.8-5.8h219.4c3.2,0,6,2.6,6,5.8V184L2.5,183.9L2.5,183.9z"/>
	<g>
		<rect x="11.7" y="55.7" fill="#24A4D1" width="212.7" height="118.8"/>
		<polygon fill="#525B33" points="224.4,174.5 224.4,124.1 180.5,83.7 70.2,174.5 		"/>
		<polygon opacity="0.5" fill="#B2B2B2" enable-background="new    " points="180.4,174.5 180.4,83.7 70.2,174.5 		"/>
		<polygon fill="#4E6D49" points="52.8,118.4 11.7,152.3 11.7,174.5 113.8,174.5 		"/>
		<polygon opacity="0.5" fill="#B2B2B2" enable-background="new    " points="11.7,152.3 11.7,174.5 52.8,174.5 52.8,118.5 
			39.7,129.2 		"/>
		<path fill="#FFFFFF" d="M26.2,84.9c0.1-0.4,0.2-0.9,0.2-1.4c0-3.7-3.2-6.5-6.8-6.5c-1.6,0-3.2,0.6-4.4,1.6c-0.8-1.5-2-2.7-3.4-3.5
			v21.8h10.5l0,0c0.2,0,0.3,0,0.5,0c3.6,0,6.8-2.8,6.8-6.5C29.5,88.1,28.2,86,26.2,84.9z"/>
	</g>
	<polygon fill="#3B4651" points="141.4,210.2 141.1,205 95.2,205 94.9,210.2 	"/>
	<path fill="#3B4651" d="M83.1,230.6c0,0,0.9,0.6,5.3,0.6c13.1,0,43.3,0,59.5,0c3.9,0,5.3-0.6,5.3-0.6v-0.5c0,0,0,0.4-5.3,0.4
		c-16.3,0-46.4,0-59.5,0c-5.3,0-5.3-0.4-5.3-0.4L83.1,230.6z"/>
	<circle fill="#FF5331" cx="60.3" cy="81.8" r="10.9"/>
	<g>
		<circle fill="#F7A334" cx="61.1" cy="66.1" r="2.2"/>
		<circle fill="#F7A334" cx="52.3" cy="68.3" r="2.2"/>
		<circle fill="#FFFA43" cx="46.3" cy="74.7" r="2.2"/>
		<circle fill="#F7A334" cx="44.6" cy="83.7" r="2.2"/>
		<circle fill="#FFFA43" cx="48" cy="92" r="2.2"/>
		<circle fill="#F7A334" cx="55.2" cy="97.1" r="2.2"/>
		<circle fill="#FFFA43" cx="64.4" cy="97.5" r="2.2"/>
		<circle fill="#F7A334" cx="72" cy="92.9" r="2.2"/>
		<circle fill="#FFFA43" cx="76.1" cy="85" r="2.2"/>
		<circle fill="#F7A334" cx="75.2" cy="75.9" r="2.2"/>
		<circle fill="#FFFA43" cx="69.6" cy="69" r="2.2"/>
		<circle fill="#F7A334" cx="61.1" cy="66.1" r="2.2"/>
	</g>
	<path fill="#FFFFFF" d="M99.3,96.4h-12l0,0c-0.1,0-0.2,0-0.3,0c-2.1,0-3.9-1.6-3.9-3.8c0-1.3,0.8-2.5,1.9-3.2
		c-0.1-0.3-0.1-0.5-0.1-0.8c0-2.1,1.8-3.8,3.9-3.8c0.9,0,1.8,0.3,2.6,0.9c0.8-1.6,2.5-2.7,4.3-2.7c2.6,0,4.8,2,4.8,4.6
		c0,0.5-0.1,0.9-0.2,1.4c1.5,0.5,2.6,1.9,2.6,3.5C102.9,94.7,101.3,96.3,99.3,96.4L99.3,96.4z"/>
	<g>
		
			<rect x="142.6" y="136.3" transform="matrix(0.9924 0.123 -0.123 0.9924 18.2452 -16.5293)" fill="#939393" width="0.8" height="6.4"/>
		
			<rect x="87.3" y="129.3" transform="matrix(0.716 0.6981 -0.6981 0.716 117.0837 -23.7155)" fill="#939393" width="0.8" height="5.5"/>
		<polygon fill="#939393" points="141.7,140.3 140.8,141.2 136,136.1 137.2,135.7 		"/>
		<circle fill="#939393" cx="142.1" cy="141.1" r="2.6"/>
		<circle fill="#939393" cx="86.7" cy="132.9" r="1.9"/>
		<g>
			<g>
				<path id="SVGID_1_" fill="#F4F4F4" d="M76.4,111.2c0,0,3.1-1.9,6.7-0.9c6.2,1.7,6.7,9.2,10.3,10.5c4.5,1.6,38.4,0.8,38.4,0.8
					s25.7-0.5,29.8,0.9c4.5,1.5,5,3.3,5,3.3s5.7,1.1,5.7,4.3c0,5-16.9,7.4-45.8,6.1c-15.1-0.7-49.9-8-49.9-8s0.9-0.8,0.4-2.4
					c-0.4-1.2-2-1-2-1L76.4,111.2z"/>
			</g>
			<g>
				<g>
					<defs>
						<path id="SVGID_2_" d="M76.4,111.2c0,0,3.1-1.9,6.7-0.9c6.2,1.7,6.7,9.2,10.3,10.5c4.5,1.6,38.4,0.8,38.4,0.8
							s25.7-0.5,29.8,0.9c4.5,1.5,5,3.3,5,3.3s5.7,1.1,5.7,4.3c0,5-16.9,7.4-45.8,6.1c-15.1-0.7-49.9-8-49.9-8s0.9-0.8,0.4-2.4
							c-0.4-1.2-2-1-2-1L76.4,111.2z"/>
					</defs>
					<clipPath id="SVGID_3_">
						<use xlink:href="#SVGID_2_"  overflow="visible"/>
					</clipPath>
					
						<rect x="79.9" y="129.1" clip-path="url(#SVGID_3_)" fill="#B5B5B5" stroke="#727272" stroke-width="3.0221" stroke-miterlimit="10" width="94" height="9.7"/>
				</g>
			</g>
			<g>
				<g>
					<defs>
						<path id="SVGID_4_" d="M76.4,111.2c0,0,3.1-1.9,6.7-0.9c6.2,1.7,6.7,9.2,10.3,10.5c4.5,1.6,38.4,0.8,38.4,0.8
							s25.7-0.5,29.8,0.9c4.5,1.5,5,3.3,5,3.3s5.7,1.1,5.7,4.3c0,5-16.9,7.4-45.8,6.1c-15.1-0.7-49.9-8-49.9-8s0.9-0.8,0.4-2.4
							c-0.4-1.2-2-1-2-1L76.4,111.2z"/>
					</defs>
					<clipPath id="SVGID_5_">
						<use xlink:href="#SVGID_4_"  overflow="visible"/>
					</clipPath>
					<rect x="160.5" y="123.9" clip-path="url(#SVGID_5_)" fill="#C1C1C1" width="6.7" height="1.8"/>
				</g>
			</g>
		</g>
		<path fill="#C9C9C9" d="M78.8,124.2c0,0,1.3,0.5,1.1,1.3c-0.2,0.7,0,0.9,0,0.9l25.8-2.8L78.8,124.2z"/>
		<path fill="#727272" d="M144.7,127.5c-3.2,0.1-5.1,1.3-5.1,1.3v1.3c0,0,1.8,1.5,4.1,1.7c2.1,0.2,2.1,0.6,6.1-0.1v-4.1
			C149.8,127.7,148.2,127.3,144.7,127.5z"/>
		<polygon fill="#C9C9C9" points="148.8,129.8 121.9,129.8 120,126.4 		"/>
		<g>
			<path fill="#E5E5E5" d="M173.1,128.8c0,0-0.3-3.2-0.5-4.5s0.1-1.8,0.5-1.8c0.8,0,0.6,1.8,0.6,1.8L173.1,128.8z"/>
			<path fill="#E5E5E5" d="M173.1,128.7c0,0-0.3,3.2-0.5,4.5s0.1,1.8,0.5,1.8c0.8,0,0.6-1.8,0.6-1.8L173.1,128.7z"/>
			<circle fill="#E5E5E5" cx="173.1" cy="128.8" r="0.5"/>
		</g>
	</g>
	<g>
		<g opacity="0.27">
			<path d="M230.1,8.7c3.4,0.5,6.8,3.3,7.6,6.7c1.1,4.3,1.5,9,1.5,13.4s-0.4,9.1-1.5,13.4c-0.9,3.4-4.2,6.3-7.6,6.8
				c-3,0.3-4.8,0.4-7.8,0.6V62l-14.2-11.9c-2.2,0.1-9.1-0.5-14.2-1.2c-3.4-0.5-6.8-3.3-7.6-6.8c-1.1-4.2-1.6-8.9-1.6-13.4
				c0-4.4,0.5-9.1,1.6-13.4c0.9-3.3,4.2-6.2,7.6-6.7c2.2-0.3,9.5-1.3,14.8-1.3C214.1,7.4,221.8,7.4,230.1,8.7z"/>
		</g>
		<g>
			<path fill="#FFFFFF" d="M227.1,2.6c3.4,0.5,6.8,3.3,7.6,6.7c1.1,4.3,1.5,9,1.5,13.4s-0.4,9.1-1.5,13.4c-0.9,3.4-4.2,6.3-7.6,6.8
				c-3,0.3-4.8,0.4-7.8,0.6v12.4L205,44c-2.2,0.1-9.1-0.5-14.2-1.2c-3.4-0.5-6.8-3.3-7.6-6.8c-1.1-4.2-1.6-8.9-1.6-13.4
				c0-4.4,0.5-9.1,1.6-13.4c0.9-3.3,4.2-6.2,7.6-6.7c2.2-0.3,9.5-1.3,14.8-1.3C211,1.3,218.8,1.3,227.1,2.6z"/>
		</g>
	</g>
	<g enable-background="new    ">
		<path fill="#9F2920" d="M206.9,20.8h-4.3v-4.2h4.3V20.8z M202.6,26.3h4.3v4.2h-4.3V26.3z"/>
		<path fill="#9F2920" d="M208.4,35.5c2-3.8,3-8.2,3-12.4c0-4.3-0.9-8.7-3-12.7h3.2c2.3,3.8,3.6,8.1,3.6,12.4
			c0,4.1-1.2,9.2-3.6,12.7H208.4z"/>
	</g>
	<g>
		<g opacity="0.27">
			<path d="M126.9,59c0-10,7.8-17.5,16.7-20.6c3.6-1.3,7.5-1.9,11.3-1.9c3.9,0,7.7,0.6,11.4,1.9c8.8,3.2,16.6,10.6,16.6,20.6
				c0,4.8-2,9.3-5,12.9c0.3,4.5,2.4,9.5,5,13.1l-17-5.1l0.1-0.2c-3.6,1.3-7.3,1.9-11.1,1.9s-7.7-0.6-11.3-1.9
				C134.6,76.5,126.9,69,126.9,59z"/>
		</g>
		<g>
			<path fill="#FCFCFC" d="M123.8,53c0-10,7.8-17.5,16.7-20.6c3.6-1.3,7.5-1.9,11.3-1.9c3.9,0,7.7,0.6,11.4,1.9
				C172,35.6,179.8,43,179.8,53c0,4.8-2,9.3-5,12.9c0.3,4.5,2.4,9.5,5,13.1l-17-5.1l0.1-0.2c-3.6,1.3-7.3,1.9-11.1,1.9
				s-7.7-0.6-11.3-1.9C131.6,70.4,123.8,62.9,123.8,53z"/>
		</g>
	</g>
	<g>
		<path fill="none" stroke="#9F2920" stroke-width="3.0221" stroke-miterlimit="10" d="M162.3,51.4c-0.3,0.8-0.7,1.5-1.2,2.2
			c-2.4,3.8-5.9,7.2-9.3,10c-3.5-2.8-7-6.2-9.3-10c-0.4-0.7-0.9-1.5-1.2-2.2c-0.3-0.8-0.5-1.5-0.5-2.3c0-3.2,2.7-5.8,5.9-5.8
			c2.1,0,4.1,1.1,5.1,3c1-1.8,3-3,5.1-3c3.2,0,5.8,2.6,5.8,5.8C162.8,50,162.6,50.7,162.3,51.4z"/>
	</g>
	<g>
		<g>
			<g opacity="0.27">
				<path d="M277.9,58.5c-2.4,0.9-5,1.3-7.5,1.3s-5-0.4-7.4-1.3l0.1,0.1L251.8,62c1.7-2.4,3.2-5.7,3.3-8.7c-2-2.4-3.3-5.4-3.3-8.6
					c0-6.6,5.2-11.6,11.1-13.7c2.4-0.9,5-1.3,7.6-1.3c2.5,0,5.1,0.4,7.5,1.3c5.9,2.1,11.1,7.1,11.1,13.7
					C289,51.4,283.8,56.3,277.9,58.5z"/>
			</g>
			<g>
				<path fill="#FFFFFF" d="M276.4,52.4c-2.4,0.9-5,1.3-7.5,1.3s-5-0.4-7.4-1.3l0.1,0.1l-11.3,3.4c1.7-2.4,3.2-5.7,3.3-8.7
					c-2-2.4-3.3-5.4-3.3-8.6c0-6.6,5.2-11.6,11.1-13.7c2.4-0.9,5-1.3,7.6-1.3c2.5,0,5.1,0.4,7.5,1.3c5.9,2.1,11.1,7.1,11.1,13.7
					C287.5,45.3,282.3,50.3,276.4,52.4z"/>
			</g>
		</g>
		<g>
			<path fill="#9F2920" d="M276.3,38.4c-0.2,0.5-0.5,1.1-0.8,1.6c-1.7,2.7-4.1,5.1-6.6,7c-2.4-1.9-4.9-4.3-6.5-7
				c-0.3-0.5-0.6-1-0.8-1.6c-0.2-0.5-0.3-1-0.3-1.6c0-2.3,1.9-4.1,4.1-4.1c1.5,0,2.9,0.8,3.6,2.1c0.7-1.3,2.1-2.1,3.6-2.1
				c2.2,0,4.1,1.8,4.1,4.1C276.6,37.3,276.5,37.8,276.3,38.4z"/>
		</g>
	</g>
	<g>
		<g opacity="0.27">
			<path d="M232.3,75c6.2,0,12.5,0.3,18.8,0.8c2.6,0.2,5.2,0.4,7.8,0.7c4,0.6,7.9,3.9,9,7.8c1.3,5,1.8,10.6,1.8,15.8
				c0,5.2-0.6,10.7-1.8,15.7c-1,4-5,7.4-9,7.9c-6,0.7-12.2,1.6-18.3,1.6c-2.6,0-5-0.1-7.6-0.2L216.3,139v-14.6
				c-3.6-0.2-7.2-0.3-10.7-0.7c-4-0.6-7.9-3.9-9-7.9c-1.3-5-1.8-10.5-1.8-15.7s0.5-10.7,1.8-15.8c1-3.9,5-7.3,9-7.8
				c2.6-0.3,5.2-0.5,7.8-0.7C219.8,75.4,226,75,232.3,75z"/>
		</g>
		<g>
			<g>
				<path fill="#FFFFFF" d="M229.3,69c6.2,0,12.5,0.3,18.8,0.8c2.6,0.2,5.2,0.4,7.8,0.7c4,0.6,7.9,3.9,9,7.8
					c1.3,5,1.8,10.6,1.8,15.8c0,5.2-0.6,10.7-1.8,15.7c-1,4-5,7.4-9,7.9c-6,0.7-12.2,1.6-18.3,1.6c-2.6,0-5-0.1-7.6-0.2L213.4,133
					v-14.6c-3.6-0.2-7.2-0.3-10.7-0.7c-4-0.6-7.9-3.9-9-7.9c-1.3-5-1.8-10.5-1.8-15.7s0.5-10.7,1.8-15.8c1-3.9,5-7.3,9-7.8
					c2.6-0.3,5.2-0.5,7.8-0.7C216.7,69.3,223,69,229.3,69z"/>
			</g>
			<g enable-background="new    ">
				<path fill="#9F2920" d="M208.1,104.7v-7.6L201,86.2h4.5l4.6,7.4l4.6-7.4h4.5l-7.1,10.9v7.6H208.1z"/>
				<path fill="#9F2920" d="M220.8,104.7V86.2h13.1v3.5h-9.2v3.9h9V97h-9v4.2h9.2v3.5H220.8z"/>
				<path fill="#9F2920" d="M235.7,102.1l2.2-3.1c1.3,1.4,3.3,2.5,5.9,2.5c2.2,0,3.2-1,3.2-2.1c0-3.2-10.7-1-10.7-7.9
					c0-3.1,2.7-5.6,7-5.6c2.9,0,5.4,0.9,7.2,2.6l-2.2,2.9c-1.5-1.4-3.5-2-5.4-2c-1.7,0-2.6,0.7-2.6,1.8c0,2.9,10.6,0.9,10.6,7.9
					c0,3.4-2.4,5.9-7.4,5.9C240,105,237.5,103.8,235.7,102.1z"/>
				<path fill="#9F2920" d="M253.2,102.7c0-1.2,1-2.2,2.2-2.2c1.2,0,2.2,1,2.2,2.2s-1,2.2-2.2,2.2S253.2,103.9,253.2,102.7z
					 M253.8,98.6l-0.6-12.5h4.2l-0.6,12.5H253.8z"/>
			</g>
		</g>
	</g>
</g>
</svg>
