<?xml version="1.0" encoding="utf-8"?>
<!-- Generator: Adobe Illustrator 18.0.0, SVG Export Plug-In . SVG Version: 6.00 Build 0)  -->
<!DOCTYPE svg PUBLIC "-//W3C//DTD SVG 1.1//EN" "http://www.w3.org/Graphics/SVG/1.1/DTD/svg11.dtd">
<svg version="1.1" id="Layer_1" xmlns="http://www.w3.org/2000/svg" xmlns:xlink="http://www.w3.org/1999/xlink" x="0px" y="0px"
	 viewBox="0 0 272 220" enable-background="new 0 0 272 220" xml:space="preserve">
<g>
	<g>
		<g>
			<polygon fill="#919191" points="133.9,42.1 127,40.2 127,43.7 133.9,45.7 			"/>
			<polygon fill="#DBDBDB" points="133.9,42.1 133.9,45.7 140.5,47.5 140.5,43.9 			"/>
		</g>
		<g>
			<polygon fill="#919191" points="133.9,48.1 127,46.2 127,49.7 133.9,51.7 			"/>
			<polygon fill="#DBDBDB" points="133.9,48.1 133.9,51.7 140.5,53.5 140.5,49.9 			"/>
		</g>
		<g>
			<polygon fill="#919191" points="133.9,54.1 127,52.2 127,55.7 133.9,57.7 			"/>
			<polygon fill="#DBDBDB" points="133.9,54.1 133.9,57.7 140.5,59.5 140.5,55.9 			"/>
		</g>
		<g>
			<polygon fill="#919191" points="133.9,60.1 127,58.2 127,61.7 133.9,63.7 			"/>
			<polygon fill="#DBDBDB" points="133.9,60.1 133.9,63.7 140.5,65.5 140.5,61.9 			"/>
		</g>
		<g>
			<polygon fill="#919191" points="133.9,66.1 127,64.2 127,67.7 133.9,69.7 			"/>
			<polygon fill="#DBDBDB" points="133.9,66.1 133.9,69.7 140.5,71.5 140.5,67.9 			"/>
		</g>
		<g>
			<polygon fill="#919191" points="133.9,72.1 127,70.2 127,73.7 133.9,75.7 			"/>
			<polygon fill="#DBDBDB" points="133.9,72.1 133.9,75.7 140.5,77.5 140.5,73.9 			"/>
		</g>
		<g>
			<polygon fill="#919191" points="133.9,78.1 127,76.2 127,79.7 133.9,81.7 			"/>
			<polygon fill="#DBDBDB" points="133.9,78.1 133.9,81.7 140.5,83.5 140.5,79.9 			"/>
		</g>
		<g>
			<polygon fill="#919191" points="133.9,84.1 127,82.2 127,85.7 133.9,87.7 			"/>
			<polygon fill="#DBDBDB" points="133.9,84.1 133.9,87.7 140.5,89.5 140.5,85.9 			"/>
		</g>
		<g>
			<polygon fill="#919191" points="133.9,90.1 127,88.2 127,91.7 133.9,93.7 			"/>
			<polygon fill="#DBDBDB" points="133.9,90.1 133.9,93.7 140.5,95.5 140.5,91.9 			"/>
		</g>
		<g>
			<polygon fill="#919191" points="133.9,96.1 127,94.2 127,97.7 133.9,99.7 			"/>
			<polygon fill="#DBDBDB" points="133.9,96.1 133.9,99.7 140.5,101.5 140.5,97.9 			"/>
		</g>
		<g>
			<polygon fill="#919191" points="133.9,102.1 127,100.2 127,103.7 133.9,105.7 			"/>
			<polygon fill="#DBDBDB" points="133.9,102.1 133.9,105.7 140.5,107.5 140.5,103.9 			"/>
		</g>
		<g>
			<polygon fill="#919191" points="133.9,108.1 127,106.2 127,109.7 133.9,111.7 			"/>
			<polygon fill="#DBDBDB" points="133.9,108.1 133.9,111.7 140.5,113.5 140.5,109.9 			"/>
		</g>
		<g>
			<polygon fill="#919191" points="133.9,114.1 127,112.2 127,115.7 133.9,117.7 			"/>
			<polygon fill="#DBDBDB" points="133.9,114.1 133.9,117.7 140.5,119.5 140.5,115.9 			"/>
		</g>
		<g>
			<polygon fill="#919191" points="133.9,120.1 127,118.2 127,121.7 133.9,123.7 			"/>
			<polygon fill="#DBDBDB" points="133.9,120.1 133.9,123.7 140.5,125.5 140.5,121.9 			"/>
		</g>
		<g>
			<polygon fill="#919191" points="133.9,126.1 127,124.2 127,127.7 133.9,129.7 			"/>
			<polygon fill="#DBDBDB" points="133.9,126.1 133.9,129.7 140.5,131.5 140.5,127.9 			"/>
		</g>
	</g>
	<g>
		<path id="gear-5-icon_3_" fill="#B2B2B2" d="M237.7,83.2l-6.8,2.4c-0.5,1.6-1.1,3.2-1.9,4.6l3.1,6.5l-5.4,5.4l-6.5-3.1
			c-1.5,0.8-3,1.5-4.6,1.9l-2.4,6.8h-7.7l-2.4-6.8c-1.6-0.5-3.2-1.1-4.6-1.9l-6.5,3.1l-5.4-5.4l3.1-6.5c-0.8-1.4-1.5-3-1.9-4.6
			l-6.8-2.4v-7.6l6.8-2.4c0.5-1.6,1.1-3.2,1.9-4.6l-3.1-6.5l5.4-5.4l6.5,3.1c1.5-0.8,3-1.5,4.6-1.9l2.4-6.8h7.7l2.4,6.8
			c1.6,0.5,3.2,1.1,4.6,1.9l6.5-3.1l5.4,5.4l-3.1,6.5c0.8,1.5,1.4,3,1.9,4.6l6.8,2.4V83.2 M200.3,79.4c0,4.9,4,8.9,8.9,8.9
			s8.9-4,8.9-8.9c0-4.9-4-8.9-8.9-8.9S200.3,74.5,200.3,79.4"/>
		<g>
			<defs>
				<path id="gear-5-icon_6_" d="M237.7,83.2l-6.8,2.4c-0.5,1.6-1.1,3.2-1.9,4.6l3.1,6.5l-5.4,5.4l-6.5-3.1c-1.5,0.8-3,1.5-4.6,1.9
					l-2.4,6.8h-7.7l-2.4-6.8c-1.6-0.5-3.2-1.1-4.6-1.9l-6.5,3.1l-5.4-5.4l3.1-6.5c-0.8-1.4-1.5-3-1.9-4.6l-6.8-2.4v-7.6l6.8-2.4
					c0.5-1.6,1.1-3.2,1.9-4.6l-3.1-6.5l5.4-5.4l6.5,3.1c1.5-0.8,3-1.5,4.6-1.9l2.4-6.8h7.7l2.4,6.8c1.6,0.5,3.2,1.1,4.6,1.9l6.5-3.1
					l5.4,5.4l-3.1,6.5c0.8,1.5,1.4,3,1.9,4.6l6.8,2.4V83.2 M200.3,79.4c0,4.9,4,8.9,8.9,8.9c4.9,0,8.9-4,8.9-8.9
					c0-4.9-4-8.9-8.9-8.9C204.3,70.5,200.3,74.5,200.3,79.4"/>
			</defs>
			<clipPath id="gear-5-icon_5_">
				<use xlink:href="#gear_x002D_5_x002D_icon_6_"  overflow="visible"/>
			</clipPath>
			<path id="gear-5-icon_7_" clip-path="url(#gear-5-icon_5_)" fill="#848484" d="M236,80l-6.4,2.3c-0.4,1.5-1.1,3-1.8,4.3l2.9,6.1
				l-5.1,5.1l-6.1-2.9c-1.4,0.8-2.8,1.4-4.4,1.8l-2.3,6.4h-7.2l-2.3-6.4c-1.5-0.4-3-1-4.4-1.8l-6.1,2.9l-5.1-5.1l2.9-6.1
				c-0.8-1.4-1.4-2.8-1.8-4.3l-6.4-2.3v-7.2l6.4-2.3c0.4-1.5,1.1-3,1.8-4.4l-2.9-6.1L193,55l6.1,2.9c1.4-0.8,2.8-1.4,4.4-1.8
				l2.3-6.4h7.2l2.3,6.4c1.5,0.4,3,1.1,4.4,1.8l6.1-2.9l5.1,5.1l-2.9,6.1c0.8,1.4,1.4,2.8,1.8,4.4l6.4,2.3V80 M240.3,83.1V80v-7.2
				v-3.1l-2.9-1l-4.4-1.6c-0.1-0.3-0.3-0.7-0.4-1l2-4.2l1.3-2.8l-2.2-2.2l-5.1-5.1l-2.2-2.2l-2.8,1.3l-4.2,2c-0.3-0.1-0.7-0.3-1-0.4
				l-1.6-4.4l-1-2.9h-3.1h-7.2h-3.1l-1,2.9l-1.6,4.4c-0.3,0.1-0.7,0.3-1,0.4l-4.2-2l-2.8-1.3l-2.2,2.2l-5.1,5.1l-2.2,2.2l1.3,2.8
				l2,4.2c-0.1,0.3-0.3,0.7-0.4,1l-4.4,1.6l-2.9,1v3.1V80v3.1l2.9,1l4.4,1.6c0.1,0.3,0.3,0.7,0.4,1l-2,4.2l-1.3,2.8l2.2,2.2l5.1,5.1
				l2.2,2.2l2.8-1.3l4.2-2c0.3,0.1,0.7,0.3,1,0.4l1.6,4.4l1,2.9h3.1h7.2h3.1l1-2.9l1.6-4.4c0.3-0.1,0.7-0.3,1-0.4l4.2,2l2.8,1.3
				l2.2-2.2l5.1-5.1l2.2-2.2l-1.3-2.8l-2-4.2c0.1-0.3,0.3-0.7,0.4-1l4.4-1.6L240.3,83.1L240.3,83.1z"/>
		</g>
		<path fill="#FFFFFF" d="M219.1,79.4c0-5.4-4.4-9.8-9.8-9.8c-5.4,0-9.8,4.4-9.8,9.8c0,5.4,4.4,9.8,9.8,9.8
			C214.7,89.2,219.1,84.8,219.1,79.4z M203.8,79.4c0-3,2.5-5.5,5.5-5.5c3,0,5.5,2.5,5.5,5.5c0,3-2.5,5.5-5.5,5.5
			C206.3,84.9,203.8,82.4,203.8,79.4z"/>
		<path id="gear-5-icon_4_" fill="#FFFFFF" d="M236,83l-6.4,2.3c-0.4,1.5-1.1,3-1.8,4.3l2.9,6.1l-5.1,5.1l-6.1-2.9
			c-1.4,0.8-2.8,1.4-4.4,1.8l-2.3,6.4h-7.2l-2.3-6.4c-1.5-0.4-3-1-4.4-1.8l-6.1,2.9l-5.1-5.1l2.9-6.1c-0.8-1.4-1.4-2.8-1.8-4.3
			l-6.4-2.3v-7.2l6.4-2.3c0.4-1.5,1.1-3,1.8-4.4l-2.9-6.1L193,58l6.1,2.9c1.4-0.8,2.8-1.4,4.4-1.8l2.3-6.4h7.2l2.3,6.4
			c1.5,0.4,3,1.1,4.4,1.8l6.1-2.9l5.1,5.1l-2.9,6.1c0.8,1.4,1.4,2.8,1.8,4.4l6.4,2.3V83 M240.3,86V83v-7.2v-3.1l-2.9-1l-4.4-1.6
			c-0.1-0.3-0.3-0.7-0.4-1l2-4.2l1.3-2.8l-2.2-2.2l-5.1-5.1l-2.2-2.2l-2.8,1.3l-4.2,2c-0.3-0.1-0.7-0.3-1-0.4l-1.6-4.4l-1-2.9h-3.1
			h-7.2h-3.1l-1,2.9l-1.6,4.4c-0.3,0.1-0.7,0.3-1,0.4l-4.2-2l-2.8-1.3l-2.2,2.2l-5.1,5.1l-2.2,2.2l1.3,2.8l2,4.2
			c-0.1,0.3-0.3,0.7-0.4,1l-4.4,1.6l-2.9,1v3.1V83V86l2.9,1l4.4,1.6c0.1,0.3,0.3,0.7,0.4,1l-2,4.2l-1.3,2.8l2.2,2.2l5.1,5.1l2.2,2.2
			l2.8-1.3l4.2-2c0.3,0.1,0.7,0.3,1,0.4l1.6,4.4l1,2.9h3.1h7.2h3.1l1-2.9l1.6-4.4c0.3-0.1,0.7-0.3,1-0.4l4.2,2l2.8,1.3l2.2-2.2
			l5.1-5.1l2.2-2.2l-1.3-2.8l-2-4.2c0.1-0.3,0.3-0.7,0.4-1l4.4-1.6L240.3,86L240.3,86z"/>
	</g>
	<g>
		<defs>
			<path id="SVGID_1_" d="M141,44h-14 M125.3,42.4c0-0.4,0.2,0,0.4-0.3c-11.7-2.3-32.4-8.4-30.9-25.3c0.9-9.9,8.3-15.9,18.9-14.5
				C124.2,3.7,128.9,9,130.8,20h3.1c0.1,0,0.3-0.6,0.4-0.5c1.9-8.2,6.6-16.1,17.2-17.5c10.5-1.4,18,5.1,18.9,15
				c1.5,17.2-16.8,23.6-28.1,25.9 M111.2,30.2c6.5,0,11.8-5.3,11.8-11.8c0-6.5-5.3-11.8-11.8-11.8s-11.8,5.3-11.8,11.8
				C99.3,24.9,104.6,30.2,111.2,30.2z M153.9,30.2c6.5,0,11.8-5.3,11.8-11.8c0-6.5-5.3-11.8-11.8-11.8c-6.5,0-11.8,5.3-11.8,11.8
				C142.1,24.9,147.4,30.2,153.9,30.2z"/>
		</defs>
		<clipPath id="SVGID_2_">
			<use xlink:href="#SVGID_1_"  overflow="visible"/>
		</clipPath>
	</g>
	<g>
		<path id="gear-5-icon_1_" fill="#3D6E89" d="M77.9,97.6l-9.1-0.5c-1.3,1.7-2.9,3.2-4.5,4.4l0.4,9.1l-9,3.6l-6.1-6.8
			c-2.1,0.2-4.2,0.2-6.3-0.1l-6.2,6.7l-8.9-3.8l0.5-9.1c-1.7-1.3-3.2-2.9-4.4-4.5l-9.1,0.4l-3.6-9l6.8-6.1c-0.2-2.1-0.2-4.2,0-6.3
			l-6.7-6.2l3.8-8.9l9.1,0.5c1.3-1.7,2.9-3.1,4.5-4.4l-0.4-9.1l9-3.6l6.1,6.8c2.1-0.2,4.2-0.2,6.3,0l6.2-6.7l8.9,3.8L64.7,57
			c1.7,1.3,3.2,2.9,4.4,4.5l9.1-0.4l3.6,9L75,76.2c0.2,2.1,0.2,4.2,0,6.3l6.7,6.2L77.9,97.6 M34.6,74c-2.8,6.7,0.3,14.4,7,17.3
			c6.7,2.8,14.4-0.3,17.3-7c2.8-6.7-0.3-14.5-7-17.3C45.1,64.1,37.4,67.3,34.6,74 M39.9,76.2c1.6-3.7,5.9-5.5,9.7-3.9
			c3.7,1.6,5.5,5.9,3.9,9.7c-1.6,3.7-5.9,5.5-9.7,3.9S38.3,80,39.9,76.2L39.9,76.2z"/>
		<g>
			<defs>
				<path id="gear-5-icon_2_" d="M77.9,97.6l-9.1-0.5c-1.3,1.7-2.9,3.2-4.5,4.4l0.4,9.1l-9,3.6l-6.1-6.8c-2.1,0.2-4.2,0.2-6.3-0.1
					l-6.2,6.7l-8.9-3.8l0.5-9.1c-1.7-1.3-3.2-2.9-4.4-4.5l-9.1,0.4l-3.6-9l6.8-6.1c-0.2-2.1-0.2-4.2,0-6.3l-6.7-6.2l3.8-8.9l9.1,0.5
					c1.3-1.7,2.9-3.1,4.5-4.4l-0.4-9.1l9-3.6l6.1,6.8c2.1-0.2,4.2-0.2,6.3,0l6.2-6.7l8.9,3.8L64.7,57c1.7,1.3,3.2,2.9,4.4,4.5
					l9.1-0.4l3.6,9L75,76.2c0.2,2.1,0.2,4.2,0,6.3l6.7,6.2L77.9,97.6 M34.6,74c-2.8,6.7,0.3,14.4,7,17.3c6.7,2.8,14.4-0.3,17.3-7
					c2.8-6.7-0.3-14.5-7-17.3C45.1,64.1,37.4,67.3,34.6,74 M39.9,76.2c1.6-3.7,5.9-5.5,9.7-3.9c3.7,1.6,5.5,5.9,3.9,9.7
					c-1.6,3.7-5.9,5.5-9.7,3.9S38.3,80,39.9,76.2L39.9,76.2z"/>
			</defs>
			<clipPath id="gear-5-icon_8_">
				<use xlink:href="#gear_x002D_5_x002D_icon_2_"  overflow="visible"/>
			</clipPath>
			<path opacity="0.5" clip-path="url(#gear-5-icon_8_)" d="M77.3,50.7C62.7,33.5,36.9,31.4,19.7,46C2.5,60.6,0.4,86.4,15,103.6
				c14.6,17.2,40.4,19.3,57.6,4.7C89.8,93.7,91.9,67.9,77.3,50.7z M21.6,98C10,84.5,11.7,64.1,25.3,52.6s33.9-9.9,45.5,3.7
				c11.5,13.6,9.9,33.9-3.7,45.5S33.1,111.6,21.6,98z"/>
		</g>
		<g>
			<path fill="#DDDDDD" d="M6.3,62.5c9.3-22,34.9-32.3,56.9-23s32.3,34.9,23,56.9s-34.9,32.3-56.9,23S-3,84.5,6.3,62.5z M78.7,93.1
				C86.3,75.3,77.9,54.5,60,47s-38.6,0.8-46.2,18.7s0.8,38.6,18.7,46.2S71.1,111,78.7,93.1z"/>
		</g>
	</g>
	<g>
		<g>
			<path fill="#9F2920" d="M93,135.1c0.6-1.5,2.4-2.5,4-2.1l12.1,2.7c1.6,0.4,3.4,0.5,3.9,0.2c0.6-0.2,1.2-0.9,1.4-1.4
				c0.2-0.6,0.1-2.3-0.3-3.9l-2.9-12.1c-0.4-1.6,0.5-3.4,2-4.1l5.7-2.4c1.5-0.6,3.5,0,4.3,1.4l6.7,10.5c0.9,1.4,2,2.7,2.6,2.9
				c0.6,0.2,1.5,0.2,2,0c0.6-0.2,1.7-1.6,2.6-3l6.5-10.6c0.9-1.4,2.8-2,4.3-1.4l5.8,2.3c1.5,0.6,2.5,2.4,2.1,4l-2.7,12.1
				c-0.4,1.6-0.5,3.4-0.2,4c0.2,0.6,0.9,1.3,1.5,1.5c0.6,0.2,2.4,0.1,4-0.3l11.9-3c1.6-0.4,3.4,0.5,4,2l2.4,5.7
				c0.6,1.5,0,3.5-1.4,4.3l-10.4,6.6c-1.4,0.9-2.7,2.1-3,2.7c-0.3,0.6-0.3,1.6,0,2.1s1.6,1.8,3,2.6l10.6,6.3
				c1.4,0.8,2.1,2.8,1.4,4.3l-2.3,5.8c-0.6,1.5-2.4,2.5-4,2.1l-12.1-2.7c-1.6-0.4-3.4-0.5-4-0.2c-0.6,0.2-1.2,0.9-1.5,1.4
				c-0.2,0.5-0.1,2.3,0.3,3.9l2.8,12.2c0.4,1.6-0.6,3.4-2.1,4.1l-5.6,2.4c-1.5,0.6-3.5,0-4.3-1.4l-6.7-10.5c-0.9-1.4-2-2.7-2.6-2.9
				c-0.6-0.2-1.5-0.2-2,0c-0.6,0.2-1.7,1.6-2.6,3l-6.6,10.6c-0.9,1.4-2.8,2-4.3,1.4L114,196c-1.5-0.6-2.5-2.4-2.1-4l2.7-12.1
				c0.4-1.6,0.5-3.4,0.2-3.9c-0.2-0.6-0.9-1.2-1.4-1.4s-2.3-0.1-3.9,0.3l-12.1,2.9c-1.6,0.4-3.4-0.5-4.1-2l-2.4-5.7
				c-0.6-1.5,0-3.5,1.4-4.3l10.5-6.7c1.4-0.9,2.7-2,2.9-2.6c0.2-0.6,0.2-1.5,0-2c-0.2-0.6-1.6-1.7-3-2.6l-10.6-6.5
				c-1.4-0.9-2-2.8-1.4-4.3L93,135.1z M129.4,166.3c6.1,2.5,13.2-0.5,15.7-6.6c2.5-6.1-0.5-13.2-6.6-15.7
				c-6.1-2.5-13.2,0.5-15.7,6.6C120.2,156.7,123.2,163.8,129.4,166.3z"/>
		</g>
		<g>
			<defs>
				<path id="SVGID_3_" d="M94.1,132.5l18,4l2-0.9l0.8-2l-4.3-17.9l11.2-4.8l9.9,15.5l2,0.8l2-0.9l9.6-15.7l11.3,4.6l-4,18l0.9,2.1
					l2.2,0.9l17.7-4.5l4.8,11.2l-15.4,9.8l-1,2.2l0.9,2.1l15.7,9.4l-4.6,11.3l-17.9-4l-2.1,0.9l-0.8,1.9l4.2,18l-11.1,4.7l-9.9-15.5
					l-2-0.8l-2,0.9l-9.7,15.7l-11.2-4.5l4-18l-0.9-2l-2-0.8l-17.9,4.3l-4.8-11.2l15.5-9.9l0.8-2l-0.9-2l-15.7-9.6L94.1,132.5z
					 M129.4,166.3c6.1,2.5,13.2-0.5,15.7-6.7c2.5-6.1-0.5-13.2-6.7-15.7s-13.2,0.5-15.7,6.7S123.3,163.8,129.4,166.3z"/>
			</defs>
			<clipPath id="SVGID_4_">
				<use xlink:href="#SVGID_3_"  overflow="visible"/>
			</clipPath>
			<polygon display="none" clip-path="url(#SVGID_4_)" fill="#721C19" points="103.4,244.1 75.2,213.8 197.4,91.6 228.6,122.7 			
				"/>
			<path clip-path="url(#SVGID_4_)" fill="#721C19" d="M168.6,120c-18.9-18.9-49.6-18.9-68.5,0c-18.9,18.9-18.9,49.6,0,68.5
				c18.9,18.9,49.6,18.9,68.5,0C187.5,169.6,187.5,138.9,168.6,120z M107.3,181.3c-14.9-14.9-14.9-39.1,0-54s39.1-14.9,54,0
				c14.9,14.9,14.9,39.1,0,54C146.5,196.2,122.3,196.2,107.3,181.3z"/>
		</g>
		<path fill="#FFFFFF" d="M182.6,188c8.7,0,11.6-5.8,6.5-12.8c-5.1-7-3.5-17,3.5-22.1c7-5.1,6-11.5-2.2-14.2
			c-8.3-2.7-12.8-11.7-10.2-19.9c2.7-8.3-1.9-12.8-10.2-10.2c-8.3,2.7-17.2-1.9-19.9-10.2c-2.7-8.3-9.1-9.3-14.2-2.2
			c-5.1,7-15.1,8.6-22.1,3.5c-7-5.1-12.8-2.2-12.8,6.5c0,8.7-7.1,15.8-15.8,15.8c-8.7,0-11.6,5.8-6.5,12.8c5.1,7,3.5,17-3.5,22.1
			c-7,5.1-6,11.5,2.2,14.2c8.3,2.7,12.8,11.7,10.2,19.9c-2.7,8.3,1.9,12.8,10.2,10.2c8.3-2.7,17.2,1.9,19.9,10.2
			c2.7,8.3,9.1,9.3,14.2,2.2c5.1-7,15.1-8.6,22.1-3.5c7,5.1,12.8,2.2,12.8-6.5C166.8,195.1,173.9,188,182.6,188z M104.4,184.6
			c-16.3-16.3-16.3-42.7,0-59s42.7-16.3,59,0c16.3,16.3,16.3,42.7,0,59S120.7,200.9,104.4,184.6z"/>
		<g>
			<defs>
				<path id="SVGID_5_" d="M182.6,188c8.7,0,11.6-5.8,6.5-12.8c-5.1-7-3.5-17,3.5-22.1c7-5.1,6-11.5-2.2-14.2
					c-8.3-2.7-12.8-11.7-10.2-19.9c2.7-8.3-1.9-12.8-10.2-10.2c-8.3,2.7-17.2-1.9-19.9-10.2c-2.7-8.3-9.1-9.3-14.2-2.2
					c-5.1,7-15.1,8.6-22.1,3.5c-7-5.1-12.8-2.2-12.8,6.5c0,8.7-7.1,15.8-15.8,15.8c-8.7,0-11.6,5.8-6.5,12.8c5.1,7,3.5,17-3.5,22.1
					c-7,5.1-6,11.5,2.2,14.2c8.3,2.7,12.8,11.7,10.2,19.9c-2.7,8.3,1.9,12.8,10.2,10.2c8.3-2.7,17.2,1.9,19.9,10.2
					c2.7,8.3,9.1,9.3,14.2,2.2c5.1-7,15.1-8.6,22.1-3.5c7,5.1,12.8,2.2,12.8-6.5C166.8,195.1,173.9,188,182.6,188z M104.4,184.6
					c-16.3-16.3-16.3-42.7,0-59s42.7-16.3,59,0c16.3,16.3,16.3,42.7,0,59S120.7,200.9,104.4,184.6z"/>
			</defs>
			<clipPath id="SVGID_6_">
				<use xlink:href="#SVGID_5_"  overflow="visible"/>
			</clipPath>
			<polygon display="none" clip-path="url(#SVGID_6_)" fill="#D8D8D8" points="154.3,289.4 73.5,215.5 196.3,92.7 276.5,167.3 			
				"/>
		</g>
	</g>
	<path fill="#FFFFFF" d="M15.1,150.2c-0.4,3.8,1,7.3,4.1,9.4c-0.6,0.9-1.1,1.9-1.4,3c-1.6,6,2.3,12,8.2,13.6
		c4.2,1.1,8.7-0.1,11.6-3.4c1.3,1.8,3.2,3.2,5.3,3.7c4.8,1.3,10-1.3,11.3-6.2c0.2-0.6,0.3-1.3,0.3-1.9c3.1-0.8,5.5-3.1,6.4-6.2
		c1.9-6.9-1-11.6-5.8-12.9c-0.2-0.1-0.3-0.1-0.4,0l0,0l-2.4-0.8c1-2.8,3-6.7,5.2-8.5L45.5,143c0,0-8.7-8-16.2,0h0
		C19.3,141,15.7,145,15.1,150.2z"/>
	<path fill="#FFFFFF" d="M251.6,149.7c3.2-3.2,3.6-8.6-0.2-11.3c1.4-2,0.8-3.9-0.5-5.2c-0.6-0.6-1.4-1.1-2.1-1.3
		c0.5-2.7-0.3-5.5-2.4-7.6c-3.4-3.4-9.3-4-12.2,0c-0.4,0.5-0.7,1.6-0.7,1.6s-3.5-1.8-6.2,0.6c-3.3,2.8-2.1,8-2.1,8s-0.9,1-4.4,1.9
		c-2.9,0.8-5.1,1.1-5.1,1.1l10.2,4.2c0,0-1.2,2.6,1.9,5.7c2.5,2.6,5.3,1.3,5.3,1.3s0.6,1.7,1.2,2.3c1.7,1.7,4.5,1.7,6.2,0
		c0.1-0.1,0.1-0.2,0.2-0.2C244,153,248.7,152.7,251.6,149.7z"/>
	<polygon fill="#BCE5F7" points="238.2,161.2 241.6,167.6 248,171 241.6,174.5 238.2,180.8 234.7,174.5 228.4,171 234.7,167.6 	"/>
	<polygon fill="#BCE5F7" points="30.4,185.1 33.2,190.3 38.4,193.1 33.2,196 30.4,201.2 27.6,196 22.3,193.1 27.6,190.3 	"/>
	<polygon fill="#BCE5F7" points="7.8,171.7 10.2,176.1 14.6,178.5 10.2,180.9 7.8,185.3 5.4,180.9 1,178.5 5.4,176.1 	"/>
	<polygon fill="#BCE5F7" points="261.8,117 263.5,120.1 266.6,121.8 263.5,123.5 261.8,126.7 260.1,123.5 257,121.8 260.1,120.1 	
		"/>
	<polygon fill="#BCE5F7" points="266.2,150.3 267.9,153.4 271,155.1 267.9,156.8 266.2,159.9 264.5,156.8 261.4,155.1 264.5,153.4 	
		"/>
	<path fill="#9F2920" d="M125.8,42.7c-11.7-2.3-32.5-9-31.1-25.9c0.9-9.9,8.3-15.9,18.9-14.5C124.2,3.7,128.9,9,130.8,20h3.1
		c0.1,0,0.3-0.6,0.4-0.5c1.9-8.2,6.6-16.1,17.2-17.5c10.5-1.4,18,5.1,18.9,15c1.5,17.2-16.9,23.6-28.3,25.9L125.8,42.7z M111.2,30.2
		c6.5,0,11.8-5.3,11.8-11.8c0-6.5-5.3-11.8-11.8-11.8s-11.8,5.3-11.8,11.8C99.3,24.9,104.6,30.2,111.2,30.2z M153.9,30.2
		c6.5,0,11.8-5.3,11.8-11.8c0-6.5-5.3-11.8-11.8-11.8c-6.5,0-11.8,5.3-11.8,11.8C142.1,24.9,147.4,30.2,153.9,30.2z"/>
	<polygon fill="#BCE5F7" points="214.6,155.2 216.3,158.3 219.4,160 216.3,161.7 214.6,164.8 212.9,161.7 209.8,160 212.9,158.3 	
		"/>
	<polygon fill="#BCE5F7" points="56.7,184 58.4,187.1 61.5,188.8 58.4,190.5 56.7,193.6 55,190.5 51.8,188.8 55,187.1 	"/>
	<path fill="#721C19" d="M133.8,18.7h-3.1c-1.9-10.5-6.6-15.7-17.1-17c-10.5-1.4-18,5.2-18.9,15.1c-1.5,16.9,19.3,23.6,31.1,25.9
		l8,0V18.7z M111.2,30.2c-6.5,0-11.8-5.3-11.8-11.8c0-6.5,5.3-11.8,11.8-11.8c6.5,0,11.8,5.3,11.8,11.8
		C123,24.9,117.7,30.2,111.2,30.2z"/>
</g>
</svg>
