<?xml version="1.0" encoding="utf-8"?>
<!-- Generator: Adobe Illustrator 18.0.0, SVG Export Plug-In . SVG Version: 6.00 Build 0)  -->
<!DOCTYPE svg PUBLIC "-//W3C//DTD SVG 1.1//EN" "http://www.w3.org/Graphics/SVG/1.1/DTD/svg11.dtd">
<svg version="1.1" id="Layer_1" xmlns="http://www.w3.org/2000/svg" xmlns:xlink="http://www.w3.org/1999/xlink" x="0px" y="0px"
	 viewBox="0 0 272 172" enable-background="new 0 0 272 172" xml:space="preserve">
<g>
	<g>
		<path fill="#4A5767" d="M72.6,169.1c-5.2,0-10.1-2.3-13.6-6.2L7.2,103.1c-3.1-3.6-4.7-8.2-4.3-13C3.2,85.4,5.4,81,9,77.9L90.6,7.2
			c1.1-1,2.4-1.8,3.7-2.5c2.5-1.3,5.2-1.9,8-1.9c5.2,0,10.1,2.3,13.6,6.2l51.8,59.8c3.1,3.6,4.7,8.2,4.3,13
			c-0.3,4.8-2.5,9.1-6.1,12.3l-81.5,70.7c-1.1,1-2.4,1.8-3.7,2.5C78.1,168.5,75.4,169.1,72.6,169.1
			C72.6,169.1,72.6,169.1,72.6,169.1z"/>
		<path fill="#FFFFFF" d="M102.3,4.6c4.7,0,9.1,2,12.1,5.5L166.3,70c2.8,3.2,4.2,7.4,3.9,11.7c-0.3,4.3-2.3,8.2-5.5,11l-81.5,70.7
			c-1,0.9-2.2,1.6-3.4,2.2c-2.2,1.1-4.7,1.7-7.2,1.7c-4.7,0-9.1-2-12.1-5.5L8.6,101.9c-2.8-3.2-4.2-7.4-3.9-11.7
			c0.3-4.3,2.3-8.2,5.5-11L91.8,8.6c1-0.9,2.2-1.6,3.4-2.2C97.4,5.2,99.8,4.6,102.3,4.6 M102.3,0.9c-3,0-6,0.7-8.8,2.1
			c-1.5,0.7-2.9,1.7-4.1,2.8L7.8,76.5c-4,3.5-6.4,8.3-6.8,13.5s1.3,10.4,4.8,14.4l51.8,59.8c3.9,4.5,9.4,6.8,15,6.8
			c3,0,6-0.7,8.8-2.1c1.5-0.7,2.9-1.7,4.1-2.8l81.5-70.7c4-3.5,6.4-8.3,6.8-13.5c0.4-5.3-1.3-10.4-4.8-14.4L117.3,7.8
			C113.4,3.3,107.9,0.9,102.3,0.9L102.3,0.9z"/>
	</g>
	<path opacity="0.5" fill-rule="evenodd" clip-rule="evenodd" fill="#3D3D3D" d="M126.8,127.8l-74.2,30.6l-8.1-9.2l7.1-14.3
		L126.8,127.8z"/>
	<g>
		<path fill="#979797" d="M50.1,148.7c-7.2,0-13.7-4.9-15.6-11.8L14.7,67.1c-1.2-4.2-0.7-8.6,1.4-12.4c2.1-3.8,5.6-6.5,9.8-7.7
			L121,20c1.3-0.4,2.7-0.6,4-0.6c0.1,0,0.3,0,0.4,0c7.2,0,13.7,4.9,15.6,11.8l19.8,69.8c1.2,4.2,0.7,8.6-1.4,12.4
			c-2.1,3.8-5.6,6.5-9.8,7.7l-95.1,27c-1.3,0.4-2.7,0.6-4,0.6C50.4,148.7,50.2,148.7,50.1,148.7z"/>
		<path fill="#FFFFFF" d="M125.4,21.2c6.4,0,12.1,4.3,13.8,10.5l19.8,69.8c1.1,3.7,0.6,7.6-1.3,11c-1.9,3.4-4.9,5.8-8.6,6.8
			l-95.1,27c-1.2,0.3-2.4,0.5-3.6,0.5c-0.1,0-0.2,0-0.4,0c-6.4,0-12.1-4.3-13.8-10.5L16.4,66.6c-1.1-3.7-0.6-7.6,1.3-11
			c1.9-3.4,4.9-5.8,8.6-6.8l95.1-27c1.2-0.3,2.4-0.5,3.6-0.5C125.2,21.2,125.3,21.2,125.4,21.2 M125.4,17.5c-0.2,0-0.3,0-0.5,0
			c-1.5,0-3,0.3-4.5,0.7l-95.1,27c-4.7,1.3-8.5,4.4-10.9,8.6c-2.4,4.2-2.9,9.1-1.6,13.8l19.8,69.8c2.2,7.8,9.3,13.2,17.4,13.2
			c0.2,0,0.3,0,0.5,0c1.5,0,3-0.3,4.5-0.7l95.1-27c4.7-1.3,8.5-4.4,10.9-8.6c2.4-4.2,2.9-9.1,1.6-13.8l-19.8-69.8
			C140.7,22.9,133.5,17.5,125.4,17.5L125.4,17.5z"/>
	</g>
	<path opacity="0.5" fill-rule="evenodd" clip-rule="evenodd" fill="#3D3D3D" d="M48.4,63.4L148.5,112l-41.4,35.6l-56.7-18.3
		L48.4,63.4z"/>
	<g>
		<path fill="#51A3B9" d="M165.1,20L57.1,19.9c-7.9,0-13.8,6.8-13.8,14.8l-0.1,79.1c0,7.9,5.8,14.4,13.7,14.4l90,0l31.8-17.1
			l0.6-76.3C179.5,26.9,173,20,165.1,20z"/>
		<polygon fill="#525B39" points="90.4,109.1 139.1,69.1 181.2,107.8 157.8,125.8 93,126.1 		"/>
		<circle fill="#C15142" cx="77.9" cy="48.7" r="12.4"/>
		<polygon fill="#4F6E4A" points="45.5,107.8 77.9,83.9 128.6,127 51,126.9 43.2,113.8 		"/>
		<g>
			<path fill="#FFFFFF" d="M147.7,131H57.1c-9.4,0-17.1-7.4-17.1-17.2V34.7C40,25.1,48,17,57.2,17H165c9.5,0,16,8.3,16,17.9v77.9
				L147.7,131z M57.2,23C51,23,46,28.1,46,34.7v79.1c0,6.6,4.8,11.6,11,11.6l92.5,0l27.5-16V34.9c0-6.5-5.6-11.9-12-11.9H57.2z"/>
		</g>
		<polygon opacity="0.5" fill="#3D3D3D" points="147.7,131.1 139.2,131.1 151.1,117.4 182.2,112.8 		"/>
		<path fill="#D7D7D7" d="M147.7,131l34.5-18.2C166.9,101.6,149.1,107.1,147.7,131z"/>
	</g>
	<g>
		<g>
			<path fill="#66B3BB" d="M247.7,160.3c0,4.5-3.6,8.1-8.1,8.1h-24.2c-4.5,0-8.1-3.6-8.1-8.1v-24.2c0-4.5,3.6-8.1,8.1-8.1h24.2
				c4.5,0,8.1,3.6,8.1,8.1V160.3z"/>
		</g>
		<path fill-rule="evenodd" clip-rule="evenodd" fill="#FFFFFF" d="M240.9,141.4c0.2-1.2,0.2-2.5-0.6-3.5c-1.1-1.4-3.3-1.4-4.9-1.2
			c-1.3,0.2-5.6,2.1-7,6.6c2.6-0.2,3.9,0.2,3.7,3c-0.1,1.2-0.7,2.5-1.4,3.7c-0.8,1.4-2.2,4.3-4.1,2.2c-1.7-1.8-1.6-5.4-2-7.7
			c-0.2-1.3-0.5-3-0.9-4.3c-0.4-1.2-1.2-2.6-2.3-2.9c-1.1-0.3-2.5,0.2-3.3,0.7c-2.6,1.5-4.6,3.7-6.8,5.5v0.2
			c0.4,0.4,0.6,1.1,1.2,1.2c1.5,0.2,3-1.4,4,0.3c0.6,1.1,0.8,2.2,1.2,3.3c0.5,1.5,0.9,3.2,1.4,4.9c0.7,3,1.6,7.4,4.2,8.4
			c1.3,0.6,3.3-0.2,4.2-0.8c2.7-1.6,4.8-3.9,6.6-6.2C238.3,149.5,240.6,143.2,240.9,141.4z"/>
	</g>
	<g>
		<path fill="#4585AE" d="M247.7,38.3c0,4.5-3.6,8.1-8.1,8.1h-24.2c-4.5,0-8.1-3.6-8.1-8.1V14.1c0-4.5,3.6-8.1,8.1-8.1h24.2
			c4.5,0,8.1,3.6,8.1,8.1V38.3z"/>
	</g>
	<path fill="#FFFFFF" d="M234.9,41.2h-6.1V26.7h-3.6v-4.9h3.6v-3c0-4,1.2-6.7,6-6.7h3.7v4.9h-2.2c-1.9,0-2,0.9-2,2.2l0,2.7h4.5
		l-0.5,4.9h-3.4V41.2z"/>
	<g>
		<path fill="#D6C9B5" d="M271,100.2c0,4-3.2,7.2-7.2,7.2h-25.6c-4,0-7.2-3.2-7.2-7.2v-26c0-4,3.2-7.2,7.2-7.2h25.6
			c4,0,7.2,3.2,7.2,7.2V100.2z"/>
		<g>
			<defs>
				<path id="SVGID_1_" d="M263.8,67.1h-25.6c-4,0-7.2,3.2-7.2,7.2v5.4h40v-5.4C271,70.3,267.8,67.1,263.8,67.1z"/>
			</defs>
			<use xlink:href="#SVGID_1_"  overflow="visible" fill="#5D4D48"/>
			<clipPath id="SVGID_2_">
				<use xlink:href="#SVGID_1_"  overflow="visible"/>
			</clipPath>
		</g>
		<path fill="#3B241B" d="M268,75.9c0,1-0.8,1.8-1.8,1.8h-4.5c-1,0-1.8-0.8-1.8-1.8v-4.5c0-1,0.8-1.8,1.8-1.8h4.5
			c1,0,1.8,0.8,1.8,1.8V75.9z"/>
		<path fill="none" d="M263.8,67.1h-25.6c-4,0-7.2,3.2-7.2,7.2v5.4h40v-5.4C271,70.3,267.8,67.1,263.8,67.1z"/>
		<circle fill="#E4DFD6" cx="251" cy="87.2" r="10.5"/>
		<g>
			<circle fill="#333333" cx="251" cy="87.2" r="8.9"/>
			<path fill="#58595B" d="M251,97.4c-5.6,0-10.2-4.6-10.2-10.2S245.4,77,251,77s10.2,4.6,10.2,10.2S256.6,97.4,251,97.4z M251,79.5
				c-4.3,0-7.7,3.5-7.7,7.7s3.5,7.7,7.7,7.7s7.7-3.5,7.7-7.7S255.2,79.5,251,79.5z"/>
		</g>
	</g>
</g>
</svg>
