<?xml version="1.0" encoding="utf-8"?>
<!-- Generator: Adobe Illustrator 18.0.0, SVG Export Plug-In . SVG Version: 6.00 Build 0)  -->
<!DOCTYPE svg PUBLIC "-//W3C//DTD SVG 1.1//EN" "http://www.w3.org/Graphics/SVG/1.1/DTD/svg11.dtd">
<svg version="1.1" id="Layer_1" xmlns="http://www.w3.org/2000/svg" xmlns:xlink="http://www.w3.org/1999/xlink" x="0px" y="0px"
	 viewBox="0 0 44 44" enable-background="new 0 0 44 44" xml:space="preserve">
<g>
	<circle fill="#B0262C" cx="22" cy="22" r="21"/>
	
		<linearGradient id="SVGID_1_" gradientUnits="userSpaceOnUse" x1="-148.4669" y1="187.5754" x2="-108.8774" y2="198.1834" gradientTransform="matrix(0.105 0 0 0.105 21.215 2)">
		<stop  offset="0.8214" style="stop-color:#FFFFFF"/>
		<stop  offset="0.9592" style="stop-color:#CCCDCE"/>
		<stop  offset="1" style="stop-color:#A9AAAC"/>
	</linearGradient>
	<path fill="url(#SVGID_1_)" d="M8.5,23.1c0-1-2.6-0.3-2.6-2c0-0.1,0-1.4,2-1.4c0.7,0,0.9,0.1,0.9,0.1v0.9c0,0-0.1-0.1-0.9-0.1
		c-0.3,0-0.9,0-0.9,0.5c0,0.8,2.7,0.2,2.7,2c0,0.5-0.2,1.6-2.2,1.6c-1.3,0-1.6-0.2-1.6-0.2v-1.4h1v0.5c0,0,0.2,0.1,0.6,0.1
		C8.4,23.8,8.5,23.4,8.5,23.1"/>
	
		<linearGradient id="SVGID_2_" gradientUnits="userSpaceOnUse" x1="-110.6191" y1="183.8095" x2="-82.5784" y2="183.8095" gradientTransform="matrix(0.105 0 0 0.105 21.215 2)">
		<stop  offset="0.6327" style="stop-color:#FFFFFF"/>
		<stop  offset="1" style="stop-color:#A9AAAC"/>
	</linearGradient>
	<path fill="url(#SVGID_2_)" d="M11.2,23.6c0.2,0,0.7-0.2,0.8-0.7l0.5,0.6v0.1c0,0.2-0.5,1.1-1.6,1.1c-0.8,0-1.3-0.6-1.3-1.3v-4.8
		l1.2-0.7v2h0.9v1h-0.9V23C10.8,23.2,10.8,23.6,11.2,23.6"/>
	
		<linearGradient id="SVGID_3_" gradientUnits="userSpaceOnUse" x1="-87.5238" y1="192.8572" x2="-28.1238" y2="192.8572" gradientTransform="matrix(0.105 0 0 0.105 21.215 2)">
		<stop  offset="0.7602" style="stop-color:#FFFFFF"/>
		<stop  offset="1" style="stop-color:#A9AAAC"/>
	</linearGradient>
	<path fill="url(#SVGID_3_)" d="M16.4,22.9c0,0.2,0.1,0.7,0.5,0.7c0.3,0,0.7-0.1,0.8-0.8l0.4,0.6v0.1c0,0.3-0.5,1.2-1.6,1.2
		c-0.6,0-1-0.3-1.1-0.7l0,0l0,0c-0.3,0.5-0.9,0.8-1.6,0.8c-1.7,0-1.8-1.7-1.8-2.2c0-1.4,0.7-2.9,2.9-2.9c0.7,0,1.5,0.2,1.5,0.2
		L16.4,22.9 M15.3,20.7c0,0-0.1-0.1-0.5-0.1c-0.5,0-1.5,0.4-1.5,1.8c0,0.3,0,1.2,0.9,1.2c0.7,0,1.1-0.6,1.1-1.2V20.7"/>
	
		<linearGradient id="SVGID_4_" gradientUnits="userSpaceOnUse" x1="-34.3537" y1="206.1905" x2="24.9619" y2="206.1905" gradientTransform="matrix(0.105 0 0 0.105 21.215 2)">
		<stop  offset="0.7041" style="stop-color:#FFFFFF"/>
		<stop  offset="0.9133" style="stop-color:#A9AAAC"/>
	</linearGradient>
	<path fill="url(#SVGID_4_)" d="M23.8,23.9l-0.2-0.8c0,0-0.5,0.3-1.1,0.4c-0.2,0.1-0.5,0.1-0.6,0.1v-3.8h-1.2v2.8v1
		c-0.1,0-0.3,0-0.4,0c-1,0-1.5-0.5-1.5-1.7c0-0.7,0-1.1,0-1.1h0.4v-1h-1.6v1.8c0,1.6,0.3,3.1,2.7,3.1c0.1,0,0.3,0,0.4,0
		c0,1.1-0.5,1.8-1.7,1.8h-0.2V26h-1v1.4c0,0,0.3,0.1,1,0.1c2.5,0,2.9-1.7,3-2.8c0.2,0,0.6-0.1,0.9-0.2
		C23.5,24.2,23.8,23.9,23.8,23.9z"/>
	
		<linearGradient id="SVGID_5_" gradientUnits="userSpaceOnUse" x1="15.1762" y1="188.0952" x2="66.2762" y2="188.0952" gradientTransform="matrix(0.105 0 0 0.105 21.215 2)">
		<stop  offset="0.7143" style="stop-color:#FFFFFF"/>
		<stop  offset="0.949" style="stop-color:#A9AAAC"/>
	</linearGradient>
	<path fill="url(#SVGID_5_)" d="M28.1,23.4l-0.4-0.6c-0.2,0.6-0.6,0.8-0.8,0.8c-0.5,0-0.5-0.4-0.5-0.7v-3.1H24v-1.3
		c0-0.4,0.1-0.7,0.2-0.9c0.1-0.2,0.4-0.3,0.7-0.3c0.3,0,0.5,0.1,0.7,0.1v-1c-0.1,0-0.5-0.1-0.9-0.1c-1.2,0-1.9,0.7-1.9,2l0,0v8.9
		L24,27v-6h1.2v2.4c0,0.7,0.6,1.3,1.4,1.3C27.7,24.7,28.2,23.8,28.1,23.4C28.2,23.5,28.1,23.4,28.1,23.4"/>
	<path fill="#FFFFFF" d="M25.7,19.5c-0.4,0-0.7-0.3-0.7-0.7c0-0.4,0.3-0.7,0.7-0.7c0.4,0,0.7,0.3,0.7,0.7
		C26.3,19.2,26,19.5,25.7,19.5"/>
	
		<linearGradient id="SVGID_6_" gradientUnits="userSpaceOnUse" x1="57.1762" y1="178.5715" x2="90.0105" y2="178.5715" gradientTransform="matrix(0.105 0 0 0.105 21.215 2)">
		<stop  offset="0.5357" style="stop-color:#FFFFFF"/>
		<stop  offset="0.9643" style="stop-color:#A9AAAC"/>
	</linearGradient>
	<path fill="url(#SVGID_6_)" d="M28.6,22.9c0,0.2,0.2,0.7,0.7,0.7c0.3,0,0.7-0.1,0.8-0.8l0.4,0.6v0.1c0,0.3-0.5,1.2-1.6,1.2
		c-0.8,0-1.4-0.6-1.4-1.3v-5.6H27v-1h1.6L28.6,22.9"/>
	<path fill="#FFFFFF" d="M35.9,21.5c0-0.6-0.6-0.7-0.7-0.7c-0.7,0-1,0.6-1,1.2v2.5H33v-3c0-0.6-0.5-0.7-0.7-0.7c-0.6,0-1,0.6-1,1.2
		v2.5h-1.2v-3.8h-0.5v-1h1.6v0.5c0,0,0.4-0.6,1.3-0.6c0.5,0,1.1,0.1,1.3,0.7l0,0l0,0c0-0.1,0.4-0.7,1.5-0.7c0.8,0,1.6,0.5,1.6,1.5
		c0,0,0,1.6,0,1.7c0,0.2,0.1,0.7,0.5,0.7c0.2,0,0.4-0.3,0.4-0.3l0.3,0.8c0,0-0.4,0.6-1.2,0.6c-0.6,0-1.2-0.6-1.2-1.3L35.9,21.5"/>
</g>
</svg>
