<?xml version="1.0" encoding="utf-8"?>
<!-- Generator: Adobe Illustrator 18.0.0, SVG Export Plug-In . SVG Version: 6.00 Build 0)  -->
<!DOCTYPE svg PUBLIC "-//W3C//DTD SVG 1.1//EN" "http://www.w3.org/Graphics/SVG/1.1/DTD/svg11.dtd">
<svg version="1.1" id="Layer_1" xmlns="http://www.w3.org/2000/svg" xmlns:xlink="http://www.w3.org/1999/xlink" x="0px" y="0px"
	 viewBox="0 0 290 30" enable-background="new 0 0 290 30" xml:space="preserve">
<g>
	<g>
		<path fill="#FFFFFF" d="M17.2,21.4c0,2-0.8,3.8-2.3,5.3c-1.5,1.5-3.4,2.2-5.6,2.2H8.4c-2.1,0-3.9-0.7-5.5-2.2
			c-1.5-1.5-2.3-3.2-2.3-5.3V2.8c0-0.3,0.1-0.6,0.4-0.8C1.3,1.6,1.6,1.5,2,1.5h2.9c0.4,0,0.7,0.1,1,0.4s0.4,0.6,0.4,0.8v18.1
			c0,0.8,0.3,1.6,0.8,2.2c0.6,0.6,1.2,0.9,1.8,0.9c0.6,0,1.3-0.3,1.8-0.9c0.5-0.6,0.8-1.3,0.8-2.2V2.8c0-0.4,0.1-0.6,0.4-0.9
			s0.6-0.4,1-0.4h2.9c0.4,0,0.7,0.1,1,0.4c0.3,0.3,0.4,0.6,0.4,0.9L17.2,21.4L17.2,21.4z"/>
		<path fill="#FFFFFF" d="M36,10.4c0,2-0.7,3.8-2.2,5.3c-1.5,1.4-3.2,2.2-5.3,2.2h-2.3c-0.3,0-0.4,0.1-0.4,0.4v8.9
			c0,0.4-0.1,0.7-0.4,0.9c-0.3,0.3-0.6,0.4-1,0.4h-3c-0.4,0-0.7-0.1-1-0.4c-0.3-0.3-0.4-0.6-0.4-0.9V2.8c0-0.8,0.4-1.3,1.3-1.3h7.1
			c2.1,0,3.9,0.7,5.4,2.2c1.5,1.5,2.2,3.2,2.2,5.3L36,10.4L36,10.4z M30.3,10.8V8.6c0-0.6-0.2-1.1-0.7-1.5c-0.4-0.4-1-0.6-1.6-0.6
			h-1.8c-0.4,0-0.5,0.1-0.5,0.4v5.7c0,0.3,0.1,0.4,0.5,0.4H28c0.6,0,1.2-0.2,1.6-0.6C30.1,11.9,30.3,11.4,30.3,10.8z"/>
		<path fill="#FFFFFF" d="M54.7,27.1c0,0.4-0.1,0.7-0.4,1c-0.3,0.3-0.6,0.4-1,0.4h-0.5c-0.6,0-1.2-0.6-1.6-1.6V27
			c-1,1.3-2.4,1.9-4.2,1.9h-0.6c-2.4,0-4.3-0.8-5.8-2.3c-1.5-1.5-2.2-3.4-2.2-5.6V8.9c0-2.1,0.8-3.9,2.3-5.5
			c1.5-1.5,3.4-2.3,5.6-2.3h0.3c2.2,0,4.1,0.8,5.6,2.3c1.5,1.5,2.3,3.4,2.3,5.5v1.1c0,0.4-0.1,0.7-0.4,1s-0.6,0.4-1,0.4h-2.6
			c-0.4,0-0.7-0.1-1-0.4c-0.3-0.3-0.4-0.6-0.4-0.9V9.7c0-0.9-0.3-1.7-0.8-2.3c-0.5-0.6-1.1-0.9-1.8-0.9c-0.7,0-1.3,0.3-1.8,0.9
			c-0.5,0.6-0.8,1.4-0.8,2.3v10.8c0,1,0.2,1.8,0.7,2.3s1.1,0.8,1.8,0.8c1.7,0,2.5-1.1,2.5-3.2v-1.1c0-0.3-0.1-0.4-0.5-0.4h-1.3
			c-0.4,0-0.7-0.1-1-0.4s-0.4-0.6-0.4-1v-1.8c0-0.4,0.1-0.7,0.4-1s0.6-0.4,1.1-0.4h6.1c0.4,0,0.8,0.1,1,0.4s0.4,0.6,0.4,0.9v11.3
			C54.8,27.1,54.7,27.1,54.7,27.1z"/>
		<path fill="#FFFFFF" d="M74,27c0.1,0.1,0.1,0.3,0.1,0.4c0,0.3-0.1,0.6-0.4,0.8s-0.5,0.4-0.8,0.4h-3c-0.6,0-1.1-0.4-1.3-1.2
			l-3.4-9.5c-0.1-0.2-0.1-0.4-0.2-0.4h-1.5c-0.3,0-0.4,0.1-0.4,0.4v9.3c0,0.4-0.1,0.6-0.4,0.9s-0.6,0.4-1,0.4h-2.7
			c-0.4,0-0.7-0.1-0.9-0.4c-0.3-0.3-0.4-0.6-0.4-0.9V2.8c0-0.8,0.4-1.3,1.3-1.3h6.9c2.2,0,4,0.7,5.5,2s2.3,3.1,2.3,5.2V10
			c0,2.7-1.1,4.7-3.4,6.2L74,27z M68.2,10.6v-2C68.2,8,68,7.5,67.5,7c-0.4-0.4-1-0.6-1.6-0.6h-2.6c-0.2,0-0.3,0.1-0.3,0.4v5.5
			c0,0.3,0.1,0.4,0.4,0.4h2.5c0.6,0,1.2-0.2,1.6-0.6C68,11.7,68.2,11.2,68.2,10.6z"/>
		<path fill="#FFFFFF" d="M93.5,27c0.1,0.4,0,0.7-0.3,1.1c-0.3,0.3-0.6,0.4-1,0.4h-3c-0.7,0-1.2-0.4-1.3-1.3L87,23.2
			c-0.1-0.3-0.2-0.5-0.4-0.5h-4.1c-0.3,0-0.5,0.1-0.6,0.5l-0.7,3.9c-0.1,0.8-0.6,1.3-1.4,1.3h-3c-0.4,0-0.7-0.1-1-0.4
			c-0.3-0.3-0.4-0.6-0.3-1.1l5-24.2c0.1-0.8,0.6-1.3,1.4-1.3h4.9c0.8,0,1.2,0.4,1.4,1.3L93.5,27z M85.7,17.3l-1.5-8l-1.4,8
			c-0.1,0.3,0.1,0.4,0.3,0.4h2.2C85.7,17.6,85.8,17.5,85.7,17.3z"/>
		<path fill="#FFFFFF" d="M111.7,20.7c0,2.1-0.8,3.9-2.3,5.5c-1.5,1.5-3.4,2.3-5.7,2.3H97c-0.4,0-0.7-0.1-1-0.4s-0.4-0.6-0.4-1V2.8
			c0-0.4,0.1-0.7,0.4-1c0.3-0.3,0.6-0.4,1-0.4h6.7c2.3,0,4.1,0.8,5.7,2.3c1.5,1.5,2.3,3.3,2.3,5.5V20.7z M106.1,20.3V9.7
			c0-0.8-0.4-1.6-1-2.3s-1.4-0.9-2.4-0.9h-1c-0.4,0-0.5,0.1-0.5,0.4v16.2c0,0.3,0.1,0.5,0.5,0.5h1c0.9,0,1.7-0.3,2.4-0.9
			C105.7,22,106.1,21.3,106.1,20.3z"/>
		<path fill="#FFFFFF" d="M128.9,27.1c0,0.4-0.1,0.7-0.4,1c-0.3,0.3-0.6,0.4-1,0.4h-11.4c-0.4,0-0.7-0.1-1-0.4
			c-0.3-0.3-0.4-0.6-0.4-1V2.8c0-0.4,0.1-0.7,0.4-1c0.3-0.3,0.6-0.4,1.1-0.4h11.1c0.4,0,0.7,0.1,1,0.4c0.3,0.3,0.4,0.6,0.4,1v2.3
			c0,0.4-0.1,0.7-0.4,1c-0.3,0.3-0.6,0.4-1,0.4h-6.4c-0.4,0-0.5,0.1-0.5,0.4v4.4c0,0.3,0.1,0.4,0.5,0.4h4.9c0.4,0,0.7,0.1,1,0.4
			c0.3,0.3,0.4,0.6,0.4,1v2.3c0,0.4-0.1,0.7-0.4,1c-0.3,0.3-0.6,0.4-1,0.4h-4.9c-0.4,0-0.5,0.1-0.5,0.5v5.5c0,0.3,0.1,0.5,0.5,0.5
			h6.7c0.4,0,0.7,0.1,1,0.4c0.3,0.3,0.4,0.6,0.4,1V27.1z"/>
		<path fill="#FFFFFF" d="M190.1,21.5c0,2.3-0.8,4.1-2.3,5.4c-1.5,1.3-3.4,2-5.8,2c-3.8,0-6.5-1.8-8-5.3c-0.5-1.2-0.8-2-0.8-2.4
			c0-0.6,0.5-1.1,1.4-1.5c0.7-0.2,1.3-0.4,2-0.6c0.2-0.1,0.4-0.1,0.5-0.1c0.6,0,1,0.4,1.3,1.3c0.6,1.3,1,2.1,1.1,2.3
			c0.6,0.8,1.4,1.2,2.4,1.2c1.7,0,2.5-0.8,2.5-2.4c0-1.1-0.9-2.3-2.7-3.9c-1.7-1.4-3.4-2.7-5.1-4.2c-1.8-1.8-2.7-3.6-2.7-5.4
			c0-2.2,0.8-3.9,2.3-5.2c1.4-1.2,3.1-1.8,5.1-1.8c2,0,3.7,0.6,5.1,1.8c1.3,1.1,2.2,2.5,2.8,4.4c0.1,0.1,0.1,0.3,0.1,0.5
			c0,0.6-0.4,1-1.2,1.3c-0.6,0.2-1.3,0.4-1.9,0.6c-0.1,0.1-0.3,0.1-0.4,0.1c-0.6,0-1.1-0.3-1.3-0.8c-0.9-2.1-2-3.2-3.1-3.2
			c-0.6,0-1.1,0.3-1.5,0.8c-0.4,0.5-0.6,1.1-0.6,1.7c0,0.8,0.9,1.9,2.8,3.3c2.8,2.2,4.6,3.6,5.3,4.3
			C189.1,17.6,190.1,19.6,190.1,21.5z"/>
		<path fill="#FFFFFF" d="M207.6,5c0,0.4-0.1,0.7-0.4,1c-0.3,0.3-0.6,0.4-1,0.4H202c-0.3,0-0.4,0.1-0.4,0.4v20.4
			c0,0.4-0.1,0.7-0.4,0.9c-0.3,0.3-0.6,0.4-0.9,0.4h-2.7c-0.4,0-0.7-0.1-1-0.4c-0.3-0.3-0.4-0.6-0.4-0.9V6.8c0-0.3-0.1-0.4-0.4-0.4
			h-4.2c-0.4,0-0.7-0.1-1-0.4c-0.3-0.3-0.4-0.6-0.4-1V2.8c0-0.4,0.1-0.6,0.4-0.9c0.3-0.3,0.6-0.4,0.9-0.4h14.6c0.4,0,0.7,0.1,1,0.4
			c0.3,0.3,0.4,0.6,0.4,0.9L207.6,5L207.6,5z"/>
		<path fill="#FFFFFF" d="M225.9,21.3c0,2-0.8,3.8-2.3,5.3c-1.5,1.5-3.3,2.2-5.4,2.2h-1.1c-2.1,0-3.9-0.7-5.5-2.2
			c-1.5-1.5-2.3-3.2-2.3-5.3V8.5c0-2,0.8-3.8,2.3-5.3c1.5-1.4,3.3-2.2,5.5-2.2h1.1c2.1,0,3.9,0.7,5.4,2.2c1.5,1.4,2.3,3.2,2.3,5.3
			V21.3z M220.2,20.7V9.3c0-0.8-0.2-1.5-0.7-2.2c-0.5-0.6-1.1-0.8-1.7-0.8c-0.6,0-1.2,0.3-1.7,0.9c-0.5,0.6-0.8,1.3-0.8,2.2v11.3
			c0,0.8,0.3,1.5,0.8,2.1c0.5,0.6,1.1,0.8,1.7,0.8c0.6,0,1.2-0.3,1.7-0.8C219.9,22.2,220.2,21.5,220.2,20.7z"/>
		<path fill="#FFFFFF" d="M245.2,27c0.1,0.1,0.1,0.3,0.1,0.4c0,0.3-0.1,0.6-0.4,0.8s-0.5,0.4-0.8,0.4h-3c-0.6,0-1.1-0.4-1.3-1.2
			l-3.4-9.5c-0.1-0.2-0.1-0.4-0.2-0.4h-1.5c-0.3,0-0.4,0.1-0.4,0.4v9.3c0,0.4-0.1,0.6-0.4,0.9c-0.3,0.3-0.6,0.4-1,0.4h-2.7
			c-0.4,0-0.7-0.1-0.9-0.4c-0.3-0.3-0.4-0.6-0.4-0.9V2.8c0-0.8,0.4-1.3,1.3-1.3h6.9c2.2,0,4,0.7,5.5,2s2.3,3.1,2.3,5.2V10
			c0,2.7-1.1,4.7-3.4,6.2L245.2,27z M239.4,10.6v-2c0-0.6-0.2-1.1-0.7-1.5c-0.4-0.4-1-0.6-1.6-0.6h-2.6c-0.2,0-0.3,0.1-0.3,0.4v5.5
			c0,0.3,0.1,0.4,0.4,0.4h2.5c0.6,0,1.2-0.2,1.6-0.6C239.2,11.7,239.4,11.2,239.4,10.6z"/>
		<path fill="#FFFFFF" d="M253.6,27.1c0,0.4-0.1,0.7-0.4,1c-0.3,0.3-0.6,0.4-1,0.4h-2.9c-0.4,0-0.8-0.1-1-0.4
			c-0.3-0.3-0.4-0.6-0.4-1V2.8c0-0.4,0.1-0.7,0.4-1c0.3-0.3,0.6-0.4,1-0.4h2.9c0.4,0,0.7,0.1,1,0.4s0.4,0.6,0.4,1V27.1z"/>
		<path fill="#FFFFFF" d="M271.1,27.1c0,0.4-0.1,0.7-0.4,1c-0.3,0.3-0.6,0.4-1,0.4h-11.4c-0.4,0-0.7-0.1-1-0.4
			c-0.3-0.3-0.4-0.6-0.4-1V2.8c0-0.4,0.1-0.7,0.4-1c0.3-0.3,0.6-0.4,1.1-0.4h11.1c0.4,0,0.7,0.1,1,0.4s0.4,0.6,0.4,1v2.3
			c0,0.4-0.1,0.7-0.4,1s-0.6,0.4-1,0.4H263c-0.4,0-0.5,0.1-0.5,0.4v4.4c0,0.3,0.1,0.4,0.5,0.4h4.9c0.4,0,0.7,0.1,1,0.4
			c0.3,0.3,0.4,0.6,0.4,1v2.3c0,0.4-0.1,0.7-0.4,1c-0.3,0.3-0.6,0.4-1,0.4H263c-0.4,0-0.5,0.1-0.5,0.5v5.5c0,0.3,0.1,0.5,0.5,0.5
			h6.7c0.4,0,0.7,0.1,1,0.4c0.3,0.3,0.4,0.6,0.4,1L271.1,27.1L271.1,27.1z"/>
		<path fill="#FFFFFF" d="M289.4,21.5c0,2.3-0.8,4.1-2.3,5.4c-1.5,1.3-3.4,2-5.8,2c-3.8,0-6.5-1.8-8-5.3c-0.5-1.2-0.8-2-0.8-2.4
			c0-0.6,0.5-1.1,1.4-1.5c0.7-0.2,1.3-0.4,2-0.6c0.2-0.1,0.4-0.1,0.5-0.1c0.6,0,1,0.4,1.3,1.3c0.6,1.3,1,2.1,1.1,2.3
			c0.6,0.8,1.4,1.2,2.4,1.2c1.7,0,2.5-0.8,2.5-2.4c0-1.1-0.9-2.3-2.7-3.9c-1.7-1.4-3.4-2.7-5.1-4.2c-1.8-1.8-2.7-3.6-2.7-5.4
			c0-2.2,0.8-3.9,2.3-5.2c1.4-1.2,3.1-1.8,5.1-1.8c2,0,3.7,0.6,5.1,1.8c1.3,1.1,2.2,2.5,2.8,4.4c0.1,0.1,0.1,0.3,0.1,0.5
			c0,0.6-0.4,1-1.2,1.3c-0.6,0.2-1.3,0.4-1.9,0.6c-0.1,0.1-0.3,0.1-0.4,0.1c-0.6,0-1.1-0.3-1.3-0.8c-0.9-2.1-2-3.2-3.1-3.2
			c-0.6,0-1.1,0.3-1.5,0.8c-0.4,0.5-0.6,1.1-0.6,1.7c0,0.8,0.9,1.9,2.8,3.3c2.8,2.2,4.6,3.6,5.3,4.3
			C288.4,17.6,289.4,19.6,289.4,21.5z"/>
	</g>
	<g>
		<path fill="#FFFFFF" d="M136.2,21.5c0.1-0.8,0.6-1.5,1.7-2c0.1-0.1,0.4-0.2,0.9-0.4c0.4-0.2,0.7-0.4,0.8-0.4l0.4-1l-0.1,0.1
			c-0.1,0.1-0.1,0.1-0.2,0.2c-0.1,0.1-0.3,0.2-0.4,0.3c-0.1,0.1-0.3,0.1-0.5,0.2s-0.4,0.1-0.6,0.1c-0.2,0-0.4-0.1-0.6-0.1
			c-0.2-0.1-0.4-0.2-0.5-0.4s-0.2-0.4-0.3-0.7c0-0.1,0-0.2,0-0.4c0-0.2,0-0.4,0.1-0.7c0.1-0.4,0.2-0.9,0.4-1.4l1.8-4.4h1.9l-2,5
			c-0.1,0.3-0.2,0.6-0.3,0.8c-0.1,0.2-0.1,0.4-0.1,0.5c0,0.1,0,0.2,0,0.3c0,0.1,0.1,0.1,0.1,0.1s0.1,0.1,0.1,0.1
			c0.6,0,1.4-0.9,2.4-2.7l1.6-4h1.9l-3,7.4c0.8-0.4,1.4-0.8,2-1.4c0.6-0.6,1.1-1.3,1.7-2.2c0.1,0,0.3,0.1,0.4,0.1
			c0.1,0.1,0.3,0.2,0.3,0.4c-0.2,0.4-0.4,0.8-0.7,1.1s-0.5,0.6-0.7,0.8s-0.5,0.5-0.7,0.7c-0.3,0.2-0.5,0.4-0.7,0.6
			c-0.2,0.1-0.4,0.3-0.7,0.5c-0.3,0.1-0.5,0.3-0.7,0.4c-0.1,0.1-0.4,0.2-0.7,0.4c-0.1,0.4-0.3,0.7-0.4,1c-0.1,0.4-0.3,0.6-0.4,0.8
			s-0.3,0.5-0.5,0.8s-0.4,0.5-0.6,0.6c-0.2,0.1-0.4,0.3-0.7,0.4c-0.3,0.1-0.6,0.1-0.8,0.1c-0.6,0-1-0.1-1.3-0.4
			C136.3,22.2,136.2,21.9,136.2,21.5L136.2,21.5z M137.2,21.4c0,0.1,0.1,0.2,0.1,0.3s0.1,0.1,0.3,0.1l0,0c0.2,0,0.5-0.1,0.8-0.4
			s0.5-0.8,0.8-1.4c-0.1,0-0.2,0.1-0.4,0.1s-0.2,0.1-0.4,0.1c-0.1,0.1-0.2,0.1-0.3,0.1c-0.1,0.1-0.2,0.1-0.4,0.1
			C137.4,20.8,137.2,21.1,137.2,21.4z"/>
		<path fill="#FFFFFF" d="M145.1,16.2c0-0.4,0.1-0.7,0.1-1.1c0.1-0.4,0.2-0.8,0.4-1.3c0.1-0.4,0.4-0.8,0.6-1.3
			c0.3-0.4,0.6-0.8,0.8-1.1c0.4-0.4,0.7-0.6,1.1-0.8c0.4-0.2,0.8-0.3,1.3-0.3c0.7,0,1.3,0.2,1.7,0.6c0.4,0.4,0.6,1,0.6,1.8
			c0,0.5-0.1,1.1-0.2,1.6c-0.1,0.6-0.4,1.2-0.7,1.8c0.1,0,0.1,0,0.1,0c0.4,0,0.8-0.1,1.1-0.4c0.4-0.3,0.8-0.8,1.2-1.4
			c0.1,0,0.3,0.1,0.4,0.2c0.1,0.1,0.3,0.2,0.3,0.4c-0.5,0.8-1.1,1.4-1.7,1.8c-0.5,0.3-1,0.5-1.5,0.5c-0.2,0-0.4,0-0.6-0.1
			c-0.8,1.1-1.8,1.6-2.9,1.6c-0.7,0-1.3-0.2-1.7-0.6C145.4,17.7,145.1,17,145.1,16.2z M146.9,16.5c0,0.3,0.1,0.6,0.1,0.7
			c0.1,0.1,0.3,0.3,0.5,0.3c0.4,0,0.8-0.4,1.3-1.1c-0.2-0.2-0.3-0.5-0.3-0.7c0-0.3,0.1-0.6,0.4-0.8c0.2-0.2,0.4-0.3,0.7-0.3
			c0.1,0,0.1,0,0.1,0c0.4-0.9,0.5-1.6,0.5-2.2c0-0.3-0.1-0.5-0.1-0.7c-0.1-0.2-0.3-0.2-0.4-0.2c-0.3,0-0.6,0.2-1,0.6
			c-0.4,0.4-0.6,0.8-0.8,1.4c-0.2,0.6-0.4,1.1-0.6,1.6C147,15.7,146.9,16.1,146.9,16.5z"/>
		<path fill="#FFFFFF" d="M152.6,17.5c0-0.1,0-0.2,0-0.4c0-0.2,0-0.4,0.1-0.7c0.1-0.4,0.2-0.9,0.4-1.4l1.8-4.4h1.9l-2,5
			c-0.1,0.3-0.2,0.6-0.3,0.8c-0.1,0.2-0.1,0.4-0.1,0.5c0,0.1,0,0.2,0,0.3s0.1,0.1,0.1,0.1s0.1,0.1,0.1,0.1c0.6,0,1.5-0.9,2.5-2.7
			l1.6-4h1.9l-2,5c-0.1,0.3-0.2,0.6-0.3,0.8c-0.1,0.2-0.1,0.4-0.1,0.6c0,0.1,0,0.3,0,0.4s0.1,0.1,0.1,0.2c0.1,0,0.1,0.1,0.2,0.1
			c0.4,0,0.8-0.3,1.3-0.8s1.1-1.3,1.6-2.3c0.1,0,0.3,0.1,0.4,0.1c0.1,0.1,0.3,0.2,0.3,0.4c-1.5,2.5-2.9,3.8-4.2,3.8
			c-0.4,0-0.8-0.1-1.1-0.4c-0.3-0.2-0.4-0.6-0.5-1c-0.8,0.9-1.5,1.3-2.3,1.3c-0.3,0-0.5-0.1-0.7-0.1c-0.2-0.1-0.4-0.2-0.5-0.4
			C152.7,18,152.7,17.7,152.6,17.5z"/>
		<path fill="#FFFFFF" d="M161.4,14.3c0.4-0.6,0.8-1.5,1.3-2.6c-0.4-0.4-0.5-0.6-0.5-1s0.1-0.7,0.4-1c0.3-0.4,0.6-0.6,0.9-0.6
			l0.9,0.6l-0.6,1.3c0.1,0.1,0.3,0.3,0.6,0.5c0.3,0.2,0.5,0.4,0.7,0.6c0.2,0.1,0.4,0.4,0.6,0.6c0.1,0.2,0.3,0.5,0.3,0.7
			s-0.1,0.5-0.2,0.8l-0.6,1.5c-0.1,0.4-0.2,0.6-0.3,0.8c-0.1,0.2-0.1,0.4-0.1,0.6c0,0.1,0,0.2,0.1,0.4c0,0.1,0.1,0.1,0.1,0.1
			c0.1,0,0.1,0,0.1,0c0.3,0,0.6-0.3,1-0.8c0.4-0.5,0.9-1.3,1.5-2.4c0.1,0,0.3,0.1,0.4,0.1c0.1,0.1,0.3,0.2,0.3,0.4
			c-0.3,0.5-0.5,0.8-0.7,1.2c-0.2,0.4-0.4,0.6-0.7,1c-0.3,0.4-0.6,0.6-0.8,0.8c-0.2,0.2-0.5,0.4-0.8,0.6c-0.3,0.1-0.6,0.2-0.9,0.2
			c-0.3,0-0.6-0.1-0.8-0.2c-0.2-0.1-0.4-0.4-0.6-0.6c-0.1-0.2-0.1-0.4-0.1-0.8c0-0.1,0-0.2,0-0.4c0.1-0.5,0.2-1.1,0.5-1.7l0.6-1.3
			c0.1-0.2,0.1-0.4,0.1-0.5c0-0.1-0.1-0.3-0.2-0.4c-0.1-0.1-0.4-0.4-0.6-0.6c-0.4,0.8-0.8,1.7-1.3,2.5c-0.1,0-0.3-0.1-0.4-0.1
			C161.4,14.5,161.5,14.4,161.4,14.3z"/>
	</g>
</g>
</svg>
