<?xml version="1.0" encoding="utf-8"?>
<!-- Generator: Adobe Illustrator 18.1.1, SVG Export Plug-In . SVG Version: 6.00 Build 0)  -->
<svg version="1.1" id="Layer_1" xmlns="http://www.w3.org/2000/svg" xmlns:xlink="http://www.w3.org/1999/xlink" x="0px" y="0px"
	 viewBox="0 0 1280 800" enable-background="new 0 0 1280 800" xml:space="preserve">
<g id="Layer_2">
	<rect fill="#FFFFFF" width="1280" height="800"/>
</g>
<g id="svg2" xmlns:dc="http://purl.org/dc/elements/1.1/" xmlns:cc="http://creativecommons.org/ns#" xmlns:rdf="http://www.w3.org/1999/02/22-rdf-syntax-ns#" xmlns:svg="http://www.w3.org/2000/svg">
	<g id="g10" transform="matrix(1.25,0,0,-1.25,-74.19125,149.0417)">
		<g id="g4163" transform="matrix(0.6384875,0,0,0.6384875,24.348951,24.07854)">
			<g id="g12" transform="translate(143.448,67.609)">
				<path id="path14" fill="#2B3894" d="M478.9-637.1l69.8,433.3h112l-69.8-433.3L478.9-637.1"/>
			</g>
			<g id="g16" transform="translate(224.353,133.66)">
				<path id="path18" fill="#2B3894" d="M915.8-280.4c-22.4,9-57,17.9-100.5,17.9c-110.7,0-188.8-58.9-189.4-142.7
					c-0.6-62.1,55.7-97.3,97.9-117.8c43.5-21.1,58.2-34.6,58.2-53.8c0-28.8-34.6-42.2-67.2-42.2c-44.8,0-68.5,6.4-105.6,23l-14.1,7
					l-15.4-97.3c26.2-12.2,74.2-22.4,124.8-23c117.8,0,193.9,58.2,194.6,147.8c0.6,49.3-29.4,87-94.1,117.8
					c-39,19.8-63.4,33.3-62.7,53.8c0,17.9,20.5,37.1,64,37.1c36.5,0.6,63.4-7.7,83.8-16.6l10.2-5.1L915.8-280.4"/>
			</g>
			<g id="g20" transform="translate(247.634,91.616)">
				<path id="path22" fill="#2B3894" d="M1041.5-507.5c9,25,44.8,121,44.8,121c-0.6-1.3,9,25,14.7,41.6l7.7-37.1
					c0,0,21.8-103.7,25.6-124.8C1116.4-507.5,1063.2-507.5,1041.5-507.5z M1179.1-228.4h-86.4c-26.9,0-46.7-7.7-58.9-35.8
					L867.4-661.7h117.8c0,0,19.2,53.1,23.7,65.3c12.8,0,126.7,0,143.4,0c3.2-15.4,13.4-64.6,13.4-64.6h103.7L1179.1-228.4"/>
			</g>
			<g id="g24" transform="translate(128.78,135.265)">
				<path id="path26" fill="#2B3894" d="M399.7-271.8L290.2-567.4l-11.5,60.2c-20.5,69.1-83.8,144-154.9,181.8l100.5-378.9h118.4
					l176,432.6H399.7"/>
			</g>
			<g id="g28" transform="translate(95.781,135.311)">
				<path id="path30" fill="#F79510" d="M221.5-271.5H41l-1.3-9c140.2-35.8,233.6-122.2,272-226.6l-39,199
					C265-280.5,245.8-272.2,221.5-271.5"/>
			</g>
			<g id="g32" transform="translate(288.329,72.034)">
				<path id="path34" fill="#2B3894" d="M1261.2-613.2h5.1c3.8,0,4.5,1.9,4.5,3.8c0,3.2-1.9,3.8-5.1,3.8h-5.1v-7.7H1261.2z
					 M1256.1-602.3h10.9c2.6,0,8.3-0.6,8.3-7c0-1.9-0.6-3.8-4.5-5.8l0,0c3.2-0.6,3.2-3.2,3.2-5.8c0-3.8,0-4.5,1.3-5.8h-4.5
					c-0.6,0.6-0.6,1.9-0.6,5.8c0,2.6,0,4.5-5.1,4.5h-3.8v-10.2h-4.5C1256.1-626.6,1256.1-602.3,1256.1-602.3z M1265.1-635.6
					c11.5,0,19.8,9.6,19.8,21.1c0,11.5-9,21.1-19.8,21.1c-11.5,0-19.8-9.6-19.8-21.1C1245.2-626,1254.2-635.6,1265.1-635.6z
					 M1265.1-590.2c14.1,0,25-10.9,25-25c0-13.4-10.9-25-25-25s-25,10.9-25,25C1240.7-601,1251.6-590.2,1265.1-590.2"/>
			</g>
		</g>
	</g>
</g>
</svg>
