<?xml version="1.0" encoding="utf-8"?>
<!-- Generator: Adobe Illustrator 18.1.1, SVG Export Plug-In . SVG Version: 6.00 Build 0)  -->
<svg version="1.1" id="Layer_1" xmlns="http://www.w3.org/2000/svg" xmlns:xlink="http://www.w3.org/1999/xlink" x="0px" y="0px"
	 viewBox="0 0 1280 800" enable-background="new 0 0 1280 800" xml:space="preserve">
<g id="Layer_2">
	<rect fill="#FFFFFF" width="1280" height="800"/>
</g>
<g id="Layer_1_1_">
	<g id="layer1">
		<g id="g10305">
			<path id="path2268" fill="#FF9900" d="M1177.9,400c0,177.7-143.9,322-322,322c-177.7,0-322-143.9-322-322l0,0
				c0-177.7,143.9-322,322-322C1033.6,78,1177.9,221.9,1177.9,400L1177.9,400z"/>
			<path id="path1350" fill="#CC0000" d="M421.9,78c-176.6,1.1-319.8,145-319.8,322c0,177.7,144.3,322,322,322
				c83.6,0,159.6-31.6,216.6-84l0,0l0,0c11.6-10.5,22.5-22.2,32.7-34.5h-66.1c-8.7-10.5-16.7-21.8-24-33.1h113.8
				c6.9-10.9,13.1-22.5,18.9-34.5H564.8c-5.1-10.9-9.8-22.5-13.4-33.8h178.1c10.9-32,16.7-66.5,16.7-102.1c0-23.6-2.5-46.9-7.3-69.1
				h-197c2.5-11.3,5.5-22.9,9.1-33.8h178.5c-4-11.6-8.7-23.3-13.8-34.5H564.8c5.5-11.6,11.6-22.9,18.5-33.8h113.8
				c-7.6-12-16-23.6-25.1-34.5h-63.2c9.8-11.6,20.7-22.5,32.3-32.3C584,110,507.7,78,424.5,78C423.4,78,422.7,78,421.9,78z"/>
			<path id="use9412" fill="#FCB340" d="M1145.6,568.3c1.8,0,3.6,0.4,5.1,1.5c1.8,0.7,2.9,2.2,4,4c1.1,1.8,1.5,3.3,1.5,5.1
				s-0.4,3.6-1.5,5.1c-1.1,1.8-2.2,2.9-4,4c-1.8,0.7-3.3,1.5-5.1,1.5c-1.8,0-3.6-0.4-5.1-1.5c-1.8-1.1-2.9-2.2-4-4
				c-1.1-1.8-1.5-3.3-1.5-5.1s0.4-3.6,1.5-5.1c1.1-1.8,2.2-2.9,4-4C1142.3,568.6,1144.1,568.3,1145.6,568.3 M1145.6,570.1
				c-1.5,0-2.9,0.4-4.4,1.1c-1.5,0.7-2.5,1.8-3.3,3.3s-1.1,2.9-1.1,4.4c0,1.5,0.4,2.9,1.1,4.4c0.7,1.5,1.8,2.5,3.3,3.3
				c1.5,0.7,2.9,1.1,4.4,1.1c1.5,0,2.9-0.4,4.4-1.1c1.5-0.7,2.5-1.8,3.3-3.3c0.7-1.5,1.1-2.9,1.1-4.4c0-1.5-0.4-2.9-1.1-4.4
				c-0.7-1.5-1.8-2.5-3.3-3.3S1147,570.1,1145.6,570.1 M1141.2,584.6v-11.3h4c1.5,0,2.2,0,2.9,0.4s1.1,0.7,1.5,1.1
				c0.4,0.4,0.4,1.1,0.4,1.8s-0.4,1.5-0.7,2.2c-0.7,0.7-1.5,1.1-2.2,1.1c0.4,0,0.7,0.4,1.1,0.7s1.1,1.1,1.8,2.2l1.5,2.2h-2.2
				l-1.1-1.8c-0.7-1.5-1.5-2.2-1.8-2.5s-0.7-0.4-1.5-0.4h-1.1v4.7L1141.2,584.6 M1143,578.1h2.2c1.1,0,1.8,0,2.2-0.4
				s0.7-0.7,0.7-1.1c0-0.4,0-0.7-0.4-0.7c-0.4-0.4-0.4-0.4-0.7-0.7c-0.4,0-1.1-0.4-1.8-0.4h-2.2V578.1"/>
		</g>
		<g id="g16480">
			<g id="g13802" transform="translate(-13.74405,15.9939)">
				<path id="path13804" fill="#000066" d="M544.5,476.3l4.4-29.1c-2.2,0-5.8,1.1-8.7,1.1c-12,0-13.4-6.5-12.4-10.9l11.6-58.5h18.2
					l3.6-33.1h-17.1l3.6-20h-35.6c-0.7,0.7-20.4,112.7-20.4,126.5c0,20.4,11.3,29.1,27.3,29.1C531.5,480.7,541.3,477.4,544.5,476.3z
					"/>
				<path id="path13806" fill="#000066" d="M555.4,420.7c0,48.3,32,60,59.2,60c25.1,0,38.2-5.8,38.2-5.8l6.2-33.1
					c0,0-21.1,8.7-38.5,8.7c-36.7,0-30.5-27.6-30.5-27.6l70.9,0.4c0,0,4.4-22.2,4.4-31.3c0-22.5-12.4-50.2-49.8-50.2
					C580.9,341.8,555.4,378.9,555.4,420.7z M615.8,372.4c19.3,0,15.6,21.8,15.6,23.6h-38.2C593.2,393.8,596.9,372.4,615.8,372.4z"/>
				<path id="path13808" fill="#000066" d="M832.8,476.3l6.2-37.4c0,0-16.7,8.4-28.3,8.4c-24.4,0-34.2-18.5-34.2-38.5
					c0-40.3,21.1-62.9,44.3-62.9c17.4,0,31.6,9.8,31.6,9.8l5.5-36.3c0,0-16.7-12-34.5-12c-53.4-0.4-84.3,37.1-84.3,101.8
					c0,42.9,22.5,72,63.6,72C814.2,481,832.8,476.3,832.8,476.3z"/>
				<path id="path13810" fill="#000066" d="M355.9,342.2c-23.6,0-41.4,7.6-41.4,7.6l-5.1,29.4c0,0,14.9-6.2,37.4-6.2
					c12.7,0,22.2,1.5,22.2,11.6c0,6.2-1.1,8.7-1.1,8.7s-10.2-0.7-14.9-0.7c-33.4,0-60.7,12.7-60.7,50.9c0,30.2,20.4,37.1,33.1,37.1
					c24.4,0,33.8-15.3,34.2-15.3l-0.4,12.7h30.2l13.4-94.5C403.2,343.6,368.3,342.2,355.9,342.2z M361.4,418.9
					c0.7,5.8-1.5,33.1-22.2,33.1c-10.5,0-13.4-8-13.4-13.1c0-9.5,5.1-20.7,30.2-20.7C361.7,418.1,360.3,418.9,361.4,418.9z"/>
				<path id="path13812" fill="#000066" d="M435.1,479.9c7.6,0,52,1.8,52-43.6c0-42.5-40.7-34.2-40.7-51.2c0-8.4,6.5-11.3,18.9-11.3
					c4.7,0,23.3,1.5,23.3,1.5l4.4-30.2c0,0-12-2.5-31.6-2.5c-25.4,0-51.2,10.2-51.2,44.7c0,39.3,42.9,35.3,42.9,52
					c0,10.9-12,12-21.1,12c-16,0-30.5-5.5-30.5-5.1l-4.7,29.8C397.7,475.9,406.4,479.9,435.1,479.9z"/>
				<path id="path13814" fill="#000066" d="M1115.5,314.9l-6.2,46.2c0,0-13.1-17.8-33.1-17.8c-38.2,0-57.4,37.8-57.4,81.4
					c0,28,13.8,55.6,42.5,55.6c20.7,0,32-14.2,32-14.2l-1.5,12.4h33.4l26.2-163.2L1115.5,314.9z M1101,404.7
					c0,18.2-9.1,42.2-27.6,42.2c-12.4,0-18.2-10.5-18.2-26.5c0-26.5,12-44,26.9-44C1094.5,376,1101,384.7,1101,404.7z"/>
				<path id="path13816" fill="#000066" d="M170.2,478.1l20.7-123.2l2.9,123.2h23.6l44-123.2l-19.6,123.2H277l26.9-163.2l-55.6-0.4
					l-33.1,100l-0.7-99.6h-51.2L136,478.1H170.2L170.2,478.1z"/>
				<path id="path13818" fill="#000066" d="M698.7,478.5c9.8-56.7,13.4-101.4,42.5-92.3c4-21.8,14.2-41.1,18.5-50.5
					c0,0-1.5-2.2-10.5-2.2c-15.3,0-36,31.3-36,31.3l2.9-19.3h-32l-21.4,133L698.7,478.5L698.7,478.5z"/>
				<g id="use14699" transform="translate(845.3001,0)">
					<path id="path13810_1_" fill="#000066" d="M59.1,342.2c-23.6,0-41.4,7.6-41.4,7.6l-5.1,29.4c0,0,14.9-6.2,37.4-6.2
						c12.7,0,22.2,1.5,22.2,11.6c0,6.2-1.1,8.7-1.1,8.7s-10.2-0.7-14.9-0.7c-33.4,0-60.7,12.7-60.7,50.9c0,30.2,20.4,37.1,33.1,37.1
						c24.4,0,33.8-15.3,34.2-15.3l-0.4,12.7h30.2l13.4-94.5C106.3,343.6,71.4,342.2,59.1,342.2z M64.5,418.9
						c0.7,5.8-1.5,33.1-22.2,33.1c-10.5,0-13.4-8-13.4-13.1c0-9.5,5.1-20.7,30.2-20.7C64.9,418.1,63.4,418.9,64.5,418.9z"/>
				</g>
				<path id="use14701" fill="#000066" d="M986.5,478.5c5.5-41.8,15.6-100.3,42.5-92.3c4-21.8,0-21.8-8.7-21.8
					c-15.3,0-18.9,0.7-18.9,0.7l2.9-19.3h-32l-21.4,133L986.5,478.5L986.5,478.5z"/>
			</g>
			<g id="g10289">
				<path id="path4157" fill="#FFFFFF" d="M539.7,482.1l4.4-29.1c-2.2,0-5.8,1.1-8.7,1.1c-12,0-13.1-6.2-12.4-10.9l9.8-59.6H551
					l4.4-32.3h-17.1l3.6-20h-34.2C507,332,487.3,444,487.3,457.8c0,20.4,11.3,29.1,27.3,29.1C526.6,486.5,536.4,482.9,539.7,482.1z"
					/>
				<path id="path4155" fill="#FFFFFF" d="M550.6,426.5c0,48.3,32,60,59.2,60c25.1,0,36.3-5.5,36.3-5.5l6.2-33.1
					c0,0-19.3,8.4-36.3,8.4c-36.7,0-30.5-27.6-30.5-27.6h69.8c0,0,4.4-22.2,4.4-31.3c0-22.5-11.3-50.2-49.1-50.2
					C576,347.3,550.6,384.4,550.6,426.5z M610.9,377.8c19.3,0,15.6,21.8,15.6,23.6h-38.2C588.4,399.3,592,377.8,610.9,377.8z"/>
				<path id="path4151" fill="#FFFFFF" d="M827.9,482.1l6.2-37.4c0,0-16.7,8.4-28.3,8.4c-24.4,0-34.2-18.5-34.2-38.5
					c0-40.3,21.1-62.9,44.3-62.9c17.4,0,31.6,9.8,31.6,9.8l5.5-36.3c0,0-20.7-8.4-38.5-8.4c-39.6,0-78.1,34.2-78.1,98.9
					c0,42.9,20.7,70.9,61.8,70.9C809.4,486.5,827.9,482.1,827.9,482.1z"/>
				<path id="path4149" fill="#FFFFFF" d="M351,347.7c-23.6,0-41.4,7.6-41.4,7.6l-5.1,29.4c0,0,14.9-6.2,37.4-6.2
					c12.7,0,22.2,1.5,22.2,11.6c0,6.2-1.1,8.7-1.1,8.7s-10.2-0.7-14.9-0.7c-29.8,0-60.7,12.7-60.7,50.9c0,30.2,20.4,37.1,33.1,37.1
					c24.4,0,34.5-15.6,35.3-15.6l-1.1,13.1h30.2l13.4-94.5C398.3,349.1,363.4,347.7,351,347.7z M358.7,424.7
					c0.7,5.8-3.6,32.7-24.4,32.7c-10.5,0-13.4-8-13.4-13.1c0-9.5,5.1-20.7,30.2-20.7C356.9,424,357.6,424.7,358.7,424.7z"/>
				<path id="path4145" fill="#FFFFFF" d="M430.3,485.4c7.6,0,52,1.8,52-43.6c0-42.5-40.7-34.2-40.7-51.2c0-8.4,6.5-11.3,18.9-11.3
					c4.7,0,23.3,1.5,23.3,1.5l4.4-30.2c0,0-12-2.5-31.6-2.5c-25.4,0-51.2,10.2-51.2,44.7c0,39.3,42.9,35.3,42.9,52
					c0,10.9-12,12-21.1,12c-16,0-30.5-5.5-30.5-5.1l-4.7,29.8C392.8,481.4,401.6,485.4,430.3,485.4z"/>
				<path id="path4139" fill="#FFFFFF" d="M1112.1,320.8l-7.3,45.8c0,0-13.1-17.8-33.1-17.8c-31.3,0-57.4,37.8-57.4,81.4
					c0,28,13.8,55.6,42.5,55.6c20.7,0,32-14.2,32-14.2l-1.5,12.4h33.4l26.2-163.2H1112.1z M1096.1,410.2c0,18.2-9.1,42.2-27.6,42.2
					c-12.4,0-18.2-10.5-18.2-26.5c0-26.5,12-44,26.9-44C1089.6,381.8,1096.1,390.2,1096.1,410.2z"/>
				<path id="path4133" fill="#FFFFFF" d="M165.7,484l20.7-123.2l2.9,123.2h23.6l44-123.2L237.3,484h35.3l26.9-163.2h-54.2
					l-33.8,100.3l-1.8-100.3h-50.2L132.2,484C132.6,484,165.7,484,165.7,484z"/>
				<path id="path4131" fill="#FFFFFF" d="M693.8,484c9.8-56.7,12-102.9,35.6-94.5c4-21.8,8.4-30.5,12.7-39.6c0,0-2.2-0.4-6.5-0.4
					c-15.3,0-26.9,21.1-26.9,21.1l2.9-19.3h-32l-21.4,133h35.6V484z"/>
				<g id="use8523" transform="translate(847.0062,0)">
					<path id="path4149_1_" fill="#FFFFFF" d="M60.2,347.7c-23.6,0-41.4,7.6-41.4,7.6l-5.1,29.4c0,0,14.9-6.2,37.4-6.2
						c12.7,0,22.2,1.5,22.2,11.6c0,6.2-1.1,8.7-1.1,8.7s-10.2-0.7-14.9-0.7c-29.8,0-60.7,12.7-60.7,50.9c0,30.2,20.4,37.1,33.1,37.1
						c24.4,0,34.5-15.6,35.3-15.6l-1.1,13.1H94l13.4-94.5C107,349.1,72.2,347.7,60.2,347.7z M67.4,424.7c0.7,5.8-3.6,32.7-24.4,32.7
						c-10.5,0-13.4-8-13.4-13.1c0-9.5,5.1-20.7,30.2-20.7C65.6,424,66.3,424.7,67.4,424.7z"/>
				</g>
				<g id="use8525" transform="translate(442.2857,0)">
					<path id="path4131_1_" fill="#FFFFFF" d="M539.3,484c9.8-56.7,12-102.9,35.6-94.5c4-21.8,8.4-30.5,12.7-39.6
						c0,0-2.2-0.4-6.5-0.4c-15.3,0-26.9,21.1-26.9,21.1l2.9-19.3h-32l-21.4,133h35.6V484z"/>
				</g>
				<path id="text9407" fill="#FFFFFF" d="M1145.6,463.6c1.8,0,3.6,0.4,5.1,1.5c1.8,0.7,2.9,2.2,4,4c1.1,1.8,1.5,3.3,1.5,5.1
					c0,1.8-0.4,3.6-1.5,5.1c-1.1,1.8-2.2,2.9-4,4c-1.8,0.7-3.3,1.5-5.1,1.5c-1.8,0-3.6-0.4-5.1-1.5c-1.8-1.1-2.9-2.2-4-4
					c-1.1-1.8-1.5-3.3-1.5-5.1c0-1.8,0.4-3.6,1.5-5.1c1.1-1.8,2.2-2.9,4-4C1142.3,464,1143.8,463.6,1145.6,463.6 M1145.6,465.1
					c-1.5,0-2.9,0.4-4.4,1.1c-1.5,0.7-2.5,1.8-3.3,3.3s-1.1,2.9-1.1,4.4c0,1.5,0.4,2.9,1.1,4.4c0.7,1.5,1.8,2.5,3.3,3.3
					c1.5,0.7,2.9,1.1,4.4,1.1c1.5,0,2.9-0.4,4.4-1.1c1.5-0.7,2.5-1.8,3.3-3.3c0.7-1.5,1.1-2.9,1.1-4.4c0-1.5-0.4-2.9-1.1-4.4
					c-0.7-1.5-1.8-2.5-3.3-3.3C1148.5,465.8,1147,465.1,1145.6,465.1 M1141.2,479.6v-11.3h4c1.5,0,2.2,0,2.9,0.4
					c0.7,0.4,1.1,0.7,1.5,1.1c0.4,0.4,0.4,1.1,0.4,1.8s-0.4,1.5-0.7,2.2c-0.7,0.7-1.5,1.1-2.2,1.1c0.4,0,0.7,0.4,1.1,0.7
					c0.4,0.4,1.1,1.1,1.8,2.2l1.5,2.2h-2.2l-1.1-1.8c-0.7-1.5-1.5-2.2-1.8-2.5c-0.4-0.4-0.7-0.4-1.5-0.4h-1.1v4.7L1141.2,479.6
					 M1142.7,473.4h2.2c1.1,0,1.8,0,2.2-0.4c0.4-0.4,0.7-0.7,0.7-1.1c0-0.4,0-0.7-0.4-0.7c-0.4-0.4-0.4-0.4-0.7-0.7
					c-0.4,0-1.1-0.4-1.8-0.4h-2.2V473.4"/>
			</g>
		</g>
	</g>
</g>
</svg>
