<?xml version="1.0" encoding="utf-8"?>
<!-- Generator: Adobe Illustrator 18.1.1, SVG Export Plug-In . SVG Version: 6.00 Build 0)  -->
<svg version="1.1" id="Layer_1" xmlns="http://www.w3.org/2000/svg" xmlns:xlink="http://www.w3.org/1999/xlink" x="0px" y="0px"
	 viewBox="-979 1 1280 800" enable-background="new -979 1 1280 800" xml:space="preserve">
<g id="Layer_2">
	<rect x="-979" y="1" fill="#FFFFFF" width="1280" height="800"/>
</g>
<g>
	
		<radialGradient id="SVGID_1_" cx="-753.3451" cy="817.5749" r="1200.0936" gradientTransform="matrix(1 0 0 -1 0 804)" gradientUnits="userSpaceOnUse">
		<stop  offset="0" style="stop-color:#9DD5F6"/>
		<stop  offset="7.110000e-02" style="stop-color:#98D3F5"/>
		<stop  offset="0.1575" style="stop-color:#89CEF3"/>
		<stop  offset="0.2516" style="stop-color:#70C6EF"/>
		<stop  offset="0.3514" style="stop-color:#4EBBEA"/>
		<stop  offset="0.4546" style="stop-color:#23ADE3"/>
		<stop  offset="0.5" style="stop-color:#0DA6E0"/>
		<stop  offset="1" style="stop-color:#2E77BC"/>
	</radialGradient>
	<path fill="url(#SVGID_1_)" d="M299.9-237.8H-979v1283.5H299.9V622.2c5.1-7.3,7.6-16.7,7.6-28.2c0-13.1-2.5-21.3-7.6-28.1"/>
	<path fill="#FFFFFF" d="M-863.7,317.6l-24.6-60l-24.5,60 M-321.7,293.8c-4.9,3-10.8,3.1-17.8,3.1h-43.7v-33.4h44.3
		c6.3,0,12.8,0.3,17,2.7c4.7,2.2,7.5,6.9,7.5,13.3C-314.3,286-317.1,291.3-321.7,293.8z M-10.2,317.6l-24.9-60l-24.7,60H-10.2z
		 M-590.9,382.5h-36.8l-0.1-117.8L-680,382.5h-31.6l-52.3-117.9v117.9h-73.1l-13.8-33.5h-74.8l-14,33.5h-39l64.4-150.4h53.4
		l61.1,142.4V232.1h58.7l47,102l43.2-102h59.8L-590.9,382.5L-590.9,382.5z M-444,382.5h-120.1V232.1H-444v31.3h-84.1v27.1h82.1v30.8
		h-82.1v30h84.1V382.5z M-274.7,272.6c0,24-16,36.4-25.3,40.1c7.9,3,14.6,8.3,17.8,12.7c5.1,7.5,6,14.2,6,27.6v29.5h-36.3l-0.1-19
		c0-9,0.9-22.1-5.7-29.3c-5.3-5.3-13.3-6.4-26.2-6.4h-38.6v54.7h-35.9V232.1h82.7c18.4,0,31.9,0.5,43.5,7.2
		C-281.5,246.1-274.7,255.9-274.7,272.6z M-217.2,382.5h-36.7V232.1h36.7V382.5z M208.3,382.5h-50.9L89.2,269.7v112.9H16L2,349
		h-74.7l-13.6,33.5h-42.1c-17.5,0-39.6-3.9-52.1-16.6c-12.6-12.8-19.2-30.1-19.2-57.4c0-22.3,3.9-42.7,19.4-58.8
		c11.6-12,29.8-17.5,54.6-17.5h34.8v32.2h-34.1c-13.1,0-20.5,2-27.7,8.9c-6.1,6.3-10.3,18.3-10.3,34.1c0,16.1,3.2,27.7,9.9,35.3
		c5.5,6,15.6,7.8,25.1,7.8h16.1l50.7-118.3h53.9l60.9,142.2V232.2h54.7l63.2,104.7V232.2h36.8L208.3,382.5L208.3,382.5z M-979,412.1
		h61.4l13.8-33.4h31l13.8,33.4h120.8v-25.5l10.8,25.6h62.7l10.8-26v25.9h300.3l-0.1-54.8h5.8c4.1,0.1,5.3,0.5,5.3,7.2v47.6h155.3
		v-12.8c12.5,6.7,32,12.8,57.7,12.8h65.3l14-33.4h31l13.7,33.4h125.9v-31.7l19.1,31.7h100.9V202.3h-99.9v24.8l-14-24.8H24v24.8
		l-12.8-24.8h-138.4c-23.2,0-43.5,3.2-60,12.2v-12.2h-95.5v12.2c-10.5-9.3-24.7-12.2-40.6-12.2h-349l-23.4,54.2l-24-54.2h-109.9
		v24.8l-12.1-24.8h-93.7L-979,302L-979,412.1L-979,412.1z"/>
	<path fill="#FFFFFF" d="M299.9,523h-65.5c-6.5,0-10.9,0.2-14.5,2.7c-3.8,2.4-5.3,6.1-5.3,10.8c0,5.7,3.2,9.5,7.9,11.2
		c3.8,1.3,7.9,1.7,13.9,1.7l19.5,0.5c19.7,0.5,32.8,3.9,40.8,12.1c1.5,1.1,2.3,2.4,3.3,3.7 M299.9,622.2
		c-8.7,12.8-25.7,19.2-48.8,19.2h-69.4v-32.3h69.1c6.9,0,11.7-0.9,14.5-3.7c2.5-2.3,4.3-5.7,4.3-9.8c0-4.4-1.7-7.9-4.4-9.9
		c-2.6-2.3-6.4-3.3-12.7-3.3c-33.8-1.1-75.9,1-75.9-46.6c0-21.8,13.9-44.8,51.6-44.8h71.6v-29.9h-66.5c-20.1,0-34.7,4.8-45,12.3
		v-12.3H90c-15.7,0-34.2,3.9-42.9,12.3v-12.3h-175.7v12.3c-14-10.1-37.6-12.3-48.5-12.3h-115.9v12.3c-11.1-10.7-35.7-12.3-50.7-12.3
		h-129.7l-29.7,32.1l-27.8-32.1h-193.8v209.9h190.1l30.6-32.6l28.8,32.6L-358,671v-49.4h11.5c15.5,0.2,33.9-0.4,50.1-7.4v56.6h96.7
		v-54.7h4.7c6,0,6.5,0.2,6.5,6.2v48.5h293.6c18.6,0,38.1-4.8,48.9-13.4v13.4h93.1c19.4,0,38.3-2.7,52.7-9.7L299.9,622.2L299.9,622.2
		z M156.5,562.1c7,7.2,10.7,16.4,10.7,31.9c0,32.4-20.2,47.5-56.5,47.5h-70v-32.3h69.7c6.8,0,11.7-0.9,14.7-3.7
		c2.5-2.3,4.2-5.7,4.2-9.8c0-4.4-1.9-7.9-4.4-9.9c-2.7-2.3-6.5-3.3-12.8-3.3c-33.6-1.1-75.7,1-75.7-46.6c0-21.8,13.7-44.8,51.4-44.8
		H160v32H94c-6.5,0-10.8,0.2-14.4,2.7c-3.9,2.4-5.4,6.1-5.4,10.8c0,5.7,3.3,9.5,7.9,11.2c3.8,1.3,7.9,1.7,14,1.7l19.3,0.5
		C134.9,550.4,148.3,553.8,156.5,562.1z M-167.9,552.8c-4.8,2.9-10.8,3.1-17.7,3.1h-43.7v-33.8h44.3c6.4,0,12.8,0.1,17.2,2.7
		c4.7,2.4,7.4,7.1,7.4,13.5S-163.2,550-167.9,552.8z M-146.2,571.5c8,3,14.5,8.2,17.6,12.6c5.1,7.3,5.8,14.2,6,27.5v29.8h-36.1
		v-18.8c0-9,0.9-22.4-5.8-29.4c-5.3-5.4-13.3-6.7-26.4-6.7h-38.4v54.9h-36.1V491h83c18.2,0,31.5,0.8,43.2,7.1
		c11.3,6.9,18.5,16.2,18.5,33.4C-120.7,555.5-136.7,567.7-146.2,571.5z M-100.8,491h120v31.1H-65v27.3h82.1v30.7H-65V610l84.2,0.1
		v31.2h-120V491z M-343.3,560.4h-46.5v-38.3h46.9c13,0,22,5.3,22,18.4C-320.9,553.5-329.5,560.4-343.3,560.4z M-425.5,627.7
		l-55.2-61.3l55.2-59.3V627.7z M-568,610h-88.4v-29.9h78.9v-30.7h-78.9v-27.3h90.1l39.3,43.8L-568,610z M-282.3,540.5
		c0,41.8-31.2,50.4-62.6,50.4h-44.9v50.5h-69.9l-44.3-49.8l-46,49.8h-142.4V491h144.6l44.2,49.3l45.7-49.3h114.9
		C-314.3,491-282.3,498.9-282.3,540.5z"/>
</g>
</svg>
