<?xml version="1.0" encoding="utf-8"?>
<!-- Generator: Adobe Illustrator 19.2.1, SVG Export Plug-In . SVG Version: 6.00 Build 0)  -->
<!DOCTYPE svg PUBLIC "-//W3C//DTD SVG 1.1//EN" "http://www.w3.org/Graphics/SVG/1.1/DTD/svg11.dtd">
<svg version="1.1" id="Livello_1" xmlns="http://www.w3.org/2000/svg" xmlns:xlink="http://www.w3.org/1999/xlink" x="0px" y="0px"
	 width="103.3px" height="103.3px" viewBox="0 0 103.3 103.3" style="enable-background:new 0 0 103.3 103.3;" xml:space="preserve"
	>
<style type="text/css">
	.st0{fill:#68C5ED;}
	.st1{fill:#5E8A5C;}
</style>
<g>
	<path class="st0" d="M95.1,8.2C90.5,3.6,84.8,1,79.1,1C73.4,1,68,3.5,63.3,8.2L43,28.7c-4.7,4.7-7.2,10.2-7.1,15.9
		c0,5.7,2.6,11.3,7.2,15.9c2.3,2.4,4.4,3.6,6.6,4.6c0.4,0.2,0.9,0.3,1.4,0.3c1.3,0,2.4-0.7,3-1.9c0.4-0.8,0.4-1.7,0.1-2.5
		c-0.3-0.8-0.9-1.5-1.7-1.9c-1.8-0.9-3.2-1.7-4.8-3.4c-3.4-3.4-5.2-7.4-5.2-11.3c0-3.9,1.8-7.8,5.2-11.3L68,12.8
		c3.4-3.4,7.3-5.3,11.2-5.3c3.9,0,7.9,1.9,11.3,5.2c5.5,5.4,8.3,14.2,0,22.6L78.3,47.7c-1.3,1.3-1.3,3.4,0,4.6
		c1.3,1.2,3.4,1.2,4.6,0L95.1,40C104.8,30.3,104.7,17.8,95.1,8.2z"/>
	<path class="st1" d="M60.3,42.8c-2.1-2.1-4.1-3.5-6.8-4.8c-0.4-0.2-0.9-0.3-1.4-0.3c-1.3,0-2.4,0.7-3,1.9c-0.8,1.6-0.1,3.6,1.6,4.4
		c2,1,3.4,1.9,4.9,3.5c3.4,3.4,5.2,7.4,5.2,11.3c0,3.9-1.8,7.8-5.2,11.3L35.4,90.5c-3.4,3.4-7.3,5.3-11.2,5.3
		c-3.9,0-7.9-1.9-11.3-5.2c-5.4-5.5-8.3-14.3,0-22.6l12.9-13c1.3-1.3,1.3-3.4,0-4.6c-1.3-1.2-3.4-1.2-4.6,0l-12.9,13
		c-9.6,9.7-9.6,22.2,0,31.9c4.6,4.6,10.3,7.2,15.9,7.2h0c5.7,0,11.1-2.5,15.8-7.2l20.3-20.4c4.7-4.7,7.2-10.2,7.1-15.9
		C67.4,53.1,64.9,47.4,60.3,42.8z"/>
</g>
</svg>
