<?xml version="1.0" encoding="utf-8"?>
<!-- Generator: Adobe Illustrator 16.0.4, SVG Export Plug-In . SVG Version: 6.00 Build 0)  -->
<!DOCTYPE svg PUBLIC "-//W3C//DTD SVG 1.1//EN" "http://www.w3.org/Graphics/SVG/1.1/DTD/svg11.dtd">
<svg version="1.1" id="Livello_1" xmlns="http://www.w3.org/2000/svg" xmlns:xlink="http://www.w3.org/1999/xlink" x="0px" y="0px"
	 width="204.305px" height="44.69px" viewBox="0 0 204.305 44.69px" enable-background="new 0 0 204.305 44.69px"
	 xml:space="preserve">
<g>
	<path fill="#393f4f" d="M53.258,24.623v19.83H46.37V26.54c0-4.853-2.876-7.788-7.55-7.788c-5.45,0.18-8.746,4.373-8.746,9.945
		v15.756h-6.89V26.54c0-4.853-2.815-7.788-7.488-7.788c-5.512,0.18-8.866,4.373-8.866,9.945v15.756H0V12.581h6.83v6.171
		c2.217-4.493,6.29-6.41,11.562-6.41c5.692,0,9.586,2.816,11.083,7.668c2.037-5.331,6.291-7.668,12.103-7.668
		C48.886,12.342,53.258,17.014,53.258,24.623 M90.516,31.152H66.433c1.079,4.913,4.854,7.968,9.885,7.968
		c3.476,0,6.65-1.316,8.986-3.713l3.655,3.893c-3.115,3.415-7.669,5.394-13.181,5.394c-9.824,0-16.295-6.529-16.295-16.115
		c0-9.646,6.649-16.175,16.115-16.235C86.801,12.342,91.354,19.651,90.516,31.152 M84.524,26.121
		c-0.238-5.152-3.653-8.267-8.865-8.267c-5.032,0-8.567,3.175-9.347,8.267H84.524z M166.627,28.517
		c0,9.585-6.771,16.175-16.596,16.175c-9.886,0-16.654-6.59-16.654-16.175c0-9.646,6.77-16.176,16.654-16.176
		C159.856,12.342,166.627,18.872,166.627,28.517 M159.736,28.577c0-6.111-4.014-10.304-9.705-10.304
		c-5.751,0-9.765,4.192-9.765,10.304c0,6.17,4.014,10.364,9.765,10.364C155.723,38.941,159.736,34.747,159.736,28.577
		 M192.443,12.342c-5.392,0-9.465,1.917-11.741,6.351v-6.111h-6.89v31.872h6.89V27.498c0.479-4.973,3.773-8.626,9.046-8.687
		c4.793,0,7.669,2.936,7.669,7.729v17.913h6.89v-19.83C204.306,17.014,199.872,12.342,192.443,12.342 M98.833,0v5.151v34.15v5.151
		h6.889h2.517v-5.151h-2.517V5.151h2.517V0h-2.517H98.833z M116.484,0v5.151h2.518v34.15h-2.518v5.151h2.518h6.89v-5.151V5.151V0
		h-6.89H116.484z"/>
</g>
</svg>
