<?xml version="1.0" encoding="utf-8"?>
<!DOCTYPE svg PUBLIC "-//W3C//DTD SVG 1.1//EN" "http://www.w3.org/Graphics/SVG/1.1/DTD/svg11.dtd">
<svg version="1.1" xmlns="http://www.w3.org/2000/svg" xmlns:xlink="http://www.w3.org/1999/xlink" x="0px" y="0px"
	 viewBox="0 0 329.3 315.3" enable-background="new 0 0 329.3 315.3" xml:space="preserve">

	<path fill="#394050" d="M277.3,241.3L222,185.9c-0.8-0.8-2-1.3-3.1-1.3c0,0,0,0,0,0c-1.2,0-2.3,0.5-3.1,1.3l-6.3,6.3l-11.2-11.2
		l1.3-1.7c15.1-19.7,13.2-47.9-4.3-65.4c-19.4-19.4-51-19.4-70.4,0c-19.4,19.4-19.4,51,0,70.4c17.6,17.6,45.7,19.4,65.4,4.3l1.7-1.3
		l11.2,11.2l-6.3,6.3c-0.8,0.8-1.3,2-1.3,3.1c0,1.2,0.5,2.3,1.3,3.1l55.4,55.4c2.4,2.4,5.5,3.7,8.9,3.7c0,0,0,0,0,0
		c3.4,0,6.5-1.3,8.9-3.7l7.2-7.2c2.4-2.4,3.7-5.5,3.7-8.9C281,246.8,279.7,243.6,277.3,241.3z M189.1,177.9l-0.2,0.2
		c-8,7.9-18.4,11.9-28.8,11.9c-10.5,0-21-4-29-12c-16-16-16-42,0-57.9c16-16,42-16,57.9,0C205,136,205,161.9,189.1,177.9z
		 M206.3,207.8l12.5-12.5l29.2,29.2L235.6,237L206.3,207.8z M271.1,252.8l-7.2,7.2l-1.8-1.8l0,0l1.8,1.8c-0.7,0.7-1.6,1.1-2.6,1.1
		c-1,0-1.9-0.4-2.6-1.1l-16.7-16.7l12.5-12.5l16.7,16.7c0.7,0.7,1.1,1.7,1.1,2.6C272.2,251.2,271.8,252.1,271.1,252.8z"/>
	<path fill="#394050" d="M142,131c-1.7,1.7-1.7,4.5,0,6.3c1.7,1.7,4.5,1.7,6.3,0c3.2-3.2,7.5-4.9,11.8-4.9c4.3,0,8.5,1.6,11.8,4.9
		c1.7,1.7,4.5,1.7,6.3,0c0.8-0.8,1.3-1.9,1.3-3.1s-0.5-2.3-1.3-3.1C168.1,121,152,121,142,131z"/>
	<path fill="#394050" d="M228,114.7c-1.2,0-2.3,0.5-3.1,1.3c-0.8,0.8-1.3,1.9-1.3,3.1c0,1.2,0.5,2.3,1.3,3.1
		c0.8,0.8,1.9,1.3,3.1,1.3l47.9,0c0,0,0,0,0,0c1.2,0,2.3-0.5,3.1-1.3c0.8-0.8,1.3-1.9,1.3-3.1c0-1.2-0.5-2.3-1.3-3.1
		c-0.8-0.8-1.9-1.3-3.1-1.3c0,0,0,0,0,0L228,114.7C228,114.7,228,114.7,228,114.7z"/>
	<path fill="#394050" d="M190.2,85.7C190.2,85.7,190.2,85.7,190.2,85.7c1.2,0,2.3-0.5,3.1-1.3c0.8-0.8,1.3-1.9,1.3-3.1l0-47.9
		c0-1.2-0.5-2.3-1.3-3.1c-0.8-0.8-1.9-1.3-3.1-1.3c0,0,0,0,0,0c-1.2,0-2.3,0.5-3.1,1.3c-0.8,0.8-1.3,1.9-1.3,3.1l0,47.9
		c0,1.2,0.5,2.3,1.3,3.1C187.9,85.3,189,85.7,190.2,85.7z"/>
	<path fill="#394050" d="M212.5,103.6l15.3-15.3c0.8-0.8,1.3-1.9,1.3-3.1s-0.5-2.3-1.3-3.1s-1.9-1.3-3.1-1.3s-2.3,0.5-3.1,1.3
		l-15.3,15.3c-1.7,1.7-1.7,4.5,0,6.3C208,105.4,210.8,105.4,212.5,103.6z"/>
	<path fill="#394050" d="M129.5,213.2C129.5,213.2,129.5,213.2,129.5,213.2c-1.2,0-2.3,0.5-3.1,1.3c-0.8,0.8-1.3,1.9-1.3,3.1v47.9
		c0,1.2,0.5,2.3,1.3,3.1c0.8,0.8,1.9,1.3,3.1,1.3c0,0,0,0,0,0c1.2,0,2.3-0.5,3.1-1.3c0.8-0.8,1.3-1.9,1.3-3.1v-47.9
		c0-1.2-0.5-2.3-1.3-3.1C131.8,213.7,130.7,213.2,129.5,213.2z"/>
	<path fill="#394050" d="M91.7,175.4l-47.9,0c-2.4,0-4.4,2-4.4,4.4c0,2.4,2,4.4,4.4,4.4l47.9,0c1.2,0,2.3-0.5,3.1-1.3
		c0.8-0.8,1.3-1.9,1.3-3.1C96.1,177.4,94.1,175.4,91.7,175.4z"/>
	<path fill="#394050" d="M110.9,194.6c-1.2,0-2.3,0.5-3.1,1.3h0l-15.3,15.3c-0.8,0.8-1.3,1.9-1.3,3.1s0.5,2.3,1.3,3.1
		s1.9,1.3,3.1,1.3s2.3-0.5,3.1-1.3l15.3-15.3c0.8-0.8,1.3-1.9,1.3-3.1c0-1.2-0.5-2.3-1.3-3.1C113.2,195.1,112,194.6,110.9,194.6z"/>
</svg>
