<?xml version="1.0" standalone="no"?>
<!DOCTYPE svg PUBLIC "-//W3C//DTD SVG 1.1//EN" "http://www.w3.org/Graphics/SVG/1.1/DTD/svg11.dtd" >
<svg xmlns="http://www.w3.org/2000/svg">
<metadata>Generated by IcoMoon</metadata>
<defs>
<font id="mellonicons" horiz-adv-x="1024">
<font-face units-per-em="1024" ascent="960" descent="-64" />
<missing-glyph horiz-adv-x="1024" />
<glyph unicode="&#x20;" horiz-adv-x="512" d="" />
<glyph unicode="&#xe900;" glyph-name="feed" horiz-adv-x="968" d="M24.072 908.152v-405.526h404.6v405.526h-404.6zM61.107 871.118h331.458v-237.020l-69.439 65.736-9.259 9.259-64.81-32.405-74.069 88.882-12.036 14.814-14.814-12.962-87.031-74.995v178.691zM318.495 834.083c-20.369 0-37.034-16.665-37.034-37.034s16.665-37.034 37.034-37.034 37.034 16.665 37.034 37.034-16.665 37.034-37.034 37.034zM515.703 797.975c-10.184-1.852-17.591-11.11-15.74-21.295s11.11-17.591 21.295-15.74h404.6c10.184 0 18.517 8.333 18.517 18.517s-8.333 18.517-18.517 18.517c0 0 0 0-0.926 0h-403.675c-0.926 0-0.926 0-1.852 0s-0.926 0-1.852 0-0.926 0-1.852 0zM157.396 726.684l71.291-86.105 10.184-11.11 68.514 34.257 85.179-80.55v-43.515h-331.458v104.622l96.289 82.401zM515.703 668.354c-10.184-1.852-17.591-11.11-15.74-21.295s11.11-17.591 21.295-15.74v0h330.532c10.184 0 18.517 8.333 18.517 18.517s-8.333 18.517-18.517 18.517c0 0 0 0-0.926 0h-329.606c-0.926 0-0.926 0-1.852 0s-0.926 0-1.852 0-0.926 0-1.852 0zM24.072 392.448v-404.6h404.6v404.6h-404.6zM61.107 356.34h331.458v-331.458h-331.458v331.458zM258.315 299.863c-2.778 0-4.629 0-6.481-0.926-9.259-0.926-18.517-4.629-24.998-8.333s-7.407-4.629-11.11-8.333c-6.481 3.703-13.888 6.481-24.072 8.333-12.962 1.852-31.479 0-44.441-12.962-16.665-15.74-16.665-38.886-13.888-53.7 1.852-7.407 2.778-8.333 4.629-12.962-3.703-3.703-5.555-3.703-9.259-10.184-8.333-12.036-16.665-32.405-9.259-53.7 3.703-11.11 12.036-18.517 20.369-23.146 15.74-9.259 30.553-9.259 41.664-8.333 5.555-9.259 13.888-20.369 28.702-29.627 7.407-3.703 15.74-6.481 25.924-6.481 12.036 0.926 21.295 6.481 27.776 12.962s11.11 13.888 14.814 20.369c3.703 7.407 3.703 10.184 5.555 14.814 4.629 0.926 6.481 0.926 14.814 3.703 13.888 5.555 33.331 15.74 38.886 37.96 5.555 20.369-5.555 37.034-15.74 48.145-6.481 6.481-11.11 9.259-15.74 12.962 0.926 4.629 1.852 7.407 0.926 14.814-0.926 14.814-4.629 36.108-24.998 48.145-9.259 4.629-16.665 6.481-24.072 6.481zM515.703 263.754c-10.184-1.852-17.591-11.11-15.74-21.295s11.11-17.591 21.295-15.74h404.6c10.184 0 18.517 8.333 18.517 18.517s-8.333 18.517-18.517 18.517c0 0 0 0-0.926 0h-403.675c-0.926 0-0.926 0-1.852 0s-0.926 0-1.852 0-0.926 0-1.852 0zM259.241 263.754c0.926 0 1.852-0.926 2.778-0.926 2.778-1.852 5.555-8.333 6.481-17.591 0-9.259-0.926-18.517-0.926-18.517l-3.703-13.888 12.962-6.481c0 0 0 0 0.926-0.926 2.778-1.852 11.11-6.481 16.665-12.036s7.407-10.184 6.481-12.962c-0.926-4.629-6.481-9.259-15.74-12.962s-17.591-3.703-17.591-3.703l-13.888-0.926-2.778-12.962c0 0-1.852-9.259-6.481-17.591-1.852-4.629-4.629-8.333-6.481-11.11s-2.778-1.852-3.703-1.852c-1.852 0-2.778 0-5.555 1.852-9.259 4.629-20.369 24.998-20.369 24.998l-5.555 12.962-15.74-4.629c0 0-22.221-0.926-29.627 2.778-2.778 0.926-2.778 1.852-3.703 3.703-1.852 5.555 0 12.962 5.555 20.369 4.629 7.407 11.11 12.962 11.11 12.962l11.11 10.184-7.407 12.962c0 0-3.703 7.407-5.555 15.74s-1.852 14.814 3.703 19.443c3.703 3.703 6.481 3.703 12.962 2.778s12.962-4.629 17.591-6.481c2.778-1.852 3.703-1.852 3.703-1.852l12.962-9.259 11.11 10.184c0 0 6.481 5.555 14.814 10.184 4.629 1.852 8.333 3.703 11.11 4.629 0 0 1.852 0.926 2.778 0.926zM241.649 235.052c-10.184-2.778-17.591-33.331-17.591-33.331s-16.665 37.034-27.776 26.85c-12.036-9.259 24.998-30.553 24.998-30.553s-38.886-4.629-34.257-18.517c4.629-13.888 37.034 13.888 37.034 13.888s-8.333-41.664 6.481-38.886c14.814 2.778-1.852 39.812-1.852 39.812s37.034-21.295 38.886-5.555c1.852 14.814-37.96 10.184-37.96 10.184s30.553 27.776 17.591 36.108c-2.778 0-4.629 0-5.555 0zM515.703 135.060c-10.184-1.852-17.591-11.11-15.74-21.295s11.11-17.591 21.295-15.74h330.532c10.184 0 18.517 8.333 18.517 18.517s-8.333 18.517-18.517 18.517c0 0 0 0-0.926 0h-329.606c-0.926 0-0.926 0-1.852 0s-0.926 0-1.852 0-0.926 0-1.852 0z" />
<glyph unicode="&#xe901;" glyph-name="friends" horiz-adv-x="968" d="M390.712 837.787c-85.179-1.852-139.805-36.108-163.877-89.808-22.221-50.922-17.591-115.732-0.926-182.394-8.333-10.184-15.74-24.072-12.962-44.441 2.778-22.221 9.259-38.886 17.591-49.996 4.629-6.481 11.11-6.481 17.591-10.184 3.703-19.443 8.333-37.96 16.665-54.626 4.629-9.259 10.184-17.591 14.814-24.998 1.852-2.778 5.555-4.629 8.333-7.407 0-22.221 0-41.664-1.852-64.81-5.555-14.814-19.443-25.924-42.59-37.034-23.146-12.036-53.7-22.221-84.253-35.183s-62.033-29.627-87.031-54.626c-24.998-24.998-42.59-60.181-45.367-105.548l-0.926-19.443h734.206l-0.926 20.369c-1.852 31.479-11.11 58.329-24.998 79.624h209.244l-0.926 19.443c-2.778 38.886-17.591 69.439-38.886 90.734s-48.145 35.183-74.069 46.293c-25.924 11.11-50.922 19.443-70.365 29.627-18.517 9.259-28.702 18.517-33.331 29.627-1.852 19.443-1.852 35.183-1.852 52.774 1.852 1.852 4.629 3.703 6.481 5.555 4.629 5.555 8.333 12.962 12.962 21.295 6.481 12.962 11.11 29.627 13.888 45.367 4.629 2.778 10.184 2.778 13.888 8.333 8.333 10.184 12.962 23.146 15.74 42.59v0.926c1.852 16.665-3.703 27.776-10.184 37.034 7.407 24.998 16.665 63.884 13.888 104.622-1.852 22.221-7.407 45.367-21.295 63.884-12.962 17.591-34.257 31.479-61.107 36.108-17.591 19.443-45.367 27.776-76.846 27.776-44.441-0.926-78.698-12.036-103.696-31.479-11.11 7.407-24.998 12.036-39.812 15.74-22.221 24.998-57.403 34.257-97.215 34.257v0zM390.712 801.678c0.926 0 0.926 0 0 0 37.034 0 61.107-11.11 68.514-23.146l4.629-7.407 8.333-0.926c25.924-3.703 39.812-13.888 49.996-27.776s15.74-34.257 17.591-56.477c3.703-43.515-9.259-95.363-17.591-119.436l-3.703-13.888 12.962-7.407c-0.926 0.926 7.407-4.629 5.555-20.369-1.852-17.591-6.481-26.85-10.184-31.479s-4.629-3.703-5.555-3.703l-15.74-0.926-1.852-14.814c-1.852-15.74-8.333-35.183-15.74-49.996-3.703-7.407-7.407-13.888-11.11-18.517s-6.481-7.407-5.555-6.481l-8.333-6.481v-11.11c0-26.85-0.926-48.145 1.852-78.698v-1.852l0.926-1.852c10.184-27.776 34.257-45.367 61.107-59.255 26.85-12.962 57.403-23.146 86.105-35.183 24.998-10.184 47.219-23.146 64.81-38.886 0 0 0-0.926 0-0.926 0.926-0.926 1.852-1.852 2.778-1.852 0.926-0.926 2.778-2.778 3.703-3.703 0 0 0.926 0 0.926 0 0.926-0.926 0.926-0.926 1.852-1.852 15.74-15.74 24.998-36.108 30.553-62.033h-649.953c5.555 25.924 14.814 46.293 30.553 62.033 19.443 19.443 46.293 34.257 74.995 47.219 28.702 12.036 59.255 22.221 86.105 35.183s50.922 30.553 62.033 59.255l1.852 3.703c2.778 30.553 1.852 52.774 1.852 78.698v11.11l-10.184 5.555c1.852-0.926-1.852 1.852-5.555 6.481s-7.407 11.11-11.11 18.517c-7.407 14.814-13.888 34.257-15.74 49.996l-1.852 14.814-15.74 0.926c0 0-1.852 0-5.555 3.703-3.703 4.629-7.407 13.888-10.184 31.479-1.852 14.814 5.555 20.369 5.555 20.369l12.036 7.407-3.703 12.962c-17.591 66.662-20.369 126.843-1.852 167.58 17.591 41.664 53.7 67.588 129.62 69.439zM628.658 783.161c0.926 0 0.926 0 0 0 31.479 0 49.996-9.259 54.626-17.591l4.629-7.407 8.333-1.852c20.369-2.778 32.405-10.184 40.738-21.295s12.962-27.776 13.888-45.367c2.778-36.108-7.407-79.624-13.888-99.993l-4.629-13.888 12.962-7.407c-1.852 0.926 4.629-2.778 3.703-13.888-1.852-14.814-5.555-22.221-8.333-24.998s-2.778-2.778-1.852-1.852l-15.74-2.778-0.926-14.814c-0.926-12.962-7.407-28.702-12.962-40.738-2.778-6.481-5.555-12.036-8.333-15.74-1.852-1.852-2.778-3.703-3.703-4.629h-0.926c0 0 0-0.926 0-0.926l-10.184-4.629v-11.11c0-22.221-0.926-40.738 1.852-66.662v-1.852l0.926-1.852c9.259-24.998 30.553-39.812 52.774-50.922s48.145-20.369 72.217-30.553c24.072-10.184 46.293-22.221 62.033-37.96 12.036-12.036 19.443-28.702 24.072-48.145h-198.134c-22.221 19.443-48.145 32.405-74.069 43.515-30.553 12.962-60.181 24.072-83.327 35.183-22.221 11.11-36.108 22.221-42.59 37.034-1.852 24.072-1.852 42.59-1.852 65.736 2.778 2.778 5.555 4.629 8.333 7.407 4.629 6.481 10.184 15.74 13.888 24.998 7.407 15.74 12.962 35.183 16.665 54.626 5.555 2.778 12.036 3.703 16.665 10.184 9.259 11.11 14.814 26.85 17.591 49.996 2.778 20.369-4.629 33.331-12.962 43.515 9.259 28.702 20.369 75.92 16.665 124.065-1.852 25.924-9.259 52.774-24.998 74.069 0 0 0 0 0 0.926 17.591 9.259 42.59 16.665 76.846 17.591z" />
<glyph unicode="&#xe902;" glyph-name="deals-add" horiz-adv-x="968" d="M153.693 778.532c-182.394-182.394-182.394-478.669 0-661.063s478.669-182.394 661.063 0 182.394 478.669 0 661.063-478.669 182.394-661.063 0zM180.542 751.682c167.58 168.506 439.783 168.506 607.363 0s167.58-439.783 0-608.289-439.783-167.58-608.289 0-167.58 440.709 0.926 608.289zM231.465 460.036c0-0.926-0.926-0.926-0.926-1.852-5.555-8.333-3.703-20.369 4.629-25.924 3.703-1.852 7.407-3.703 11.11-3.703h218.503v-218.503c0-10.184 8.333-19.443 19.443-19.443s19.443 8.333 19.443 19.443v218.503h218.503c10.184 0 19.443 8.333 19.443 19.443 0 10.184-8.333 19.443-19.443 19.443h-218.503v218.503c0 10.184-7.407 18.517-17.591 19.443-6.481 0-12.036-2.778-15.74-7.407-2.778-3.703-3.703-7.407-3.703-11.11v-218.503h-220.354c-5.555-0.926-11.11-3.703-14.814-8.333z" />
<glyph unicode="&#xe903;" glyph-name="messages" horiz-adv-x="968" d="M16.665 800.752v-656.434h897.157c11.11 0 19.443 8.333 19.443 19.443s11.11 19.443 0 19.443c0 0-19.443 0-19.443 0h-858.271v42.59l270.351 210.17c34.257-29.627 61.107-51.848 68.514-58.329v0.926h0.926c30.553-25.924 63.884-33.331 85.179-33.331s54.626 7.407 85.179 33.331c0 0 0 0 0.926 0v-0.926c8.333 6.481 34.257 28.702 68.514 58.329l270.351-259.241c8.333-6.481 20.369-5.555 26.85 2.778s5.555 20.369-2.778 26.85v0l-265.722 255.537c30.553 25.924 62.958 53.7 97.215 83.327 73.143 62.958 121.288 103.696 143.508 122.213v-503.667c0-11.11 8.333-19.443 19.443-19.443s19.443 8.333 19.443 19.443c0 0 0 0 0 0.926v636.065h-926.785zM55.552 761.866h849.013v-43.515c-4.629-3.703-82.401-71.291-168.506-144.434-88.882-75.92-181.468-155.544-194.43-164.803l-0.926-0.926c-23.146-19.443-48.145-24.072-61.107-24.072s-37.96 4.629-61.107 24.072l-0.926 0.926c-12.036 10.184-105.548 89.808-194.43 164.803-85.179 73.143-162.951 140.731-167.58 144.434v43.515zM55.552 667.429c22.221-19.443 70.365-60.181 143.508-122.213 34.257-29.627 65.736-56.477 96.289-82.401l-239.797-187.949v392.564z" />
<glyph unicode="&#xe904;" glyph-name="profile" horiz-adv-x="968" d="M484.224 916.485c-257.389 0-466.633-209.244-466.633-466.633 0-149.063 70.365-281.461 178.691-366.64 5.555-4.629 11.11-8.333 16.665-12.036 1.852-0.926 2.778-2.778 4.629-3.703 2.778-1.852 4.629-2.778 7.407-4.629 4.629-3.703 10.184-6.481 14.814-10.184 0.926-0.926 1.852-1.852 3.703-2.778s4.629-2.778 6.481-3.703c3.703-1.852 8.333-4.629 12.036-6.481 6.481-3.703 12.962-7.407 19.443-10.184 6.481-3.703 13.888-6.481 21.295-9.259 58.329-24.998 124.065-39.812 191.653-39.812 35.183 0 71.291 7.407 106.474 18.517 70.365 17.591 133.324 52.774 187.024 98.141 1.852 1.852 3.703 2.778 5.555 4.629 0.926 0.926 2.778 1.852 3.703 2.778 0 0 0.926 0.926 0.926 0.926 1.852 1.852 4.629 4.629 6.481 6.481 89.808 85.179 146.286 205.541 146.286 338.864 0 256.463-209.244 465.707-466.633 465.707zM484.224 878.524c237.020 0 428.673-191.653 428.673-428.673 0-117.584-47.219-224.984-123.139-301.83-36.108 27.776-79.624 42.59-116.658 57.403-40.738 16.665-69.439 32.405-77.772 53.7-1.852 24.072-1.852 43.515-1.852 66.662 2.778 2.778 5.555 4.629 8.333 7.407 5.555 7.407 10.184 15.74 14.814 24.998 8.333 16.665 13.888 36.108 16.665 55.552 5.555 2.778 12.036 3.703 16.665 10.184 9.259 11.11 15.74 27.776 18.517 50.922 2.778 20.369-4.629 34.257-12.962 44.441 9.259 29.627 20.369 77.772 16.665 126.843-1.852 26.85-9.259 53.7-24.998 75.92-14.814 20.369-38.886 35.183-68.514 41.664-19.443 24.998-54.626 35.183-95.363 35.183h-1.852c-87.031-1.852-142.582-37.034-166.655-91.66-23.146-51.848-17.591-117.584-0.926-186.098-9.259-10.184-15.74-24.072-12.962-45.367 2.778-23.146 9.259-38.886 18.517-50.922 4.629-6.481 11.11-6.481 17.591-10.184 3.703-19.443 8.333-38.886 16.665-55.552 4.629-9.259 10.184-18.517 14.814-24.998 1.852-2.778 5.555-4.629 8.333-7.407 0-23.146 0-42.59-1.852-66.662-9.259-21.295-37.96-37.034-77.772-52.774-37.034-14.814-81.476-29.627-117.584-57.403-77.772 74.995-124.065 182.394-124.065 299.978 0 237.020 191.653 428.673 428.673 428.673zM482.373 759.089c0 0 0 0 0 0 37.96 0 62.033-11.11 69.439-23.146l4.629-7.407 8.333-0.926c25.924-3.703 40.738-13.888 50.922-28.702s16.665-35.183 18.517-57.403c3.703-44.441-9.259-97.215-17.591-121.288l-4.629-14.814 12.962-7.407c-0.926 0.926 7.407-4.629 5.555-20.369-1.852-18.517-6.481-27.776-10.184-32.405-2.778-3.703-4.629-3.703-4.629-3.703l-15.74-0.926-1.852-14.814c-1.852-15.74-8.333-36.108-15.74-50.922-3.703-7.407-7.407-14.814-11.11-19.443s-7.407-7.407-5.555-6.481l-10.184-5.555v-11.11c0-26.85-0.926-49.071 1.852-80.55v-2.778l0.926-2.778c15.74-41.664 57.403-59.255 99.993-75.92 35.183-13.888 70.365-28.702 99.067-48.145-5.555-4.629-7.407-7.407-16.665-13.888-18.517-12.962-42.59-26.85-69.439-40.738-25.924-12.962-54.626-24.998-84.253-34.257-0.926 0-1.852 0-2.778-0.926-32.405-7.407-65.736-12.036-99.993-12.036-40.738 0-80.55 5.555-117.584 16.665-60.181 18.517-113.881 49.071-155.544 85.179 29.627 19.443 64.81 34.257 99.993 48.145 42.59 16.665 85.179 35.183 99.993 75.92l1.852 5.555c2.778 31.479 1.852 53.7 1.852 80.55v11.11l-10.184 5.555c1.852-0.926-1.852 1.852-5.555 6.481s-7.407 11.11-12.036 19.443c-7.407 15.74-13.888 35.183-15.74 50.922l-1.852 14.814-16.665 0.926c0 0-1.852 0-5.555 3.703-3.703 4.629-7.407 13.888-10.184 32.405-1.852 15.74 6.481 21.295 5.555 20.369l12.036 7.407-2.778 13.888c-17.591 67.588-20.369 128.694-2.778 171.284 18.517 40.738 55.552 67.588 133.324 68.514z" />
<glyph unicode="&#xe905;" glyph-name="back" horiz-adv-x="968" d="M235.168 501.7l-50.922-53.7 460.152-479.595 102.77 106.474-358.307 373.121 358.307 373.121-102.77 106.474-409.23-425.895z" />
<glyph unicode="&#xe906;" glyph-name="plus" horiz-adv-x="968" d="M484.224 912.781c-256.463 0-464.781-208.318-464.781-464.781s208.318-464.781 464.781-464.781 464.781 208.318 464.781 464.781-208.318 464.781-464.781 464.781zM484.224 835.935c214.799 0 387.935-173.136 387.935-387.935s-173.136-387.935-387.935-387.935-387.935 173.136-387.935 387.935 173.136 387.935 387.935 387.935zM445.338 680.391v-193.505h-193.505v-77.772h193.505v-193.505h77.772v193.505h193.505v77.772h-193.505v193.505h-77.772z" />
<glyph unicode="&#xe907;" glyph-name="close" horiz-adv-x="968" d="M157.396 774.828c-179.617-180.542-179.617-473.114 0-653.656s473.114-179.617 652.731 0 179.617 473.114 0 652.731-472.188 180.542-652.731 0.926zM212.022 720.203c150.915 150.915 393.49 150.915 544.405 0s150.915-393.49 0-544.405-393.49-150.915-544.405 0-150.915 393.49 0 544.405zM293.497 584.101l136.101-136.101-136.101-136.101 54.626-54.626 136.101 136.101 136.101-136.101 54.626 54.626-136.101 136.101 136.101 136.101-54.626 54.626-136.101-136.101-136.101 136.101-54.626-54.626z" />
<glyph unicode="&#xe908;" glyph-name="minus" horiz-adv-x="968" d="M18.517 448c0-256.463 209.244-465.707 465.707-465.707s465.707 209.244 465.707 465.707-209.244 465.707-465.707 465.707-465.707-209.244-465.707-465.707zM96.289 448c0 214.799 173.136 387.935 387.935 387.935s387.935-173.136 387.935-387.935-173.136-387.935-387.935-387.935-387.935 173.136-387.935 387.935zM445.338 486.886h-193.505v-77.772h464.781v77.772h-271.277z" />
<glyph unicode="&#xe909;" glyph-name="address-book" horiz-adv-x="968" d="M679.58 354.488v-43.515c0-8.333-6.481-14.814-14.814-14.814h-14.814v72.217h14.814c8.333 0 14.814-6.481 14.814-13.888zM664.767 455.407h-14.814v-72.217h14.814c8.333 0 14.814 6.481 14.814 14.814v43.515c0 7.407-6.481 13.888-14.814 13.888zM664.767 541.512h-14.814v-72.217h14.814c8.333 0 14.814 6.481 14.814 14.814v43.515c0 7.407-6.481 13.888-14.814 13.888zM636.065 541.512v-245.353c0-24.072-19.443-43.515-43.515-43.515h-260.166c-24.072 0-43.515 19.443-43.515 43.515v303.682c0 24.072 19.443 43.515 43.515 43.515h260.166c8.333 0 14.814-6.481 14.814-14.814s-6.481-14.814-14.814-14.814h-245.353c-8.333 0-14.814-6.481-14.814-14.814s6.481-14.814 14.814-14.814h5.555c0 0 27.776 0 66.662 0 0 0 173.136 0 173.136 0 24.072 0.926 43.515-18.517 43.515-42.59zM535.146 339.675c0 28.702-13.888 41.664-28.702 43.515s-25.924 9.259-25.924 21.295c0 2.778 10.184 9.259 17.591 26.85 4.629 1.852 8.333 5.555 8.333 12.036 0 5.555-1.852 9.259-8.333 12.036-1.852 24.998-6.481 44.441-35.183 44.441s-33.331-19.443-35.183-44.441c-5.555-2.778-8.333-5.555-8.333-12.036 0-5.555 3.703-10.184 8.333-12.036 7.407-17.591 16.665-24.072 16.665-26.85 0-12.962-11.11-19.443-25.924-21.295s-28.702-14.814-28.702-43.515h145.36zM484.224-15.855c-254.611 0-462.004 208.318-462.004 463.855s207.392 463.855 462.004 463.855c254.611 0 462.004-208.318 462.004-463.855s-207.392-463.855-462.004-463.855zM484.224 883.154c-238.872 0-433.302-195.356-433.302-435.154s194.43-435.154 433.302-435.154 433.302 195.356 433.302 435.154-194.43 435.154-433.302 435.154z" />
<glyph unicode="&#xe90a;" glyph-name="facebook" horiz-adv-x="968" d="M484.224-18.633c-254.611 0-462.004 209.244-462.004 466.633s207.392 466.633 462.004 466.633c254.611 0 462.004-209.244 462.004-466.633s-207.392-466.633-462.004-466.633zM484.224 885.005c-238.872 0-433.302-196.282-433.302-437.005s194.43-437.005 433.302-437.005 433.302 196.282 433.302 437.005-194.43 437.005-433.302 437.005zM520.333 518.365v41.664c0 18.517 4.629 27.776 34.257 27.776h37.96v70.365h-57.403c-72.217 0-100.919-46.293-100.919-98.141v-41.664h-57.403v-70.365h57.403v-210.17h87.031v210.17h63.884l8.333 70.365h-73.143z" />
<glyph unicode="&#xe90b;" glyph-name="user-link" horiz-adv-x="968" d="M484.224-18.633c-254.611 0-462.004 209.244-462.004 466.633s207.392 466.633 462.004 466.633c254.611 0 462.004-209.244 462.004-466.633s-207.392-466.633-462.004-466.633zM484.224 885.005c-238.872 0-433.302-196.282-433.302-437.005s194.43-437.005 433.302-437.005 433.302 196.282 433.302 437.005-194.43 437.005-433.302 437.005zM350.901 665.577c-27.776 0-49.996-22.221-49.996-49.996s22.221-49.996 49.996-49.996 49.996 22.221 49.996 49.996c-0.926 27.776-23.146 49.996-49.996 49.996zM616.622 665.577c-27.776 0-49.996-22.221-49.996-49.996s22.221-49.996 49.996-49.996c27.776 0 49.996 22.221 49.996 49.996-0.926 27.776-23.146 49.996-49.996 49.996zM334.235 548.919c-36.108 0-66.662-30.553-66.662-66.662v-80.55c0-12.962 6.481-23.146 18.517-29.627l13.888-6.481 14.814-134.25h72.217l14.814 135.175 13.888 6.481c12.036 4.629 18.517 16.665 18.517 30.553v2.778c-27.776 1.852-31.479 3.703-35.183 6.481-10.184 8.333-14.814 23.146-14.814 35.183s3.703 26.85 14.814 35.183c3.703 1.852 4.629 3.703 33.331 6.481-3.703 33.331-31.479 58.329-64.81 58.329h-33.331zM599.957 548.919c-33.331 0-61.107-24.998-64.81-57.403 14.814-12.962 24.998-24.998 26.85-26.85 3.703-4.629 5.555-10.184 5.555-14.814s-1.852-12.036-5.555-14.814c-1.852-1.852-11.11-12.962-26.85-28.702v-2.778c0-12.962 6.481-24.072 18.517-30.553l13.888-6.481 14.814-135.175h73.143l14.814 135.175 13.888 6.481c12.036 4.629 18.517 16.665 18.517 30.553v78.698c-1.852 37.034-31.479 66.662-67.588 66.662h-35.183zM478.669 514.662c-1.852 0-2.778 0-4.629-0.926-3.703 0-5.555-3.703-5.555-6.481v-31.479c0 0-54.626-5.555-58.329-6.481s-6.481-11.11-6.481-19.443 1.852-18.517 6.481-22.221c1.852-3.703 58.329-6.481 58.329-6.481v-30.553c0-1.852 1.852-5.555 5.555-6.481 1.852-1.852 4.629-1.852 8.333 0 33.331 23.146 64.81 58.329 66.662 60.181s1.852 3.703 1.852 5.555 0 3.703-1.852 5.555-35.183 37.034-66.662 60.181c-0.926-0.926-2.778-0.926-3.703-0.926z" />
<glyph unicode="&#xe90c;" glyph-name="info" horiz-adv-x="968" d="M484.224-18.633c-254.611 0-462.004 209.244-462.004 466.633s207.392 466.633 462.004 466.633c254.611 0 462.004-209.244 462.004-466.633s-207.392-466.633-462.004-466.633zM484.224 885.005c-238.872 0-433.302-196.282-433.302-437.005s194.43-437.005 433.302-437.005 433.302 196.282 433.302 437.005-194.43 437.005-433.302 437.005zM550.886 236.904l-4.629-21.295c-20.369-8.333-36.108-13.888-48.145-16.665s-22.221-4.629-30.553-4.629c-17.591 0-30.553 4.629-39.812 13.888-8.333 9.259-12.962 20.369-12.962 34.257 0 4.629 0 10.184 0.926 15.74s1.852 12.036 4.629 21.295l35.183 140.731c1.852 7.407 3.703 15.74 4.629 24.998 1.852 9.259 2.778 16.665 2.778 22.221 0 12.036-1.852 20.369-6.481 24.998s-12.036 4.629-24.998 4.629c-4.629 0-11.11-0.926-19.443-2.778s-13.888-2.778-18.517-3.703l4.629 21.295c16.665 7.407 32.405 13.888 46.293 17.591s24.072 5.555 32.405 5.555c17.591 0 30.553-4.629 38.886-12.962s12.036-20.369 12.036-35.183c0-3.703 0-9.259-0.926-16.665-0.926-6.481-1.852-13.888-3.703-20.369l-35.183-140.731c-1.852-8.333-3.703-16.665-5.555-24.998s-2.778-14.814-2.778-20.369c0-12.962 2.778-21.295 8.333-25.924s14.814-7.407 26.85-7.407c3.703 0 10.184 0.926 17.591 1.852 9.259 1.852 14.814 2.778 18.517 4.629zM574.958 660.022c0-12.962-3.703-23.146-12.036-33.331-8.333-9.259-18.517-13.888-30.553-13.888-11.11 0-21.295 4.629-28.702 12.962-8.333 9.259-12.036 19.443-12.036 30.553 0 12.036 3.703 22.221 12.036 31.479s17.591 13.888 28.702 13.888c12.036 0 22.221-4.629 30.553-12.962 7.407-8.333 12.036-17.591 12.036-28.702z" />
<glyph unicode="&#xe90d;" glyph-name="hide" horiz-adv-x="968" d="M187.024 448v0c318.495-414.785 593.476 0 593.476 0v0c-318.495 414.785-593.476 0-593.476 0zM484.224 297.085c-81.476 0-147.212 67.588-147.212 150.915s65.736 150.915 147.212 150.915c81.476 0 147.212-67.588 147.212-150.915s-65.736-150.915-147.212-150.915zM484.224 519.291c-38.886 0-69.439-31.479-69.439-71.291s31.479-71.291 69.439-71.291c38.886 0 69.439 31.479 69.439 71.291s-30.553 71.291-69.439 71.291zM142.582 138.763l646.25 646.25 32.405-32.405-646.25-646.25-32.405 32.405zM484.224-14.929c-255.537 0-462.929 207.392-462.929 462.929s207.392 462.929 462.929 462.929 462.929-207.392 462.929-462.929c0-255.537-207.392-462.929-462.929-462.929zM484.224 902.597c-250.908 0-454.597-203.689-454.597-454.597s203.689-454.597 454.597-454.597 454.597 203.689 454.597 454.597-203.689 454.597-454.597 454.597z" />
<glyph unicode="&#xe90e;" glyph-name="block" horiz-adv-x="968" d="M484.224-18.633c-254.611 0-462.004 209.244-462.004 466.633s207.392 466.633 462.004 466.633c254.611 0 462.004-209.244 462.004-466.633s-207.392-466.633-462.004-466.633zM484.224 885.005c-238.872 0-433.302-196.282-433.302-437.005s194.43-437.005 433.302-437.005 433.302 196.282 433.302 437.005-194.43 437.005-433.302 437.005zM672.174 458.184c-14.814 9.259-34.257 2.778-43.515-12.962l-28.702-46.293v14.814l-0.926 209.244c0 12.036-10.184 21.295-21.295 21.295-12.036 0-21.295-10.184-21.295-22.221l-0.926-143.508c-9.259 3.703-18.517 6.481-28.702 6.481v166.655c0 12.036-10.184 21.295-22.221 21.295s-21.295-10.184-21.295-22.221l0.926-166.655-28.702-0.926-0.926 151.841c0 12.036-9.259 22.221-21.295 22.221s-21.295-10.184-21.295-22.221l0.926-151.841c-10.184 0-19.443-2.778-28.702-6.481l-0.926 114.807c0 12.036-9.259 21.295-21.295 21.295s-21.295-10.184-21.295-22.221l0.926-180.542v-44.441l0.926-15.74c1.852-65.736 36.108-126.843 129.62-124.991 71.291 0.926 114.807 31.479 131.472 65.736l78.698 122.213c8.333 15.74 4.629 36.108-10.184 45.367z" />
<glyph unicode="&#xe90f;" glyph-name="link" horiz-adv-x="968" d="M484.224-18.633c-254.611 0-462.004 209.244-462.004 466.633s207.392 466.633 462.004 466.633c254.611 0 462.004-209.244 462.004-466.633s-207.392-466.633-462.004-466.633zM484.224 885.005c-238.872 0-433.302-196.282-433.302-437.005s194.43-437.005 433.302-437.005 433.302 196.282 433.302 437.005-194.43 437.005-433.302 437.005zM591.624 401.707l-40.738 40.738 82.401 83.327c19.443 19.443 19.443 51.848 0 72.217-19.443 19.443-51.848 19.443-71.291 0l-78.698-79.624-40.738 40.738 78.698 79.624c42.59 42.59 111.103 42.59 152.767 0 42.59-42.59 42.59-111.103 0-153.693l-82.401-83.327zM370.344 224.868c-27.776 0-55.552 10.184-76.846 31.479-20.369 20.369-31.479 48.145-31.479 76.846s11.11 56.477 31.479 76.846l71.291 72.217 40.738-40.738-71.291-72.217c-9.259-9.259-14.814-22.221-14.814-36.108s5.555-25.924 14.814-36.108c19.443-19.443 51.848-19.443 71.291 0l66.662 66.662 40.738-40.738-66.662-66.662c-20.369-20.369-48.145-31.479-75.92-31.479zM265.722 625.765l81.476-54.626 12.962 14.814-56.477 79.624zM698.098 272.087l-81.476 53.7-12.962-14.814 56.477-79.624z" />
<glyph unicode="&#xe910;" glyph-name="like" horiz-adv-x="968" d="M484.224-18.633c-254.611 0-462.004 209.244-462.004 466.633s207.392 466.633 462.004 466.633c254.611 0 462.004-209.244 462.004-466.633s-207.392-466.633-462.004-466.633zM484.224 885.005c-238.872 0-433.302-196.282-433.302-437.005s194.43-437.005 433.302-437.005 433.302 196.282 433.302 437.005-194.43 437.005-433.302 437.005zM276.832 449.852c0 0 65.736 58.329 112.955 119.436s70.365 121.288 75.92 146.286c5.555 9.259 45.367 15.74 50.922-16.665s-40.738-127.769-41.664-148.137c-0.926-20.369 8.333-48.145 58.329-37.96s99.993 19.443 133.324 12.036c13.888-3.703 18.517-16.665 18.517-30.553 0-12.962-12.962-25.924-14.814-26.85s29.627-6.481 29.627-37.96c0-31.479-22.221-41.664-22.221-41.664s17.591-16.665 17.591-37.034c0-37.96-30.553-43.515-30.553-43.515s19.443-5.555 17.591-29.627c-1.852-29.627-32.405-40.738-87.031-43.515-96.289-5.555-195.356 11.11-253.685 31.479-28.702 9.259-61.107 18.517-69.439 18.517 0.926 23.146 4.629 165.729 4.629 165.729z" />
<glyph unicode="&#xe911;" glyph-name="people" horiz-adv-x="968" d="M484.224-18.633c-254.611 0-462.004 209.244-462.004 466.633s207.392 466.633 462.004 466.633c254.611 0 462.004-209.244 462.004-466.633s-207.392-466.633-462.004-466.633zM484.224 885.005c-238.872 0-433.302-196.282-433.302-437.005s194.43-437.005 433.302-437.005 433.302 196.282 433.302 437.005-194.43 437.005-433.302 437.005zM744.391 280.42c0 0 0 0 0 0 0-9.259-7.407-16.665-15.74-16.665h-120.362c9.259 1.852 15.74 10.184 15.74 19.443v0 0c0 0 0 74.069-53.7 99.993-23.146 11.11-24.072 9.259-36.108 12.036v31.479c0 0-12.962 9.259-16.665 39.812-7.407-1.852-10.184 9.259-11.11 16.665 0 7.407-4.629 28.702 4.629 26.85-1.852 14.814-3.703 27.776-2.778 35.183 2.778 24.998 25.924 50.922 62.958 52.774 43.515-1.852 60.181-27.776 62.958-52.774 0.926-7.407-0.926-20.369-2.778-35.183 9.259 1.852 5.555-20.369 4.629-26.85 0-7.407-2.778-18.517-11.11-16.665-3.703-30.553-16.665-39.812-16.665-39.812v-31.479c0 0 8.333-4.629 41.664-18.517s23.146-3.703 49.996-16.665c44.441-21.295 44.441-79.624 44.441-79.624v0zM500.89 388.745c37.034-15.74 24.998-3.703 55.552-18.517 47.219-23.146 47.219-88.882 47.219-88.882v0 0c0-10.184-8.333-17.591-17.591-17.591h-343.494c-10.184 0-17.591 8.333-17.591 17.591v0 0c0 0 0 64.81 47.219 88.882 29.627 14.814 18.517 2.778 55.552 18.517 37.034 14.814 45.367 20.369 45.367 20.369v35.183c0 0-13.888 10.184-18.517 43.515-8.333-2.778-11.11 10.184-12.036 18.517 0 7.407-4.629 32.405 5.555 29.627-1.852 16.665-3.703 30.553-2.778 38.886 2.778 26.85 28.702 55.552 69.439 57.403 47.219-1.852 65.736-30.553 68.514-57.403 0.926-7.407-0.926-22.221-2.778-38.886 10.184 1.852 5.555-22.221 5.555-29.627-0.926-8.333-3.703-20.369-12.036-18.517-4.629-33.331-18.517-43.515-18.517-43.515v-35.183c0 0 9.259-4.629 45.367-20.369z" />
<glyph unicode="&#xe912;" glyph-name="no-photo" horiz-adv-x="968" d="M872.159 742.423h-457.374c-0.926 38.886-33.331 70.365-73.143 70.365h-107.4c-39.812 0-72.217-31.479-73.143-70.365h-64.81c-40.738 0-73.143-32.405-73.143-73.143v-449.967c0-40.738 32.405-73.143 73.143-73.143h776.796c40.738 0 73.143 32.405 73.143 73.143v449.967c-0.926 39.812-33.331 73.143-74.069 73.143zM233.316 774.828h107.4c18.517 0 33.331-14.814 34.257-32.405h-175.913c0.926 17.591 16.665 32.405 34.257 32.405zM907.342 219.313c0-19.443-15.74-35.183-35.183-35.183h-775.87c-19.443 0-35.183 15.74-35.183 35.183v449.967c0 19.443 15.74 35.183 35.183 35.183h776.796c19.443 0 35.183-15.74 35.183-35.183v-449.967zM484.224 227.646c-121.288 0-220.354 99.067-220.354 220.354s99.067 220.354 220.354 220.354 220.354-99.067 220.354-220.354-99.067-220.354-220.354-220.354zM484.224 631.32c-100.919 0-182.394-82.401-182.394-182.394s81.476-183.32 182.394-183.32 182.394 82.401 182.394 183.32-81.476 182.394-182.394 182.394zM562.922 362.821v0c-7.407-7.407-19.443-7.407-26.85 0l-135.175 136.101c-7.407 7.407-7.407 19.443 0 26.85v0c7.407 7.407 19.443 7.407 26.85 0l136.101-136.101c6.481-7.407 6.481-19.443-0.926-26.85zM562.922 525.772v0c7.407-7.407 7.407-19.443 0-26.85l-136.101-136.101c-7.407-7.407-19.443-7.407-26.85 0v0c-7.407 7.407-7.407 19.443 0 26.85l137.027 136.101c7.407 7.407 19.443 7.407 25.924 0z" />
<glyph unicode="&#xe913;" glyph-name="no-deal" horiz-adv-x="968" d="M484.224-18.633c-254.611 0-462.004 209.244-462.004 466.633s207.392 466.633 462.004 466.633c254.611 0 462.004-209.244 462.004-466.633s-207.392-466.633-462.004-466.633zM484.224 885.005c-238.872 0-433.302-196.282-433.302-437.005s194.43-437.005 433.302-437.005 433.302 196.282 433.302 437.005-194.43 437.005-433.302 437.005zM227.761 703.537v-224.984h224.984v224.984h-224.984zM248.13 683.168h184.246v-132.398l-38.886 36.108-4.629 5.555-6.481-2.778-30.553-14.814-41.664 49.996-6.481 8.333-7.407-7.407-48.145-41.664v99.067zM391.638 662.799c-11.11 0-20.369-9.259-20.369-20.369s9.259-20.369 20.369-20.369c11.11 0 20.369 9.259 20.369 20.369s-9.259 20.369-20.369 20.369zM500.89 642.43c-5.555-0.926-9.259-6.481-8.333-12.036s6.481-9.259 12.036-8.333h224.984c5.555 0 10.184 4.629 10.184 10.184s-4.629 10.184-10.184 10.184c0 0 0 0 0 0h-225.91c0 0-0.926 0-0.926 0s-0.926 0-0.926 0c0 0 0 0-0.926 0zM301.83 602.618l39.812-48.145 5.555-6.481 7.407 3.703 30.553 15.74 47.219-44.441v-24.072h-184.246v58.329l53.7 45.367zM500.89 571.139c-5.555-0.926-9.259-6.481-8.333-12.036s6.481-9.259 12.036-8.333v0h184.246c5.555 0 10.184 4.629 10.184 10.184s-4.629 10.184-10.184 10.184c0 0 0 0 0 0h-185.172c0 0-0.926 0-0.926 0s-0.926 0-0.926 0c0 0 0 0-0.926 0zM227.761 417.447v-224.984h224.984v224.984h-224.984zM248.13 397.078h184.246v-184.246h-184.246v184.246zM358.307 365.599c-0.926 0-2.778 0-3.703 0-5.555-0.926-10.184-2.778-13.888-4.629s-3.703-2.778-6.481-4.629c-3.703 1.852-7.407 3.703-13.888 4.629-7.407 0.926-17.591 0-24.998-7.407-9.259-9.259-9.259-21.295-7.407-29.627 0.926-4.629 1.852-4.629 2.778-7.407-1.852-1.852-2.778-1.852-5.555-5.555-4.629-6.481-9.259-17.591-5.555-29.627 1.852-5.555 6.481-10.184 11.11-12.962 9.259-4.629 16.665-5.555 23.146-4.629 2.778-4.629 7.407-11.11 15.74-16.665 3.703-1.852 9.259-3.703 14.814-3.703 6.481 0 12.036 3.703 15.74 7.407s6.481 7.407 8.333 11.11c1.852 4.629 1.852 5.555 2.778 8.333 2.778 0.926 3.703 0 8.333 1.852 7.407 2.778 18.517 9.259 21.295 21.295 2.778 11.11-2.778 20.369-8.333 26.85-3.703 3.703-6.481 5.555-9.259 7.407 0 2.778 0.926 3.703 0.926 8.333 0 8.333-2.778 20.369-13.888 26.85-3.703 1.852-8.333 2.778-12.036 2.778zM500.89 345.23c-5.555-0.926-9.259-6.481-8.333-12.036s6.481-9.259 12.036-8.333h224.984c5.555 0 10.184 4.629 10.184 10.184s-4.629 10.184-10.184 10.184c0 0 0 0 0 0h-225.91c0 0-0.926 0-0.926 0s-0.926 0-0.926 0c0 0 0 0-0.926 0zM358.307 345.23c0.926 0 0.926 0 1.852-0.926 1.852-0.926 3.703-4.629 3.703-10.184s-0.926-10.184-0.926-10.184l-1.852-7.407 7.407-3.703c0 0 0 0 0 0 1.852-0.926 6.481-3.703 9.259-6.481 2.778-3.703 3.703-5.555 3.703-7.407-0.926-2.778-3.703-5.555-8.333-7.407s-9.259-1.852-9.259-1.852l-7.407-0.926-1.852-7.407c0 0-0.926-4.629-3.703-10.184-0.926-2.778-2.778-4.629-3.703-6.481-0.926-0.926-1.852-0.926-1.852-0.926-0.926 0-1.852 0-2.778 0.926-4.629 2.778-11.11 13.888-11.11 13.888l-2.778 7.407-7.407-0.926c0 0-12.036-0.926-16.665 1.852-0.926 0.926-1.852 0.926-1.852 1.852-0.926 2.778 0 7.407 2.778 11.11s6.481 7.407 6.481 7.407l6.481 5.555-3.703 7.407c0 0-1.852 3.703-2.778 8.333s-0.926 8.333 1.852 11.11c1.852 1.852 3.703 1.852 7.407 1.852 3.703-0.926 7.407-2.778 9.259-3.703 0.926-0.926 1.852-0.926 1.852-0.926l7.407-5.555 6.481 5.555c0 0 3.703 3.703 8.333 5.555 2.778 0.926 4.629 1.852 6.481 2.778-3.703 0-2.778 0-2.778 0zM349.049 329.49c-5.555-1.852-9.259-18.517-9.259-18.517s-9.259 20.369-15.74 14.814c-6.481-5.555 13.888-16.665 13.888-16.665s-22.221-2.778-19.443-10.184c2.778-7.407 20.369 7.407 20.369 7.407s-5.555-23.146 2.778-22.221c8.333 0.926-0.926 22.221-0.926 22.221s20.369-12.036 21.295-2.778c0.926 8.333-21.295 5.555-21.295 5.555s16.665 15.74 9.259 19.443c0 0.926 0 0.926-0.926 0.926zM500.89 273.939c-5.555-0.926-9.259-6.481-8.333-12.036s6.481-9.259 12.036-8.333h184.246c5.555 0 10.184 4.629 10.184 10.184s-4.629 10.184-10.184 10.184c0 0 0 0 0 0h-185.172c0 0-0.926 0-0.926 0s-0.926 0-0.926 0c0 0 0 0-0.926 0zM172.21 118.394l-23.146 18.517 647.175 648.101 24.072-18.517z" />
<glyph unicode="&#xe914;" glyph-name="search-deal" horiz-adv-x="968" d="M484.224-18.633c-254.611 0-462.004 209.244-462.004 466.633s207.392 466.633 462.004 466.633c254.611 0 462.004-209.244 462.004-466.633s-207.392-466.633-462.004-466.633zM484.224 885.005c-238.872 0-433.302-196.282-433.302-437.005s194.43-437.005 433.302-437.005 433.302 196.282 433.302 437.005-194.43 437.005-433.302 437.005zM735.132 233.201l-151.841 151.841c-1.852 1.852-3.703 3.703-6.481 4.629 31.479 39.812 49.071 89.808 49.071 141.656 0 61.107-24.072 118.51-66.662 162.025s-100.919 66.662-162.025 66.662c-61.107 0-118.51-24.072-162.025-66.662-88.882-88.882-88.882-234.242 0-323.125 43.515-43.515 100.919-66.662 162.025-66.662 51.848 0 100.919 17.591 141.656 49.071 0.926-1.852 2.778-4.629 4.629-6.481l151.841-151.841c11.11-11.11 28.702-11.11 39.812 0 11.11 10.184 11.11 27.776 0 38.886zM397.193 335.971c-51.848 0-100.919 20.369-137.953 57.403-75.92 75.92-75.92 199.986 0 275.906 37.034 37.034 86.105 57.403 137.953 57.403s100.919-20.369 137.953-57.403c37.034-37.034 57.403-86.105 57.403-137.953s-20.369-100.919-57.403-137.953c-37.034-37.034-86.105-57.403-137.953-57.403zM227.761 703.537v-224.984h224.984v224.984h-224.984zM248.13 683.168h184.246v-132.398l-38.886 36.108-4.629 5.555-6.481-2.778-30.553-14.814-41.664 49.996-6.481 8.333-7.407-7.407-48.145-41.664v99.067zM391.638 662.799c-11.11 0-20.369-9.259-20.369-20.369s9.259-20.369 20.369-20.369c11.11 0 20.369 9.259 20.369 20.369s-9.259 20.369-20.369 20.369zM500.89 642.43c-5.555-0.926-9.259-6.481-8.333-12.036s6.481-9.259 12.036-8.333h224.984c5.555 0 10.184 4.629 10.184 10.184s-4.629 10.184-10.184 10.184c0 0 0 0 0 0h-225.91c0 0-0.926 0-0.926 0s-0.926 0-0.926 0c0 0 0 0-0.926 0zM301.83 602.618l39.812-48.145 5.555-6.481 7.407 3.703 30.553 15.74 47.219-44.441v-24.072h-184.246v58.329l53.7 45.367zM500.89 571.139c-5.555-0.926-9.259-6.481-8.333-12.036s6.481-9.259 12.036-8.333v0h184.246c5.555 0 10.184 4.629 10.184 10.184s-4.629 10.184-10.184 10.184c0 0 0 0 0 0h-185.172c0 0-0.926 0-0.926 0s-0.926 0-0.926 0c0 0 0 0-0.926 0zM227.761 417.447v-224.984h224.984v224.984h-224.984zM248.13 397.078h184.246v-184.246h-184.246v184.246zM358.307 365.599c-0.926 0-2.778 0-3.703 0-5.555-0.926-10.184-2.778-13.888-4.629s-3.703-2.778-6.481-4.629c-3.703 1.852-7.407 3.703-13.888 4.629-7.407 0.926-17.591 0-24.998-7.407-9.259-9.259-9.259-21.295-7.407-29.627 0.926-4.629 1.852-4.629 2.778-7.407-1.852-1.852-2.778-1.852-5.555-5.555-4.629-6.481-9.259-17.591-5.555-29.627 1.852-5.555 6.481-10.184 11.11-12.962 9.259-4.629 16.665-5.555 23.146-4.629 2.778-4.629 7.407-11.11 15.74-16.665 3.703-1.852 9.259-3.703 14.814-3.703 6.481 0 12.036 3.703 15.74 7.407s6.481 7.407 8.333 11.11c1.852 4.629 1.852 5.555 2.778 8.333 2.778 0.926 3.703 0 8.333 1.852 7.407 2.778 18.517 9.259 21.295 21.295 2.778 11.11-2.778 20.369-8.333 26.85-3.703 3.703-6.481 5.555-9.259 7.407 0 2.778 0.926 3.703 0.926 8.333 0 8.333-2.778 20.369-13.888 26.85-3.703 1.852-8.333 2.778-12.036 2.778zM500.89 345.23c-5.555-0.926-9.259-6.481-8.333-12.036s6.481-9.259 12.036-8.333h224.984c5.555 0 10.184 4.629 10.184 10.184s-4.629 10.184-10.184 10.184c0 0 0 0 0 0h-225.91c0 0-0.926 0-0.926 0s-0.926 0-0.926 0c0 0 0 0-0.926 0zM358.307 345.23c0.926 0 0.926 0 1.852-0.926 1.852-0.926 3.703-4.629 3.703-10.184s-0.926-10.184-0.926-10.184l-1.852-7.407 7.407-3.703c0 0 0 0 0 0 1.852-0.926 6.481-3.703 9.259-6.481 2.778-3.703 3.703-5.555 3.703-7.407-0.926-2.778-3.703-5.555-8.333-7.407s-9.259-1.852-9.259-1.852l-7.407-0.926-1.852-7.407c0 0-0.926-4.629-3.703-10.184-0.926-2.778-2.778-4.629-3.703-6.481-0.926-0.926-1.852-0.926-1.852-0.926-0.926 0-1.852 0-2.778 0.926-4.629 2.778-11.11 13.888-11.11 13.888l-2.778 7.407-7.407-0.926c0 0-12.036-0.926-16.665 1.852-0.926 0.926-1.852 0.926-1.852 1.852-0.926 2.778 0 7.407 2.778 11.11s6.481 7.407 6.481 7.407l6.481 5.555-3.703 7.407c0 0-1.852 3.703-2.778 8.333s-0.926 8.333 1.852 11.11c1.852 1.852 3.703 1.852 7.407 1.852 3.703-0.926 7.407-2.778 9.259-3.703 0.926-0.926 1.852-0.926 1.852-0.926l7.407-5.555 6.481 5.555c0 0 3.703 3.703 8.333 5.555 2.778 0.926 4.629 1.852 6.481 2.778-3.703 0-2.778 0-2.778 0zM349.049 329.49c-5.555-1.852-9.259-18.517-9.259-18.517s-9.259 20.369-15.74 14.814c-6.481-5.555 13.888-16.665 13.888-16.665s-22.221-2.778-19.443-10.184c2.778-7.407 20.369 7.407 20.369 7.407s-5.555-23.146 2.778-22.221c8.333 0.926-0.926 22.221-0.926 22.221s20.369-12.036 21.295-2.778c0.926 8.333-21.295 5.555-21.295 5.555s16.665 15.74 9.259 19.443c0 0.926 0 0.926-0.926 0.926zM500.89 273.939c-5.555-0.926-9.259-6.481-8.333-12.036s6.481-9.259 12.036-8.333h184.246c5.555 0 10.184 4.629 10.184 10.184s-4.629 10.184-10.184 10.184c0 0 0 0 0 0h-185.172c0 0-0.926 0-0.926 0s-0.926 0-0.926 0c0 0 0 0-0.926 0z" />
<glyph unicode="&#xe915;" glyph-name="fb-messenger" d="M511.16 922.040c-254.956 0-461.64-196.69-461.64-439.286 0.010-137.38 66.284-260.076 170.045-340.572v-169.001l154.931 89.825c43.182-12.698 89.098-19.538 136.653-19.538 255.007 0 461.65 196.69 461.65 439.286s-206.643 439.286-461.64 439.286zM568.945 346.88l-126.024 132.352-241.183-132.352 265.021 280.627 127.191-130.017 238.52 130.028-263.526-280.637z" />
<glyph unicode="&#xe916;" glyph-name="fb-messenger-outline" horiz-adv-x="968" d="M177.886-50.937v186.358c-108.154 86.416-170.036 212.614-170.045 347.33 0 249.887 213.318 453.178 475.527 453.178s475.527-203.291 475.527-453.178c0-249.878-213.318-453.178-475.527-453.178-45.893 0-91.212 6.203-134.808 18.452l-170.674-98.961zM483.369 908.154c-246.888 0-447.753-190.839-447.753-425.404 0.009-128.272 60.030-248.415 164.675-329.609l5.379-4.175v-151.695l139.252 80.741 5.722-1.685c42.819-12.6 87.48-18.989 132.734-18.989 246.897 0 447.753 190.829 447.753 425.404-0.009 234.574-200.865 425.413-447.762 425.413zM438.958 627.502l-265.024-280.624 241.194 132.355 126.022-132.355 263.525 280.634-238.518-130.031-127.198 130.022z" />
</font>
</defs>
</svg>
