<?xml version="1.0" encoding="utf-8"?>
<!-- Generator: Adobe Illustrator 18.1.1, SVG Export Plug-In . SVG Version: 6.00 Build 0)  -->
<svg version="1.1" id="Layer_1" xmlns="http://www.w3.org/2000/svg" xmlns:xlink="http://www.w3.org/1999/xlink" x="0px" y="0px"
	 viewBox="0 0 80 72" enable-background="new 0 0 80 72" xml:space="preserve">
<rect y="-0.7" display="none" fill="#010621" width="512" height="73.3"/>
<line fill="none" stroke="#179168" stroke-width="4" stroke-miterlimit="10" x1="47" y1="-24.5" x2="-68.9" y2="91.3"/>
<line fill="none" stroke="#179168" stroke-width="4" stroke-miterlimit="10" x1="67" y1="-24.5" x2="-48.9" y2="91.3"/>
<line fill="none" stroke="#179168" stroke-width="4" stroke-miterlimit="10" x1="87" y1="-24.5" x2="-28.9" y2="91.3"/>
<line fill="none" stroke="#179168" stroke-width="4" stroke-miterlimit="10" x1="107" y1="-24.5" x2="-8.9" y2="91.3"/>
<line fill="none" stroke="#179168" stroke-width="4" stroke-miterlimit="10" x1="127" y1="-24.5" x2="11.1" y2="91.3"/>
<line fill="none" stroke="#179168" stroke-width="4" stroke-miterlimit="10" x1="147" y1="-24.5" x2="31.1" y2="91.3"/>
<line fill="none" stroke="#179168" stroke-width="4" stroke-miterlimit="10" x1="167" y1="-24.5" x2="51.1" y2="91.3"/>
<line fill="none" stroke="#179168" stroke-width="4" stroke-miterlimit="10" x1="187" y1="-24.5" x2="71.1" y2="91.3"/>
<line fill="none" stroke="#179168" stroke-width="4" stroke-miterlimit="10" x1="207" y1="-24.5" x2="91.1" y2="91.3"/>
<line fill="none" stroke="#179168" stroke-width="4" stroke-miterlimit="10" x1="227" y1="-24.5" x2="111.1" y2="91.3"/>
<line fill="none" stroke="#179168" stroke-width="4" stroke-miterlimit="10" x1="247" y1="-24.5" x2="131.1" y2="91.3"/>
<line fill="none" stroke="#179168" stroke-width="4" stroke-miterlimit="10" x1="267" y1="-24.5" x2="151.1" y2="91.3"/>
<line fill="none" stroke="#179168" stroke-width="4" stroke-miterlimit="10" x1="287" y1="-24.5" x2="171.1" y2="91.3"/>
<line fill="none" stroke="#179168" stroke-width="4" stroke-miterlimit="10" x1="307" y1="-24.5" x2="191.1" y2="91.3"/>
<line fill="none" stroke="#179168" stroke-width="4" stroke-miterlimit="10" x1="327" y1="-24.5" x2="211.1" y2="91.3"/>
<line fill="none" stroke="#179168" stroke-width="4" stroke-miterlimit="10" x1="347" y1="-24.5" x2="231.1" y2="91.3"/>
<line fill="none" stroke="#179168" stroke-width="4" stroke-miterlimit="10" x1="367" y1="-24.5" x2="251.1" y2="91.3"/>
<line fill="none" stroke="#179168" stroke-width="4" stroke-miterlimit="10" x1="387" y1="-24.5" x2="271.1" y2="91.3"/>
<line fill="none" stroke="#179168" stroke-width="4" stroke-miterlimit="10" x1="407" y1="-24.5" x2="291.1" y2="91.3"/>
<line fill="none" stroke="#179168" stroke-width="4" stroke-miterlimit="10" x1="427" y1="-24.5" x2="311.1" y2="91.3"/>
<line fill="none" stroke="#179168" stroke-width="4" stroke-miterlimit="10" x1="447" y1="-24.5" x2="331.1" y2="91.3"/>
<line fill="none" stroke="#179168" stroke-width="4" stroke-miterlimit="10" x1="467" y1="-24.5" x2="351.1" y2="91.3"/>
<line fill="none" stroke="#179168" stroke-width="4" stroke-miterlimit="10" x1="487" y1="-24.5" x2="371.1" y2="91.3"/>
<line fill="none" stroke="#179168" stroke-width="4" stroke-miterlimit="10" x1="507" y1="-24.5" x2="391.1" y2="91.3"/>
<line fill="none" stroke="#179168" stroke-width="4" stroke-miterlimit="10" x1="527" y1="-24.5" x2="411.1" y2="91.3"/>
<line fill="none" stroke="#179168" stroke-width="4" stroke-miterlimit="10" x1="547" y1="-24.5" x2="431.1" y2="91.3"/>
<line fill="none" stroke="#179168" stroke-width="4" stroke-miterlimit="10" x1="567" y1="-24.5" x2="451.1" y2="91.3"/>
<line fill="none" stroke="#179168" stroke-width="4" stroke-miterlimit="10" x1="587" y1="-24.5" x2="471.1" y2="91.3"/>
</svg>
