<?xml version="1.0" encoding="utf-8"?>
<!DOCTYPE svg PUBLIC "-//W3C//DTD SVG 1.1//EN" "http://www.w3.org/Graphics/SVG/1.1/DTD/svg11.dtd">
<svg version="1.1" id="Livello_1" xmlns="http://www.w3.org/2000/svg" xmlns:xlink="http://www.w3.org/1999/xlink" x="0px" y="0px"
	 width="100px" height="100px" viewBox="0 0 100 100" enable-background="new 0 0 100 100" xml:space="preserve">

<path fill="#393f4f" d="M29.437,47.751c1.501,0.167,3.024,0.208,4.533,0.156c1.098-0.038,2.186-0.163,3.241-0.474
	c1.017-0.299,1.317-0.816,1.755-1.71c1.259-2.574,2.705-5.065,4.17-7.525c1.586-2.665,3.521-5.124,5.079-7.793
	c1.302-2.233,1.669-5.318,3.542-7.179c1.764-1.751,4.33,0.011,5.351,1.679c1.544,2.523,0.615,5.925-0.693,8.314
	c-0.861,1.57-1.784,2.762-2.124,4.577c-0.242,1.294-0.154,2.701,0.078,3.991c0.041,0.225,0.09,0.451,0.151,0.671
	c-0.396-0.225-0.794-0.451-1.189-0.676c4.036-0.628,8.286-0.901,12.328-0.225c2.465,0.412,4.936,1.558,5.69,4.142
	c0.577,1.977-0.756,4.205-2.213,5.455v-1.368c0.956,0.82,1.659,1.958,2.051,3.145c0.834,2.53-0.84,4.687-2.747,6.127
	c0.116-0.441,0.232-0.882,0.347-1.324c1.763,2.545,1.773,5.896-1.097,7.575c0.116-0.439,0.231-0.88,0.347-1.322
	c0.625,1.302,0.512,2.767-0.123,4.04c-1.082,2.168-3.795,2.97-5.984,3.373c-3.664,0.675-7.518,0.717-11.234,0.544
	c-1.24-0.058-1.246-1.991,0-1.933c2.924,0.136,5.875,0.074,8.785-0.211c1.83-0.181,3.763-0.461,5.379-1.385
	c0.937-0.535,1.64-1.416,1.673-2.513c0.008-0.267-0.045-0.515-0.114-0.77c-0.029-0.108-0.187-0.454-0.05-0.17
	c-0.229-0.475-0.135-1.041,0.347-1.322c1.971-1.155,1.533-3.299,0.403-4.931c-0.326-0.47-0.047-1.025,0.347-1.322
	c1.459-1.102,2.495-2.617,1.674-4.433c-0.309-0.682-0.802-1.313-1.369-1.802c-0.379-0.325-0.379-1.042,0-1.368
	c1.382-1.185,2.431-3.104,1.101-4.722c-1.234-1.503-3.747-1.714-5.534-1.857c-3.124-0.251-6.435-0.036-9.491,0.44
	c-0.521,0.081-1.037-0.124-1.189-0.675c-0.508-1.84-0.512-3.817-0.229-5.69c0.521-3.456,3.517-5.738,3.52-9.365
	c0.001-1.393-0.665-2.825-2.006-3.377c-0.975-0.402-1.433,0.876-1.755,1.566c-0.592,1.27-1.029,2.61-1.601,3.89
	c-0.654,1.467-1.585,2.708-2.496,4.017c-1.763,2.534-3.34,5.204-4.868,7.884c-0.682,1.195-1.342,2.401-1.981,3.619
	c-0.453,0.862-0.797,1.837-1.417,2.593c-1.267,1.544-4.044,1.651-5.852,1.734c-1.505,0.069-3.035,0.012-4.533-0.155
	C28.212,49.548,28.198,47.613,29.437,47.751"/>

<path fill="none" stroke="#393f4f" stroke-width="1.1" stroke-miterlimit="10" d="M29.437,47.751
	c1.501,0.167,3.024,0.208,4.533,0.156c1.098-0.038,2.186-0.163,3.241-0.474c1.017-0.299,1.317-0.816,1.755-1.71
	c1.259-2.574,2.705-5.065,4.17-7.525c1.586-2.665,3.521-5.124,5.079-7.793c1.302-2.233,1.669-5.318,3.542-7.179
	c1.764-1.751,4.33,0.011,5.351,1.679c1.544,2.523,0.615,5.925-0.693,8.314c-0.861,1.57-1.784,2.762-2.124,4.577
	c-0.242,1.294-0.154,2.701,0.078,3.991c0.041,0.225,0.09,0.451,0.151,0.671c-0.396-0.225-0.794-0.451-1.189-0.676
	c4.036-0.628,8.286-0.901,12.328-0.225c2.465,0.412,4.936,1.558,5.69,4.142c0.577,1.977-0.756,4.205-2.213,5.455v-1.368
	c0.956,0.82,1.659,1.958,2.051,3.145c0.834,2.53-0.84,4.687-2.747,6.127c0.116-0.441,0.232-0.882,0.347-1.324
	c1.763,2.545,1.773,5.896-1.097,7.575c0.116-0.439,0.231-0.88,0.347-1.322c0.625,1.302,0.512,2.767-0.123,4.04
	c-1.082,2.168-3.795,2.97-5.984,3.373c-3.664,0.675-7.518,0.717-11.234,0.544c-1.24-0.058-1.246-1.991,0-1.933
	c2.924,0.136,5.875,0.074,8.785-0.211c1.83-0.181,3.763-0.461,5.379-1.385c0.937-0.535,1.64-1.416,1.673-2.513
	c0.008-0.267-0.045-0.515-0.114-0.77c-0.029-0.108-0.187-0.454-0.05-0.17c-0.229-0.475-0.135-1.041,0.347-1.322
	c1.971-1.155,1.533-3.299,0.403-4.931c-0.326-0.47-0.047-1.025,0.347-1.322c1.459-1.102,2.495-2.617,1.674-4.433
	c-0.309-0.682-0.802-1.313-1.369-1.802c-0.379-0.325-0.379-1.042,0-1.368c1.382-1.185,2.431-3.104,1.101-4.722
	c-1.234-1.503-3.747-1.714-5.534-1.857c-3.124-0.251-6.435-0.036-9.491,0.44c-0.521,0.081-1.037-0.124-1.189-0.675
	c-0.508-1.84-0.512-3.817-0.229-5.69c0.521-3.456,3.517-5.738,3.52-9.365c0.001-1.393-0.665-2.825-2.006-3.377
	c-0.975-0.402-1.433,0.876-1.755,1.566c-0.592,1.27-1.029,2.61-1.601,3.89c-0.654,1.467-1.585,2.708-2.496,4.017
	c-1.763,2.534-3.34,5.204-4.868,7.884c-0.682,1.195-1.342,2.401-1.981,3.619c-0.453,0.862-0.797,1.837-1.417,2.593
	c-1.267,1.544-4.044,1.651-5.852,1.734c-1.505,0.069-3.035,0.012-4.533-0.155C28.212,49.548,28.198,47.613,29.437,47.751z"/>

	<path fill="#393f4f" d="M49.999,3.5C75.64,3.5,96.5,24.36,96.5,50S75.64,96.5,49.999,96.5C24.359,96.5,3.5,75.64,3.5,50
		S24.359,3.5,49.999,3.5 M49.999,0C22.385,0,0,22.385,0,50s22.385,50,49.999,50C77.614,100,100,77.615,100,50S77.614,0,49.999,0
		L49.999,0z"/>
</svg>
