<?xml version="1.0" encoding="utf-8"?>
<!-- Generator: Adobe Illustrator 16.0.3, SVG Export Plug-In . SVG Version: 6.00 Build 0)  -->
<!DOCTYPE svg PUBLIC "-//W3C//DTD SVG 1.1//EN" "http://www.w3.org/Graphics/SVG/1.1/DTD/svg11.dtd">
<svg version="1.1" id="Layer_1" xmlns="http://www.w3.org/2000/svg" xmlns:xlink="http://www.w3.org/1999/xlink" x="0px" y="0px"
	 width="254.348px" height="28px" viewBox="-98.325 -126.404 254.348 28" enable-background="new -98.325 -126.404 254.348 28"
	 xml:space="preserve">
<rect x="-98.325" y="-126.404" fill="#FFFFFF" width="254.348" height="28"/>
<g>
	<path fill="#333333" d="M-93.789-121.533c-0.168-0.144-0.096-0.432,0.072-0.576c1.031-0.168,2.447-0.288,4.031-0.288
		c2.376,0,3.89,0.456,4.752,1.176c0.96,0.816,1.32,1.824,1.32,2.976c0,1.608-0.888,2.856-2.041,3.672
		c-1.224,0.84-3.072,1.224-4.44,1.224c-0.191-0.072-0.216-0.336-0.071-0.504c1.775-0.216,4.537-1.512,4.537-4.776
		c0-2.088-1.345-3.024-3.24-3.024c-0.769,0-0.816,0.096-1.056,0.84l-3.385,10.873c-0.695,2.232-0.768,2.76,0.456,2.856l0.864,0.072
		c0.144,0.168,0.072,0.504-0.096,0.6c-1.152-0.048-1.992-0.072-3.146-0.072c-0.983,0-1.8,0.024-2.76,0.072
		c-0.192-0.12-0.192-0.456-0.024-0.6l0.744-0.072c1.152-0.12,1.393-0.408,2.16-2.856l3.096-9.937c0.36-1.152,0.265-1.488-0.624-1.56
		L-93.789-121.533z"/>
	<path fill="#333333" d="M-80.926-114.285c0.119-0.264,0.119-0.456-0.049-0.456s-0.792,0.288-1.991,1.272
		c-0.217-0.024-0.36-0.216-0.313-0.408c1.32-1.512,3.168-2.4,3.96-2.4c0.168,0,0.288,0.144,0.384,0.24
		c0.145,0.144,0.145,0.36-0.144,1.056l-2.856,6.816c-0.096,0.24-0.12,0.528,0.072,0.528c0.408,0,1.68-0.84,2.496-1.776
		c0.24,0.024,0.36,0.192,0.36,0.408c-0.36,0.696-2.832,2.856-4.488,2.856c-0.12,0-0.264-0.072-0.384-0.216
		c-0.145-0.168-0.216-0.384-0.097-0.648L-80.926-114.285z M-78.069-120.309c0,0.744-0.528,1.488-1.249,1.488
		c-0.624,0-0.84-0.48-0.84-0.888c0-0.528,0.336-1.512,1.271-1.512C-78.333-121.221-78.069-120.837-78.069-120.309z"/>
	<path fill="#333333" d="M-69.525-114.861c0,0.96-0.936,1.128-1.176,1.128s-0.432-0.144-0.48-0.432c-0.071-0.6-0.048-1.32-0.84-1.32
		c-0.527,0-1.271,0.504-2.017,1.608c-0.792,1.176-1.536,3.12-1.608,4.968c-0.048,1.2,0.456,1.56,1.032,1.56
		c0.792,0,1.68-0.624,2.592-1.464c0.24-0.024,0.384,0.168,0.313,0.408c-0.938,1.224-2.448,2.256-3.96,2.256
		c-0.937,0-1.801-0.696-1.801-2.544c0-1.561,0.937-4.296,3.049-6.193c1.008-0.912,2.04-1.392,3.119-1.392
		C-70.101-116.277-69.525-115.604-69.525-114.861z"/>
	<path fill="#333333" d="M-65.085-120.021c0.552-1.68,0.576-1.992,0.168-2.184l-0.433-0.216c-0.144-0.096-0.168-0.24-0.048-0.36
		c0.721-0.336,1.896-0.672,2.929-0.864l0.144,0.12c-0.192,0.672-0.456,1.488-1.176,3.528l-2.473,7.104h0.049
		c0.695-0.936,1.487-1.752,2.447-2.472c0.672-0.48,1.561-0.912,2.593-0.912c1.392,0,1.728,0.816,1.728,1.32
		c0,0.288-0.096,0.936-0.984,1.752c-1.128,1.032-2.304,1.848-3.84,2.112c-0.168,0.096-0.12,0.312-0.072,0.456
		c0.192,0.696,0.624,1.752,0.889,2.256c0.288,0.528,0.527,0.792,0.768,0.792c0.313,0,0.769-0.312,1.44-1.128
		c0.216,0,0.312,0.096,0.312,0.288c-0.84,1.8-2.041,2.28-2.424,2.28c-0.432,0-0.72-0.288-1.104-0.96
		c-0.288-0.528-0.889-1.92-1.104-2.568c-0.191-0.624-0.456-0.888-0.888-0.792c-0.48,0.12-0.601,0.24-0.889,0.96l-1.247,3.048
		c-0.097,0.216-0.192,0.312-0.408,0.312c-0.265,0-0.96-0.072-0.769-0.624L-65.085-120.021z M-61.773-115.245
		c-0.624,0-1.512,0.528-2.328,1.224c-0.888,0.744-1.896,1.92-2.208,2.616c-0.096,0.24-0.071,0.408,0.24,0.36
		c0.504-0.048,1.848-0.456,3.528-1.56c1.008-0.672,1.536-1.512,1.536-2.016C-61.005-114.909-61.221-115.245-61.773-115.245z"/>
	<path fill="#333333" d="M-48.453-112.196c0.023,1.536-0.024,3.288-0.36,5.28h0.097c0.792-1.176,1.487-2.664,2.016-4.128
		c0.504-1.392,0.864-3.816,0.888-4.44c0.048-0.696,0.408-0.744,0.576-0.744s0.48,0.096,0.672,0.216
		c0.145,0.096,0.216,0.216,0.216,0.48c0.024,0.6-0.624,3.696-2.783,7.321c-1.177,1.992-2.041,3.576-3.96,5.76
		c-1.776,2.041-2.977,2.424-3.745,2.424s-1.248-0.504-1.248-1.104c0-0.6,0.432-1.032,0.96-1.032c0.239,0,0.479,0.144,0.647,0.384
		c0.072,0.12,0.288,0.432,0.672,0.432c0.313,0,0.744-0.192,1.32-0.672c0.6-0.504,1.656-2.016,2.112-3.6
		c0.336-1.224,0.504-3.433,0.479-5.473c-0.048-2.664-0.456-3.6-0.912-3.6c-0.479,0-0.888,0.816-1.392,1.824
		c-0.264,0.072-0.408-0.096-0.456-0.312c0.504-1.608,1.561-3.096,2.736-3.096C-48.694-116.277-48.501-113.876-48.453-112.196z"/>
	<path fill="#333333" d="M-35.541-113.252c-0.072,1.32-0.769,3.625-2.544,5.448c-1.488,1.536-2.784,1.656-3.433,1.656
		c-1.536,0-2.544-1.128-2.399-3.192c0.096-1.488,0.983-3.816,2.616-5.376c1.249-1.2,2.328-1.56,3.313-1.56
		C-36.285-116.277-35.445-115.004-35.541-113.252z M-39.909-114.405c-1.392,1.873-2.328,4.729-2.4,6.001
		c-0.048,0.84,0.288,1.536,0.984,1.536c0.528,0,1.128-0.216,1.896-1.249c1.057-1.416,2.185-4.584,2.232-5.856
		c0.024-0.744-0.12-1.584-0.96-1.584C-38.637-115.557-39.213-115.341-39.909-114.405z"/>
	<path fill="#333333" d="M-31.726-108.548c-0.216,0.576-0.096,0.816,0.168,0.816c0.36,0,1.32-0.768,2.568-1.992
		c2.184-2.16,3.432-4.944,4.225-6.409c0.504-0.096,1.08,0.144,1.177,0.432c-0.24,0.648-1.801,4.584-2.809,7.44
		c-0.12,0.312-0.144,0.6,0.097,0.6c0.455,0,1.728-1.128,2.352-1.872c0.216-0.048,0.408,0.048,0.432,0.336
		c-0.624,1.152-2.928,3.048-4.2,3.048c-0.385,0-0.744-0.456-0.601-0.84l1.632-4.393l-0.048-0.024c-1.728,2.184-4.705,5.256-6,5.256
		c-0.983,0-1.104-0.984-0.696-2.04l2.208-5.833c0.168-0.456,0.192-0.696,0-0.696c-0.456,0-1.704,1.056-2.279,1.656
		c-0.24,0.048-0.433-0.144-0.408-0.36c0.624-0.96,3.023-2.856,4.152-2.856c0.312,0,0.863,0.312,0.72,0.72L-31.726-108.548z"/>
	<path fill="#333333" d="M-18.31-113.997l-1.031,3.024h0.119c0.721-1.344,1.896-3.264,2.521-4.057
		c0.552-0.72,1.152-1.248,1.752-1.248c0.84,0,0.96,0.816,0.96,1.176s-0.216,1.056-0.504,1.44c-0.288,0.36-0.672,0.384-0.769-0.12
		c-0.119-0.624-0.264-0.936-0.504-0.936c-0.216,0-0.479,0.24-0.84,0.72c-1.464,1.872-2.808,4.8-4.08,7.561
		c-0.096,0.192-0.216,0.288-0.407,0.288c-0.265,0-0.961-0.096-0.792-0.624c0.312-0.96,1.823-5.208,2.472-7.561
		c0.072-0.264,0.023-0.504-0.192-0.504c-0.624,0-1.271,0.672-1.704,1.248c-0.239,0.048-0.407-0.096-0.384-0.384
		c0.769-1.296,1.68-2.304,2.833-2.304C-17.662-116.277-18.094-114.645-18.31-113.997z"/>
	<path fill="#333333" d="M1.586-113.156l-0.912,2.208l0.072,0.048c2.304-3.672,4.128-5.376,5.712-5.376
		c0.912,0,1.344,0.504,1.344,1.296c0,0.384-0.168,1.128-0.384,1.68c-0.433,1.2-2.16,5.112-2.232,5.304
		c-0.096,0.24-0.12,0.456,0.048,0.456c0.408,0,1.561-0.792,2.257-1.632c0.336-0.048,0.384,0.144,0.384,0.336
		c-0.912,1.536-2.809,2.688-4.128,2.688c-0.217,0-0.576-0.312-0.576-0.6c0-0.216,0.072-0.384,0.576-1.584
		c0.504-1.176,1.464-3.504,1.943-4.729c0.168-0.432,0.504-1.272,0.504-1.752c0-0.288-0.023-0.576-0.384-0.576
		c-0.696,0-1.848,1.224-3.145,2.88c-1.225,1.536-2.305,3.432-3.769,6.072c-0.12,0.192-0.216,0.288-0.432,0.288
		c-0.264,0-0.912-0.072-0.696-0.624l2.376-6.289c0.097-0.264,1.057-2.328,0.192-2.328c-0.672,0-2.017,1.248-3.336,2.88
		c-1.248,1.56-2.208,3.432-3.601,6.072c-0.12,0.216-0.216,0.288-0.432,0.288c-0.264,0-0.912-0.072-0.696-0.624
		c0.072-0.192,2.641-7.201,2.736-7.561c0.12-0.408,0.096-0.672-0.168-0.672c-0.792,0-1.632,0.72-2.112,1.32
		c-0.24,0-0.359-0.168-0.336-0.36c0.601-1.152,1.873-2.232,3.697-2.232c0.552,0,0.792,0.432,0.576,0.984l-1.656,4.344l0.072,0.048
		c1.728-2.832,3.983-5.376,5.809-5.376C2.618-116.277,2.091-114.38,1.586-113.156z"/>
	<path fill="#333333" d="M17.786-113.252c-0.072,1.32-0.769,3.625-2.544,5.448c-1.488,1.536-2.784,1.656-3.433,1.656
		c-1.536,0-2.544-1.128-2.399-3.192c0.096-1.488,0.983-3.816,2.615-5.376c1.248-1.2,2.329-1.56,3.313-1.56
		C17.042-116.277,17.882-115.004,17.786-113.252z M13.417-114.405c-1.393,1.873-2.328,4.729-2.4,6.001
		c-0.048,0.84,0.288,1.536,0.984,1.536c0.527,0,1.128-0.216,1.896-1.249c1.057-1.416,2.185-4.584,2.232-5.856
		c0.023-0.744-0.12-1.584-0.96-1.584C14.69-115.557,14.114-115.341,13.417-114.405z"/>
	<path fill="#333333" d="M24.866-114.909c0,0.384-0.24,0.648-0.433,0.744c-0.168,0.048-0.312,0-0.456-0.192
		c-0.408-0.408-0.72-0.768-1.464-0.768c-0.696,0-0.984,0.6-0.984,0.96c0,0.504,0.12,1.008,0.816,2.184
		c0.6,1.008,0.96,1.608,0.912,2.665c-0.024,0.648-0.36,1.536-1.248,2.304c-0.624,0.552-1.512,0.864-2.424,0.864
		s-1.464-0.72-1.464-1.272c0-0.24,0.096-0.504,0.359-0.792c0.192-0.168,0.456-0.168,0.648,0c0.312,0.36,1.032,0.96,1.656,0.96
		c0.575,0,1.151-0.6,1.151-1.368c0-0.408-0.288-1.152-0.888-2.112c-0.624-1.008-0.84-1.824-0.84-2.232
		c0-0.936,0.408-1.632,1.439-2.521c0.696-0.6,1.464-0.792,1.776-0.792C24.314-116.277,24.866-115.509,24.866-114.909z"/>
	<path fill="#333333" d="M29.857-115.004l-2.231,6.528c-0.145,0.456-0.024,0.6,0.168,0.6c0.359,0,1.943-1.248,2.735-2.16
		c0.24,0,0.385,0.144,0.337,0.432c-1.345,1.992-3.602,3.456-4.608,3.456c-0.336,0-0.648-0.36-0.648-0.648
		c0-0.312,0.097-0.648,0.336-1.368l2.328-6.84h-1.872c-0.048-0.24,0.024-0.576,0.265-0.672l1.92-0.336l1.344-2.376
		c0.24-0.144,0.72-0.096,0.912,0.144l-0.696,2.353h2.616c0.168,0.24,0.024,0.72-0.288,0.888L29.857-115.004L29.857-115.004z"/>
	<path fill="#333333" d="M43.969-114.909c0,0.384-0.24,0.648-0.432,0.744c-0.168,0.048-0.313,0-0.456-0.192
		c-0.408-0.408-0.721-0.768-1.464-0.768c-0.696,0-0.984,0.6-0.984,0.96c0,0.504,0.12,1.008,0.816,2.184
		c0.6,1.008,0.96,1.608,0.911,2.665c-0.023,0.648-0.359,1.536-1.248,2.304c-0.624,0.552-1.512,0.864-2.424,0.864
		s-1.464-0.72-1.464-1.272c0-0.24,0.096-0.504,0.36-0.792c0.191-0.168,0.456-0.168,0.647,0c0.313,0.36,1.032,0.96,1.656,0.96
		c0.576,0,1.152-0.6,1.152-1.368c0-0.408-0.288-1.152-0.889-2.112c-0.624-1.008-0.84-1.824-0.84-2.232
		c0-0.936,0.408-1.632,1.44-2.521c0.696-0.6,1.464-0.792,1.775-0.792C43.417-116.277,43.969-115.509,43.969-114.909z"/>
	<path fill="#333333" d="M48.961-115.004l-2.232,6.528c-0.144,0.456-0.023,0.6,0.168,0.6c0.36,0,1.944-1.248,2.736-2.16
		c0.24,0,0.384,0.144,0.336,0.432c-1.344,1.992-3.601,3.456-4.608,3.456c-0.336,0-0.647-0.36-0.647-0.648
		c0-0.312,0.096-0.648,0.336-1.368l2.328-6.84h-1.872c-0.048-0.24,0.023-0.576,0.264-0.672l1.92-0.336l1.345-2.376
		c0.239-0.144,0.72-0.096,0.911,0.144l-0.695,2.353h2.616c0.168,0.24,0.023,0.72-0.288,0.888L48.961-115.004L48.961-115.004z"/>
	<path fill="#333333" d="M55.465-112.196c0.023,1.536-0.024,3.288-0.36,5.28H55.2c0.792-1.176,1.487-2.664,2.016-4.128
		c0.504-1.392,0.864-3.816,0.888-4.44c0.048-0.696,0.408-0.744,0.576-0.744s0.48,0.096,0.672,0.216
		c0.145,0.096,0.216,0.216,0.216,0.48c0.024,0.6-0.624,3.696-2.783,7.321c-1.177,1.992-2.041,3.576-3.96,5.76
		c-1.776,2.041-2.977,2.424-3.745,2.424s-1.248-0.504-1.248-1.104c0-0.6,0.432-1.032,0.96-1.032c0.239,0,0.479,0.144,0.647,0.384
		c0.072,0.12,0.288,0.432,0.672,0.432c0.313,0,0.744-0.192,1.32-0.672c0.6-0.504,1.656-2.016,2.112-3.6
		c0.336-1.224,0.504-3.433,0.479-5.473c-0.048-2.664-0.456-3.6-0.912-3.6c-0.479,0-0.888,0.816-1.392,1.824
		c-0.264,0.072-0.408-0.096-0.456-0.312c0.504-1.608,1.561-3.096,2.736-3.096C55.224-116.277,55.417-113.876,55.465-112.196z"/>
	<path fill="#333333" d="M61.969-108.044c-0.192,0.552-0.168,0.792,0.096,0.792c0.528,0,1.656-1.176,2.761-2.424
		c0.239-0.024,0.384,0.096,0.384,0.336c-0.624,1.2-2.136,3.192-4.128,3.192c-0.721,0-0.937-0.336-0.937-0.72
		c0-0.384,0.12-0.816,0.528-2.041l3.815-11.353c0.576-1.68,0.337-1.92-0.023-2.088l-0.432-0.192c-0.12-0.096-0.12-0.312,0-0.384
		c0.432-0.168,1.92-0.624,3.023-0.72l0.12,0.144c-0.312,0.864-0.552,1.536-1.416,4.128L61.969-108.044z"/>
	<path fill="#333333" d="M69.217-114.285c0.12-0.264,0.12-0.456-0.048-0.456s-0.792,0.288-1.992,1.272
		c-0.216-0.024-0.36-0.216-0.312-0.408c1.319-1.512,3.168-2.4,3.96-2.4c0.168,0,0.287,0.144,0.384,0.24
		c0.144,0.144,0.144,0.36-0.145,1.056l-2.855,6.816c-0.097,0.24-0.12,0.528,0.072,0.528c0.407,0,1.68-0.84,2.495-1.776
		c0.24,0.024,0.36,0.192,0.36,0.408c-0.36,0.696-2.832,2.856-4.488,2.856c-0.12,0-0.264-0.072-0.384-0.216
		c-0.144-0.168-0.216-0.384-0.096-0.648L69.217-114.285z M72.073-120.309c0,0.744-0.528,1.488-1.249,1.488
		c-0.624,0-0.841-0.48-0.841-0.888c0-0.528,0.336-1.512,1.272-1.512C71.809-121.221,72.073-120.837,72.073-120.309z"/>
	<path fill="#333333" d="M78.433-114.909c0,0.384-0.24,0.648-0.432,0.744c-0.168,0.048-0.313,0-0.456-0.192
		c-0.408-0.408-0.72-0.768-1.464-0.768c-0.696,0-0.984,0.6-0.984,0.96c0,0.504,0.12,1.008,0.816,2.184
		c0.6,1.008,0.96,1.608,0.912,2.665c-0.024,0.648-0.36,1.536-1.248,2.304c-0.624,0.552-1.513,0.864-2.425,0.864
		c-0.911,0-1.464-0.72-1.464-1.272c0-0.24,0.097-0.504,0.36-0.792c0.192-0.168,0.456-0.168,0.647,0
		c0.313,0.36,1.032,0.96,1.656,0.96c0.576,0,1.152-0.6,1.152-1.368c0-0.408-0.288-1.152-0.888-2.112
		c-0.624-1.008-0.841-1.824-0.841-2.232c0-0.936,0.408-1.632,1.44-2.521c0.696-0.6,1.464-0.792,1.776-0.792
		C77.881-116.277,78.433-115.509,78.433-114.909z"/>
	<path fill="#333333" d="M85.969-123.501c-0.48,1.344-1.248,3.528-1.729,4.896l-2.473,7.177l0.048,0.048
		c1.681-2.376,2.929-3.336,3.792-3.96c0.864-0.624,1.633-0.936,2.28-0.936c1.056,0,1.44,0.768,1.44,1.608
		c0,1.656-1.009,4.08-1.873,5.616c-0.456,0.816-0.937,1.344-1.561,1.968c-0.792,0.792-1.439,0.936-1.752,0.936
		c-0.792,0-0.888-0.504-0.888-0.696c0-0.408,0.336-0.768,0.647-0.768c0.097,0,0.217,0.048,0.336,0.144
		c0.192,0.144,0.456,0.312,0.624,0.312c0.36,0,0.601-0.36,0.961-1.2c0.647-1.56,1.728-4.873,1.728-6.192
		c0-0.456-0.168-0.72-0.504-0.72s-0.84,0.288-1.296,0.648c-1.008,0.768-1.8,1.56-3.048,3.192c-1.08,1.44-2.28,3.768-2.904,4.992
		c-0.096,0.192-0.216,0.288-0.432,0.288c-0.265,0-0.889-0.072-0.696-0.624l4.561-13.489c0.528-1.584,0.648-1.92,0.265-2.184
		l-0.504-0.336c-0.049-0.12-0.049-0.216,0.071-0.312c0.385-0.168,1.969-0.504,2.809-0.552L85.969-123.501z"/>
	<path fill="#333333" d="M101.544-115.893c0.191,0,0.456-0.048,0.912-0.048c1.104,0,3.264,0.456,3.264,2.736
		c0,2.208-1.344,4.152-3.168,5.688c-1.512,1.272-3.336,1.368-3.432,1.368c-0.217,0-0.408-0.048-0.744-0.144
		c-0.192,0.048-0.313,0.192-0.384,0.432l-0.984,2.832c-0.648,1.849-0.6,2.064,0.192,2.185l0.983,0.144
		c0.12,0.168,0.12,0.432-0.096,0.528c-1.824,0-3.624,0.096-5.232,0.144c-0.168-0.144-0.168-0.384,0-0.528l0.528-0.096
		c1.344-0.24,1.44-0.792,1.8-1.776l4.464-12.529c-0.863,0.24-1.416,0.48-2.424,0.984c-0.191-0.024-0.312-0.24-0.24-0.456
		c0.841-0.6,1.801-1.008,2.977-1.32l0.72-1.944c0.313-0.264,1.272-0.024,1.368,0.336L101.544-115.893z M98.856-108.164
		c-0.096,0.264-0.071,0.504,0.024,0.648c0.144,0.24,0.504,0.552,0.888,0.552c0.313,0,1.656-0.336,2.688-1.944
		c1.151-1.776,1.416-3.456,1.416-4.512c0-1.2-0.864-1.8-1.896-1.8c-0.264,0-0.456,0.024-0.624,0.048L98.856-108.164z"/>
	<path fill="#333333" d="M114.12-123.501c-0.48,1.344-1.248,3.528-1.729,4.896l-2.472,7.177l0.048,0.048
		c1.68-2.376,2.928-3.336,3.792-3.96s1.632-0.936,2.28-0.936c1.056,0,1.439,0.768,1.439,1.608c0,1.656-1.008,4.08-1.873,5.616
		c-0.456,0.816-0.936,1.344-1.56,1.968c-0.792,0.792-1.44,0.936-1.752,0.936c-0.792,0-0.888-0.504-0.888-0.696
		c0-0.408,0.336-0.768,0.647-0.768c0.096,0,0.216,0.048,0.336,0.144c0.192,0.144,0.456,0.312,0.624,0.312c0.36,0,0.6-0.36,0.96-1.2
		c0.648-1.56,1.729-4.873,1.729-6.192c0-0.456-0.168-0.72-0.504-0.72c-0.337,0-0.841,0.288-1.297,0.648
		c-1.008,0.768-1.8,1.56-3.048,3.192c-1.08,1.44-2.279,3.768-2.903,4.992c-0.097,0.192-0.217,0.288-0.433,0.288
		c-0.264,0-0.888-0.072-0.696-0.624l4.562-13.489c0.528-1.584,0.648-1.92,0.264-2.184l-0.504-0.336
		c-0.048-0.12-0.048-0.216,0.072-0.312c0.384-0.168,1.968-0.504,2.808-0.552L114.12-123.501z"/>
	<path fill="#333333" d="M126.936-113.252c-0.072,1.32-0.768,3.625-2.544,5.448c-1.488,1.536-2.784,1.656-3.432,1.656
		c-1.536,0-2.544-1.128-2.4-3.192c0.096-1.488,0.984-3.816,2.616-5.376c1.248-1.2,2.329-1.56,3.313-1.56
		C126.192-116.277,127.032-115.004,126.936-113.252z M122.568-114.405c-1.392,1.873-2.327,4.729-2.399,6.001
		c-0.048,0.84,0.288,1.536,0.983,1.536c0.528,0,1.128-0.216,1.896-1.249c1.056-1.416,2.184-4.584,2.231-5.856
		c0.024-0.744-0.119-1.584-0.96-1.584C123.84-115.557,123.264-115.341,122.568-114.405z"/>
	<path fill="#333333" d="M132.719-115.004l-2.232,6.528c-0.144,0.456-0.022,0.6,0.168,0.6c0.36,0,1.944-1.248,2.736-2.16
		c0.24,0,0.384,0.144,0.336,0.432c-1.344,1.992-3.6,3.456-4.607,3.456c-0.336,0-0.647-0.36-0.647-0.648
		c0-0.312,0.096-0.648,0.336-1.368l2.328-6.84h-1.872c-0.048-0.24,0.023-0.576,0.264-0.672l1.921-0.336l1.345-2.376
		c0.24-0.144,0.72-0.096,0.912,0.144l-0.696,2.353h2.616c0.168,0.24,0.023,0.72-0.288,0.888L132.719-115.004L132.719-115.004z"/>
	<path fill="#333333" d="M143.496-113.252c-0.072,1.32-0.77,3.625-2.544,5.448c-1.488,1.536-2.784,1.656-3.434,1.656
		c-1.536,0-2.544-1.128-2.399-3.192c0.096-1.488,0.983-3.816,2.615-5.376c1.248-1.2,2.328-1.56,3.313-1.56
		C142.752-116.277,143.592-115.004,143.496-113.252z M139.128-114.405c-1.394,1.873-2.328,4.729-2.4,6.001
		c-0.048,0.84,0.288,1.536,0.984,1.536c0.526,0,1.128-0.216,1.896-1.249c1.058-1.416,2.186-4.584,2.232-5.856
		c0.023-0.744-0.12-1.584-0.96-1.584C140.399-115.557,139.823-115.341,139.128-114.405z"/>
	<path fill="#333333" d="M150.576-114.909c0,0.384-0.24,0.648-0.434,0.744c-0.168,0.048-0.312,0-0.456-0.192
		c-0.407-0.408-0.72-0.768-1.464-0.768c-0.696,0-0.983,0.6-0.983,0.96c0,0.504,0.119,1.008,0.815,2.184
		c0.602,1.008,0.96,1.608,0.912,2.665c-0.024,0.648-0.36,1.536-1.248,2.304c-0.624,0.552-1.512,0.864-2.424,0.864
		s-1.465-0.72-1.465-1.272c0-0.24,0.097-0.504,0.359-0.792c0.192-0.168,0.456-0.168,0.648,0c0.312,0.36,1.031,0.96,1.655,0.96
		c0.575,0,1.151-0.6,1.151-1.368c0-0.408-0.288-1.152-0.888-2.112c-0.624-1.008-0.84-1.824-0.84-2.232
		c0-0.936,0.407-1.632,1.438-2.521c0.696-0.6,1.465-0.792,1.776-0.792C150.023-116.277,150.576-115.509,150.576-114.909z"/>
	<path fill="#333333" d="M153.551-107.684c0,0.96-0.672,1.536-1.368,1.536c-0.672,0-1.056-0.432-1.056-1.128
		c0-0.864,0.672-1.488,1.368-1.488C153.19-108.764,153.551-108.236,153.551-107.684z"/>
</g>
</svg>
