<?xml version="1.0" encoding="utf-8"?>
<!-- Generator: Adobe Illustrator 16.0.3, SVG Export Plug-In . SVG Version: 6.00 Build 0)  -->
<!DOCTYPE svg PUBLIC "-//W3C//DTD SVG 1.1//EN" "http://www.w3.org/Graphics/SVG/1.1/DTD/svg11.dtd">
<svg version="1.1" id="Layer_1" xmlns="http://www.w3.org/2000/svg" xmlns:xlink="http://www.w3.org/1999/xlink" x="0px" y="0px"
	 width="204.068px" height="28px" viewBox="-26 0 204.068 28" enable-background="new -26 0 204.068 28" xml:space="preserve">
<rect x="-26" fill="#FFFFFF" width="204.068" height="28"/>
<g>
	<path fill="#333333" d="M-12.943,15.792c0.552-1.751,0.576-2.087-0.864-2.279l-0.936-0.12c-0.168-0.144-0.145-0.504,0.048-0.6
		c1.056,0.048,1.872,0.072,2.88,0.072c1.032,0,2.16-0.024,2.736-0.072c0.168,0.096,0.191,0.48-0.024,0.6l-0.408,0.12
		c-0.911,0.264-1.008,0.36-1.607,2.279l-0.744,2.377c-0.096,0.313-0.048,0.576,0.192,0.72c0.023,0.097,0,0.239-0.097,0.336
		c-1.655,0.575-3.769,1.08-5.041,1.08c-4.249,0-6.769-2.328-6.769-6.24c0-2.328,0.984-5.208,3.456-7.369
		c2.304-2.016,5.017-3,8.353-3c2.04,0,3.553,0.528,4.104,0.768C-8.07,5.327-8.55,6.719-8.79,7.655
		C-8.886,7.847-9.318,7.823-9.39,7.631c0.433-2.208-0.336-3.192-2.664-3.192c-2.833,0-4.704,1.08-6.288,2.568
		c-1.729,1.608-3.12,4.824-3.12,7.56c0,3.816,2.352,4.993,4.752,4.993c1.68,0,2.641-0.24,3.145-1.8L-12.943,15.792z"/>
	<path fill="#333333" d="M-0.679,11.567c0,1.824-2.376,3.023-5.833,3.984c-0.168,0.408-0.336,1.176-0.336,2.137
		c0,0.816,0.504,1.367,1.152,1.367c0.864,0,1.464-0.479,2.521-1.393c0.216,0,0.359,0.192,0.313,0.408
		c-1.464,1.801-2.833,2.186-3.84,2.186c-1.44,0-1.944-1.346-1.944-2.521c0-1.513,0.96-4.44,3.576-6.457
		c1.248-0.96,2.184-1.152,2.88-1.152C-1.231,10.127-0.679,10.943-0.679,11.567z M-4.495,12.023
		c-0.937,1.008-1.488,2.112-1.776,2.808c1.584-0.479,2.329-0.936,3.216-1.775c0.744-0.696,0.937-1.416,0.937-1.632
		c0-0.24-0.12-0.552-0.552-0.552C-3.007,10.871-3.631,11.087-4.495,12.023z"/>
	<path fill="#333333" d="M4.144,11.399l-2.231,6.529c-0.145,0.455-0.024,0.6,0.168,0.6c0.359,0,1.943-1.248,2.735-2.16
		c0.24,0,0.385,0.146,0.336,0.432c-1.344,1.992-3.601,3.457-4.607,3.457c-0.336,0-0.648-0.359-0.648-0.647
		c0-0.313,0.097-0.647,0.336-1.368l2.328-6.84H0.688c-0.048-0.24,0.024-0.576,0.265-0.672l1.92-0.336l1.344-2.376
		c0.24-0.144,0.72-0.096,0.912,0.144l-0.696,2.353h2.616c0.168,0.24,0.023,0.72-0.288,0.888H4.144V11.399z"/>
	<path fill="#333333" d="M16.649,14.208c0.024,1.537-0.023,3.289-0.359,5.28h0.096c0.792-1.176,1.488-2.663,2.016-4.128
		c0.504-1.393,0.864-3.817,0.889-4.441c0.048-0.696,0.407-0.744,0.576-0.744c0.168,0,0.479,0.096,0.672,0.216
		c0.144,0.096,0.216,0.216,0.216,0.48c0.023,0.6-0.624,3.696-2.784,7.321c-1.176,1.992-2.041,3.576-3.96,5.76
		c-1.776,2.041-2.976,2.426-3.745,2.426c-0.768,0-1.248-0.504-1.248-1.104s0.433-1.03,0.96-1.03c0.24,0,0.48,0.143,0.648,0.383
		c0.071,0.121,0.288,0.433,0.672,0.433c0.312,0,0.744-0.192,1.32-0.673c0.6-0.504,1.655-2.016,2.111-3.6
		c0.336-1.225,0.504-3.433,0.48-5.474c-0.048-2.664-0.456-3.6-0.912-3.6c-0.48,0-0.888,0.816-1.393,1.824
		c-0.264,0.072-0.407-0.096-0.455-0.312c0.504-1.608,1.56-3.096,2.735-3.096C16.408,10.127,16.601,12.527,16.649,14.208z"/>
	<path fill="#333333" d="M29.561,13.151c-0.072,1.32-0.768,3.625-2.544,5.449c-1.488,1.535-2.784,1.656-3.432,1.656
		c-1.536,0-2.544-1.129-2.4-3.193c0.096-1.486,0.984-3.815,2.616-5.376c1.248-1.2,2.329-1.56,3.313-1.56
		C28.817,10.127,29.656,11.399,29.561,13.151z M25.192,11.999C23.8,13.872,22.864,16.727,22.792,18
		c-0.048,0.84,0.288,1.535,0.983,1.535c0.528,0,1.128-0.217,1.896-1.248c1.056-1.416,2.184-4.584,2.231-5.856
		c0.024-0.744-0.119-1.584-0.96-1.584C26.465,10.847,25.888,11.063,25.192,11.999z"/>
	<path fill="#333333" d="M33.376,17.856c-0.216,0.576-0.097,0.816,0.168,0.816c0.359,0,1.319-0.77,2.567-1.992
		c2.185-2.16,3.433-4.945,4.226-6.409c0.504-0.096,1.08,0.144,1.176,0.432c-0.24,0.648-1.8,4.584-2.808,7.44
		c-0.12,0.313-0.145,0.602,0.096,0.602c0.456,0,1.728-1.129,2.352-1.873c0.217-0.047,0.408,0.049,0.433,0.336
		c-0.624,1.152-2.928,3.049-4.201,3.049c-0.384,0-0.744-0.457-0.6-0.84l1.632-4.393L38.369,15c-1.729,2.185-4.705,5.256-6,5.256
		c-0.984,0-1.104-0.983-0.696-2.041l2.208-5.832c0.168-0.456,0.192-0.696,0-0.696c-0.456,0-1.705,1.056-2.28,1.656
		c-0.24,0.048-0.432-0.144-0.408-0.36c0.624-0.96,3.024-2.856,4.152-2.856c0.313,0,0.864,0.312,0.72,0.72L33.376,17.856z"/>
	<path fill="#333333" d="M46.792,12.407l-1.032,3.025h0.12c0.72-1.345,1.896-3.265,2.521-4.057c0.553-0.72,1.152-1.248,1.752-1.248
		c0.841,0,0.96,0.816,0.96,1.176c0,0.36-0.216,1.056-0.504,1.44c-0.288,0.36-0.672,0.384-0.768-0.12
		c-0.12-0.624-0.264-0.936-0.504-0.936c-0.216,0-0.48,0.24-0.84,0.72c-1.464,1.872-2.809,4.8-4.08,7.56
		c-0.097,0.193-0.216,0.289-0.408,0.289c-0.264,0-0.96-0.096-0.792-0.625c0.312-0.959,1.824-5.208,2.472-7.561
		c0.072-0.264,0.024-0.504-0.191-0.504c-0.624,0-1.272,0.672-1.704,1.248c-0.24,0.048-0.408-0.096-0.384-0.384
		c0.768-1.296,1.68-2.304,2.833-2.304C47.44,10.127,47.008,11.759,46.792,12.407z"/>
	<path fill="#333333" d="M62.728,11.495c0,0.384-0.24,0.648-0.432,0.744c-0.168,0.048-0.313,0-0.456-0.192
		c-0.408-0.408-0.72-0.768-1.464-0.768c-0.696,0-0.984,0.6-0.984,0.96c0,0.504,0.12,1.008,0.816,2.184
		c0.6,1.009,0.96,1.609,0.912,2.666c-0.024,0.646-0.36,1.535-1.248,2.304c-0.624,0.552-1.513,0.864-2.424,0.864
		c-0.912,0-1.465-0.721-1.465-1.272c0-0.239,0.097-0.504,0.36-0.792c0.192-0.168,0.456-0.168,0.648,0
		c0.312,0.359,1.031,0.96,1.655,0.96c0.576,0,1.152-0.601,1.152-1.368c0-0.408-0.288-1.152-0.888-2.111
		c-0.624-1.008-0.841-1.824-0.841-2.232c0-0.936,0.408-1.632,1.44-2.521c0.696-0.6,1.464-0.792,1.776-0.792
		C62.176,10.127,62.728,10.895,62.728,11.495z"/>
	<path fill="#333333" d="M67.719,11.399l-2.232,6.529c-0.144,0.455-0.023,0.6,0.168,0.6c0.36,0,1.944-1.248,2.736-2.16
		c0.24,0,0.384,0.146,0.336,0.432c-1.344,1.992-3.601,3.457-4.607,3.457c-0.336,0-0.648-0.359-0.648-0.647
		c0-0.313,0.096-0.647,0.336-1.368l2.328-6.84h-1.872c-0.048-0.24,0.024-0.576,0.264-0.672l1.92-0.336l1.345-2.376
		c0.239-0.144,0.72-0.096,0.912,0.144l-0.696,2.353h2.616c0.168,0.24,0.023,0.72-0.288,0.888h-2.616V11.399z"/>
	<path fill="#333333" d="M74.223,14.208c0.024,1.537-0.023,3.289-0.36,5.28h0.097c0.792-1.176,1.487-2.663,2.016-4.128
		c0.504-1.393,0.864-3.817,0.888-4.441c0.049-0.696,0.408-0.744,0.576-0.744s0.48,0.096,0.672,0.216
		c0.145,0.096,0.217,0.216,0.217,0.48c0.023,0.6-0.624,3.696-2.784,7.321c-1.176,1.992-2.041,3.576-3.96,5.76
		c-1.776,2.041-2.978,2.426-3.744,2.426c-0.77,0-1.249-0.504-1.249-1.104s0.432-1.03,0.96-1.03c0.24,0,0.479,0.143,0.648,0.383
		c0.071,0.121,0.287,0.433,0.672,0.433c0.312,0,0.743-0.192,1.319-0.673c0.601-0.504,1.656-2.016,2.112-3.6
		c0.336-1.225,0.504-3.433,0.48-5.474c-0.049-2.664-0.456-3.6-0.912-3.6c-0.48,0-0.889,0.816-1.393,1.824
		c-0.264,0.072-0.408-0.096-0.456-0.312c0.504-1.608,1.561-3.096,2.736-3.096C73.984,10.127,74.176,12.527,74.223,14.208z"/>
	<path fill="#333333" d="M80.727,18.36c-0.191,0.553-0.168,0.792,0.097,0.792c0.527,0,1.655-1.177,2.76-2.425
		c0.24-0.023,0.384,0.098,0.384,0.336c-0.624,1.201-2.136,3.193-4.128,3.193c-0.72,0-0.937-0.336-0.937-0.721
		s0.12-0.816,0.528-2.041l3.816-11.353c0.576-1.68,0.336-1.92-0.024-2.088l-0.432-0.192c-0.12-0.096-0.12-0.312,0-0.384
		c0.432-0.168,1.92-0.624,3.023-0.72l0.12,0.144c-0.312,0.864-0.552,1.536-1.416,4.128L80.727,18.36z"/>
	<path fill="#333333" d="M92.703,11.567c0,1.824-2.376,3.023-5.833,3.984c-0.168,0.408-0.336,1.176-0.336,2.137
		c0,0.816,0.504,1.367,1.151,1.367c0.864,0,1.464-0.479,2.521-1.393c0.216,0,0.359,0.192,0.312,0.408
		c-1.464,1.801-2.833,2.186-3.84,2.186c-1.44,0-1.944-1.346-1.944-2.521c0-1.513,0.96-4.44,3.576-6.457
		c1.248-0.96,2.185-1.152,2.88-1.152C92.151,10.127,92.703,10.943,92.703,11.567z M88.887,12.023
		c-0.936,1.008-1.488,2.112-1.776,2.808c1.584-0.479,2.328-0.936,3.217-1.775c0.743-0.696,0.936-1.416,0.936-1.632
		c0-0.24-0.12-0.552-0.552-0.552C90.375,10.871,89.751,11.087,88.887,12.023z"/>
	<path fill="#333333" d="M102.207,12.215c0.168-0.456,0.144-0.696-0.168-0.696c-0.456,0-1.488,0.864-2.232,1.68
		c-0.216,0-0.384-0.216-0.36-0.408c0.769-1.08,2.377-2.665,3.792-2.665c0.553,0,1.08,0.696,0.744,1.584l-2.063,5.352
		c-0.12,0.337-0.24,0.815-0.24,1.129c0,0.408,0.192,0.863,0.696,0.863c0.552,0,1.536-0.552,2.616-1.775
		c1.393-1.584,2.063-3.457,2.063-4.584c0-0.576-0.049-1.152-0.217-1.704c0.049-0.504,0.432-0.864,0.889-0.864
		c0.769,0,0.937,0.888,0.937,1.488c0,1.752-1.801,5.161-3.864,6.889c-1.824,1.512-3.168,1.752-3.744,1.752
		c-0.624,0-1.104-0.721-1.104-1.44c0-0.528,0.239-1.368,0.6-2.304L102.207,12.215z"/>
	<path fill="#333333" d="M117.568,13.151c-0.071,1.32-0.769,3.625-2.545,5.449c-1.487,1.535-2.784,1.656-3.432,1.656
		c-1.537,0-2.545-1.129-2.4-3.193c0.097-1.486,0.984-3.815,2.615-5.376c1.249-1.2,2.329-1.56,3.313-1.56
		C116.823,10.127,117.663,11.399,117.568,13.151z M113.198,11.999c-1.394,1.873-2.328,4.728-2.4,6.001
		c-0.048,0.84,0.289,1.535,0.984,1.535c0.527,0,1.129-0.217,1.896-1.248c1.056-1.416,2.184-4.584,2.232-5.856
		c0.022-0.744-0.121-1.584-0.961-1.584C114.471,10.847,113.895,11.063,113.198,11.999z"/>
	<path fill="#333333" d="M123.351,11.399l-2.231,6.529c-0.146,0.455-0.024,0.6,0.168,0.6c0.358,0,1.942-1.248,2.735-2.16
		c0.24,0,0.385,0.146,0.336,0.432c-1.344,1.992-3.601,3.457-4.607,3.457c-0.337,0-0.648-0.359-0.648-0.647
		c0-0.313,0.098-0.647,0.337-1.368l2.328-6.84h-1.873c-0.048-0.24,0.024-0.576,0.265-0.672l1.921-0.336l1.345-2.376
		c0.239-0.144,0.719-0.096,0.911,0.144l-0.696,2.353h2.617c0.168,0.24,0.022,0.72-0.289,0.888h-2.617V11.399z"/>
	<path fill="#333333" d="M133.648,11.567c0,1.824-2.377,3.023-5.833,3.984c-0.168,0.408-0.336,1.176-0.336,2.137
		c0,0.816,0.504,1.367,1.151,1.367c0.865,0,1.465-0.479,2.521-1.393c0.217,0,0.36,0.192,0.313,0.408
		c-1.464,1.801-2.833,2.186-3.841,2.186c-1.439,0-1.943-1.346-1.943-2.521c0-1.513,0.959-4.44,3.576-6.457
		c1.248-0.96,2.184-1.152,2.88-1.152C133.095,10.127,133.648,10.943,133.648,11.567z M129.831,12.023
		c-0.938,1.008-1.488,2.112-1.777,2.808c1.585-0.479,2.329-0.936,3.217-1.775c0.744-0.696,0.937-1.416,0.937-1.632
		c0-0.24-0.119-0.552-0.551-0.552C131.32,10.871,130.695,11.087,129.831,12.023z"/>
	<path fill="#333333" d="M144.038,5.927c0.479-1.344,0.553-1.752,0.217-1.992l-0.553-0.384c-0.048-0.096-0.023-0.24,0.071-0.336
		c0.457-0.168,1.802-0.48,2.832-0.456l0.098,0.144c-0.434,1.344-0.792,2.256-1.514,4.249c-2.376,6.553-3.504,10.394-3.72,11.113
		c-0.097,0.312-0.072,0.552,0.144,0.552c0.386,0,1.896-1.225,2.642-2.16c0.216,0,0.336,0.096,0.358,0.313
		c-0.646,1.32-2.831,3.289-4.079,3.289c-0.505,0-0.769-0.385-0.769-0.77c0-0.287,0.072-0.672,0.313-1.367l0.84-2.377l-0.098-0.023
		c-1.654,2.209-3.455,4.537-5.783,4.537c-0.937,0-1.44-0.77-1.44-1.729c0-1.704,1.296-4.561,3.192-6.265
		c1.633-1.464,3.145-2.136,4.297-2.136c0.384,0,0.959,0.24,1.224,0.744L144.038,5.927z M139.214,11.879
		c-0.959,0.888-2.688,3.168-3.432,4.68c-0.744,1.537-0.744,1.969-0.744,2.281c0,0.287,0.239,0.504,0.456,0.504
		c0.359,0,1.584-0.434,3.239-2.137c1.872-1.92,2.568-3.36,2.93-4.632c0.287-1.008-0.024-1.728-0.625-1.728
		C140.487,10.847,139.839,11.303,139.214,11.879z"/>
	<path fill="#333333" d="M159.807,13.151c-0.072,1.32-0.769,3.625-2.544,5.449c-1.488,1.535-2.785,1.656-3.433,1.656
		c-1.536,0-2.544-1.129-2.4-3.193c0.097-1.486,0.984-3.815,2.616-5.376c1.248-1.2,2.328-1.56,3.313-1.56
		C159.063,10.127,159.903,11.399,159.807,13.151z M155.439,11.999c-1.393,1.873-2.328,4.728-2.399,6.001
		c-0.048,0.84,0.288,1.535,0.983,1.535c0.527,0,1.128-0.217,1.896-1.248c1.055-1.416,2.184-4.584,2.23-5.856
		c0.024-0.744-0.12-1.584-0.96-1.584C156.71,10.847,156.134,11.063,155.439,11.999z"/>
	<path fill="#333333" d="M164.294,15.311l0.072,0.049c1.702-2.593,4.079-5.233,5.88-5.233c0.937,0,1.345,0.504,1.345,1.296
		c0,0.384-0.192,1.128-0.385,1.68c-0.433,1.2-2.16,5.112-2.232,5.304c-0.096,0.24-0.119,0.456,0.049,0.456
		c0.408,0,1.562-0.792,2.256-1.633c0.337-0.047,0.386,0.146,0.386,0.337c-0.912,1.536-2.81,2.688-4.129,2.688
		c-0.218,0-0.576-0.313-0.576-0.601c0-0.216,0.072-0.384,0.576-1.584c0.504-1.177,1.393-3.528,1.942-4.729
		c0.193-0.432,0.505-1.272,0.505-1.752c0-0.288-0.023-0.576-0.384-0.576c-0.576,0-1.992,1.2-3.313,2.856
		c-1.272,1.584-2.257,3.456-3.672,6.096c-0.121,0.217-0.218,0.289-0.434,0.289c-0.265,0-0.912-0.072-0.696-0.625
		c0.12-0.313,2.664-7.224,2.784-7.561c0.12-0.312,0.12-0.552-0.07-0.552c-0.554,0-1.394,0.504-2.186,1.2
		c-0.192,0-0.312-0.168-0.288-0.36c0.912-1.248,2.376-2.232,3.576-2.232c0.576,0,0.84,0.432,0.624,0.984L164.294,15.311z"/>
	<path fill="#333333" d="M175.598,18.719c0,0.961-0.672,1.537-1.368,1.537c-0.672,0-1.057-0.434-1.057-1.129
		c0-0.863,0.673-1.488,1.369-1.488C175.238,17.639,175.598,18.168,175.598,18.719z"/>
</g>
</svg>
