<?xml version="1.0" encoding="utf-8"?>
<!-- Generator: Adobe Illustrator 16.0.3, SVG Export Plug-In . SVG Version: 6.00 Build 0)  -->
<!DOCTYPE svg PUBLIC "-//W3C//DTD SVG 1.1//EN" "http://www.w3.org/Graphics/SVG/1.1/DTD/svg11.dtd">
<svg version="1.1" id="Layer_1" xmlns="http://www.w3.org/2000/svg" xmlns:xlink="http://www.w3.org/1999/xlink" x="0px" y="0px"
	 width="247.006px" height="28px" viewBox="0 0 247.006 28" enable-background="new 0 0 247.006 28" xml:space="preserve">
<rect fill="#FFFFFF" width="247.006" height="28"/>
<g>
	<path fill="#333333" d="M5.86,6.744C6.316,5.255,6.148,5.04,5.452,4.943l-0.96-0.12c-0.144-0.096-0.168-0.456,0-0.576
		c0.36-0.048,2.448-0.239,4.465-0.239c6.912,0,8.641,3.504,8.641,6.553c0,3.12-1.513,5.712-3.792,7.271
		c-2.713,1.849-5.833,2.16-8.018,2.16c-0.72,0-1.584-0.072-3-0.072c-0.984,0-1.8,0.024-2.64,0.072
		c-0.192-0.119-0.192-0.455-0.024-0.601l0.624-0.071c1.104-0.119,1.368-0.408,2.112-2.855L5.86,6.744z M4.419,17.184
		c-0.432,1.416,0.072,1.969,2.185,1.969c6.937,0,8.856-5.833,8.856-8.425c0-2.28-0.359-5.977-6.336-5.977
		c-0.744,0-0.889,0.168-1.128,0.936L4.419,17.184z"/>
	<path fill="#333333" d="M26.909,9.576c0.408-0.192,1.032,0.048,1.177,0.36c-0.36,0.888-2.448,6.191-3.217,8.376
		c-0.144,0.407-0.023,0.554,0.168,0.554c0.408,0,1.104-0.408,2.473-1.609c0.168,0,0.336,0.121,0.336,0.313
		c-1.008,1.346-2.712,2.688-4.032,2.688c-0.552,0-0.696-0.455-0.696-0.647c0-0.168,0.048-0.384,0.24-0.937l0.792-2.159l-0.072-0.024
		c-1.704,2.112-4.152,3.77-5.28,3.77c-0.672,0-1.056-0.672-1.056-1.344c0-0.554,0.527-2.474,2.111-4.657
		c1.152-1.585,2.185-2.545,3.169-3.097c0.936-0.528,1.536-0.696,2.16-0.696c0.264,0,0.432,0.072,0.576,0.145
		c0.096,0.048,0.359,0.264,0.479,0.504L26.909,9.576z M22.733,12.312c-1.536,1.368-3,4.513-3,6.216c0,0.288,0.144,0.456,0.359,0.456
		c0.24,0,0.96-0.312,2.328-1.56c1.824-1.705,2.833-3.769,3.217-5.185c-0.168-0.456-0.576-0.864-1.2-0.864
		C23.861,11.375,23.477,11.64,22.733,12.312z"/>
	<path fill="#333333" d="M33.46,11.4l-2.232,6.528c-0.145,0.455-0.024,0.6,0.168,0.6c0.359,0,1.944-1.248,2.736-2.16
		c0.24,0,0.384,0.146,0.336,0.434c-1.345,1.992-3.601,3.455-4.608,3.455c-0.336,0-0.648-0.359-0.648-0.647
		c0-0.312,0.097-0.647,0.336-1.366l2.328-6.842h-1.872c-0.048-0.24,0.024-0.576,0.265-0.672l1.92-0.337l1.344-2.376
		c0.24-0.144,0.721-0.096,0.912,0.145l-0.696,2.352h2.617c0.168,0.24,0.023,0.721-0.288,0.889H33.46V11.4z"/>
	<path fill="#333333" d="M43.755,11.568c0,1.824-2.376,3.024-5.832,3.983c-0.168,0.408-0.336,1.177-0.336,2.137
		c0,0.816,0.504,1.368,1.152,1.368c0.863,0,1.464-0.479,2.52-1.392c0.216,0,0.36,0.19,0.313,0.406
		c-1.465,1.801-2.832,2.186-3.841,2.186c-1.439,0-1.944-1.344-1.944-2.521c0-1.512,0.961-4.44,3.577-6.456
		c1.248-0.96,2.184-1.152,2.88-1.152C43.204,10.127,43.755,10.944,43.755,11.568z M39.939,12.024
		c-0.936,1.008-1.487,2.112-1.775,2.809c1.584-0.479,2.328-0.937,3.216-1.775c0.744-0.696,0.937-1.416,0.937-1.633
		c0-0.239-0.12-0.552-0.553-0.552C41.427,10.872,40.803,11.087,39.939,12.024z"/>
	<path fill="#333333" d="M54.267,14.208c0.024,1.537-0.024,3.289-0.36,5.281h0.097c0.792-1.177,1.488-2.664,2.016-4.129
		c0.504-1.392,0.864-3.816,0.889-4.44c0.048-0.696,0.407-0.744,0.576-0.744c0.168,0,0.479,0.097,0.672,0.216
		c0.144,0.097,0.216,0.217,0.216,0.48c0.023,0.6-0.624,3.696-2.784,7.32c-1.176,1.992-2.04,3.577-3.961,5.762
		c-1.775,2.039-2.976,2.424-3.744,2.424c-0.768,0-1.248-0.504-1.248-1.104c0-0.602,0.433-1.031,0.96-1.031
		c0.24,0,0.48,0.145,0.648,0.383c0.072,0.121,0.288,0.434,0.672,0.434c0.313,0,0.744-0.191,1.32-0.672
		c0.6-0.506,1.656-2.018,2.112-3.602c0.336-1.225,0.504-3.433,0.479-5.473c-0.048-2.664-0.456-3.601-0.912-3.601
		c-0.479,0-0.888,0.816-1.392,1.824c-0.265,0.072-0.408-0.096-0.456-0.312c0.504-1.608,1.56-3.097,2.736-3.097
		C54.027,10.127,54.219,12.528,54.267,14.208z"/>
	<path fill="#333333" d="M67.179,13.152c-0.072,1.32-0.769,3.624-2.544,5.448c-1.488,1.535-2.784,1.656-3.433,1.656
		c-1.536,0-2.544-1.129-2.4-3.192c0.096-1.487,0.984-3.816,2.616-5.376c1.248-1.2,2.328-1.561,3.313-1.561
		C66.435,10.127,67.275,11.4,67.179,13.152z M62.811,12c-1.393,1.872-2.328,4.729-2.4,6c-0.048,0.84,0.288,1.537,0.984,1.537
		c0.527,0,1.128-0.217,1.896-1.248c1.057-1.416,2.185-4.585,2.232-5.856c0.024-0.744-0.12-1.585-0.96-1.585
		C64.083,10.847,63.506,11.064,62.811,12z"/>
	<path fill="#333333" d="M70.995,17.856c-0.216,0.576-0.096,0.816,0.168,0.816c0.36,0,1.32-0.77,2.568-1.992
		c2.185-2.16,3.433-4.944,4.225-6.408c0.504-0.097,1.08,0.144,1.176,0.432c-0.24,0.648-1.8,4.583-2.809,7.44
		c-0.119,0.313-0.144,0.601,0.097,0.601c0.456,0,1.728-1.129,2.352-1.871c0.217-0.049,0.408,0.047,0.433,0.336
		c-0.624,1.15-2.929,3.047-4.2,3.047c-0.385,0-0.744-0.455-0.601-0.84l1.633-4.393L75.987,15c-1.728,2.185-4.704,5.256-6,5.256
		c-0.984,0-1.104-0.983-0.696-2.039l2.208-5.833c0.168-0.456,0.192-0.695,0-0.695c-0.456,0-1.704,1.056-2.28,1.656
		c-0.239,0.048-0.432-0.145-0.407-0.36c0.624-0.96,3.023-2.856,4.152-2.856c0.312,0,0.863,0.313,0.72,0.72L70.995,17.856z"/>
	<path fill="#333333" d="M84.411,12.408l-1.032,3.024h0.12c0.72-1.344,1.896-3.265,2.52-4.057c0.553-0.72,1.152-1.248,1.753-1.248
		c0.84,0,0.96,0.816,0.96,1.176c0,0.36-0.217,1.057-0.505,1.44c-0.287,0.36-0.672,0.384-0.768-0.12
		c-0.12-0.624-0.264-0.936-0.504-0.936c-0.216,0-0.48,0.239-0.84,0.72c-1.465,1.872-2.809,4.8-4.081,7.56
		c-0.096,0.193-0.216,0.289-0.407,0.289c-0.265,0-0.961-0.096-0.793-0.625c0.313-0.959,1.824-5.208,2.473-7.561
		c0.072-0.264,0.024-0.504-0.192-0.504c-0.624,0-1.271,0.672-1.704,1.248c-0.239,0.048-0.408-0.096-0.384-0.384
		c0.769-1.297,1.681-2.305,2.832-2.305C85.058,10.127,84.626,11.759,84.411,12.408z"/>
	<path fill="#333333" d="M99.026,11.352c-0.144,0.407-0.336,1.176-0.624,2.231c-0.72,2.688-1.368,4.994-2.137,7.632
		c-0.624,2.16-1.416,3.386-1.896,3.865c-0.36,0.336-1.464,1.297-2.881,1.297c-1.296,0-1.752-0.816-1.752-1.178
		c0-0.479,0.288-0.888,0.553-1.08c0.191-0.144,0.407-0.072,0.552,0.096c0.576,0.602,1.296,0.984,1.824,0.984
		c0.479,0,0.983-0.168,1.536-2.016c1.104-3.793,1.944-7.921,3.096-11.833h-1.992c-0.239-0.217-0.144-0.673,0.168-0.889h2.064
		c0.624-2.16,1.272-4.032,2.688-5.712c1.2-1.416,2.448-1.992,3.84-1.992c0.889,0,1.849,0.624,1.849,1.584
		c0,0.624-0.648,1.368-1.032,1.368c-0.216,0-0.312-0.216-0.336-0.385c-0.072-1.319-0.744-1.752-1.344-1.752
		c-0.528,0-1.177,0.479-1.729,1.297c-1.104,1.607-1.584,3.312-2.232,5.592h3c0.168,0.265,0.12,0.624-0.239,0.889L99.026,11.352
		L99.026,11.352z"/>
	<path fill="#333333" d="M109.417,9.576c0.408-0.192,1.032,0.048,1.177,0.36c-0.36,0.888-2.448,6.191-3.217,8.376
		c-0.144,0.407-0.023,0.554,0.168,0.554c0.408,0,1.104-0.408,2.473-1.609c0.168,0,0.336,0.121,0.336,0.313
		c-1.008,1.346-2.712,2.688-4.032,2.688c-0.552,0-0.696-0.455-0.696-0.647c0-0.168,0.048-0.384,0.24-0.937l0.792-2.159l-0.072-0.024
		c-1.704,2.112-4.152,3.77-5.28,3.77c-0.672,0-1.056-0.672-1.056-1.344c0-0.554,0.527-2.474,2.111-4.657
		c1.152-1.585,2.185-2.545,3.169-3.097c0.936-0.528,1.536-0.696,2.16-0.696c0.264,0,0.432,0.072,0.576,0.145
		c0.096,0.048,0.359,0.264,0.479,0.504L109.417,9.576z M105.242,12.312c-1.536,1.368-3,4.513-3,6.216
		c0,0.288,0.144,0.456,0.359,0.456c0.24,0,0.96-0.312,2.328-1.56c1.824-1.705,2.833-3.769,3.217-5.185
		c-0.168-0.456-0.576-0.864-1.2-0.864C106.37,11.375,105.986,11.64,105.242,12.312z"/>
	<path fill="#333333" d="M114.649,12.215c0.168-0.456,0.144-0.695-0.168-0.695c-0.456,0-1.488,0.863-2.232,1.68
		c-0.216,0-0.384-0.216-0.36-0.408c0.769-1.08,2.377-2.664,3.793-2.664c0.552,0,1.08,0.696,0.744,1.584l-2.064,5.353
		c-0.12,0.336-0.24,0.816-0.24,1.128c0,0.408,0.192,0.864,0.696,0.864c0.552,0,1.536-0.553,2.616-1.775
		c1.392-1.584,2.064-3.457,2.064-4.584c0-0.576-0.049-1.152-0.217-1.704c0.048-0.504,0.433-0.864,0.889-0.864
		c0.768,0,0.936,0.889,0.936,1.488c0,1.752-1.8,5.16-3.864,6.889c-1.824,1.512-3.168,1.752-3.744,1.752
		c-0.624,0-1.104-0.721-1.104-1.44c0-0.526,0.24-1.368,0.601-2.304L114.649,12.215z"/>
	<path fill="#333333" d="M130.009,13.152c-0.072,1.32-0.769,3.624-2.544,5.448c-1.487,1.535-2.784,1.656-3.433,1.656
		c-1.536,0-2.544-1.129-2.4-3.192c0.096-1.487,0.984-3.816,2.616-5.376c1.248-1.2,2.328-1.561,3.313-1.561
		C129.265,10.127,130.104,11.4,130.009,13.152z M125.642,12c-1.394,1.872-2.329,4.729-2.4,6c-0.048,0.84,0.288,1.537,0.984,1.537
		c0.526,0,1.127-0.217,1.896-1.248c1.058-1.416,2.185-4.585,2.231-5.856c0.024-0.744-0.119-1.585-0.959-1.585
		C126.913,10.847,126.336,11.064,125.642,12z"/>
	<path fill="#333333" d="M135.337,12.408l-1.031,3.024h0.119c0.721-1.344,1.896-3.265,2.52-4.057
		c0.554-0.72,1.152-1.248,1.752-1.248c0.842,0,0.962,0.816,0.962,1.176c0,0.36-0.218,1.057-0.505,1.44
		c-0.287,0.36-0.672,0.384-0.769-0.12c-0.12-0.624-0.264-0.936-0.504-0.936c-0.216,0-0.479,0.239-0.84,0.72
		c-1.465,1.872-2.81,4.8-4.081,7.56c-0.096,0.193-0.216,0.289-0.408,0.289c-0.264,0-0.96-0.096-0.792-0.625
		c0.313-0.959,1.824-5.208,2.474-7.561c0.072-0.264,0.023-0.504-0.192-0.504c-0.624,0-1.271,0.672-1.704,1.248
		c-0.238,0.048-0.408-0.096-0.384-0.384c0.769-1.297,1.681-2.305,2.832-2.305C135.985,10.127,135.554,11.759,135.337,12.408z"/>
	<path fill="#333333" d="M142.728,12.12c0.121-0.264,0.121-0.456-0.047-0.456s-0.793,0.288-1.992,1.272
		c-0.217-0.024-0.359-0.216-0.313-0.408c1.32-1.512,3.168-2.4,3.96-2.4c0.168,0,0.288,0.145,0.384,0.24
		c0.146,0.144,0.146,0.36-0.144,1.056l-2.856,6.817c-0.096,0.239-0.119,0.527,0.072,0.527c0.408,0,1.68-0.84,2.496-1.775
		c0.24,0.023,0.359,0.191,0.359,0.407c-0.359,0.696-2.832,2.856-4.487,2.856c-0.12,0-0.265-0.072-0.386-0.217
		c-0.144-0.168-0.215-0.383-0.096-0.647L142.728,12.12z M145.584,6.095c0,0.744-0.526,1.488-1.248,1.488
		c-0.624,0-0.84-0.48-0.84-0.889c0-0.527,0.336-1.512,1.272-1.512C145.321,5.183,145.584,5.567,145.584,6.095z"/>
	<path fill="#333333" d="M150.649,11.4l-2.232,6.528c-0.145,0.455-0.023,0.6,0.168,0.6c0.359,0,1.943-1.248,2.736-2.16
		c0.24,0,0.384,0.146,0.336,0.434c-1.346,1.992-3.602,3.455-4.608,3.455c-0.336,0-0.647-0.359-0.647-0.647
		c0-0.312,0.097-0.647,0.336-1.366l2.328-6.842h-1.873c-0.047-0.24,0.024-0.576,0.266-0.672l1.92-0.337l1.344-2.376
		c0.24-0.144,0.721-0.096,0.912,0.145l-0.695,2.352h2.615c0.17,0.24,0.024,0.721-0.287,0.889h-2.617V11.4z"/>
	<path fill="#333333" d="M160.942,11.568c0,1.824-2.375,3.024-5.832,3.983c-0.168,0.408-0.336,1.177-0.336,2.137
		c0,0.816,0.504,1.368,1.152,1.368c0.863,0,1.465-0.479,2.52-1.392c0.217,0,0.361,0.19,0.313,0.406
		c-1.464,1.801-2.831,2.186-3.84,2.186c-1.438,0-1.944-1.344-1.944-2.521c0-1.512,0.961-4.44,3.578-6.456
		c1.247-0.96,2.184-1.152,2.879-1.152C160.392,10.127,160.942,10.944,160.942,11.568z M157.127,12.024
		c-0.937,1.008-1.487,2.112-1.774,2.809c1.584-0.479,2.328-0.937,3.215-1.775c0.744-0.696,0.938-1.416,0.938-1.633
		c0-0.239-0.12-0.552-0.553-0.552C158.615,10.872,157.991,11.087,157.127,12.024z"/>
	<path fill="#333333" d="M177.022,13.248l-0.912,2.208l0.072,0.049c2.305-3.672,4.129-5.376,5.713-5.376
		c0.912,0,1.345,0.504,1.345,1.296c0,0.385-0.169,1.129-0.384,1.681c-0.434,1.2-2.16,5.112-2.232,5.306
		c-0.096,0.238-0.12,0.455,0.048,0.455c0.408,0,1.562-0.793,2.257-1.633c0.336-0.048,0.385,0.145,0.385,0.336
		c-0.912,1.536-2.81,2.688-4.129,2.688c-0.217,0-0.576-0.312-0.576-0.6c0-0.217,0.072-0.385,0.576-1.584
		c0.504-1.177,1.463-3.505,1.943-4.729c0.168-0.433,0.504-1.271,0.504-1.753c0-0.288-0.023-0.575-0.384-0.575
		c-0.696,0-1.849,1.224-3.146,2.88c-1.224,1.536-2.304,3.433-3.769,6.071c-0.119,0.193-0.216,0.289-0.433,0.289
		c-0.264,0-0.912-0.072-0.695-0.625l2.376-6.288c0.097-0.265,1.058-2.328,0.192-2.328c-0.672,0-2.017,1.248-3.336,2.88
		c-1.248,1.56-2.209,3.433-3.602,6.071c-0.12,0.217-0.216,0.289-0.432,0.289c-0.266,0-0.912-0.072-0.696-0.625
		c0.071-0.191,2.64-7.199,2.735-7.561c0.121-0.408,0.097-0.672-0.168-0.672c-0.791,0-1.633,0.72-2.111,1.32
		c-0.24,0-0.359-0.168-0.336-0.36c0.6-1.152,1.872-2.232,3.695-2.232c0.553,0,0.793,0.433,0.576,0.984l-1.656,4.345l0.072,0.049
		c1.729-2.833,3.983-5.377,5.809-5.377C178.056,10.127,177.526,12.024,177.022,13.248z"/>
	<path fill="#333333" d="M192.743,11.568c0,1.824-2.376,3.024-5.832,3.983c-0.168,0.408-0.336,1.177-0.336,2.137
		c0,0.816,0.504,1.368,1.152,1.368c0.862,0,1.463-0.479,2.52-1.392c0.216,0,0.359,0.19,0.313,0.406
		c-1.465,1.801-2.832,2.186-3.841,2.186c-1.438,0-1.944-1.344-1.944-2.521c0-1.512,0.961-4.44,3.578-6.456
		c1.248-0.96,2.184-1.152,2.879-1.152C192.19,10.127,192.743,10.944,192.743,11.568z M188.927,12.024
		c-0.936,1.008-1.486,2.112-1.775,2.809c1.584-0.479,2.328-0.937,3.217-1.775c0.744-0.696,0.938-1.416,0.938-1.633
		c0-0.239-0.121-0.552-0.554-0.552C190.415,10.872,189.791,11.087,188.927,12.024z"/>
	<path fill="#333333" d="M202.823,13.248l-0.912,2.208l0.072,0.049c2.304-3.672,4.127-5.376,5.713-5.376
		c0.91,0,1.344,0.504,1.344,1.296c0,0.385-0.168,1.129-0.385,1.681c-0.432,1.2-2.159,5.112-2.231,5.306
		c-0.096,0.238-0.12,0.455,0.048,0.455c0.408,0,1.562-0.793,2.256-1.633c0.336-0.048,0.385,0.145,0.385,0.336
		c-0.911,1.536-2.809,2.688-4.129,2.688c-0.215,0-0.575-0.312-0.575-0.6c0-0.217,0.071-0.385,0.575-1.584
		c0.504-1.177,1.465-3.505,1.945-4.729c0.168-0.433,0.504-1.271,0.504-1.753c0-0.288-0.023-0.575-0.385-0.575
		c-0.695,0-1.849,1.224-3.145,2.88c-1.225,1.536-2.305,3.433-3.77,6.071c-0.119,0.193-0.216,0.289-0.432,0.289
		c-0.264,0-0.912-0.072-0.696-0.625l2.376-6.288c0.098-0.265,1.057-2.328,0.192-2.328c-0.673,0-2.017,1.248-3.337,2.88
		c-1.247,1.56-2.207,3.433-3.6,6.071c-0.121,0.217-0.217,0.289-0.433,0.289c-0.265,0-0.912-0.072-0.696-0.625
		c0.072-0.191,2.641-7.199,2.736-7.561c0.12-0.408,0.096-0.672-0.168-0.672c-0.792,0-1.633,0.72-2.112,1.32
		c-0.239,0-0.36-0.168-0.336-0.36c0.601-1.152,1.872-2.232,3.696-2.232c0.552,0,0.792,0.433,0.576,0.984l-1.656,4.345l0.07,0.049
		c1.729-2.833,3.984-5.377,5.81-5.377C203.854,10.127,203.327,12.024,202.823,13.248z"/>
	<path fill="#333333" d="M213.575,14.304h0.048c1.681-2.545,3.288-4.177,5.088-4.177c1.417,0,2.063,0.937,2.063,2.16
		c0,1.656-1.151,3.745-3.096,5.641c-1.969,1.896-3.744,2.328-4.585,2.328c-1.296,0-1.92-0.84-1.92-2.209
		c0-1.127,0.528-2.855,1.224-4.729l2.785-7.393c0.504-1.344,0.575-1.752,0.239-1.992L214.87,3.55
		c-0.049-0.097-0.023-0.24,0.072-0.336c0.455-0.168,1.774-0.48,2.879-0.456l0.097,0.144c-0.504,1.344-0.862,2.256-1.224,3.192
		L213.575,14.304z M215.039,13.463c-1.513,1.729-2.256,3.698-2.256,4.801c0,0.938,0.432,1.248,0.84,1.248
		c0.36,0,1.272-0.456,2.304-1.608c1.488-1.68,3.266-4.728,3.266-6.096c0-0.648-0.408-0.864-0.84-0.864
		C217.703,10.944,216.526,11.759,215.039,13.463z"/>
	<path fill="#333333" d="M229.728,11.568c0,1.824-2.377,3.024-5.832,3.983c-0.168,0.408-0.336,1.177-0.336,2.137
		c0,0.816,0.504,1.368,1.151,1.368c0.863,0,1.464-0.479,2.521-1.392c0.215,0,0.359,0.19,0.313,0.406
		c-1.464,1.801-2.832,2.186-3.841,2.186c-1.438,0-1.944-1.344-1.944-2.521c0-1.512,0.961-4.44,3.577-6.456
		c1.248-0.96,2.185-1.152,2.88-1.152C229.175,10.127,229.728,10.944,229.728,11.568z M225.91,12.024
		c-0.937,1.008-1.487,2.112-1.775,2.809c1.585-0.479,2.328-0.937,3.216-1.775c0.744-0.696,0.938-1.416,0.938-1.633
		c0-0.239-0.12-0.552-0.553-0.552C227.397,10.872,226.774,11.087,225.91,12.024z"/>
	<path fill="#333333" d="M234.095,12.408l-1.031,3.024h0.119c0.721-1.344,1.896-3.265,2.521-4.057
		c0.553-0.72,1.151-1.248,1.752-1.248c0.841,0,0.961,0.816,0.961,1.176c0,0.36-0.217,1.057-0.505,1.44
		c-0.287,0.36-0.672,0.384-0.768-0.12c-0.121-0.624-0.265-0.936-0.504-0.936c-0.217,0-0.48,0.239-0.841,0.72
		c-1.465,1.872-2.809,4.8-4.081,7.56c-0.096,0.193-0.216,0.289-0.408,0.289c-0.264,0-0.959-0.096-0.791-0.625
		c0.313-0.959,1.823-5.208,2.473-7.561c0.072-0.264,0.023-0.504-0.192-0.504c-0.624,0-1.271,0.672-1.704,1.248
		c-0.238,0.048-0.408-0.096-0.384-0.384c0.769-1.297,1.681-2.305,2.832-2.305C234.742,10.127,234.312,11.759,234.095,12.408z"/>
	<path fill="#333333" d="M244.03,11.496c0,0.384-0.24,0.648-0.434,0.744c-0.168,0.048-0.312,0-0.455-0.192
		c-0.408-0.407-0.721-0.768-1.465-0.768c-0.695,0-0.984,0.6-0.984,0.96c0,0.504,0.121,1.008,0.816,2.185
		c0.602,1.008,0.961,1.607,0.912,2.664c-0.023,0.647-0.359,1.537-1.248,2.305c-0.624,0.553-1.512,0.863-2.424,0.863
		s-1.465-0.719-1.465-1.271c0-0.238,0.097-0.504,0.359-0.792c0.192-0.168,0.457-0.168,0.648,0c0.313,0.36,1.031,0.961,1.654,0.961
		c0.576,0,1.152-0.601,1.152-1.368c0-0.408-0.287-1.152-0.888-2.111c-0.624-1.01-0.84-1.824-0.84-2.232
		c0-0.937,0.407-1.632,1.438-2.521c0.696-0.6,1.465-0.792,1.776-0.792C243.478,10.127,244.03,10.896,244.03,11.496z"/>
	<path fill="#333333" d="M247.006,18.719c0,0.961-0.672,1.537-1.368,1.537c-0.672,0-1.056-0.432-1.056-1.129
		c0-0.863,0.672-1.487,1.368-1.487C246.646,17.64,247.006,18.168,247.006,18.719z"/>
</g>
</svg>
