<?xml version="1.0" encoding="utf-8"?>
<!-- Generator: Adobe Illustrator 16.0.3, SVG Export Plug-In . SVG Version: 6.00 Build 0)  -->
<!DOCTYPE svg PUBLIC "-//W3C//DTD SVG 1.1//EN" "http://www.w3.org/Graphics/SVG/1.1/DTD/svg11.dtd">
<svg version="1.1" id="Layer_1" xmlns="http://www.w3.org/2000/svg" xmlns:xlink="http://www.w3.org/1999/xlink" x="0px" y="0px"
	 width="56.638px" height="28px" viewBox="-74.955 0 56.638 28" enable-background="new -74.955 0 56.638 28" xml:space="preserve">
<rect x="-74.955" fill="#FFFFFF" width="56.637" height="28"/>
<g>
	<path fill="#333333" d="M-69.047,7.535c0.695-2.256,0.743-2.568-0.528-2.832l-0.48-0.096c-0.144-0.192-0.119-0.504,0.145-0.6
		c0.72,0.024,1.439,0.072,2.664,0.072h4.537c1.536,0,2.664,0,3.384-0.072c-0.168,0.408-0.744,2.329-0.984,3.192
		c-0.096,0.192-0.527,0.168-0.6-0.024c0.144-1.248,0.216-1.848-0.84-2.136c-0.552-0.144-1.296-0.216-2.544-0.216h-1.417
		c-0.624,0-0.721,0.096-0.937,0.816l-1.536,4.92c-0.216,0.672-0.239,0.696,0.433,0.696h1.2c2.279,0,2.76-0.144,3.313-1.176
		l0.384-0.72c0.097-0.168,0.552-0.144,0.601,0.048c-0.168,0.408-0.553,1.44-0.816,2.328c-0.288,0.912-0.504,1.8-0.624,2.328
		c-0.144,0.192-0.504,0.168-0.6-0.024v-0.672c0-1.248-0.624-1.272-2.473-1.272h-1.199c-0.673,0-0.721,0.024-0.937,0.696
		l-0.984,3.241c-0.407,1.344-0.647,2.159-0.407,2.641c0.168,0.336,0.624,0.504,2.664,0.504c2.64,0,3.6-0.145,5.111-2.496
		c0.192-0.121,0.456-0.072,0.553,0.145c-0.217,0.695-1.032,2.52-1.656,3.168c-1.704-0.072-3.433-0.072-5.497-0.072h-2.832
		c-0.984,0-1.8,0.023-2.856,0.072c-0.191-0.121-0.191-0.457-0.023-0.601l0.84-0.072c1.152-0.097,1.392-0.407,2.16-2.856
		L-69.047,7.535z"/>
	<path fill="#333333" d="M-57.599,15.311l0.072,0.049c1.704-2.593,4.081-5.233,5.88-5.233c0.937,0,1.344,0.504,1.344,1.296
		c0,0.384-0.191,1.128-0.384,1.68c-0.432,1.2-2.16,5.112-2.231,5.304c-0.097,0.24-0.12,0.456,0.048,0.456
		c0.408,0,1.561-0.792,2.256-1.633c0.336-0.047,0.384,0.146,0.384,0.337c-0.912,1.536-2.809,2.688-4.128,2.688
		c-0.216,0-0.576-0.313-0.576-0.601c0-0.216,0.072-0.384,0.576-1.584c0.504-1.177,1.393-3.528,1.944-4.729
		c0.191-0.432,0.504-1.272,0.504-1.752c0-0.288-0.024-0.576-0.384-0.576c-0.576,0-1.992,1.2-3.313,2.856
		c-1.271,1.584-2.256,3.456-3.672,6.096c-0.12,0.217-0.216,0.289-0.432,0.289c-0.265,0-0.912-0.072-0.696-0.625
		c0.12-0.313,2.665-7.224,2.785-7.561c0.12-0.312,0.12-0.552-0.072-0.552c-0.552,0-1.392,0.504-2.184,1.2
		c-0.192,0-0.313-0.168-0.288-0.36c0.912-1.248,2.376-2.232,3.576-2.232c0.575,0,0.84,0.432,0.624,0.984L-57.599,15.311z"/>
	<path fill="#333333" d="M-53.184,25.081c0-0.408,0.313-0.936,0.769-0.936c0.12,0,0.216,0.096,0.288,0.238
		c0.384,0.648,0.936,1.033,1.368,1.033c0.432,0,0.792-0.265,1.199-1.201c0.864-2.063,1.92-5.592,2.593-7.752
		c0.72-2.4,1.296-4.081,1.344-4.537c0.023-0.216-0.097-0.312-0.192-0.312c-0.552,0-1.752,1.176-2.376,1.848
		c-0.191-0.024-0.359-0.216-0.384-0.408c0.504-0.864,2.64-2.928,4.176-2.928c0.313,0,0.601,0.336,0.601,0.696
		c0,0.576-0.696,2.76-1.272,4.632c-0.504,1.606-1.464,4.92-2.184,6.721c-0.864,2.111-2.208,4.199-4.32,4.199
		C-52.728,26.375-53.184,25.608-53.184,25.081z M-42.887,6.095c0,0.744-0.527,1.488-1.247,1.488c-0.624,0-0.841-0.48-0.841-0.888
		c0-0.528,0.336-1.512,1.272-1.512C-43.152,5.183-42.887,5.567-42.887,6.095z"/>
	<path fill="#333333" d="M-34.103,13.151c-0.071,1.32-0.768,3.625-2.544,5.449c-1.487,1.535-2.784,1.656-3.432,1.656
		c-1.536,0-2.544-1.129-2.4-3.193c0.097-1.486,0.984-3.815,2.616-5.376c1.248-1.2,2.329-1.56,3.313-1.56
		C-34.847,10.127-34.008,11.399-34.103,13.151z M-38.472,11.999c-1.392,1.873-2.327,4.728-2.399,6.001
		c-0.048,0.84,0.288,1.535,0.983,1.535c0.528,0,1.129-0.217,1.896-1.248c1.056-1.416,2.184-4.584,2.232-5.856
		c0.023-0.744-0.12-1.584-0.961-1.584C-37.199,10.847-37.776,11.063-38.472,11.999z"/>
	<path fill="#333333" d="M-28.92,14.208c0.023,1.537-0.024,3.289-0.36,5.28h0.096c0.792-1.176,1.488-2.663,2.017-4.128
		c0.504-1.393,0.863-3.817,0.888-4.441c0.048-0.696,0.408-0.744,0.576-0.744s0.479,0.096,0.672,0.216
		c0.144,0.096,0.216,0.216,0.216,0.48c0.024,0.6-0.624,3.696-2.784,7.321c-1.176,1.992-2.041,3.576-3.96,5.76
		c-1.775,2.041-2.976,2.426-3.745,2.426c-0.768,0-1.248-0.504-1.248-1.104s0.433-1.03,0.961-1.03c0.239,0,0.479,0.143,0.647,0.383
		c0.072,0.121,0.288,0.433,0.672,0.433c0.313,0,0.744-0.192,1.32-0.673c0.6-0.504,1.656-2.016,2.112-3.6
		c0.336-1.225,0.504-3.433,0.479-5.474c-0.048-2.664-0.456-3.6-0.912-3.6c-0.479,0-0.888,0.816-1.392,1.824
		c-0.265,0.072-0.408-0.096-0.456-0.312c0.504-1.608,1.56-3.096,2.736-3.096C-29.16,10.127-28.968,12.527-28.92,14.208z"/>
	<path fill="#333333" d="M-22.272,18.719c0,0.961-0.672,1.537-1.368,1.537c-0.672,0-1.056-0.434-1.056-1.129
		c0-0.863,0.672-1.488,1.368-1.488S-22.272,18.168-22.272,18.719z M-18.36,5.183c-0.096,0.288-0.312,0.792-0.792,2.016L-22.128,15
		c-0.097,0.191-0.48,0.191-0.624,0l1.655-7.752c0.265-1.272,0.385-1.776,0.48-2.088c0.192-0.648,0.456-0.744,1.271-0.744
		C-18.408,4.415-18.216,4.727-18.36,5.183z"/>
</g>
</svg>
