<?xml version="1.0" encoding="utf-8"?>
<!-- Generator: Adobe Illustrator 18.1.1, SVG Export Plug-In . SVG Version: 6.00 Build 0)  -->
<svg version="1.1" id="Layer_1" xmlns="http://www.w3.org/2000/svg" xmlns:xlink="http://www.w3.org/1999/xlink" x="0px" y="0px"
	 viewBox="-49 141 512 512" enable-background="new -49 141 512 512" xml:space="preserve">
<g>
	<path fill="#FFFFFF" d="M349.6,310.2c-0.9-2.2-2-4.3-3.5-6.1l-83.8-91.7c-1.9-2.1-4.2-3.6-6.7-4.9c-2.9-1.5-6.1-2.1-9.5-2.1H86.2
		c-12.4,0-22.7,10.6-22.7,23.9v335.2c0,13.4,10.3,24.9,22.7,24.9h243.1c12.4,0,22.2-11.5,22.2-24.9V320.4
		C351.5,316.8,351,313.3,349.6,310.2z M111.5,319.6c0-1.5,1.8-2.1,3.4-2.1h70.8c1.6,0,2.8,0.6,2.8,2.1v10.8c0,1.4-1.1,3.1-2.8,3.1
		h-70.8c-1.6,0-3.4-1.7-3.4-3.1V319.6z M111.5,447.6c0-1.5,1.8-2.1,3.4-2.1h122.2c1.6,0,2.4,0.6,2.4,2.1v10.8c0,1.4-0.7,3.1-2.4,3.1
		H114.9c-1.6,0-3.4-1.7-3.4-3.1V447.6z M271.5,522.4c0,1.4-0.7,3.1-2.4,3.1H114.9c-1.6,0-3.4-1.7-3.4-3.1v-10.8
		c0-1.5,1.8-2.1,3.4-2.1h154.2c1.6,0,2.4,0.6,2.4,2.1L271.5,522.4L271.5,522.4z M303.5,394.4c0,1.4-0.7,3.1-2.4,3.1H114.9
		c-1.6,0-3.4-1.7-3.4-3.1v-10.8c0-1.5,1.8-2.1,3.4-2.1h186.2c1.6,0,2.4,0.6,2.4,2.1L303.5,394.4L303.5,394.4z M256.6,318.5
		c-5.6,0-11.1-5.2-11.1-11.3v-66l71.2,77.3H256.6z"/>
</g>
</svg>
