<?xml version="1.0" encoding="utf-8"?>
<!-- Generator: Adobe Illustrator 18.1.1, SVG Export Plug-In . SVG Version: 6.00 Build 0)  -->
<svg version="1.1" id="Layer_1" xmlns="http://www.w3.org/2000/svg" xmlns:xlink="http://www.w3.org/1999/xlink" x="0px" y="0px"
	 viewBox="-49 141 512 512" enable-background="new -49 141 512 512" xml:space="preserve">
<g>
	<path fill="#FFFFFF" d="M207,173C83.3,173-17,273.3-17,397S83.3,621,207,621s224-100.3,224-224S330.7,173,207,173z M227.2,499.7
		c-0.5,17.8-13.7,28.8-30.8,28.3c-16.4-0.5-29.3-12.2-28.8-30.1c0.5-17.8,14.1-29.1,30.5-28.6C215.3,469.8,227.8,481.9,227.2,499.7z
		 M275.9,372.4c-4.2,5.9-13.6,13.5-25.4,22.7l-13.1,9c-6.4,4.9-10.4,10.7-12.5,17.3c-1.1,3.5-1.9,12.6-2.1,18.7
		c-0.1,1.2-0.8,3.9-4.5,3.9s-35,0-39.1,0s-4.6-2.4-4.5-3.6c0.6-16.6,3-30.3,9.9-41.3c9.3-14.8,35.5-30.4,35.5-30.4
		c4-3,7.1-6.2,9.5-9.7c4.4-6,8-12.7,8-19.9c0-8.3-2-16.2-7.3-22.8c-6.2-7.7-12.9-11.4-25.8-11.4c-12.7,0-20.1,6.4-25.4,14.8
		c-5.3,8.4-4.4,18.3-4.4,27.3H126c0-34,8.9-55.7,27.7-68.5c12.7-8.7,28.9-12.5,47.8-12.5c24.8,0,44.5,4.6,61.9,17.8
		c16.1,12.2,24.6,29.4,24.6,52.6C288,350.7,283,362.7,275.9,372.4z"/>
</g>
</svg>
