<?xml version="1.0" encoding="utf-8"?>
<!-- Generator: Adobe Illustrator 18.1.1, SVG Export Plug-In . SVG Version: 6.00 Build 0)  -->
<svg version="1.1" id="Layer_1" xmlns="http://www.w3.org/2000/svg" xmlns:xlink="http://www.w3.org/1999/xlink" x="0px" y="0px"
	 viewBox="-49 141 512 512" enable-background="new -49 141 512 512" xml:space="preserve">
<g>
	<g>
		<path fill="#FFFFFF" d="M408.6,281.2l-82.5-4l-4.8-53.8c-1-11.3-11.1-19.2-22.9-18.3l-296,24.3c-11.8,1-20.3,10.5-19.4,21.7
			L4.2,486.9c1,11.3,11.2,19.2,22.9,18.3l15-1.2l-2.4,45.8c-0.6,12.6,9.2,22.8,22.4,23.5L392.3,589c13.2,0.6,24.1-8.6,24.8-21.2
			L431,304.5C431.6,292,421.7,281.8,408.6,281.2z M53.6,286.5l-7.1,134.8L29.1,446l-16-178c0-0.2,0-0.3,0-0.5s0-0.3,0-0.5
			c0.5-5,4.3-9,9.5-9.4l261-21.4c5.2-0.4,9.7,3,10.5,7.9c0,0.2,0.3,0.2,0.3,0.4c0,0.1,0.3,0.2,0.3,0.4l2.7,30.8l-219-10.5
			C65.2,264.8,54.2,274,53.6,286.5z M387.7,523.4L341,468.1l-27.5-32.7c-2.4-2.9-6.3-5.3-10.6-5.5c-4.3-0.2-7.5,1.5-11.1,4.1
			l-16.4,11.9c-3.5,2.1-6.2,3.5-9.9,3.3c-3.6-0.2-6.8-1.6-9.1-3.8c-0.8-0.8-2.3-2.2-3.5-3.4l-42.8-48.9c-3.1-3.9-8.2-6.4-13.8-6.7
			c-5.7-0.3-11.2,2.1-14.8,5.6L80.4,500.8l-6.8,7.4l0.3-6.8l6.8-128.9l3.3-62.9c0-0.2,0-0.4,0-0.5c0-0.2,0-0.4,0-0.5
			c1.4-5.4,6.2-9.3,11.9-9l204.2,9.8l28.7,1.4l58.3,2.8c5.8,0.3,10.3,4.7,10.4,10.2c0,0.2,0.3,0.3,0.3,0.5c0,0.2,0.3,0.3,0.3,0.5
			L387.7,523.4z"/>
	</g>
	<path fill="#FFFFFF" d="M324.2,403.3c19.4,0,35.2-15.8,35.2-35.2c0-19.4-15.7-35.2-35.2-35.2c-19.4,0-35.2,15.7-35.2,35.2
		S304.7,403.3,324.2,403.3z"/>
</g>
</svg>
