<?xml version="1.0" encoding="utf-8"?>
<!-- Generator: Adobe Illustrator 18.1.1, SVG Export Plug-In . SVG Version: 6.00 Build 0)  -->
<svg version="1.1" id="Layer_1" xmlns="http://www.w3.org/2000/svg" xmlns:xlink="http://www.w3.org/1999/xlink" x="0px" y="0px"
	 viewBox="-49 141 512 512" enable-background="new -49 141 512 512" xml:space="preserve">
<g>
	<g>
		<path fill="#FFFFFF" d="M143,205c-40.6,0-72.5,11.2-94.6,33.4S15,292.4,15,333v256h160V333H79c0-23.1,4.9-39.7,14.6-49.4
			c9.7-9.7,26.3-14.6,49.4-14.6"/>
	</g>
	<g>
		<path fill="#FFFFFF" d="M367,205c-40.6,0-72.5,11.2-94.6,33.4c-22.1,22.1-33.4,54-33.4,94.6v256h160V333h-96
			c0-23.1,4.9-39.7,14.6-49.4c9.7-9.7,26.3-14.6,49.4-14.6"/>
	</g>
</g>
</svg>
