<?xml version="1.0" encoding="utf-8"?>
<!-- Generator: Adobe Illustrator 18.1.1, SVG Export Plug-In . SVG Version: 6.00 Build 0)  -->
<svg version="1.1" id="Layer_1" xmlns="http://www.w3.org/2000/svg" xmlns:xlink="http://www.w3.org/1999/xlink" x="0px" y="0px"
	 viewBox="0 0 600 600" enable-background="new 0 0 600 600" xml:space="preserve">
<g>
	<path fill="#FFFFFF" d="M297.8,593.8c-78.5,0-152.3-30.6-207.8-86.1C34.6,452.3,4,378.5,4,300c0-78.5,30.6-152.3,86.1-207.8
		S219.3,6.2,297.8,6.2c78.5,0,152.3,30.6,207.8,86.1c55.5,55.5,86.1,129.3,86.1,207.8c0,78.5-30.6,152.3-86.1,207.8
		C450.1,563.3,376.3,593.8,297.8,593.8z M297.8,34.2C151.2,34.2,32,153.4,32,300s119.2,265.8,265.8,265.8S563.6,446.6,563.6,300
		S444.4,34.2,297.8,34.2z"/>
</g>
<g>
	<path fill="#FFFFFF" d="M133.4,425.6V192.5c0-6.1,2.1-11.3,6.3-15.6c4.2-4.3,9.4-6.5,15.5-6.5h289.6c6.1,0,11.3,2.2,15.4,6.5
		c4.2,4.3,6.2,9.5,6.2,15.6v233.1c0,6.1-2.1,11.3-6.2,15.6c-4.2,4.3-9.3,6.5-15.4,6.5H155.3c-6.1,0-11.3-2.2-15.5-6.5
		C135.6,436.9,133.4,431.7,133.4,425.6z M153.7,425.6c0,1.2,0.6,1.8,1.8,1.8h289.1c1.2,0,1.8-0.6,1.8-1.8V192.5
		c0-1.2-0.6-1.8-1.8-1.8H155.5c-1.2,0-1.8,0.6-1.8,1.8V425.6z M173,407.8l8.9-20.2l66.8-136.9l73.8,99.2l36.7-32.1l66.1,90H173z
		 M356.9,271.4c0-4.6,1.5-8.7,4.6-12.1c3.1-3.4,6.7-5.1,10.9-5.1c4.4,0,8.1,1.7,11.2,5.1c3.1,3.4,4.6,7.4,4.6,12.1
		c0,4.9-1.5,9.1-4.6,12.5c-3.1,3.5-6.8,5.2-11.2,5.2c-4.2,0-7.8-1.7-10.9-5.2C358.5,280.5,356.9,276.3,356.9,271.4z"/>
</g>
</svg>
