<?xml version="1.0" encoding="utf-8"?>
<!-- Generator: Adobe Illustrator 18.1.1, SVG Export Plug-In . SVG Version: 6.00 Build 0)  -->
<svg version="1.1" id="Layer_1" xmlns="http://www.w3.org/2000/svg" xmlns:xlink="http://www.w3.org/1999/xlink" x="0px" y="0px"
	 viewBox="0 0 600 600" enable-background="new 0 0 600 600" xml:space="preserve">
<g>
	<path fill="#FFFFFF" d="M297.8,593.8c-78.5,0-152.3-30.6-207.8-86.1C34.6,452.3,4,378.5,4,300c0-78.5,30.6-152.3,86.1-207.8
		S219.3,6.2,297.8,6.2c78.5,0,152.3,30.6,207.8,86.1c55.5,55.5,86.1,129.3,86.1,207.8c0,78.5-30.6,152.3-86.1,207.8
		C450.1,563.3,376.3,593.8,297.8,593.8z M297.8,34.2C151.2,34.2,32,153.4,32,300s119.2,265.8,265.8,265.8S563.6,446.6,563.6,300
		S444.4,34.2,297.8,34.2z"/>
</g>
<g>
	<path fill="#FFFFFF" d="M436.4,300L233.9,502.4V97.6L436.4,300z"/>
</g>
</svg>
