<?xml version="1.0" encoding="utf-8"?>
<!-- Generator: Adobe Illustrator 18.1.1, SVG Export Plug-In . SVG Version: 6.00 Build 0)  -->
<svg version="1.1" id="Layer_1" xmlns="http://www.w3.org/2000/svg" xmlns:xlink="http://www.w3.org/1999/xlink" x="0px" y="0px"
	 viewBox="-49 141 512 512" enable-background="new -49 141 512 512" xml:space="preserve">
<path fill="#FFFDFD" d="M327,205v42.7h-40V205H127v42.7H87V205H47v384h40v-42.7h40V589h160v-42.7h40V589h40V205H327z M127,503.7H87
	V461h40V503.7z M127,418.3H87v-42.7h40V418.3z M127,333H87v-42.7h40V333z M327,503.7h-40V461h40V503.7z M327,418.3h-40v-42.7h40
	V418.3z M327,333h-40v-42.7h40V333z"/>
</svg>
