<?xml version="1.0" encoding="utf-8"?>
<!-- Generator: Adobe Illustrator 18.1.1, SVG Export Plug-In . SVG Version: 6.00 Build 0)  -->
<svg version="1.1" id="NDS" xmlns="http://www.w3.org/2000/svg" xmlns:xlink="http://www.w3.org/1999/xlink" x="0px" y="0px"
	 viewBox="0 0 512 512" enable-background="new 0 0 512 512" xml:space="preserve">
<g>
	<path fill="#18E598" d="M460.4,14.5c8.7,0,15.8,7.1,15.8,15.8v193.2c0,8.7-7.1,15.8-15.8,15.8H51.6c-8.7,0-15.8-7.1-15.8-15.8V30.3
		c0-8.7,7.1-15.8,15.8-15.8H460.4 M460.4,8.5H51.6c-12,0-21.8,9.7-21.8,21.8v193.2c0,12,9.7,21.8,21.8,21.8h408.7
		c12,0,21.8-9.7,21.8-21.8V30.3C482.1,18.3,472.4,8.5,460.4,8.5L460.4,8.5z"/>
</g>
<g>
	<path fill="#18E598" d="M385.6,30.6v195.5H125.7V30.6H385.6 M389.6,26.6H121.7v203.5h267.8V26.6L389.6,26.6z"/>
</g>
<g>
	<path fill="#18E598" d="M472.6,244.9c1.9,0,3.5,1.6,3.5,3.5v19c0,1.9-1.6,3.5-3.5,3.5H39.4c-1.9,0-3.5-1.6-3.5-3.5v-19
		c0-1.9,1.6-3.5,3.5-3.5H472.6 M472.6,238.9H39.4c-5.2,0-9.5,4.3-9.5,9.5v19c0,5.2,4.3,9.5,9.5,9.5h433.3c5.2,0,9.5-4.3,9.5-9.5v-19
		C482.1,243.2,477.9,238.9,472.6,238.9L472.6,238.9z"/>
</g>
<rect x="81.3" y="244" fill="#18E598" width="8.5" height="32.9"/>
<rect x="421.5" y="244" fill="#18E598" width="8.5" height="32.9"/>
<g>
	<rect x="239.5" y="252.7" fill="#18E598" width="25.3" height="10.8"/>
	<rect x="246.7" y="245.4" fill="#18E598" width="10.8" height="25.3"/>
	<rect x="272.6" y="251.8" fill="#18E598" width="11.7" height="11.7"/>
</g>
<g>
	<path fill="#18E598" d="M460.4,271.4H51.6c-12,0-21.8,9.7-21.8,21.8v188.5c0,12,9.7,21.8,21.8,21.8h408.7c12,0,21.8-9.7,21.8-21.8
		V293.2C482.1,281.2,472.4,271.4,460.4,271.4z M88.1,368.9H67.6V356H54.7v-20.6h12.8v-12.8h20.6v12.8h12.8V356H88.1V368.9z
		 M106.5,471.4c-5.1,0-9.3-4.2-9.3-9.3c0-5.1,4.2-9.3,9.3-9.3c5.1,0,9.3,4.2,9.3,9.3C115.7,467.2,111.6,471.4,106.5,471.4z
		 M389.6,488.9H121.7V285.4h267.8V488.9z M407.8,469.4c-3.7,0-6.7-3-6.7-6.7s3-6.7,6.7-6.7s6.7,3,6.7,6.7S411.5,469.4,407.8,469.4z
		 M407.8,446c-3.7,0-6.7-3-6.7-6.7s3-6.7,6.7-6.7s6.7,3,6.7,6.7S411.5,446,407.8,446z M412.5,354.2c-5.1,0-9.3-4.2-9.3-9.3
		c0-5.1,4.2-9.3,9.3-9.3c5.1,0,9.3,4.2,9.3,9.3C421.8,350.1,417.6,354.2,412.5,354.2z M433.7,375.4c-5.1,0-9.3-4.2-9.3-9.3
		c0-5.1,4.2-9.3,9.3-9.3c5.1,0,9.3,4.2,9.3,9.3C443,371.3,438.8,375.4,433.7,375.4z M433.9,332.5c-5.1,0-9.3-4.2-9.3-9.3
		c0-5.1,4.2-9.3,9.3-9.3s9.3,4.2,9.3,9.3C443.1,328.4,439,332.5,433.9,332.5z M455.1,353.7c-5.1,0-9.3-4.2-9.3-9.3
		c0-5.1,4.2-9.3,9.3-9.3c5.1,0,9.3,4.2,9.3,9.3C464.3,349.6,460.2,353.7,455.1,353.7z"/>
</g>
<line fill="none" stroke="#18E598" stroke-width="4" stroke-miterlimit="10" x1="167.6" y1="28" x2="123.2" y2="72.5"/>
<line fill="none" stroke="#18E598" stroke-width="4" stroke-miterlimit="10" x1="353.2" y1="28.3" x2="152.8" y2="228.7"/>
<line fill="none" stroke="#18E598" stroke-width="4" stroke-miterlimit="10" x1="387.4" y1="66.8" x2="225.5" y2="228.8"/>
<line opacity="0.5" fill="none" stroke="#18E598" stroke-width="4" stroke-miterlimit="10" x1="301.5" y1="27.7" x2="123.2" y2="206.1"/>
</svg>
