<?xml version="1.0" encoding="utf-8"?>
<!-- Generator: Adobe Illustrator 18.0.0, SVG Export Plug-In . SVG Version: 6.00 Build 0)  -->
<!DOCTYPE svg PUBLIC "-//W3C//DTD SVG 1.1//EN" "http://www.w3.org/Graphics/SVG/1.1/DTD/svg11.dtd">
<svg version="1.1" id="Layer_1" xmlns="http://www.w3.org/2000/svg" xmlns:xlink="http://www.w3.org/1999/xlink" x="0px" y="0px"
	 viewBox="0 0 40 40" enable-background="new 0 0 40 40" xml:space="preserve">
<g>
	<polygon fill="#20282E" points="38.8,20 33.2,27.3 27.5,20 33.2,12.7 	"/>
	<path fill="#20282E" d="M33.2,32.9c0,1.7-1.4,3.1-3.1,3.1H4.3c-1.7,0-3.1-1.4-3.1-3.1V7.1C1.2,5.4,2.6,4,4.3,4H30
		c1.7,0,3.1,1.4,3.1,3.1V32.9z"/>
</g>
<g>
	<g>
		<g>
			<path fill="#FFFFFF" d="M23.8,18.2c-0.1,0-0.3-0.1-0.3-0.2c-0.9-2.8-3.4-4.6-6.3-4.6s-5.5,1.9-6.3,4.6c-0.1,0.2-0.3,0.3-0.4,0.2
				c-0.2-0.1-0.3-0.3-0.2-0.4c1-3.1,3.8-5.1,7-5.1c3.2,0,6,2.1,7,5.1c0.1,0.2,0,0.4-0.2,0.4C23.9,18.2,23.9,18.2,23.8,18.2z"/>
		</g>
		<g>
			<path fill="#FFFFFF" d="M17.2,27.4c-3.2,0-6-2.1-7-5.1c-0.1-0.2,0-0.4,0.2-0.4c0.2-0.1,0.4,0,0.4,0.2c0.9,2.8,3.4,4.6,6.3,4.6
				s5.5-1.9,6.3-4.6c0.1-0.2,0.3-0.3,0.4-0.2c0.2,0.1,0.3,0.3,0.2,0.4C23.2,25.3,20.4,27.4,17.2,27.4z"/>
		</g>
	</g>
	<g>
		<path fill="#FFFFFF" d="M24.5,18.2h-6.3c-0.2,0-0.3-0.2-0.3-0.3s0.2-0.3,0.3-0.3h5.7v-5.7c0-0.2,0.2-0.3,0.3-0.3s0.3,0.2,0.3,0.3
			V18.2z"/>
	</g>
	<g>
		<path fill="#FFFFFF" d="M10.2,28.5c-0.2,0-0.3-0.2-0.3-0.3v-6.3h6.3c0.2,0,0.3,0.2,0.3,0.3s-0.2,0.3-0.3,0.3h-5.7v5.7
			C10.5,28.3,10.4,28.5,10.2,28.5z"/>
	</g>
</g>
</svg>
