<?xml version="1.0" encoding="utf-8"?>
<!-- Generator: Adobe Illustrator 18.0.0, SVG Export Plug-In . SVG Version: 6.00 Build 0)  -->
<!DOCTYPE svg PUBLIC "-//W3C//DTD SVG 1.1//EN" "http://www.w3.org/Graphics/SVG/1.1/DTD/svg11.dtd">
<svg version="1.1" id="Layer_1" xmlns="http://www.w3.org/2000/svg" xmlns:xlink="http://www.w3.org/1999/xlink" x="0px" y="0px"
	 viewBox="0 0 90 72" enable-background="new 0 0 90 72" xml:space="preserve">
<g>
	<g>
		<polygon fill="#671619" points="87.5,36 74.6,52.5 61.9,36 74.6,19.5 		"/>
		<path fill="#671619" d="M74.6,65c0,3.8-3.2,7-7,7H9.5c-3.8,0-7-3.2-7-7V7c0-3.8,3.2-7,7-7h58.1c3.8,0,7,3.2,7,7V65L74.6,65z"/>
	</g>
	<g>
		<path fill="#FFFFFF" d="M38.9,55.5c-10.9,0-19.5-8.8-19.5-19.5s8.8-19.5,19.5-19.5c10.9,0,19.5,8.8,19.5,19.5S49.8,55.5,38.9,55.5
			z M38.9,17.9c-9.9,0-18.1,8.1-18.1,18.1S29,54.1,38.9,54.1S57,45.9,57,36S48.9,17.9,38.9,17.9z"/>
		<path fill="#FFFFFF" d="M57.8,36.8H20.3c-0.4,0-0.8-0.3-0.8-0.8s0.3-0.8,0.8-0.8h37.6c0.4,0,0.8,0.3,0.8,0.8S58.3,36.8,57.8,36.8z
			"/>
		<path fill="#FFFFFF" d="M38.9,55.5c-6.6,0-12-8.8-12-19.5s5.4-19.5,12-19.5s12,8.8,12,19.5S45.6,55.5,38.9,55.5z M38.9,17.9
			c-5.8,0-10.5,8.1-10.5,18.1s4.7,18.1,10.5,18.1S49.5,45.9,49.5,36S44.8,17.9,38.9,17.9z"/>
		<path fill="#FFFFFF" d="M38.9,55.5c-0.4,0-0.8-0.3-0.8-0.8V17.2c0-0.4,0.3-0.8,0.8-0.8s0.8,0.3,0.8,0.8v37.6
			C39.8,55.2,39.4,55.5,38.9,55.5z"/>
		<path fill="#FFFFFF" d="M38.9,28.5c-5.6,0-11.1-1.5-14.7-4.1c-0.3-0.2-0.4-0.7-0.2-1c0.2-0.3,0.7-0.4,1-0.2
			c3.5,2.4,8.6,3.8,13.8,3.8c5.3,0,10.3-1.4,13.8-3.8c0.3-0.2,0.8-0.2,1,0.2c0.2,0.3,0.2,0.8-0.2,1C50,27,44.6,28.5,38.9,28.5z"/>
		<path fill="#FFFFFF" d="M24.8,48.9c-0.2,0-0.5-0.1-0.6-0.3c-0.2-0.3-0.2-0.8,0.2-1c3.7-2.6,9-4.1,14.6-4.1S50,45,53.7,47.6
			c0.3,0.2,0.4,0.7,0.2,1c-0.2,0.3-0.7,0.4-1,0.2c-3.5-2.4-8.6-3.8-13.8-3.8c-5.3,0-10.3,1.4-13.8,3.8
			C25.1,48.9,24.9,48.9,24.8,48.9z"/>
	</g>
</g>
</svg>
