<?xml version="1.0" encoding="utf-8"?>
<!-- Generator: Adobe Illustrator 18.0.0, SVG Export Plug-In . SVG Version: 6.00 Build 0)  -->
<!DOCTYPE svg PUBLIC "-//W3C//DTD SVG 1.1//EN" "http://www.w3.org/Graphics/SVG/1.1/DTD/svg11.dtd">
<svg version="1.1" id="Layer_1" xmlns="http://www.w3.org/2000/svg" xmlns:xlink="http://www.w3.org/1999/xlink" x="0px" y="0px"
	 viewBox="0 0 90 75" enable-background="new 0 0 90 75" xml:space="preserve">
<g>
	<g>
		<polygon fill="#20282E" points="87.4,37.5 74.6,54 61.9,37.5 74.6,21 		"/>
		<path fill="#20282E" d="M74.6,66.5c0,3.8-3.2,7-7,7h-58c-3.8,0-7-3.2-7-7l0-58c0-3.8,3.2-7,7-7h58c3.8,0,7,3.2,7,7V66.5z"/>
	</g>
	<g>
		<g>
			<path fill="#FFFFFF" d="M36.8,36H26.3c-0.4,0-0.8-0.3-0.8-0.8V24.8c0-0.4,0.3-0.8,0.8-0.8h10.5c0.4,0,0.8,0.3,0.8,0.8v10.5
				C37.5,35.7,37.2,36,36.8,36z M27,34.5h9v-9h-9V34.5z"/>
		</g>
		<g>
			<path fill="#FFFFFF" d="M51.8,36H41.3c-0.4,0-0.8-0.3-0.8-0.8V24.8c0-0.4,0.3-0.8,0.8-0.8h10.5c0.4,0,0.8,0.3,0.8,0.8v10.5
				C52.5,35.7,52.2,36,51.8,36z M42,34.5h9v-9h-9V34.5z"/>
		</g>
		<g>
			<path fill="#FFFFFF" d="M36.8,51H26.3c-0.4,0-0.8-0.3-0.8-0.8V39.8c0-0.4,0.3-0.8,0.8-0.8h10.5c0.4,0,0.8,0.3,0.8,0.8v10.5
				C37.5,50.7,37.2,51,36.8,51z M27,49.5h9v-9h-9V49.5z"/>
		</g>
		<g>
			<path fill="#FFFFFF" d="M51.8,51H41.3c-0.4,0-0.8-0.3-0.8-0.8V39.8c0-0.4,0.3-0.8,0.8-0.8h10.5c0.4,0,0.8,0.3,0.8,0.8v10.5
				C52.5,50.7,52.2,51,51.8,51z M42,49.5h9v-9h-9V49.5z"/>
		</g>
	</g>
</g>
</svg>
