<?xml version="1.0" encoding="utf-8"?>
<!-- Generator: Adobe Illustrator 18.0.0, SVG Export Plug-In . SVG Version: 6.00 Build 0)  -->
<!DOCTYPE svg PUBLIC "-//W3C//DTD SVG 1.1//EN" "http://www.w3.org/Graphics/SVG/1.1/DTD/svg11.dtd">
<svg version="1.1" id="Layer_1" xmlns="http://www.w3.org/2000/svg" xmlns:xlink="http://www.w3.org/1999/xlink" x="0px" y="0px"
	 viewBox="0 0 90 75" enable-background="new 0 0 90 75" xml:space="preserve">
<g>
	<g>
		<path fill="#FFFFFF" d="M39,57c-10.8,0-19.5-8.7-19.5-19.5C19.5,26.7,28.2,18,39,18c10.8,0,19.5,8.7,19.5,19.5
			C58.5,48.3,49.8,57,39,57z M39,19.5c-9.9,0-18,8.1-18,18c0,9.9,8.1,18,18,18c9.9,0,18-8.1,18-18C57,27.6,48.9,19.5,39,19.5z"/>
		<path fill="#FFFFFF" d="M57.8,38.3H20.3c-0.4,0-0.8-0.3-0.8-0.8s0.3-0.8,0.8-0.8h37.5c0.4,0,0.8,0.3,0.8,0.8S58.2,38.3,57.8,38.3z
			"/>
		<path fill="#FFFFFF" d="M39,57c-6.6,0-12-8.7-12-19.5C27,26.7,32.4,18,39,18c6.6,0,12,8.7,12,19.5C51,48.3,45.6,57,39,57z
			 M39,19.5c-5.8,0-10.5,8.1-10.5,18c0,9.9,4.7,18,10.5,18s10.5-8.1,10.5-18C49.5,27.6,44.8,19.5,39,19.5z"/>
		<path fill="#FFFFFF" d="M39,57c-0.4,0-0.8-0.3-0.8-0.8V18.8c0-0.4,0.3-0.8,0.8-0.8s0.8,0.3,0.8,0.8v37.5C39.8,56.7,39.4,57,39,57z
			"/>
		<path fill="#FFFFFF" d="M39,30c-5.6,0-11-1.5-14.7-4.1c-0.3-0.2-0.4-0.7-0.2-1c0.2-0.3,0.7-0.4,1-0.2c3.5,2.4,8.5,3.8,13.8,3.8
			c5.3,0,10.3-1.4,13.8-3.8c0.3-0.2,0.8-0.2,1,0.2c0.2,0.3,0.2,0.8-0.2,1C50,28.5,44.6,30,39,30z"/>
		<path fill="#FFFFFF" d="M24.8,50.4c-0.2,0-0.5-0.1-0.6-0.3c-0.2-0.3-0.2-0.8,0.2-1C28,46.5,33.4,45,39,45c5.6,0,11,1.5,14.7,4.1
			c0.3,0.2,0.4,0.7,0.2,1c-0.2,0.3-0.7,0.4-1,0.2c-3.5-2.4-8.5-3.8-13.8-3.8c-5.3,0-10.3,1.4-13.8,3.8
			C25.1,50.4,24.9,50.4,24.8,50.4z"/>
	</g>
</g>
<g>
	<polyline fill="#0B683A" points="74.6,21 74.6,54 87.4,37.5 74.6,21 	"/>
	<path fill="#0B683A" d="M67.6,1.5h-58c-3.9,0-7,3.1-7,7v58c0,3.8,3.1,7,7,7h58c3.8,0,7-3.1,7-7V54V21V8.5
		C74.6,4.7,71.5,1.5,67.6,1.5"/>
	<path fill="#FFFFFF" d="M55.3,23.8l-20,25.8L22.7,36c-0.3-0.3-0.8-0.3-1.1,0c-0.3,0.3-0.3,0.8,0,1.1l13.2,14.2
		c0.1,0.2,0.4,0.2,0.6,0.2c0.2,0,0.4-0.1,0.6-0.3l20.6-26.5c0.3-0.3,0.2-0.8-0.1-1.1C56,23.4,55.5,23.5,55.3,23.8L55.3,23.8z"/>
</g>
</svg>
