<?xml version="1.0" encoding="utf-8"?>
<!-- Generator: Adobe Illustrator 18.0.0, SVG Export Plug-In . SVG Version: 6.00 Build 0)  -->
<!DOCTYPE svg PUBLIC "-//W3C//DTD SVG 1.1//EN" "http://www.w3.org/Graphics/SVG/1.1/DTD/svg11.dtd">
<svg version="1.1" id="Layer_1" xmlns="http://www.w3.org/2000/svg" xmlns:xlink="http://www.w3.org/1999/xlink" x="0px" y="0px"
	 viewBox="0 0 40 40" enable-background="new 0 0 40 40" xml:space="preserve">
<g>
	<path fill="#F9D2E2" d="M20,33.3c-0.2,0-0.3,0-0.5-0.1C18.7,32.7-0.7,21.6,4.2,11.4c1.4-3,4.1-4.7,7.2-4.7c3.3,0,6.6,1.8,8.5,4.5
		c1.9-2.7,5.2-4.5,8.5-4.5c3.2,0,5.8,1.7,7.2,4.7c4.9,10.3-14.4,21.4-15.3,21.8C20.3,33.3,20.2,33.3,20,33.3z M11.5,8.7
		c-2.4,0-4.4,1.3-5.4,3.5c-3.8,7.8,11,17.2,14,18.9c2.9-1.8,17.7-11.1,14-18.9c-1.1-2.3-3-3.5-5.4-3.5c-3.2,0-6.4,2.1-7.6,4.9
		c-0.2,0.4-0.5,0.6-0.9,0.6s-0.8-0.2-0.9-0.6C17.8,10.8,14.6,8.7,11.5,8.7z"/>
</g>
</svg>
