<?xml version="1.0" encoding="utf-8"?>
<!-- Generator: Adobe Illustrator 18.0.0, SVG Export Plug-In . SVG Version: 6.00 Build 0)  -->
<!DOCTYPE svg PUBLIC "-//W3C//DTD SVG 1.1//EN" "http://www.w3.org/Graphics/SVG/1.1/DTD/svg11.dtd">
<svg version="1.1" id="Layer_1" xmlns="http://www.w3.org/2000/svg" xmlns:xlink="http://www.w3.org/1999/xlink" x="0px" y="0px"
	 viewBox="0 0 40 40" enable-background="new 0 0 40 40" xml:space="preserve">
<g>
	<g>
		<path fill="#FFDC90" d="M24.8,37.4C24.8,37.4,24.8,37.4,24.8,37.4c-0.5,0-0.8-0.3-0.9-0.7l-4.8-13.3c-0.2-0.5,0.1-1.1,0.6-1.3
			c0.5-0.2,1.1,0.1,1.3,0.6l4.1,11.3l1.9-3.2c0.2-0.4,0.7-0.6,1.2-0.4l3.6,1.2l-4.1-11.3c-0.2-0.5,0.1-1.1,0.6-1.3
			c0.5-0.2,1.1,0.1,1.3,0.6l4.8,13.3c0.1,0.4,0,0.8-0.2,1s-0.7,0.4-1,0.2l-4.8-1.6l-2.6,4.3C25.5,37.2,25.2,37.4,24.8,37.4z"/>
	</g>
	<g>
		<path fill="#FFDC90" d="M15.2,37.4c-0.3,0-0.7-0.2-0.9-0.5l-2.6-4.3l-4.8,1.6c-0.4,0.1-0.8,0-1-0.2c-0.3-0.3-0.4-0.7-0.2-1
			l4.8-13.3c0.2-0.5,0.8-0.8,1.3-0.6c0.5,0.2,0.8,0.8,0.6,1.3L8.3,31.6l3.6-1.2c0.4-0.2,0.9,0,1.2,0.4l1.9,3.2l4.1-11.3
			c0.2-0.5,0.8-0.8,1.3-0.6c0.5,0.2,0.8,0.8,0.6,1.3l-4.8,13.3C16,37.1,15.6,37.3,15.2,37.4C15.2,37.4,15.2,37.4,15.2,37.4z"/>
	</g>
	<g>
		<path fill="#FFDC90" d="M20,24.1c-5.9,0-10.8-4.8-10.8-10.7C9.3,7.4,14.1,2.6,20,2.6s10.8,4.8,10.8,10.8
			C30.8,19.3,25.9,24.1,20,24.1z M20,4.6c-4.8,0-8.8,3.9-8.8,8.8s3.9,8.7,8.8,8.7c4.8,0,8.8-3.9,8.8-8.7S24.8,4.6,20,4.6z"/>
	</g>
</g>
</svg>
