<?xml version="1.0" encoding="utf-8"?>
<!-- Generator: Adobe Illustrator 18.0.0, SVG Export Plug-In . SVG Version: 6.00 Build 0)  -->
<!DOCTYPE svg PUBLIC "-//W3C//DTD SVG 1.1//EN" "http://www.w3.org/Graphics/SVG/1.1/DTD/svg11.dtd">
<svg version="1.1" id="Layer_1" xmlns="http://www.w3.org/2000/svg" xmlns:xlink="http://www.w3.org/1999/xlink" x="0px" y="0px"
	 viewBox="0 0 40 40" enable-background="new 0 0 40 40" xml:space="preserve">
<g>
	<g>
		<g>
			<path fill="#D6DDFF" d="M38,33.7H16.6c-0.6,0-1-0.4-1-1v-1.6c0-2.5,2.4-4.3,4.2-4.6c0.6-0.1,2.5-0.5,3.2-1.8
				c0.1-0.2,0.3-0.8,0.3-1.6v-1.6c0-0.6,0.4-1,1-1s1,0.4,1,1v1.6c0,1.2-0.3,2.1-0.6,2.5c-1.1,2.1-3.6,2.7-4.6,2.8
				c-0.9,0.1-2.5,1.2-2.5,2.6v0.6H37v-0.6c0-1.4-1.6-2.4-2.5-2.6c-1-0.2-3.5-0.8-4.6-2.8c-0.2-0.4-0.4-1.1-0.5-2.3
				c0.1,0.4,0.5,0.8,1,0.7c-0.3,0-0.6-0.1-0.8-0.3c-0.2-0.2-0.3-0.5-0.3-0.7v-1.6c0-0.6,0.4-1,1-1s1,0.4,1,1v1.6c0,0,0,0,0,0
				c0.2,1.3,0.3,1.6,0.3,1.6c0.7,1.3,2.6,1.7,3.2,1.8c1.8,0.3,4.2,2,4.2,4.6v1.6C39,33.3,38.5,33.7,38,33.7z"/>
		</g>
	</g>
	<g>
		<g>
			<path fill="#D6DDFF" d="M16.7,33.7H2c-0.6,0-1-0.4-1-1v-1.4c0-2.3,2.2-3.9,3.8-4.2c1-0.2,2.3-0.7,2.8-1.6
				c0.1-0.2,0.3-0.7,0.3-1.4v-1.5c0-0.6,0.4-1,1-1s1,0.4,1,1v1.5c0,1.1-0.3,1.9-0.5,2.3c-1,1.9-3.3,2.5-4.2,2.6
				c-0.8,0.1-2.2,1-2.2,2.2v0.4h13.6c0.6,0,1,0.4,1,1S17.2,33.7,16.7,33.7z"/>
		</g>
		<g>
			<path fill="#D6DDFF" d="M18.2,29.1c-0.1,0-0.1,0-0.2,0c-0.9-0.2-3.2-0.7-4.2-2.6c-0.2-0.4-0.3-1-0.5-2.1c0.1,0.4,0.5,0.8,1,0.8
				c-0.3,0-0.5-0.1-0.8-0.3c-0.2-0.2-0.3-0.5-0.3-0.7v-1.5c0-0.6,0.4-1,1-1s1,0.4,1,1v1.4c0,0,0,0,0,0c0.2,1.1,0.3,1.4,0.3,1.4
				c0.5,0.9,1.7,1.4,2.7,1.6c0.5,0.1,0.9,0.6,0.8,1.2C19.1,28.8,18.7,29.1,18.2,29.1z"/>
		</g>
	</g>
	<g>
		<path fill="#D6DDFF" d="M27.3,24.4c-3.1,0-5.2-4.3-5.7-6.2c0-0.2-0.1-0.3-0.1-0.4c-0.6-0.2-1-0.8-1.1-1.4l-0.2-1.7
			c0-0.4,0.1-0.9,0.4-1.2c0.2-0.2,0.3-0.3,0.5-0.4c0.1-1,0.3-3.8,1.2-5c1.1-1.4,3.2-1.9,4.9-1.9s3.8,0.5,4.9,1.9
			c0.9,1.2,1.1,4,1.2,5c0.2,0.1,0.4,0.2,0.5,0.4c0.3,0.3,0.4,0.8,0.4,1.2l-0.2,1.7c-0.1,0.6-0.5,1.2-1.1,1.4c0,0.1,0,0.2-0.1,0.4
			C32.4,20.1,30.3,24.4,27.3,24.4z M22.4,15.9c0.5,0.2,1,0.7,1.1,1.4c0,0,0,0.2,0.1,0.4c0.5,1.9,2.2,4.7,3.7,4.7s3.3-2.8,3.7-4.7
			c0.1-0.2,0.1-0.4,0.1-0.4c0.1-0.7,0.5-1.2,1.1-1.4l0.1-1c-0.5-0.2-0.9-0.8-0.9-1.4c-0.1-1.6-0.4-3.6-0.8-4.1
			c-0.5-0.7-1.8-1.1-3.3-1.1S24.5,8.7,24,9.4c-0.4,0.5-0.7,2.5-0.8,4.1c0,0.6-0.4,1.2-0.9,1.4L22.4,15.9z"/>
	</g>
	<g>
		<path fill="#D6DDFF" d="M11.6,25.4C9,25.4,7,22,6.4,19.7c0-0.1-0.1-0.2-0.1-0.3c-0.5-0.2-0.9-0.7-1-1.3l-0.2-1.5
			c0-0.4,0.1-0.8,0.4-1.2c0.1-0.1,0.3-0.3,0.5-0.3c0.1-0.9,0.3-3.4,1.1-4.4c1-1.3,2.9-1.8,4.5-1.8s3.5,0.5,4.5,1.8
			c0.8,1,1,3.5,1.1,4.4c0.2,0.1,0.3,0.2,0.5,0.3c0.3,0.3,0.4,0.7,0.4,1.2l-0.2,1.5c-0.1,0.6-0.5,1.1-1,1.3c0,0.1,0,0.2-0.1,0.3
			C16.2,22,14.2,25.4,11.6,25.4z M7.3,17.6c0.5,0.2,0.9,0.7,1,1.3c0,0,0,0.2,0.1,0.4c0.4,1.7,2,4.1,3.2,4.1c1.3,0,2.8-2.5,3.2-4.1
			c0.1-0.2,0.1-0.3,0.1-0.4c0.1-0.6,0.5-1.1,1-1.3l0.1-0.8c-0.4-0.2-0.8-0.7-0.8-1.3c-0.1-1.4-0.4-3.2-0.7-3.6c-0.4-0.6-1.6-1-2.9-1
			s-2.4,0.4-2.9,1c-0.3,0.4-0.6,2.2-0.7,3.6c0,0.6-0.3,1.1-0.8,1.3L7.3,17.6z"/>
	</g>
</g>
</svg>
