<?xml version="1.0" encoding="utf-8"?>
<!-- Generator: Adobe Illustrator 18.0.0, SVG Export Plug-In . SVG Version: 6.00 Build 0)  -->
<!DOCTYPE svg PUBLIC "-//W3C//DTD SVG 1.1//EN" "http://www.w3.org/Graphics/SVG/1.1/DTD/svg11.dtd">
<svg version="1.1" id="Layer_1" xmlns="http://www.w3.org/2000/svg" xmlns:xlink="http://www.w3.org/1999/xlink" x="0px" y="0px"
	 viewBox="0 0 40 40" enable-background="new 0 0 40 40" xml:space="preserve">
<g>
	<g>
		<path fill="#9AFFA3" d="M20,33.5c-0.6,0-1-0.4-1-1c0-2-1.7-3.7-3.7-3.7H2.7c-0.6,0-1-0.4-1-1V7.5c0-0.6,0.4-1,1-1h12.6
			c3.1,0,5.7,2.6,5.7,5.7v20.3C21,33.1,20.6,33.5,20,33.5z M3.7,26.8h11.6c1.4,0,2.7,0.5,3.7,1.4v-16c0-2-1.7-3.7-3.7-3.7H3.7V26.8z
			"/>
	</g>
	<g>
		<path fill="#9AFFA3" d="M20,33.5c-0.6,0-1-0.4-1-1V12.2c0-3.1,2.6-5.7,5.7-5.7h12.6c0.6,0,1,0.4,1,1v20.3c0,0.6-0.4,1-1,1H24.7
			c-2,0-3.7,1.7-3.7,3.7C21,33.1,20.6,33.5,20,33.5z M24.7,8.5c-2,0-3.7,1.7-3.7,3.7v16c1-0.9,2.3-1.4,3.7-1.4h11.6V8.5H24.7z"/>
	</g>
</g>
</svg>
