<?xml version="1.0" encoding="utf-8"?>
<!-- Generator: Adobe Illustrator 18.0.0, SVG Export Plug-In . SVG Version: 6.00 Build 0)  -->
<!DOCTYPE svg PUBLIC "-//W3C//DTD SVG 1.1//EN" "http://www.w3.org/Graphics/SVG/1.1/DTD/svg11.dtd">
<svg version="1.1" id="Layer_1" xmlns="http://www.w3.org/2000/svg" xmlns:xlink="http://www.w3.org/1999/xlink" x="0px" y="0px"
	 viewBox="0 0 100 55" enable-background="new 0 0 100 55" xml:space="preserve">
<g>
	<path fill="#98A6B1" d="M53.8,8.7h-6.3V2.4c0-0.7-0.6-1.3-1.3-1.3H18.6c-0.7,0-1.3,0.6-1.3,1.3v6.3h-6.3c-4.8,0-8.8,3.9-8.8,8.8
		v27.6c0,4.8,3.9,8.8,8.8,8.8h42.7c4.8,0,8.8-3.9,8.8-8.8V17.5C62.6,12.6,58.6,8.7,53.8,8.7z M60,45.1c0,3.5-2.8,6.3-6.3,6.3H11.1
		c-3.5,0-6.3-2.8-6.3-6.3V17.5c0-3.5,2.8-6.3,6.3-6.3h7.5h27.6h7.5c3.5,0,6.3,2.8,6.3,6.3V45.1z"/>
	<path fill="#98A6B1" d="M32.4,18.7c-6.9,0-12.6,5.6-12.6,12.6c0,6.9,5.6,12.6,12.6,12.6S45,38.2,45,31.3
		C45,24.3,39.3,18.7,32.4,18.7z M32.4,41.3c-5.5,0-10-4.5-10-10c0-5.5,4.5-10,10-10c5.5,0,10,4.5,10,10C42.5,36.8,38,41.3,32.4,41.3
		z"/>
	<polygon fill="#98A6B1" points="86.1,29.3 86.1,17.6 83.6,17.6 83.6,29.3 72,29.3 72,31.8 83.6,31.8 83.6,43.4 86.1,43.4 
		86.1,31.8 97.7,31.8 97.7,29.3 	"/>
</g>
</svg>
