<?xml version="1.0" encoding="utf-8"?>
<!-- Generator: Adobe Illustrator 18.1.0, SVG Export Plug-In . SVG Version: 6.00 Build 0)  -->
<!DOCTYPE svg PUBLIC "-//W3C//DTD SVG 1.1//EN" "http://www.w3.org/Graphics/SVG/1.1/DTD/svg11.dtd">
<svg version="1.1" id="Layer_1" xmlns="http://www.w3.org/2000/svg" xmlns:xlink="http://www.w3.org/1999/xlink" x="0px" y="0px"
	 viewBox="0 0 120 120" enable-background="new 0 0 120 120" xml:space="preserve">
<g>
	<polygon fill="#948E91" points="3.4,60 20.3,37.9 37.5,60 20.3,82.1 	"/>
	<path fill="#948E91" d="M20.3,21.4c0-5.3,4.1-9.4,9.4-9.4h77.6c5.3,0,9.4,4.1,9.4,9.4l-0.4,77.3c0,5.3-4.1,9.4-9.4,9.4H29.6
		c-5.2,0-9.4-4.1-9.4-9.4L20.3,21.4L20.3,21.4z"/>
</g>
<g>
	<g>
		<path fill="#FFFFFF" d="M67.4,33.9c0.5,0.3,1.1,0.8,1.7,1.4c0.6,0.6,1.2,1.4,1.8,2.3c0.5,0.9,1,1.9,1.5,3c0.3,1.2,0.5,2.5,0.5,4.1
			c0,2.8-0.7,5.1-1.9,6.8c-0.6,0.8-1.2,1.6-1.9,2.3c-0.7,0.7-1.5,1.4-2.3,2.1c-0.5,0.5-0.9,1-1.3,1.7c-0.5,0.6-0.7,1.4-0.7,2.2
			s0.2,1.5,0.7,2.1c0.4,0.5,0.8,1,1.2,1.4l2.7,2.2c1.7,1.4,3.1,2.9,4.4,4.5c1.2,1.7,1.8,3.9,1.9,6.6c0,3.9-1.7,7.3-5.1,10.2
			c-3.5,3.1-8.6,4.7-15.3,4.8c-5.6-0.1-9.7-1.2-12.5-3.6c-2.8-2.2-4.2-4.8-4.2-7.8c0-1.5,0.5-3.1,1.4-4.9s2.5-3.4,4.8-4.8
			c2.6-1.5,5.3-2.5,8.1-2.9c2.8-0.4,5.1-0.6,7-0.7c-0.6-0.8-1.1-1.6-1.5-2.4c-0.5-0.8-0.8-1.8-0.8-3c0-0.7,0.1-1.3,0.3-1.8
			s0.3-0.9,0.5-1.4c-0.9,0.1-1.8,0.2-2.6,0.2c-4.2-0.1-7.5-1.4-9.7-4c-2.3-2.4-3.5-5.3-3.5-8.5c0-3.9,1.6-7.4,4.9-10.6
			c2.3-1.9,4.6-3.1,7-3.6c2.4-0.5,4.7-0.7,6.8-0.7h15.9L72.3,34L67.4,33.9L67.4,33.9z M70.5,79.6c0-2-0.7-3.8-2-5.3
			c-1.4-1.4-3.6-3.2-6.5-5.2C61.5,69,60.9,69,60.2,69c-0.4-0.1-1.4,0-3.1,0.2c-1.6,0.2-3.3,0.6-5.1,1.1c-0.4,0.2-1,0.4-1.7,0.7
			c-0.7,0.3-1.5,0.8-2.2,1.4s-1.4,1.4-1.9,2.4c-0.6,1-0.9,2.2-0.9,3.6c0,2.8,1.3,5.1,3.8,6.9c2.4,1.8,5.7,2.7,9.9,2.8
			c3.7-0.1,6.6-0.9,8.6-2.5C69.5,84.1,70.5,82.1,70.5,79.6z M59.4,56.3c2.1-0.1,3.8-0.8,5.2-2.3c0.7-1,1.1-2,1.3-3.1
			c0.1-1.1,0.2-2,0.2-2.7c0-3.1-0.8-6.3-2.4-9.5c-0.8-1.5-1.7-2.8-3-3.7s-2.7-1.4-4.3-1.4c-2.2,0.1-3.9,0.9-5.4,2.6
			c-1.2,1.8-1.8,3.7-1.7,5.9c0,2.9,0.8,5.9,2.5,9c0.8,1.5,1.9,2.7,3.2,3.7C56.3,55.8,57.7,56.3,59.4,56.3z"/>
	</g>
	<polygon id="PLUS" fill="#FFFFFF" points="98.8,39.7 90.4,39.7 90.4,31.3 86.4,31.3 86.4,39.7 78,39.7 78,43.7 86.4,43.7 
		86.4,52.1 90.4,52.1 90.4,43.7 98.8,43.7 	"/>
</g>
</svg>
