<?xml version="1.0" encoding="utf-8"?>
<!-- Generator: Adobe Illustrator 18.1.0, SVG Export Plug-In . SVG Version: 6.00 Build 0)  -->
<!DOCTYPE svg PUBLIC "-//W3C//DTD SVG 1.1//EN" "http://www.w3.org/Graphics/SVG/1.1/DTD/svg11.dtd">
<svg version="1.1" id="Layer_1" xmlns="http://www.w3.org/2000/svg" xmlns:xlink="http://www.w3.org/1999/xlink" x="0px" y="0px"
	 viewBox="0 0 120 120" enable-background="new 0 0 120 120" xml:space="preserve">
<g>
	<polygon fill="#58B84A" points="3.4,60 20.3,37.9 37.5,60 20.3,82.1 	"/>
	<path fill="#58B84A" d="M20.3,21.4c0-5.3,4.1-9.4,9.4-9.4h77.6c5.3,0,9.4,4.1,9.4,9.4l-0.4,77.3c0,5.3-4.1,9.4-9.4,9.4H29.6
		c-5.2,0-9.4-4.1-9.4-9.4V21.4z"/>
</g>
<g>
	<path fill="#58B84A" d="M69.1,33.2c-14.2,0-25.8,11.5-25.8,25.8c0,8.3,5,15.3,5,15.3l-3.1,9.4l9.7-3.2c0,0,6.3,4.3,14.2,4.3
		c14.2,0,25.8-11.5,25.8-25.8C94.9,44.8,83.3,33.2,69.1,33.2z"/>
	<path fill="#FFFFFF" d="M69.1,28.3c-17,0-30.7,13.7-30.7,30.7c0,8.4,4.5,15.9,4.5,15.9l-5.4,16.3l16.8-5.4c0,0,6.2,3.8,14.8,3.8
		c17,0,30.7-13.7,30.7-30.7C99.8,42.1,86.1,28.3,69.1,28.3z M69.1,84.8c-7.9,0-14.2-4.3-14.2-4.3l-9.7,3.2l3.1-9.4c0,0-5-7-5-15.3
		c0-14.2,11.5-25.8,25.8-25.8c14.2,0,25.8,11.5,25.8,25.8C94.9,73.3,83.3,84.8,69.1,84.8z"/>
	<path fill="#FFFFFF" d="M57.4,45.6c0,0,0.8-0.5,1.3-0.5c0.4,0,2.4,0,2.4,0s0.6,0.1,0.9,0.8c0.3,0.7,2.3,5.5,2.5,5.8
		s0.5,1.3-0.1,2.1c-0.6,0.8-2,2.3-2,2.3s-0.5,0.5-0.1,1.2c0.5,0.8,2.1,3.2,4.2,5.1c2.1,1.9,4.7,3.3,5.9,3.7c1.3,0.4,1.6-0.1,2.1-0.8
		c0.5-0.6,2-2.6,2-2.6s0.5-0.8,1.6-0.3c1,0.5,6.1,2.9,6.1,2.9s0.6,0.1,0.6,0.8c0,0.7,0.5,2.7-1.4,4.7c-1.8,2-5.7,2.9-7.5,2.4
		c-1.8-0.5-7.9-2.1-11.9-5.8c-4-3.7-7.2-7.6-8.5-10.4c-1.3-2.9-1.2-4.6-1.2-5.4C54.5,50.9,54.9,47.2,57.4,45.6z"/>
</g>
</svg>
