<?xml version="1.0" encoding="utf-8"?>
<!-- Generator: Adobe Illustrator 18.0.0, SVG Export Plug-In . SVG Version: 6.00 Build 0)  -->
<!DOCTYPE svg PUBLIC "-//W3C//DTD SVG 1.1//EN" "http://www.w3.org/Graphics/SVG/1.1/DTD/svg11.dtd">
<svg version="1.1" id="Layer_1" xmlns="http://www.w3.org/2000/svg" xmlns:xlink="http://www.w3.org/1999/xlink" x="0px" y="0px"
	 viewBox="0 0 90 75" enable-background="new 0 0 90 75" xml:space="preserve">
<g>
	<g>
		<polygon fill="#284274" points="2.6,37.5 15.4,21 28.1,37.5 15.4,54 		"/>
		<path fill="#284274" d="M15.4,8.5c0-3.8,3.2-7,7-7h58c3.8,0,7,3.2,7,7v58c0,3.8-3.2,7-7,7h-58c-3.8,0-7-3.2-7-7V8.5z"/>
	</g>
	<path fill="#FFFFFF" d="M57.9,25.9h3.2v-5.3h-4v0c-6.2,0.2-7.5,3.7-7.6,7.4h0v4.2h-3.2v5.3h3.2v16.9h6.3V37.5h4.7l0.9-5.3h-5.7
		v-3.8C55.9,27.2,56.7,25.9,57.9,25.9z"/>
</g>
</svg>
