<?xml version="1.0" encoding="utf-8"?>
<!-- Generator: Adobe Illustrator 18.0.0, SVG Export Plug-In . SVG Version: 6.00 Build 0)  -->
<!DOCTYPE svg PUBLIC "-//W3C//DTD SVG 1.1//EN" "http://www.w3.org/Graphics/SVG/1.1/DTD/svg11.dtd">
<svg version="1.1" id="Layer_1" xmlns="http://www.w3.org/2000/svg" xmlns:xlink="http://www.w3.org/1999/xlink" x="0px" y="0px"
	 viewBox="0 0 90 75" enable-background="new 0 0 90 75" xml:space="preserve">
<polygon fill="#7A7A7A" points="2.7,37.5 15.4,21 28.2,37.5 15.4,54 "/>
<path fill="#7A7A7A" d="M15.4,8.5c0-3.8,3.1-7,7-7h58c3.8,0,7,3.2,7,7v58c0,3.8-3.2,7-7,7h-58c-3.9,0-7-3.2-7-7V8.5z"/>
<g>
	<path fill="#FFFFFF" d="M75.2,53c0,4.7-3.9,8.5-8.6,8.5H36.1c-4.8,0-8.6-3.8-8.6-8.5V22c0-4.7,3.9-8.5,8.6-8.5h30.5
		c4.8,0,8.6,3.8,8.6,8.5V53z"/>
	<path fill="none" d="M66.6,13.5H36.1c-4.8,0-8.6,3.8-8.6,8.5v6.5h47.7V22C75.2,17.3,71.4,13.5,66.6,13.5z"/>
	<path fill="#7A7A7A" d="M71.6,24c0,1.2-0.9,2.1-2.1,2.1h-5.4c-1.2,0-2.1-0.9-2.1-2.1v-5.4c0-1.2,0.9-2.1,2.1-2.1h5.4
		c1.2,0,2.1,0.9,2.1,2.1V24z"/>
</g>
<path fill="#7A7A7A" d="M51.4,50.3c-7.1,0-12.9-5.8-12.9-12.9s5.8-12.9,12.9-12.9s12.9,5.8,12.9,12.9S58.5,50.3,51.4,50.3z M51.4,29
	c-4.7,0-8.4,3.8-8.4,8.4s3.8,8.4,8.4,8.4c4.7,0,8.4-3.8,8.4-8.4S56,29,51.4,29z"/>
<rect x="27.5" y="28.5" fill="#7A7A7A" width="17" height="2"/>
<rect x="58.2" y="28.5" fill="#7A7A7A" width="17" height="2"/>
</svg>
