<?xml version="1.0" encoding="utf-8"?>
<!-- Generator: Adobe Illustrator 18.1.0, SVG Export Plug-In . SVG Version: 6.00 Build 0)  -->
<!DOCTYPE svg PUBLIC "-//W3C//DTD SVG 1.1//EN" "http://www.w3.org/Graphics/SVG/1.1/DTD/svg11.dtd">
<svg version="1.1" id="Layer_1" xmlns="http://www.w3.org/2000/svg" xmlns:xlink="http://www.w3.org/1999/xlink" x="0px" y="0px"
	 viewBox="0 0 120 120" enable-background="new 0 0 120 120" xml:space="preserve">
<g>
	<polygon fill="#2AA9E0" points="3.4,60 20.3,37.9 37.5,60 20.3,82.1 	"/>
	<path fill="#2AA9E0" d="M20.3,21.4c0-5.3,4.1-9.4,9.4-9.4h77.6c5.3,0,9.4,4.1,9.4,9.4l-0.4,77.3c0,5.3-4.1,9.4-9.4,9.4H29.6
		c-5.2,0-9.4-4.1-9.4-9.4V21.4z"/>
</g>
<path fill="#FFFFFF" d="M100.5,40.3c-2.3,1-4.9,1.7-7.5,2.1c2.7-1.6,4.8-4.2,5.7-7.2c-2.5,1.5-5.3,2.6-8.3,3.2
	c-2.4-2.5-5.8-4.1-9.5-4.1c-7.2,0-13,5.8-13,13c0,1,0.1,2,0.3,3c-10.8-0.5-20.4-5.7-26.9-13.6c-1.1,1.9-1.8,4.2-1.8,6.6
	c0,4.5,2.3,8.5,5.8,10.9c-2.1-0.1-4.1-0.7-5.9-1.6c0,0.1,0,0.1,0,0.2c0,6.3,4.5,11.6,10.5,12.8c-1.1,0.3-2.2,0.5-3.4,0.5
	c-0.8,0-1.7-0.1-2.5-0.2c1.7,5.2,6.5,9,12.2,9.1c-4.5,3.5-10.1,5.6-16.2,5.6C39,80.1,38,80.1,37,80c5.8,3.7,12.6,5.9,20,5.9
	C80.9,85.8,94,66,94,48.7c0-0.6,0-1.1,0-1.7C96.6,45.2,98.8,42.9,100.5,40.3z"/>
</svg>
