<?xml version="1.0" encoding="utf-8"?>
<!-- Generator: Adobe Illustrator 18.0.0, SVG Export Plug-In . SVG Version: 6.00 Build 0)  -->
<!DOCTYPE svg PUBLIC "-//W3C//DTD SVG 1.1//EN" "http://www.w3.org/Graphics/SVG/1.1/DTD/svg11.dtd">
<svg version="1.1" id="Layer_1" xmlns="http://www.w3.org/2000/svg" xmlns:xlink="http://www.w3.org/1999/xlink" x="0px" y="0px"
	 viewBox="0 0 90 75" enable-background="new 0 0 90 75" xml:space="preserve">
<g>
	<path fill="#DEDCDF" d="M13.9,8.5c0-3.8,3.2-7,7-7h59.5c3.9,0,7,3.2,7,7v58c0,3.8-3.1,7-7,7H20.9c-3.8,0-7-3.2-7-7V8.5z"/>
	<polygon fill="#FFFFFF" points="2.6,37.5 15.4,21 28.1,37.5 15.4,54 	"/>
	<path fill="#FFFFFF" d="M15.4,9c0-3.3,2.7-6,6-6h58.5c3.3,0,6,2.7,6,6v57c0,3.3-2.7,6-6,6H21.4c-3.3,0-6-2.7-6-6V9z"/>
	<g>
		<circle fill="#09AFD7" cx="36.9" cy="37.5" r="10.3"/>
		<circle fill="#E8549C" cx="65.8" cy="37.5" r="10.3"/>
	</g>
</g>
</svg>
