<?xml version="1.0" encoding="utf-8"?>
<!-- Generator: Adobe Illustrator 18.0.0, SVG Export Plug-In . SVG Version: 6.00 Build 0)  -->
<!DOCTYPE svg PUBLIC "-//W3C//DTD SVG 1.1//EN" "http://www.w3.org/Graphics/SVG/1.1/DTD/svg11.dtd">
<svg version="1.1" id="Layer_1" xmlns="http://www.w3.org/2000/svg" xmlns:xlink="http://www.w3.org/1999/xlink" x="0px" y="0px"
	 viewBox="0 0 214 212" enable-background="new 0 0 214 212" xml:space="preserve">
<g>
	<g>
		<rect x="0" y="0" fill="#60ABC3" width="214" height="212"/>
		<linearGradient id="SVGID_1_" gradientUnits="userSpaceOnUse" x1="110.647" y1="97.4586" x2="159.4329" y2="231.4968">
			<stop  offset="0.2906" style="stop-color:#111128"/>
			<stop  offset="0.7" style="stop-color:#60ABC3;stop-opacity:0"/>
		</linearGradient>
		<path opacity="0.1" fill="url(#SVGID_1_)" d="M213,169.6l-50.4-50.4c-0.8-0.9-2-1.4-3.3-1.4h-19.6c-2.5,0-4.6,2.1-4.6,4.6v11.3
			l-14.5-14.5c-0.8-0.9-2-1.4-3.3-1.4H97.7c-2.5,0-4.6,2.1-4.6,4.6v11.3l-14.5-14.5c-0.8-0.9-2-1.4-3.3-1.4H55.7
			c-2.5,0-4.6,2.1-4.6,4.6V142c0,1.2,0.5,2.3,1.3,3.2c0,0.1,0.2,0.2,0.2,0.2l66.6,66.7H213V169.6z"/>
		<g>
			<path fill="#FFFFFF" d="M75.2,117.8H55.7c-2.5,0-4.6,2.1-4.6,4.6V142c0,2.5,2.1,4.6,4.6,4.6h19.6c2.5,0,4.6-2.1,4.6-4.6v-19.6
				C79.9,119.8,77.8,117.8,75.2,117.8z M73.4,132.4h-3V143h-4v-10.6h-2v-3.3h2v-2.6h0c0.1-2.3,0.9-4.5,4.7-4.6v0h2.5v3.3h-2
				c-0.7,0-1.2,0.8-1.2,1.6v2.4H74L73.4,132.4z"/>
			<path fill="#FFFFFF" d="M159.3,117.8h-19.6c-2.5,0-4.6,2.1-4.6,4.6V142c0,2.5,2.1,4.6,4.6,4.6h19.6c2.5,0,4.6-2.1,4.6-4.6v-19.6
				C163.9,119.8,161.8,117.8,159.3,117.8z M144.1,136c-2.1,0-3.9-1.7-3.9-3.9c0-2.1,1.7-3.9,3.9-3.9c2.1,0,3.9,1.7,3.9,3.9
				C147.9,134.3,146.2,136,144.1,136z M154.9,136c-2.1,0-3.9-1.7-3.9-3.9c0-2.1,1.7-3.9,3.9-3.9c2.1,0,3.9,1.7,3.9,3.9
				C158.8,134.3,157,136,154.9,136z"/>
			<g>
				<path fill="#FFFFFF" d="M114.4,128.8c0.5,1,0.8,2.2,0.8,3.4c0,4.3-3.5,7.7-7.7,7.7c-4.3,0-7.7-3.5-7.7-7.7
					c0-1.2,0.3-2.4,0.8-3.4h-7.4v12.7c0,2.8,2.3,5.1,5.2,5.1h18.3c2.9,0,5.2-2.3,5.2-5.1v-12.7H114.4z"/>
				<path fill="#FFFFFF" d="M101.9,126.8c1.4-1.5,3.4-2.4,5.6-2.4c2.2,0,4.1,0.9,5.6,2.4h8.8v-3.9c0-2.8-2.3-5.1-5.2-5.1H98.3
					c-2.9,0-5.2,2.3-5.2,5.1v3.9H101.9z M95.7,121.1c0-0.6,0.5-1.1,1.1-1.1h2.7c0.6,0,1.1,0.5,1.1,1.1v2.7c0,0.6-0.5,1.1-1.1,1.1
					h-2.7c-0.6,0-1.1-0.5-1.1-1.1V121.1z"/>
				<circle fill="#FFFFFF" cx="107.5" cy="132.1" r="5.2"/>
			</g>
		</g>
	</g>
	<g>
		<circle fill="#FFFFFF" cx="176.5" cy="198.6" r="2"/>
		<circle fill="#FFFFFF" cx="187.5" cy="198.6" r="2"/>
		<circle fill="#FFFFFF" cx="198.5" cy="198.6" r="2"/>
	</g>
</g>
</svg>
