<?xml version="1.0" encoding="utf-8"?>
<!-- Generator: Adobe Illustrator 18.0.0, SVG Export Plug-In . SVG Version: 6.00 Build 0)  -->
<!DOCTYPE svg PUBLIC "-//W3C//DTD SVG 1.1//EN" "http://www.w3.org/Graphics/SVG/1.1/DTD/svg11.dtd">
<svg version="1.1" id="Layer_1" xmlns="http://www.w3.org/2000/svg" xmlns:xlink="http://www.w3.org/1999/xlink" x="0px" y="0px"
	 viewBox="0 0 70 60" enable-background="new 0 0 70 60" xml:space="preserve">
<g>
	<polygon fill="#17824D" points="70,30 60,42.5 50,30 60,17.5 	"/>
	<path fill="#17824D" d="M60,55c0,2.8-2.3,5-5,5H5c-2.8,0-5-2.3-5-5L0,5c0-2.8,2.3-5,5-5l50,0c2.8,0,5,2.3,5,5V55z"/>
</g>
<path fill="#FFFFFF" d="M43.6,44.6H16c-0.6,0-1-0.4-1-1V28.2c0-0.6,0.4-1,1-1h27.6c0.6,0,1,0.4,1,1v15.4
	C44.6,44.1,44.1,44.6,43.6,44.6z M17,42.6h25.6V29.2H17V42.6z"/>
<path fill="#FFFFFF" d="M16,29.2c-0.1,0-0.3,0-0.4-0.1c-0.2-0.1-0.4-0.3-0.5-0.6l-1.6-4.3c-0.2-0.5,0.1-1.1,0.6-1.3L40,13.5
	c0.5-0.2,1.1,0.1,1.3,0.6l1.6,4.3c0.1,0.2,0.1,0.5,0,0.8c-0.1,0.2-0.3,0.4-0.6,0.5l-25.9,9.4C16.2,29.2,16.1,29.2,16,29.2z
	 M15.7,24.5l0.9,2.4l24.1-8.8l-0.9-2.4L15.7,24.5z"/>
<rect x="16" y="31.8" fill="#FFFFFF" width="27.6" height="2"/>
<polygon fill="#FFFFFF" points="38,21.2 30.3,17 33.4,15.9 41,20.1 "/>
<polygon fill="#FFFFFF" points="30.5,24 22.8,19.7 25.9,18.6 33.5,22.9 "/>
<polygon fill="#FFFFFF" points="22.9,26.7 15.3,22.5 18.4,21.4 26,25.6 "/>
<polygon fill="#FFFFFF" points="20.5,33.8 17.3,33.8 23,27.2 26.3,27.2 "/>
<polygon fill="#FFFFFF" points="28.5,33.8 25.3,33.8 31,27.2 34.3,27.2 "/>
<polygon fill="#FFFFFF" points="36.5,33.8 33.3,33.8 39,27.2 42.3,27.2 "/>
</svg>
