<?xml version="1.0" encoding="utf-8"?>
<!-- Generator: Adobe Illustrator 18.0.0, SVG Export Plug-In . SVG Version: 6.00 Build 0)  -->
<!DOCTYPE svg PUBLIC "-//W3C//DTD SVG 1.1//EN" "http://www.w3.org/Graphics/SVG/1.1/DTD/svg11.dtd">
<svg version="1.1" id="Layer_1" xmlns="http://www.w3.org/2000/svg" xmlns:xlink="http://www.w3.org/1999/xlink" x="0px" y="0px"
	 viewBox="0 0 110 122" enable-background="new 0 0 110 122" xml:space="preserve">
<g>
	<path fill="#AD252A" d="M0,7c0-3.8,3.2-7,7-7l96,0c3.8,0,7,3.2,7,7v96c0,3.8-3.2,7-7,7H7c-3.8,0-7-3.2-7-7L0,7z"/>
	<g>
		<linearGradient id="SVGID_1_" gradientUnits="userSpaceOnUse" x1="13.3754" y1="54.4199" x2="23.9277" y2="57.2474">
			<stop  offset="0.8214" style="stop-color:#FFFFFF"/>
			<stop  offset="0.9592" style="stop-color:#CCCDCE"/>
			<stop  offset="1" style="stop-color:#A9AAAC"/>
		</linearGradient>
		<path fill="url(#SVGID_1_)" d="M20.6,58c0-2.7-6.7-0.8-6.7-5.1c0-0.3-0.1-3.6,5.2-3.6c1.9,0,2.3,0.2,2.3,0.2v2.4
			c0,0-0.2-0.3-2.2-0.3c-0.6,0-2.3,0-2.3,1.2c0,2,6.8,0.4,6.8,5.1c0,1.2-0.6,4.2-5.7,4.2c-3.3,0-4.2-0.5-4.2-0.5v-3.4h2.6v1.4
			c0,0,0.5,0.2,1.5,0.2C20.3,59.7,20.6,58.8,20.6,58"/>
		<linearGradient id="SVGID_2_" gradientUnits="userSpaceOnUse" x1="23.4889" y1="53.3703" x2="30.9634" y2="53.3703">
			<stop  offset="0.6327" style="stop-color:#FFFFFF"/>
			<stop  offset="1" style="stop-color:#A9AAAC"/>
		</linearGradient>
		<path fill="url(#SVGID_2_)" d="M27.7,59.1c0.5,0,1.7-0.4,2.1-1.8l1.1,1.6c0,0,0.1,0.1,0.1,0.2c0,0.5-1.3,2.9-4.2,2.9
			c-2.1,0-3.3-1.4-3.3-3.4V46.5l2.9-1.7v5h2.4v2.4h-2.4v5.6C26.4,58.2,26.5,59.1,27.7,59.1"/>
		<linearGradient id="SVGID_3_" gradientUnits="userSpaceOnUse" x1="29.6571" y1="55.7088" x2="45.4936" y2="55.7088">
			<stop  offset="0.7602" style="stop-color:#FFFFFF"/>
			<stop  offset="1" style="stop-color:#A9AAAC"/>
		</linearGradient>
		<path fill="url(#SVGID_3_)" d="M40.8,57.5c0,0.6,0.2,1.6,1.3,1.6c0.7,0,1.6-0.4,2.1-1.9l1.1,1.6c0,0,0.1,0.1,0.1,0.2
			c0,0.7-1.2,3-4.2,3c-1.5,0-2.5-0.8-2.9-1.9c0-0.1,0-0.1-0.1-0.1c0,0-0.1,0.1-0.1,0.1c-0.8,1.3-2.3,2.1-4,2.1
			c-4.3,0-4.7-4.3-4.7-5.6c0-3.5,1.8-7.4,7.5-7.4c1.7,0,3.7,0.5,3.7,0.5V57.5 M37.9,51.8c0,0-0.4-0.2-1.4-0.2c-1.3,0-3.8,1-3.8,4.5
			c0,0.7,0,3.1,2.3,3.1c1.9,0,2.9-1.6,2.9-3V51.8"/>
		<linearGradient id="SVGID_4_" gradientUnits="userSpaceOnUse" x1="43.8164" y1="59.3388" x2="59.6274" y2="59.3388">
			<stop  offset="0.7041" style="stop-color:#FFFFFF"/>
			<stop  offset="0.9133" style="stop-color:#A9AAAC"/>
		</linearGradient>
		<path fill="url(#SVGID_4_)" d="M59.6,60.1l-0.6-2c0,0-1.3,0.7-2.9,1.1c-0.6,0.1-1.1,0.2-1.6,0.3v-9.8h-3v7.2c0,0,0,2.5,0,2.5
			c-0.3,0-0.7,0.1-1,0.1c-2.5,0-3.9-1.2-3.9-4.4c0-1.9,0-2.9,0-2.9h1v-2.4h-3.9v4.5c0,4,0.8,7.8,6.8,7.8c0.4,0,0.7,0,1.1-0.1
			c0,2.9-1.3,4.6-4.2,4.6H47v-1.3h-2.5v3.5c0,0,0.9,0.3,2.5,0.3c6.3,0,7.4-4.3,7.5-7c0.6-0.1,1.5-0.2,2.3-0.5
			C58.9,60.8,59.6,60.1,59.6,60.1z"/>
		<linearGradient id="SVGID_5_" gradientUnits="userSpaceOnUse" x1="57.0307" y1="54.8414" x2="70.6462" y2="54.8414">
			<stop  offset="0.7143" style="stop-color:#FFFFFF"/>
			<stop  offset="0.949" style="stop-color:#A9AAAC"/>
		</linearGradient>
		<path fill="url(#SVGID_5_)" d="M70.6,58.8l-1.1-1.6c-0.5,1.6-1.4,1.9-2.1,1.9c-1.1,0-1.3-1-1.3-1.6l0-7.8h-6l0-3.2
			c0-1,0.3-1.8,0.6-2.2c0.4-0.4,1-0.7,1.7-0.7c0.7,0,1.4,0.2,1.8,0.3v-2.5c-0.2-0.1-1.2-0.4-2.3-0.4c-3.1,0-4.7,1.7-4.8,5.2l0,0
			v22.5l3-0.9l0-15.4h2.9v6.2c0,1.8,1.4,3.4,3.6,3.4c3,0,4.2-2.4,4.2-3C70.6,58.9,70.6,58.8,70.6,58.8"/>
		<path fill="#FFFFFF" d="M64.3,48.8c-1,0-1.7-0.8-1.7-1.7c0-0.9,0.8-1.7,1.7-1.7c1,0,1.7,0.8,1.7,1.7C66,48,65.2,48.8,64.3,48.8"/>
		<linearGradient id="SVGID_6_" gradientUnits="userSpaceOnUse" x1="68.212" y1="52.0241" x2="76.9642" y2="52.0241">
			<stop  offset="0.5357" style="stop-color:#FFFFFF"/>
			<stop  offset="0.9643" style="stop-color:#A9AAAC"/>
		</linearGradient>
		<path fill="url(#SVGID_6_)" d="M72.3,57.4c0,0.6,0.2,1.6,1.3,1.6c0.7,0,1.6-0.4,2.1-1.9l1.1,1.6c0,0,0.1,0.1,0.1,0.2
			c0,0.7-1.2,3-4.2,3c-2.1,0-3.4-1.6-3.4-3.4V44.5h-1.1V42h4.1V57.4"/>
		<path fill="#FFFFFF" d="M90.2,54c0-1.6-1.4-1.8-1.8-1.8c-1.7,0-2.6,1.5-2.6,3.2v6.4h-2.9V54c0-1.6-1.3-1.8-1.7-1.8
			c-1.6,0-2.5,1.5-2.5,3.2v6.4h-2.9v-9.6h-1.1v-2.5h4.1v1.1c0,0,1.1-1.4,3.3-1.4c1.4,0,2.7,0.4,3.3,1.7c0,0,0,0,0.1,0
			c0,0,0.1-0.1,0.1-0.1c0.1-0.1,1-1.6,3.8-1.6c2.1,0,3.9,1.1,3.9,3.7c0,0,0,4.2,0,4.4c0,0.6,0.2,1.8,1.3,1.7c0.4,0,1.1-0.7,1.1-0.7
			l0.8,2c0,0-1.1,1.4-3.1,1.4c-1.6,0-3-1.5-3-3.3V54"/>
	</g>
</g>
</svg>
