<?xml version="1.0" encoding="UTF-8" standalone="no"?>
<!-- Generator: Adobe Illustrator 16.0.0, SVG Export Plug-In . SVG Version: 6.00 Build 0)  -->

<svg
   xmlns:dc="http://purl.org/dc/elements/1.1/"
   xmlns:cc="http://creativecommons.org/ns#"
   xmlns:rdf="http://www.w3.org/1999/02/22-rdf-syntax-ns#"
   xmlns:svg="http://www.w3.org/2000/svg"
   xmlns="http://www.w3.org/2000/svg"
   xmlns:sodipodi="http://sodipodi.sourceforge.net/DTD/sodipodi-0.dtd"
   xmlns:inkscape="http://www.inkscape.org/namespaces/inkscape"
   version="1.1"
   id="Layer_1"
   x="0px"
   y="0px"
   width="512px"
   height="512px"
   viewBox="0 0 512 512"
   enable-background="new 0 0 512 512"
   xml:space="preserve"
   inkscape:version="0.48.5 r10040"
   sodipodi:docname="upload.svg"><metadata
   id="metadata13"><rdf:RDF><cc:Work
       rdf:about=""><dc:format>image/svg+xml</dc:format><dc:type
         rdf:resource="http://purl.org/dc/dcmitype/StillImage" /></cc:Work></rdf:RDF></metadata><defs
   id="defs11" /><sodipodi:namedview
   pagecolor="#ffffff"
   bordercolor="#666666"
   borderopacity="1"
   objecttolerance="10"
   gridtolerance="10"
   guidetolerance="10"
   inkscape:pageopacity="0"
   inkscape:pageshadow="2"
   inkscape:window-width="1402"
   inkscape:window-height="897"
   id="namedview9"
   showgrid="false"
   inkscape:zoom="0.4609375"
   inkscape:cx="256"
   inkscape:cy="256"
   inkscape:window-x="0"
   inkscape:window-y="0"
   inkscape:window-maximized="0"
   inkscape:current-layer="g3" />
<g
   id="g3"
   transform="matrix(0.83898305,0,0,0.83898305,41.220339,41.220339)">
	<path
   d="m 387.08477,223.63131 c 0.53644,-3.82036 0.79402,-7.70598 0.79402,-11.59091 0,-48.46751 -39.43039,-87.91919 -87.91919,-87.91919 -28.11903,0 -53.94049,13.28679 -70.29689,35.07358 -5.77382,-1.39572 -11.65479,-2.10388 -17.62231,-2.10388 -42.41414,0 -76.92929,34.51515 -76.92929,76.92929 0,1.07358 0.0213,2.12517 0.0646,3.17677 -31.78897,9.44444 -55.014064,38.93721 -55.014064,73.75252 0,42.41415 34.515154,76.9293 76.929294,76.9293 h 186.82828 c 48.48881,0 87.91919,-39.43039 87.91919,-87.91919 0,-32.04655 -17.6223,-61.00219 -44.75361,-76.32829 z M 343.91919,365.89899 H 157.09091 c -30.35135,0 -54.9495,-24.59883 -54.9495,-54.9495 0,-30.35066 24.59883,-54.94949 54.9495,-54.94949 1.67458,0 3.26263,0.34343 4.89394,0.49386 -3.09091,-6.86869 -4.89394,-14.44554 -4.89394,-22.47366 0,-30.35135 24.59883,-54.94949 54.94949,-54.94949 9.91701,0 19.10388,2.83333 27.13132,7.42711 9.95959,-23.74024 33.42028,-40.39681 60.78788,-40.39681 36.42533,0 65.93939,29.51406 65.93939,65.93939 0,8.67172 -1.78174,16.91415 -4.82937,24.51297 28.05446,7.59815 48.78897,32.9697 48.78897,63.40623 0,36.42533 -29.51406,65.93939 -65.9394,65.93939 z"
   id="path5"
   inkscape:connector-curvature="0"
   style="fill:#ffffff" />
	<polygon
   points="288,384 288,288 352,288 256,192 160,288 224,288 224,384 "
   id="polygon7"
   style="fill:#ffffff"
   transform="matrix(0.68686869,0,0,0.68686869,80.161616,80.161616)" />
</g>
</svg>