<svg xmlns="http://www.w3.org/2000/svg" width="300" height="300" viewBox="0 0 300 300"><path fill="#020202" d="M246.065 8l.377 8.375c.234 4.805-.934 8.48-3.523 11.263-3.492 3.72-9.16 5.59-13.918 6.434.177-4.286.344-8.606.477-13.076H70.323c.133 4.47.312 8.79.49 13.076-4.77-.843-10.428-2.726-13.93-6.446-2.612-2.772-3.78-6.457-3.546-11.263L53.728 8H11.583l.145 8.132c2.333 139.9 59.328 173.77 85.418 181.937l-4.28 6.316 12.562 9.207 4.29-6.365c8.583 16.61 16.064 27.215 19.254 35.694h-5.825v12.673h7.114c-1.98 13.45-20.587 28.363-32.028 36.373 16.44-1.31 33.614-2.034 51.49-2.034 18.014 0 35.313.736 51.87 2.065-11.44-8.003-30.098-22.938-32.08-36.405h7.115v-12.673h-5.814c3.19-8.467 10.673-19.048 19.255-35.694l4.28 6.365 12.585-9.207-4.292-6.317c26.102-8.168 83.097-42.037 85.43-181.938L288.21 8h-42.143zM27.298 26.795h11.238c1.056 5.74 3.558 10.79 7.404 14.867 7.692 8.144 18.73 10.604 25.757 11.367 4.102 61.57 15.03 102.68 26.38 131.374-22.334-8.502-66.867-40.13-70.78-157.61zm174.418 157.61c11.35-28.694 22.277-69.806 26.38-131.376 7.036-.764 18.064-3.224 25.745-11.368 3.87-4.078 6.36-9.126 7.416-14.867h11.238c-3.89 117.48-48.434 149.107-70.778 157.61z"/></svg>