<?xml version="1.0" encoding="utf-8"?>
<!-- Generator: Adobe Illustrator 18.1.1, SVG Export Plug-In . SVG Version: 6.00 Build 0)  -->
<!DOCTYPE svg PUBLIC "-//W3C//DTD SVG 1.1//EN" "http://www.w3.org/Graphics/SVG/1.1/DTD/svg11.dtd">
<svg version="1.1" id="Layer_1" xmlns="http://www.w3.org/2000/svg" xmlns:xlink="http://www.w3.org/1999/xlink" x="0px" y="0px"
	 viewBox="0 0 220 220" enable-background="new 0 0 220 220" xml:space="preserve">
<g>
	<circle fill="#EEA156" cx="110" cy="110" r="108.9"/>
	<g>
		<polygon opacity="0.1" points="51.9,69.4 176,58 51.9,94.3 		"/>
		<g opacity="0.1">
			<path d="M178,90.1v82.6c0,3-2.4,5.4-5.4,5.4H50.2c-3,0-5.4-2.4-5.4-5.4V90.1"/>
		</g>
		<g>
			<path fill="#35434D" d="M178,81.1v82.6c0,3-2.4,5.4-5.4,5.4H50.2c-3,0-5.4-2.4-5.4-5.4V81.1"/>
		</g>
		<g opacity="0.4">
			<path d="M67,167.5l31-86.4h78.3v79c0,3.6-2.9,6.5-6.2,7.3H67z"/>
		</g>
		<g>
			<polygon fill="#FFFFFF" points="51.7,97.4 68,97.4 80.2,81.1 63.9,81.1 			"/>
			<polygon fill="#FFFFFF" points="84.3,97.4 100.6,97.4 112.8,81.1 96.5,81.1 			"/>
			<polygon fill="#FFFFFF" points="116.9,97.4 133.2,97.4 145.4,81.1 129.1,81.1 			"/>
			<polygon fill="#FFFFFF" points="149.5,97.4 165.8,97.4 178,81.1 161.7,81.1 			"/>
		</g>
		<path fill="#E9DCD2" d="M130.8,120.4H61.5c-0.6,0-1-0.4-1-1s0.4-1,1-1h69.3c0.6,0,1,0.4,1,1S131.3,120.4,130.8,120.4z"/>
		<path fill="#E9DCD2" d="M130.8,153H61.5c-0.6,0-1-0.4-1-1s0.4-1,1-1h69.3c0.6,0,1,0.4,1,1S131.3,153,130.8,153z"/>
		<path fill="#E9DCD2" d="M122.6,136.7H61.5c-0.6,0-1-0.4-1-1s0.4-1,1-1h61.1c0.6,0,1,0.4,1,1S123.2,136.7,122.6,136.7z"/>
		<g>
			<g>
				<path fill="#35434D" d="M44.8,81.1l-1.9-10.7c-0.5-2.9,1.5-5.8,4.4-6.3l120.5-21.2c2.9-0.5,5.8,1.5,6.3,4.4L176,58"/>
			</g>
			<path opacity="0.4" d="M102.3,71l6.6-16.1l56.5-10c3.5-0.6,6.9,1.7,7.6,5.3l1.4,8L102.3,71z"/>
			<g>
				<polygon fill="#FFFFFF" points="176,58 160,60.8 145.1,46.9 161.1,44 				"/>
				<polygon fill="#FFFFFF" points="143.9,63.6 127.9,66.5 113,52.5 129,49.7 				"/>
				<polygon fill="#FFFFFF" points="111.8,69.3 95.8,72.1 80.9,58.2 96.9,55.4 				"/>
				<polygon fill="#FFFFFF" points="79.7,75 63.7,77.8 48.8,63.9 64.8,61 				"/>
			</g>
		</g>
		<rect x="44.8" y="97.4" fill="#AD252A" width="133.2" height="8.1"/>
		<path fill="#E9DCD2" d="M154.5,141.1c-0.3,0-0.5-0.1-0.7-0.3l-5.4-5.8c-0.4-0.4-0.4-1,0.1-1.4c0.4-0.4,1-0.4,1.4,0.1l4.6,4.9
			l7.7-9.9c0.3-0.4,1-0.5,1.4-0.2c0.4,0.3,0.5,1,0.2,1.4l-8.4,10.8C155.1,140.9,154.9,141.1,154.5,141.1
			C154.6,141.1,154.5,141.1,154.5,141.1z"/>
		
			<rect x="43.1" y="61.5" transform="matrix(0.9848 -0.1736 0.1736 0.9848 -9.7118 20.0439)" opacity="0.3" width="133.2" height="8.1"/>
		<rect x="44.8" y="89.3" opacity="0.3" width="133.2" height="8.1"/>
		<g>
			<path fill="#AD252A" d="M70.4,88.6c0.7,1.6-0.2,3-2,3H48.1c-1.8,0-3.3-1.5-3.3-3.3V72.1c0-1.8,1.5-3.3,3.3-3.3h10.6
				c1.8,0,3.8,1.3,4.5,3L70.4,88.6z"/>
			<path opacity="0.3" d="M70.4,88.6c0.7,1.6-0.2,3-2,3H48.1c-1.8,0-3.3-1.5-3.3-3.3"/>
			<g>
				<circle fill="#FFFFFF" cx="50.9" cy="74.9" r="2.9"/>
				<path opacity="0.3" d="M48.1,74.9v3.3c0,1.6,1.3,2.9,2.9,2.9s2.9-1.3,2.9-2.9v-3.3H48.1z"/>
			</g>
		</g>
		<rect x="44.8" y="97.4" width="0" height="0"/>
	</g>
</g>
</svg>
