<?xml version="1.0" encoding="utf-8"?>
<!-- Generator: Adobe Illustrator 18.1.1, SVG Export Plug-In . SVG Version: 6.00 Build 0)  -->
<!DOCTYPE svg PUBLIC "-//W3C//DTD SVG 1.1//EN" "http://www.w3.org/Graphics/SVG/1.1/DTD/svg11.dtd">
<svg version="1.1" id="Layer_1" xmlns="http://www.w3.org/2000/svg" xmlns:xlink="http://www.w3.org/1999/xlink" x="0px" y="0px"
	 viewBox="0 0 220 220" enable-background="new 0 0 220 220" xml:space="preserve">
<g>
	<path fill="#E5636F" d="M110,1.1C49.8,1.1,1.1,49.8,1.1,110c0,60.2,48.8,108.9,108.9,108.9S218.9,170.2,218.9,110
		C218.9,49.8,170.2,1.1,110,1.1"/>
	<g>
		<path opacity="0.15" fill="#231F20" d="M111.1,52c-4.4-0.5-8.3,1.4-10.5,5l-45.8,74.6c-2.2,3.6-2.2,8.1,0,12.1
			c2.2,4,6.1,6.7,10.5,7.2l91.7,9.6c4.4,0.5,8.3-1.4,10.5-5c2.2-3.6,2.2-8.1,0-12.1l-45.8-84.2C119.5,55.1,115.5,52.5,111.1,52
			L111.1,52z"/>
		<g>
			<path fill="#EEA156" d="M110,45.1c-4.4,0-8.3,2.3-10.5,6l-45.8,79.3c-2.2,3.8-2.2,8.3,0,12.1s6.1,6,10.5,6h91.5
				c4.4,0,8.3-2.3,10.5-6s2.2-8.3,0-12.1l-45.8-79.3C118.3,47.3,114.4,45.1,110,45.1L110,45.1z"/>
		</g>
		<g>
			<path fill="#E4CA54" d="M58.7,133.2L104.5,54c2.5-4.3,8.6-4.3,11.1,0l45.8,79.3c2.5,4.3-0.6,9.6-5.5,9.6H64.2
				C59.3,142.8,56.2,137.5,58.7,133.2z"/>
		</g>
		<g>
			<path fill="#232629" d="M104.2,124.4c0-3.2,2.6-5.9,5.8-5.9c3.2,0,5.9,2.7,5.9,5.9c0,3.1-2.7,5.8-5.9,5.8
				C106.8,130.2,104.2,127.6,104.2,124.4z M105.9,113.8l-1.5-32.6h11.1l-1.4,32.6H105.9z"/>
		</g>
	</g>
</g>
</svg>
