<?xml version="1.0" encoding="utf-8"?>
<!-- Generator: Adobe Illustrator 18.1.1, SVG Export Plug-In . SVG Version: 6.00 Build 0)  -->
<!DOCTYPE svg PUBLIC "-//W3C//DTD SVG 1.1//EN" "http://www.w3.org/Graphics/SVG/1.1/DTD/svg11.dtd">
<svg version="1.1" id="Layer_1" xmlns="http://www.w3.org/2000/svg" xmlns:xlink="http://www.w3.org/1999/xlink" x="0px" y="0px"
	 viewBox="0 0 220 220" enable-background="new 0 0 220 220" xml:space="preserve">
<g>
	<g>
		<circle fill="#E4CA54" cx="110" cy="110" r="108.9"/>
	</g>
	<g>
		<g>
			<g>
				<path fill="#FFFFFF" d="M175,73.5c0,1.7-1.4,3-3,3H48c-1.6,0-3-1.3-3-3v-17c0-1.7,1.4-3,3-3h124c1.6,0,3,1.3,3,3V73.5z"/>
			</g>
			<g>
				<path fill="#FFFFFF" d="M175,103.5c0,1.7-1.4,3-3,3H48c-1.6,0-3-1.3-3-3v-17c0-1.7,1.4-3,3-3h124c1.6,0,3,1.3,3,3V103.5z"/>
			</g>
			<path fill="#63C199" d="M172,108.5H48c-2.8,0-5-2.2-5-5v-17c0-2.8,2.2-5,5-5h124c2.8,0,5,2.2,5,5v17
				C177,106.3,174.8,108.5,172,108.5z M48,85.5c-0.5,0-1,0.5-1,1v17c0,0.5,0.5,1,1,1h124c0.5,0,1-0.5,1-1v-17c0-0.5-0.5-1-1-1H48z"
				/>
			<g>
				<path fill="#FFFFFF" d="M175,133.5c0,1.6-1.4,3-3,3H48c-1.6,0-3-1.4-3-3v-17c0-1.7,1.4-3,3-3h124c1.6,0,3,1.3,3,3V133.5z"/>
			</g>
			<g>
				<path fill="#FFFFFF" d="M175,163.5c0,1.6-1.4,3-3,3H48c-1.6,0-3-1.4-3-3v-17c0-1.6,1.4-3,3-3h124c1.6,0,3,1.4,3,3V163.5z"/>
			</g>
		</g>
		<g>
			<circle fill="#63C199" cx="176.4" cy="85" r="14"/>
			<path fill="#FFFFFF" d="M174.9,91.4c-0.3,0-0.5-0.1-0.7-0.3l-5.4-5.8c-0.4-0.4-0.4-1,0.1-1.4c0.4-0.4,1-0.4,1.4,0.1l4.6,4.9
				l7.7-9.9c0.3-0.4,1-0.5,1.4-0.2c0.4,0.3,0.5,1,0.2,1.4L175.6,91C175.5,91.2,175.2,91.4,174.9,91.4
				C174.9,91.4,174.9,91.4,174.9,91.4z"/>
		</g>
	</g>
</g>
</svg>
