<?xml version="1.0" encoding="utf-8"?>
<!-- Generator: Adobe Illustrator 18.1.1, SVG Export Plug-In . SVG Version: 6.00 Build 0)  -->
<!DOCTYPE svg PUBLIC "-//W3C//DTD SVG 1.1//EN" "http://www.w3.org/Graphics/SVG/1.1/DTD/svg11.dtd">
<svg version="1.1" id="Layer_1" xmlns="http://www.w3.org/2000/svg" xmlns:xlink="http://www.w3.org/1999/xlink" x="0px" y="0px"
	 viewBox="0 0 220 220" enable-background="new 0 0 220 220" xml:space="preserve">
<g>
	<g>
		<circle fill="#E5636F" cx="110" cy="110" r="108.9"/>
	</g>
	<g>
		<g>
			<g>
				<g>
					<path fill="#FFFFFF" d="M165,101.8l-40.9-47.2c-4.7-5.4-12.4-6.9-18.8-3.7c-1.2,0.6-2.3,1.3-3.3,2.2l-64.3,55.7
						c-3.1,2.7-5,6.5-5.3,10.7c-0.3,4.2,1,8.2,3.8,11.3l40.9,47.2c4.7,5.4,12.4,6.9,18.8,3.7c1.2-0.6,2.3-1.3,3.3-2.2l64.3-55.7
						c3.1-2.7,5-6.5,5.3-10.7C169.1,108.9,167.7,104.9,165,101.8z"/>
				</g>
				<g>
					<path fill="#4B5767" d="M112.3,53.6c3.3,0,6.3,1.4,8.5,3.9l40.9,47.2c2,2.3,2.9,5.1,2.7,8.1c-0.2,3-1.6,5.7-3.8,7.7l-64.3,55.7
						c-0.7,0.6-1.5,1.1-2.3,1.6c-1.6,0.8-3.2,1.2-5,1.2c-3.3,0-6.3-1.4-8.5-3.9l-40.9-47.2c-2-2.3-2.9-5.1-2.7-8.1
						c0.2-3,1.6-5.7,3.8-7.7L105,56.4c0.7-0.6,1.5-1.1,2.3-1.6C108.9,54,110.6,53.6,112.3,53.6"/>
				</g>
				<path opacity="0.5" fill-rule="evenodd" clip-rule="evenodd" fill="#3D3D3D" d="M131.6,149.2l-58.5,24.1l-6.4-7.2l5.6-11.2
					L131.6,149.2z"/>
				<g>
					<path fill="#FFFFFF" d="M159.9,127.7l-15.6-55c-1.8-6.3-7.6-10.6-14.1-10.4c-1.2,0-2.4,0.2-3.5,0.5l-75,21.3
						c-3.7,1-6.7,3.5-8.6,6.8c-1.9,3.3-2.3,7.2-1.3,10.9l15.6,55c1.8,6.3,7.6,10.6,14.1,10.4c1.2,0,2.4-0.2,3.5-0.5l75-21.3
						c3.7-1,6.7-3.5,8.6-6.8C160.5,135.2,161,131.4,159.9,127.7z"/>
				</g>
				<g>
					<path fill="#969595" d="M130.6,66.7c4.4,0,8.3,3,9.5,7.2l15.6,55c0.7,2.5,0.4,5.2-0.9,7.5c-1.3,2.3-3.4,4-5.9,4.7l-75,21.3
						c-0.8,0.2-1.6,0.4-2.5,0.4c-0.1,0-0.2,0-0.3,0c-4.4,0-8.3-3-9.5-7.2l-15.6-55c-0.7-2.5-0.4-5.2,0.9-7.5c1.3-2.3,3.4-4,5.9-4.7
						l75-21.3c0.8-0.2,1.6-0.4,2.5-0.4C130.4,66.7,130.5,66.7,130.6,66.7"/>
				</g>
				<path opacity="0.5" fill-rule="evenodd" clip-rule="evenodd" fill="#3D3D3D" d="M69.8,98.5l79,38.3l-32.7,28.1l-44.7-14.4
					L69.8,98.5z"/>
				<g>
					<path fill="#FFFFFF" d="M148.1,151.8H76.8c-7.3,0-13.2-5.9-13.2-13.2V75.4c0-7.3,5.9-13.2,13.2-13.2H162
						c7.3,0,13.2,5.9,13.2,13.2l0,61.9L148.1,151.8z"/>
					<path fill="#50A2B8" d="M154.3,147.4H76.9c-4.9,0-8.9-4-8.9-8.9v-63c0-4.9,4-8.9,8.9-8.9h85c4.9,0,8.9,4,8.9,8.9v63
						L154.3,147.4z"/>
					<polygon fill="#525B39" points="170.8,134.8 170.8,130.1 141.3,103 103,134.5 104.9,147.4 149.4,147.4 					"/>
					<g>
						<circle fill="#C15142" cx="93.1" cy="86.9" r="9.8"/>
					</g>
					<path fill="#4F6E4A" d="M131.6,147.4L93,114.6l-25,18.5v5.2c0,5.2,3.7,9.1,8.6,9.1L131.6,147.4z"/>
					<g opacity="0.5">
						<polygon fill="#3D3D3D" points="148.1,151.8 141.4,151.8 150.8,141 175.2,137.3 						"/>
					</g>
					<g>
						<path fill="#D6D6D6" d="M148.1,151.8l27.1-14.6C163.1,128.4,149.2,133,148.1,151.8z"/>
					</g>
				</g>
			</g>
			<g>
				<g opacity="0.5">
					<path opacity="0.7" fill="#3D3D3D" d="M175.1,29.5c6.8,0,13.6,0.3,20.5,0.9c2.8,0.3,5.7,0.4,8.5,0.8c4.4,0.6,8.6,4.3,9.8,8.5
						c1.4,5.5,2,11.5,2,17.2c0,5.7-0.6,11.7-2,17.1c-1,4.4-5.4,8-9.8,8.6c-6.5,0.8-13.3,1.7-19.9,1.7c-2.8,0-5.5-0.1-8.3-0.3
						l-18.1,15.2V83.4c-3.9-0.3-7.9-0.3-11.7-0.8c-4.4-0.6-8.6-4.3-9.8-8.6c-1.4-5.4-1.9-11.4-1.9-17.1c0-5.7,0.5-11.7,1.9-17.2
						c1.1-4.3,5.4-7.9,9.8-8.5c2.9-0.3,5.7-0.5,8.5-0.8C161.4,29.9,168.2,29.5,175.1,29.5z"/>
					<path opacity="0.5" d="M180.3,37.6L180.3,37.6L180.3,37.6L180.3,37.6L180.3,37.6z M180,37.7C179.9,37.7,179.9,37.7,180,37.7
						L180,37.7C179.9,37.7,179.9,37.7,180,37.7L180,37.7z M179.6,37.7C179.6,37.7,179.5,37.8,179.6,37.7L179.6,37.7
						C179.5,37.8,179.5,37.7,179.6,37.7L179.6,37.7z M179.3,37.8C179.3,37.8,179.2,37.9,179.3,37.8L179.3,37.8
						C179.2,37.9,179.3,37.8,179.3,37.8L179.3,37.8z M179,38C179,38,179,38,179,38L179,38C179,38,179,38,179,38L179,38z M178.8,38.1
						C178.8,38.1,178.8,38.1,178.8,38.1L178.8,38.1C178.8,38.1,178.8,38.1,178.8,38.1L178.8,38.1z M178.7,38.2L178.7,38.2
						C178.7,38.2,178.7,38.2,178.7,38.2C178.7,38.2,178.7,38.2,178.7,38.2C178.7,38.2,178.7,38.2,178.7,38.2z M178.6,38.3
						L178.6,38.3C178.6,38.3,178.6,38.3,178.6,38.3L178.6,38.3C178.6,38.3,178.6,38.3,178.6,38.3z"/>
					<path stroke="#000000" stroke-width="0.2892" d="M186.8,51.2"/>
				</g>
				<g>
					<g>
						<path fill="#FFFFFF" d="M172.2,23.7c6.8,0,13.6,0.3,20.5,0.9c2.8,0.3,5.7,0.4,8.5,0.8c4.4,0.6,8.6,4.3,9.8,8.5
							c1.4,5.5,2,11.5,2,17.2c0,5.7-0.6,11.7-2,17.1c-1,4.4-5.4,8-9.8,8.6c-6.5,0.8-13.3,1.7-19.9,1.7c-2.8,0-5.5-0.1-8.3-0.3
							l-18.1,15.2V77.6c-3.9-0.3-7.9-0.3-11.7-0.8c-4.4-0.6-8.6-4.3-9.8-8.6c-1.4-5.4-1.9-11.4-1.9-17.1c0-5.7,0.5-11.7,1.9-17.2
							c1.1-4.3,5.4-7.9,9.8-8.5c2.9-0.3,5.7-0.5,8.5-0.8C158.5,24,165.3,23.7,172.2,23.7z"/>
					</g>
					<path opacity="0.5" fill="#D0D1D1" d="M177.3,31.8L177.3,31.8L177.3,31.8L177.3,31.8L177.3,31.8z M177,31.8
						C177,31.8,177,31.8,177,31.8L177,31.8C177,31.8,177,31.8,177,31.8L177,31.8z M176.7,31.9C176.6,31.9,176.6,31.9,176.7,31.9
						L176.7,31.9C176.6,31.9,176.6,31.9,176.7,31.9L176.7,31.9z M176.4,32C176.4,32,176.3,32,176.4,32L176.4,32
						C176.3,32,176.4,32,176.4,32L176.4,32z M176.1,32.1C176.1,32.2,176.1,32.2,176.1,32.1L176.1,32.1
						C176.1,32.2,176.1,32.2,176.1,32.1L176.1,32.1z M175.9,32.3C175.9,32.3,175.9,32.3,175.9,32.3L175.9,32.3
						C175.9,32.3,175.9,32.3,175.9,32.3L175.9,32.3z M175.8,32.4L175.8,32.4L175.8,32.4C175.8,32.4,175.8,32.4,175.8,32.4
						C175.8,32.4,175.8,32.4,175.8,32.4z M175.7,32.5L175.7,32.5C175.7,32.5,175.7,32.5,175.7,32.5L175.7,32.5
						C175.7,32.5,175.7,32.5,175.7,32.5z"/>
					<path fill="#FFFFFF" stroke="#000000" stroke-width="0.2892" d="M183.9,45.4"/>
				</g>
			</g>
			<g>
				<g>
					<path fill="#C15142" d="M178.2,65.5h-26c-2.9,0-5.3-2.4-5.3-5.3V43.4c0-2.9,2.4-5.3,5.3-5.3h26c2.9,0,5.3,2.4,5.3,5.3v16.8
						C183.6,63.1,181.2,65.5,178.2,65.5z"/>
					<path fill="#FFFFFF" d="M165.3,59.4c-4.2,0-7.6-3.4-7.6-7.6s3.4-7.6,7.6-7.6s7.6,3.4,7.6,7.6S169.5,59.4,165.3,59.4z
						 M165.3,45.6c-3.4,0-6.1,2.7-6.1,6.1c0,3.4,2.7,6.1,6.1,6.1s6.1-2.7,6.1-6.1C171.4,48.4,168.6,45.6,165.3,45.6z"/>
					<g>
						<rect x="156.8" y="34.2" fill="#C15142" width="16.8" height="4.6"/>
						<path fill="#C15142" d="M173.7,39.5h-16.8c-0.4,0-0.8-0.3-0.8-0.8v-4.6c0-0.4,0.3-0.8,0.8-0.8h16.8c0.4,0,0.8,0.3,0.8,0.8v4.6
							C174.4,39.2,174.1,39.5,173.7,39.5z M157.6,38h15.3v-3.1h-15.3V38z"/>
					</g>
				</g>
				<g>
					<path fill="#C15142" d="M196.6,43.7h1.2v7.1h7.1v1.2h-7.1v7.1h-1.2v-7.1h-7.1v-1.2h7.1V43.7z"/>
				</g>
			</g>
		</g>
	</g>
</g>
</svg>
