<?xml version="1.0" encoding="utf-8"?>
<!-- Generator: Adobe Illustrator 18.0.0, SVG Export Plug-In . SVG Version: 6.00 Build 0)  -->
<!DOCTYPE svg PUBLIC "-//W3C//DTD SVG 1.1//EN" "http://www.w3.org/Graphics/SVG/1.1/DTD/svg11.dtd">
<svg version="1.1" id="Layer_1" xmlns="http://www.w3.org/2000/svg" xmlns:xlink="http://www.w3.org/1999/xlink" x="0px" y="0px"
	 viewBox="0 0 165 5" enable-background="new 0 0 165 5" xml:space="preserve">
<path fill="#DEDDE0" d="M80,2.5C80,1.1,81.1,0,82.5,0l0,0C83.9,0,85,1.1,85,2.5l0,0C85,3.9,83.9,5,82.5,5l0,0C81.1,5,80,3.9,80,2.5z
	 M40,2.5C40,1.1,41.1,0,42.5,0l0,0C43.9,0,45,1.1,45,2.5l0,0C45,3.9,43.9,5,42.5,5l0,0C41.1,5,40,3.9,40,2.5z M0,2.5
	C0,1.1,1.1,0,2.5,0l0,0C3.9,0,5,1.1,5,2.5l0,0C5,3.9,3.9,5,2.5,5l0,0C1.1,5,0,3.9,0,2.5z M120,2.5c0-1.4,1.1-2.5,2.5-2.5l0,0
	c1.4,0,2.5,1.1,2.5,2.5l0,0c0,1.4-1.1,2.5-2.5,2.5l0,0C121.1,5,120,3.9,120,2.5z M160,2.5c0-1.4,1.1-2.5,2.5-2.5l0,0
	c1.4,0,2.5,1.1,2.5,2.5l0,0c0,1.4-1.1,2.5-2.5,2.5l0,0C161.1,5,160,3.9,160,2.5z"/>
</svg>
