<?xml version="1.0" encoding="utf-8"?>
<!-- Generator: Adobe Illustrator 18.0.0, SVG Export Plug-In . SVG Version: 6.00 Build 0)  -->
<!DOCTYPE svg PUBLIC "-//W3C//DTD SVG 1.1//EN" "http://www.w3.org/Graphics/SVG/1.1/DTD/svg11.dtd">
<svg version="1.1" id="Layer_1" xmlns="http://www.w3.org/2000/svg" xmlns:xlink="http://www.w3.org/1999/xlink" x="0px" y="0px"
	 viewBox="0 0 95 85" enable-background="new 0 0 95 85" xml:space="preserve">
<g>
	<g>
		<linearGradient id="SVGID_1_" gradientUnits="userSpaceOnUse" x1="30.6226" y1="30.5976" x2="77.0838" y2="77.0587">
			<stop  offset="0" style="stop-color:#8F1E23"/>
			<stop  offset="0.3096" style="stop-color:#8F1E23"/>
			<stop  offset="1" style="stop-color:#AD252A;stop-opacity:0"/>
		</linearGradient>
		<path fill="url(#SVGID_1_)" d="M95,59.1L62.1,26.2c-1.3-1.7-4-2.2-5.9-2.2s-4.6,0.6-5.9,2.2c-1.2,1.6-1.5,6-1.5,6.5
			c0,0.1,0,0.2-0.1,0.2c-0.3,0-0.6,0.2-0.8,0.4c-0.3,0.3-0.4,0.7-0.3,1l0.2,2.2c0,0.2,0.1,0.3,0.1,0.4l-6.7-6.7
			c-1.1-1.4-3.5-2-5.2-2c-1.7,0-4.1,0.5-5.2,2c-1,1.4-1.3,5.3-1.3,5.7c0,0.1,0,0.2-0.1,0.2c-0.3,0-0.5,0.1-0.7,0.4
			c-0.2,0.2-0.3,0.6-0.3,0.9l0.2,1.9c0.1,0.6,0.6,1.1,1.1,1.2c0,0,0.1,0.1,0.1,0.3c0,0,0,0.2,0.1,0.6c0.3,1.1,1,2.7,1.9,4
			c-0.2,1.7-0.4,4-0.5,4.1c-0.9,1.8-3.4,2.3-4.1,2.4c-1.8,0.3-4.3,2.1-4.3,4.6V59l26,26h20L95,59.1z"/>
		<g>
			<path fill="#E96B5C" d="M43.3,36.6c-0.2-0.2-0.4-0.3-0.7-0.4c0,0-0.1-0.1-0.1-0.2c0-0.4-0.3-4.3-1.3-5.7c-1.1-1.4-3.5-2-5.2-2
				c-1.7,0-4.1,0.5-5.2,2c-1,1.4-1.3,5.3-1.3,5.7c0,0.1,0,0.2-0.1,0.2c-0.3,0-0.5,0.1-0.7,0.4c-0.2,0.2-0.3,0.6-0.3,0.9l0.2,1.9
				c0.1,0.6,0.6,1.1,1.1,1.2c0,0,0.1,0.1,0.1,0.3c0,0,0,0.2,0.1,0.6c0.3,1.4,1.3,3.5,2.7,5c0.9,1.3,2.1,2.3,3.3,2.3
				c1.2,0,2.4-1,3.3-2.3c1.3-1.5,2.3-3.6,2.7-5c0.1-0.4,0.1-0.6,0.1-0.6c0-0.1,0.1-0.2,0.1-0.3c0.5,0,1.1-0.5,1.1-1.2l0.2-1.9
				C43.6,37.2,43.5,36.8,43.3,36.6z"/>
			<path fill="#E96B5C" d="M64.5,33.4c-0.2-0.2-0.5-0.4-0.8-0.4c0,0-0.1-0.1-0.1-0.2c0-0.5-0.3-4.9-1.5-6.5c-1.3-1.7-4-2.2-5.9-2.2
				c-1.9,0-4.6,0.6-5.9,2.2c-1.2,1.6-1.5,6-1.5,6.5c0,0.1,0,0.2-0.1,0.2c-0.3,0-0.6,0.2-0.8,0.4c-0.3,0.3-0.4,0.7-0.3,1l0.2,2.2
				c0.1,0.7,0.7,1.3,1.3,1.3c0,0,0.1,0.1,0.1,0.3c0,0,0,0.3,0.1,0.7c0.4,1.6,1.5,4,3,5.7c1.1,1.5,2.4,2.6,3.8,2.6
				c1.4,0,2.7-1.2,3.8-2.6c1.5-1.7,2.6-4.1,3-5.7c0.1-0.4,0.2-0.7,0.2-0.7c0-0.2,0.1-0.2,0.1-0.3c0.6,0,1.2-0.6,1.3-1.3l0.2-2.2
				C64.8,34.1,64.7,33.7,64.5,33.4z"/>
			<path fill="#E96B5C" d="M39.7,56.3c0-2.1,1.1-3.9,2.5-5.2c-0.6-0.4-1.3-0.9-1.6-1.6c-0.2-0.3-0.5-2.3-0.5-2.3
				c-1,1.5-2.4,2.8-4,2.8c-1.6,0-3-1.3-4-2.8c0,0-0.4,2.1-0.5,2.3c-0.9,1.8-3.4,2.3-4.1,2.4c-1.8,0.3-4.3,2.1-4.3,4.6V59h16.5V56.3z
				"/>
			<path fill="#E96B5C" d="M66.1,51c-0.8-0.1-3.6-0.8-4.7-2.8c-0.2-0.4-0.5-2.6-0.5-2.6c-1.2,1.7-2.8,3.2-4.6,3.2
				c-1.8,0-3.4-1.5-4.6-3.2c0,0-0.4,2.4-0.5,2.6c-1.1,2-3.9,2.6-4.7,2.8c-2.1,0.3-4.9,2.4-4.9,5.3V59H71v-2.7
				C71,53.4,68.1,51.3,66.1,51z"/>
		</g>
	</g>
</g>
</svg>
