<?xml version="1.0" encoding="utf-8"?>
<!-- Generator: Adobe Illustrator 18.0.0, SVG Export Plug-In . SVG Version: 6.00 Build 0)  -->
<!DOCTYPE svg PUBLIC "-//W3C//DTD SVG 1.1//EN" "http://www.w3.org/Graphics/SVG/1.1/DTD/svg11.dtd">
<svg version="1.1" id="Layer_1" xmlns="http://www.w3.org/2000/svg" xmlns:xlink="http://www.w3.org/1999/xlink" x="0px" y="0px"
	 viewBox="0 0 55.7 50" enable-background="new 0 0 55.7 50" xml:space="preserve">
<g>
	<g>
		<g>
			<g>
				<path fill="#FFFFFF" d="M37.8,30.3c-3.5,0-6.3-5.2-7-7.9c-0.1-0.4-0.2-0.7-0.2-0.7c0-0.2-0.2-0.4-0.2-0.4c0,0,0,0,0,0
					c-0.5,0-1.2-0.5-1.3-1.3L29,17.7c0-0.4,0.1-0.7,0.3-1c0.2-0.3,0.5-0.4,0.8-0.4c0,0,0.1-0.1,0.1-0.3c0-0.5,0.3-5.1,1.5-6.7
					c1.3-1.7,4.1-2.3,6.1-2.3s4.8,0.6,6.1,2.3c1.2,1.6,1.5,6.2,1.5,6.7c0,0.2,0.1,0.3,0.1,0.3c0.2,0,0.6,0.1,0.8,0.4
					c0.2,0.3,0.4,0.6,0.3,1L46.5,20c-0.1,0.7-0.8,1.3-1.3,1.3c0,0-0.1,0.2-0.2,0.4l0,0c0,0,0,0.3-0.2,0.7
					C44.1,25.1,41.4,30.3,37.8,30.3z M30.6,20.2c0.5,0,1,0.5,1.2,1.2c0,0,0,0.3,0.1,0.6c0.6,2.6,3.2,7.1,6,7.1s5.3-4.6,6-7.1
					c0.1-0.4,0.1-0.6,0.1-0.6c0.1-0.7,0.6-1.2,1.2-1.2c0.1,0,0.3-0.2,0.3-0.4l0.2-2.3c0-0.1-0.1-0.2-0.2-0.2c0,0,0,0,0,0
					c-0.6,0-1.1-0.6-1.1-1.3c-0.1-1.3-0.4-5-1.3-6.1c-1-1.3-3.3-1.9-5.2-1.9s-4.2,0.6-5.2,1.9c-0.9,1.2-1.2,4.8-1.3,6.1
					c0,0.7-0.5,1.3-1.1,1.3c0,0-0.2,0.1-0.1,0.2l0.2,2.3C30.3,20.1,30.5,20.2,30.6,20.2L30.6,20.2z"/>
			</g>
		</g>
		<g>
			<path fill="#FFFFFF" d="M52.6,43.2H23.1c-0.3,0-0.5-0.2-0.5-0.5v-2.2c0-3,2.9-5.1,5.1-5.4c0.9-0.1,3.8-0.8,5-2.9
				c0.2-0.4,0.6-1.3,0.6-2.6v-2.3c0-0.3,0.2-0.5,0.5-0.5s0.5,0.2,0.5,0.5v2.3c0,1.5-0.4,2.5-0.7,3.1c-1.3,2.5-4.4,3.3-5.7,3.5
				c-1.5,0.3-4.2,1.9-4.2,4.4v1.7h28.5v-1.7c0-2.5-2.7-4.2-4.2-4.4c-1.3-0.2-4.4-1-5.7-3.5c-0.2-0.4-0.4-1.3-0.6-2.9l0-0.1
				c0,0,0-0.1,0-0.1v-2.3c0-0.3,0.2-0.5,0.5-0.5s0.5,0.2,0.5,0.5v2.2c0,0,0,0.1,0,0.1c0.3,1.8,0.4,2.4,0.5,2.5
				c1.1,2.2,4.1,2.8,5,2.9c2.1,0.4,5.1,2.4,5.1,5.4v2.2C53.1,42.9,52.9,43.2,52.6,43.2z"/>
		</g>
	</g>
	<g>
		<g>
			<g>
				<path fill="#FFFFFF" d="M16.3,31.6c-3.2,0-5.7-4.7-6.3-7.1c-0.1-0.4-0.1-0.6-0.1-0.6c0-0.2-0.1-0.3-0.2-0.3c0,0,0,0,0,0
					c-0.5,0-1.1-0.5-1.1-1.2l-0.2-2.1c0-0.3,0.1-0.7,0.3-0.9C8.8,19.1,9.1,19,9.4,19c0,0,0-0.1,0-0.2c0-0.5,0.3-4.6,1.4-6
					c1.2-1.5,3.7-2.1,5.5-2.1c1.8,0,4.3,0.5,5.5,2.1c1.1,1.5,1.3,5.6,1.4,6c0,0.2,0.1,0.2,0.1,0.3c0.2,0,0.5,0.1,0.7,0.4
					c0.2,0.3,0.3,0.6,0.3,0.9L24,22.4c-0.1,0.7-0.7,1.2-1.2,1.2c0,0-0.1,0.1-0.1,0.3l0,0c0,0,0,0.2-0.1,0.6
					C22,27,19.5,31.6,16.3,31.6z M9.8,22.5c0.5,0,1,0.5,1.1,1.2c0,0,0,0.2,0.1,0.6c0.7,2.7,3,6.4,5.3,6.4s4.6-3.7,5.3-6.4
					c0.1-0.3,0.1-0.6,0.1-0.6c0.1-0.7,0.6-1.2,1.1-1.2c0,0,0.2-0.1,0.2-0.3l0.2-2.1c0-0.1-0.1-0.2-0.1-0.2c0,0,0,0,0,0
					c-0.5,0-1-0.5-1-1.2c-0.1-1.2-0.4-4.4-1.2-5.5c-0.9-1.1-3-1.7-4.6-1.7c-1.7,0-3.8,0.5-4.6,1.7c-0.8,1-1.1,4.3-1.2,5.5
					c0,0.7-0.5,1.2-1.1,1.2c0,0-0.1,0.1-0.1,0.2l0.2,2.1C9.6,22.4,9.7,22.5,9.8,22.5C9.8,22.5,9.8,22.5,9.8,22.5z"/>
			</g>
		</g>
		<g>
			<path fill="#FFFFFF" d="M23.3,43.2H3.1c-0.3,0-0.5-0.2-0.5-0.5v-2c0-2.7,2.7-4.6,4.6-4.9c0.8-0.1,3.4-0.7,4.4-2.6
				c0.2-0.3,0.5-1.1,0.5-2.3v-2c0-0.3,0.2-0.5,0.5-0.5s0.5,0.2,0.5,0.5v2c0,1.4-0.3,2.3-0.6,2.8c-1.2,2.3-4,3-5.2,3.1
				C6,37,3.6,38.5,3.6,40.7v1.4h19.7c0.3,0,0.5,0.2,0.5,0.5S23.5,43.2,23.3,43.2z"/>
		</g>
		<g>
			<path fill="#FFFFFF" d="M25.3,36.8C25.3,36.8,25.3,36.8,25.3,36.8c-1.2-0.2-4.1-0.9-5.3-3.2c-0.2-0.4-0.4-1.2-0.6-2.6l0-0.1
				c0,0,0-0.1,0-0.1v-2c0-0.3,0.2-0.5,0.5-0.5s0.5,0.2,0.5,0.5v2c0,0,0,0.1,0,0.1c0.2,1.6,0.4,2.1,0.5,2.3c1,1.9,3.6,2.5,4.4,2.6
				c0.3,0,0.5,0.3,0.4,0.6C25.8,36.6,25.6,36.8,25.3,36.8z"/>
		</g>
	</g>
</g>
</svg>
