<?xml version="1.0" encoding="utf-8"?>
<!-- Generator: Adobe Illustrator 18.0.0, SVG Export Plug-In . SVG Version: 6.00 Build 0)  -->
<!DOCTYPE svg PUBLIC "-//W3C//DTD SVG 1.1//EN" "http://www.w3.org/Graphics/SVG/1.1/DTD/svg11.dtd">
<svg version="1.1" id="Layer_1" xmlns="http://www.w3.org/2000/svg" xmlns:xlink="http://www.w3.org/1999/xlink" x="0px" y="0px"
	 viewBox="0 0 24 24" enable-background="new 0 0 24 24" xml:space="preserve">
<g>
	<path fill="#9BA8B3" d="M8.2,11.9h-3v-5c0-3.6,3-6.6,6.6-6.6h1.8c3.6,0,6.6,3,6.6,6.6v1h-3v-1c0-2-1.6-3.6-3.6-3.6h-1.8
		c-2,0-3.6,1.6-3.6,3.6V11.9z"/>
</g>
<g>
	<path fill="#9BA8B3" d="M20.7,23.4h-16c-0.3,0-0.5-0.2-0.5-0.5v-11c0-0.3,0.2-0.5,0.5-0.5h16c0.3,0,0.5,0.2,0.5,0.5v11
		C21.2,23.2,21,23.4,20.7,23.4z M5.2,22.4h15v-10h-15V22.4z"/>
</g>
</svg>
