<?xml version="1.0" encoding="utf-8"?>
<!-- Generator: Adobe Illustrator 18.0.0, SVG Export Plug-In . SVG Version: 6.00 Build 0)  -->
<!DOCTYPE svg PUBLIC "-//W3C//DTD SVG 1.1//EN" "http://www.w3.org/Graphics/SVG/1.1/DTD/svg11.dtd">
<svg version="1.1" id="Layer_1" xmlns="http://www.w3.org/2000/svg" xmlns:xlink="http://www.w3.org/1999/xlink" x="0px" y="0px"
	 viewBox="0 0 30 30" enable-background="new 0 0 30 30" xml:space="preserve">
<g opacity="0.3">
	<g>
		<g>
			<path fill="#231F20" d="M3,29c-0.5,0-1-0.2-1.4-0.6c-0.8-0.8-0.8-2,0-2.8l24-24c0.8-0.8,2-0.8,2.8,0c0.8,0.8,0.8,2,0,2.8l-24,24
				C4,28.8,3.5,29,3,29z"/>
			<path fill="#231F20" d="M27,29c-0.5,0-1-0.2-1.4-0.6l-24-24c-0.8-0.8-0.8-2,0-2.8c0.8-0.8,2-0.8,2.8,0l24,24c0.8,0.8,0.8,2,0,2.8
				C28,28.8,27.5,29,27,29z"/>
		</g>
	</g>
</g>
<g>
	<g>
		<g>
			<path fill="#FFFFFF" d="M3,28c-0.3,0-0.5-0.1-0.7-0.3c-0.4-0.4-0.4-1,0-1.4l24-24c0.4-0.4,1-0.4,1.4,0s0.4,1,0,1.4l-24,24
				C3.5,27.9,3.3,28,3,28z"/>
			<path fill="#FFFFFF" d="M27,28c-0.3,0-0.5-0.1-0.7-0.3l-24-24c-0.4-0.4-0.4-1,0-1.4s1-0.4,1.4,0l24,24c0.4,0.4,0.4,1,0,1.4
				C27.5,27.9,27.3,28,27,28z"/>
		</g>
	</g>
</g>
</svg>
