<?xml version="1.0" encoding="utf-8"?>
<!-- Generator: Adobe Illustrator 18.0.0, SVG Export Plug-In . SVG Version: 6.00 Build 0)  -->
<!DOCTYPE svg PUBLIC "-//W3C//DTD SVG 1.1//EN" "http://www.w3.org/Graphics/SVG/1.1/DTD/svg11.dtd">
<svg version="1.1" id="Layer_1" xmlns="http://www.w3.org/2000/svg" xmlns:xlink="http://www.w3.org/1999/xlink" x="0px" y="0px"
	 viewBox="0 0 28 26" enable-background="new 0 0 28 26" xml:space="preserve">
<g>
	<path fill="#9BA8B3" d="M6,24.6c-0.1,0-0.2,0-0.3-0.1c-0.2-0.1-0.2-0.4-0.2-0.6l2.1-6h-5c-0.3,0-0.5-0.2-0.5-0.5V1.9
		c0-0.3,0.2-0.5,0.5-0.5h22.6c0.3,0,0.5,0.2,0.5,0.5v15.5c0,0.3-0.2,0.5-0.5,0.5h-9.8l-9.2,6.6C6.3,24.6,6.2,24.6,6,24.6z M3.2,16.9
		h5.2c0.2,0,0.3,0.1,0.4,0.2c0.1,0.1,0.1,0.3,0.1,0.5l-1.8,5.2l8-5.8c0.1-0.1,0.2-0.1,0.3-0.1h9.4V2.4H3.2V16.9z"/>
</g>
<rect x="58.5" y="-7.5" fill="#EC1C24" width="0.3" height="0"/>
</svg>
