<?xml version="1.0" encoding="utf-8"?>
<!-- Generator: Adobe Illustrator 18.0.0, SVG Export Plug-In . SVG Version: 6.00 Build 0)  -->
<!DOCTYPE svg PUBLIC "-//W3C//DTD SVG 1.1//EN" "http://www.w3.org/Graphics/SVG/1.1/DTD/svg11.dtd">
<svg version="1.1" id="Layer_1" xmlns="http://www.w3.org/2000/svg" xmlns:xlink="http://www.w3.org/1999/xlink" x="0px" y="0px"
	 viewBox="0 0 77 77" enable-background="new 0 0 77 77" xml:space="preserve">
<g>
	<g>
		<path fill="none" d="M38.5,5.8c18,0,32.7,14.7,32.7,32.7S56.5,71.2,38.5,71.2S5.8,56.5,5.8,38.5S20.5,5.8,38.5,5.8 M38.5,1
			C17.8,1,1,17.8,1,38.5S17.8,76,38.5,76S76,59.2,76,38.5S59.2,1,38.5,1"/>
	</g>
</g>
<g>
	<path fill="#FFFFFF" d="M20.1,38.8h3.4c0.5,0,0.8,0.3,0.8,0.8v14.7H34V40c0-0.5,0.3-0.8,0.8-0.8h7.5c0.5,0,0.8,0.3,0.8,0.8v14.2
		h9.7V39.6c0-0.5,0.3-0.8,0.8-0.8H57L38.5,19.1L20.1,38.8z"/>
	<path fill="#FFFFFF" d="M38.5,1C17.8,1,1,17.8,1,38.5S17.8,76,38.5,76S76,59.2,76,38.5S59.2,1,38.5,1z M59.5,39.7
		c-0.2,0.3-0.5,0.5-0.8,0.5h-4.5v14.7c0,0.5-0.3,0.8-0.8,0.8h-30c-0.5,0-0.8-0.3-0.8-0.8V40.2h-4.5c-0.3,0-0.6-0.2-0.8-0.5
		c-0.2-0.3,0-0.6,0.2-0.8l20.3-21.4c0.3-0.3,0.8-0.3,1.1,0l20.3,21.4C59.5,39.3,59.5,39.6,59.5,39.7z"/>
</g>
</svg>
