<?xml version="1.0" encoding="utf-8"?>
<!-- Generator: Adobe Illustrator 18.0.0, SVG Export Plug-In . SVG Version: 6.00 Build 0)  -->
<!DOCTYPE svg PUBLIC "-//W3C//DTD SVG 1.1//EN" "http://www.w3.org/Graphics/SVG/1.1/DTD/svg11.dtd">
<svg version="1.1" id="Layer_1" xmlns="http://www.w3.org/2000/svg" xmlns:xlink="http://www.w3.org/1999/xlink" x="0px" y="0px"
	 viewBox="0 0 77 77" enable-background="new 0 0 77 77" xml:space="preserve">
<g>
	<path fill="#FFFFFF" d="M38.5,5.8c18.1,0,32.7,14.7,32.7,32.7S56.5,71.2,38.5,71.2S5.8,56.5,5.8,38.5C5.8,20.5,20.5,5.8,38.5,5.8
		 M38.5,1C17.8,1,1,17.8,1,38.5S17.8,76,38.5,76S76,59.2,76,38.5S59.2,1,38.5,1"/>
	<g>

			<path fill="#FFFFFF" stroke="#FFFFFF" stroke-width="1.5" stroke-linecap="round" stroke-linejoin="round" stroke-miterlimit="10" d="
			M38.5,25.5c-7.2,0-12.2,7.5-12.2,13.8s0,3.2,0,5.1s-1.6,8.6-5,9.6v1h17.2"/>

			<path fill="#FFFFFF" stroke="#FFFFFF" stroke-width="1.5" stroke-linecap="round" stroke-linejoin="round" stroke-miterlimit="10" d="
			M38.5,25.5c7.2,0,12.2,7.5,12.2,13.8s0,3.2,0,5.1s1.6,8.6,5,9.6v1H38.5"/>
		<path fill="#FFFFFF" d="M43.9,55c0,3-2.4,5.4-5.4,5.4S33.1,58,33.1,55H43.9z"/>
		<circle fill="#FFFFFF" stroke="#FFFFFF" stroke-width="1.5" stroke-miterlimit="10" cx="38.5" cy="21.7" r="3.8"/>
	</g>
</g>
</svg>
