<?xml version="1.0" encoding="utf-8"?>
<!-- Generator: Adobe Illustrator 18.0.0, SVG Export Plug-In . SVG Version: 6.00 Build 0)  -->
<!DOCTYPE svg PUBLIC "-//W3C//DTD SVG 1.1//EN" "http://www.w3.org/Graphics/SVG/1.1/DTD/svg11.dtd">
<svg version="1.1" id="Layer_1" xmlns="http://www.w3.org/2000/svg" xmlns:xlink="http://www.w3.org/1999/xlink" x="0px" y="0px"
	 viewBox="0 0 300 300" enable-background="new 0 0 300 300" xml:space="preserve">
<g>
	<g>
		<path fill="none" d="M148,127.2c12,0,21.8,9.8,21.8,21.8c0,12-9.8,21.8-21.8,21.8c-12,0-21.8-9.8-21.8-21.8
			C126.2,137,136,127.2,148,127.2 M148,124c-13.8,0-25,11.2-25,25c0,13.8,11.2,25,25,25c13.8,0,25-11.2,25-25
			C173,135.2,161.8,124,148,124"/>
	</g>
	<g>
		<path fill="#FFFFFF" d="M158,160.5h-20c-0.3,0-0.5-0.2-0.5-0.5v-9.8h-3c-0.2,0-0.4-0.1-0.5-0.3c-0.1-0.2,0-0.4,0.1-0.5l13.5-14.3
			c0.2-0.2,0.5-0.2,0.7,0l13.5,14.3c0.1,0.1,0.2,0.4,0.1,0.5c-0.1,0.2-0.3,0.3-0.5,0.3h-3v9.8C158.5,160.3,158.3,160.5,158,160.5z
			 M138.5,159.5h19v-9.8c0-0.3,0.2-0.5,0.5-0.5h2.3L148,136.1l-12.3,13.1h2.3c0.3,0,0.5,0.2,0.5,0.5V159.5z"/>
	</g>
	<g>
		<path fill="#FFFFFF" d="M145,160v-10c0-0.3,0.2-0.5,0.5-0.5h5c0.3,0,0.5,0.2,0.5,0.5v10H145z"/>
	</g>
</g>
</svg>
