<?xml version="1.0" encoding="utf-8"?>
<!-- Generator: Adobe Illustrator 18.0.0, SVG Export Plug-In . SVG Version: 6.00 Build 0)  -->
<!DOCTYPE svg PUBLIC "-//W3C//DTD SVG 1.1//EN" "http://www.w3.org/Graphics/SVG/1.1/DTD/svg11.dtd">
<svg version="1.1" id="Layer_1" xmlns="http://www.w3.org/2000/svg" xmlns:xlink="http://www.w3.org/1999/xlink" x="0px" y="0px"
	 viewBox="0 0 46 20" enable-background="new 0 0 46 20" xml:space="preserve">
<g>
	<path fill="#9BA8B3" d="M6.2,17.4v-6.1L0.4,2.5H4l3.7,6l3.7-6H15l-5.7,8.8v6.1H6.2z"/>
	<path fill="#9BA8B3" d="M16,17.4V2.5h10.5v2.8h-7.4v3.1h7.2v2.8h-7.2v3.4h7.4v2.8H16z"/>
	<path fill="#9BA8B3" d="M28,15.3l1.7-2.4c1,1.1,2.7,2,4.7,2c1.7,0,2.6-0.8,2.6-1.7c0-2.6-8.6-0.8-8.6-6.4c0-2.5,2.1-4.5,5.7-4.5
		c2.4,0,4.3,0.7,5.8,2.1l-1.8,2.3c-1.2-1.1-2.8-1.6-4.3-1.6c-1.4,0-2.1,0.6-2.1,1.5c0,2.4,8.6,0.8,8.6,6.3c0,2.7-1.9,4.8-6,4.8
		C31.4,17.7,29.4,16.7,28,15.3z"/>
	<path fill="#9BA8B3" d="M42,15.9c0-1,0.8-1.8,1.8-1.8c1,0,1.8,0.8,1.8,1.8c0,1-0.8,1.8-1.8,1.8C42.8,17.7,42,16.8,42,15.9z
		 M42.5,12.6L42.1,2.5h3.4L45,12.6H42.5z"/>
</g>
</svg>
