<?xml version="1.0" encoding="utf-8"?>
<!-- Generator: Adobe Illustrator 18.0.0, SVG Export Plug-In . SVG Version: 6.00 Build 0)  -->
<!DOCTYPE svg PUBLIC "-//W3C//DTD SVG 1.1//EN" "http://www.w3.org/Graphics/SVG/1.1/DTD/svg11.dtd">
<svg version="1.1" id="Layer_1" xmlns="http://www.w3.org/2000/svg" xmlns:xlink="http://www.w3.org/1999/xlink" x="0px" y="0px"
	 viewBox="0 0 38 50" enable-background="new 0 0 38 50" xml:space="preserve">
<g>
	<g>
		<g>
			<path fill="#FFFFFF" d="M19,31.2c-4.2,0-7.5-6.2-8.4-9.5c-0.1-0.5-0.2-0.9-0.2-0.9c-0.1-0.3-0.3-0.5-0.3-0.6c0,0,0,0,0,0
				c-0.6,0-1.4-0.6-1.5-1.5L8.4,16c0-0.4,0.1-0.8,0.4-1.1c0.3-0.3,0.6-0.5,0.9-0.5c0,0,0.2-0.2,0.2-0.5c0-0.2,0.3-6.1,1.8-8.1
				c1.5-2,4.9-2.7,7.3-2.7c2.4,0,5.7,0.7,7.3,2.7c1.5,2,1.8,7.8,1.8,8.1c0,0.3,0.2,0.5,0.2,0.5c0,0,0,0,0,0c0.3,0,0.7,0.2,0.9,0.5
				c0.3,0.3,0.4,0.7,0.4,1.1l-0.3,2.8c-0.1,0.8-0.9,1.5-1.5,1.5c-0.1,0-0.3,0.2-0.3,0.6c0,0-0.1,0.3-0.2,0.9
				C26.5,25,23.2,31.2,19,31.2z M10.1,19.3c0.6,0,1.2,0.6,1.3,1.4c0,0,0.1,0.3,0.2,0.8c0.8,3.1,3.9,8.7,7.4,8.7
				c3.5,0,6.6-5.6,7.4-8.7c0.1-0.5,0.2-0.8,0.2-0.8c0.1-0.8,0.7-1.4,1.3-1.4c0.1,0,0.4-0.3,0.4-0.5l0.3-2.8c0-0.1-0.1-0.2-0.1-0.3
				c-0.1-0.1-0.2-0.1-0.2-0.1c-0.7,0-1.2-0.7-1.3-1.5c-0.1-1.6-0.5-6.1-1.6-7.5c-1.2-1.6-4.1-2.3-6.4-2.3c-2.3,0-5.2,0.7-6.4,2.3
				c-1.1,1.4-1.5,5.9-1.6,7.5c0,0.8-0.6,1.5-1.3,1.5c0,0-0.1,0-0.2,0.1c0,0.1-0.1,0.2-0.1,0.3l0.3,2.8C9.7,19,10,19.2,10.1,19.3
				L10.1,19.3z"/>
		</g>
	</g>
	<g>
		<path fill="#FFFFFF" d="M36.9,46.9H1.1c-0.3,0-0.5-0.2-0.5-0.5v-2.7c0-3.6,3.5-6.1,6-6.5c1.1-0.2,4.7-1,6.1-3.6
			c0.1-0.3,0.4-1,0.7-3.1c0,0,0-0.1,0-0.1v-2.7c0-0.3,0.2-0.5,0.5-0.5s0.5,0.2,0.5,0.5v2.8c0,0,0,0.1,0,0.1l0,0.1
			c-0.2,1.2-0.4,2.8-0.8,3.5c-1.6,3-5.3,3.9-6.9,4.2c-2.1,0.4-5.2,2.5-5.2,5.5v2.1h34.8v-2.1c0-3-3.1-5.1-5.2-5.5
			C29.7,38,25.9,37,24.4,34c-0.4-0.7-0.8-1.9-0.8-3.7v-2.8c0-0.3,0.2-0.5,0.5-0.5s0.5,0.2,0.5,0.5v2.8c0,1.2,0.2,2.4,0.7,3.2
			c1.4,2.7,5,3.4,6.1,3.6c2.5,0.4,6,3,6,6.5v2.7C37.4,46.6,37.2,46.9,36.9,46.9z"/>
	</g>
</g>
</svg>
