<?xml version="1.0" encoding="utf-8"?>
<!-- Generator: Adobe Illustrator 18.0.0, SVG Export Plug-In . SVG Version: 6.00 Build 0)  -->
<!DOCTYPE svg PUBLIC "-//W3C//DTD SVG 1.1//EN" "http://www.w3.org/Graphics/SVG/1.1/DTD/svg11.dtd">
<svg version="1.1" id="Layer_1" xmlns="http://www.w3.org/2000/svg" xmlns:xlink="http://www.w3.org/1999/xlink" x="0px" y="0px"
	 viewBox="0 0 20 20" enable-background="new 0 0 20 20" xml:space="preserve">
<g>
	<circle fill="#9BA8B3" cx="16" cy="17.1" r="2.9"/>
	<circle fill="#9BA8B3" cx="3.8" cy="10" r="2.9"/>
	<circle fill="#9BA8B3" cx="16" cy="2.9" r="2.9"/>
	<g>
		<path fill="#9BA8B3" d="M16,17.6c-0.1,0-0.2,0-0.3-0.1L3.5,10.4c-0.2-0.1-0.3-0.3-0.3-0.4s0.1-0.3,0.3-0.4l12.2-7.1
			c0.2-0.1,0.5-0.1,0.7,0.2c0.1,0.2,0.1,0.5-0.2,0.7L4.8,10l11.5,6.6c0.2,0.1,0.3,0.4,0.2,0.7C16.4,17.5,16.2,17.6,16,17.6z"/>
	</g>
</g>
</svg>
