<?xml version="1.0" encoding="utf-8"?>
<!-- Generator: Adobe Illustrator 18.0.0, SVG Export Plug-In . SVG Version: 6.00 Build 0)  -->
<!DOCTYPE svg PUBLIC "-//W3C//DTD SVG 1.1//EN" "http://www.w3.org/Graphics/SVG/1.1/DTD/svg11.dtd">
<svg version="1.1" id="Layer_1" xmlns="http://www.w3.org/2000/svg" xmlns:xlink="http://www.w3.org/1999/xlink" x="0px" y="0px"
	 viewBox="0 0 50 50" enable-background="new 0 0 50 50" xml:space="preserve">
<rect fill="#35424D" width="50" height="50"/>
<g>
	<path fill="#FFFFFF" d="M39,13.5H11c-1.1,0-2-0.9-2-2s0.9-2,2-2h28c1.1,0,2,0.9,2,2S40.1,13.5,39,13.5z"/>
	<path fill="#FFFFFF" d="M32.6,40.5H17.4l-5.1-30h25.5L32.6,40.5z M19.1,38.5h11.9l4.4-26H14.6L19.1,38.5z"/>
	<polygon fill="#FFFFFF" points="34.2,28.1 34.6,25.7 19.9,11 17.1,11 	"/>
	<polygon fill="#FFFFFF" points="35.6,20.4 36,18 29,11 26.2,11 	"/>
	<polygon fill="#FFFFFF" points="13.8,16.8 32.9,35.9 33.3,33.5 13.3,13.4 	"/>
	<polygon fill="#FFFFFF" points="27.9,40 30.8,40 15.1,24.4 15.7,27.8 	"/>
	<polygon fill="#FFFFFF" points="15.8,28.1 32.9,11 30.1,11 15.4,25.7 	"/>
	<polygon fill="#FFFFFF" points="14.4,20.4 23.8,11 21,11 14,18 	"/>
	<polygon fill="#FFFFFF" points="17.1,35.9 36.2,16.8 36.7,13.4 16.7,33.5 	"/>
	<polygon fill="#FFFFFF" points="22.1,40 34.3,27.8 34.9,24.4 19.2,40 	"/>
	<polygon fill="#FFFFFF" points="31.1,40 32.4,38.7 33,35.3 28.3,40 	"/>
	<polygon fill="#FFFFFF" points="18.9,40 21.7,40 17,35.3 17.6,38.7 	"/>
</g>
</svg>
