<?xml version="1.0" encoding="utf-8"?>
<!-- Generator: Adobe Illustrator 18.0.0, SVG Export Plug-In . SVG Version: 6.00 Build 0)  -->
<!DOCTYPE svg PUBLIC "-//W3C//DTD SVG 1.1//EN" "http://www.w3.org/Graphics/SVG/1.1/DTD/svg11.dtd">
<svg version="1.1" id="Layer_1" xmlns="http://www.w3.org/2000/svg" xmlns:xlink="http://www.w3.org/1999/xlink" x="0px" y="0px"
	 viewBox="0 0 20 20" enable-background="new 0 0 20 20" xml:space="preserve">
<g>
	<path fill="#9BA8B3" d="M1.2,19.3c-0.1,0-0.3,0-0.4-0.1c-0.2-0.2-0.2-0.5,0-0.7L18.5,0.8c0.2-0.2,0.5-0.2,0.7,0s0.2,0.5,0,0.7
		L1.5,19.2C1.4,19.3,1.3,19.3,1.2,19.3z"/>
</g>
<g>
	<path fill="#9BA8B3" d="M1.2,19.3c-0.1,0-0.3,0-0.4-0.1c-0.2-0.2-0.2-0.5,0-0.7L18.5,0.8c0.2-0.2,0.5-0.2,0.7,0s0.2,0.5,0,0.7
		L1.5,19.2C1.4,19.3,1.3,19.3,1.2,19.3z"/>
</g>
<g>
	<path fill="#9BA8B3" d="M18.8,19.3c-0.1,0-0.3,0-0.4-0.1L0.8,1.5C0.6,1.3,0.6,1,0.8,0.8s0.5-0.2,0.7,0l17.6,17.6
		c0.2,0.2,0.2,0.5,0,0.7C19.1,19.3,19,19.3,18.8,19.3z"/>
</g>
<g>
	<path fill="#9BA8B3" d="M18.8,19.3c-0.1,0-0.3,0-0.4-0.1L0.8,1.5C0.6,1.3,0.6,1,0.8,0.8s0.5-0.2,0.7,0l17.6,17.6
		c0.2,0.2,0.2,0.5,0,0.7C19.1,19.3,19,19.3,18.8,19.3z"/>
</g>
</svg>
