<?xml version="1.0" encoding="utf-8"?>
<!-- Generator: Adobe Illustrator 18.0.0, SVG Export Plug-In . SVG Version: 6.00 Build 0)  -->
<!DOCTYPE svg PUBLIC "-//W3C//DTD SVG 1.1//EN" "http://www.w3.org/Graphics/SVG/1.1/DTD/svg11.dtd">
<svg version="1.1" id="Layer_1" xmlns="http://www.w3.org/2000/svg" xmlns:xlink="http://www.w3.org/1999/xlink" x="0px" y="0px"
	 viewBox="0 0 77 77" enable-background="new 0 0 77 77" xml:space="preserve">
<g>
	<g>
		<path fill="#FFFFFF" d="M38.5,5.8c18,0,32.7,14.7,32.7,32.7S56.5,71.2,38.5,71.2S5.8,56.5,5.8,38.5S20.5,5.8,38.5,5.8 M38.5,1
			C17.8,1,1,17.8,1,38.5S17.8,76,38.5,76S76,59.2,76,38.5S59.2,1,38.5,1"/>
	</g>
</g>
<g>
	<circle fill="#FFFFFF" cx="38.5" cy="19.5" r="3"/>
	<path fill="#FFFFFF" d="M38.5,1C17.8,1,1,17.8,1,38.5S17.8,76,38.5,76S76,59.2,76,38.5S59.2,1,38.5,1z M56.5,52.8
		c0,0.5-0.3,0.8-0.8,0.8H43.9c-0.3,2.7-2.5,4.7-5.4,4.7s-5-2.1-5.4-4.7H21.3c-0.5,0-0.8-0.3-0.8-0.8v-1c0-0.3,0.3-0.6,0.6-0.8
		c2.8-0.8,4.5-6.9,4.5-8.8V37c0-6,4.2-12.5,10-14.1C34.7,22,34,20.8,34,19.5c0-2.5,2-4.5,4.5-4.5s4.5,2,4.5,4.5
		c0,1.3-0.6,2.5-1.7,3.5c6,1.7,10,8.3,10,14.1v5.1c0,2,1.7,8.1,4.5,8.8c0.3,0.2,0.6,0.5,0.6,0.8C56.5,51.7,56.5,52.8,56.5,52.8z"/>
</g>
<path fill="#FFFFFF" d="M50.1,42.6v-5.1c0-6.2-5-13-11.5-13S27,31.4,27,37.5v5.1c0,2-1.3,8.1-4.7,9.9h32.3
	C51.5,50.7,50.1,44.6,50.1,42.6z"/>
</svg>
