<?xml version="1.0" encoding="utf-8"?>
<!-- Generator: Adobe Illustrator 18.0.0, SVG Export Plug-In . SVG Version: 6.00 Build 0)  -->
<!DOCTYPE svg PUBLIC "-//W3C//DTD SVG 1.1//EN" "http://www.w3.org/Graphics/SVG/1.1/DTD/svg11.dtd">
<svg version="1.1" id="Layer_1" xmlns="http://www.w3.org/2000/svg" xmlns:xlink="http://www.w3.org/1999/xlink" x="0px" y="0px"
	 viewBox="0 0 24 24" enable-background="new 0 0 24 24" xml:space="preserve">
<g>
	<path fill="#9BA8B3" d="M16.8,23H7.2c-0.2,0-0.5-0.2-0.5-0.4l-3.4-20c0-0.1,0-0.3,0.1-0.4C3.5,2.1,3.6,2,3.7,2h16.5
		c0.1,0,0.3,0.1,0.4,0.2c0.1,0.1,0.1,0.3,0.1,0.4l-3.4,20C17.3,22.8,17.1,23,16.8,23z M7.6,22h8.9l3.2-19H4.3L7.6,22z"/>
</g>
<g>
	<path fill="#9BA8B3" d="M22,4H2C1.2,4,0.5,3.3,0.5,2.5S1.2,1,2,1h20c0.8,0,1.5,0.7,1.5,1.5S22.8,4,22,4z"/>
</g>
<path fill="#9BA8B3" d="M12,6.1L9.5,3.5L8,3.5L5.5,6.1L4.1,4.7l0.6,3.6l0.8-0.8L8,10l-2.5,2.5l0.2,1.6L8,16.5l-1.6,1.6l0.2,1.2
	l2.1-2.1l2.5,2.5l-2.5,2.5l-2-2L7.1,22l0.5,0.5H10l2-2l2,2h2.4l0.5-0.5l0.3-1.7l-2,2l-2.5-2.5l2.5-2.5l2.1,2.1l0.2-1.2L16,16.5
	l2.3-2.3l0.2-1.6L16,10l2.5-2.5l0.8,0.8l0.6-3.6l-1.4,1.4L16,3.5l-1.4,0L12,6.1z M14.5,10L12,12.6L9.5,10L12,7.5L14.5,10z M6.2,6.8
	l2.5-2.5l2.5,2.5L8.8,9.3L6.2,6.8z M6.2,13.3l2.5-2.5l2.5,2.5l-2.5,2.5L6.2,13.3z M12,19l-2.5-2.5L12,14l2.5,2.5L12,19z M17.8,13.3
	l-2.5,2.5l-2.5-2.5l2.5-2.5L17.8,13.3z M17.8,6.8l-2.5,2.5l-2.5-2.5l2.5-2.5L17.8,6.8z"/>
</svg>
