<?xml version="1.0" encoding="utf-8"?>
<!-- Generator: Adobe Illustrator 18.0.0, SVG Export Plug-In . SVG Version: 6.00 Build 0)  -->
<!DOCTYPE svg PUBLIC "-//W3C//DTD SVG 1.1//EN" "http://www.w3.org/Graphics/SVG/1.1/DTD/svg11.dtd">
<svg version="1.1" id="Layer_1" xmlns="http://www.w3.org/2000/svg" xmlns:xlink="http://www.w3.org/1999/xlink" x="0px" y="0px"
	 viewBox="0 0 30 32" enable-background="new 0 0 30 32" xml:space="preserve">
<g>
	<circle fill="#9AA7B2" cx="24.2" cy="26.6" r="4.3"/>
	<circle fill="#9AA7B2" cx="5.8" cy="16" r="4.3"/>
	<circle fill="#9AA7B2" cx="24.2" cy="5.4" r="4.3"/>
	<path fill="#9AA7B2" d="M24.2,27.3c-0.1,0-0.3,0-0.4-0.1L5.4,16.6c-0.2-0.1-0.4-0.4-0.4-0.6s0.1-0.5,0.4-0.6L23.8,4.8
		c0.4-0.2,0.8-0.1,1,0.3c0.2,0.4,0.1,0.8-0.3,1L7.3,16l17.2,10c0.4,0.2,0.5,0.7,0.3,1C24.7,27.2,24.4,27.3,24.2,27.3z"/>
</g>
</svg>
