<?xml version="1.0" encoding="utf-8"?>
<!-- Generator: Adobe Illustrator 18.0.0, SVG Export Plug-In . SVG Version: 6.00 Build 0)  -->
<!DOCTYPE svg PUBLIC "-//W3C//DTD SVG 1.1//EN" "http://www.w3.org/Graphics/SVG/1.1/DTD/svg11.dtd">
<svg version="1.1" id="Layer_1" xmlns="http://www.w3.org/2000/svg" xmlns:xlink="http://www.w3.org/1999/xlink" x="0px" y="0px"
	 viewBox="0 0 70 60" enable-background="new 0 0 70 60" xml:space="preserve">
<g>
	<g>
		<polygon fill="#2A4172" points="70,30 60,42.5 50,30 60,17.5 		"/>
	</g>
	<g>
		<path fill="#2A4172" d="M60,55c0,2.8-2.3,5-5,5H5c-2.8,0-5-2.3-5-5L0,5c0-2.8,2.3-5,5-5l50,0c2.8,0,5,2.3,5,5V55z"/>
	</g>
</g>
<g>
	<path fill="#FFFFFF" d="M34.8,20.3h2.7v-4.4h-3.3v0C29,16.1,28,19,27.9,22.1h0v3.5h-2.6V30h2.6v14.1h5.3V30h4l0.8-4.4h-4.7v-3.2
		C33.1,21.4,33.8,20.3,34.8,20.3z"/>
</g>
</svg>
