<?xml version="1.0" encoding="utf-8"?>
<!-- Generator: Adobe Illustrator 18.0.0, SVG Export Plug-In . SVG Version: 6.00 Build 0)  -->
<!DOCTYPE svg PUBLIC "-//W3C//DTD SVG 1.1//EN" "http://www.w3.org/Graphics/SVG/1.1/DTD/svg11.dtd">
<svg version="1.1" id="Layer_1" xmlns="http://www.w3.org/2000/svg" xmlns:xlink="http://www.w3.org/1999/xlink" x="0px" y="0px"
	 viewBox="0 0 70 60" enable-background="new 0 0 70 60" xml:space="preserve">
<g>
	<g>
		<polygon fill="#252E36" points="70,30 60,42.5 50,30 60,17.5 		"/>
		<path fill="#252E36" d="M60,55c0,2.8-2.3,5-5,5H5c-2.8,0-5-2.3-5-5L0,5c0-2.8,2.3-5,5-5l50,0c2.8,0,5,2.3,5,5V55z"/>
	</g>
	<g>
		<g>
			<polygon fill="#252E36" points="70,30 60,42.5 50,30 60,17.5 			"/>
		</g>
		<g>
			<path fill="#252E36" d="M60,55c0,2.8-2.3,5-5,5H5c-2.8,0-5-2.3-5-5L0,5c0-2.8,2.3-5,5-5l50,0c2.8,0,5,2.3,5,5V55z"/>
		</g>
	</g>
	<g>
		<path fill="#FFFFFF" d="M41.2,44H18.8c-0.6,0-1-0.4-1-1V29c0-0.6,0.4-1,1-1h22.4c0.6,0,1,0.4,1,1v14C42.2,43.6,41.8,44,41.2,44z
			 M19.8,42h20.4V30H19.8V42z"/>
		<path fill="#FFFFFF" d="M39,29h-4v-7c0-2.8-2.2-5-5-5s-5,2.2-5,5v7h-4v-7c0-5,4-9,9-9s9,4,9,9V29z"/>
	</g>
</g>
</svg>
