<?xml version="1.0" encoding="utf-8"?>
<!-- Generator: Adobe Illustrator 18.1.1, SVG Export Plug-In . SVG Version: 6.00 Build 0)  -->
<!DOCTYPE svg PUBLIC "-//W3C//DTD SVG 1.1//EN" "http://www.w3.org/Graphics/SVG/1.1/DTD/svg11.dtd">
<svg version="1.1" id="Layer_1" xmlns="http://www.w3.org/2000/svg" xmlns:xlink="http://www.w3.org/1999/xlink" x="0px" y="0px"
	 viewBox="0 0 70 60" enable-background="new 0 0 70 60" xml:space="preserve">
<path fill="#508093" d="M63,60H17c-3.9,0-7-3.2-7-7V7c0-3.9,3.2-7,7-7h46c3.8,0,7,3.1,7,7v46C70,56.8,66.9,60,63,60z"/>
<polygon fill="#508093" points="0,30 10,17.5 20,30 10,42.5 "/>
<path fill="#FFFFFF" d="M44.9,17.4h3.2v-5.3h-4v0c-6.2,0.2-7.5,3.7-7.6,7.4h0v4.2h-3.2V29h3.2v16.9h6.3V29h4.7l0.9-5.3h-5.7v-3.8
	C42.9,18.7,43.7,17.4,44.9,17.4z"/>
</svg>
