<?xml version="1.0" encoding="utf-8"?>
<!-- Generator: Adobe Illustrator 18.0.0, SVG Export Plug-In . SVG Version: 6.00 Build 0)  -->
<!DOCTYPE svg PUBLIC "-//W3C//DTD SVG 1.1//EN" "http://www.w3.org/Graphics/SVG/1.1/DTD/svg11.dtd">
<svg version="1.1" id="Layer_1" xmlns="http://www.w3.org/2000/svg" xmlns:xlink="http://www.w3.org/1999/xlink" x="0px" y="0px"
	 viewBox="0 0 70 60" enable-background="new 0 0 70 60" xml:space="preserve">
<g>
	<g>
		<polygon fill="#53BF72" points="0,30 10,17.5 20,30 10,42.5 		"/>
		<path fill="#53BF72" d="M10,5c0-2.8,2.3-5,5-5l50,0c2.8,0,5,2.3,5,5v50c0,2.8-2.3,5-5,5H15c-2.8,0-5-2.3-5-5V5z"/>
	</g>
	<g>
		<g>
			<path fill="#FFFFFF" d="M35.2,33.7c-2.6,0-4.9-1-6.8-2.8c-1.8-1.8-2.8-4.2-2.8-6.8c0-2.6,1-4.9,2.8-6.8s4.2-2.8,6.8-2.8
				c2.6,0,4.9,1,6.8,2.8s2.8,4.2,2.8,6.8c0,2.6-1,4.9-2.8,6.8C40.1,32.7,37.7,33.7,35.2,33.7z M35.2,16.6c-2,0-3.9,0.8-5.3,2.2
				c-1.4,1.4-2.2,3.3-2.2,5.3c0,2,0.8,3.9,2.2,5.3c1.4,1.4,3.3,2.2,5.3,2.2s3.9-0.8,5.3-2.2s2.2-3.3,2.2-5.3c0-2-0.8-3.9-2.2-5.3
				C39.1,17.4,37.2,16.6,35.2,16.6z"/>
			<path fill="#FFFFFF" d="M52,42c-0.3,0-0.5-0.1-0.7-0.3L40.5,30.9c-0.4-0.4-0.4-1,0-1.4s1-0.4,1.4,0l10.8,10.8
				c0.4,0.4,0.4,1,0,1.4C52.5,41.9,52.3,42,52,42z"/>
		</g>
		<path fill="#FFFFFF" d="M55.1,40.6l-4.9-4.9l-3.5-3.5l-3.5,3.5l3.5,3.5l4.9,4.9c0.5,0.5,1.1,0.7,1.8,0.7s1.3-0.2,1.8-0.7
			C56.1,43.2,56.1,41.6,55.1,40.6z"/>
	</g>
</g>
</svg>
