<?xml version="1.0" encoding="utf-8"?>
<!-- Generator: Adobe Illustrator 18.0.0, SVG Export Plug-In . SVG Version: 6.00 Build 0)  -->
<!DOCTYPE svg PUBLIC "-//W3C//DTD SVG 1.1//EN" "http://www.w3.org/Graphics/SVG/1.1/DTD/svg11.dtd">
<svg version="1.1" id="Layer_1" xmlns="http://www.w3.org/2000/svg" xmlns:xlink="http://www.w3.org/1999/xlink" x="0px" y="0px"
	 viewBox="0 0 70 60" enable-background="new 0 0 70 60" xml:space="preserve">
<g>
	<g>
		<polygon fill="#1B6847" points="70,30 60,42.5 50,30 60,17.5 		"/>
	</g>
	<g>
		<path fill="#1B6847" d="M60,55c0,2.8-2.3,5-5,5H5c-2.8,0-5-2.3-5-5L0,5c0-2.8,2.3-5,5-5l50,0c2.8,0,5,2.3,5,5V55z"/>
	</g>
	<g>
		<g>
			<path fill="#FFFFFF" d="M27,41.6c-0.3,0-0.5-0.1-0.7-0.3L15.8,29.9c-0.4-0.4-0.4-1,0.1-1.4c0.4-0.4,1-0.4,1.4,0.1L27,39
				l15.7-20.2c0.3-0.4,1-0.5,1.4-0.2c0.4,0.3,0.5,1,0.2,1.4L27.8,41.2C27.6,41.4,27.4,41.6,27,41.6C27.1,41.6,27.1,41.6,27,41.6z"/>
		</g>
	</g>
</g>
</svg>
