<?xml version="1.0" encoding="utf-8"?>
<!-- Generator: Adobe Illustrator 18.0.0, SVG Export Plug-In . SVG Version: 6.00 Build 0)  -->
<!DOCTYPE svg PUBLIC "-//W3C//DTD SVG 1.1//EN" "http://www.w3.org/Graphics/SVG/1.1/DTD/svg11.dtd">
<svg version="1.1" id="Layer_1" xmlns="http://www.w3.org/2000/svg" xmlns:xlink="http://www.w3.org/1999/xlink" x="0px" y="0px"
	 viewBox="0 0 70 60" enable-background="new 0 0 70 60" xml:space="preserve">
<g>
	<g>
		<polygon fill="#6B757C" points="70,30 60,42.5 50,30 60,17.5 		"/>
	</g>
	<g>
		<path fill="#6B757C" d="M60,55c0,2.8-2.3,5-5,5H5c-2.8,0-5-2.3-5-5L0,5c0-2.8,2.3-5,5-5l50,0c2.8,0,5,2.3,5,5V55z"/>
	</g>
</g>
<g>
	<g>
		<g>
			<path fill="#FFFFFF" d="M43.8,41.2H16.2c-0.6,0-1-0.4-1-1V19.8c0-0.6,0.4-1,1-1h27.6c0.6,0,1,0.4,1,1v20.4
				C44.8,40.8,44.4,41.2,43.8,41.2z M17.2,39.2h25.6V20.8H17.2V39.2z"/>
		</g>
		<g>
			<path fill="#FFFFFF" d="M30,32.8c-0.2,0-0.5-0.1-0.7-0.2l-13.8-12c-0.4-0.4-0.5-1-0.1-1.4c0.4-0.4,1-0.5,1.4-0.1L30,30.5L43.1,19
				c0.4-0.4,1-0.3,1.4,0.1c0.4,0.4,0.3,1-0.1,1.4l-13.8,12C30.5,32.7,30.2,32.8,30,32.8z"/>
		</g>
	</g>
</g>
</svg>
