<?xml version="1.0" encoding="utf-8"?>
<!-- Generator: Adobe Illustrator 18.1.1, SVG Export Plug-In . SVG Version: 6.00 Build 0)  -->
<!DOCTYPE svg PUBLIC "-//W3C//DTD SVG 1.1//EN" "http://www.w3.org/Graphics/SVG/1.1/DTD/svg11.dtd">
<svg version="1.1" id="Layer_1" xmlns="http://www.w3.org/2000/svg" xmlns:xlink="http://www.w3.org/1999/xlink" x="0px" y="0px"
	 viewBox="0 0 138 138" enable-background="new 0 0 138 138" xml:space="preserve">
<g>
	<linearGradient id="SVGID_1_" gradientUnits="userSpaceOnUse" x1="55.8215" y1="56.9999" x2="137.4108" y2="138.5892">
		<stop  offset="0.1851" style="stop-color:#111128"/>
		<stop  offset="0.6574" style="stop-color:#FFFFFF"/>
	</linearGradient>
	<polygon opacity="0.1" fill="url(#SVGID_1_)" points="138,64.3 93.2,19.6 18.4,94.4 62,138 138,138 	"/>
	<g>
		<circle fill="#B0252C" cx="55.8" cy="57" r="55"/>
		<g>
			<linearGradient id="SVGID_2_" gradientUnits="userSpaceOnUse" x1="13.4735" y1="56.2679" x2="24.36" y2="59.1849">
				<stop  offset="0.8214" style="stop-color:#FFFFFF"/>
				<stop  offset="0.9592" style="stop-color:#CCCCCD"/>
				<stop  offset="1" style="stop-color:#A8A9AB"/>
			</linearGradient>
			<path fill="url(#SVGID_2_)" d="M20.9,60c0-2.7-6.9-0.8-6.9-5.3c0-0.3-0.1-3.7,5.3-3.7c1.9,0,2.3,0.3,2.3,0.3v2.4
				c0,0-0.3-0.3-2.3-0.3c-0.6,0-2.3,0-2.3,1.3c0,2.1,7,0.4,7,5.3c0,1.3-0.6,4.3-5.9,4.3c-3.4,0-4.3-0.6-4.3-0.6v-3.5h2.7v1.4
				c0,0,0.5,0.2,1.6,0.2C20.6,61.7,20.9,60.8,20.9,60"/>
			<linearGradient id="SVGID_3_" gradientUnits="userSpaceOnUse" x1="23.9074" y1="55.1851" x2="31.6186" y2="55.1851">
				<stop  offset="0.6327" style="stop-color:#FFFFFF"/>
				<stop  offset="1" style="stop-color:#A8A9AB"/>
			</linearGradient>
			<path fill="url(#SVGID_3_)" d="M28.2,61.1c0.5,0,1.8-0.5,2.1-1.9l1.2,1.6c0,0,0.1,0.1,0.1,0.3c0,0.6-1.4,3-4.3,3
				c-2.2,0-3.4-1.5-3.4-3.5V48.1l3-1.8v5.1h2.4v2.5h-2.4v5.8C26.9,60.2,27,61.1,28.2,61.1"/>
			<linearGradient id="SVGID_4_" gradientUnits="userSpaceOnUse" x1="30.2709" y1="57.5977" x2="46.609" y2="57.5977">
				<stop  offset="0.7602" style="stop-color:#FFFFFF"/>
				<stop  offset="1" style="stop-color:#A8A9AB"/>
			</linearGradient>
			<path fill="url(#SVGID_4_)" d="M41.8,59.4c0,0.6,0.2,1.7,1.4,1.7c0.7,0,1.7-0.4,2.2-2l1.2,1.6c0,0,0.1,0.1,0.1,0.3
				c0,0.7-1.3,3.1-4.3,3.1c-1.5,0-2.6-0.8-3-1.9c0-0.1,0-0.1-0.1-0.1c0,0-0.1,0.1-0.1,0.1c-0.8,1.4-2.4,2.2-4.1,2.2
				c-4.4,0-4.8-4.4-4.8-5.8c0-3.6,1.9-7.6,7.7-7.6c1.7,0,3.8,0.5,3.8,0.5V59.4 M38.8,53.6c0,0-0.4-0.2-1.4-0.2c-1.4,0-4,1-4,4.7
				c0,0.7,0,3.2,2.4,3.2c1.9,0,3-1.7,3-3.1V53.6"/>
			<linearGradient id="SVGID_5_" gradientUnits="userSpaceOnUse" x1="44.8787" y1="61.3426" x2="61.1905" y2="61.3426">
				<stop  offset="0.7041" style="stop-color:#FFFFFF"/>
				<stop  offset="0.9133" style="stop-color:#A8A9AB"/>
			</linearGradient>
			<path fill="url(#SVGID_5_)" d="M61.2,62.1l-0.6-2c0,0-1.3,0.8-3,1.1c-0.6,0.1-1.2,0.2-1.6,0.3V51.4h-3v7.4c0,0,0,2.6,0,2.6
				c-0.3,0-0.7,0.1-1,0.1c-2.6,0-4-1.2-4-4.5c0-1.9,0-3,0-3h1v-2.5h-4.1V56c0,4.1,0.8,8,7,8c0.4,0,0.8,0,1.2-0.1
				c0,3-1.4,4.7-4.3,4.7h-0.5v-1.3h-2.6V71c0,0,0.9,0.3,2.6,0.3c6.5,0,7.6-4.4,7.8-7.3c0.6-0.1,1.5-0.2,2.3-0.5
				C60.4,62.9,61.2,62.1,61.2,62.1z"/>
			<linearGradient id="SVGID_6_" gradientUnits="userSpaceOnUse" x1="58.5116" y1="56.7027" x2="72.5583" y2="56.7027">
				<stop  offset="0.7143" style="stop-color:#FFFFFF"/>
				<stop  offset="0.949" style="stop-color:#A8A9AB"/>
			</linearGradient>
			<path fill="url(#SVGID_6_)" d="M72.5,60.7l-1.2-1.6c-0.5,1.6-1.5,2-2.2,2c-1.2,0-1.4-1.1-1.4-1.7l0-8h-6.2l0-3.3
				c0-1.1,0.3-1.8,0.6-2.2c0.4-0.4,1-0.8,1.8-0.8c0.7,0,1.4,0.2,1.9,0.3v-2.6c-0.2-0.1-1.3-0.4-2.4-0.4c-3.2,0-4.9,1.8-5,5.3l0,0V71
				l3-0.9l0-15.8h3v6.4c0,1.9,1.5,3.5,3.7,3.5c3,0,4.3-2.5,4.3-3.1C72.6,60.9,72.5,60.7,72.5,60.7"/>
			<path fill="#FFFFFF" d="M66,50.5c-1,0-1.8-0.8-1.8-1.8c0-1,0.8-1.8,1.8-1.8c1.1,0,1.8,0.8,1.8,1.8C67.7,49.7,66.9,50.5,66,50.5"
				/>
			<linearGradient id="SVGID_7_" gradientUnits="userSpaceOnUse" x1="70.047" y1="53.7962" x2="79.0764" y2="53.7962">
				<stop  offset="0.5357" style="stop-color:#FFFFFF"/>
				<stop  offset="0.9643" style="stop-color:#A8A9AB"/>
			</linearGradient>
			<path fill="url(#SVGID_7_)" d="M74.3,59.4c0,0.6,0.2,1.7,1.4,1.7c0.7,0,1.7-0.4,2.2-2l1.2,1.6c0,0,0.1,0.1,0.1,0.3
				c0,0.7-1.3,3.1-4.3,3.1c-2.2,0-3.6-1.6-3.6-3.5V46H70v-2.5h4.2V59.4"/>
			<path fill="#FFFFFF" d="M92.7,55.8c0-1.7-1.5-1.9-1.9-1.9c-1.7,0-2.7,1.5-2.7,3.3v6.6h-3v-8c0-1.7-1.4-1.9-1.8-1.9
				c-1.6,0-2.6,1.5-2.6,3.3v6.6h-3v-9.9h-1.2v-2.5h4.2v1.2c0,0,1.1-1.5,3.4-1.5c1.4,0,2.7,0.4,3.4,1.7c0,0,0,0,0.1,0
				c0,0,0.1-0.1,0.1-0.1c0.1-0.1,1.1-1.7,3.9-1.7c2.2,0,4.1,1.2,4.1,3.9c0,0,0,4.3,0,4.5c0,0.6,0.2,1.8,1.3,1.7
				c0.4,0,1.1-0.7,1.1-0.7l0.9,2.1c0,0-1.1,1.4-3.2,1.4c-1.6,0-3-1.5-3-3.4V55.8"/>
		</g>
	</g>
</g>
</svg>
