<?xml version="1.0" encoding="utf-8"?>
<!-- Generator: Adobe Illustrator 18.0.0, SVG Export Plug-In . SVG Version: 6.00 Build 0)  -->
<!DOCTYPE svg PUBLIC "-//W3C//DTD SVG 1.1//EN" "http://www.w3.org/Graphics/SVG/1.1/DTD/svg11.dtd">
<svg version="1.1" id="Layer_1" xmlns="http://www.w3.org/2000/svg" xmlns:xlink="http://www.w3.org/1999/xlink" x="0px" y="0px"
	 viewBox="0 0 182 62" enable-background="new 0 0 182 62" xml:space="preserve">
<g>
	<linearGradient id="SVGID_1_" gradientUnits="userSpaceOnUse" x1="0.2451" y1="29.832" x2="23.2524" y2="35.9968">
		<stop  offset="0.8214" style="stop-color:#FFFFFF"/>
		<stop  offset="0.9592" style="stop-color:#CCCDCE"/>
		<stop  offset="1" style="stop-color:#A9AAAC"/>
	</linearGradient>
	<path fill="url(#SVGID_1_)" d="M16,37.7C16,31.9,1.4,36,1.4,26.5c0-0.7-0.3-7.9,11.3-7.9c4.1,0,5,0.5,5,0.5v5.1
		c0,0-0.5-0.7-4.9-0.7c-1.4,0-4.9,0-4.9,2.7c0,4.4,14.7,0.9,14.7,11.2c0,2.7-1.3,9.1-12.4,9.1C3,46.5,1,45.3,1,45.3v-7.5h5.7v3
		c0,0,1.1,0.5,3.3,0.5C15.4,41.3,16,39.4,16,37.7"/>
	<linearGradient id="SVGID_2_" gradientUnits="userSpaceOnUse" x1="22.2958" y1="27.5437" x2="38.5925" y2="27.5437">
		<stop  offset="0.6327" style="stop-color:#FFFFFF"/>
		<stop  offset="1" style="stop-color:#A9AAAC"/>
	</linearGradient>
	<path fill="url(#SVGID_2_)" d="M31.4,40.1c1.1,0,3.8-1,4.5-4l2.5,3.5c0,0,0.2,0.3,0.2,0.5c0,1.2-2.9,6.3-9.1,6.3
		c-4.6,0-7.2-3.1-7.2-7.4V12.5l6.4-3.8v10.8h5.1v5.3h-5.1v12.3C28.7,38.1,28.8,40.1,31.4,40.1"/>
	<linearGradient id="SVGID_3_" gradientUnits="userSpaceOnUse" x1="35.7444" y1="32.6424" x2="70.273" y2="32.6424">
		<stop  offset="0.7602" style="stop-color:#FFFFFF"/>
		<stop  offset="1" style="stop-color:#A9AAAC"/>
	</linearGradient>
	<path fill="url(#SVGID_3_)" d="M60.1,36.5c0,1.3,0.5,3.6,2.9,3.6c1.5,0,3.6-0.8,4.7-4.2l2.4,3.4c0,0,0.2,0.3,0.2,0.5
		c0,1.4-2.7,6.6-9.1,6.6c-3.2,0-5.5-1.7-6.3-4.1c-0.1-0.2-0.1-0.2-0.1-0.2c-0.1,0-0.1,0.1-0.2,0.2c-1.7,2.9-5.1,4.6-8.6,4.6
		c-9.3,0-10.2-9.4-10.2-12.3c0-7.6,4-16.2,16.3-16.2c3.6,0,8.1,1.1,8.1,1.1V36.5 M53.8,24.2c0,0-0.8-0.4-3-0.4
		c-2.9,0-8.3,2.2-8.3,9.8c0,1.6,0.1,6.8,5,6.8c4.1,0,6.3-3.5,6.3-6.6V24.2"/>
	<linearGradient id="SVGID_4_" gradientUnits="userSpaceOnUse" x1="66.035" y1="40.3631" x2="100.5081" y2="40.3631">
		<stop  offset="0.7041" style="stop-color:#FFFFFF"/>
		<stop  offset="0.9133" style="stop-color:#A9AAAC"/>
	</linearGradient>
	<path fill="url(#SVGID_4_)" d="M100.5,41.9l-1.2-4.3c0,0-2.8,1.6-6.3,2.4c-1.3,0.3-2.5,0.5-3.5,0.5V19.3h-6.4v15.7
		c0,0,0.1,5.4,0,5.4c-0.7,0.1-1.4,0.1-2.1,0.1c-5.5,0-8.5-2.6-8.5-9.5c0-4.1,0-6.3,0-6.3h2.2v-5.3H66v9.8c0,8.7,1.7,17,14.7,17
		c0.8,0,1.6-0.1,2.4-0.1c-0.1,6.3-2.9,10-9.2,10h-1v-2.8h-5.5v7.6c0,0,1.9,0.7,5.4,0.7c13.7,0,16-9.4,16.4-15.3
		c1.4-0.2,3.2-0.4,4.9-1C98.8,43.6,100.5,41.9,100.5,41.9z"/>
	<linearGradient id="SVGID_5_" gradientUnits="userSpaceOnUse" x1="95.4277" y1="30.751" x2="125.1138" y2="30.751">
		<stop  offset="0.7143" style="stop-color:#FFFFFF"/>
		<stop  offset="0.949" style="stop-color:#A9AAAC"/>
	</linearGradient>
	<path fill="url(#SVGID_5_)" d="M124.9,39.3l-2.4-3.4c-1.1,3.4-3.2,4.2-4.7,4.2c-2.5,0-2.9-2.3-2.9-3.6l0-17h-13.1l0-7
		c0-2.3,0.6-3.8,1.3-4.7c0.8-0.9,2.1-1.6,3.8-1.6c1.6,0,3,0.3,3.9,0.6V1.4c-0.5-0.2-2.7-0.8-5-0.8c-6.8,0-10.3,3.8-10.5,11.3l0,0
		v49.1l6.4-1.9l0-33.5h6.4v13.5c0,3.9,3.1,7.3,7.7,7.3c6.4,0,9.1-5.2,9.1-6.6C125.1,39.6,124.9,39.3,124.9,39.3"/>
	<path fill="#FFFFFF" d="M111.2,17.6c-2.1,0-3.7-1.7-3.7-3.8c0-2,1.6-3.7,3.7-3.7c2.2,0,3.7,1.7,3.7,3.7
		C114.9,15.8,113.2,17.6,111.2,17.6"/>
	<linearGradient id="SVGID_6_" gradientUnits="userSpaceOnUse" x1="119.8064" y1="24.6084" x2="138.889" y2="24.6084">
		<stop  offset="0.5357" style="stop-color:#FFFFFF"/>
		<stop  offset="0.9643" style="stop-color:#A9AAAC"/>
	</linearGradient>
	<path fill="url(#SVGID_6_)" d="M128.7,36.4c0,1.3,0.5,3.6,2.9,3.6c1.5,0,3.6-0.8,4.7-4.2l2.4,3.4c0,0,0.2,0.3,0.2,0.5
		c0,1.4-2.7,6.6-9.1,6.6c-4.7,0-7.5-3.4-7.5-7.3V8.2h-2.5V2.8h8.9V36.4"/>
	<path fill="#FFFFFF" d="M167.8,28.9c0-3.5-3.1-4-4-4c-3.6,0-5.7,3.2-5.7,6.9v14h-6.3V28.9c0-3.5-2.9-4-3.8-4
		c-3.5,0-5.5,3.2-5.5,6.9v14h-6.4V24.9h-2.5v-5.4h8.9V22c0,0,2.3-3.1,7.2-3.1c3,0,5.8,0.8,7.2,3.6c0,0,0,0.1,0.1,0.1
		c0.1,0,0.1-0.1,0.1-0.1c0.2-0.3,2.3-3.6,8.3-3.6c4.7,0,8.6,2.5,8.6,8.2c0,0-0.1,9.1-0.1,9.6c0,1.3,0.4,3.8,2.8,3.7
		c0.9-0.1,2.3-1.6,2.3-1.6l1.8,4.4c0,0-2.4,3.1-6.8,3.1c-3.5,0-6.4-3.2-6.4-7.1V28.9"/>
</g>
</svg>
