<?xml version="1.0" encoding="utf-8"?>
<!-- Generator: Adobe Illustrator 18.0.0, SVG Export Plug-In . SVG Version: 6.00 Build 0)  -->
<!DOCTYPE svg PUBLIC "-//W3C//DTD SVG 1.1//EN" "http://www.w3.org/Graphics/SVG/1.1/DTD/svg11.dtd">
<svg version="1.1" id="Layer_1" xmlns="http://www.w3.org/2000/svg" xmlns:xlink="http://www.w3.org/1999/xlink" x="0px" y="0px"
	 viewBox="0 0 158 158" enable-background="new 0 0 158 158" xml:space="preserve">
<g>
	<rect fill="#DEDCDF" width="158" height="158"/>
</g>
<path fill="#98A6B1" d="M34,50.7v56.7h90V50.7H34z M43.5,101.7h-5.7V96h5.7V101.7z M43.5,88.4h-5.7v-5.7h5.7V88.4z M43.5,75.2h-5.7
	v-5.7h5.7V75.2z M43.5,62h-5.7v-5.7h5.7V62z M120.2,101.7h-5.7V96h5.7V101.7z M120.2,88.4h-5.7v-5.7h5.7V88.4z M120.2,75.2h-5.7
	v-5.7h5.7V75.2z M120.2,62h-5.7v-5.7h5.7V62z"/>
<rect x="48.3" y="56.3" fill="#DEDCDF" width="61.4" height="45.4"/>
</svg>
