<?xml version="1.0" encoding="utf-8"?>
<!-- Generator: Adobe Illustrator 18.0.0, SVG Export Plug-In . SVG Version: 6.00 Build 0)  -->
<!DOCTYPE svg PUBLIC "-//W3C//DTD SVG 1.1//EN" "http://www.w3.org/Graphics/SVG/1.1/DTD/svg11.dtd">
<svg version="1.1" id="Layer_1" xmlns="http://www.w3.org/2000/svg" xmlns:xlink="http://www.w3.org/1999/xlink" x="0px" y="0px"
	 viewBox="0 0 80 85" enable-background="new 0 0 80 85" xml:space="preserve">
<g>
	<g>
		<line fill="#AD252A" x1="0" y1="85" x2="0" y2="0"/>
	</g>
	<g>
		<linearGradient id="SVGID_1_" gradientUnits="userSpaceOnUse" x1="26.4165" y1="33.6722" x2="66.3722" y2="73.6278">
			<stop  offset="0" style="stop-color:#8F1E23"/>
			<stop  offset="0.3096" style="stop-color:#8F1E23"/>
			<stop  offset="1" style="stop-color:#AD252A;stop-opacity:0"/>
		</linearGradient>
		<path fill="url(#SVGID_1_)" d="M79.7,60.3l-34-34c-1.3-1.7-4-2.2-5.9-2.2c-1.9,0-4.6,0.6-5.9,2.2c-1.2,1.6-1.5,6-1.5,6.5
			c0,0.1,0,0.2-0.1,0.2c-0.3,0-0.6,0.2-0.8,0.4c-0.3,0.3-0.4,0.7-0.3,1l0.2,2.2c0.1,0.7,0.7,1.3,1.3,1.3c0,0,0.1,0.1,0.1,0.3
			c0,0,0,0.3,0.1,0.7c0.3,1.4,1.2,3.4,2.5,5c-0.3,1.8-0.8,4.1-0.8,4.2c-1.1,2-3.9,2.6-4.7,2.8c-2.1,0.3-4.9,2.4-4.9,5.3V59l26,26
			l12-8L79.7,60.3z"/>
		<g>
			<path fill="#E96B5C" d="M48,33.4c-0.2-0.2-0.5-0.4-0.8-0.4c0,0-0.1-0.1-0.1-0.2c0-0.5-0.3-4.9-1.5-6.5c-1.3-1.7-4-2.2-5.9-2.2
				c-1.9,0-4.6,0.6-5.9,2.2c-1.2,1.6-1.5,6-1.5,6.5c0,0.1,0,0.2-0.1,0.2c-0.3,0-0.6,0.2-0.8,0.4c-0.3,0.3-0.4,0.7-0.3,1l0.2,2.2
				c0.1,0.7,0.7,1.3,1.3,1.3c0,0,0.1,0.1,0.1,0.3c0,0,0,0.3,0.1,0.7c0.4,1.6,1.5,4,3,5.7c1.1,1.5,2.4,2.6,3.8,2.6
				c1.4,0,2.7-1.2,3.8-2.6c1.5-1.7,2.6-4.1,3-5.7c0.1-0.4,0.2-0.7,0.2-0.7c0-0.2,0.1-0.3,0.1-0.3c0.6,0,1.2-0.6,1.3-1.3l0.2-2.2
				C48.4,34.1,48.3,33.7,48,33.4z"/>
			<path fill="#E96B5C" d="M49.6,51c-0.8-0.1-3.6-0.8-4.7-2.8c-0.2-0.4-0.5-2.6-0.5-2.6c-1.2,1.7-2.8,3.2-4.6,3.2
				c-1.8,0-3.4-1.5-4.6-3.2c0,0-0.4,2.4-0.5,2.6c-1.1,2-3.9,2.6-4.7,2.8c-2.1,0.3-4.9,2.4-4.9,5.3V59h29.6v-2.7
				C54.6,53.4,51.7,51.3,49.6,51z"/>
		</g>
	</g>
</g>
</svg>
