<?xml version="1.0" encoding="utf-8"?>
<!-- Generator: Adobe Illustrator 18.0.0, SVG Export Plug-In . SVG Version: 6.00 Build 0)  -->
<!DOCTYPE svg PUBLIC "-//W3C//DTD SVG 1.1//EN" "http://www.w3.org/Graphics/SVG/1.1/DTD/svg11.dtd">
<svg version="1.1" id="Layer_1" xmlns="http://www.w3.org/2000/svg" xmlns:xlink="http://www.w3.org/1999/xlink" x="0px" y="0px"
	 viewBox="0 0 42 42" enable-background="new 0 0 42 42" xml:space="preserve">
<g>
	<path fill="#284274" d="M1,4c0-1.7,1.3-3,3-3h34c1.7,0,3,1.3,3,3v34c0,1.7-1.3,3-3,3H4c-1.7,0-3-1.3-3-3V4z"/>
	<path fill="#FFFFFF" d="M23.3,14.1h1.9V11h-2.3v0c-3.7,0.1-4.4,2.2-4.5,4.4h0v2.5h-1.9V21h1.9v10h3.8V21h2.8l0.6-3.1h-3.4v-2.3
		C22.1,14.9,22.6,14.1,23.3,14.1z"/>
</g>
</svg>
