<svg id="English" xmlns="http://www.w3.org/2000/svg" viewBox="0 0 1246 150"><defs><style>.cls-1{fill:#fff;}</style></defs><title>title_horizontal_english</title><path class="cls-1" d="M252,62a1.64,1.64,0,0,1-1.82,1.88h-5.59A1.64,1.64,0,0,1,242.74,62V13.72a1.61,1.61,0,0,1,1.82-1.82h5.59A1.61,1.61,0,0,1,252,13.72V62Z"/><path class="cls-1" d="M291.49,62.14a1.55,1.55,0,0,1-1.76,1.75h-5.08a2.18,2.18,0,0,1-1.89-1.62L270.39,34.64a0.63,0.63,0,0,0-.53-0.51c-0.31,0-.47.24-0.47,0.71v27.3a1.58,1.58,0,0,1-1.82,1.75h-5.33a1.5,1.5,0,0,1-1.62-1.75V13.65a1.5,1.5,0,0,1,1.63-1.75h5.33a2.46,2.46,0,0,1,2.21,1.82l12,26.72a0.75,0.75,0,0,0,.65.46c0.26,0,.39-0.24.39-0.72V13.72a1.7,1.7,0,0,1,.58-1.27,1.85,1.85,0,0,1,1.3-.55h5.07a1.58,1.58,0,0,1,1.76,1.82V62.14Z"/><path class="cls-1" d="M329.26,13.91l-9.88,48.23a1.88,1.88,0,0,1-1.89,1.75h-7.73q-1.37,0-1.69-1.75L297.93,13.91q-0.39-2,1.36-2h5.38a1.57,1.57,0,0,1,1.75,1.37l6.8,34.25a0.52,0.52,0,0,0,.46.59,0.53,0.53,0,0,0,.53-0.58l6.69-34.26a1.61,1.61,0,0,1,1.81-1.37H328a1.18,1.18,0,0,1,1.36,1.3A2.28,2.28,0,0,1,329.26,13.91Z"/><path class="cls-1" d="M345.77,62a1.64,1.64,0,0,1-1.82,1.88h-5.59A1.64,1.64,0,0,1,336.54,62V13.72a1.61,1.61,0,0,1,1.82-1.82h5.59a1.61,1.61,0,0,1,1.82,1.82V62Z"/><path class="cls-1" d="M383.85,18A1.58,1.58,0,0,1,382,19.76h-8a1.72,1.72,0,0,0-1.2.52,1.58,1.58,0,0,0-.55,1.17V62.14a1.5,1.5,0,0,1-1.62,1.75h-5.33a1.55,1.55,0,0,1-1.75-1.75V21.45a1.47,1.47,0,0,0-1.62-1.69h-8A1.55,1.55,0,0,1,352.2,18V13.59A1.52,1.52,0,0,1,354,11.9H382a1.55,1.55,0,0,1,1.82,1.69V18Z"/><path class="cls-1" d="M415.31,62a1.76,1.76,0,0,1-.58,1.33,1.85,1.85,0,0,1-1.3.55h-22A2,2,0,0,1,389.57,62V13.72a1.64,1.64,0,0,1,1.88-1.82h21.32a1.64,1.64,0,0,1,1.88,1.82v4.55a1.76,1.76,0,0,1-.59,1.33,1.86,1.86,0,0,1-1.31.55H400.44A1.64,1.64,0,0,0,398.54,22v8.84a1.62,1.62,0,0,0,1.89,1.75h9.34a1.64,1.64,0,0,1,1.89,1.82v4.42a1.89,1.89,0,0,1-1.89,1.88h-9.34a1.64,1.64,0,0,0-1.89,1.82v11a1.64,1.64,0,0,0,1.89,1.82h13a2,2,0,0,1,1.89,1.89V62Z"/><path class="cls-1" d="M471.28,13.59L460.1,42.45a4.1,4.1,0,0,0-.39,1.56V62.14A1.52,1.52,0,0,1,458,63.9h-5.65a1.55,1.55,0,0,1-1.76-1.75V44a4.1,4.1,0,0,0-.39-1.56L438.06,13.59a0.79,0.79,0,0,1-.13-0.46q0-1.23,1.56-1.23h6.32q1.11,0,1.76,1.68l6.83,17.55a0.92,0.92,0,1,0,1.82,0l5.64-17.55q0.52-1.69,1.69-1.69h6.36a1.18,1.18,0,0,1,1.43,1.23A1.46,1.46,0,0,1,471.28,13.59Z"/><path class="cls-1" d="M507.61,50.64a13.52,13.52,0,0,1-4.06,9.88,13.36,13.36,0,0,1-9.85,4.09h-2a13.35,13.35,0,0,1-9.85-4.09,13.51,13.51,0,0,1-4.06-9.88V25a13.3,13.3,0,0,1,4.06-9.81,13.47,13.47,0,0,1,9.85-4h2a13.47,13.47,0,0,1,9.85,4A13.31,13.31,0,0,1,507.61,25V50.64Zm-9.23-1.37V26.72a7.62,7.62,0,0,0-1.62-4.94,4.87,4.87,0,0,0-3.9-2,5,5,0,0,0-4,2,7.46,7.46,0,0,0-1.69,4.91V49.27a7.24,7.24,0,0,0,1.69,4.81,5,5,0,0,0,4,2,4.89,4.89,0,0,0,3.9-2A7.39,7.39,0,0,0,498.38,49.27Z"/><path class="cls-1" d="M545.57,50.64a13.29,13.29,0,0,1-4.23,9.85,13.84,13.84,0,0,1-10,4.13h-1.62a13.73,13.73,0,0,1-10-4.13,13.34,13.34,0,0,1-4.19-9.85V13.59a1.47,1.47,0,0,1,1.64-1.69h5.63a1.5,1.5,0,0,1,1.7,1.69v36a7.28,7.28,0,0,0,1.81,4.94,5.44,5.44,0,0,0,4.2,2.08,5.28,5.28,0,0,0,4.1-2.08,7.35,7.35,0,0,0,1.78-4.94v-36a1.52,1.52,0,0,1,1.75-1.69h5.59a1.8,1.8,0,0,1,1.27.52,1.58,1.58,0,0,1,.55,1.17V50.64Z"/><path class="cls-1" d="M583.27,62.14a1,1,0,0,1,.13.46A1.21,1.21,0,0,1,582,63.9h-5.64q-1.1,0-1.75-1.76l-6.65-18.91a1.53,1.53,0,0,0-1.3-1.3h-2.86a1.5,1.5,0,0,0-1.63,1.76V62.14a1.72,1.72,0,0,1-.52,1.2,1.64,1.64,0,0,1-1.23.55h-5.33a1.5,1.5,0,0,1-1.62-1.75V13.59a1.47,1.47,0,0,1,1.63-1.69h13.32a14.06,14.06,0,0,1,9.88,3.71,13.06,13.06,0,0,1,4.09,9.88V28a13,13,0,0,1-6.56,11.76q-0.33.2-.06,0.91Zm-9.36-33V25a4.9,4.9,0,0,0-1.53-3.64,5.14,5.14,0,0,0-3.74-1.5h-5q-1.5,0-1.5,1.75V32.57a1.47,1.47,0,0,0,1.63,1.69h4.88a5.2,5.2,0,0,0,3.74-1.46A4.8,4.8,0,0,0,573.91,29.19Z"/><path class="cls-1" d="M632.35,18.27a1.77,1.77,0,0,1-.58,1.33,1.85,1.85,0,0,1-1.3.55H618a1.85,1.85,0,0,0-1.3.55,1.7,1.7,0,0,0-.58,1.27v8.84A1.61,1.61,0,0,0,618,32.57h9.49a1.86,1.86,0,0,1,1.3.55,1.7,1.7,0,0,1,.59,1.27v4.42a1.89,1.89,0,0,1-1.88,1.88h-9.62a1.58,1.58,0,0,0-1.76,1.82V62a1.64,1.64,0,0,1-1.82,1.88h-5.27A1.89,1.89,0,0,1,607.19,62V13.72a1.7,1.7,0,0,1,.58-1.27,1.85,1.85,0,0,1,1.3-.55h21.39a1.64,1.64,0,0,1,1.88,1.82v4.55Z"/><path class="cls-1" d="M668.62,62.14a1,1,0,0,1,.13.46,1.21,1.21,0,0,1-1.43,1.3h-5.64q-1.1,0-1.75-1.76l-6.65-18.91a1.53,1.53,0,0,0-1.3-1.3h-2.87a1.5,1.5,0,0,0-1.63,1.76V62.14a1.72,1.72,0,0,1-.52,1.2,1.64,1.64,0,0,1-1.23.55h-5.33a1.5,1.5,0,0,1-1.62-1.75V13.59a1.47,1.47,0,0,1,1.63-1.69h13.32a14.06,14.06,0,0,1,9.88,3.71,13.06,13.06,0,0,1,4.1,9.88V28a13,13,0,0,1-6.57,11.76q-0.33.2-.06,0.91Zm-9.36-33V25a4.9,4.9,0,0,0-1.53-3.64,5.15,5.15,0,0,0-3.74-1.5h-5q-1.5,0-1.5,1.75V32.57a1.47,1.47,0,0,0,1.63,1.69H654a5.21,5.21,0,0,0,3.74-1.46A4.8,4.8,0,0,0,659.26,29.19Z"/><path class="cls-1" d="M685.52,62a1.64,1.64,0,0,1-1.82,1.88h-5.59A1.64,1.64,0,0,1,676.29,62V13.72a1.61,1.61,0,0,1,1.82-1.82h5.59a1.61,1.61,0,0,1,1.82,1.82V62Z"/><path class="cls-1" d="M719.9,62a1.76,1.76,0,0,1-.59,1.33,1.84,1.84,0,0,1-1.3.55H696A2,2,0,0,1,694.16,62V13.72A1.64,1.64,0,0,1,696,11.9h21.32a1.64,1.64,0,0,1,1.88,1.82v4.55a1.76,1.76,0,0,1-.59,1.33,1.86,1.86,0,0,1-1.3.55H705A1.64,1.64,0,0,0,703.13,22v8.84A1.61,1.61,0,0,0,705,32.57h9.34a1.64,1.64,0,0,1,1.89,1.82v4.42a1.89,1.89,0,0,1-1.89,1.88H705a1.64,1.64,0,0,0-1.89,1.82v11A1.64,1.64,0,0,0,705,55.32h13a2,2,0,0,1,1.89,1.89V62Z"/><path class="cls-1" d="M757.92,62.14a1.55,1.55,0,0,1-1.76,1.75h-5.08a2.18,2.18,0,0,1-1.89-1.62L736.82,34.64a0.63,0.63,0,0,0-.53-0.51q-0.47,0-.46.71v27.3A1.58,1.58,0,0,1,734,63.9h-5.33A1.5,1.5,0,0,1,727,62.14V13.65a1.5,1.5,0,0,1,1.63-1.75H734a2.46,2.46,0,0,1,2.21,1.82l12,26.72a0.75,0.75,0,0,0,.65.46c0.26,0,.39-0.24.39-0.72V13.72a1.7,1.7,0,0,1,.59-1.27,1.85,1.85,0,0,1,1.3-.55h5.07a1.58,1.58,0,0,1,1.76,1.82V62.14Z"/><path class="cls-1" d="M795.1,49.4a14.48,14.48,0,0,1-14.5,14.5H767.67a1.74,1.74,0,0,1-1.27-.55,1.81,1.81,0,0,1-.55-1.33V13.72a1.61,1.61,0,0,1,1.82-1.82h12.93a13.93,13.93,0,0,1,10.27,4.26,14,14,0,0,1,4.22,10.24v23Zm-9-.71V27.3a6.92,6.92,0,0,0-2.2-5.13A7.24,7.24,0,0,0,778.7,20h-2a1.65,1.65,0,0,0-1.91,1.82V54a1.75,1.75,0,0,0,.59,1.33,1.88,1.88,0,0,0,1.32.55h2a7.29,7.29,0,0,0,5.23-2.11A6.81,6.81,0,0,0,786.13,48.69Z"/><path class="cls-1" d="M832.87,50.83A13.06,13.06,0,0,1,828.74,61a15.15,15.15,0,0,1-10.63,3.77q-7.67,0-11.89-5.4a24.77,24.77,0,0,1-3.9-8.45,1.5,1.5,0,0,1,1-2.08l4.81-1.62a3.09,3.09,0,0,1,.59-0.06,1.62,1.62,0,0,1,1.69,1.23q2.21,8.13,7.67,8.13A5.76,5.76,0,0,0,822.37,55a5.58,5.58,0,0,0,1.53-4.13q0-3.44-5.33-8.06-4.87-4.09-9.81-8.19-5.33-5.27-5.33-10.4a12.11,12.11,0,0,1,4.16-9.69,13.66,13.66,0,0,1,9.36-3.31,13.43,13.43,0,0,1,11,5.33,19.2,19.2,0,0,1,3.25,6.37,2.44,2.44,0,0,1,.07.58A1.53,1.53,0,0,1,830.14,25l-4.23,1.37a1.14,1.14,0,0,1-.52.13,1.64,1.64,0,0,1-1.62-1.17q-2.92-6.89-6.82-6.89a4.64,4.64,0,0,0-3.61,1.75,5.88,5.88,0,0,0-1.53,4q0,2.67,5.46,7.08,8.84,7.15,10.14,8.45Q832.87,45.31,832.87,50.83Z"/><path class="cls-1" d="M882.2,18.27a1.76,1.76,0,0,1-.59,1.33,1.85,1.85,0,0,1-1.3.55H867.9a1.85,1.85,0,0,0-1.3.55A1.7,1.7,0,0,0,866,22v8.84a1.61,1.61,0,0,0,1.88,1.75h9.49a1.86,1.86,0,0,1,1.3.55,1.7,1.7,0,0,1,.58,1.27v4.42a1.89,1.89,0,0,1-1.88,1.88h-9.62A1.58,1.58,0,0,0,866,42.51V62a1.64,1.64,0,0,1-1.82,1.88h-5.26A1.89,1.89,0,0,1,857,62V13.72a1.7,1.7,0,0,1,.59-1.27,1.85,1.85,0,0,1,1.3-.55h21.38a1.64,1.64,0,0,1,1.88,1.82v4.55Z"/><path class="cls-1" d="M918.47,62.14a1,1,0,0,1,.13.46,1.21,1.21,0,0,1-1.43,1.3h-5.64q-1.1,0-1.75-1.76l-6.65-18.91a1.53,1.53,0,0,0-1.3-1.3H899a1.5,1.5,0,0,0-1.63,1.76V62.14a1.72,1.72,0,0,1-.52,1.2,1.64,1.64,0,0,1-1.24.55h-5.33a1.5,1.5,0,0,1-1.62-1.75V13.59a1.47,1.47,0,0,1,1.63-1.69h13.33a14.06,14.06,0,0,1,9.88,3.71,13.06,13.06,0,0,1,4.1,9.88V28A13,13,0,0,1,911,39.78c-0.22.13-.24,0.43-0.07,0.91Zm-9.36-33V25a4.9,4.9,0,0,0-1.53-3.64,5.15,5.15,0,0,0-3.74-1.5h-5q-1.49,0-1.49,1.75V32.57A1.47,1.47,0,0,0,899,34.26h4.88a5.21,5.21,0,0,0,3.74-1.46A4.8,4.8,0,0,0,909.11,29.19Z"/><path class="cls-1" d="M955.26,50.64a13.51,13.51,0,0,1-4.06,9.88,13.35,13.35,0,0,1-9.85,4.09h-2a13.35,13.35,0,0,1-9.85-4.09,13.51,13.51,0,0,1-4.06-9.88V25a13.3,13.3,0,0,1,4.06-9.81,13.46,13.46,0,0,1,9.85-4h2a13.46,13.46,0,0,1,9.85,4A13.3,13.3,0,0,1,955.26,25V50.64ZM946,49.27V26.72a7.63,7.63,0,0,0-1.62-4.94,4.87,4.87,0,0,0-3.9-2,5,5,0,0,0-4,2,7.46,7.46,0,0,0-1.69,4.91V49.27a7.24,7.24,0,0,0,1.69,4.81,5,5,0,0,0,4,2,4.89,4.89,0,0,0,3.9-2A7.39,7.39,0,0,0,946,49.27Z"/><path class="cls-1" d="M1003.23,62.14a1.55,1.55,0,0,1-1.76,1.75h-5a1.58,1.58,0,0,1-1.82-1.75V32.76a0.47,0.47,0,0,0-.46-0.59,0.63,0.63,0,0,0-.65.59l-7,29.38q-0.39,1.75-1.76,1.75h-3q-1.3,0-1.69-1.75L973.27,32.7a0.76,0.76,0,0,0-.65-0.71,0.61,0.61,0,0,0-.65.71V62.14a1.58,1.58,0,0,1-1.82,1.75h-5.33a1.5,1.5,0,0,1-1.62-1.75V13.59a1.47,1.47,0,0,1,1.63-1.69h10q1.49,0,1.95,2l5.81,24.5q0.39,1.76.84,1.76t0.77-1.75l5.32-24.77a1.71,1.71,0,0,1,1.69-1.69h10.28a1.52,1.52,0,0,1,1.76,1.69V62.14Z"/><path class="cls-1" d="M147.68,88.27a1.77,1.77,0,0,1-.58,1.33,1.85,1.85,0,0,1-1.3.55H133.38a1.85,1.85,0,0,0-1.3.55,1.7,1.7,0,0,0-.58,1.27v8.84a1.61,1.61,0,0,0,1.89,1.75h9.49a1.86,1.86,0,0,1,1.3.55,1.7,1.7,0,0,1,.58,1.27v4.42a1.89,1.89,0,0,1-1.89,1.88h-9.62a1.58,1.58,0,0,0-1.76,1.82V132a1.64,1.64,0,0,1-1.82,1.88h-5.27a1.89,1.89,0,0,1-1.88-1.88V83.72a1.7,1.7,0,0,1,.58-1.27,1.85,1.85,0,0,1,1.3-.55h21.39a1.64,1.64,0,0,1,1.88,1.82v4.55Z"/><path class="cls-1" d="M180.25,132a1.36,1.36,0,0,1-.3,1.3,1.59,1.59,0,0,1-1.28.58h-5.9q-1.31,0-1.7-1.87l-1.57-7.68a1.71,1.71,0,0,0-1.69-1.69h-7.93a1.75,1.75,0,0,0-1.88,1.69L156.65,132q-0.39,1.89-1.88,1.88H149a1.41,1.41,0,0,1-1.17-.58,1.57,1.57,0,0,1-.33-1.3L157,83.72q0.39-1.82,1.82-1.82h9.29q1.43,0,1.82,1.82Zm-13.13-19.83-3.05-17q-0.26-1.36-.72-1.36t-0.65,1.36l-2.79,17q-0.33,1.89,1.43,1.88h4.22A1.59,1.59,0,0,0,167.11,112.19Z"/><path class="cls-1" d="M215.08,120.05a14.06,14.06,0,0,1-4.26,10.27,13.9,13.9,0,0,1-10.24,4.29H200a14.65,14.65,0,0,1-14.56-14.56V95.68a13.93,13.93,0,0,1,4.28-10.24,14.13,14.13,0,0,1,10.35-4.26h0.59a13.84,13.84,0,0,1,10.22,4.26,14,14,0,0,1,4.21,10.24v2.21a1.68,1.68,0,0,1-.55,1.2,1.74,1.74,0,0,1-1.27.55h-5.46a1.85,1.85,0,0,1-1.3-.55,1.63,1.63,0,0,1-.58-1.2V97.11a8.41,8.41,0,0,0-1.55-5.1,4.62,4.62,0,0,0-3.85-2.11A5.11,5.11,0,0,0,196.45,92a7.86,7.86,0,0,0-1.71,5.1v22a8,8,0,0,0,1.69,5.17,5,5,0,0,0,4,2.11,4.94,4.94,0,0,0,4-2.11,8.11,8.11,0,0,0,1.66-5.17v-1.69a1.55,1.55,0,0,1,1.69-1.82h5.46a1.61,1.61,0,0,1,1.82,1.82v2.66Z"/><path class="cls-1" d="M248.75,132a1.76,1.76,0,0,1-.58,1.33,1.85,1.85,0,0,1-1.3.55h-22A2,2,0,0,1,223,132V83.72a1.64,1.64,0,0,1,1.88-1.82h21.32a1.64,1.64,0,0,1,1.88,1.82v4.55a1.76,1.76,0,0,1-.59,1.33,1.86,1.86,0,0,1-1.31.55H233.88A1.64,1.64,0,0,0,232,92v8.84a1.62,1.62,0,0,0,1.89,1.75h9.34a1.64,1.64,0,0,1,1.89,1.82v4.42a1.89,1.89,0,0,1-1.89,1.88h-9.34a1.64,1.64,0,0,0-1.89,1.82v11a1.64,1.64,0,0,0,1.89,1.82h13a2,2,0,0,1,1.89,1.89V132Z"/><path class="cls-1" d="M286.13,118.75a14.23,14.23,0,0,1-4.68,10.69,15.73,15.73,0,0,1-11.25,4.45H257.79A1.89,1.89,0,0,1,255.9,132V83.72a1.64,1.64,0,0,1,1.88-1.82H269q7.34,0,11.5,3.83a12.08,12.08,0,0,1,4,9.42,11.92,11.92,0,0,1-4.68,9.95,1.26,1.26,0,0,0-.58,1,1.1,1.1,0,0,0,.58.91A13.6,13.6,0,0,1,286.13,118.75Zm-11-22.49A5.88,5.88,0,0,0,273.53,92a5.29,5.29,0,0,0-4-1.69h-2.76a1.62,1.62,0,0,0-1.91,1.75V101a1.79,1.79,0,0,0,.59,1.3,1.84,1.84,0,0,0,1.32.58h2.76a5,5,0,0,0,4-2A7.09,7.09,0,0,0,275.14,96.26Zm1,22.1a7.88,7.88,0,0,0-2.18-5.36,6.25,6.25,0,0,0-4.65-2.44h-2.53a1.64,1.64,0,0,0-1.89,1.82v11.44a1.64,1.64,0,0,0,1.89,1.82h3.57a5.09,5.09,0,0,0,4.1-2.11A8,8,0,0,0,276.12,118.36Z"/><path class="cls-1" d="M323.89,120.64a13.52,13.52,0,0,1-4.06,9.88,13.36,13.36,0,0,1-9.85,4.09h-2a13.35,13.35,0,0,1-9.85-4.09,13.51,13.51,0,0,1-4.06-9.88V95a13.3,13.3,0,0,1,4.06-9.81,13.47,13.47,0,0,1,9.85-4h2a13.47,13.47,0,0,1,9.85,4A13.31,13.31,0,0,1,323.89,95v25.61Zm-9.23-1.37V96.72A7.62,7.62,0,0,0,313,91.78a4.87,4.87,0,0,0-3.9-2,5,5,0,0,0-4,2,7.46,7.46,0,0,0-1.69,4.91v22.56a7.24,7.24,0,0,0,1.69,4.81,5,5,0,0,0,4,2,4.89,4.89,0,0,0,3.9-2A7.39,7.39,0,0,0,314.66,119.27Z"/><path class="cls-1" d="M361.66,120.64a13.52,13.52,0,0,1-4.06,9.88,13.36,13.36,0,0,1-9.85,4.09h-2a13.35,13.35,0,0,1-9.85-4.09,13.51,13.51,0,0,1-4.06-9.88V95a13.3,13.3,0,0,1,4.06-9.81,13.47,13.47,0,0,1,9.85-4h2a13.47,13.47,0,0,1,9.85,4A13.31,13.31,0,0,1,361.66,95v25.61Zm-9.23-1.37V96.72a7.62,7.62,0,0,0-1.62-4.94,4.87,4.87,0,0,0-3.9-2,5,5,0,0,0-4,2,7.46,7.46,0,0,0-1.69,4.91v22.56a7.24,7.24,0,0,0,1.69,4.81,5,5,0,0,0,4,2,4.89,4.89,0,0,0,3.9-2A7.39,7.39,0,0,0,352.43,119.27Z"/><path class="cls-1" d="M400.92,132.14a2.18,2.18,0,0,1,.06.52,1.12,1.12,0,0,1-1.3,1.23h-6.62q-1,0-1.75-1.76l-7.91-20.42a0.81,0.81,0,0,0-.65-0.64,0.93,0.93,0,0,0-.72.65l-3,5.07a2.38,2.38,0,0,0-.33,1.17v14.17A1.52,1.52,0,0,1,377,133.9h-5.78a1.5,1.5,0,0,1-1.62-1.75V83.59a1.47,1.47,0,0,1,1.63-1.69H377a1.49,1.49,0,0,1,1.69,1.69V99.32q0,1,.52,1a1.43,1.43,0,0,0,1-.91l9-15.73q1-1.75,1.82-1.75h6.5a1.19,1.19,0,0,1,1.43,1.24,0.93,0.93,0,0,1-.18.52l-10,17.08a1.28,1.28,0,0,0-.05,1Z"/><path class="cls-1" d="M454.22,88a1.58,1.58,0,0,1-1.82,1.76h-8a1.72,1.72,0,0,0-1.2.52,1.58,1.58,0,0,0-.55,1.17v40.69A1.5,1.5,0,0,1,441,133.9h-5.33a1.55,1.55,0,0,1-1.75-1.75V91.45a1.47,1.47,0,0,0-1.62-1.69h-8A1.55,1.55,0,0,1,422.56,88V83.59a1.52,1.52,0,0,1,1.75-1.69H452.4a1.55,1.55,0,0,1,1.82,1.69V88Z"/><path class="cls-1" d="M489.77,120.64a13.52,13.52,0,0,1-4.06,9.88,13.36,13.36,0,0,1-9.85,4.09h-2a13.35,13.35,0,0,1-9.85-4.09,13.51,13.51,0,0,1-4.06-9.88V95A13.3,13.3,0,0,1,464,85.21a13.47,13.47,0,0,1,9.85-4h2a13.47,13.47,0,0,1,9.85,4A13.31,13.31,0,0,1,489.77,95v25.61Zm-9.23-1.37V96.72a7.62,7.62,0,0,0-1.62-4.94,4.87,4.87,0,0,0-3.9-2,5,5,0,0,0-4,2,7.46,7.46,0,0,0-1.69,4.91v22.56a7.24,7.24,0,0,0,1.69,4.81,5,5,0,0,0,4,2,4.89,4.89,0,0,0,3.9-2A7.39,7.39,0,0,0,480.54,119.27Z"/><path class="cls-1" d="M544.89,118.75a14.23,14.23,0,0,1-4.68,10.69A15.73,15.73,0,0,1,529,133.9H516.55a1.89,1.89,0,0,1-1.88-1.88V83.72a1.64,1.64,0,0,1,1.88-1.82H527.8q7.34,0,11.5,3.83a12.08,12.08,0,0,1,4,9.42,11.92,11.92,0,0,1-4.68,9.95,1.26,1.26,0,0,0-.58,1,1.1,1.1,0,0,0,.58.91A13.6,13.6,0,0,1,544.89,118.75Zm-11-22.49A5.88,5.88,0,0,0,532.29,92a5.29,5.29,0,0,0-4-1.69h-2.76a1.62,1.62,0,0,0-1.91,1.75V101a1.79,1.79,0,0,0,.59,1.3,1.84,1.84,0,0,0,1.32.58h2.76a5,5,0,0,0,4-2A7.09,7.09,0,0,0,533.91,96.26Zm1,22.1A7.88,7.88,0,0,0,532.7,113a6.25,6.25,0,0,0-4.65-2.44h-2.53a1.64,1.64,0,0,0-1.89,1.82v11.44a1.64,1.64,0,0,0,1.89,1.82h3.57a5.09,5.09,0,0,0,4.1-2.11A8,8,0,0,0,534.88,118.36Z"/><path class="cls-1" d="M578.56,132a1.76,1.76,0,0,1-.58,1.33,1.85,1.85,0,0,1-1.3.55h-22a2,2,0,0,1-1.88-1.88V83.72a1.64,1.64,0,0,1,1.88-1.82H576a1.64,1.64,0,0,1,1.88,1.82v4.55a1.76,1.76,0,0,1-.59,1.33,1.86,1.86,0,0,1-1.31.55H563.68A1.64,1.64,0,0,0,561.79,92v8.84a1.62,1.62,0,0,0,1.89,1.75H573a1.64,1.64,0,0,1,1.89,1.82v4.42a1.89,1.89,0,0,1-1.89,1.88h-9.34a1.64,1.64,0,0,0-1.89,1.82v11a1.64,1.64,0,0,0,1.89,1.82h13a2,2,0,0,1,1.89,1.89V132Z"/><path class="cls-1" d="M631.79,98.73a13.5,13.5,0,0,1-4,9.85,13.26,13.26,0,0,1-9.81,4.06h-4.56a1.55,1.55,0,0,0-1.76,1.75v17.75a1.57,1.57,0,0,1-1.81,1.75h-5.55a1.49,1.49,0,0,1-1.61-1.75V83.59a1.47,1.47,0,0,1,1.63-1.69H618A13.2,13.2,0,0,1,627.8,86a13.52,13.52,0,0,1,4,9.85v2.92Zm-9.17.85V95.16A4.81,4.81,0,0,0,621,91.52,5.4,5.4,0,0,0,617.2,90h-3.64a2.09,2.09,0,0,0-1.29.49,1.47,1.47,0,0,0-.63,1.2v11.44a1.47,1.47,0,0,0,.63,1.2,2.08,2.08,0,0,0,1.29.49h3.64a5.37,5.37,0,0,0,3.8-1.53A4.94,4.94,0,0,0,622.63,99.58Z"/><path class="cls-1" d="M664.75,132a1.37,1.37,0,0,1-.29,1.3,1.59,1.59,0,0,1-1.28.58h-5.89q-1.31,0-1.7-1.87L654,124.34a1.71,1.71,0,0,0-1.69-1.69H644.4a1.75,1.75,0,0,0-1.88,1.69L641.15,132q-0.39,1.89-1.88,1.88h-5.78a1.42,1.42,0,0,1-1.17-.58A1.57,1.57,0,0,1,632,132l9.55-48.3q0.39-1.82,1.82-1.82h9.29q1.43,0,1.82,1.82Zm-13.13-19.83-3.05-17q-0.26-1.36-.71-1.36t-0.65,1.36l-2.79,17q-0.33,1.89,1.43,1.88h4.23A1.59,1.59,0,0,0,651.62,112.19Z"/><path class="cls-1" d="M701.08,132.14a1,1,0,0,1,.13.46,1.21,1.21,0,0,1-1.43,1.3h-5.64q-1.1,0-1.75-1.76l-6.65-18.91a1.53,1.53,0,0,0-1.3-1.3h-2.87a1.5,1.5,0,0,0-1.63,1.76v18.46a1.72,1.72,0,0,1-.52,1.2,1.64,1.64,0,0,1-1.23.55h-5.33a1.5,1.5,0,0,1-1.62-1.75V83.59a1.47,1.47,0,0,1,1.63-1.69H686.2a14.06,14.06,0,0,1,9.88,3.71,13.06,13.06,0,0,1,4.1,9.88V98a13,13,0,0,1-6.57,11.76q-0.33.2-.06,0.91Zm-9.36-33V95a4.9,4.9,0,0,0-1.53-3.64,5.15,5.15,0,0,0-3.74-1.5h-5q-1.5,0-1.5,1.75v10.92a1.47,1.47,0,0,0,1.63,1.69h4.88a5.21,5.21,0,0,0,3.74-1.46A4.8,4.8,0,0,0,691.72,99.19Z"/><path class="cls-1" d="M737.48,88a1.58,1.58,0,0,1-1.82,1.76h-8a1.73,1.73,0,0,0-1.2.52,1.58,1.58,0,0,0-.55,1.17v40.69a1.5,1.5,0,0,1-1.62,1.75H719a1.55,1.55,0,0,1-1.75-1.75V91.45a1.47,1.47,0,0,0-1.62-1.69h-8A1.55,1.55,0,0,1,705.83,88V83.59a1.52,1.52,0,0,1,1.75-1.69h28.08a1.55,1.55,0,0,1,1.82,1.69V88Z"/><path class="cls-1" d="M790,120.64a13.52,13.52,0,0,1-4.06,9.88,13.36,13.36,0,0,1-9.85,4.09h-2a13.36,13.36,0,0,1-9.85-4.09,13.52,13.52,0,0,1-4.06-9.88V95a13.31,13.31,0,0,1,4.06-9.81,13.47,13.47,0,0,1,9.85-4h2a13.47,13.47,0,0,1,9.85,4A13.31,13.31,0,0,1,790,95v25.61Zm-9.23-1.37V96.72a7.62,7.62,0,0,0-1.62-4.94,4.87,4.87,0,0,0-3.9-2,5,5,0,0,0-4,2,7.46,7.46,0,0,0-1.69,4.91v22.56a7.24,7.24,0,0,0,1.69,4.81,5,5,0,0,0,4,2,4.89,4.89,0,0,0,3.9-2A7.38,7.38,0,0,0,780.77,119.27Z"/><path class="cls-1" d="M823.09,88.27a1.77,1.77,0,0,1-.58,1.33,1.85,1.85,0,0,1-1.3.55H808.79a1.85,1.85,0,0,0-1.3.55A1.7,1.7,0,0,0,806.9,92v8.84a1.61,1.61,0,0,0,1.88,1.75h9.49a1.86,1.86,0,0,1,1.3.55,1.7,1.7,0,0,1,.59,1.27v4.42a1.89,1.89,0,0,1-1.88,1.88h-9.62a1.58,1.58,0,0,0-1.75,1.82V132a1.64,1.64,0,0,1-1.82,1.88h-5.27a1.89,1.89,0,0,1-1.88-1.88V83.72a1.7,1.7,0,0,1,.58-1.27,1.86,1.86,0,0,1,1.3-.55H821.2a1.64,1.64,0,0,1,1.88,1.82v4.55Z"/><path class="cls-1" d="M876.32,120.83A13.06,13.06,0,0,1,872.2,131a15.15,15.15,0,0,1-10.63,3.77q-7.67,0-11.89-5.4a24.77,24.77,0,0,1-3.9-8.45,1.5,1.5,0,0,1,1-2.08l4.81-1.62a3.09,3.09,0,0,1,.59-0.06,1.62,1.62,0,0,1,1.69,1.23q2.21,8.13,7.67,8.13a5.76,5.76,0,0,0,4.26-1.53,5.58,5.58,0,0,0,1.53-4.13q0-3.44-5.33-8.06-4.87-4.09-9.81-8.19-5.33-5.27-5.33-10.4A12.11,12.11,0,0,1,851,84.5a13.66,13.66,0,0,1,9.36-3.31,13.43,13.43,0,0,1,11,5.33,19.2,19.2,0,0,1,3.25,6.37,2.44,2.44,0,0,1,.07.58A1.53,1.53,0,0,1,873.59,95l-4.23,1.37a1.14,1.14,0,0,1-.52.13,1.64,1.64,0,0,1-1.62-1.17q-2.92-6.89-6.82-6.89a4.64,4.64,0,0,0-3.61,1.75,5.88,5.88,0,0,0-1.53,4q0,2.67,5.46,7.08,8.84,7.15,10.14,8.45Q876.32,115.31,876.32,120.83Z"/><path class="cls-1" d="M911.68,88a1.58,1.58,0,0,1-1.82,1.76h-8a1.72,1.72,0,0,0-1.2.52,1.58,1.58,0,0,0-.55,1.17v40.69a1.5,1.5,0,0,1-1.62,1.75h-5.33a1.55,1.55,0,0,1-1.76-1.75V91.45a1.47,1.47,0,0,0-1.62-1.69h-8A1.55,1.55,0,0,1,880,88V83.59a1.52,1.52,0,0,1,1.76-1.69h28.08a1.55,1.55,0,0,1,1.82,1.69V88Z"/><path class="cls-1" d="M944.83,132a1.36,1.36,0,0,1-.29,1.3,1.58,1.58,0,0,1-1.28.58h-5.89q-1.31,0-1.7-1.87l-1.57-7.68a1.71,1.71,0,0,0-1.69-1.69h-7.93a1.75,1.75,0,0,0-1.88,1.69L921.23,132q-0.39,1.89-1.88,1.88h-5.78a1.41,1.41,0,0,1-1.17-.58,1.57,1.57,0,0,1-.33-1.3l9.55-48.3q0.39-1.82,1.82-1.82h9.29q1.43,0,1.82,1.82ZM931.7,112.19l-3.05-17q-0.26-1.36-.71-1.36t-0.65,1.36l-2.79,17q-0.33,1.89,1.43,1.88h4.22A1.59,1.59,0,0,0,931.7,112.19Z"/><path class="cls-1" d="M978,83.59L966.8,112.45a4.11,4.11,0,0,0-.39,1.56v18.14a1.52,1.52,0,0,1-1.69,1.75h-5.65a1.55,1.55,0,0,1-1.76-1.75V114a4.07,4.07,0,0,0-.39-1.56L944.77,83.59a0.79,0.79,0,0,1-.13-0.46q0-1.23,1.57-1.23h6.32q1.11,0,1.76,1.68l6.83,17.55a0.92,0.92,0,1,0,1.82,0l5.64-17.55q0.52-1.69,1.69-1.69h6.36A1.18,1.18,0,0,1,978,83.13,1.45,1.45,0,0,1,978,83.59Z"/><path class="cls-1" d="M1009.64,88.27a1.77,1.77,0,0,1-.58,1.33,1.85,1.85,0,0,1-1.3.55H995.34a1.85,1.85,0,0,0-1.3.55,1.7,1.7,0,0,0-.58,1.27v8.84a1.61,1.61,0,0,0,1.88,1.75h9.49a1.86,1.86,0,0,1,1.3.55,1.7,1.7,0,0,1,.59,1.27v4.42a1.89,1.89,0,0,1-1.88,1.88h-9.62a1.58,1.58,0,0,0-1.75,1.82V132a1.64,1.64,0,0,1-1.82,1.88h-5.27a1.89,1.89,0,0,1-1.88-1.88V83.72a1.7,1.7,0,0,1,.58-1.27,1.86,1.86,0,0,1,1.3-.55h21.38a1.64,1.64,0,0,1,1.88,1.82v4.55Z"/><path class="cls-1" d="M1026,132a1.64,1.64,0,0,1-1.82,1.88h-5.59a1.64,1.64,0,0,1-1.82-1.88V83.72a1.61,1.61,0,0,1,1.82-1.82h5.59a1.61,1.61,0,0,1,1.82,1.82V132Z"/><path class="cls-1" d="M1059.82,132.14a1.52,1.52,0,0,1-1.69,1.75h-21.84a1.5,1.5,0,0,1-1.62-1.75V83.59a1.47,1.47,0,0,1,1.63-1.69h5.79a1.52,1.52,0,0,1,1.76,1.69v40.23a1.52,1.52,0,0,0,1.75,1.69h12.55q1.69,0,1.69,1.88v4.75Z"/><path class="cls-1" d="M1105.58,132.14a1.55,1.55,0,0,1-1.76,1.75h-5a1.58,1.58,0,0,1-1.82-1.75V102.76a0.47,0.47,0,0,0-.46-0.59,0.63,0.63,0,0,0-.65.59l-7,29.38q-0.39,1.75-1.76,1.75h-3q-1.3,0-1.69-1.75l-6.82-29.45A0.76,0.76,0,0,0,1075,102a0.61,0.61,0,0,0-.65.71v29.45a1.58,1.58,0,0,1-1.82,1.75h-5.33a1.5,1.5,0,0,1-1.62-1.75V83.59a1.47,1.47,0,0,1,1.63-1.69h10q1.49,0,1.95,2l5.81,24.5q0.39,1.76.84,1.76t0.77-1.75l5.32-24.77a1.71,1.71,0,0,1,1.69-1.69h10.28a1.52,1.52,0,0,1,1.76,1.69v48.56Z"/><path class="cls-1" d="M1122.73,132a2,2,0,0,1-1.88,1.88h-5.52a1.77,1.77,0,0,1-1.33-.58,1.86,1.86,0,0,1-.55-1.3V125.9q0-1.69,1.89-1.69h5.52q1.89,0,1.88,1.69V132Z"/></svg>