<svg id="Spanish" xmlns="http://www.w3.org/2000/svg" viewBox="0 0 480 150"><defs><style>.cls-1{fill:#fff;}</style></defs><title>title_horizontal_spanish</title><path class="cls-1" d="M72.71,45.24a1,1,0,0,1-1.12,1.16H68.15A1,1,0,0,1,67,45.24V15.52a1,1,0,0,1,1.12-1.12h3.44a1,1,0,0,1,1.12,1.12V45.24Z"/><path class="cls-1" d="M96.23,45.32a1,1,0,0,1-1.08,1.08H92a1.34,1.34,0,0,1-1.16-1l-7.62-17a0.39,0.39,0,0,0-.33-0.31c-0.19,0-.29.15-0.29,0.44v16.8a1,1,0,0,1-1.12,1.08H78.23a0.92,0.92,0,0,1-1-1.08V15.48a0.92,0.92,0,0,1,1-1.08h3.28a1.51,1.51,0,0,1,1.36,1.12L90.23,32a0.46,0.46,0,0,0,.4.28c0.16,0,.24-0.15.24-0.44V15.52a1,1,0,0,1,.36-0.78A1.14,1.14,0,0,1,92,14.4h3.12a1,1,0,0,1,1.08,1.12v29.8Z"/><path class="cls-1" d="M118.67,15.64l-6.08,29.68a1.15,1.15,0,0,1-1.16,1.08h-4.76a1.07,1.07,0,0,1-1-1.08L99.39,15.64q-0.24-1.24.84-1.24h3.31a1,1,0,0,1,1.08.84l4.19,21.08a0.32,0.32,0,0,0,.28.36,0.33,0.33,0,0,0,.32-0.36l4.11-21.08a1,1,0,0,1,1.12-.84h3.27a0.72,0.72,0,0,1,.84.8A1.39,1.39,0,0,1,118.67,15.64Z"/><path class="cls-1" d="M128,45.24a1,1,0,0,1-1.12,1.16h-3.44a1,1,0,0,1-1.12-1.16V15.52a1,1,0,0,1,1.12-1.12h3.44A1,1,0,0,1,128,15.52V45.24Z"/><path class="cls-1" d="M150.67,18.16a1,1,0,0,1-1.12,1.08h-4.92a1.06,1.06,0,0,0-.74.32,1,1,0,0,0-.34.72v25a0.92,0.92,0,0,1-1,1.08h-3.28a1,1,0,0,1-1.08-1.08v-25a0.9,0.9,0,0,0-1-1h-4.92a1,1,0,0,1-1.08-1.08V15.44a0.94,0.94,0,0,1,1.08-1h17.28a1,1,0,0,1,1.12,1v2.72Z"/><path class="cls-1" d="M170.27,45.24a0.84,0.84,0,0,1-.18.8,1,1,0,0,1-.79.36h-3.63a1.15,1.15,0,0,1-1-1.15l-1-4.73a1.05,1.05,0,0,0-1-1h-4.88a1.08,1.08,0,0,0-1.16,1l-0.84,4.72a1.19,1.19,0,0,1-1.16,1.16H151a0.87,0.87,0,0,1-.72-0.36,1,1,0,0,1-.2-0.8L156,15.52a1.15,1.15,0,0,1,1.12-1.12h5.72A1.16,1.16,0,0,1,164,15.52ZM162.19,33l-1.88-10.48a0.87,0.87,0,0,0-.44-0.84q-0.28,0-.4.84L157.75,33a0.83,0.83,0,0,0,.88,1.16h2.6A1,1,0,0,0,162.19,33Z"/><path class="cls-1" d="M202.39,45.24a0.84,0.84,0,0,1-.18.8,1,1,0,0,1-.79.36H197.8a1.15,1.15,0,0,1-1-1.15l-1-4.73a1.05,1.05,0,0,0-1-1h-4.88a1.08,1.08,0,0,0-1.16,1l-0.84,4.72a1.19,1.19,0,0,1-1.16,1.16h-3.56a0.87,0.87,0,0,1-.72-0.36,1,1,0,0,1-.2-0.8l5.88-29.72a1.15,1.15,0,0,1,1.12-1.12H195a1.16,1.16,0,0,1,1.12,1.12ZM194.31,33l-1.88-10.48a0.87,0.87,0,0,0-.44-0.84q-0.28,0-.4.84L189.87,33a0.83,0.83,0,0,0,.88,1.16h2.6A1,1,0,0,0,194.31,33Z"/><path class="cls-1" d="M233.35,18.16a1,1,0,0,1-1.12,1.08h-4.92a1.06,1.06,0,0,0-.74.32,1,1,0,0,0-.34.72v25a0.92,0.92,0,0,1-1,1.08h-3.28a1,1,0,0,1-1.08-1.08v-25a0.9,0.9,0,0,0-1-1h-4.92a1,1,0,0,1-1.08-1.08V15.44a0.94,0.94,0,0,1,1.08-1h17.28a1,1,0,0,1,1.12,1v2.72Z"/><path class="cls-1" d="M254.55,38.24a8.18,8.18,0,0,1-2.6,6.06,8.52,8.52,0,0,1-6.16,2.54h-1a8.45,8.45,0,0,1-6.14-2.54,8.21,8.21,0,0,1-2.58-6.06V15.44a0.9,0.9,0,0,1,1-1h3.47a0.92,0.92,0,0,1,1,1V37.6a4.48,4.48,0,0,0,1.11,3,3.34,3.34,0,0,0,2.59,1.28,3.25,3.25,0,0,0,2.53-1.28,4.53,4.53,0,0,0,1.09-3V15.44a0.94,0.94,0,0,1,1.08-1h3.44a1.11,1.11,0,0,1,.78.32,1,1,0,0,1,.34.72v22.8Z"/><path class="cls-1" d="M276.95,38.36a8,8,0,0,1-2.54,6.24,9.32,9.32,0,0,1-6.54,2.32,8.76,8.76,0,0,1-7.32-3.32,15.27,15.27,0,0,1-2.4-5.2,0.92,0.92,0,0,1,.64-1.28l3-1a1.87,1.87,0,0,1,.36,0,1,1,0,0,1,1,.76q1.36,5,4.72,5a3.54,3.54,0,0,0,2.62-.94,3.43,3.43,0,0,0,.94-2.54q0-2.12-3.28-5-3-2.52-6-5-3.28-3.24-3.28-6.4a7.45,7.45,0,0,1,2.56-6,8.41,8.41,0,0,1,5.76-2,8.27,8.27,0,0,1,6.8,3.28,11.83,11.83,0,0,1,2,3.92,1.51,1.51,0,0,1,0,.36,0.94,0.94,0,0,1-.72,1l-2.6.84a0.71,0.71,0,0,1-.32.08,1,1,0,0,1-1-.72q-1.8-4.24-4.2-4.24a2.86,2.86,0,0,0-2.22,1.08A3.62,3.62,0,0,0,264,22q0,1.64,3.36,4.36,5.44,4.4,6.24,5.2Q276.95,35,276.95,38.36Z"/><path class="cls-1" d="M309.51,45.24a0.84,0.84,0,0,1-.18.8,1,1,0,0,1-.79.36h-3.63a1.15,1.15,0,0,1-1-1.15l-1-4.73a1.05,1.05,0,0,0-1-1H297a1.08,1.08,0,0,0-1.16,1L295,45.24a1.19,1.19,0,0,1-1.16,1.16h-3.56a0.87,0.87,0,0,1-.72-0.36,1,1,0,0,1-.2-0.8l5.88-29.72a1.16,1.16,0,0,1,1.12-1.12h5.72a1.16,1.16,0,0,1,1.12,1.12ZM301.43,33l-1.88-10.48a0.87,0.87,0,0,0-.44-0.84q-0.28,0-.4.84L297,33a0.83,0.83,0,0,0,.88,1.16h2.6A1,1,0,0,0,301.43,33Z"/><path class="cls-1" d="M337.35,45.32a1,1,0,0,1-1.08,1.08h-3.08a1,1,0,0,1-1.12-1.08V27.24a0.29,0.29,0,0,0-.28-0.36,0.39,0.39,0,0,0-.4.36l-4.32,18.08A1.12,1.12,0,0,1,326,46.4h-1.84a1.11,1.11,0,0,1-1-1.08l-4.2-18.12a0.47,0.47,0,0,0-.4-0.44,0.37,0.37,0,0,0-.4.44V45.32A1,1,0,0,1,317,46.4h-3.28a0.92,0.92,0,0,1-1-1.08V15.44a0.9,0.9,0,0,1,1-1h6.16a1.26,1.26,0,0,1,1.2,1.2l3.58,15.08q0.24,1.08.51,1.08a1.4,1.4,0,0,0,.48-1.08l3.27-15.24a1.05,1.05,0,0,1,1-1h6.33a0.94,0.94,0,0,1,1.08,1V45.32Z"/><path class="cls-1" d="M347.51,45.24a1,1,0,0,1-1.12,1.16h-3.44a1,1,0,0,1-1.12-1.16V15.52a1,1,0,0,1,1.12-1.12h3.44a1,1,0,0,1,1.12,1.12V45.24Z"/><path class="cls-1" d="M370.31,45.24a1,1,0,0,1-1.12,1.16h-0.6a1.36,1.36,0,0,1-1.16-1.16l-0.2-.48a0.7,0.7,0,0,0-.4-0.56,1.14,1.14,0,0,0-.6.56,5.41,5.41,0,0,1-4.56,2.08h-0.72a8.42,8.42,0,0,1-6.46-2.64A9.1,9.1,0,0,1,352,37.76V22.92a8.65,8.65,0,0,1,2.62-6.32,8.55,8.55,0,0,1,6.3-2.64h0.36a8.43,8.43,0,0,1,6.26,2.64,8.72,8.72,0,0,1,2.58,6.32v1.32A1,1,0,0,1,369,25.4h-3.08a1.06,1.06,0,0,1-.8-0.4,1.17,1.17,0,0,1-.36-0.76V23.76a4.83,4.83,0,0,0-1.06-3.12,3.06,3.06,0,0,0-5,0,4.87,4.87,0,0,0-1,3.14V37.12a5,5,0,0,0,.94,3.14,3.12,3.12,0,0,0,2.62,1.22q3.56,0,3.56-4.36V35.8a1.16,1.16,0,0,0-1.12-1.12H362a1.24,1.24,0,0,1-1.16-1.16V31.36a1.14,1.14,0,0,1,.34-0.8A1.09,1.09,0,0,1,362,30.2h7.16a1,1,0,0,1,.78.4,1.2,1.2,0,0,1,.34.76V45.24Z"/><path class="cls-1" d="M392.75,38.24a8.32,8.32,0,0,1-2.5,6.08,8.22,8.22,0,0,1-6.06,2.52h-1.24a8.22,8.22,0,0,1-6.06-2.52,8.32,8.32,0,0,1-2.5-6.08V22.48a8.19,8.19,0,0,1,2.5-6A8.28,8.28,0,0,1,382.95,14h1.24a8.28,8.28,0,0,1,6.06,2.48,8.19,8.19,0,0,1,2.5,6V38.24Zm-5.68-.84V23.52a4.69,4.69,0,0,0-1-3,3,3,0,0,0-2.4-1.24,3.09,3.09,0,0,0-2.44,1.26,4.59,4.59,0,0,0-1,3V37.4a4.46,4.46,0,0,0,1,3,3.1,3.1,0,0,0,2.44,1.24,3,3,0,0,0,2.4-1.22A4.55,4.55,0,0,0,387.07,37.4Z"/><path class="cls-1" d="M415.19,38.36a8,8,0,0,1-2.54,6.24,9.32,9.32,0,0,1-6.54,2.32,8.76,8.76,0,0,1-7.32-3.32,15.27,15.27,0,0,1-2.4-5.2,0.92,0.92,0,0,1,.64-1.28l3-1a1.87,1.87,0,0,1,.36,0,1,1,0,0,1,1,.76q1.36,5,4.72,5a3.54,3.54,0,0,0,2.62-.94,3.43,3.43,0,0,0,.94-2.54q0-2.12-3.28-5-3-2.52-6-5-3.28-3.24-3.28-6.4a7.45,7.45,0,0,1,2.56-6,8.41,8.41,0,0,1,5.76-2,8.27,8.27,0,0,1,6.8,3.28,11.83,11.83,0,0,1,2,3.92,1.51,1.51,0,0,1,0,.36,0.94,0.94,0,0,1-.72,1l-2.6.84a0.71,0.71,0,0,1-.32.08,1,1,0,0,1-1-.72q-1.8-4.24-4.2-4.24a2.86,2.86,0,0,0-2.22,1.08,3.62,3.62,0,0,0-.94,2.44q0,1.64,3.36,4.36,5.44,4.4,6.24,5.2Q415.19,35,415.19,38.36Z"/><path class="cls-1" d="M134.49,79.94a8.91,8.91,0,0,1-8.92,8.92h-8a1.07,1.07,0,0,1-.78-0.34,1.12,1.12,0,0,1-.34-0.82V58a1,1,0,0,1,1.12-1.12h8a8.91,8.91,0,0,1,8.92,8.92V79.94ZM129,79.5V66.34a4.26,4.26,0,0,0-1.36-3.16,4.45,4.45,0,0,0-3.22-1.32h-1.21A1,1,0,0,0,122,63v19.8a1.08,1.08,0,0,0,.36.82,1.16,1.16,0,0,0,.81.34h1.21a4.49,4.49,0,0,0,3.22-1.3A4.19,4.19,0,0,0,129,79.5Z"/><path class="cls-1" d="M154.41,87.7a1.09,1.09,0,0,1-.36.82,1.14,1.14,0,0,1-.8.34H139.73a1.24,1.24,0,0,1-1.16-1.16V58a1,1,0,0,1,1.16-1.12h13.12A1,1,0,0,1,154,58v2.8a1.09,1.09,0,0,1-.36.82,1.15,1.15,0,0,1-.8.34h-7.59a1,1,0,0,0-1.17,1.12V68.5a1,1,0,0,0,1.17,1.08H151a1,1,0,0,1,1.17,1.12v2.72A1.16,1.16,0,0,1,151,74.58h-5.75a1,1,0,0,0-1.17,1.12v6.76a1,1,0,0,0,1.17,1.12h8a1.24,1.24,0,0,1,1.16,1.16v3Z"/><path class="cls-1" d="M183.13,60.78a1.09,1.09,0,0,1-.36.82,1.14,1.14,0,0,1-.8.34h-7.64a1.14,1.14,0,0,0-.8.34,1,1,0,0,0-.36.78V68.5a1,1,0,0,0,1.16,1.08h5.84a1.14,1.14,0,0,1,.8.34,1,1,0,0,1,.36.78v2.72a1.16,1.16,0,0,1-1.16,1.16h-5.92a1,1,0,0,0-1.08,1.12v12a1,1,0,0,1-1.12,1.16h-3.24a1.16,1.16,0,0,1-1.16-1.16V58A1,1,0,0,1,168,57.2a1.14,1.14,0,0,1,.8-0.34H182A1,1,0,0,1,183.13,58v2.8Z"/><path class="cls-1" d="M202.37,87.7a0.84,0.84,0,0,1-.18.8,1,1,0,0,1-.78.36h-3.63a1.15,1.15,0,0,1-1-1.15l-1-4.73a1.05,1.05,0,0,0-1-1h-4.88a1.08,1.08,0,0,0-1.16,1l-0.84,4.72a1.19,1.19,0,0,1-1.16,1.16h-3.56a0.87,0.87,0,0,1-.72-0.36,1,1,0,0,1-.2-0.8L188.09,58a1.16,1.16,0,0,1,1.12-1.12h5.72A1.16,1.16,0,0,1,196.05,58Zm-8.08-12.2L192.41,65a0.87,0.87,0,0,0-.44-0.84q-0.28,0-.4.84L189.85,75.5a0.83,0.83,0,0,0,.88,1.16h2.6A1,1,0,0,0,194.29,75.5Z"/><path class="cls-1" d="M223,80.34a8.65,8.65,0,0,1-2.62,6.32,8.56,8.56,0,0,1-6.3,2.64h-0.36a9,9,0,0,1-9-9v-15A8.57,8.57,0,0,1,207.4,59a8.69,8.69,0,0,1,6.37-2.62h0.36A8.52,8.52,0,0,1,220.42,59a8.64,8.64,0,0,1,2.59,6.3V66.7a1,1,0,0,1-.34.74,1.07,1.07,0,0,1-.78.34h-3.36a1.14,1.14,0,0,1-.8-0.34,1,1,0,0,1-.36-0.74V66.22a5.17,5.17,0,0,0-1-3.14,2.84,2.84,0,0,0-2.37-1.3,3.14,3.14,0,0,0-2.51,1.3,4.83,4.83,0,0,0-1.05,3.14V79.74a4.92,4.92,0,0,0,1,3.18,3.09,3.09,0,0,0,2.48,1.3,3,3,0,0,0,2.46-1.3,5,5,0,0,0,1-3.18v-1a1,1,0,0,1,1-1.12h3.36A1,1,0,0,1,223,78.7v1.64Z"/><path class="cls-1" d="M242.93,87.7a1.09,1.09,0,0,1-.36.82,1.14,1.14,0,0,1-.8.34H228.25a1.24,1.24,0,0,1-1.16-1.16V58a1,1,0,0,1,1.16-1.12h13.12A1,1,0,0,1,242.53,58v2.8a1.08,1.08,0,0,1-.36.82,1.15,1.15,0,0,1-.8.34h-7.59a1,1,0,0,0-1.17,1.12V68.5a1,1,0,0,0,1.17,1.08h5.75a1,1,0,0,1,1.17,1.12v2.72a1.16,1.16,0,0,1-1.17,1.16h-5.75a1,1,0,0,0-1.17,1.12v6.76a1,1,0,0,0,1.16,1.12h8a1.24,1.24,0,0,1,1.16,1.16v3Z"/><path class="cls-1" d="M265.13,79.54a8.76,8.76,0,0,1-2.88,6.58,9.68,9.68,0,0,1-6.92,2.74h-7.64a1.16,1.16,0,0,1-1.16-1.16V58a1,1,0,0,1,1.16-1.12h6.92a10.05,10.05,0,0,1,7.08,2.36,7.44,7.44,0,0,1,2.44,5.8,7.33,7.33,0,0,1-2.88,6.12,0.78,0.78,0,0,0-.36.6,0.68,0.68,0,0,0,.36.56A8.37,8.37,0,0,1,265.13,79.54ZM258.37,65.7a3.62,3.62,0,0,0-1-2.6,3.26,3.26,0,0,0-2.45-1h-1.7a1,1,0,0,0-1.17,1.08v5.48a1.1,1.1,0,0,0,.36.8,1.13,1.13,0,0,0,.81.36h1.7a3,3,0,0,0,2.43-1.24A4.36,4.36,0,0,0,258.37,65.7ZM259,79.3a4.85,4.85,0,0,0-1.34-3.3,3.85,3.85,0,0,0-2.86-1.5h-1.56a1,1,0,0,0-1.16,1.12v7a1,1,0,0,0,1.16,1.12h2.2a3.13,3.13,0,0,0,2.52-1.3A4.93,4.93,0,0,0,259,79.3Z"/><path class="cls-1" d="M287.57,80.7a8.32,8.32,0,0,1-2.5,6.08A8.22,8.22,0,0,1,279,89.3h-1.24a8.22,8.22,0,0,1-6.06-2.52,8.32,8.32,0,0,1-2.5-6.08V64.94a8.19,8.19,0,0,1,2.5-6,8.28,8.28,0,0,1,6.06-2.48H279a8.28,8.28,0,0,1,6.06,2.48,8.19,8.19,0,0,1,2.5,6V80.7Zm-5.68-.84V66a4.69,4.69,0,0,0-1-3,3,3,0,0,0-2.4-1.24A3.09,3.09,0,0,0,276.05,63a4.59,4.59,0,0,0-1,3V79.86a4.46,4.46,0,0,0,1,3,3.1,3.1,0,0,0,2.44,1.24,3,3,0,0,0,2.4-1.22A4.55,4.55,0,0,0,281.89,79.86Z"/><path class="cls-1" d="M310,80.7a8.32,8.32,0,0,1-2.5,6.08,8.22,8.22,0,0,1-6.06,2.52h-1.24a8.22,8.22,0,0,1-6.06-2.52,8.32,8.32,0,0,1-2.5-6.08V64.94a8.19,8.19,0,0,1,2.5-6,8.28,8.28,0,0,1,6.06-2.48h1.24a8.28,8.28,0,0,1,6.06,2.48,8.19,8.19,0,0,1,2.5,6V80.7Zm-5.68-.84V66a4.69,4.69,0,0,0-1-3,3,3,0,0,0-2.4-1.24A3.09,3.09,0,0,0,298.49,63a4.59,4.59,0,0,0-1,3V79.86a4.46,4.46,0,0,0,1,3,3.1,3.1,0,0,0,2.44,1.24,3,3,0,0,0,2.4-1.22A4.55,4.55,0,0,0,304.33,79.86Z"/><path class="cls-1" d="M333.37,87.78a1.34,1.34,0,0,1,0,.32,0.69,0.69,0,0,1-.8.76h-4.08a1.36,1.36,0,0,1-1.08-1.08l-4.87-12.56a0.5,0.5,0,0,0-.4-0.39,0.57,0.57,0,0,0-.44.4l-1.85,3.12a1.47,1.47,0,0,0-.2.72v8.72a0.94,0.94,0,0,1-1,1.08h-3.56a0.92,0.92,0,0,1-1-1.08V57.9a0.9,0.9,0,0,1,1-1h3.56a0.92,0.92,0,0,1,1,1v9.68q0,0.6.32,0.6a0.88,0.88,0,0,0,.6-0.56l5.52-9.68a1.66,1.66,0,0,1,1.12-1.08h4a0.73,0.73,0,0,1,.88.76,0.57,0.57,0,0,1-.11.32l-6.18,10.51a0.79,0.79,0,0,0,0,.64Z"/><path class="cls-1" d="M365.73,87.7a0.84,0.84,0,0,1-.18.8,1,1,0,0,1-.79.36h-3.63a1.15,1.15,0,0,1-1-1.15l-1-4.73a1.05,1.05,0,0,0-1-1h-4.88A1.08,1.08,0,0,0,352,83l-0.84,4.72A1.19,1.19,0,0,1,350,88.86h-3.56a0.87,0.87,0,0,1-.72-0.36,1,1,0,0,1-.2-0.8L351.45,58a1.16,1.16,0,0,1,1.12-1.12h5.72A1.16,1.16,0,0,1,359.41,58Zm-8.08-12.2L355.77,65a0.87,0.87,0,0,0-.44-0.84q-0.28,0-.4.84L353.21,75.5a0.83,0.83,0,0,0,.88,1.16h2.6A1,1,0,0,0,357.65,75.5Z"/><path class="cls-1" d="M106.29,109.68a8.31,8.31,0,0,1-2.47,6.06,8.16,8.16,0,0,1-6,2.5H95a1,1,0,0,0-1.08,1.08v10.92a1,1,0,0,1-1.11,1.08H89.36a0.92,0.92,0,0,1-1-1.08V100.36a0.9,0.9,0,0,1,1-1h8.44a8.12,8.12,0,0,1,6,2.5,8.32,8.32,0,0,1,2.46,6.06v1.8Zm-5.64.52v-2.72a3,3,0,0,0-1-2.24,3.32,3.32,0,0,0-2.36-.92H95.07a1.28,1.28,0,0,0-.79.3,0.9,0.9,0,0,0-.39.74v7a0.9,0.9,0,0,0,.39.74,1.28,1.28,0,0,0,.79.3h2.24a3.31,3.31,0,0,0,2.34-.94A3,3,0,0,0,100.65,110.2Z"/><path class="cls-1" d="M128.05,130.24a0.64,0.64,0,0,1,.08.28,0.74,0.74,0,0,1-.88.8h-3.47a1.3,1.3,0,0,1-1.08-1.09l-4.09-11.64a0.94,0.94,0,0,0-.8-0.8h-1.76a0.92,0.92,0,0,0-1,1.08v11.36a1.06,1.06,0,0,1-.32.74,1,1,0,0,1-.76.34h-3.28a0.92,0.92,0,0,1-1-1.08V100.36a0.9,0.9,0,0,1,1-1h8.2A8.65,8.65,0,0,1,125,101.6a8,8,0,0,1,2.52,6.08v1.56a8,8,0,0,1-4,7.24q-0.2.12,0,.56ZM122.29,110V107.4a3,3,0,0,0-.94-2.24,3.17,3.17,0,0,0-2.3-.92H116a0.89,0.89,0,0,0-.92,1.08V112a0.9,0.9,0,0,0,1,1h3a3.2,3.2,0,0,0,2.3-.9A3,3,0,0,0,122.29,110Z"/><path class="cls-1" d="M149.89,123.16a8.32,8.32,0,0,1-2.5,6.08,8.22,8.22,0,0,1-6.06,2.52h-1.24a8.22,8.22,0,0,1-6.06-2.52,8.32,8.32,0,0,1-2.5-6.08V107.4a8.19,8.19,0,0,1,2.5-6,8.28,8.28,0,0,1,6.06-2.48h1.24a8.29,8.29,0,0,1,6.06,2.48,8.19,8.19,0,0,1,2.5,6v15.76Zm-5.68-.84V108.44a4.69,4.69,0,0,0-1-3,3,3,0,0,0-2.4-1.24,3.09,3.09,0,0,0-2.44,1.26,4.59,4.59,0,0,0-1,3v13.88a4.46,4.46,0,0,0,1,3,3.11,3.11,0,0,0,2.44,1.24,3,3,0,0,0,2.4-1.22A4.54,4.54,0,0,0,144.21,122.32Z"/><path class="cls-1" d="M172.57,122a8.76,8.76,0,0,1-2.88,6.58,9.68,9.68,0,0,1-6.92,2.74h-7.64a1.16,1.16,0,0,1-1.16-1.16V100.44a1,1,0,0,1,1.16-1.12h6.92a10,10,0,0,1,7.08,2.36,7.43,7.43,0,0,1,2.44,5.8,7.33,7.33,0,0,1-2.88,6.12,0.78,0.78,0,0,0-.36.6,0.68,0.68,0,0,0,.36.56A8.37,8.37,0,0,1,172.57,122Zm-6.76-13.84a3.62,3.62,0,0,0-1-2.6,3.25,3.25,0,0,0-2.45-1h-1.7a1,1,0,0,0-1.17,1.08v5.48a1.1,1.1,0,0,0,.36.8,1.13,1.13,0,0,0,.81.36h1.7A3,3,0,0,0,164.8,111,4.37,4.37,0,0,0,165.81,108.16Zm0.6,13.6a4.85,4.85,0,0,0-1.34-3.3,3.85,3.85,0,0,0-2.86-1.5h-1.56a1,1,0,0,0-1.16,1.12v7a1,1,0,0,0,1.16,1.12h2.2a3.13,3.13,0,0,0,2.52-1.3A4.93,4.93,0,0,0,166.41,121.76Z"/><path class="cls-1" d="M194.73,130.16a0.84,0.84,0,0,1-.18.8,1,1,0,0,1-.79.36h-3.63a1.15,1.15,0,0,1-1-1.15l-1-4.73a1.05,1.05,0,0,0-1-1h-4.88a1.08,1.08,0,0,0-1.16,1l-0.84,4.72a1.19,1.19,0,0,1-1.16,1.16h-3.56a0.87,0.87,0,0,1-.72-0.36,1,1,0,0,1-.2-0.8l5.88-29.72a1.15,1.15,0,0,1,1.12-1.12h5.72a1.16,1.16,0,0,1,1.12,1.12ZM186.65,118l-1.88-10.48a0.87,0.87,0,0,0-.44-0.84q-0.28,0-.4.84L182.21,118a0.83,0.83,0,0,0,.88,1.16h2.6A1,1,0,0,0,186.65,118Z"/><path class="cls-1" d="M216.29,130.24a0.64,0.64,0,0,1,.08.28,0.74,0.74,0,0,1-.88.8H212a1.3,1.3,0,0,1-1.08-1.09l-4.09-11.64a0.94,0.94,0,0,0-.8-0.8h-1.76a0.92,0.92,0,0,0-1,1.08v11.36a1.06,1.06,0,0,1-.32.74,1,1,0,0,1-.76.34h-3.28a0.92,0.92,0,0,1-1-1.08V100.36a0.9,0.9,0,0,1,1-1h8.2a8.66,8.66,0,0,1,6.08,2.28,8,8,0,0,1,2.52,6.08v1.56a8,8,0,0,1-4,7.24c-0.13.08-.15,0.27,0,0.56ZM210.53,110V107.4a3,3,0,0,0-.94-2.24,3.17,3.17,0,0,0-2.3-.92h-3.08a0.89,0.89,0,0,0-.92,1.08V112a0.9,0.9,0,0,0,1,1h3a3.2,3.2,0,0,0,2.3-.9A3,3,0,0,0,210.53,110Z"/><path class="cls-1" d="M247.77,123.28a8,8,0,0,1-2.54,6.24,9.32,9.32,0,0,1-6.54,2.32,8.76,8.76,0,0,1-7.32-3.32,15.27,15.27,0,0,1-2.4-5.2,0.92,0.92,0,0,1,.64-1.28l3-1a1.87,1.87,0,0,1,.36,0,1,1,0,0,1,1,.76q1.36,5,4.72,5a3.54,3.54,0,0,0,2.62-.94,3.43,3.43,0,0,0,.94-2.54q0-2.12-3.28-5-3-2.52-6-5-3.28-3.24-3.28-6.4a7.45,7.45,0,0,1,2.56-6,8.41,8.41,0,0,1,5.76-2,8.27,8.27,0,0,1,6.8,3.28,11.83,11.83,0,0,1,2,3.92,1.46,1.46,0,0,1,0,.36,0.94,0.94,0,0,1-.72,1l-2.6.84a0.71,0.71,0,0,1-.32.08,1,1,0,0,1-1-.72q-1.8-4.24-4.2-4.24a2.86,2.86,0,0,0-2.22,1.08,3.62,3.62,0,0,0-.94,2.44q0,1.64,3.36,4.36,5.44,4.4,6.24,5.2Q247.77,119.88,247.77,123.28Z"/><path class="cls-1" d="M268.73,103.08a1,1,0,0,1-1.12,1.08h-4.92a1.06,1.06,0,0,0-.74.32,1,1,0,0,0-.34.72v25a0.92,0.92,0,0,1-1,1.08h-3.28a1,1,0,0,1-1.08-1.08v-25a0.9,0.9,0,0,0-1-1h-4.92a1,1,0,0,1-1.08-1.08v-2.72a0.94,0.94,0,0,1,1.08-1h17.28a1,1,0,0,1,1.12,1v2.72Z"/><path class="cls-1" d="M288.33,130.16a0.84,0.84,0,0,1-.18.8,1,1,0,0,1-.79.36h-3.63a1.15,1.15,0,0,1-1-1.15l-1-4.73a1.05,1.05,0,0,0-1-1h-4.88a1.08,1.08,0,0,0-1.16,1l-0.84,4.72a1.19,1.19,0,0,1-1.16,1.16h-3.56a0.87,0.87,0,0,1-.72-0.36,1,1,0,0,1-.2-0.8l5.88-29.72a1.16,1.16,0,0,1,1.12-1.12h5.72a1.16,1.16,0,0,1,1.12,1.12ZM280.25,118l-1.88-10.48a0.87,0.87,0,0,0-.44-0.84q-0.28,0-.4.84L275.81,118a0.83,0.83,0,0,0,.88,1.16h2.6A1,1,0,0,0,280.25,118Z"/><path class="cls-1" d="M307.93,100.36l-6.88,17.76a2.52,2.52,0,0,0-.24,1v11.16a0.94,0.94,0,0,1-1,1.08h-3.48a1,1,0,0,1-1.08-1.08V119.08a2.52,2.52,0,0,0-.24-1l-7.48-17.76a0.49,0.49,0,0,1-.08-0.28,0.77,0.77,0,0,1,1-.76h3.89a1.28,1.28,0,0,1,1.08,1l4.2,10.8a0.56,0.56,0,1,0,1.12,0l3.47-10.8a1.17,1.17,0,0,1,1-1h3.91a0.73,0.73,0,0,1,.88.76A0.9,0.9,0,0,1,307.93,100.36Z"/><path class="cls-1" d="M326.61,103.24a1.09,1.09,0,0,1-.36.82,1.14,1.14,0,0,1-.8.34h-7.64a1.14,1.14,0,0,0-.8.34,1,1,0,0,0-.36.78V111a1,1,0,0,0,1.16,1.08h5.84a1.14,1.14,0,0,1,.8.34,1,1,0,0,1,.36.78v2.72a1.16,1.16,0,0,1-1.16,1.16h-5.92a1,1,0,0,0-1.08,1.12v12a1,1,0,0,1-1.12,1.16h-3.24a1.16,1.16,0,0,1-1.16-1.16V100.44a1,1,0,0,1,.36-0.78,1.14,1.14,0,0,1,.8-0.34h13.16a1,1,0,0,1,1.16,1.12v2.8Z"/><path class="cls-1" d="M335.89,130.16a1,1,0,0,1-1.12,1.16h-3.44a1,1,0,0,1-1.12-1.16V100.44a1,1,0,0,1,1.12-1.12h3.44a1,1,0,0,1,1.12,1.12v29.72Z"/><path class="cls-1" d="M355.89,130.24a0.94,0.94,0,0,1-1,1.08H341.41a0.92,0.92,0,0,1-1-1.08V100.36a0.9,0.9,0,0,1,1-1H345a0.94,0.94,0,0,1,1.08,1v24.76a0.94,0.94,0,0,0,1.08,1h7.72a1,1,0,0,1,1,1.16v2.92Z"/><path class="cls-1" d="M383.25,130.24a1,1,0,0,1-1.08,1.08h-3.08a1,1,0,0,1-1.12-1.08V112.16a0.29,0.29,0,0,0-.28-0.36,0.39,0.39,0,0,0-.4.36L373,130.24a1.12,1.12,0,0,1-1.08,1.08H370a1.11,1.11,0,0,1-1-1.08l-4.2-18.12a0.47,0.47,0,0,0-.4-0.44,0.37,0.37,0,0,0-.4.44v18.12a1,1,0,0,1-1.12,1.08h-3.28a0.92,0.92,0,0,1-1-1.08V100.36a0.9,0.9,0,0,1,1-1h6.16a1.26,1.26,0,0,1,1.2,1.2l3.58,15.08q0.24,1.08.51,1.08a1.4,1.4,0,0,0,.48-1.08l3.27-15.24a1.05,1.05,0,0,1,1-1h6.33a0.94,0.94,0,0,1,1.08,1v29.88Z"/><path class="cls-1" d="M393,130.16a1.24,1.24,0,0,1-1.16,1.16h-3.4a1.09,1.09,0,0,1-.82-0.36,1.14,1.14,0,0,1-.34-0.8V126.4a1,1,0,0,1,1.16-1h3.4a1,1,0,0,1,1.16,1v3.76Z"/></svg>