<svg id="English" xmlns="http://www.w3.org/2000/svg" viewBox="0 0 480 150"><defs><style>.cls-1{fill:#fff;}</style></defs><title>title_horizontal_english</title><path class="cls-1" d="M72.41,45.24a1,1,0,0,1-1.12,1.16H67.85a1,1,0,0,1-1.12-1.16V15.52a1,1,0,0,1,1.12-1.12h3.44a1,1,0,0,1,1.12,1.12V45.24Z"/><path class="cls-1" d="M95.93,45.32a1,1,0,0,1-1.08,1.08H91.72a1.34,1.34,0,0,1-1.16-1l-7.62-17a0.39,0.39,0,0,0-.33-0.31c-0.19,0-.29.15-0.29,0.44v16.8a1,1,0,0,1-1.12,1.08H77.93a0.92,0.92,0,0,1-1-1.08V15.48a0.92,0.92,0,0,1,1-1.08h3.28a1.51,1.51,0,0,1,1.36,1.12L89.93,32a0.46,0.46,0,0,0,.4.28c0.16,0,.24-0.15.24-0.44V15.52a1,1,0,0,1,.36-0.78,1.14,1.14,0,0,1,.8-0.34h3.12a1,1,0,0,1,1.08,1.12v29.8Z"/><path class="cls-1" d="M118.37,15.64l-6.08,29.68a1.15,1.15,0,0,1-1.16,1.08h-4.76a1.07,1.07,0,0,1-1-1.08L99.09,15.64q-0.24-1.24.84-1.24h3.31a1,1,0,0,1,1.08.84l4.19,21.08a0.32,0.32,0,0,0,.28.36,0.33,0.33,0,0,0,.32-0.36l4.11-21.08a1,1,0,0,1,1.12-.84h3.27a0.72,0.72,0,0,1,.84.8A1.42,1.42,0,0,1,118.37,15.64Z"/><path class="cls-1" d="M127.73,45.24a1,1,0,0,1-1.12,1.16h-3.44a1,1,0,0,1-1.12-1.16V15.52a1,1,0,0,1,1.12-1.12h3.44a1,1,0,0,1,1.12,1.12V45.24Z"/><path class="cls-1" d="M150.37,18.16a1,1,0,0,1-1.12,1.08h-4.92a1.06,1.06,0,0,0-.74.32,1,1,0,0,0-.34.72v25a0.92,0.92,0,0,1-1,1.08H139a1,1,0,0,1-1.08-1.08v-25a0.9,0.9,0,0,0-1-1H132a1,1,0,0,1-1.08-1.08V15.44a0.94,0.94,0,0,1,1.08-1h17.28a1,1,0,0,1,1.12,1v2.72Z"/><path class="cls-1" d="M168.93,45.24a1.09,1.09,0,0,1-.36.82,1.14,1.14,0,0,1-.8.34H154.25a1.24,1.24,0,0,1-1.16-1.16V15.52a1,1,0,0,1,1.16-1.12h13.12a1,1,0,0,1,1.16,1.12v2.8a1.08,1.08,0,0,1-.36.82,1.15,1.15,0,0,1-.8.34h-7.59a1,1,0,0,0-1.17,1.12V26a1,1,0,0,0,1.17,1.08h5.75a1,1,0,0,1,1.17,1.12V31a1.16,1.16,0,0,1-1.17,1.16h-5.75a1,1,0,0,0-1.17,1.12V40a1,1,0,0,0,1.16,1.12h8a1.24,1.24,0,0,1,1.17,1.16v3Z"/><path class="cls-1" d="M201.77,15.44L194.89,33.2a2.52,2.52,0,0,0-.24,1V45.32a0.94,0.94,0,0,1-1,1.08h-3.48a1,1,0,0,1-1.08-1.08V34.16a2.52,2.52,0,0,0-.24-1l-7.48-17.76a0.49,0.49,0,0,1-.08-0.28,0.78,0.78,0,0,1,1-.76h3.89a1.28,1.28,0,0,1,1.08,1l4.2,10.8a0.56,0.56,0,1,0,1.12,0L196,15.44a1.17,1.17,0,0,1,1-1h3.91a0.73,0.73,0,0,1,.88.76A0.9,0.9,0,0,1,201.77,15.44Z"/><path class="cls-1" d="M223.33,38.24a8.32,8.32,0,0,1-2.5,6.08,8.22,8.22,0,0,1-6.06,2.52h-1.24a8.22,8.22,0,0,1-6.06-2.52,8.32,8.32,0,0,1-2.5-6.08V22.48a8.19,8.19,0,0,1,2.5-6A8.28,8.28,0,0,1,213.53,14h1.24a8.29,8.29,0,0,1,6.06,2.48,8.19,8.19,0,0,1,2.5,6V38.24Zm-5.68-.84V23.52a4.69,4.69,0,0,0-1-3,3,3,0,0,0-2.4-1.24,3.09,3.09,0,0,0-2.44,1.26,4.59,4.59,0,0,0-1,3V37.4a4.46,4.46,0,0,0,1,3,3.11,3.11,0,0,0,2.44,1.24,3,3,0,0,0,2.4-1.22A4.54,4.54,0,0,0,217.65,37.4Z"/><path class="cls-1" d="M245.89,38.24a8.18,8.18,0,0,1-2.6,6.06,8.52,8.52,0,0,1-6.16,2.54h-1A8.45,8.45,0,0,1,230,44.3a8.21,8.21,0,0,1-2.58-6.06V15.44a0.9,0.9,0,0,1,1-1h3.46a0.92,0.92,0,0,1,1,1V37.6a4.48,4.48,0,0,0,1.11,3,3.35,3.35,0,0,0,2.59,1.28,3.25,3.25,0,0,0,2.53-1.28,4.53,4.53,0,0,0,1.09-3V15.44a0.94,0.94,0,0,1,1.08-1h3.44a1.11,1.11,0,0,1,.78.32,1,1,0,0,1,.34.72v22.8Z"/><path class="cls-1" d="M268.29,45.32a0.64,0.64,0,0,1,.08.28,0.74,0.74,0,0,1-.88.8H264a1.3,1.3,0,0,1-1.08-1.09l-4.09-11.64a0.94,0.94,0,0,0-.8-0.8h-1.76a0.92,0.92,0,0,0-1,1.08V45.32a1.06,1.06,0,0,1-.32.74,1,1,0,0,1-.76.34h-3.28a0.92,0.92,0,0,1-1-1.08V15.44a0.9,0.9,0,0,1,1-1h8.2a8.65,8.65,0,0,1,6.08,2.28,8,8,0,0,1,2.52,6.08v1.56a8,8,0,0,1-4,7.24c-0.13.08-.15,0.27,0,0.56ZM262.53,25V22.48a3,3,0,0,0-.94-2.24,3.17,3.17,0,0,0-2.3-.92h-3.08a0.89,0.89,0,0,0-.92,1.08v6.72a0.9,0.9,0,0,0,1,1h3a3.2,3.2,0,0,0,2.3-.9A3,3,0,0,0,262.53,25Z"/><path class="cls-1" d="M296.89,18.32a1.09,1.09,0,0,1-.36.82,1.14,1.14,0,0,1-.8.34h-7.64a1.14,1.14,0,0,0-.8.34,1,1,0,0,0-.36.78V26a1,1,0,0,0,1.16,1.08h5.84a1.14,1.14,0,0,1,.8.34,1,1,0,0,1,.36.78V31a1.16,1.16,0,0,1-1.16,1.16H288a1,1,0,0,0-1.08,1.12v12a1,1,0,0,1-1.12,1.16h-3.24a1.16,1.16,0,0,1-1.16-1.16V15.52a1,1,0,0,1,.36-0.78,1.14,1.14,0,0,1,.8-0.34h13.16a1,1,0,0,1,1.16,1.12v2.8Z"/><path class="cls-1" d="M318.41,45.32a0.64,0.64,0,0,1,.08.28,0.74,0.74,0,0,1-.88.8h-3.47a1.3,1.3,0,0,1-1.08-1.09L309,33.67a0.94,0.94,0,0,0-.8-0.8h-1.76a0.92,0.92,0,0,0-1,1.08V45.32a1.06,1.06,0,0,1-.32.74,1,1,0,0,1-.76.34H301a0.92,0.92,0,0,1-1-1.08V15.44a0.9,0.9,0,0,1,1-1h8.2a8.65,8.65,0,0,1,6.08,2.28,8,8,0,0,1,2.52,6.08v1.56a8,8,0,0,1-4,7.24c-0.13.08-.15,0.27,0,0.56ZM312.65,25V22.48a3,3,0,0,0-.94-2.24,3.17,3.17,0,0,0-2.3-.92h-3.08a0.89,0.89,0,0,0-.92,1.08v6.72a0.9,0.9,0,0,0,1,1h3a3.2,3.2,0,0,0,2.3-.9A3,3,0,0,0,312.65,25Z"/><path class="cls-1" d="M328,45.24a1,1,0,0,1-1.12,1.16h-3.44a1,1,0,0,1-1.12-1.16V15.52a1,1,0,0,1,1.12-1.12h3.44A1,1,0,0,1,328,15.52V45.24Z"/><path class="cls-1" d="M348.37,45.24a1.09,1.09,0,0,1-.36.82,1.14,1.14,0,0,1-.8.34H333.69a1.24,1.24,0,0,1-1.16-1.16V15.52a1,1,0,0,1,1.16-1.12h13.12A1,1,0,0,1,348,15.52v2.8a1.08,1.08,0,0,1-.36.82,1.15,1.15,0,0,1-.8.34h-7.59A1,1,0,0,0,338,20.6V26a1,1,0,0,0,1.17,1.08H345a1,1,0,0,1,1.17,1.12V31A1.16,1.16,0,0,1,345,32.12h-5.75A1,1,0,0,0,338,33.24V40a1,1,0,0,0,1.17,1.12h8a1.24,1.24,0,0,1,1.16,1.16v3Z"/><path class="cls-1" d="M371,45.32a1,1,0,0,1-1.08,1.08h-3.13a1.34,1.34,0,0,1-1.16-1l-7.62-17a0.39,0.39,0,0,0-.33-0.31q-0.29,0-.29.44v16.8a1,1,0,0,1-1.12,1.08H353a0.92,0.92,0,0,1-1-1.08V15.48a0.92,0.92,0,0,1,1-1.08h3.28a1.51,1.51,0,0,1,1.36,1.12L365,32a0.46,0.46,0,0,0,.4.28c0.16,0,.24-0.15.24-0.44V15.52a1,1,0,0,1,.36-0.78,1.14,1.14,0,0,1,.8-0.34h3.12A1,1,0,0,1,371,15.52v29.8Z"/><path class="cls-1" d="M393,37.48a8.91,8.91,0,0,1-8.92,8.92h-8a1.07,1.07,0,0,1-.78-0.34,1.12,1.12,0,0,1-.34-0.82V15.52a1,1,0,0,1,1.12-1.12h8A8.91,8.91,0,0,1,393,23.32V37.48ZM387.53,37V23.88a4.26,4.26,0,0,0-1.36-3.16A4.45,4.45,0,0,0,383,19.4h-1.21a1,1,0,0,0-1.17,1.12v19.8a1.08,1.08,0,0,0,.36.82,1.16,1.16,0,0,0,.81.34H383a4.49,4.49,0,0,0,3.22-1.3A4.19,4.19,0,0,0,387.53,37Z"/><path class="cls-1" d="M415.49,38.36a8,8,0,0,1-2.54,6.24,9.32,9.32,0,0,1-6.54,2.32,8.76,8.76,0,0,1-7.32-3.32,15.27,15.27,0,0,1-2.4-5.2,0.92,0.92,0,0,1,.64-1.28l3-1a1.87,1.87,0,0,1,.36,0,1,1,0,0,1,1,.76q1.36,5,4.72,5A3.54,3.54,0,0,0,409,40.9a3.43,3.43,0,0,0,.94-2.54q0-2.12-3.28-5-3-2.52-6-5-3.28-3.24-3.28-6.4a7.45,7.45,0,0,1,2.56-6,8.41,8.41,0,0,1,5.76-2,8.27,8.27,0,0,1,6.8,3.28,11.83,11.83,0,0,1,2,3.92,1.51,1.51,0,0,1,0,.36,0.94,0.94,0,0,1-.72,1l-2.6.84a0.71,0.71,0,0,1-.32.08,1,1,0,0,1-1-.72q-1.8-4.24-4.2-4.24a2.86,2.86,0,0,0-2.22,1.08,3.62,3.62,0,0,0-.94,2.44q0,1.64,3.36,4.36,5.44,4.4,6.24,5.2Q415.49,35,415.49,38.36Z"/><path class="cls-1" d="M70.65,60.78a1.09,1.09,0,0,1-.36.82,1.14,1.14,0,0,1-.8.34H61.85a1.14,1.14,0,0,0-.8.34,1,1,0,0,0-.36.78V68.5a1,1,0,0,0,1.16,1.08h5.84a1.14,1.14,0,0,1,.8.34,1,1,0,0,1,.36.78v2.72a1.16,1.16,0,0,1-1.16,1.16H61.77a1,1,0,0,0-1.08,1.12v12a1,1,0,0,1-1.12,1.16H56.33a1.16,1.16,0,0,1-1.16-1.16V58a1,1,0,0,1,.36-0.78,1.14,1.14,0,0,1,.8-0.34H69.49A1,1,0,0,1,70.65,58v2.8Z"/><path class="cls-1" d="M92.17,87.78a0.64,0.64,0,0,1,.08.28,0.74,0.74,0,0,1-.88.8H87.9a1.3,1.3,0,0,1-1.08-1.09L82.74,76.13a0.94,0.94,0,0,0-.8-0.8H80.17a0.92,0.92,0,0,0-1,1.08V87.78a1.06,1.06,0,0,1-.32.74,1,1,0,0,1-.76.34H74.81a0.92,0.92,0,0,1-1-1.08V57.9a0.9,0.9,0,0,1,1-1H83a8.66,8.66,0,0,1,6.08,2.28,8,8,0,0,1,2.52,6.08v1.56a8,8,0,0,1-4,7.24c-0.13.08-.15,0.27,0,0.56ZM86.41,67.5V64.94a3,3,0,0,0-.94-2.24,3.17,3.17,0,0,0-2.3-.92H80.09a0.89,0.89,0,0,0-.92,1.08v6.72a0.9,0.9,0,0,0,1,1h3a3.2,3.2,0,0,0,2.3-.9A3,3,0,0,0,86.41,67.5Z"/><path class="cls-1" d="M114,80.7a8.32,8.32,0,0,1-2.5,6.08,8.22,8.22,0,0,1-6.06,2.52h-1.24a8.22,8.22,0,0,1-6.06-2.52,8.32,8.32,0,0,1-2.5-6.08V64.94a8.19,8.19,0,0,1,2.5-6,8.28,8.28,0,0,1,6.06-2.48h1.24a8.29,8.29,0,0,1,6.06,2.48,8.19,8.19,0,0,1,2.5,6V80.7Zm-5.68-.84V66a4.69,4.69,0,0,0-1-3,3,3,0,0,0-2.4-1.24A3.09,3.09,0,0,0,102.49,63a4.59,4.59,0,0,0-1,3V79.86a4.46,4.46,0,0,0,1,3,3.11,3.11,0,0,0,2.44,1.24,3,3,0,0,0,2.4-1.22A4.54,4.54,0,0,0,108.33,79.86Z"/><path class="cls-1" d="M142.73,87.78a1,1,0,0,1-1.08,1.08h-3.08a1,1,0,0,1-1.12-1.08V69.7a0.29,0.29,0,0,0-.28-0.36,0.39,0.39,0,0,0-.4.36l-4.32,18.08a1.12,1.12,0,0,1-1.08,1.08h-1.84a1.11,1.11,0,0,1-1-1.08l-4.2-18.12a0.47,0.47,0,0,0-.4-0.44,0.37,0.37,0,0,0-.4.44V87.78a1,1,0,0,1-1.12,1.08h-3.28a0.92,0.92,0,0,1-1-1.08V57.9a0.9,0.9,0,0,1,1-1h6.16a1.26,1.26,0,0,1,1.2,1.2L130,73.13q0.24,1.08.51,1.08a1.4,1.4,0,0,0,.48-1.08l3.27-15.24a1.05,1.05,0,0,1,1-1h6.32a0.94,0.94,0,0,1,1.08,1V87.78Z"/><path class="cls-1" d="M171.89,60.78a1.09,1.09,0,0,1-.36.82,1.14,1.14,0,0,1-.8.34h-7.64a1.14,1.14,0,0,0-.8.34,1,1,0,0,0-.36.78V68.5a1,1,0,0,0,1.16,1.08h5.84a1.14,1.14,0,0,1,.8.34,1,1,0,0,1,.36.78v2.72a1.16,1.16,0,0,1-1.16,1.16H163a1,1,0,0,0-1.08,1.12v12a1,1,0,0,1-1.12,1.16h-3.24a1.16,1.16,0,0,1-1.16-1.16V58a1,1,0,0,1,.36-0.78,1.14,1.14,0,0,1,.8-0.34h13.16A1,1,0,0,1,171.89,58v2.8Z"/><path class="cls-1" d="M191.13,87.7a0.84,0.84,0,0,1-.18.8,1,1,0,0,1-.79.36h-3.63a1.15,1.15,0,0,1-1-1.15l-1-4.73a1.05,1.05,0,0,0-1-1h-4.88a1.08,1.08,0,0,0-1.16,1l-0.84,4.72a1.19,1.19,0,0,1-1.16,1.16h-3.56a0.87,0.87,0,0,1-.72-0.36,1,1,0,0,1-.2-0.8L176.85,58A1.15,1.15,0,0,1,178,56.86h5.72A1.16,1.16,0,0,1,184.81,58Zm-8.08-12.2L181.17,65a0.87,0.87,0,0,0-.44-0.84q-0.28,0-.4.84L178.61,75.5a0.83,0.83,0,0,0,.88,1.16h2.6A1,1,0,0,0,183.05,75.5Z"/><path class="cls-1" d="M211.77,80.34a8.66,8.66,0,0,1-2.62,6.32,8.56,8.56,0,0,1-6.3,2.64h-0.36a9,9,0,0,1-9-9v-15a8.57,8.57,0,0,1,2.63-6.3,8.69,8.69,0,0,1,6.37-2.62h0.36A8.51,8.51,0,0,1,209.18,59a8.64,8.64,0,0,1,2.59,6.3V66.7a1,1,0,0,1-.34.74,1.08,1.08,0,0,1-.78.34h-3.36a1.14,1.14,0,0,1-.8-0.34,1,1,0,0,1-.36-0.74V66.22a5.17,5.17,0,0,0-1-3.14,2.84,2.84,0,0,0-2.37-1.3,3.14,3.14,0,0,0-2.51,1.3,4.83,4.83,0,0,0-1.05,3.14V79.74a4.93,4.93,0,0,0,1,3.18,3.09,3.09,0,0,0,2.48,1.3,3,3,0,0,0,2.46-1.3,5,5,0,0,0,1-3.18v-1a1,1,0,0,1,1-1.12h3.36a1,1,0,0,1,1.12,1.12v1.64Z"/><path class="cls-1" d="M231.69,87.7a1.09,1.09,0,0,1-.36.82,1.14,1.14,0,0,1-.8.34H217a1.24,1.24,0,0,1-1.16-1.16V58A1,1,0,0,1,217,56.86h13.12A1,1,0,0,1,231.29,58v2.8a1.09,1.09,0,0,1-.36.82,1.15,1.15,0,0,1-.8.34h-7.59a1,1,0,0,0-1.17,1.12V68.5a1,1,0,0,0,1.17,1.08h5.75a1,1,0,0,1,1.17,1.12v2.72a1.16,1.16,0,0,1-1.17,1.16h-5.75a1,1,0,0,0-1.17,1.12v6.76a1,1,0,0,0,1.17,1.12h8a1.24,1.24,0,0,1,1.16,1.16v3Z"/><path class="cls-1" d="M253.89,79.54A8.76,8.76,0,0,1,251,86.12a9.68,9.68,0,0,1-6.92,2.74h-7.64a1.16,1.16,0,0,1-1.16-1.16V58a1,1,0,0,1,1.16-1.12h6.92a10.05,10.05,0,0,1,7.08,2.36,7.44,7.44,0,0,1,2.44,5.8A7.33,7.33,0,0,1,250,71.14a0.78,0.78,0,0,0-.36.6,0.68,0.68,0,0,0,.36.56A8.37,8.37,0,0,1,253.89,79.54ZM247.13,65.7a3.62,3.62,0,0,0-1-2.6,3.26,3.26,0,0,0-2.45-1H242a1,1,0,0,0-1.17,1.08v5.48a1.1,1.1,0,0,0,.36.8,1.13,1.13,0,0,0,.81.36h1.7a3,3,0,0,0,2.43-1.24A4.36,4.36,0,0,0,247.13,65.7Zm0.6,13.6a4.85,4.85,0,0,0-1.34-3.3,3.85,3.85,0,0,0-2.86-1.5H242a1,1,0,0,0-1.16,1.12v7A1,1,0,0,0,242,83.78h2.2a3.13,3.13,0,0,0,2.52-1.3A4.93,4.93,0,0,0,247.73,79.3Z"/><path class="cls-1" d="M276.33,80.7a8.32,8.32,0,0,1-2.5,6.08,8.22,8.22,0,0,1-6.06,2.52h-1.24a8.22,8.22,0,0,1-6.06-2.52A8.32,8.32,0,0,1,258,80.7V64.94a8.19,8.19,0,0,1,2.5-6,8.28,8.28,0,0,1,6.06-2.48h1.24a8.28,8.28,0,0,1,6.06,2.48,8.19,8.19,0,0,1,2.5,6V80.7Zm-5.68-.84V66a4.69,4.69,0,0,0-1-3,3,3,0,0,0-2.4-1.24A3.09,3.09,0,0,0,264.81,63a4.59,4.59,0,0,0-1,3V79.86a4.46,4.46,0,0,0,1,3,3.1,3.1,0,0,0,2.44,1.24,3,3,0,0,0,2.4-1.22A4.55,4.55,0,0,0,270.65,79.86Z"/><path class="cls-1" d="M298.77,80.7a8.32,8.32,0,0,1-2.5,6.08,8.22,8.22,0,0,1-6.06,2.52H289a8.22,8.22,0,0,1-6.06-2.52,8.32,8.32,0,0,1-2.5-6.08V64.94a8.19,8.19,0,0,1,2.5-6A8.28,8.28,0,0,1,289,56.42h1.24a8.28,8.28,0,0,1,6.06,2.48,8.19,8.19,0,0,1,2.5,6V80.7Zm-5.68-.84V66a4.69,4.69,0,0,0-1-3,3,3,0,0,0-2.4-1.24A3.09,3.09,0,0,0,287.25,63a4.59,4.59,0,0,0-1,3V79.86a4.46,4.46,0,0,0,1,3,3.1,3.1,0,0,0,2.44,1.24,3,3,0,0,0,2.4-1.22A4.55,4.55,0,0,0,293.09,79.86Z"/><path class="cls-1" d="M322.13,87.78a1.34,1.34,0,0,1,0,.32,0.69,0.69,0,0,1-.8.76H317.3a1.36,1.36,0,0,1-1.08-1.08l-4.87-12.56a0.5,0.5,0,0,0-.4-0.39,0.57,0.57,0,0,0-.44.4l-1.85,3.12a1.47,1.47,0,0,0-.2.72v8.72a0.94,0.94,0,0,1-1,1.08h-3.56a0.92,0.92,0,0,1-1-1.08V57.9a0.9,0.9,0,0,1,1-1h3.56a0.92,0.92,0,0,1,1,1v9.68q0,0.6.32,0.6a0.88,0.88,0,0,0,.6-0.56l5.52-9.68A1.66,1.66,0,0,1,316,56.86h4a0.73,0.73,0,0,1,.88.76,0.57,0.57,0,0,1-.11.32L314.6,68.45a0.79,0.79,0,0,0,0,.64Z"/><path class="cls-1" d="M353.33,60.62a1,1,0,0,1-1.12,1.08h-4.92a1.06,1.06,0,0,0-.74.32,1,1,0,0,0-.34.72v25a0.92,0.92,0,0,1-1,1.08h-3.28a1,1,0,0,1-1.08-1.08v-25a0.9,0.9,0,0,0-1-1h-4.92a1,1,0,0,1-1.08-1.08V57.9a0.94,0.94,0,0,1,1.08-1h17.28a1,1,0,0,1,1.12,1v2.72Z"/><path class="cls-1" d="M374.41,80.7a8.32,8.32,0,0,1-2.5,6.08,8.22,8.22,0,0,1-6.06,2.52h-1.24a8.22,8.22,0,0,1-6.06-2.52A8.32,8.32,0,0,1,356,80.7V64.94a8.19,8.19,0,0,1,2.5-6,8.28,8.28,0,0,1,6.06-2.48h1.24a8.28,8.28,0,0,1,6.06,2.48,8.19,8.19,0,0,1,2.5,6V80.7Zm-5.68-.84V66a4.69,4.69,0,0,0-1-3,3,3,0,0,0-2.4-1.24A3.09,3.09,0,0,0,362.89,63a4.59,4.59,0,0,0-1,3V79.86a4.46,4.46,0,0,0,1,3,3.1,3.1,0,0,0,2.44,1.24,3,3,0,0,0,2.4-1.22A4.55,4.55,0,0,0,368.73,79.86Z"/><path class="cls-1" d="M406.73,79.54a8.76,8.76,0,0,1-2.88,6.58,9.68,9.68,0,0,1-6.92,2.74h-7.64a1.16,1.16,0,0,1-1.16-1.16V58a1,1,0,0,1,1.16-1.12h6.92a10.05,10.05,0,0,1,7.08,2.36,7.44,7.44,0,0,1,2.44,5.8,7.33,7.33,0,0,1-2.88,6.12,0.78,0.78,0,0,0-.36.6,0.68,0.68,0,0,0,.36.56A8.37,8.37,0,0,1,406.73,79.54ZM400,65.7a3.62,3.62,0,0,0-1-2.6,3.26,3.26,0,0,0-2.45-1h-1.7a1,1,0,0,0-1.17,1.08v5.48a1.1,1.1,0,0,0,.36.8,1.13,1.13,0,0,0,.81.36h1.7A3,3,0,0,0,399,68.54,4.36,4.36,0,0,0,400,65.7Zm0.6,13.6a4.85,4.85,0,0,0-1.34-3.3,3.85,3.85,0,0,0-2.86-1.5h-1.56a1,1,0,0,0-1.16,1.12v7a1,1,0,0,0,1.16,1.12H397a3.13,3.13,0,0,0,2.52-1.3A4.93,4.93,0,0,0,400.57,79.3Z"/><path class="cls-1" d="M426.65,87.7a1.09,1.09,0,0,1-.36.82,1.14,1.14,0,0,1-.8.34H412a1.24,1.24,0,0,1-1.16-1.16V58A1,1,0,0,1,412,56.86h13.12A1,1,0,0,1,426.25,58v2.8a1.08,1.08,0,0,1-.36.82,1.15,1.15,0,0,1-.8.34h-7.59a1,1,0,0,0-1.17,1.12V68.5a1,1,0,0,0,1.17,1.08h5.75a1,1,0,0,1,1.17,1.12v2.72a1.16,1.16,0,0,1-1.17,1.16h-5.75a1,1,0,0,0-1.17,1.12v6.76a1,1,0,0,0,1.17,1.12h8a1.24,1.24,0,0,1,1.16,1.16v3Z"/><path class="cls-1" d="M105,109.68a8.3,8.3,0,0,1-2.47,6.06,8.16,8.16,0,0,1-6,2.5H93.68a1,1,0,0,0-1.08,1.08v10.92a1,1,0,0,1-1.11,1.08H88.06a0.92,0.92,0,0,1-1-1.08V100.36a0.9,0.9,0,0,1,1-1h8.44a8.13,8.13,0,0,1,6,2.5,8.32,8.32,0,0,1,2.46,6.06v1.8Zm-5.64.52v-2.72a3,3,0,0,0-1-2.24,3.32,3.32,0,0,0-2.36-.92H93.77a1.29,1.29,0,0,0-.79.3,0.91,0.91,0,0,0-.39.74v7a0.9,0.9,0,0,0,.39.74,1.28,1.28,0,0,0,.79.3H96a3.3,3.3,0,0,0,2.34-.94A3,3,0,0,0,99.35,110.2Z"/><path class="cls-1" d="M124.47,130.16a0.84,0.84,0,0,1-.18.8,1,1,0,0,1-.78.36h-3.63a1.15,1.15,0,0,1-1-1.15l-1-4.73a1.05,1.05,0,0,0-1-1h-4.88a1.08,1.08,0,0,0-1.16,1l-0.84,4.72a1.19,1.19,0,0,1-1.16,1.16h-3.56a0.87,0.87,0,0,1-.72-0.36,1,1,0,0,1-.2-0.8l5.88-29.72a1.16,1.16,0,0,1,1.12-1.12H117a1.16,1.16,0,0,1,1.12,1.12ZM116.39,118l-1.88-10.48a0.87,0.87,0,0,0-.44-0.84q-0.28,0-.4.84L112,118a0.83,0.83,0,0,0,.88,1.16h2.6A1,1,0,0,0,116.39,118Z"/><path class="cls-1" d="M146,130.24a0.64,0.64,0,0,1,.08.28,0.74,0.74,0,0,1-.88.8h-3.47a1.3,1.3,0,0,1-1.08-1.09l-4.09-11.64a0.94,0.94,0,0,0-.8-0.8H134a0.92,0.92,0,0,0-1,1.08v11.36a1.06,1.06,0,0,1-.32.74,1,1,0,0,1-.76.34h-3.28a0.92,0.92,0,0,1-1-1.08V100.36a0.9,0.9,0,0,1,1-1h8.2A8.66,8.66,0,0,1,143,101.6a8,8,0,0,1,2.52,6.08v1.56a8,8,0,0,1-4,7.24c-0.13.08-.15,0.27,0,0.56ZM140.27,110V107.4a3,3,0,0,0-.94-2.24,3.17,3.17,0,0,0-2.3-.92H134a0.89,0.89,0,0,0-.92,1.08V112a0.9,0.9,0,0,0,1,1h3a3.2,3.2,0,0,0,2.3-.9A3,3,0,0,0,140.27,110Z"/><path class="cls-1" d="M167.63,103.08a1,1,0,0,1-1.12,1.08h-4.92a1.06,1.06,0,0,0-.74.32,1,1,0,0,0-.34.72v25a0.92,0.92,0,0,1-1,1.08h-3.28a1,1,0,0,1-1.08-1.08v-25a0.9,0.9,0,0,0-1-1h-4.92a1,1,0,0,1-1.08-1.08v-2.72a0.94,0.94,0,0,1,1.08-1h17.28a1,1,0,0,1,1.12,1v2.72Z"/><path class="cls-1" d="M198.35,123.16a8.32,8.32,0,0,1-2.5,6.08,8.22,8.22,0,0,1-6.06,2.52h-1.24a8.22,8.22,0,0,1-6.06-2.52,8.32,8.32,0,0,1-2.5-6.08V107.4a8.19,8.19,0,0,1,2.5-6,8.28,8.28,0,0,1,6.06-2.48h1.24a8.29,8.29,0,0,1,6.06,2.48,8.19,8.19,0,0,1,2.5,6v15.76Zm-5.68-.84V108.44a4.69,4.69,0,0,0-1-3,3,3,0,0,0-2.4-1.24,3.09,3.09,0,0,0-2.44,1.26,4.59,4.59,0,0,0-1,3v13.88a4.46,4.46,0,0,0,1,3,3.11,3.11,0,0,0,2.44,1.24,3,3,0,0,0,2.4-1.22A4.54,4.54,0,0,0,192.67,122.32Z"/><path class="cls-1" d="M217.91,103.24a1.09,1.09,0,0,1-.36.82,1.14,1.14,0,0,1-.8.34h-7.64a1.14,1.14,0,0,0-.8.34,1,1,0,0,0-.36.78V111a1,1,0,0,0,1.16,1.08H215a1.14,1.14,0,0,1,.8.34,1,1,0,0,1,.36.78v2.72A1.16,1.16,0,0,1,215,117H209a1,1,0,0,0-1.08,1.12v12a1,1,0,0,1-1.12,1.16h-3.24a1.16,1.16,0,0,1-1.16-1.16V100.44a1,1,0,0,1,.36-0.78,1.14,1.14,0,0,1,.8-0.34h13.16a1,1,0,0,1,1.16,1.12v2.8Z"/><path class="cls-1" d="M249.07,123.28a8,8,0,0,1-2.54,6.24,9.32,9.32,0,0,1-6.54,2.32,8.76,8.76,0,0,1-7.32-3.32,15.27,15.27,0,0,1-2.4-5.2,0.92,0.92,0,0,1,.64-1.28l3-1a1.87,1.87,0,0,1,.36,0,1,1,0,0,1,1,.76q1.36,5,4.72,5a3.54,3.54,0,0,0,2.62-.94,3.43,3.43,0,0,0,.94-2.54q0-2.12-3.28-5-3-2.52-6-5Q231,110,231,106.88a7.45,7.45,0,0,1,2.56-6,8.41,8.41,0,0,1,5.76-2,8.27,8.27,0,0,1,6.8,3.28,11.83,11.83,0,0,1,2,3.92,1.56,1.56,0,0,1,0,.36,0.94,0.94,0,0,1-.72,1l-2.6.84a0.71,0.71,0,0,1-.32.08,1,1,0,0,1-1-.72q-1.8-4.24-4.2-4.24a2.86,2.86,0,0,0-2.22,1.08,3.62,3.62,0,0,0-.94,2.44q0,1.64,3.36,4.36,5.44,4.4,6.24,5.2Q249.07,119.88,249.07,123.28Z"/><path class="cls-1" d="M270,103.08a1,1,0,0,1-1.12,1.08H264a1.06,1.06,0,0,0-.74.32,1,1,0,0,0-.34.72v25a0.92,0.92,0,0,1-1,1.08h-3.28a1,1,0,0,1-1.08-1.08v-25a0.9,0.9,0,0,0-1-1h-4.92a1,1,0,0,1-1.08-1.08v-2.72a0.94,0.94,0,0,1,1.08-1h17.28a1,1,0,0,1,1.12,1v2.72Z"/><path class="cls-1" d="M289.63,130.16a0.84,0.84,0,0,1-.18.8,1,1,0,0,1-.79.36H285a1.15,1.15,0,0,1-1-1.15l-1-4.73a1.05,1.05,0,0,0-1-1h-4.88a1.08,1.08,0,0,0-1.16,1l-0.84,4.72a1.19,1.19,0,0,1-1.16,1.16h-3.56a0.87,0.87,0,0,1-.72-0.36,1,1,0,0,1-.2-0.8l5.88-29.72a1.16,1.16,0,0,1,1.12-1.12h5.72a1.16,1.16,0,0,1,1.12,1.12ZM281.55,118l-1.88-10.48a0.87,0.87,0,0,0-.44-0.84q-0.28,0-.4.84L277.11,118a0.83,0.83,0,0,0,.88,1.16h2.6A1,1,0,0,0,281.55,118Z"/><path class="cls-1" d="M309.23,100.36l-6.88,17.76a2.52,2.52,0,0,0-.24,1v11.16a0.94,0.94,0,0,1-1,1.08h-3.48a1,1,0,0,1-1.08-1.08V119.08a2.52,2.52,0,0,0-.24-1l-7.48-17.76a0.49,0.49,0,0,1-.08-0.28,0.77,0.77,0,0,1,1-.76h3.89a1.28,1.28,0,0,1,1.08,1l4.2,10.8a0.56,0.56,0,1,0,1.12,0l3.47-10.8a1.17,1.17,0,0,1,1-1h3.91a0.73,0.73,0,0,1,.88.76A0.9,0.9,0,0,1,309.23,100.36Z"/><path class="cls-1" d="M327.91,103.24a1.09,1.09,0,0,1-.36.82,1.14,1.14,0,0,1-.8.34h-7.64a1.14,1.14,0,0,0-.8.34,1,1,0,0,0-.36.78V111a1,1,0,0,0,1.16,1.08h5.84a1.14,1.14,0,0,1,.8.34,1,1,0,0,1,.36.78v2.72a1.16,1.16,0,0,1-1.16,1.16H319a1,1,0,0,0-1.08,1.12v12a1,1,0,0,1-1.12,1.16h-3.24a1.16,1.16,0,0,1-1.16-1.16V100.44a1,1,0,0,1,.36-0.78,1.14,1.14,0,0,1,.8-0.34h13.16a1,1,0,0,1,1.16,1.12v2.8Z"/><path class="cls-1" d="M337.19,130.16a1,1,0,0,1-1.12,1.16h-3.44a1,1,0,0,1-1.12-1.16V100.44a1,1,0,0,1,1.12-1.12h3.44a1,1,0,0,1,1.12,1.12v29.72Z"/><path class="cls-1" d="M357.19,130.24a0.94,0.94,0,0,1-1,1.08H342.71a0.92,0.92,0,0,1-1-1.08V100.36a0.9,0.9,0,0,1,1-1h3.56a0.94,0.94,0,0,1,1.08,1v24.76a0.94,0.94,0,0,0,1.08,1h7.72a1,1,0,0,1,1,1.16v2.92Z"/><path class="cls-1" d="M384.55,130.24a1,1,0,0,1-1.08,1.08h-3.08a1,1,0,0,1-1.12-1.08V112.16a0.29,0.29,0,0,0-.28-0.36,0.39,0.39,0,0,0-.4.36l-4.32,18.08a1.12,1.12,0,0,1-1.08,1.08h-1.84a1.11,1.11,0,0,1-1-1.08l-4.2-18.12a0.47,0.47,0,0,0-.4-0.44,0.37,0.37,0,0,0-.4.44v18.12a1,1,0,0,1-1.12,1.08h-3.28a0.92,0.92,0,0,1-1-1.08V100.36a0.9,0.9,0,0,1,1-1h6.16a1.26,1.26,0,0,1,1.2,1.2l3.58,15.08q0.24,1.08.51,1.08a1.4,1.4,0,0,0,.48-1.08l3.27-15.24a1.05,1.05,0,0,1,1-1h6.33a0.94,0.94,0,0,1,1.08,1v29.88Z"/><path class="cls-1" d="M394.31,130.16a1.24,1.24,0,0,1-1.16,1.16h-3.4a1.09,1.09,0,0,1-.82-0.36,1.14,1.14,0,0,1-.34-0.8V126.4a1,1,0,0,1,1.16-1h3.4a1,1,0,0,1,1.16,1v3.76Z"/></svg>