<svg id="Spanish" xmlns="http://www.w3.org/2000/svg" viewBox="0 0 1246 150"><defs><style>.cls-1{fill:#fff;}</style></defs><title>title_horizontal_spanish</title><path class="cls-1" d="M163.48,62a1.64,1.64,0,0,1-1.82,1.88h-5.59A1.64,1.64,0,0,1,154.25,62V13.72a1.61,1.61,0,0,1,1.82-1.82h5.59a1.61,1.61,0,0,1,1.82,1.82V62Z"/><path class="cls-1" d="M201.7,62.14a1.55,1.55,0,0,1-1.76,1.75h-5.08A2.18,2.18,0,0,1,193,62.28L180.59,34.64a0.63,0.63,0,0,0-.53-0.51c-0.31,0-.47.24-0.47,0.71v27.3a1.58,1.58,0,0,1-1.82,1.75h-5.33a1.5,1.5,0,0,1-1.62-1.75V13.65a1.5,1.5,0,0,1,1.63-1.75h5.33A2.46,2.46,0,0,1,180,13.72l12,26.72a0.75,0.75,0,0,0,.65.46c0.26,0,.39-0.24.39-0.72V13.72a1.7,1.7,0,0,1,.58-1.27,1.85,1.85,0,0,1,1.3-.55h5.07a1.58,1.58,0,0,1,1.76,1.82V62.14Z"/><path class="cls-1" d="M238.16,13.91l-9.88,48.23a1.88,1.88,0,0,1-1.89,1.75h-7.73q-1.37,0-1.69-1.75L206.83,13.91q-0.39-2,1.36-2h5.38a1.57,1.57,0,0,1,1.75,1.37l6.8,34.25a0.52,0.52,0,0,0,.46.59,0.53,0.53,0,0,0,.53-0.58l6.69-34.26a1.61,1.61,0,0,1,1.81-1.37h5.31a1.18,1.18,0,0,1,1.36,1.3A2.28,2.28,0,0,1,238.16,13.91Z"/><path class="cls-1" d="M253.37,62a1.64,1.64,0,0,1-1.82,1.88H246A1.64,1.64,0,0,1,244.14,62V13.72A1.61,1.61,0,0,1,246,11.9h5.59a1.61,1.61,0,0,1,1.82,1.82V62Z"/><path class="cls-1" d="M290.16,18a1.58,1.58,0,0,1-1.82,1.76h-8a1.72,1.72,0,0,0-1.2.52,1.58,1.58,0,0,0-.55,1.17V62.14A1.5,1.5,0,0,1,277,63.9h-5.33a1.55,1.55,0,0,1-1.75-1.75V21.45a1.47,1.47,0,0,0-1.62-1.69h-8A1.55,1.55,0,0,1,258.5,18V13.59a1.52,1.52,0,0,1,1.75-1.69h28.08a1.55,1.55,0,0,1,1.82,1.69V18Z"/><path class="cls-1" d="M322,62a1.36,1.36,0,0,1-.3,1.3,1.59,1.59,0,0,1-1.28.58h-5.9q-1.31,0-1.7-1.87l-1.57-7.68a1.71,1.71,0,0,0-1.69-1.69h-7.93a1.75,1.75,0,0,0-1.88,1.69L298.41,62Q298,63.9,296.53,63.9h-5.78a1.41,1.41,0,0,1-1.17-.58,1.57,1.57,0,0,1-.33-1.3l9.56-48.3q0.39-1.82,1.82-1.82h9.29q1.43,0,1.82,1.82ZM308.88,42.19l-3.05-17q-0.26-1.36-.72-1.36t-0.65,1.36l-2.79,17q-0.33,1.89,1.43,1.88h4.22A1.59,1.59,0,0,0,308.88,42.19Z"/><path class="cls-1" d="M374.2,62a1.36,1.36,0,0,1-.3,1.3,1.59,1.59,0,0,1-1.28.58h-5.9q-1.31,0-1.7-1.87l-1.57-7.68a1.71,1.71,0,0,0-1.69-1.69h-7.93A1.75,1.75,0,0,0,352,54.34L350.6,62q-0.39,1.89-1.88,1.88h-5.78a1.41,1.41,0,0,1-1.17-.58,1.57,1.57,0,0,1-.33-1.3L351,13.72q0.39-1.82,1.82-1.82h9.29q1.43,0,1.82,1.82ZM361.07,42.19l-3.05-17q-0.26-1.36-.72-1.36t-0.65,1.36l-2.79,17q-0.33,1.89,1.43,1.88h4.22A1.59,1.59,0,0,0,361.07,42.19Z"/><path class="cls-1" d="M424.51,18a1.58,1.58,0,0,1-1.82,1.76h-8a1.72,1.72,0,0,0-1.2.52,1.58,1.58,0,0,0-.55,1.17V62.14a1.5,1.5,0,0,1-1.62,1.75H406a1.55,1.55,0,0,1-1.75-1.75V21.45a1.47,1.47,0,0,0-1.62-1.69h-8A1.55,1.55,0,0,1,392.86,18V13.59a1.52,1.52,0,0,1,1.75-1.69h28.08a1.55,1.55,0,0,1,1.82,1.69V18Z"/><path class="cls-1" d="M459,50.64a13.29,13.29,0,0,1-4.23,9.85,13.84,13.84,0,0,1-10,4.13H443.1a13.73,13.73,0,0,1-10-4.13,13.34,13.34,0,0,1-4.19-9.85V13.59a1.47,1.47,0,0,1,1.64-1.69h5.63a1.5,1.5,0,0,1,1.7,1.69v36a7.28,7.28,0,0,0,1.81,4.94,5.44,5.44,0,0,0,4.2,2.08,5.28,5.28,0,0,0,4.1-2.08,7.35,7.35,0,0,0,1.78-4.94v-36a1.52,1.52,0,0,1,1.75-1.69h5.59a1.8,1.8,0,0,1,1.27.52,1.58,1.58,0,0,1,.55,1.17V50.64Z"/><path class="cls-1" d="M495.36,50.83A13.06,13.06,0,0,1,491.23,61a15.15,15.15,0,0,1-10.63,3.77q-7.67,0-11.9-5.4a24.79,24.79,0,0,1-3.9-8.45,1.5,1.5,0,0,1,1-2.08l4.81-1.62a3.08,3.08,0,0,1,.58-0.06,1.62,1.62,0,0,1,1.69,1.23q2.21,8.13,7.67,8.13A5.75,5.75,0,0,0,484.86,55a5.58,5.58,0,0,0,1.53-4.13q0-3.44-5.33-8.06-4.87-4.09-9.81-8.19-5.33-5.27-5.33-10.4a12.11,12.11,0,0,1,4.16-9.69,13.66,13.66,0,0,1,9.36-3.31,13.43,13.43,0,0,1,11.05,5.33,19.26,19.26,0,0,1,3.25,6.37,2.46,2.46,0,0,1,.06.58A1.53,1.53,0,0,1,492.63,25l-4.23,1.37a1.15,1.15,0,0,1-.52.13,1.64,1.64,0,0,1-1.62-1.17q-2.93-6.89-6.83-6.89a4.64,4.64,0,0,0-3.61,1.75,5.88,5.88,0,0,0-1.53,4q0,2.67,5.46,7.08,8.84,7.15,10.14,8.45Q495.36,45.31,495.36,50.83Z"/><path class="cls-1" d="M548.27,62a1.36,1.36,0,0,1-.3,1.3,1.59,1.59,0,0,1-1.28.58h-5.9q-1.31,0-1.7-1.87l-1.57-7.68a1.71,1.71,0,0,0-1.69-1.69h-7.93A1.75,1.75,0,0,0,526,54.34L524.67,62q-0.39,1.89-1.88,1.88H517a1.41,1.41,0,0,1-1.17-.58,1.57,1.57,0,0,1-.33-1.3l9.56-48.3q0.39-1.82,1.82-1.82h9.29q1.43,0,1.82,1.82ZM535.14,42.19l-3.05-17q-0.26-1.36-.72-1.36t-0.65,1.36l-2.79,17q-0.33,1.89,1.43,1.88h4.22A1.59,1.59,0,0,0,535.14,42.19Z"/><path class="cls-1" d="M593.51,62.14a1.55,1.55,0,0,1-1.76,1.75h-5a1.58,1.58,0,0,1-1.82-1.75V32.76a0.47,0.47,0,0,0-.46-0.59,0.63,0.63,0,0,0-.65.59l-7,29.38Q576.41,63.9,575,63.9h-3q-1.3,0-1.69-1.75L563.54,32.7a0.76,0.76,0,0,0-.65-0.71,0.6,0.6,0,0,0-.65.71V62.14a1.58,1.58,0,0,1-1.82,1.75h-5.33a1.5,1.5,0,0,1-1.62-1.75V13.59a1.47,1.47,0,0,1,1.62-1.69h10q1.49,0,1.95,2l5.81,24.5q0.39,1.76.84,1.76t0.77-1.75l5.32-24.77a1.71,1.71,0,0,1,1.69-1.69h10.28a1.52,1.52,0,0,1,1.76,1.69V62.14Z"/><path class="cls-1" d="M610,62a1.64,1.64,0,0,1-1.82,1.88h-5.59A1.64,1.64,0,0,1,600.79,62V13.72a1.61,1.61,0,0,1,1.82-1.82h5.59A1.61,1.61,0,0,1,610,13.72V62Z"/><path class="cls-1" d="M647.07,62a1.64,1.64,0,0,1-1.82,1.88h-1q-1.23,0-1.88-1.88l-0.33-.78a1.14,1.14,0,0,0-.65-0.91,1.86,1.86,0,0,0-1,.91A8.79,8.79,0,0,1,633,64.61h-1.17a13.68,13.68,0,0,1-10.5-4.29,14.78,14.78,0,0,1-4-10.46V25.74a14.06,14.06,0,0,1,4.26-10.27,13.9,13.9,0,0,1,10.24-4.29h0.58a13.69,13.69,0,0,1,10.17,4.29,14.18,14.18,0,0,1,4.19,10.27v2.15A1.64,1.64,0,0,1,645,29.77h-5a1.72,1.72,0,0,1-1.3-.65,1.91,1.91,0,0,1-.58-1.23V27.11A7.85,7.85,0,0,0,636.38,22a5,5,0,0,0-8.16,0,7.91,7.91,0,0,0-1.69,5.1V48.82a8.12,8.12,0,0,0,1.53,5.1,5.07,5.07,0,0,0,4.26,2q5.78,0,5.79-7.08V46.67a1.89,1.89,0,0,0-1.82-1.82h-2.67A2,2,0,0,1,631.73,43V39.46a1.85,1.85,0,0,1,.55-1.3,1.77,1.77,0,0,1,1.33-.58h11.64a1.64,1.64,0,0,1,1.27.65,2,2,0,0,1,.55,1.23V62Z"/><path class="cls-1" d="M683.53,50.64a13.52,13.52,0,0,1-4.06,9.88,13.36,13.36,0,0,1-9.85,4.09h-2a13.36,13.36,0,0,1-9.85-4.09,13.52,13.52,0,0,1-4.06-9.88V25a13.31,13.31,0,0,1,4.06-9.81,13.47,13.47,0,0,1,9.85-4h2a13.47,13.47,0,0,1,9.85,4A13.31,13.31,0,0,1,683.53,25V50.64Zm-9.23-1.37V26.72a7.62,7.62,0,0,0-1.62-4.94,4.87,4.87,0,0,0-3.9-2,5,5,0,0,0-4,2,7.46,7.46,0,0,0-1.69,4.91V49.27a7.24,7.24,0,0,0,1.69,4.81,5,5,0,0,0,4,2,4.89,4.89,0,0,0,3.9-2A7.39,7.39,0,0,0,674.3,49.27Z"/><path class="cls-1" d="M720,50.83A13.06,13.06,0,0,1,715.87,61a15.15,15.15,0,0,1-10.63,3.77q-7.67,0-11.89-5.4a24.79,24.79,0,0,1-3.9-8.45,1.5,1.5,0,0,1,1-2.08l4.81-1.62a3.07,3.07,0,0,1,.58-0.06,1.62,1.62,0,0,1,1.69,1.23q2.21,8.13,7.67,8.13A5.75,5.75,0,0,0,709.5,55,5.58,5.58,0,0,0,711,50.83q0-3.44-5.33-8.06-4.87-4.09-9.81-8.19-5.33-5.27-5.33-10.4a12.11,12.11,0,0,1,4.16-9.69,13.66,13.66,0,0,1,9.36-3.31,13.43,13.43,0,0,1,11,5.33,19.24,19.24,0,0,1,3.25,6.37,2.44,2.44,0,0,1,.07.58A1.53,1.53,0,0,1,717.27,25L713,26.39a1.14,1.14,0,0,1-.52.13,1.64,1.64,0,0,1-1.62-1.17q-2.93-6.89-6.83-6.89a4.64,4.64,0,0,0-3.61,1.75,5.88,5.88,0,0,0-1.53,4q0,2.67,5.46,7.08,8.84,7.15,10.14,8.45Q720,45.31,720,50.83Z"/><path class="cls-1" d="M770.83,49.4a14.48,14.48,0,0,1-14.5,14.5H743.4a1.74,1.74,0,0,1-1.27-.55,1.81,1.81,0,0,1-.55-1.33V13.72a1.61,1.61,0,0,1,1.82-1.82h12.93a13.93,13.93,0,0,1,10.27,4.26,14,14,0,0,1,4.22,10.24v23Zm-9-.71V27.3a6.92,6.92,0,0,0-2.2-5.13A7.24,7.24,0,0,0,754.42,20h-2a1.65,1.65,0,0,0-1.91,1.82V54a1.76,1.76,0,0,0,.59,1.33,1.88,1.88,0,0,0,1.32.55h2a7.29,7.29,0,0,0,5.23-2.11A6.81,6.81,0,0,0,761.86,48.69Z"/><path class="cls-1" d="M803.2,62a1.77,1.77,0,0,1-.58,1.33,1.85,1.85,0,0,1-1.3.55h-22A2,2,0,0,1,777.46,62V13.72a1.64,1.64,0,0,1,1.89-1.82h21.32a1.64,1.64,0,0,1,1.89,1.82v4.55A1.76,1.76,0,0,1,802,19.6a1.86,1.86,0,0,1-1.3.55H788.32A1.64,1.64,0,0,0,786.43,22v8.84a1.61,1.61,0,0,0,1.89,1.75h9.34a1.64,1.64,0,0,1,1.89,1.82v4.42a1.89,1.89,0,0,1-1.89,1.88h-9.34a1.64,1.64,0,0,0-1.89,1.82v11a1.64,1.64,0,0,0,1.89,1.82h13a2,2,0,0,1,1.89,1.89V62Z"/><path class="cls-1" d="M849.86,18.27a1.77,1.77,0,0,1-.58,1.33,1.85,1.85,0,0,1-1.3.55H835.56a1.85,1.85,0,0,0-1.3.55,1.7,1.7,0,0,0-.58,1.27v8.84a1.61,1.61,0,0,0,1.88,1.75h9.49a1.86,1.86,0,0,1,1.3.55,1.7,1.7,0,0,1,.58,1.27v4.42a1.89,1.89,0,0,1-1.88,1.88h-9.62a1.58,1.58,0,0,0-1.75,1.82V62a1.64,1.64,0,0,1-1.82,1.88h-5.26A1.89,1.89,0,0,1,824.71,62V13.72a1.7,1.7,0,0,1,.58-1.27,1.86,1.86,0,0,1,1.3-.55H848a1.64,1.64,0,0,1,1.88,1.82v4.55Z"/><path class="cls-1" d="M881.13,62a1.36,1.36,0,0,1-.29,1.3,1.59,1.59,0,0,1-1.28.58h-5.89q-1.31,0-1.7-1.87l-1.57-7.68a1.71,1.71,0,0,0-1.69-1.69h-7.93a1.75,1.75,0,0,0-1.88,1.69L857.53,62q-0.39,1.89-1.88,1.88h-5.78a1.41,1.41,0,0,1-1.17-.58,1.57,1.57,0,0,1-.33-1.3l9.55-48.3q0.39-1.82,1.82-1.82H869q1.43,0,1.82,1.82ZM868,42.19l-3.05-17q-0.26-1.36-.71-1.36t-0.65,1.36l-2.79,17q-0.33,1.89,1.43,1.88h4.23A1.59,1.59,0,0,0,868,42.19Z"/><path class="cls-1" d="M914.67,50.05a14.07,14.07,0,0,1-4.26,10.27,13.9,13.9,0,0,1-10.24,4.29h-0.58A14.65,14.65,0,0,1,885,50.05V25.68a13.93,13.93,0,0,1,4.28-10.24,14.13,14.13,0,0,1,10.35-4.26h0.59a13.84,13.84,0,0,1,10.22,4.26,14,14,0,0,1,4.21,10.24v2.21a1.68,1.68,0,0,1-.55,1.2,1.74,1.74,0,0,1-1.27.55h-5.46a1.85,1.85,0,0,1-1.3-.55,1.63,1.63,0,0,1-.58-1.2V27.11A8.41,8.41,0,0,0,904,22a4.62,4.62,0,0,0-3.85-2.11A5.11,5.11,0,0,0,896,22a7.86,7.86,0,0,0-1.71,5.1v22A8,8,0,0,0,896,54.24a5,5,0,0,0,4,2.11,4.94,4.94,0,0,0,4-2.11,8.11,8.11,0,0,0,1.66-5.17V47.39a1.55,1.55,0,0,1,1.69-1.82h5.46a1.61,1.61,0,0,1,1.82,1.82v2.66Z"/><path class="cls-1" d="M947,62a1.77,1.77,0,0,1-.58,1.33,1.85,1.85,0,0,1-1.3.55h-22A2,2,0,0,1,921.3,62V13.72a1.64,1.64,0,0,1,1.89-1.82H944.5a1.64,1.64,0,0,1,1.89,1.82v4.55a1.76,1.76,0,0,1-.59,1.33,1.86,1.86,0,0,1-1.3.55H932.16A1.64,1.64,0,0,0,930.27,22v8.84a1.61,1.61,0,0,0,1.89,1.75h9.34a1.64,1.64,0,0,1,1.89,1.82v4.42a1.89,1.89,0,0,1-1.89,1.88h-9.34a1.64,1.64,0,0,0-1.89,1.82v11a1.64,1.64,0,0,0,1.89,1.82h13A2,2,0,0,1,947,57.2V62Z"/><path class="cls-1" d="M983.11,48.75a14.23,14.23,0,0,1-4.68,10.69,15.73,15.73,0,0,1-11.24,4.45H954.77A1.89,1.89,0,0,1,952.89,62V13.72a1.64,1.64,0,0,1,1.89-1.82H966q7.34,0,11.51,3.83a12.08,12.08,0,0,1,4,9.42,11.92,11.92,0,0,1-4.68,9.95,1.26,1.26,0,0,0-.58,1,1.1,1.1,0,0,0,.58.91A13.6,13.6,0,0,1,983.11,48.75Zm-11-22.49A5.88,5.88,0,0,0,970.52,22a5.29,5.29,0,0,0-4-1.69h-2.76a1.62,1.62,0,0,0-1.91,1.75V31a1.79,1.79,0,0,0,.59,1.3,1.84,1.84,0,0,0,1.32.58h2.76a5,5,0,0,0,3.95-2A7.09,7.09,0,0,0,972.13,26.26Zm1,22.1A7.88,7.88,0,0,0,970.93,43a6.25,6.25,0,0,0-4.65-2.44h-2.54a1.64,1.64,0,0,0-1.88,1.82V53.82a1.64,1.64,0,0,0,1.88,1.82h3.58a5.08,5.08,0,0,0,4.09-2.11A8,8,0,0,0,973.1,48.36Z"/><path class="cls-1" d="M1019.58,50.64a13.52,13.52,0,0,1-4.06,9.88,13.36,13.36,0,0,1-9.85,4.09h-2a13.36,13.36,0,0,1-9.85-4.09,13.52,13.52,0,0,1-4.06-9.88V25a13.31,13.31,0,0,1,4.06-9.81,13.47,13.47,0,0,1,9.85-4h2a13.47,13.47,0,0,1,9.85,4,13.31,13.31,0,0,1,4.06,9.81V50.64Zm-9.23-1.37V26.72a7.62,7.62,0,0,0-1.62-4.94,4.87,4.87,0,0,0-3.9-2,5,5,0,0,0-4,2,7.46,7.46,0,0,0-1.69,4.91V49.27a7.24,7.24,0,0,0,1.69,4.81,5,5,0,0,0,4,2,4.89,4.89,0,0,0,3.9-2A7.39,7.39,0,0,0,1010.35,49.27Z"/><path class="cls-1" d="M1056,50.64a13.52,13.52,0,0,1-4.06,9.88,13.36,13.36,0,0,1-9.85,4.09h-2a13.36,13.36,0,0,1-9.85-4.09,13.52,13.52,0,0,1-4.06-9.88V25a13.31,13.31,0,0,1,4.06-9.81,13.47,13.47,0,0,1,9.85-4h2a13.47,13.47,0,0,1,9.85,4A13.31,13.31,0,0,1,1056,25V50.64Zm-9.23-1.37V26.72a7.62,7.62,0,0,0-1.62-4.94,4.87,4.87,0,0,0-3.9-2,5,5,0,0,0-4,2,7.46,7.46,0,0,0-1.69,4.91V49.27a7.24,7.24,0,0,0,1.69,4.81,5,5,0,0,0,4,2,4.89,4.89,0,0,0,3.9-2A7.39,7.39,0,0,0,1046.81,49.27Z"/><path class="cls-1" d="M1094,62.14a2.16,2.16,0,0,1,.07.52,1.12,1.12,0,0,1-1.3,1.23h-6.62q-1,0-1.75-1.76l-7.91-20.42a0.81,0.81,0,0,0-.65-0.64,0.93,0.93,0,0,0-.72.65l-3,5.07a2.37,2.37,0,0,0-.33,1.17V62.14a1.52,1.52,0,0,1-1.69,1.75h-5.79a1.5,1.5,0,0,1-1.62-1.75V13.59a1.47,1.47,0,0,1,1.63-1.69h5.79a1.49,1.49,0,0,1,1.69,1.69V29.32q0,1,.52,1a1.43,1.43,0,0,0,1-.91l9-15.73q1-1.75,1.82-1.75h6.5a1.19,1.19,0,0,1,1.43,1.24,0.93,0.93,0,0,1-.18.52l-10,17.08a1.28,1.28,0,0,0-.05,1Z"/><path class="cls-1" d="M381,132a1.36,1.36,0,0,1-.3,1.3,1.59,1.59,0,0,1-1.28.58h-5.9q-1.31,0-1.7-1.87l-1.57-7.68a1.71,1.71,0,0,0-1.69-1.69h-7.93a1.75,1.75,0,0,0-1.88,1.69L357.4,132q-0.39,1.89-1.88,1.88h-5.78a1.41,1.41,0,0,1-1.17-.58,1.57,1.57,0,0,1-.33-1.3l9.56-48.3q0.39-1.82,1.82-1.82h9.29q1.43,0,1.82,1.82Zm-13.13-19.83-3.05-17q-0.26-1.36-.72-1.36t-0.65,1.36l-2.79,17q-0.33,1.89,1.43,1.88h4.22A1.59,1.59,0,0,0,367.86,112.19Z"/><path class="cls-1" d="M431,98.73a13.5,13.5,0,0,1-4,9.85,13.26,13.26,0,0,1-9.81,4.06h-4.56a1.55,1.55,0,0,0-1.76,1.75v17.75A1.57,1.57,0,0,1,409,133.9h-5.55a1.49,1.49,0,0,1-1.61-1.75V83.59a1.47,1.47,0,0,1,1.63-1.69H417.2A13.2,13.2,0,0,1,427,86a13.52,13.52,0,0,1,4,9.85v2.92Zm-9.16.85V95.16a4.81,4.81,0,0,0-1.59-3.64,5.4,5.4,0,0,0-3.84-1.5h-3.64a2.09,2.09,0,0,0-1.29.49,1.47,1.47,0,0,0-.63,1.2v11.44a1.47,1.47,0,0,0,.63,1.2,2.08,2.08,0,0,0,1.29.49h3.64a5.37,5.37,0,0,0,3.8-1.53A4.94,4.94,0,0,0,421.81,99.58Z"/><path class="cls-1" d="M466.34,132.14a1,1,0,0,1,.13.46,1.21,1.21,0,0,1-1.43,1.3H459.4q-1.1,0-1.75-1.76L451,113.22a1.53,1.53,0,0,0-1.3-1.3h-2.86a1.5,1.5,0,0,0-1.63,1.76v18.46a1.72,1.72,0,0,1-.52,1.2,1.64,1.64,0,0,1-1.23.55h-5.33a1.5,1.5,0,0,1-1.62-1.75V83.59a1.47,1.47,0,0,1,1.63-1.69h13.32a14.06,14.06,0,0,1,9.88,3.71,13.06,13.06,0,0,1,4.09,9.88V98a13,13,0,0,1-6.56,11.76q-0.33.2-.06,0.91Zm-9.36-33V95a4.9,4.9,0,0,0-1.53-3.64,5.14,5.14,0,0,0-3.74-1.5h-5q-1.5,0-1.5,1.75v10.92a1.47,1.47,0,0,0,1.63,1.69h4.88a5.2,5.2,0,0,0,3.74-1.46A4.8,4.8,0,0,0,457,99.19Z"/><path class="cls-1" d="M501.83,120.64a13.52,13.52,0,0,1-4.06,9.88,13.36,13.36,0,0,1-9.85,4.09h-2a13.35,13.35,0,0,1-9.85-4.09,13.51,13.51,0,0,1-4.06-9.88V95a13.3,13.3,0,0,1,4.06-9.81,13.47,13.47,0,0,1,9.85-4h2a13.47,13.47,0,0,1,9.85,4A13.31,13.31,0,0,1,501.83,95v25.61Zm-9.23-1.37V96.72A7.62,7.62,0,0,0,491,91.78a4.87,4.87,0,0,0-3.9-2,5,5,0,0,0-4,2,7.46,7.46,0,0,0-1.69,4.91v22.56a7.24,7.24,0,0,0,1.69,4.81,5,5,0,0,0,4,2,4.89,4.89,0,0,0,3.9-2A7.39,7.39,0,0,0,492.6,119.27Z"/><path class="cls-1" d="M538.68,118.75A14.23,14.23,0,0,1,534,129.44a15.73,15.73,0,0,1-11.25,4.45H510.34a1.89,1.89,0,0,1-1.88-1.88V83.72a1.64,1.64,0,0,1,1.88-1.82h11.25q7.34,0,11.5,3.83a12.08,12.08,0,0,1,4,9.42,11.92,11.92,0,0,1-4.68,9.95,1.26,1.26,0,0,0-.58,1,1.1,1.1,0,0,0,.58.91A13.6,13.6,0,0,1,538.68,118.75Zm-11-22.49A5.88,5.88,0,0,0,526.09,92a5.29,5.29,0,0,0-4-1.69h-2.76a1.62,1.62,0,0,0-1.91,1.75V101a1.79,1.79,0,0,0,.59,1.3,1.84,1.84,0,0,0,1.32.58h2.76a5,5,0,0,0,4-2A7.09,7.09,0,0,0,527.7,96.26Zm1,22.1A7.88,7.88,0,0,0,526.5,113a6.25,6.25,0,0,0-4.65-2.44h-2.53a1.64,1.64,0,0,0-1.89,1.82v11.44a1.64,1.64,0,0,0,1.89,1.82h3.57a5.09,5.09,0,0,0,4.1-2.11A8,8,0,0,0,528.67,118.36Z"/><path class="cls-1" d="M574.69,132a1.36,1.36,0,0,1-.3,1.3,1.59,1.59,0,0,1-1.28.58h-5.9q-1.31,0-1.7-1.87L564,124.34a1.71,1.71,0,0,0-1.69-1.69h-7.93a1.75,1.75,0,0,0-1.88,1.69L551.09,132q-0.39,1.89-1.88,1.88h-5.78a1.41,1.41,0,0,1-1.17-.58,1.57,1.57,0,0,1-.33-1.3l9.56-48.3q0.39-1.82,1.82-1.82h9.29q1.43,0,1.82,1.82Zm-13.13-19.83-3.05-17q-0.26-1.36-.72-1.36t-0.65,1.36l-2.79,17q-0.33,1.89,1.43,1.88H560A1.59,1.59,0,0,0,561.56,112.19Z"/><path class="cls-1" d="M609.73,132.14a1,1,0,0,1,.13.46,1.21,1.21,0,0,1-1.43,1.3h-5.64q-1.1,0-1.75-1.76l-6.65-18.91a1.53,1.53,0,0,0-1.3-1.3h-2.86a1.5,1.5,0,0,0-1.63,1.76v18.46a1.72,1.72,0,0,1-.52,1.2,1.64,1.64,0,0,1-1.23.55h-5.33a1.5,1.5,0,0,1-1.62-1.75V83.59a1.47,1.47,0,0,1,1.63-1.69h13.32a14.06,14.06,0,0,1,9.88,3.71,13.06,13.06,0,0,1,4.09,9.88V98a13,13,0,0,1-6.56,11.76q-0.33.2-.06,0.91Zm-9.36-33V95a4.9,4.9,0,0,0-1.53-3.64,5.14,5.14,0,0,0-3.74-1.5h-5q-1.5,0-1.5,1.75v10.92a1.47,1.47,0,0,0,1.63,1.69h4.88a5.2,5.2,0,0,0,3.74-1.46A4.8,4.8,0,0,0,600.37,99.19Z"/><path class="cls-1" d="M660.88,120.83A13.06,13.06,0,0,1,656.75,131a15.15,15.15,0,0,1-10.63,3.77q-7.67,0-11.89-5.4a24.79,24.79,0,0,1-3.9-8.45,1.5,1.5,0,0,1,1-2.08l4.81-1.62a3.07,3.07,0,0,1,.58-0.06,1.62,1.62,0,0,1,1.69,1.23q2.21,8.13,7.67,8.13a5.75,5.75,0,0,0,4.26-1.53,5.58,5.58,0,0,0,1.53-4.13q0-3.44-5.33-8.06-4.87-4.09-9.81-8.19-5.33-5.27-5.33-10.4a12.11,12.11,0,0,1,4.16-9.69A13.66,13.66,0,0,1,645,81.18a13.43,13.43,0,0,1,11,5.33,19.24,19.24,0,0,1,3.25,6.37,2.44,2.44,0,0,1,.07.58A1.53,1.53,0,0,1,658.15,95l-4.23,1.37a1.14,1.14,0,0,1-.52.13,1.64,1.64,0,0,1-1.62-1.17q-2.93-6.89-6.83-6.89a4.64,4.64,0,0,0-3.61,1.75,5.88,5.88,0,0,0-1.53,4q0,2.67,5.46,7.08,8.84,7.15,10.14,8.45Q660.88,115.31,660.88,120.83Z"/><path class="cls-1" d="M694.94,88a1.58,1.58,0,0,1-1.82,1.76h-8a1.72,1.72,0,0,0-1.2.52,1.58,1.58,0,0,0-.55,1.17v40.69a1.5,1.5,0,0,1-1.62,1.75h-5.33a1.55,1.55,0,0,1-1.75-1.75V91.45A1.47,1.47,0,0,0,673,89.76h-8A1.55,1.55,0,0,1,663.29,88V83.59A1.52,1.52,0,0,1,665,81.9h28.08a1.55,1.55,0,0,1,1.82,1.69V88Z"/><path class="cls-1" d="M726.79,132a1.36,1.36,0,0,1-.29,1.3,1.59,1.59,0,0,1-1.28.58h-5.89q-1.31,0-1.7-1.87l-1.57-7.68a1.71,1.71,0,0,0-1.69-1.69h-7.93a1.75,1.75,0,0,0-1.88,1.69L703.19,132q-0.39,1.89-1.88,1.88h-5.78a1.41,1.41,0,0,1-1.17-.58A1.57,1.57,0,0,1,694,132l9.55-48.3q0.39-1.82,1.82-1.82h9.29q1.43,0,1.82,1.82Zm-13.13-19.83-3.05-17q-0.26-1.36-.71-1.36t-0.65,1.36l-2.79,17q-0.33,1.89,1.43,1.88h4.23A1.59,1.59,0,0,0,713.66,112.19Z"/><path class="cls-1" d="M758.64,83.59l-11.18,28.86a4.1,4.1,0,0,0-.39,1.56v18.14a1.52,1.52,0,0,1-1.69,1.75h-5.66a1.55,1.55,0,0,1-1.75-1.75V114a4.09,4.09,0,0,0-.39-1.56L725.43,83.59a0.79,0.79,0,0,1-.13-0.46q0-1.23,1.57-1.23h6.32q1.11,0,1.76,1.68l6.83,17.55a0.92,0.92,0,1,0,1.82,0l5.64-17.55q0.52-1.69,1.69-1.69h6.36a1.18,1.18,0,0,1,1.43,1.23A1.48,1.48,0,0,1,758.64,83.59Z"/><path class="cls-1" d="M789,88.27a1.77,1.77,0,0,1-.58,1.33,1.85,1.85,0,0,1-1.3.55H774.7a1.85,1.85,0,0,0-1.3.55,1.7,1.7,0,0,0-.58,1.27v8.84a1.61,1.61,0,0,0,1.88,1.75h9.49a1.86,1.86,0,0,1,1.3.55,1.7,1.7,0,0,1,.58,1.27v4.42a1.89,1.89,0,0,1-1.88,1.88h-9.62a1.58,1.58,0,0,0-1.75,1.82V132A1.64,1.64,0,0,1,771,133.9h-5.26a1.89,1.89,0,0,1-1.89-1.88V83.72a1.7,1.7,0,0,1,.58-1.27,1.86,1.86,0,0,1,1.3-.55h21.38A1.64,1.64,0,0,1,789,83.72v4.55Z"/><path class="cls-1" d="M804.08,132a1.64,1.64,0,0,1-1.82,1.88h-5.59a1.64,1.64,0,0,1-1.82-1.88V83.72a1.61,1.61,0,0,1,1.82-1.82h5.59a1.61,1.61,0,0,1,1.82,1.82V132Z"/><path class="cls-1" d="M836.58,132.14a1.52,1.52,0,0,1-1.69,1.75H813a1.5,1.5,0,0,1-1.62-1.75V83.59A1.47,1.47,0,0,1,813,81.9h5.79a1.52,1.52,0,0,1,1.75,1.69v40.23a1.52,1.52,0,0,0,1.75,1.69h12.55q1.69,0,1.69,1.88v4.75Z"/><path class="cls-1" d="M881,132.14a1.55,1.55,0,0,1-1.75,1.75h-5a1.58,1.58,0,0,1-1.82-1.75V102.76a0.47,0.47,0,0,0-.46-0.59,0.63,0.63,0,0,0-.65.59l-7,29.38q-0.39,1.75-1.75,1.75h-3q-1.3,0-1.69-1.75l-6.83-29.45a0.76,0.76,0,0,0-.65-0.71,0.6,0.6,0,0,0-.65.71v29.45A1.58,1.58,0,0,1,848,133.9h-5.33a1.5,1.5,0,0,1-1.62-1.75V83.59a1.47,1.47,0,0,1,1.62-1.69h10q1.49,0,1.95,2l5.81,24.5q0.39,1.76.84,1.76t0.77-1.75l5.32-24.77A1.71,1.71,0,0,1,869,81.9h10.28A1.52,1.52,0,0,1,881,83.59v48.56Z"/><path class="cls-1" d="M896.89,132A2,2,0,0,1,895,133.9h-5.52a1.77,1.77,0,0,1-1.33-.58,1.85,1.85,0,0,1-.55-1.3V125.9q0-1.69,1.89-1.69H895q1.89,0,1.88,1.69V132Z"/></svg>