<svg id="Portugues" xmlns="http://www.w3.org/2000/svg" viewBox="0 0 480 150"><defs><style>.cls-1{fill:#fff;}</style></defs><title>title_horizontal_portugues</title><path class="cls-1" d="M74,37.88a8.65,8.65,0,0,1-2.62,6.32,8.56,8.56,0,0,1-6.3,2.64H64.75a9,9,0,0,1-9-9v-15a8.57,8.57,0,0,1,2.63-6.3A8.69,8.69,0,0,1,64.79,14h0.36a8.52,8.52,0,0,1,6.29,2.62A8.64,8.64,0,0,1,74,22.88v1.36a1,1,0,0,1-.34.74,1.07,1.07,0,0,1-.78.34H69.55a1.14,1.14,0,0,1-.8-0.34,1,1,0,0,1-.36-0.74V23.76a5.17,5.17,0,0,0-1-3.14,2.84,2.84,0,0,0-2.37-1.3,3.14,3.14,0,0,0-2.51,1.3,4.83,4.83,0,0,0-1.05,3.14V37.28a4.92,4.92,0,0,0,1,3.18A3.09,3.09,0,0,0,65,41.76a3,3,0,0,0,2.46-1.3,5,5,0,0,0,1-3.18v-1a1,1,0,0,1,1-1.12h3.36A1,1,0,0,1,74,36.24v1.64Z"/><path class="cls-1" d="M96.47,38.24A8.32,8.32,0,0,1,94,44.32a8.22,8.22,0,0,1-6.06,2.52H86.67a8.22,8.22,0,0,1-6.06-2.52,8.32,8.32,0,0,1-2.5-6.08V22.48a8.19,8.19,0,0,1,2.5-6A8.28,8.28,0,0,1,86.67,14h1.24A8.29,8.29,0,0,1,94,16.44a8.19,8.19,0,0,1,2.5,6V38.24Zm-5.68-.84V23.52a4.69,4.69,0,0,0-1-3,3,3,0,0,0-2.4-1.24A3.09,3.09,0,0,0,85,20.5a4.59,4.59,0,0,0-1,3V37.4a4.46,4.46,0,0,0,1,3,3.11,3.11,0,0,0,2.44,1.24,3,3,0,0,0,2.4-1.22A4.54,4.54,0,0,0,90.79,37.4Z"/><path class="cls-1" d="M119.55,45.32a1,1,0,0,1-1.08,1.08h-3.13a1.34,1.34,0,0,1-1.16-1l-7.62-17a0.39,0.39,0,0,0-.33-0.31c-0.19,0-.29.15-0.29,0.44v16.8a1,1,0,0,1-1.12,1.08h-3.28a0.92,0.92,0,0,1-1-1.08V15.48a0.92,0.92,0,0,1,1-1.08h3.28a1.51,1.51,0,0,1,1.36,1.12L113.55,32a0.46,0.46,0,0,0,.4.28c0.16,0,.24-0.15.24-0.44V15.52a1,1,0,0,1,.36-0.78,1.14,1.14,0,0,1,.8-0.34h3.12a1,1,0,0,1,1.08,1.12v29.8Z"/><path class="cls-1" d="M142,15.64l-6.08,29.68a1.15,1.15,0,0,1-1.16,1.08H130a1.07,1.07,0,0,1-1-1.08l-6.24-29.68q-0.24-1.24.84-1.24h3.31a1,1,0,0,1,1.08.84l4.19,21.08a0.32,0.32,0,0,0,.28.36,0.33,0.33,0,0,0,.32-0.36l4.11-21.08A1,1,0,0,1,138,14.4h3.27a0.72,0.72,0,0,1,.84.8A1.42,1.42,0,0,1,142,15.64Z"/><path class="cls-1" d="M151.35,45.24a1,1,0,0,1-1.12,1.16h-3.44a1,1,0,0,1-1.12-1.16V15.52a1,1,0,0,1,1.12-1.12h3.44a1,1,0,0,1,1.12,1.12V45.24Z"/><path class="cls-1" d="M173.87,37.48A8.91,8.91,0,0,1,165,46.4h-8a1.07,1.07,0,0,1-.78-0.34,1.11,1.11,0,0,1-.34-0.82V15.52A1,1,0,0,1,157,14.4h8a8.91,8.91,0,0,1,8.92,8.92V37.48ZM168.35,37V23.88A4.26,4.26,0,0,0,167,20.72a4.46,4.46,0,0,0-3.22-1.32h-1.21a1,1,0,0,0-1.17,1.12v19.8a1.08,1.08,0,0,0,.36.82,1.16,1.16,0,0,0,.81.34h1.21a4.49,4.49,0,0,0,3.22-1.3A4.19,4.19,0,0,0,168.35,37Z"/><path class="cls-1" d="M193.79,45.24a1.09,1.09,0,0,1-.36.82,1.14,1.14,0,0,1-.8.34H179.11A1.24,1.24,0,0,1,178,45.24V15.52a1,1,0,0,1,1.16-1.12h13.12a1,1,0,0,1,1.16,1.12v2.8a1.08,1.08,0,0,1-.36.82,1.15,1.15,0,0,1-.8.34h-7.59a1,1,0,0,0-1.17,1.12V26a1,1,0,0,0,1.17,1.08h5.75a1,1,0,0,1,1.17,1.12V31a1.16,1.16,0,0,1-1.17,1.16h-5.75a1,1,0,0,0-1.17,1.12V40a1,1,0,0,0,1.16,1.12h8a1.24,1.24,0,0,1,1.17,1.16v3Z"/><path class="cls-1" d="M225.39,38.36a8,8,0,0,1-2.54,6.24,9.32,9.32,0,0,1-6.54,2.32A8.76,8.76,0,0,1,209,43.6a15.25,15.25,0,0,1-2.4-5.2,0.92,0.92,0,0,1,.64-1.28l3-1a1.89,1.89,0,0,1,.36,0,1,1,0,0,1,1,.76q1.36,5,4.72,5a3.54,3.54,0,0,0,2.62-.94,3.43,3.43,0,0,0,.94-2.54q0-2.12-3.28-5-3-2.52-6-5-3.28-3.24-3.28-6.4a7.45,7.45,0,0,1,2.56-6,8.41,8.41,0,0,1,5.76-2,8.27,8.27,0,0,1,6.8,3.28,11.85,11.85,0,0,1,2,3.92,1.51,1.51,0,0,1,0,.36,0.94,0.94,0,0,1-.72,1l-2.6.84a0.7,0.7,0,0,1-.32.08,1,1,0,0,1-1-.72q-1.8-4.24-4.2-4.24a2.86,2.86,0,0,0-2.22,1.08,3.62,3.62,0,0,0-.94,2.44q0,1.64,3.36,4.36,5.44,4.4,6.24,5.2Q225.39,35,225.39,38.36Z"/><path class="cls-1" d="M244.87,45.24a1.09,1.09,0,0,1-.36.82,1.14,1.14,0,0,1-.8.34H230.19A1.24,1.24,0,0,1,229,45.24V15.52a1,1,0,0,1,1.16-1.12h13.12a1,1,0,0,1,1.16,1.12v2.8a1.08,1.08,0,0,1-.36.82,1.15,1.15,0,0,1-.8.34h-7.59a1,1,0,0,0-1.17,1.12V26a1,1,0,0,0,1.17,1.08h5.75a1,1,0,0,1,1.17,1.12V31a1.16,1.16,0,0,1-1.17,1.16h-5.75a1,1,0,0,0-1.17,1.12V40a1,1,0,0,0,1.16,1.12h8a1.24,1.24,0,0,1,1.16,1.16v3Z"/><path class="cls-1" d="M266.95,38.24a8.18,8.18,0,0,1-2.6,6.06,8.52,8.52,0,0,1-6.16,2.54h-1a8.45,8.45,0,0,1-6.14-2.54,8.21,8.21,0,0,1-2.58-6.06V15.44a0.9,0.9,0,0,1,1-1h3.47a0.92,0.92,0,0,1,1,1V37.6a4.48,4.48,0,0,0,1.11,3,3.34,3.34,0,0,0,2.59,1.28,3.25,3.25,0,0,0,2.53-1.28,4.53,4.53,0,0,0,1.09-3V15.44a0.94,0.94,0,0,1,1.08-1h3.44a1.11,1.11,0,0,1,.78.32,1,1,0,0,1,.34.72v22.8Z"/><path class="cls-1" d="M289.35,38.36a8,8,0,0,1-2.54,6.24,9.32,9.32,0,0,1-6.54,2.32,8.76,8.76,0,0,1-7.32-3.32,15.27,15.27,0,0,1-2.4-5.2,0.92,0.92,0,0,1,.64-1.28l3-1a1.87,1.87,0,0,1,.36,0,1,1,0,0,1,1,.76q1.36,5,4.72,5a3.54,3.54,0,0,0,2.62-.94,3.43,3.43,0,0,0,.94-2.54q0-2.12-3.28-5-3-2.52-6-5-3.28-3.24-3.28-6.4a7.45,7.45,0,0,1,2.56-6,8.41,8.41,0,0,1,5.76-2,8.27,8.27,0,0,1,6.8,3.28,11.83,11.83,0,0,1,2,3.92,1.51,1.51,0,0,1,0,.36,0.94,0.94,0,0,1-.72,1l-2.6.84a0.71,0.71,0,0,1-.32.08,1,1,0,0,1-1-.72q-1.8-4.24-4.2-4.24a2.86,2.86,0,0,0-2.22,1.08,3.62,3.62,0,0,0-.94,2.44q0,1.64,3.36,4.36,5.44,4.4,6.24,5.2Q289.35,35,289.35,38.36Z"/><path class="cls-1" d="M321.91,45.24a0.84,0.84,0,0,1-.18.8,1,1,0,0,1-.79.36h-3.63a1.15,1.15,0,0,1-1-1.15l-1-4.73a1.05,1.05,0,0,0-1-1h-4.88a1.08,1.08,0,0,0-1.16,1l-0.84,4.72a1.19,1.19,0,0,1-1.16,1.16h-3.56a0.87,0.87,0,0,1-.72-0.36,1,1,0,0,1-.2-0.8l5.88-29.72a1.16,1.16,0,0,1,1.12-1.12h5.72a1.16,1.16,0,0,1,1.12,1.12ZM313.83,33l-1.88-10.48a0.87,0.87,0,0,0-.44-0.84q-0.28,0-.4.84L309.39,33a0.83,0.83,0,0,0,.88,1.16h2.6A1,1,0,0,0,313.83,33Z"/><path class="cls-1" d="M349.75,45.32a1,1,0,0,1-1.08,1.08h-3.08a1,1,0,0,1-1.12-1.08V27.24a0.29,0.29,0,0,0-.28-0.36,0.39,0.39,0,0,0-.4.36l-4.32,18.08a1.12,1.12,0,0,1-1.08,1.08h-1.84a1.11,1.11,0,0,1-1-1.08l-4.2-18.12a0.47,0.47,0,0,0-.4-0.44,0.37,0.37,0,0,0-.4.44V45.32a1,1,0,0,1-1.12,1.08h-3.28a0.92,0.92,0,0,1-1-1.08V15.44a0.9,0.9,0,0,1,1-1h6.16a1.26,1.26,0,0,1,1.2,1.2L337,30.67q0.24,1.08.51,1.08a1.4,1.4,0,0,0,.48-1.08l3.27-15.24a1.05,1.05,0,0,1,1-1h6.33a0.94,0.94,0,0,1,1.08,1V45.32Z"/><path class="cls-1" d="M359.91,45.24a1,1,0,0,1-1.12,1.16h-3.44a1,1,0,0,1-1.12-1.16V15.52a1,1,0,0,1,1.12-1.12h3.44a1,1,0,0,1,1.12,1.12V45.24Z"/><path class="cls-1" d="M382.71,45.24a1,1,0,0,1-1.12,1.16H381a1.36,1.36,0,0,1-1.16-1.16l-0.2-.48a0.7,0.7,0,0,0-.4-0.56,1.14,1.14,0,0,0-.6.56,5.41,5.41,0,0,1-4.56,2.08h-0.72a8.42,8.42,0,0,1-6.46-2.64,9.1,9.1,0,0,1-2.46-6.44V22.92A8.65,8.65,0,0,1,367,16.6a8.55,8.55,0,0,1,6.3-2.64h0.36A8.43,8.43,0,0,1,380,16.6a8.72,8.72,0,0,1,2.58,6.32v1.32a1,1,0,0,1-1.12,1.16h-3.08a1.06,1.06,0,0,1-.8-0.4,1.17,1.17,0,0,1-.36-0.76V23.76a4.83,4.83,0,0,0-1.06-3.12,3.06,3.06,0,0,0-5,0,4.87,4.87,0,0,0-1,3.14V37.12a5,5,0,0,0,.94,3.14,3.12,3.12,0,0,0,2.62,1.22q3.56,0,3.56-4.36V35.8a1.16,1.16,0,0,0-1.12-1.12h-1.64a1.24,1.24,0,0,1-1.16-1.16V31.36a1.14,1.14,0,0,1,.34-0.8,1.09,1.09,0,0,1,.82-0.36h7.16a1,1,0,0,1,.78.4,1.2,1.2,0,0,1,.34.76V45.24Z"/><path class="cls-1" d="M404.35,38.24a8.32,8.32,0,0,1-2.5,6.08,8.22,8.22,0,0,1-6.06,2.52h-1.24a8.22,8.22,0,0,1-6.06-2.52,8.32,8.32,0,0,1-2.5-6.08V22.48a8.19,8.19,0,0,1,2.5-6A8.28,8.28,0,0,1,394.55,14h1.24a8.28,8.28,0,0,1,6.06,2.48,8.19,8.19,0,0,1,2.5,6V38.24Zm-5.68-.84V23.52a4.69,4.69,0,0,0-1-3,3,3,0,0,0-2.4-1.24,3.09,3.09,0,0,0-2.44,1.26,4.59,4.59,0,0,0-1,3V37.4a4.46,4.46,0,0,0,1,3,3.1,3.1,0,0,0,2.44,1.24,3,3,0,0,0,2.4-1.22A4.55,4.55,0,0,0,398.67,37.4Z"/><path class="cls-1" d="M426,38.36a8,8,0,0,1-2.54,6.24,9.32,9.32,0,0,1-6.54,2.32,8.76,8.76,0,0,1-7.32-3.32,15.27,15.27,0,0,1-2.4-5.2,0.92,0.92,0,0,1,.64-1.28l3-1a1.87,1.87,0,0,1,.36,0,1,1,0,0,1,1,.76q1.36,5,4.72,5a3.54,3.54,0,0,0,2.62-.94,3.43,3.43,0,0,0,.94-2.54q0-2.12-3.28-5-3-2.52-6-5-3.28-3.24-3.28-6.4a7.45,7.45,0,0,1,2.56-6,8.41,8.41,0,0,1,5.76-2,8.27,8.27,0,0,1,6.8,3.28,11.83,11.83,0,0,1,2,3.92,1.51,1.51,0,0,1,0,.36,0.94,0.94,0,0,1-.72,1l-2.6.84a0.71,0.71,0,0,1-.32.08,1,1,0,0,1-1-.72q-1.8-4.24-4.2-4.24A2.86,2.86,0,0,0,414,19.52,3.62,3.62,0,0,0,413,22q0,1.64,3.36,4.36,5.44,4.4,6.24,5.2Q426,35,426,38.36Z"/><path class="cls-1" d="M47.39,79.94a8.91,8.91,0,0,1-8.92,8.92h-8a1.07,1.07,0,0,1-.78-0.34,1.11,1.11,0,0,1-.34-0.82V58a1,1,0,0,1,1.12-1.12h8a8.91,8.91,0,0,1,8.92,8.92V79.94Zm-5.52-.44V66.34a4.26,4.26,0,0,0-1.36-3.16,4.46,4.46,0,0,0-3.22-1.32H36.09A1,1,0,0,0,34.91,63v19.8a1.08,1.08,0,0,0,.36.82,1.16,1.16,0,0,0,.81.34H37.3a4.49,4.49,0,0,0,3.22-1.3A4.19,4.19,0,0,0,41.87,79.5Z"/><path class="cls-1" d="M69.83,80.7a8.32,8.32,0,0,1-2.5,6.08,8.22,8.22,0,0,1-6.06,2.52H60A8.22,8.22,0,0,1,54,86.78a8.32,8.32,0,0,1-2.5-6.08V64.94a8.19,8.19,0,0,1,2.5-6A8.28,8.28,0,0,1,60,56.42h1.24a8.29,8.29,0,0,1,6.06,2.48,8.19,8.19,0,0,1,2.5,6V80.7Zm-5.68-.84V66a4.69,4.69,0,0,0-1-3,3,3,0,0,0-2.4-1.24A3.09,3.09,0,0,0,58.31,63a4.59,4.59,0,0,0-1,3V79.86a4.45,4.45,0,0,0,1,3,3.1,3.1,0,0,0,2.44,1.24,3,3,0,0,0,2.4-1.22A4.55,4.55,0,0,0,64.15,79.86Z"/><path class="cls-1" d="M99,60.78a1.09,1.09,0,0,1-.36.82,1.14,1.14,0,0,1-.8.34H90.23a1.14,1.14,0,0,0-.8.34,1,1,0,0,0-.36.78V68.5a1,1,0,0,0,1.16,1.08h5.84a1.14,1.14,0,0,1,.8.34,1,1,0,0,1,.36.78v2.72a1.16,1.16,0,0,1-1.16,1.16H90.15a1,1,0,0,0-1.08,1.12v12A1,1,0,0,1,88,88.86H84.71a1.16,1.16,0,0,1-1.16-1.16V58a1,1,0,0,1,.36-0.78,1.14,1.14,0,0,1,.8-0.34H97.87A1,1,0,0,1,99,58v2.8Z"/><path class="cls-1" d="M118.27,87.7a0.84,0.84,0,0,1-.18.8,1,1,0,0,1-.78.36h-3.63a1.15,1.15,0,0,1-1-1.15l-1-4.73a1.05,1.05,0,0,0-1-1h-4.88a1.08,1.08,0,0,0-1.16,1l-0.84,4.72a1.19,1.19,0,0,1-1.16,1.16H99a0.87,0.87,0,0,1-.72-0.36,1,1,0,0,1-.2-0.8L104,58a1.16,1.16,0,0,1,1.12-1.12h5.72A1.16,1.16,0,0,1,112,58Zm-8.08-12.2L108.31,65a0.87,0.87,0,0,0-.44-0.84q-0.28,0-.4.84L105.75,75.5a0.83,0.83,0,0,0,.88,1.16h2.6A1,1,0,0,0,110.19,75.5Z"/><path class="cls-1" d="M138.91,80.34a8.65,8.65,0,0,1-2.62,6.32A8.56,8.56,0,0,1,130,89.3h-0.36a9,9,0,0,1-9-9v-15A8.57,8.57,0,0,1,123.3,59a8.69,8.69,0,0,1,6.37-2.62H130A8.52,8.52,0,0,1,136.32,59a8.64,8.64,0,0,1,2.59,6.3V66.7a1,1,0,0,1-.34.74,1.07,1.07,0,0,1-.78.34h-3.36a1.14,1.14,0,0,1-.8-0.34,1,1,0,0,1-.36-0.74V66.22a5.17,5.17,0,0,0-1-3.14,2.84,2.84,0,0,0-2.37-1.3,3.14,3.14,0,0,0-2.51,1.3,4.83,4.83,0,0,0-1.05,3.14V79.74a4.92,4.92,0,0,0,1,3.18,3.09,3.09,0,0,0,2.48,1.3,3,3,0,0,0,2.46-1.3,5,5,0,0,0,1-3.18v-1a1,1,0,0,1,1-1.12h3.36a1,1,0,0,1,1.12,1.12v1.64Z"/><path class="cls-1" d="M158.83,87.7a1.09,1.09,0,0,1-.36.82,1.14,1.14,0,0,1-.8.34H144.15A1.24,1.24,0,0,1,143,87.7V58a1,1,0,0,1,1.16-1.12h13.12A1,1,0,0,1,158.43,58v2.8a1.08,1.08,0,0,1-.36.82,1.15,1.15,0,0,1-.8.34h-7.59a1,1,0,0,0-1.17,1.12V68.5a1,1,0,0,0,1.17,1.08h5.75a1,1,0,0,1,1.17,1.12v2.72a1.16,1.16,0,0,1-1.17,1.16h-5.75a1,1,0,0,0-1.17,1.12v6.76a1,1,0,0,0,1.16,1.12h8a1.24,1.24,0,0,1,1.17,1.16v3Z"/><path class="cls-1" d="M181,79.54a8.76,8.76,0,0,1-2.88,6.58,9.68,9.68,0,0,1-6.92,2.74h-7.64a1.16,1.16,0,0,1-1.16-1.16V58a1,1,0,0,1,1.16-1.12h6.92a10,10,0,0,1,7.08,2.36A7.43,7.43,0,0,1,180,65a7.33,7.33,0,0,1-2.88,6.12,0.78,0.78,0,0,0-.36.6,0.68,0.68,0,0,0,.36.56A8.37,8.37,0,0,1,181,79.54ZM174.27,65.7a3.62,3.62,0,0,0-1-2.6,3.25,3.25,0,0,0-2.45-1h-1.7A1,1,0,0,0,168,63.14v5.48a1.1,1.1,0,0,0,.36.8,1.13,1.13,0,0,0,.81.36h1.7a3,3,0,0,0,2.43-1.24A4.37,4.37,0,0,0,174.27,65.7Zm0.6,13.6a4.85,4.85,0,0,0-1.34-3.3,3.85,3.85,0,0,0-2.86-1.5h-1.56A1,1,0,0,0,168,75.62v7a1,1,0,0,0,1.16,1.12h2.2a3.13,3.13,0,0,0,2.52-1.3A4.93,4.93,0,0,0,174.87,79.3Z"/><path class="cls-1" d="M203.47,80.7a8.32,8.32,0,0,1-2.5,6.08,8.22,8.22,0,0,1-6.06,2.52h-1.24a8.22,8.22,0,0,1-6.06-2.52,8.32,8.32,0,0,1-2.5-6.08V64.94a8.19,8.19,0,0,1,2.5-6,8.28,8.28,0,0,1,6.06-2.48h1.24A8.29,8.29,0,0,1,201,58.9a8.19,8.19,0,0,1,2.5,6V80.7Zm-5.68-.84V66a4.69,4.69,0,0,0-1-3,3,3,0,0,0-2.4-1.24A3.09,3.09,0,0,0,192,63a4.59,4.59,0,0,0-1,3V79.86a4.46,4.46,0,0,0,1,3,3.11,3.11,0,0,0,2.44,1.24,3,3,0,0,0,2.4-1.22A4.54,4.54,0,0,0,197.79,79.86Z"/><path class="cls-1" d="M225.11,80.7a8.32,8.32,0,0,1-2.5,6.08,8.22,8.22,0,0,1-6.06,2.52h-1.24a8.22,8.22,0,0,1-6.06-2.52,8.32,8.32,0,0,1-2.5-6.08V64.94a8.19,8.19,0,0,1,2.5-6,8.28,8.28,0,0,1,6.06-2.48h1.24a8.29,8.29,0,0,1,6.06,2.48,8.19,8.19,0,0,1,2.5,6V80.7Zm-5.68-.84V66a4.69,4.69,0,0,0-1-3A3,3,0,0,0,216,61.7,3.09,3.09,0,0,0,213.59,63a4.59,4.59,0,0,0-1,3V79.86a4.46,4.46,0,0,0,1,3A3.11,3.11,0,0,0,216,84.06a3,3,0,0,0,2.4-1.22A4.54,4.54,0,0,0,219.43,79.86Z"/><path class="cls-1" d="M248.47,87.78a1.34,1.34,0,0,1,0,.32,0.69,0.69,0,0,1-.8.76h-4.08a1.36,1.36,0,0,1-1.08-1.08l-4.87-12.56a0.5,0.5,0,0,0-.4-0.39,0.57,0.57,0,0,0-.44.4L235,78.34a1.46,1.46,0,0,0-.2.72v8.72a0.94,0.94,0,0,1-1,1.08h-3.56a0.92,0.92,0,0,1-1-1.08V57.9a0.9,0.9,0,0,1,1-1h3.56a0.92,0.92,0,0,1,1,1v9.68q0,0.6.32,0.6a0.88,0.88,0,0,0,.6-0.56l5.52-9.68a1.66,1.66,0,0,1,1.12-1.08h4a0.73,0.73,0,0,1,.88.76,0.57,0.57,0,0,1-.11.32l-6.18,10.51a0.79,0.79,0,0,0,0,.64Z"/><path class="cls-1" d="M279.47,67.22A8.3,8.3,0,0,1,277,73.28a8.16,8.16,0,0,1-6,2.5h-2.81a1,1,0,0,0-1.08,1.08V87.78A1,1,0,0,1,266,88.86h-3.42a0.92,0.92,0,0,1-1-1.08V57.9a0.9,0.9,0,0,1,1-1H271a8.13,8.13,0,0,1,6,2.5,8.32,8.32,0,0,1,2.46,6.06v1.8Zm-5.64.52V65a3,3,0,0,0-1-2.24,3.32,3.32,0,0,0-2.36-.92h-2.24a1.29,1.29,0,0,0-.79.3,0.91,0.91,0,0,0-.39.74v7a0.9,0.9,0,0,0,.39.74,1.28,1.28,0,0,0,.79.3h2.24a3.3,3.3,0,0,0,2.34-.94A3,3,0,0,0,273.83,67.74Z"/><path class="cls-1" d="M298.95,87.7a0.84,0.84,0,0,1-.18.8,1,1,0,0,1-.79.36h-3.63a1.15,1.15,0,0,1-1-1.15l-1-4.73a1.05,1.05,0,0,0-1-1h-4.88a1.08,1.08,0,0,0-1.16,1l-0.84,4.72a1.19,1.19,0,0,1-1.16,1.16h-3.56A0.87,0.87,0,0,1,279,88.5a1,1,0,0,1-.2-0.8L284.67,58a1.16,1.16,0,0,1,1.12-1.12h5.72A1.16,1.16,0,0,1,292.63,58Zm-8.08-12.2L289,65a0.87,0.87,0,0,0-.44-0.84q-0.28,0-.4.84L286.43,75.5a0.83,0.83,0,0,0,.88,1.16h2.6A1,1,0,0,0,290.87,75.5Z"/><path class="cls-1" d="M320.51,87.78a0.64,0.64,0,0,1,.08.28,0.74,0.74,0,0,1-.88.8h-3.47a1.3,1.3,0,0,1-1.08-1.09l-4.09-11.64a0.94,0.94,0,0,0-.8-0.8h-1.76a0.92,0.92,0,0,0-1,1.08V87.78a1.06,1.06,0,0,1-.32.74,1,1,0,0,1-.76.34h-3.28a0.92,0.92,0,0,1-1-1.08V57.9a0.9,0.9,0,0,1,1-1h8.2a8.65,8.65,0,0,1,6.08,2.28A8,8,0,0,1,320,65.22v1.56a8,8,0,0,1-4,7.24c-0.13.08-.15,0.27,0,0.56ZM314.75,67.5V64.94a3,3,0,0,0-.94-2.24,3.17,3.17,0,0,0-2.3-.92h-3.08a0.89,0.89,0,0,0-.92,1.08v6.72a0.9,0.9,0,0,0,1,1h3a3.2,3.2,0,0,0,2.3-.9A3,3,0,0,0,314.75,67.5Z"/><path class="cls-1" d="M343.27,87.7a0.84,0.84,0,0,1-.18.8,1,1,0,0,1-.79.36h-3.63a1.15,1.15,0,0,1-1-1.15l-1-4.73a1.05,1.05,0,0,0-1-1h-4.88a1.08,1.08,0,0,0-1.16,1l-0.84,4.72a1.19,1.19,0,0,1-1.16,1.16H324a0.87,0.87,0,0,1-.72-0.36,1,1,0,0,1-.2-0.8L329,58a1.16,1.16,0,0,1,1.12-1.12h5.72A1.16,1.16,0,0,1,337,58Zm-8.08-12.2L333.31,65a0.87,0.87,0,0,0-.44-0.84q-0.28,0-.4.84L330.75,75.5a0.83,0.83,0,0,0,.88,1.16h2.6A1,1,0,0,0,335.19,75.5Z"/><path class="cls-1" d="M371.59,60.78a1.09,1.09,0,0,1-.36.82,1.14,1.14,0,0,1-.8.34h-7.64a1.14,1.14,0,0,0-.8.34,1,1,0,0,0-.36.78V68.5a1,1,0,0,0,1.16,1.08h5.84a1.14,1.14,0,0,1,.8.34,1,1,0,0,1,.36.78v2.72a1.16,1.16,0,0,1-1.16,1.16h-5.92a1,1,0,0,0-1.08,1.12v12a1,1,0,0,1-1.12,1.16h-3.24a1.16,1.16,0,0,1-1.16-1.16V58a1,1,0,0,1,.36-0.78,1.14,1.14,0,0,1,.8-0.34h13.16A1,1,0,0,1,371.59,58v2.8Z"/><path class="cls-1" d="M390.83,87.7a0.84,0.84,0,0,1-.18.8,1,1,0,0,1-.79.36h-3.63a1.15,1.15,0,0,1-1-1.15l-1-4.73a1.05,1.05,0,0,0-1-1h-4.88a1.08,1.08,0,0,0-1.16,1l-0.84,4.72a1.19,1.19,0,0,1-1.16,1.16h-3.56a0.87,0.87,0,0,1-.72-0.36,1,1,0,0,1-.2-0.8L376.55,58a1.16,1.16,0,0,1,1.12-1.12h5.72A1.16,1.16,0,0,1,384.51,58Zm-8.08-12.2L380.87,65a0.87,0.87,0,0,0-.44-0.84q-0.28,0-.4.84L378.31,75.5a0.83,0.83,0,0,0,.88,1.16h2.6A1,1,0,0,0,382.75,75.5Z"/><path class="cls-1" d="M411.11,87.78A1,1,0,0,1,410,88.86H394.59a0.92,0.92,0,0,1-1-1.08V85.62a3.33,3.33,0,0,1,.2-1.32l10.92-22a0.39,0.39,0,0,0,.08-0.2,0.45,0.45,0,0,0-.56-0.44h-8.72a0.92,0.92,0,0,1-1.08-1V57.9a0.94,0.94,0,0,1,1.08-1h14.44a0.94,0.94,0,0,1,1.08,1V60.1a3,3,0,0,1-.22,1.28L400,83.1q-0.32.67,0.36,0.67H410a0.9,0.9,0,0,1,1.08,1v3Z"/><path class="cls-1" d="M430.59,87.7a1.09,1.09,0,0,1-.36.82,1.14,1.14,0,0,1-.8.34H415.91a1.24,1.24,0,0,1-1.16-1.16V58a1,1,0,0,1,1.16-1.12H429A1,1,0,0,1,430.19,58v2.8a1.08,1.08,0,0,1-.36.82,1.15,1.15,0,0,1-.8.34h-7.59a1,1,0,0,0-1.17,1.12V68.5a1,1,0,0,0,1.17,1.08h5.75a1,1,0,0,1,1.17,1.12v2.72a1.16,1.16,0,0,1-1.17,1.16h-5.75a1,1,0,0,0-1.17,1.12v6.76a1,1,0,0,0,1.17,1.12h8a1.24,1.24,0,0,1,1.16,1.16v3Z"/><path class="cls-1" d="M452.55,87.78a0.64,0.64,0,0,1,.08.28,0.74,0.74,0,0,1-.88.8h-3.47a1.3,1.3,0,0,1-1.08-1.09l-4.09-11.64a0.94,0.94,0,0,0-.8-0.8h-1.76a0.92,0.92,0,0,0-1,1.08V87.78a1.06,1.06,0,0,1-.32.74,1,1,0,0,1-.76.34h-3.28a0.92,0.92,0,0,1-1-1.08V57.9a0.9,0.9,0,0,1,1-1h8.2a8.65,8.65,0,0,1,6.08,2.28A8,8,0,0,1,452,65.22v1.56a8,8,0,0,1-4,7.24c-0.13.08-.15,0.27,0,0.56ZM446.79,67.5V64.94a3,3,0,0,0-.94-2.24,3.17,3.17,0,0,0-2.3-.92h-3.08a0.89,0.89,0,0,0-.92,1.08v6.72a0.9,0.9,0,0,0,1,1h3a3.2,3.2,0,0,0,2.3-.9A3,3,0,0,0,446.79,67.5Z"/><path class="cls-1" d="M93.55,109.68a8.3,8.3,0,0,1-2.47,6.06,8.16,8.16,0,0,1-6,2.5H82.24a1,1,0,0,0-1.08,1.08v10.92A1,1,0,0,1,80,131.32H76.62a0.92,0.92,0,0,1-1-1.08V100.36a0.9,0.9,0,0,1,1-1h8.44a8.13,8.13,0,0,1,6,2.5,8.32,8.32,0,0,1,2.46,6.06v1.8Zm-5.64.52v-2.72a3,3,0,0,0-1-2.24,3.32,3.32,0,0,0-2.36-.92H82.33a1.29,1.29,0,0,0-.79.3,0.91,0.91,0,0,0-.39.74v7a0.9,0.9,0,0,0,.39.74,1.28,1.28,0,0,0,.79.3h2.24a3.3,3.3,0,0,0,2.34-.94A3,3,0,0,0,87.91,110.2Z"/><path class="cls-1" d="M113,130.16a0.84,0.84,0,0,1-.18.8,1,1,0,0,1-.78.36h-3.63a1.15,1.15,0,0,1-1-1.15l-1-4.73a1.05,1.05,0,0,0-1-1h-4.88a1.08,1.08,0,0,0-1.16,1l-0.84,4.72a1.19,1.19,0,0,1-1.16,1.16H93.79a0.87,0.87,0,0,1-.72-0.36,1,1,0,0,1-.2-0.8l5.88-29.72a1.16,1.16,0,0,1,1.12-1.12h5.72a1.16,1.16,0,0,1,1.12,1.12ZM105,118l-1.88-10.48a0.87,0.87,0,0,0-.44-0.84q-0.28,0-.4.84L100.51,118a0.83,0.83,0,0,0,.88,1.16H104A1,1,0,0,0,105,118Z"/><path class="cls-1" d="M134.59,130.24a0.64,0.64,0,0,1,.08.28,0.74,0.74,0,0,1-.88.8h-3.47a1.3,1.3,0,0,1-1.08-1.09l-4.09-11.64a0.94,0.94,0,0,0-.8-0.8h-1.76a0.92,0.92,0,0,0-1,1.08v11.36a1.06,1.06,0,0,1-.32.74,1,1,0,0,1-.76.34h-3.28a0.92,0.92,0,0,1-1-1.08V100.36a0.9,0.9,0,0,1,1-1h8.2a8.66,8.66,0,0,1,6.08,2.28,8,8,0,0,1,2.52,6.08v1.56a8,8,0,0,1-4,7.24c-0.13.08-.15,0.27,0,0.56ZM128.83,110V107.4a3,3,0,0,0-.94-2.24,3.17,3.17,0,0,0-2.3-.92h-3.08a0.89,0.89,0,0,0-.92,1.08V112a0.9,0.9,0,0,0,1,1h3a3.2,3.2,0,0,0,2.3-.9A3,3,0,0,0,128.83,110Z"/><path class="cls-1" d="M156.19,103.08a1,1,0,0,1-1.12,1.08h-4.92a1.06,1.06,0,0,0-.74.32,1,1,0,0,0-.34.72v25a0.92,0.92,0,0,1-1,1.08h-3.28a1,1,0,0,1-1.08-1.08v-25a0.9,0.9,0,0,0-1-1h-4.92a1,1,0,0,1-1.08-1.08v-2.72a0.94,0.94,0,0,1,1.08-1h17.28a1,1,0,0,1,1.12,1v2.72Z"/><path class="cls-1" d="M174.75,130.16a1.09,1.09,0,0,1-.36.82,1.14,1.14,0,0,1-.8.34H160.07a1.24,1.24,0,0,1-1.16-1.16V100.44a1,1,0,0,1,1.16-1.12h13.12a1,1,0,0,1,1.16,1.12v2.8a1.09,1.09,0,0,1-.36.82,1.15,1.15,0,0,1-.8.34H165.6a1,1,0,0,0-1.17,1.12V111A1,1,0,0,0,165.6,112h5.75a1,1,0,0,1,1.17,1.12v2.72a1.16,1.16,0,0,1-1.17,1.16H165.6a1,1,0,0,0-1.17,1.12v6.76A1,1,0,0,0,165.6,126h8a1.24,1.24,0,0,1,1.16,1.16v3Z"/><path class="cls-1" d="M206,122.4a8.91,8.91,0,0,1-8.92,8.92h-8a1.07,1.07,0,0,1-.78-0.34,1.12,1.12,0,0,1-.34-0.82V100.44a1,1,0,0,1,1.12-1.12h8a8.91,8.91,0,0,1,8.92,8.92V122.4Zm-5.52-.44V108.8a4.26,4.26,0,0,0-1.36-3.16,4.45,4.45,0,0,0-3.22-1.32h-1.21a1,1,0,0,0-1.17,1.12v19.8a1.08,1.08,0,0,0,.36.82,1.16,1.16,0,0,0,.81.34h1.21a4.49,4.49,0,0,0,3.22-1.3A4.19,4.19,0,0,0,200.47,122Z"/><path class="cls-1" d="M228.43,123.16a8.32,8.32,0,0,1-2.5,6.08,8.22,8.22,0,0,1-6.06,2.52h-1.24a8.22,8.22,0,0,1-6.06-2.52,8.32,8.32,0,0,1-2.5-6.08V107.4a8.19,8.19,0,0,1,2.5-6,8.28,8.28,0,0,1,6.06-2.48h1.24a8.29,8.29,0,0,1,6.06,2.48,8.19,8.19,0,0,1,2.5,6v15.76Zm-5.68-.84V108.44a4.69,4.69,0,0,0-1-3,3,3,0,0,0-2.4-1.24,3.09,3.09,0,0,0-2.44,1.26,4.59,4.59,0,0,0-1,3v13.88a4.46,4.46,0,0,0,1,3,3.11,3.11,0,0,0,2.44,1.24,3,3,0,0,0,2.4-1.22A4.54,4.54,0,0,0,222.75,122.32Z"/><path class="cls-1" d="M260.51,123.28a8,8,0,0,1-2.54,6.24,9.32,9.32,0,0,1-6.54,2.32,8.76,8.76,0,0,1-7.32-3.32,15.27,15.27,0,0,1-2.4-5.2,0.92,0.92,0,0,1,.64-1.28l3-1a1.87,1.87,0,0,1,.36,0,1,1,0,0,1,1,.76q1.36,5,4.72,5a3.54,3.54,0,0,0,2.62-.94,3.43,3.43,0,0,0,.94-2.54q0-2.12-3.28-5-3-2.52-6-5-3.28-3.24-3.28-6.4a7.45,7.45,0,0,1,2.56-6,8.41,8.41,0,0,1,5.76-2,8.27,8.27,0,0,1,6.8,3.28,11.83,11.83,0,0,1,2,3.92,1.51,1.51,0,0,1,0,.36,0.94,0.94,0,0,1-.72,1l-2.6.84a0.71,0.71,0,0,1-.32.08,1,1,0,0,1-1-.72q-1.8-4.24-4.2-4.24a2.86,2.86,0,0,0-2.22,1.08,3.62,3.62,0,0,0-.94,2.44q0,1.64,3.36,4.36,5.44,4.4,6.24,5.2Q260.51,119.88,260.51,123.28Z"/><path class="cls-1" d="M281.47,103.08a1,1,0,0,1-1.12,1.08h-4.92a1.06,1.06,0,0,0-.74.32,1,1,0,0,0-.34.72v25a0.92,0.92,0,0,1-1,1.08h-3.28a1,1,0,0,1-1.08-1.08v-25a0.9,0.9,0,0,0-1-1h-4.92a1,1,0,0,1-1.08-1.08v-2.72a0.94,0.94,0,0,1,1.08-1h17.28a1,1,0,0,1,1.12,1v2.72Z"/><path class="cls-1" d="M301.07,130.16a0.84,0.84,0,0,1-.18.8,1,1,0,0,1-.79.36h-3.63a1.15,1.15,0,0,1-1-1.15l-1-4.73a1.05,1.05,0,0,0-1-1h-4.88a1.08,1.08,0,0,0-1.16,1l-0.84,4.72a1.19,1.19,0,0,1-1.16,1.16h-3.56a0.87,0.87,0,0,1-.72-0.36,1,1,0,0,1-.2-0.8l5.88-29.72a1.16,1.16,0,0,1,1.12-1.12h5.72a1.16,1.16,0,0,1,1.12,1.12ZM293,118l-1.88-10.48a0.87,0.87,0,0,0-.44-0.84q-0.28,0-.4.84L288.55,118a0.83,0.83,0,0,0,.88,1.16H292A1,1,0,0,0,293,118Z"/><path class="cls-1" d="M320.67,100.36l-6.88,17.76a2.52,2.52,0,0,0-.24,1v11.16a0.94,0.94,0,0,1-1,1.08H309a1,1,0,0,1-1.08-1.08V119.08a2.52,2.52,0,0,0-.24-1l-7.48-17.76a0.49,0.49,0,0,1-.08-0.28,0.77,0.77,0,0,1,1-.76H305a1.28,1.28,0,0,1,1.08,1l4.2,10.8a0.56,0.56,0,1,0,1.12,0l3.47-10.8a1.17,1.17,0,0,1,1-1h3.91a0.73,0.73,0,0,1,.88.76A0.9,0.9,0,0,1,320.67,100.36Z"/><path class="cls-1" d="M339.35,103.24a1.09,1.09,0,0,1-.36.82,1.14,1.14,0,0,1-.8.34h-7.64a1.14,1.14,0,0,0-.8.34,1,1,0,0,0-.36.78V111a1,1,0,0,0,1.16,1.08h5.84a1.14,1.14,0,0,1,.8.34,1,1,0,0,1,.36.78v2.72a1.16,1.16,0,0,1-1.16,1.16h-5.92a1,1,0,0,0-1.08,1.12v12a1,1,0,0,1-1.12,1.16H325a1.16,1.16,0,0,1-1.16-1.16V100.44a1,1,0,0,1,.36-0.78,1.14,1.14,0,0,1,.8-0.34h13.16a1,1,0,0,1,1.16,1.12v2.8Z"/><path class="cls-1" d="M348.63,130.16a1,1,0,0,1-1.12,1.16h-3.44a1,1,0,0,1-1.12-1.16V100.44a1,1,0,0,1,1.12-1.12h3.44a1,1,0,0,1,1.12,1.12v29.72Z"/><path class="cls-1" d="M368.63,130.24a0.94,0.94,0,0,1-1,1.08H354.15a0.92,0.92,0,0,1-1-1.08V100.36a0.9,0.9,0,0,1,1-1h3.56a0.94,0.94,0,0,1,1.08,1v24.76a0.94,0.94,0,0,0,1.08,1h7.72a1,1,0,0,1,1,1.16v2.92Z"/><path class="cls-1" d="M396,130.24a1,1,0,0,1-1.08,1.08h-3.08a1,1,0,0,1-1.12-1.08V112.16a0.29,0.29,0,0,0-.28-0.36,0.39,0.39,0,0,0-.4.36l-4.32,18.08a1.12,1.12,0,0,1-1.08,1.08h-1.84a1.11,1.11,0,0,1-1-1.08l-4.2-18.12a0.47,0.47,0,0,0-.4-0.44,0.37,0.37,0,0,0-.4.44v18.12a1,1,0,0,1-1.12,1.08h-3.28a0.92,0.92,0,0,1-1-1.08V100.36a0.9,0.9,0,0,1,1-1h6.16a1.26,1.26,0,0,1,1.2,1.2l3.58,15.08q0.24,1.08.51,1.08a1.4,1.4,0,0,0,.48-1.08l3.27-15.24a1.05,1.05,0,0,1,1-1h6.33a0.94,0.94,0,0,1,1.08,1v29.88Z"/><path class="cls-1" d="M405.75,130.16a1.24,1.24,0,0,1-1.16,1.16h-3.4a1.09,1.09,0,0,1-.82-0.36,1.14,1.14,0,0,1-.34-0.8V126.4a1,1,0,0,1,1.16-1h3.4a1,1,0,0,1,1.16,1v3.76Z"/></svg>