<svg id="Portugues" xmlns="http://www.w3.org/2000/svg" viewBox="0 0 1246 150"><defs><style>.cls-1{fill:#fff;}</style></defs><title>title_horizontal_portugues</title><path class="cls-1" d="M143.68,50.05a14.06,14.06,0,0,1-4.26,10.27,13.9,13.9,0,0,1-10.24,4.29H128.6A14.65,14.65,0,0,1,114,50.05V25.68a13.93,13.93,0,0,1,4.28-10.24,14.13,14.13,0,0,1,10.35-4.26h0.59a13.84,13.84,0,0,1,10.22,4.26,14,14,0,0,1,4.21,10.24v2.21a1.68,1.68,0,0,1-.55,1.2,1.74,1.74,0,0,1-1.27.55H136.4a1.85,1.85,0,0,1-1.3-.55,1.63,1.63,0,0,1-.58-1.2V27.11A8.41,8.41,0,0,0,133,22a4.62,4.62,0,0,0-3.85-2.11A5.11,5.11,0,0,0,125,22a7.86,7.86,0,0,0-1.71,5.1v22A8,8,0,0,0,125,54.24a5,5,0,0,0,4,2.11,4.94,4.94,0,0,0,4-2.11,8.11,8.11,0,0,0,1.66-5.17V47.39a1.55,1.55,0,0,1,1.69-1.82h5.46a1.61,1.61,0,0,1,1.82,1.82v2.66Z"/><path class="cls-1" d="M181.45,50.64a13.52,13.52,0,0,1-4.06,9.88,13.36,13.36,0,0,1-9.85,4.09h-2a13.35,13.35,0,0,1-9.85-4.09,13.51,13.51,0,0,1-4.06-9.88V25a13.3,13.3,0,0,1,4.06-9.81,13.47,13.47,0,0,1,9.85-4h2a13.47,13.47,0,0,1,9.85,4A13.31,13.31,0,0,1,181.45,25V50.64Zm-9.23-1.37V26.72a7.62,7.62,0,0,0-1.62-4.94,4.87,4.87,0,0,0-3.9-2,5,5,0,0,0-4,2A7.46,7.46,0,0,0,161,26.72V49.27a7.24,7.24,0,0,0,1.69,4.81,5,5,0,0,0,4,2,4.89,4.89,0,0,0,3.9-2A7.39,7.39,0,0,0,172.22,49.27Z"/><path class="cls-1" d="M220.25,62.14a1.55,1.55,0,0,1-1.76,1.75h-5.08a2.18,2.18,0,0,1-1.89-1.62L199.15,34.64a0.63,0.63,0,0,0-.53-0.51c-0.31,0-.47.24-0.47,0.71v27.3a1.58,1.58,0,0,1-1.82,1.75H191a1.5,1.5,0,0,1-1.62-1.75V13.65A1.5,1.5,0,0,1,191,11.9h5.33a2.46,2.46,0,0,1,2.21,1.82l12,26.72a0.75,0.75,0,0,0,.65.46c0.26,0,.39-0.24.39-0.72V13.72a1.7,1.7,0,0,1,.58-1.27,1.85,1.85,0,0,1,1.3-.55h5.07a1.58,1.58,0,0,1,1.76,1.82V62.14Z"/><path class="cls-1" d="M258,13.91l-9.88,48.23a1.88,1.88,0,0,1-1.89,1.75h-7.73q-1.37,0-1.69-1.75L226.69,13.91q-0.39-2,1.36-2h5.38a1.57,1.57,0,0,1,1.75,1.37L242,47.51a0.52,0.52,0,0,0,.46.59,0.53,0.53,0,0,0,.53-0.58l6.69-34.26a1.61,1.61,0,0,1,1.81-1.37h5.31a1.18,1.18,0,0,1,1.36,1.3A2.28,2.28,0,0,1,258,13.91Z"/><path class="cls-1" d="M274.53,62a1.64,1.64,0,0,1-1.82,1.88h-5.59A1.64,1.64,0,0,1,265.3,62V13.72a1.61,1.61,0,0,1,1.82-1.82h5.59a1.61,1.61,0,0,1,1.82,1.82V62Z"/><path class="cls-1" d="M312.42,49.4a14.48,14.48,0,0,1-14.5,14.5H285a1.74,1.74,0,0,1-1.27-.55,1.81,1.81,0,0,1-.55-1.33V13.72A1.61,1.61,0,0,1,285,11.9h12.94a13.93,13.93,0,0,1,10.27,4.26,14,14,0,0,1,4.23,10.24v23Zm-9-.71V27.3a6.92,6.92,0,0,0-2.2-5.13A7.24,7.24,0,0,0,296,20h-2a1.65,1.65,0,0,0-1.91,1.82V54a1.76,1.76,0,0,0,.59,1.33,1.88,1.88,0,0,0,1.32.55h2a7.3,7.3,0,0,0,5.23-2.11A6.81,6.81,0,0,0,303.45,48.69Z"/><path class="cls-1" d="M346.09,62a1.76,1.76,0,0,1-.58,1.33,1.85,1.85,0,0,1-1.3.55h-22A2,2,0,0,1,320.35,62V13.72a1.64,1.64,0,0,1,1.88-1.82h21.32a1.64,1.64,0,0,1,1.88,1.82v4.55a1.76,1.76,0,0,1-.59,1.33,1.86,1.86,0,0,1-1.31.55H331.21A1.64,1.64,0,0,0,329.32,22v8.84a1.62,1.62,0,0,0,1.89,1.75h9.34a1.64,1.64,0,0,1,1.89,1.82v4.42a1.89,1.89,0,0,1-1.89,1.88h-9.34a1.64,1.64,0,0,0-1.89,1.82v11a1.64,1.64,0,0,0,1.89,1.82h13a2,2,0,0,1,1.89,1.89V62Z"/><path class="cls-1" d="M400,50.83A13.06,13.06,0,0,1,395.91,61a15.15,15.15,0,0,1-10.63,3.77q-7.67,0-11.9-5.4a24.79,24.79,0,0,1-3.9-8.45,1.5,1.5,0,0,1,1-2.08l4.81-1.62a3.08,3.08,0,0,1,.58-0.06,1.62,1.62,0,0,1,1.69,1.23q2.21,8.13,7.67,8.13A5.75,5.75,0,0,0,389.54,55a5.58,5.58,0,0,0,1.53-4.13q0-3.44-5.33-8.06-4.87-4.09-9.81-8.19-5.33-5.27-5.33-10.4a12.11,12.11,0,0,1,4.16-9.69,13.66,13.66,0,0,1,9.36-3.31,13.43,13.43,0,0,1,11.05,5.33,19.26,19.26,0,0,1,3.25,6.37,2.46,2.46,0,0,1,.06.58A1.53,1.53,0,0,1,397.31,25l-4.23,1.37a1.15,1.15,0,0,1-.52.13,1.64,1.64,0,0,1-1.62-1.17q-2.93-6.89-6.83-6.89a4.64,4.64,0,0,0-3.61,1.75,5.88,5.88,0,0,0-1.53,4q0,2.67,5.46,7.08,8.84,7.15,10.14,8.45Q400,45.31,400,50.83Z"/><path class="cls-1" d="M433,62a1.76,1.76,0,0,1-.58,1.33,1.85,1.85,0,0,1-1.3.55h-22A2,2,0,0,1,407.25,62V13.72a1.64,1.64,0,0,1,1.88-1.82h21.32a1.64,1.64,0,0,1,1.88,1.82v4.55a1.76,1.76,0,0,1-.59,1.33,1.86,1.86,0,0,1-1.31.55H418.12A1.64,1.64,0,0,0,416.22,22v8.84a1.62,1.62,0,0,0,1.89,1.75h9.34a1.64,1.64,0,0,1,1.89,1.82v4.42a1.89,1.89,0,0,1-1.89,1.88h-9.34a1.64,1.64,0,0,0-1.89,1.82v11a1.64,1.64,0,0,0,1.89,1.82h13A2,2,0,0,1,433,57.2V62Z"/><path class="cls-1" d="M470.17,50.64a13.29,13.29,0,0,1-4.23,9.85,13.84,13.84,0,0,1-10,4.13h-1.62a13.73,13.73,0,0,1-10-4.13,13.34,13.34,0,0,1-4.19-9.85V13.59a1.47,1.47,0,0,1,1.64-1.69h5.63a1.5,1.5,0,0,1,1.7,1.69v36a7.28,7.28,0,0,0,1.81,4.94,5.44,5.44,0,0,0,4.2,2.08,5.28,5.28,0,0,0,4.1-2.08A7.35,7.35,0,0,0,461,49.6v-36a1.52,1.52,0,0,1,1.75-1.69h5.59a1.8,1.8,0,0,1,1.27.52,1.58,1.58,0,0,1,.55,1.17V50.64Z"/><path class="cls-1" d="M507.87,50.83A13.06,13.06,0,0,1,503.75,61a15.15,15.15,0,0,1-10.63,3.77q-7.67,0-11.9-5.4a24.79,24.79,0,0,1-3.9-8.45,1.5,1.5,0,0,1,1-2.08l4.81-1.62a3.08,3.08,0,0,1,.58-0.06,1.62,1.62,0,0,1,1.69,1.23q2.21,8.13,7.67,8.13A5.75,5.75,0,0,0,497.38,55a5.58,5.58,0,0,0,1.53-4.13q0-3.44-5.33-8.06-4.87-4.09-9.81-8.19-5.33-5.27-5.33-10.4a12.11,12.11,0,0,1,4.16-9.69,13.66,13.66,0,0,1,9.36-3.31A13.43,13.43,0,0,1,503,16.51a19.26,19.26,0,0,1,3.25,6.37,2.46,2.46,0,0,1,.06.58A1.53,1.53,0,0,1,505.14,25l-4.23,1.37a1.15,1.15,0,0,1-.52.13,1.64,1.64,0,0,1-1.62-1.17q-2.93-6.89-6.83-6.89a4.64,4.64,0,0,0-3.61,1.75,5.88,5.88,0,0,0-1.53,4q0,2.67,5.46,7.08,8.84,7.15,10.14,8.45Q507.87,45.31,507.87,50.83Z"/><path class="cls-1" d="M563.38,62a1.36,1.36,0,0,1-.3,1.3,1.59,1.59,0,0,1-1.28.58h-5.9q-1.31,0-1.7-1.87l-1.57-7.68A1.71,1.71,0,0,0,551,52.65H543a1.75,1.75,0,0,0-1.88,1.69L539.78,62q-0.39,1.89-1.88,1.88h-5.78a1.41,1.41,0,0,1-1.17-.58,1.57,1.57,0,0,1-.33-1.3l9.56-48.3q0.39-1.82,1.82-1.82h9.29q1.43,0,1.82,1.82ZM550.25,42.19l-3.05-17q-0.26-1.36-.72-1.36t-0.65,1.36l-2.79,17q-0.33,1.89,1.43,1.88h4.22A1.59,1.59,0,0,0,550.25,42.19Z"/><path class="cls-1" d="M609.92,62.14a1.55,1.55,0,0,1-1.76,1.75h-5a1.58,1.58,0,0,1-1.82-1.75V32.76a0.47,0.47,0,0,0-.46-0.59,0.63,0.63,0,0,0-.65.59l-7,29.38q-0.39,1.75-1.75,1.75h-3q-1.3,0-1.69-1.75L580,32.7a0.76,0.76,0,0,0-.65-0.71,0.6,0.6,0,0,0-.65.71V62.14a1.58,1.58,0,0,1-1.82,1.75h-5.33a1.5,1.5,0,0,1-1.62-1.75V13.59a1.47,1.47,0,0,1,1.62-1.69h10q1.49,0,1.95,2l5.81,24.5q0.39,1.76.84,1.76t0.77-1.75l5.32-24.77a1.71,1.71,0,0,1,1.69-1.69h10.28a1.52,1.52,0,0,1,1.76,1.69V62.14Z"/><path class="cls-1" d="M627.73,62a1.64,1.64,0,0,1-1.82,1.88h-5.59A1.64,1.64,0,0,1,618.5,62V13.72a1.61,1.61,0,0,1,1.82-1.82h5.59a1.61,1.61,0,0,1,1.82,1.82V62Z"/><path class="cls-1" d="M666.08,62a1.64,1.64,0,0,1-1.82,1.88h-1Q662,63.9,661.4,62l-0.33-.78a1.14,1.14,0,0,0-.65-0.91,1.86,1.86,0,0,0-1,.91A8.79,8.79,0,0,1,652,64.61h-1.17a13.67,13.67,0,0,1-10.5-4.29,14.78,14.78,0,0,1-4-10.46V25.74a14.06,14.06,0,0,1,4.26-10.27,13.9,13.9,0,0,1,10.24-4.29h0.59a13.69,13.69,0,0,1,10.17,4.29,14.18,14.18,0,0,1,4.19,10.27v2.15A1.64,1.64,0,0,1,664,29.77h-5a1.72,1.72,0,0,1-1.3-.65,1.9,1.9,0,0,1-.59-1.23V27.11A7.85,7.85,0,0,0,655.39,22a5,5,0,0,0-8.16,0,7.9,7.9,0,0,0-1.69,5.1V48.82a8.13,8.13,0,0,0,1.53,5.1,5.07,5.07,0,0,0,4.26,2q5.79,0,5.79-7.08V46.67a1.89,1.89,0,0,0-1.82-1.82h-2.66A2,2,0,0,1,650.74,43V39.46a1.85,1.85,0,0,1,.55-1.3,1.77,1.77,0,0,1,1.33-.58h11.63a1.64,1.64,0,0,1,1.27.65,2,2,0,0,1,.55,1.23V62Z"/><path class="cls-1" d="M702.54,50.64a13.51,13.51,0,0,1-4.06,9.88,13.35,13.35,0,0,1-9.85,4.09h-2a13.35,13.35,0,0,1-9.85-4.09,13.51,13.51,0,0,1-4.06-9.88V25a13.3,13.3,0,0,1,4.06-9.81,13.46,13.46,0,0,1,9.85-4h2a13.46,13.46,0,0,1,9.85,4A13.3,13.3,0,0,1,702.54,25V50.64Zm-9.23-1.37V26.72a7.63,7.63,0,0,0-1.62-4.94,4.87,4.87,0,0,0-3.9-2,5,5,0,0,0-4,2,7.46,7.46,0,0,0-1.69,4.91V49.27a7.24,7.24,0,0,0,1.69,4.81,5,5,0,0,0,4,2,4.89,4.89,0,0,0,3.9-2A7.39,7.39,0,0,0,693.31,49.27Z"/><path class="cls-1" d="M739,50.83A13.06,13.06,0,0,1,734.88,61a15.15,15.15,0,0,1-10.63,3.77q-7.67,0-11.89-5.4a24.77,24.77,0,0,1-3.9-8.45,1.5,1.5,0,0,1,1-2.08l4.81-1.62a3.09,3.09,0,0,1,.59-0.06,1.62,1.62,0,0,1,1.69,1.23q2.21,8.13,7.67,8.13A5.76,5.76,0,0,0,728.51,55,5.58,5.58,0,0,0,730,50.83q0-3.44-5.33-8.06-4.87-4.09-9.81-8.19-5.33-5.27-5.33-10.4a12.11,12.11,0,0,1,4.16-9.69,13.66,13.66,0,0,1,9.36-3.31,13.43,13.43,0,0,1,11,5.33,19.2,19.2,0,0,1,3.25,6.37,2.44,2.44,0,0,1,.07.58A1.53,1.53,0,0,1,736.28,25l-4.23,1.37a1.14,1.14,0,0,1-.52.13,1.64,1.64,0,0,1-1.62-1.17q-2.92-6.89-6.82-6.89a4.64,4.64,0,0,0-3.61,1.75,5.88,5.88,0,0,0-1.53,4q0,2.67,5.46,7.08,8.84,7.15,10.14,8.45Q739,45.31,739,50.83Z"/><path class="cls-1" d="M792.44,49.4a14.48,14.48,0,0,1-14.49,14.5H765a1.74,1.74,0,0,1-1.27-.55,1.82,1.82,0,0,1-.55-1.33V13.72A1.61,1.61,0,0,1,765,11.9h12.94a13.93,13.93,0,0,1,10.27,4.26,14,14,0,0,1,4.22,10.24v23Zm-9-.71V27.3a6.92,6.92,0,0,0-2.2-5.13A7.24,7.24,0,0,0,776,20h-2a1.65,1.65,0,0,0-1.91,1.82V54a1.76,1.76,0,0,0,.59,1.33,1.88,1.88,0,0,0,1.32.55h2a7.3,7.3,0,0,0,5.23-2.11A6.81,6.81,0,0,0,783.47,48.69Z"/><path class="cls-1" d="M830.2,50.64a13.52,13.52,0,0,1-4.06,9.88,13.36,13.36,0,0,1-9.85,4.09h-2a13.36,13.36,0,0,1-9.85-4.09,13.52,13.52,0,0,1-4.06-9.88V25a13.31,13.31,0,0,1,4.06-9.81,13.47,13.47,0,0,1,9.85-4h2a13.47,13.47,0,0,1,9.85,4A13.31,13.31,0,0,1,830.2,25V50.64ZM821,49.27V26.72a7.62,7.62,0,0,0-1.62-4.94,4.87,4.87,0,0,0-3.9-2,5,5,0,0,0-4,2,7.46,7.46,0,0,0-1.69,4.91V49.27a7.24,7.24,0,0,0,1.69,4.81,5,5,0,0,0,4,2,4.89,4.89,0,0,0,3.9-2A7.38,7.38,0,0,0,821,49.27Z"/><path class="cls-1" d="M880.25,18.27a1.77,1.77,0,0,1-.58,1.33,1.85,1.85,0,0,1-1.3.55H866a1.85,1.85,0,0,0-1.3.55,1.7,1.7,0,0,0-.58,1.27v8.84A1.61,1.61,0,0,0,866,32.57h9.49a1.86,1.86,0,0,1,1.3.55,1.7,1.7,0,0,1,.59,1.27v4.42a1.89,1.89,0,0,1-1.88,1.88h-9.62a1.58,1.58,0,0,0-1.75,1.82V62a1.64,1.64,0,0,1-1.82,1.88H857A1.89,1.89,0,0,1,855.1,62V13.72a1.7,1.7,0,0,1,.58-1.27,1.86,1.86,0,0,1,1.3-.55h21.38a1.64,1.64,0,0,1,1.88,1.82v4.55Z"/><path class="cls-1" d="M912.82,62a1.37,1.37,0,0,1-.29,1.3,1.59,1.59,0,0,1-1.28.58h-5.89q-1.31,0-1.7-1.87l-1.57-7.68a1.71,1.71,0,0,0-1.69-1.69h-7.93a1.75,1.75,0,0,0-1.88,1.69L889.22,62q-0.39,1.89-1.88,1.88h-5.78a1.42,1.42,0,0,1-1.17-.58,1.57,1.57,0,0,1-.32-1.3l9.55-48.3q0.39-1.82,1.82-1.82h9.29q1.43,0,1.82,1.82ZM899.69,42.19l-3.05-17q-0.26-1.36-.71-1.36t-0.65,1.36l-2.79,17q-0.33,1.89,1.43,1.88h4.23A1.59,1.59,0,0,0,899.69,42.19Z"/><path class="cls-1" d="M947.66,50.05a14.07,14.07,0,0,1-4.26,10.27,13.9,13.9,0,0,1-10.24,4.29h-0.59A14.65,14.65,0,0,1,918,50.05V25.68a13.93,13.93,0,0,1,4.28-10.24,14.13,14.13,0,0,1,10.35-4.26h0.59a13.84,13.84,0,0,1,10.22,4.26,14,14,0,0,1,4.21,10.24v2.21a1.68,1.68,0,0,1-.55,1.2,1.74,1.74,0,0,1-1.27.55h-5.46a1.85,1.85,0,0,1-1.3-.55,1.63,1.63,0,0,1-.58-1.2V27.11a8.41,8.41,0,0,0-1.55-5.1,4.62,4.62,0,0,0-3.85-2.11A5.1,5.1,0,0,0,929,22a7.85,7.85,0,0,0-1.71,5.1v22A8,8,0,0,0,929,54.24a5,5,0,0,0,4,2.11,4.94,4.94,0,0,0,4-2.11,8.11,8.11,0,0,0,1.66-5.17V47.39a1.56,1.56,0,0,1,1.69-1.82h5.46a1.61,1.61,0,0,1,1.82,1.82v2.66Z"/><path class="cls-1" d="M981.33,62a1.76,1.76,0,0,1-.59,1.33,1.84,1.84,0,0,1-1.3.55h-22A2,2,0,0,1,955.59,62V13.72a1.64,1.64,0,0,1,1.88-1.82h21.32a1.64,1.64,0,0,1,1.88,1.82v4.55a1.76,1.76,0,0,1-.59,1.33,1.86,1.86,0,0,1-1.3.55H966.45A1.64,1.64,0,0,0,964.56,22v8.84a1.61,1.61,0,0,0,1.89,1.75h9.34a1.64,1.64,0,0,1,1.89,1.82v4.42a1.89,1.89,0,0,1-1.89,1.88h-9.34a1.64,1.64,0,0,0-1.89,1.82v11a1.64,1.64,0,0,0,1.89,1.82h13a2,2,0,0,1,1.89,1.89V62Z"/><path class="cls-1" d="M1018.7,48.75A14.24,14.24,0,0,1,1014,59.44a15.73,15.73,0,0,1-11.24,4.45H990.36A1.89,1.89,0,0,1,988.48,62V13.72a1.64,1.64,0,0,1,1.88-1.82h11.24q7.34,0,11.51,3.83a12.08,12.08,0,0,1,4,9.42,11.92,11.92,0,0,1-4.68,9.95,1.26,1.26,0,0,0-.59,1,1.1,1.1,0,0,0,.59.91A13.6,13.6,0,0,1,1018.7,48.75Zm-11-22.49A5.88,5.88,0,0,0,1006.1,22a5.29,5.29,0,0,0-4-1.69h-2.77a1.62,1.62,0,0,0-1.91,1.75V31a1.78,1.78,0,0,0,.59,1.3,1.84,1.84,0,0,0,1.32.58h2.77a5,5,0,0,0,3.95-2A7.1,7.1,0,0,0,1007.72,26.26Zm1,22.1a7.88,7.88,0,0,0-2.18-5.36,6.25,6.25,0,0,0-4.65-2.44h-2.54a1.64,1.64,0,0,0-1.88,1.82V53.82a1.64,1.64,0,0,0,1.88,1.82h3.57a5.08,5.08,0,0,0,4.1-2.11A8,8,0,0,0,1008.69,48.36Z"/><path class="cls-1" d="M1056.47,50.64a13.52,13.52,0,0,1-4.06,9.88,13.36,13.36,0,0,1-9.85,4.09h-2a13.36,13.36,0,0,1-9.85-4.09,13.52,13.52,0,0,1-4.06-9.88V25a13.31,13.31,0,0,1,4.06-9.81,13.47,13.47,0,0,1,9.85-4h2a13.47,13.47,0,0,1,9.85,4,13.31,13.31,0,0,1,4.06,9.81V50.64Zm-9.23-1.37V26.72a7.62,7.62,0,0,0-1.62-4.94,4.87,4.87,0,0,0-3.9-2,5,5,0,0,0-4,2,7.46,7.46,0,0,0-1.69,4.91V49.27a7.24,7.24,0,0,0,1.69,4.81,5,5,0,0,0,4,2,4.89,4.89,0,0,0,3.9-2A7.38,7.38,0,0,0,1047.24,49.27Z"/><path class="cls-1" d="M1092.93,50.64a13.52,13.52,0,0,1-4.06,9.88,13.36,13.36,0,0,1-9.85,4.09h-2a13.36,13.36,0,0,1-9.85-4.09,13.52,13.52,0,0,1-4.06-9.88V25a13.31,13.31,0,0,1,4.06-9.81,13.47,13.47,0,0,1,9.85-4h2a13.47,13.47,0,0,1,9.85,4,13.31,13.31,0,0,1,4.06,9.81V50.64Zm-9.23-1.37V26.72a7.62,7.62,0,0,0-1.62-4.94,4.87,4.87,0,0,0-3.9-2,5,5,0,0,0-4,2,7.46,7.46,0,0,0-1.69,4.91V49.27a7.24,7.24,0,0,0,1.69,4.81,5,5,0,0,0,4,2,4.89,4.89,0,0,0,3.9-2A7.38,7.38,0,0,0,1083.7,49.27Z"/><path class="cls-1" d="M1132.19,62.14a2.16,2.16,0,0,1,.06.52,1.12,1.12,0,0,1-1.3,1.23h-6.62c-0.69,0-1.28-.59-1.75-1.76l-7.91-20.42a0.81,0.81,0,0,0-.65-0.64,0.93,0.93,0,0,0-.72.65l-3,5.07A2.37,2.37,0,0,0,1110,48V62.14a1.52,1.52,0,0,1-1.69,1.75h-5.79a1.5,1.5,0,0,1-1.62-1.75V13.59a1.47,1.47,0,0,1,1.63-1.69h5.79a1.49,1.49,0,0,1,1.69,1.69V29.32q0,1,.52,1a1.43,1.43,0,0,0,1-.91l9-15.73q1-1.75,1.82-1.75h6.5a1.19,1.19,0,0,1,1.43,1.24,0.92,0.92,0,0,1-.18.52l-10,17.08a1.27,1.27,0,0,0-.05,1Z"/><path class="cls-1" d="M199.48,98.73a13.5,13.5,0,0,1-4,9.85,13.26,13.26,0,0,1-9.81,4.06h-4.56a1.55,1.55,0,0,0-1.76,1.75v17.75a1.57,1.57,0,0,1-1.81,1.75H172a1.49,1.49,0,0,1-1.61-1.75V83.59A1.47,1.47,0,0,1,172,81.9H185.7A13.2,13.2,0,0,1,195.49,86a13.52,13.52,0,0,1,4,9.85v2.92Zm-9.16.85V95.16a4.81,4.81,0,0,0-1.59-3.64,5.4,5.4,0,0,0-3.84-1.5h-3.64a2.09,2.09,0,0,0-1.29.49,1.47,1.47,0,0,0-.63,1.2v11.44a1.47,1.47,0,0,0,.63,1.2,2.08,2.08,0,0,0,1.29.49h3.64a5.37,5.37,0,0,0,3.8-1.53A4.94,4.94,0,0,0,190.32,99.58Z"/><path class="cls-1" d="M232.44,132a1.36,1.36,0,0,1-.3,1.3,1.59,1.59,0,0,1-1.28.58H225q-1.31,0-1.7-1.87l-1.57-7.68a1.71,1.71,0,0,0-1.69-1.69h-7.93a1.75,1.75,0,0,0-1.88,1.69L208.84,132q-0.39,1.89-1.88,1.88h-5.78a1.41,1.41,0,0,1-1.17-.58,1.57,1.57,0,0,1-.33-1.3l9.56-48.3q0.39-1.82,1.82-1.82h9.29q1.43,0,1.82,1.82Zm-13.13-19.83-3.05-17q-0.26-1.36-.72-1.36t-0.65,1.36l-2.79,17q-0.33,1.89,1.43,1.88h4.22A1.59,1.59,0,0,0,219.31,112.19Z"/><path class="cls-1" d="M268.77,132.14a1,1,0,0,1,.13.46,1.21,1.21,0,0,1-1.43,1.3h-5.64q-1.1,0-1.75-1.76l-6.65-18.91a1.53,1.53,0,0,0-1.3-1.3h-2.86a1.5,1.5,0,0,0-1.63,1.76v18.46a1.72,1.72,0,0,1-.52,1.2,1.64,1.64,0,0,1-1.23.55h-5.33a1.5,1.5,0,0,1-1.62-1.75V83.59a1.47,1.47,0,0,1,1.63-1.69h13.32a14.06,14.06,0,0,1,9.88,3.71,13.06,13.06,0,0,1,4.09,9.88V98a13,13,0,0,1-6.56,11.76q-0.33.2-.06,0.91Zm-9.36-33V95a4.9,4.9,0,0,0-1.53-3.64,5.14,5.14,0,0,0-3.74-1.5h-5q-1.5,0-1.5,1.75v10.92a1.47,1.47,0,0,0,1.63,1.69h4.88a5.2,5.2,0,0,0,3.74-1.46A4.8,4.8,0,0,0,259.41,99.19Z"/><path class="cls-1" d="M307.06,132a1.36,1.36,0,0,1-.3,1.3,1.59,1.59,0,0,1-1.28.58h-5.9q-1.31,0-1.7-1.87l-1.57-7.68a1.71,1.71,0,0,0-1.69-1.69h-7.93a1.75,1.75,0,0,0-1.88,1.69L283.46,132q-0.39,1.89-1.88,1.88h-5.78a1.41,1.41,0,0,1-1.17-.58,1.57,1.57,0,0,1-.33-1.3l9.56-48.3q0.39-1.82,1.82-1.82H295q1.43,0,1.82,1.82Zm-13.13-19.83-3.05-17q-0.26-1.36-.72-1.36t-0.65,1.36l-2.79,17q-0.33,1.89,1.43,1.88h4.22A1.59,1.59,0,0,0,293.93,112.19Z"/><path class="cls-1" d="M355.68,88.27a1.77,1.77,0,0,1-.58,1.33,1.85,1.85,0,0,1-1.3.55H341.38a1.85,1.85,0,0,0-1.3.55,1.7,1.7,0,0,0-.58,1.27v8.84a1.61,1.61,0,0,0,1.89,1.75h9.49a1.86,1.86,0,0,1,1.3.55,1.7,1.7,0,0,1,.58,1.27v4.42a1.89,1.89,0,0,1-1.89,1.88h-9.62a1.58,1.58,0,0,0-1.76,1.82V132a1.64,1.64,0,0,1-1.82,1.88h-5.27a1.89,1.89,0,0,1-1.88-1.88V83.72a1.7,1.7,0,0,1,.58-1.27,1.85,1.85,0,0,1,1.3-.55h21.39a1.64,1.64,0,0,1,1.88,1.82v4.55Z"/><path class="cls-1" d="M388.24,132a1.36,1.36,0,0,1-.3,1.3,1.59,1.59,0,0,1-1.28.58h-5.9q-1.31,0-1.7-1.87l-1.57-7.68a1.71,1.71,0,0,0-1.69-1.69h-7.93a1.75,1.75,0,0,0-1.88,1.69L364.64,132q-0.39,1.89-1.88,1.88H357a1.41,1.41,0,0,1-1.17-.58,1.57,1.57,0,0,1-.33-1.3L365,83.72q0.39-1.82,1.82-1.82h9.29q1.43,0,1.82,1.82Zm-13.13-19.83-3.05-17q-0.26-1.36-.72-1.36t-0.65,1.36l-2.79,17q-0.33,1.89,1.43,1.88h4.22A1.59,1.59,0,0,0,375.11,112.19Z"/><path class="cls-1" d="M422.5,132.14a1.55,1.55,0,0,1-1.75,1.75H395.65a1.5,1.5,0,0,1-1.62-1.75v-3.51a5.42,5.42,0,0,1,.33-2.15L412.1,90.8a0.63,0.63,0,0,0,.13-0.32,0.73,0.73,0,0,0-.91-0.71H397.15a1.5,1.5,0,0,1-1.75-1.62V83.59a1.52,1.52,0,0,1,1.75-1.69h23.46a1.52,1.52,0,0,1,1.76,1.69v3.58a4.84,4.84,0,0,1-.36,2.08l-17.62,35.29q-0.52,1.09.58,1.09h15.77a1.47,1.47,0,0,1,1.75,1.56v4.94Z"/><path class="cls-1" d="M455.45,132a1.76,1.76,0,0,1-.58,1.33,1.85,1.85,0,0,1-1.3.55h-22a2,2,0,0,1-1.88-1.88V83.72a1.64,1.64,0,0,1,1.88-1.82h21.32a1.64,1.64,0,0,1,1.88,1.82v4.55a1.76,1.76,0,0,1-.59,1.33,1.86,1.86,0,0,1-1.31.55H440.58A1.64,1.64,0,0,0,438.68,92v8.84a1.62,1.62,0,0,0,1.89,1.75h9.34a1.64,1.64,0,0,1,1.89,1.82v4.42a1.89,1.89,0,0,1-1.89,1.88h-9.34a1.64,1.64,0,0,0-1.89,1.82v11a1.64,1.64,0,0,0,1.89,1.82h13a2,2,0,0,1,1.89,1.89V132Z"/><path class="cls-1" d="M492.44,132.14a1,1,0,0,1,.13.46,1.21,1.21,0,0,1-1.43,1.3H485.5q-1.1,0-1.75-1.76l-6.65-18.91a1.53,1.53,0,0,0-1.3-1.3h-2.86a1.5,1.5,0,0,0-1.63,1.76v18.46a1.72,1.72,0,0,1-.52,1.2,1.64,1.64,0,0,1-1.23.55h-5.33a1.5,1.5,0,0,1-1.62-1.75V83.59a1.47,1.47,0,0,1,1.63-1.69h13.32a14.06,14.06,0,0,1,9.88,3.71,13.06,13.06,0,0,1,4.09,9.88V98A13,13,0,0,1,485,109.78q-0.33.2-.06,0.91Zm-9.36-33V95a4.9,4.9,0,0,0-1.53-3.64,5.14,5.14,0,0,0-3.74-1.5h-5q-1.5,0-1.5,1.75v10.92a1.47,1.47,0,0,0,1.63,1.69h4.88a5.2,5.2,0,0,0,3.74-1.46A4.8,4.8,0,0,0,483.08,99.19Z"/><path class="cls-1" d="M545.48,98.73a13.5,13.5,0,0,1-4,9.85,13.26,13.26,0,0,1-9.81,4.06h-4.56a1.55,1.55,0,0,0-1.76,1.75v17.75a1.57,1.57,0,0,1-1.81,1.75H518a1.49,1.49,0,0,1-1.61-1.75V83.59A1.47,1.47,0,0,1,518,81.9H531.7A13.2,13.2,0,0,1,541.48,86a13.52,13.52,0,0,1,4,9.85v2.92Zm-9.16.85V95.16a4.81,4.81,0,0,0-1.59-3.64,5.4,5.4,0,0,0-3.84-1.5h-3.64a2.09,2.09,0,0,0-1.29.49,1.47,1.47,0,0,0-.63,1.2v11.44a1.47,1.47,0,0,0,.63,1.2,2.08,2.08,0,0,0,1.29.49h3.64a5.37,5.37,0,0,0,3.8-1.53A4.94,4.94,0,0,0,536.31,99.58Z"/><path class="cls-1" d="M578.43,132a1.36,1.36,0,0,1-.3,1.3,1.59,1.59,0,0,1-1.28.58H571q-1.31,0-1.7-1.87l-1.57-7.68a1.71,1.71,0,0,0-1.69-1.69h-7.93a1.75,1.75,0,0,0-1.88,1.69L554.83,132q-0.39,1.89-1.88,1.88h-5.78a1.41,1.41,0,0,1-1.17-.58,1.57,1.57,0,0,1-.33-1.3l9.56-48.3q0.39-1.82,1.82-1.82h9.29q1.43,0,1.82,1.82ZM565.3,112.19l-3.05-17q-0.26-1.36-.72-1.36t-0.65,1.36l-2.79,17q-0.33,1.89,1.43,1.88h4.22A1.59,1.59,0,0,0,565.3,112.19Z"/><path class="cls-1" d="M614.77,132.14a1,1,0,0,1,.13.46,1.21,1.21,0,0,1-1.43,1.3h-5.64q-1.1,0-1.75-1.76l-6.65-18.91a1.53,1.53,0,0,0-1.3-1.3h-2.86a1.5,1.5,0,0,0-1.63,1.76v18.46a1.72,1.72,0,0,1-.52,1.2,1.64,1.64,0,0,1-1.23.55h-5.33a1.5,1.5,0,0,1-1.62-1.75V83.59a1.47,1.47,0,0,1,1.63-1.69h13.32a14.06,14.06,0,0,1,9.88,3.71,13.06,13.06,0,0,1,4.09,9.88V98a13,13,0,0,1-6.56,11.76q-0.33.2-.06,0.91Zm-9.36-33V95a4.9,4.9,0,0,0-1.53-3.64,5.14,5.14,0,0,0-3.74-1.5h-5q-1.5,0-1.5,1.75v10.92a1.47,1.47,0,0,0,1.63,1.69h4.88a5.2,5.2,0,0,0,3.74-1.46A4.8,4.8,0,0,0,605.41,99.19Z"/><path class="cls-1" d="M651.17,88a1.58,1.58,0,0,1-1.82,1.76h-8a1.73,1.73,0,0,0-1.2.52,1.58,1.58,0,0,0-.55,1.17v40.69A1.5,1.5,0,0,1,638,133.9h-5.33a1.55,1.55,0,0,1-1.75-1.75V91.45a1.47,1.47,0,0,0-1.62-1.69h-8A1.55,1.55,0,0,1,619.51,88V83.59a1.52,1.52,0,0,1,1.75-1.69h28.08a1.55,1.55,0,0,1,1.82,1.69V88Z"/><path class="cls-1" d="M682.63,132a1.77,1.77,0,0,1-.58,1.33,1.85,1.85,0,0,1-1.3.55h-22a2,2,0,0,1-1.89-1.88V83.72a1.64,1.64,0,0,1,1.89-1.82h21.32A1.64,1.64,0,0,1,682,83.72v4.55a1.76,1.76,0,0,1-.59,1.33,1.86,1.86,0,0,1-1.3.55H667.75A1.64,1.64,0,0,0,665.86,92v8.84a1.62,1.62,0,0,0,1.89,1.75h9.34a1.64,1.64,0,0,1,1.89,1.82v4.42a1.89,1.89,0,0,1-1.89,1.88h-9.34a1.64,1.64,0,0,0-1.89,1.82v11a1.64,1.64,0,0,0,1.89,1.82h13a2,2,0,0,1,1.89,1.89V132Z"/><path class="cls-1" d="M736,119.4a14.48,14.48,0,0,1-14.49,14.5H708.56a1.74,1.74,0,0,1-1.27-.55,1.82,1.82,0,0,1-.55-1.33V83.72a1.61,1.61,0,0,1,1.82-1.82h12.94A14.48,14.48,0,0,1,736,96.39v23Zm-9-.71V97.3a6.92,6.92,0,0,0-2.2-5.13A7.24,7.24,0,0,0,719.59,90h-2a1.65,1.65,0,0,0-1.91,1.82V124a1.76,1.76,0,0,0,.59,1.33,1.88,1.88,0,0,0,1.32.55h2a7.3,7.3,0,0,0,5.23-2.11A6.81,6.81,0,0,0,727,118.69Z"/><path class="cls-1" d="M773.75,120.64a13.52,13.52,0,0,1-4.06,9.88,13.36,13.36,0,0,1-9.85,4.09h-2a13.36,13.36,0,0,1-9.85-4.09,13.52,13.52,0,0,1-4.06-9.88V95A13.31,13.31,0,0,1,748,85.21a13.47,13.47,0,0,1,9.85-4h2a13.47,13.47,0,0,1,9.85,4A13.31,13.31,0,0,1,773.75,95v25.61Zm-9.23-1.37V96.72a7.62,7.62,0,0,0-1.62-4.94,4.87,4.87,0,0,0-3.9-2,5,5,0,0,0-4,2,7.46,7.46,0,0,0-1.69,4.91v22.56a7.24,7.24,0,0,0,1.69,4.81,5,5,0,0,0,4,2,4.89,4.89,0,0,0,3.9-2A7.38,7.38,0,0,0,764.52,119.27Z"/><path class="cls-1" d="M828.48,120.83A13.06,13.06,0,0,1,824.36,131a15.15,15.15,0,0,1-10.63,3.77q-7.67,0-11.89-5.4a24.77,24.77,0,0,1-3.9-8.45,1.5,1.5,0,0,1,1-2.08l4.81-1.62a3.09,3.09,0,0,1,.59-0.06,1.62,1.62,0,0,1,1.69,1.23q2.21,8.13,7.67,8.13A5.76,5.76,0,0,0,818,125a5.58,5.58,0,0,0,1.53-4.13q0-3.44-5.33-8.06-4.87-4.09-9.81-8.19Q799,99.32,799,94.18a12.11,12.11,0,0,1,4.16-9.69,13.66,13.66,0,0,1,9.36-3.31,13.43,13.43,0,0,1,11,5.33,19.2,19.2,0,0,1,3.25,6.37,2.44,2.44,0,0,1,.07.58A1.53,1.53,0,0,1,825.75,95l-4.23,1.37a1.14,1.14,0,0,1-.52.13,1.64,1.64,0,0,1-1.62-1.17q-2.92-6.89-6.82-6.89A4.64,4.64,0,0,0,809,90.22a5.88,5.88,0,0,0-1.53,4q0,2.67,5.46,7.08,8.84,7.15,10.14,8.45Q828.48,115.31,828.48,120.83Z"/><path class="cls-1" d="M863.84,88A1.58,1.58,0,0,1,862,89.76h-8a1.73,1.73,0,0,0-1.2.52,1.58,1.58,0,0,0-.55,1.17v40.69a1.5,1.5,0,0,1-1.62,1.75h-5.33a1.55,1.55,0,0,1-1.75-1.75V91.45a1.47,1.47,0,0,0-1.62-1.69h-8A1.55,1.55,0,0,1,832.19,88V83.59a1.52,1.52,0,0,1,1.75-1.69H862a1.55,1.55,0,0,1,1.82,1.69V88Z"/><path class="cls-1" d="M897,132a1.36,1.36,0,0,1-.29,1.3,1.58,1.58,0,0,1-1.28.58h-5.89q-1.31,0-1.7-1.87l-1.57-7.68a1.71,1.71,0,0,0-1.69-1.69h-7.93a1.75,1.75,0,0,0-1.88,1.69L873.39,132q-0.39,1.89-1.88,1.88h-5.78a1.41,1.41,0,0,1-1.17-.58,1.57,1.57,0,0,1-.33-1.3l9.55-48.3q0.39-1.82,1.82-1.82h9.29q1.43,0,1.82,1.82Zm-13.13-19.83-3.05-17q-0.26-1.36-.71-1.36t-0.65,1.36l-2.79,17q-0.33,1.89,1.43,1.88h4.22A1.59,1.59,0,0,0,883.86,112.19Z"/><path class="cls-1" d="M930.14,83.59L919,112.45a4.1,4.1,0,0,0-.39,1.56v18.14a1.52,1.52,0,0,1-1.69,1.75h-5.66a1.55,1.55,0,0,1-1.75-1.75V114a4.11,4.11,0,0,0-.39-1.56L896.93,83.59a0.79,0.79,0,0,1-.13-0.46q0-1.23,1.56-1.23h6.32q1.11,0,1.76,1.68l6.83,17.55a0.92,0.92,0,1,0,1.82,0l5.64-17.55q0.52-1.69,1.69-1.69h6.36a1.18,1.18,0,0,1,1.43,1.23A1.51,1.51,0,0,1,930.14,83.59Z"/><path class="cls-1" d="M961.8,88.27a1.77,1.77,0,0,1-.58,1.33,1.85,1.85,0,0,1-1.3.55H947.5a1.85,1.85,0,0,0-1.3.55,1.7,1.7,0,0,0-.58,1.27v8.84a1.61,1.61,0,0,0,1.88,1.75H957a1.86,1.86,0,0,1,1.3.55,1.7,1.7,0,0,1,.59,1.27v4.42a1.89,1.89,0,0,1-1.88,1.88h-9.62a1.58,1.58,0,0,0-1.75,1.82V132a1.64,1.64,0,0,1-1.82,1.88h-5.27a1.89,1.89,0,0,1-1.88-1.88V83.72a1.7,1.7,0,0,1,.58-1.27,1.86,1.86,0,0,1,1.3-.55h21.38a1.64,1.64,0,0,1,1.88,1.82v4.55Z"/><path class="cls-1" d="M978.18,132a1.64,1.64,0,0,1-1.82,1.88h-5.59a1.64,1.64,0,0,1-1.82-1.88V83.72a1.61,1.61,0,0,1,1.82-1.82h5.59a1.61,1.61,0,0,1,1.82,1.82V132Z"/><path class="cls-1" d="M1012,132.14a1.52,1.52,0,0,1-1.69,1.75H988.45a1.5,1.5,0,0,1-1.62-1.75V83.59a1.47,1.47,0,0,1,1.63-1.69h5.79A1.52,1.52,0,0,1,996,83.59v40.23a1.52,1.52,0,0,0,1.76,1.69h12.54q1.69,0,1.69,1.88v4.75Z"/><path class="cls-1" d="M1057.74,132.14a1.55,1.55,0,0,1-1.76,1.75h-5a1.58,1.58,0,0,1-1.82-1.75V102.76a0.47,0.47,0,0,0-.46-0.59,0.63,0.63,0,0,0-.65.59l-7,29.38q-0.39,1.75-1.76,1.75h-3q-1.3,0-1.69-1.75l-6.82-29.45a0.76,0.76,0,0,0-.65-0.71,0.61,0.61,0,0,0-.65.71v29.45a1.58,1.58,0,0,1-1.82,1.75h-5.33a1.5,1.5,0,0,1-1.62-1.75V83.59a1.47,1.47,0,0,1,1.63-1.69h10q1.49,0,1.95,2l5.81,24.5q0.39,1.76.84,1.76t0.77-1.75L1044,83.58a1.71,1.71,0,0,1,1.69-1.69H1056a1.52,1.52,0,0,1,1.76,1.69v48.56Z"/><path class="cls-1" d="M1074.89,132a2,2,0,0,1-1.88,1.88h-5.52a1.77,1.77,0,0,1-1.33-.58,1.86,1.86,0,0,1-.55-1.3V125.9q0-1.69,1.89-1.69H1073q1.89,0,1.88,1.69V132Z"/></svg>