<?xml version="1.0" encoding="utf-8"?>
<!-- Generator: Adobe Illustrator 17.0.2, SVG Export Plug-In . SVG Version: 6.00 Build 0)  -->
<!DOCTYPE svg PUBLIC "-//W3C//DTD SVG 1.1//EN" "http://www.w3.org/Graphics/SVG/1.1/DTD/svg11.dtd">
<svg version="1.1" id="Calque_1" xmlns="http://www.w3.org/2000/svg" xmlns:xlink="http://www.w3.org/1999/xlink" x="0px" y="0px"
	 width="57.855px" height="87.063px" viewBox="21.073 6.469 57.855 87.063" enable-background="new 21.073 6.469 57.855 87.063"
	 xml:space="preserve">
<g id="Captions">
</g>
<path fill="#FFFFFF" d="M78.658,42.452c-9.738-6.681-21.252,14.334-21.252,14.334s-1.818-7.415-1.818-12.385V11.282
	c0,0,0-4.813-4.402-4.813s-4.402,4.813-4.402,4.813v23.58c0,0-0.597-2.084-4.071-1.451s-4.949,6.595-4.949,6.595
	s-0.763-1.736-1.87-1.736c-1.107,0-2.644,0.006-3.706,0.984c-1.458,1.343-2.035,4.022-2.035,4.022s-2.935-0.825-4.63,2.04
	c-1.695,2.865-4.448,11.469-4.448,13.759c0,2.29,10.621,19.821,10.621,20.702c0,0.881-1.543,10.584-1.543,10.584
	s2.343,3.169,11.74,3.169c9.397,0,11.74-3.169,11.74-3.169s0.06-3.557,0.504-4.144c0.444-0.586,1.889-1.188,2.598-2.111
	c0.71-0.924,8.705-16.382,9.126-17.307c0.422-0.925,2.688-9.345,6.19-15.16C74.946,46.831,80.171,43.686,78.658,42.452z"/>
</svg>
