<?xml version="1.0" encoding="utf-8"?>
<!-- Generator: Adobe Illustrator 17.0.2, SVG Export Plug-In . SVG Version: 6.00 Build 0)  -->
<!DOCTYPE svg PUBLIC "-//W3C//DTD SVG 1.1//EN" "http://www.w3.org/Graphics/SVG/1.1/DTD/svg11.dtd">
<svg version="1.1" id="Calque_1" xmlns="http://www.w3.org/2000/svg" xmlns:xlink="http://www.w3.org/1999/xlink" x="0px" y="0px"
	 width="50px" height="50px" viewBox="0 0 50 50" enable-background="new 0 0 50 50" xml:space="preserve">
<path fill="#FFFFFF" d="M0,0v50l25-25L50,0H0z M13.711,24.065c-0.19,0.19-0.333,0.285-0.428,0.285c-0.158,0-0.317-0.079-0.475-0.238
	L6.11,17.651l-0.142-0.143c-0.063-0.127-0.095-0.222-0.095-0.285c0-0.032,0.032-0.111,0.095-0.238l0.095-0.095
	c0.887-0.95,1.583-1.678,2.09-2.185c0.19-0.19,0.317-0.285,0.38-0.285c0.127,0,0.285,0.095,0.475,0.285l3.8,3.706l9.501-12.21
	c0.063-0.063,0.158-0.095,0.285-0.095c0.095,0,0.206,0.032,0.333,0.095l2.613,2.09c0.063,0.127,0.095,0.222,0.095,0.285
	c0,0.063-0.032,0.158-0.095,0.285L13.711,24.065z"/>
</svg>
