<?xml version="1.0" encoding="utf-8"?>
<!-- Generator: Adobe Illustrator 17.0.2, SVG Export Plug-In . SVG Version: 6.00 Build 0)  -->
<!DOCTYPE svg PUBLIC "-//W3C//DTD SVG 1.1//EN" "http://www.w3.org/Graphics/SVG/1.1/DTD/svg11.dtd">
<svg version="1.1" id="Calque_1" xmlns="http://www.w3.org/2000/svg" xmlns:xlink="http://www.w3.org/1999/xlink" x="0px" y="0px"
	 width="50px" height="50px" viewBox="0 0 50 50" enable-background="new 0 0 50 50" xml:space="preserve">
<path fill="#FFFFFF" d="M0,0l25,25l25,25V0H0z M45.766,8.435L33.878,23.713c-0.191,0.191-0.334,0.286-0.43,0.286
	c-0.159,0-0.318-0.08-0.477-0.239l-6.732-6.493l-0.143-0.143C26.032,16.997,26,16.901,26,16.838c0-0.032,0.032-0.111,0.096-0.239
	l0.095-0.095c0.891-0.955,1.591-1.687,2.101-2.196c0.191-0.191,0.318-0.286,0.382-0.286c0.127,0,0.286,0.095,0.477,0.286
	l3.819,3.724l9.549-12.27c0.064-0.064,0.159-0.096,0.286-0.096c0.095,0,0.207,0.032,0.334,0.096l2.626,2.101
	c0.064,0.127,0.096,0.223,0.096,0.286S45.83,8.308,45.766,8.435z"/>
</svg>
