<?xml version="1.0" standalone="no"?>
<!DOCTYPE svg PUBLIC "-//W3C//DTD SVG 20010904//EN"
 "http://www.w3.org/TR/2001/REC-SVG-20010904/DTD/svg10.dtd">
<svg version="1.0" xmlns="http://www.w3.org/2000/svg"
 width="182.000000pt" height="72.000000pt" viewBox="0 0 182.000000 72.000000"
 preserveAspectRatio="xMidYMid meet">
<metadata>
Created by potrace 1.10, written by Peter Selinger 2001-2011
</metadata>
<g transform="translate(0.000000,72.000000) scale(0.100000,-0.100000)"
fill="#ffffff" stroke="none">
<path d="M32 708 c-46 -23 -41 -98 7 -118 69 -28 132 45 89 103 -17 22 -67 30
-96 15z"/>
<path d="M1037 699 c-96 -22 -180 -89 -229 -181 -20 -38 -23 -57 -23 -163 0
-106 3 -126 24 -169 55 -111 149 -166 295 -173 57 -3 110 1 141 9 47 13 50 15
48 43 -5 74 -5 73 -80 58 -135 -28 -249 25 -288 136 -34 96 -8 229 56 288 56
51 153 71 241 50 l58 -14 10 36 c17 63 15 68 -40 80 -59 13 -159 13 -213 0z"/>
<path d="M1526 695 c-90 -32 -136 -91 -136 -172 0 -102 42 -149 183 -208 37
-15 79 -39 92 -53 47 -47 25 -114 -46 -140 -36 -14 -124 -5 -175 17 l-42 19
-13 -51 c-14 -60 -6 -70 73 -86 109 -24 228 -5 289 46 64 55 86 150 50 228
-23 52 -34 60 -154 120 -107 53 -144 88 -132 124 19 60 89 81 186 57 34 -9 63
-15 64 -14 8 14 25 90 20 97 -17 29 -194 39 -259 16z"/>
<path d="M383 680 c-55 -12 -123 -47 -123 -64 0 -7 7 -30 15 -49 l15 -36 42
24 c92 50 172 39 205 -30 37 -77 -15 -166 -191 -331 -98 -92 -106 -101 -106
-136 l0 -38 226 0 225 0 -3 51 -3 51 -127 -1 c-71 0 -128 1 -128 3 0 1 42 45
93 97 112 113 147 176 147 260 0 32 -5 70 -11 86 -13 34 -55 80 -91 99 -35 18
-131 26 -185 14z"/>
<path d="M10 265 l0 -245 60 0 60 0 0 245 0 245 -60 0 -60 0 0 -245z"/>
</g>
</svg>
