<?xml version="1.0" encoding="UTF-8" standalone="no"?>
<svg width="303px" height="162px" viewBox="0 0 303 162" version="1.1" xmlns="http://www.w3.org/2000/svg" xmlns:xlink="http://www.w3.org/1999/xlink">
    <!-- Generator: Sketch 3.8.3 (29802) - http://www.bohemiancoding.com/sketch -->
    <title>Bitmap Copy</title>
    <desc>Created with Sketch.</desc>
    <defs></defs>
    <g id="09_entities" stroke="none" stroke-width="1" fill="none" fill-rule="evenodd">
        <g id="09_07_create_entity" transform="translate(-30.000000, -17.000000)">
            <g id="Bitmap-Copy" transform="translate(0.000000, -1.000000)">
                <g id="pequeño-dcha" transform="translate(217.000000, 34.000000)">
                    <g id="Group" fill="#21A8DF">
                        <path d="M28.459836,48.1797373 C25.5296909,50.4886005 26.1833101,54.2241025 27.4392988,57.1641656 C28.2559514,59.0762424 29.1500356,60.9625636 30.0067966,62.8593363 C30.6767563,64.3427123 31.2468162,65.9795023 32.3731952,67.2307042 C33.1631088,68.1080759 34.4007144,68.7359165 35.6446334,68.9033282 C35.7241076,69.1381152 35.7903979,69.376075 35.8297636,69.6101154 C36.5951665,74.1582267 39.1240414,79.0019681 42.380439,82.4627432 C44.0846768,84.2734771 47.1238203,86.3815209 46.8967247,89.1429742 C46.7929255,90.405934 46.3502471,91.9830008 44.9328962,92.3566443 C44.0248855,92.5960972 43.0635825,92.5346943 42.1375601,92.6808296 L42.1375601,96.3176016 C42.1375601,100.804683 49.3756497,106.020575 58.707549,106.020575 C68.0394483,106.020575 75.2773523,100.804683 75.2773523,96.3176016 L75.2773523,92.6533942 C74.4098214,92.5410399 73.5166656,92.57986 72.669746,92.3564577 C71.2523951,91.9828142 70.8095309,90.4057474 70.7062888,89.1427875 C70.4791933,86.3813342 73.5185225,84.2732905 75.2222031,82.4625565 C78.4789721,79.0017815 81.007847,74.1580401 81.7730642,69.6099288 C81.8126156,69.3758883 81.8785346,69.1379285 81.9583801,68.9031416 C83.2022991,68.7357298 84.4400904,68.1078893 85.2296327,67.2305176 C86.3560117,65.9793157 86.9262573,64.3425257 87.5960312,62.8591497 C88.4526066,60.9621903 89.3470622,59.0760558 90.1633434,57.1639789 C91.4193321,54.2239158 92.0731369,50.4884138 89.1428062,48.1795507 C88.3187261,47.5302471 87.2372834,47.2202462 86.1680961,47.2338705 C85.403993,47.2435756 84.5071235,41.1693488 84.3903263,40.5741694 C83.6015267,36.5521825 83.6806295,32.9062654 83.9561894,28.8202626 C83.9764293,28.5177271 83.6163817,28.4051861 83.3690463,28.5069022 L81.5151446,29.2678136 C80.3343593,25.0978251 79.1533883,20.9280231 77.9729743,16.7580346 C77.9139258,16.5488166 77.6049422,16.400255 77.3999434,16.5409779 C76.4293561,17.2072653 75.4593258,17.8735527 74.4891098,18.5398401 C72.732694,14.6901174 70.9762781,10.8405814 69.2194909,6.99085866 C69.1091926,6.74935281 68.6585296,6.75681822 68.5456318,6.99085866 C67.8843994,8.3603872 67.2233528,9.73010237 66.5624918,11.0996309 C62.9800273,8.25344527 60.4290557,4.50599863 59.2180033,0.257063405 C59.1661966,0.0754674299 58.9782811,-0.0103847269 58.8013211,0.00100001563 C58.6245468,-0.0103847269 58.4366313,0.0754674299 58.3848245,0.257063405 C57.1739579,4.50599863 54.6228005,8.25344527 51.0401504,11.0996309 C50.378918,9.73010237 49.7180571,8.3603872 49.0571961,6.99085866 C48.9441125,6.75681822 48.4934495,6.74935281 48.3831513,6.99085866 C46.6265498,10.8405814 44.8701339,14.690304 43.1135324,18.5398401 C42.1433164,17.8735527 41.1732861,17.2072653 40.2028844,16.5409779 C39.9978857,16.400255 39.6889021,16.5488166 39.6296679,16.7580346 C38.4490682,20.9280231 37.2682829,25.0978251 36.0876832,29.2678136 L34.2337816,28.5069022 C33.9862604,28.4053727 33.6262128,28.5179137 33.6466384,28.8202626 C33.9220126,32.906452 34.0011154,36.5521825 33.2123159,40.5741694 C33.0953329,41.1693488 32.1984634,47.2437622 31.4347317,47.2340572 C30.3653587,47.2204328 29.2839161,47.5304337 28.459836,48.1797373 Z" id="Shape"></path>
                        <path d="M7.10542736e-15,125.912837 C7.10542736e-15,126.943623 115.905063,126.943623 115.905063,125.912837 L115.905063,121.553186 C115.905063,105.59047 103.030623,92.6501241 87.1489763,92.6501241 L79.9992738,92.6501241 C79.9992738,92.6501241 79.9630648,96.8680779 79.8945462,97.3408246 L86.984086,97.3408246 C99.8208324,97.3408246 110.264256,107.627779 110.264256,120.272122 C110.264256,121.107128 109.590768,121.78368 108.76056,121.78368 C107.929981,121.78368 107.256493,121.107128 107.256493,120.272122 C107.256493,109.294618 98.1624595,100.36338 86.9842717,100.36338 L81.1369797,100.36338 L79.4433261,100.36338 C79.2934765,100.36338 79.1491975,100.340611 79.0125316,100.299551 C78.588979,101.230487 78.0334027,102.136601 77.3547157,103.004081 L82.9964519,103.004081 C89.1380583,103.016212 94.1980363,104.556698 97.6969415,107.46466 C101.328056,110.481804 103.24732,114.910655 103.24732,120.272122 C103.24732,121.107128 102.573832,121.78368 101.743624,121.78368 C100.913045,121.78368 100.239557,121.107128 100.239557,120.272122 C100.239557,112.195487 95.2336142,107.195532 86.3731749,106.209912 C85.3021307,106.090839 84.17798,106.026823 82.9962663,106.026823 L74.2815915,106.026823 C73.89889,106.32264 73.499291,106.609871 73.0822374,106.887211 C68.8847767,109.680579 63.4779349,111.218826 57.8586668,111.218826 C52.2390274,111.218826 46.8325569,109.680579 42.6349106,106.887211 C42.2180427,106.609871 41.8180723,106.32264 41.4355565,106.026823 L32.9089829,106.026823 C31.7272692,106.026823 30.6033041,106.091026 29.5320743,106.209912 C20.6714493,107.195159 15.6655063,112.195301 15.6655063,120.272122 C15.6655063,121.107128 14.9922042,121.78368 14.1618108,121.78368 C13.3314173,121.78368 12.6581153,121.107128 12.6581153,120.272122 C12.6581153,114.910469 14.5773789,110.481804 18.2083077,107.46466 C21.7073985,104.557072 26.7673766,103.016399 32.8432496,103.005201 C32.8651607,103.005201 38.3624323,103.004081 38.3624323,103.004081 C37.6995287,102.156197 37.1528654,101.27192 36.7332122,100.36338 L34.7680838,100.36338 L28.9207918,100.36338 C17.7424183,100.36338 8.64838445,109.294618 8.64838445,120.272122 C8.64838445,121.107128 7.97508242,121.78368 7.14468896,121.78368 C6.31429551,121.78368 5.64099348,121.107128 5.64099348,120.272122 C5.64099348,107.627779 16.0844167,97.3408246 28.9209775,97.3408246 L35.8229732,97.3408246 C35.7544546,96.8680779 35.7182456,92.6501241 35.7182456,92.6501241 L28.7564586,92.6501241 C12.874441,92.6499374 7.10542736e-15,105.590284 7.10542736e-15,121.553186 L7.10542736e-15,125.912837 Z" id="Shape"></path>
                    </g>
                    <path d="M45.8221912,59.5083604 C45.7194972,59.4030692 45.6845257,59.2487534 45.7311544,59.1094793 C45.777783,58.9702052 45.8982402,58.8688136 46.0425669,58.8465298 L48.5982594,58.4548909 L49.7445463,56.0042233 C49.8089382,55.8666205 49.9466036,55.7791563 50.0981466,55.7791563 C50.2496896,55.7791563 50.3873551,55.8666205 50.451747,56.0042233 L51.5980339,58.4548909 L54.1537263,58.8465298 C54.298053,58.8688136 54.4185103,58.9702052 54.4651389,59.1094793 C54.5117675,59.2487534 54.4767961,59.401955 54.3741021,59.5078033 L52.5133981,61.4225441 L52.9541496,64.1283619 C52.978019,64.2765495 52.9164026,64.4247372 52.7937249,64.5116443 C52.7265575,64.5589975 52.6477329,64.5829526 52.5689084,64.5829526 C52.5039614,64.5829526 52.4390144,64.5673539 52.3801735,64.5344852 L50.0987017,63.269319 L47.8183402,64.5344852 C47.6884462,64.6074649 47.5274664,64.5985513 47.4047887,64.5116443 C47.2826662,64.4252943 47.2204947,64.2765495 47.2443641,64.1283619 L47.6834503,61.4225441 L45.8221912,59.5083604 L45.8221912,59.5083604 Z M61.4305665,59.5083604 C61.3273174,59.4030692 61.2929011,59.2487534 61.3395297,59.1094793 C61.3861583,58.9702052 61.5066156,58.8688136 61.6509423,58.8465298 L64.2066347,58.4548909 L65.3523665,56.0042233 C65.4167584,55.8666205 65.5544239,55.7791563 65.7059669,55.7791563 C65.8575099,55.7791563 65.9951753,55.8666205 66.0601223,56.0042233 L67.2058541,58.4548909 L69.7615466,58.8465298 C69.9058733,58.8688136 70.0263305,58.9702052 70.0729592,59.1094793 C70.1195878,59.2487534 70.0846163,59.401955 69.9819223,59.5078033 L68.1206633,61.4231012 L68.5614147,64.1289189 C68.5852841,64.2771066 68.5236678,64.4252943 68.4009901,64.5122014 C68.3338227,64.5595546 68.2549981,64.5835097 68.1761735,64.5835097 C68.1112265,64.5835097 68.0468346,64.567911 67.9874386,64.5350423 L65.7059669,63.2698761 L63.4261604,64.5350423 C63.2962664,64.608022 63.1352867,64.5991084 63.012609,64.5122014 C62.8904864,64.4258514 62.8283149,64.2771066 62.8521843,64.1289189 L63.2912705,61.4231012 L61.4305665,59.5083604 L61.4305665,59.5083604 Z M65.6800871,72.5410516 C65.7567352,72.6575935 65.769702,72.8050784 65.7140889,72.9331877 C64.4793622,75.796996 61.5883442,77.6480752 58.3480872,77.6480752 C55.0383859,77.6480752 52.1297906,75.7883204 50.9385747,72.9106312 C50.8852668,72.7825219 50.8996744,72.6361938 50.9763225,72.5208086 C51.0532588,72.4060018 51.1820623,72.3365971 51.3197984,72.3365971 L51.3203747,72.3365971 L65.3354586,72.3545267 C65.4746355,72.3545267 65.6040152,72.4245097 65.6800871,72.5410516 L65.6800871,72.5410516 Z" id="Shape" fill="#17334F"></path>
                </g>
                <g id="pequeño-izda" transform="translate(30.000000, 34.000000)">
                    <g id="Group" fill="#21A8DF">
                        <path d="M28.459836,48.1797373 C25.5296909,50.4886005 26.1833101,54.2241025 27.4392988,57.1641656 C28.2559514,59.0762424 29.1500356,60.9625636 30.0067966,62.8593363 C30.6767563,64.3427123 31.2468162,65.9795023 32.3731952,67.2307042 C33.1631088,68.1080759 34.4007144,68.7359165 35.6446334,68.9033282 C35.7241076,69.1381152 35.7903979,69.376075 35.8297636,69.6101154 C36.5951665,74.1582267 39.1240414,79.0019681 42.380439,82.4627432 C44.0846768,84.2734771 47.1238203,86.3815209 46.8967247,89.1429742 C46.7929255,90.405934 46.3502471,91.9830008 44.9328962,92.3566443 C44.0248855,92.5960972 43.0635825,92.5346943 42.1375601,92.6808296 L42.1375601,96.3176016 C42.1375601,100.804683 49.3756497,106.020575 58.707549,106.020575 C68.0394483,106.020575 75.2773523,100.804683 75.2773523,96.3176016 L75.2773523,92.6533942 C74.4098214,92.5410399 73.5166656,92.57986 72.669746,92.3564577 C71.2523951,91.9828142 70.8095309,90.4057474 70.7062888,89.1427875 C70.4791933,86.3813342 73.5185225,84.2732905 75.2222031,82.4625565 C78.4789721,79.0017815 81.007847,74.1580401 81.7730642,69.6099288 C81.8126156,69.3758883 81.8785346,69.1379285 81.9583801,68.9031416 C83.2022991,68.7357298 84.4400904,68.1078893 85.2296327,67.2305176 C86.3560117,65.9793157 86.9262573,64.3425257 87.5960312,62.8591497 C88.4526066,60.9621903 89.3470622,59.0760558 90.1633434,57.1639789 C91.4193321,54.2239158 92.0731369,50.4884138 89.1428062,48.1795507 C88.3187261,47.5302471 87.2372834,47.2202462 86.1680961,47.2338705 C85.403993,47.2435756 84.5071235,41.1693488 84.3903263,40.5741694 C83.6015267,36.5521825 83.6806295,32.9062654 83.9561894,28.8202626 C83.9764293,28.5177271 83.6163817,28.4051861 83.3690463,28.5069022 L81.5151446,29.2678136 C80.3343593,25.0978251 79.1533883,20.9280231 77.9729743,16.7580346 C77.9139258,16.5488166 77.6049422,16.400255 77.3999434,16.5409779 C76.4293561,17.2072653 75.4593258,17.8735527 74.4891098,18.5398401 C72.732694,14.6901174 70.9762781,10.8405814 69.2194909,6.99085866 C69.1091926,6.74935281 68.6585296,6.75681822 68.5456318,6.99085866 C67.8843994,8.3603872 67.2233528,9.73010237 66.5624918,11.0996309 C62.9800273,8.25344527 60.4290557,4.50599863 59.2180033,0.257063405 C59.1661966,0.0754674299 58.9782811,-0.0103847269 58.8013211,0.00100001563 C58.6245468,-0.0103847269 58.4366313,0.0754674299 58.3848245,0.257063405 C57.1739579,4.50599863 54.6228005,8.25344527 51.0401504,11.0996309 C50.378918,9.73010237 49.7180571,8.3603872 49.0571961,6.99085866 C48.9441125,6.75681822 48.4934495,6.74935281 48.3831513,6.99085866 C46.6265498,10.8405814 44.8701339,14.690304 43.1135324,18.5398401 C42.1433164,17.8735527 41.1732861,17.2072653 40.2028844,16.5409779 C39.9978857,16.400255 39.6889021,16.5488166 39.6296679,16.7580346 C38.4490682,20.9280231 37.2682829,25.0978251 36.0876832,29.2678136 L34.2337816,28.5069022 C33.9862604,28.4053727 33.6262128,28.5179137 33.6466384,28.8202626 C33.9220126,32.906452 34.0011154,36.5521825 33.2123159,40.5741694 C33.0953329,41.1693488 32.1984634,47.2437622 31.4347317,47.2340572 C30.3653587,47.2204328 29.2839161,47.5304337 28.459836,48.1797373 Z" id="Shape"></path>
                        <path d="M-7.10542736e-15,125.912837 C-7.10542736e-15,126.943623 115.905063,126.943623 115.905063,125.912837 L115.905063,121.553186 C115.905063,105.59047 103.030623,92.6501241 87.1489763,92.6501241 L79.9992738,92.6501241 C79.9992738,92.6501241 79.9630648,96.8680779 79.8945462,97.3408246 L86.984086,97.3408246 C99.8208324,97.3408246 110.264256,107.627779 110.264256,120.272122 C110.264256,121.107128 109.590768,121.78368 108.76056,121.78368 C107.929981,121.78368 107.256493,121.107128 107.256493,120.272122 C107.256493,109.294618 98.1624595,100.36338 86.9842717,100.36338 L81.1369797,100.36338 L79.4433261,100.36338 C79.2934765,100.36338 79.1491975,100.340611 79.0125316,100.299551 C78.588979,101.230487 78.0334027,102.136601 77.3547157,103.004081 L82.9964519,103.004081 C89.1380583,103.016212 94.1980363,104.556698 97.6969415,107.46466 C101.328056,110.481804 103.24732,114.910655 103.24732,120.272122 C103.24732,121.107128 102.573832,121.78368 101.743624,121.78368 C100.913045,121.78368 100.239557,121.107128 100.239557,120.272122 C100.239557,112.195487 95.2336142,107.195532 86.3731749,106.209912 C85.3021307,106.090839 84.17798,106.026823 82.9962663,106.026823 L74.2815915,106.026823 C73.89889,106.32264 73.499291,106.609871 73.0822374,106.887211 C68.8847767,109.680579 63.4779349,111.218826 57.8586668,111.218826 C52.2390274,111.218826 46.8325569,109.680579 42.6349106,106.887211 C42.2180427,106.609871 41.8180723,106.32264 41.4355565,106.026823 L32.9089829,106.026823 C31.7272692,106.026823 30.6033041,106.091026 29.5320743,106.209912 C20.6714493,107.195159 15.6655063,112.195301 15.6655063,120.272122 C15.6655063,121.107128 14.9922042,121.78368 14.1618108,121.78368 C13.3314173,121.78368 12.6581153,121.107128 12.6581153,120.272122 C12.6581153,114.910469 14.5773789,110.481804 18.2083077,107.46466 C21.7073985,104.557072 26.7673766,103.016399 32.8432496,103.005201 C32.8651607,103.005201 38.3624323,103.004081 38.3624323,103.004081 C37.6995287,102.156197 37.1528654,101.27192 36.7332122,100.36338 L34.7680838,100.36338 L28.9207918,100.36338 C17.7424183,100.36338 8.64838445,109.294618 8.64838445,120.272122 C8.64838445,121.107128 7.97508242,121.78368 7.14468896,121.78368 C6.31429551,121.78368 5.64099348,121.107128 5.64099348,120.272122 C5.64099348,107.627779 16.0844167,97.3408246 28.9209775,97.3408246 L35.8229732,97.3408246 C35.7544546,96.8680779 35.7182456,92.6501241 35.7182456,92.6501241 L28.7564586,92.6501241 C12.874441,92.6499374 -7.10542736e-15,105.590284 -7.10542736e-15,121.553186 L-7.10542736e-15,125.912837 Z" id="Shape"></path>
                    </g>
                    <path d="M45.8221912,59.5083604 C45.7194972,59.4030692 45.6845257,59.2487534 45.7311544,59.1094793 C45.777783,58.9702052 45.8982402,58.8688136 46.0425669,58.8465298 L48.5982594,58.4548909 L49.7445463,56.0042233 C49.8089382,55.8666205 49.9466036,55.7791563 50.0981466,55.7791563 C50.2496896,55.7791563 50.3873551,55.8666205 50.451747,56.0042233 L51.5980339,58.4548909 L54.1537263,58.8465298 C54.298053,58.8688136 54.4185103,58.9702052 54.4651389,59.1094793 C54.5117675,59.2487534 54.4767961,59.401955 54.3741021,59.5078033 L52.5133981,61.4225441 L52.9541496,64.1283619 C52.978019,64.2765495 52.9164026,64.4247372 52.7937249,64.5116443 C52.7265575,64.5589975 52.6477329,64.5829526 52.5689084,64.5829526 C52.5039614,64.5829526 52.4390144,64.5673539 52.3801735,64.5344852 L50.0987017,63.269319 L47.8183402,64.5344852 C47.6884462,64.6074649 47.5274664,64.5985513 47.4047887,64.5116443 C47.2826662,64.4252943 47.2204947,64.2765495 47.2443641,64.1283619 L47.6834503,61.4225441 L45.8221912,59.5083604 L45.8221912,59.5083604 Z M61.4305665,59.5083604 C61.3273174,59.4030692 61.2929011,59.2487534 61.3395297,59.1094793 C61.3861583,58.9702052 61.5066156,58.8688136 61.6509423,58.8465298 L64.2066347,58.4548909 L65.3523665,56.0042233 C65.4167584,55.8666205 65.5544239,55.7791563 65.7059669,55.7791563 C65.8575099,55.7791563 65.9951753,55.8666205 66.0601223,56.0042233 L67.2058541,58.4548909 L69.7615466,58.8465298 C69.9058733,58.8688136 70.0263305,58.9702052 70.0729592,59.1094793 C70.1195878,59.2487534 70.0846163,59.401955 69.9819223,59.5078033 L68.1206633,61.4231012 L68.5614147,64.1289189 C68.5852841,64.2771066 68.5236678,64.4252943 68.4009901,64.5122014 C68.3338227,64.5595546 68.2549981,64.5835097 68.1761735,64.5835097 C68.1112265,64.5835097 68.0468346,64.567911 67.9874386,64.5350423 L65.7059669,63.2698761 L63.4261604,64.5350423 C63.2962664,64.608022 63.1352867,64.5991084 63.012609,64.5122014 C62.8904864,64.4258514 62.8283149,64.2771066 62.8521843,64.1289189 L63.2912705,61.4231012 L61.4305665,59.5083604 L61.4305665,59.5083604 Z M65.6800871,72.5410516 C65.7567352,72.6575935 65.769702,72.8050784 65.7140889,72.9331877 C64.4793622,75.796996 61.5883442,77.6480752 58.3480872,77.6480752 C55.0383859,77.6480752 52.1297906,75.7883204 50.9385747,72.9106312 C50.8852668,72.7825219 50.8996744,72.6361938 50.9763225,72.5208086 C51.0532588,72.4060018 51.1820623,72.3365971 51.3197984,72.3365971 L51.3203747,72.3365971 L65.3354586,72.3545267 C65.4746355,72.3545267 65.6040152,72.4245097 65.6800871,72.5410516 L65.6800871,72.5410516 Z" id="Shape" fill="#17334F"></path>
                </g>
                <path d="M104,165.502974 L104,231.89292 C104,233.159082 105.024819,234.185446 106.289076,234.185446 L244.59389,234.185446 C245.858147,234.185446 246.882966,233.159082 246.882966,231.89292 L246.882966,165.502974 C246.882966,145.895229 231.011888,130 211.433652,130 L202.619794,130 C202.619794,130 202.575157,135.181109 202.490691,135.761805 L211.230382,135.761805 C227.054992,135.761805 239.929212,148.39775 239.929212,163.929384 C239.929212,164.95506 239.098964,165.7861 238.075518,165.7861 C237.051615,165.7861 236.221367,164.95506 236.221367,163.929384 C236.221367,150.445205 225.010618,139.474551 211.230611,139.474551 L204.022311,139.474551 L201.934445,139.474551 C201.749717,139.474551 201.571855,139.446582 201.40338,139.396147 C200.881241,140.539659 200.19635,141.65268 199.359693,142.718246 L206.314592,142.718246 C206.341374,142.718246 206.367698,142.719392 206.395167,142.719622 C213.88571,142.733148 220.123441,144.625398 224.436747,148.197383 C228.913035,151.90348 231.279023,157.343644 231.279023,163.929384 C231.279023,164.95506 230.448775,165.7861 229.42533,165.7861 C228.401426,165.7861 227.571178,164.95506 227.571178,163.929384 C227.571178,154.008478 221.400059,147.866801 210.477276,146.656118 C209.156937,146.509855 207.771131,146.431221 206.314363,146.431221 L195.571272,146.431221 C195.099494,146.794586 194.606885,147.147406 194.092758,147.488076 C188.918302,150.919299 182.252971,152.808799 175.32577,152.808799 C168.398111,152.808799 161.733238,150.919299 156.558554,147.488076 C156.044656,147.147406 155.551589,146.794586 155.08004,146.431221 L144.568832,146.431221 C143.112065,146.431221 141.726487,146.510084 140.405919,146.656118 C129.482907,147.866342 123.311788,154.008249 123.311788,163.929384 C123.311788,164.95506 122.481769,165.7861 121.458094,165.7861 C120.43442,165.7861 119.604401,164.95506 119.604401,163.929384 C119.604401,157.343415 121.970389,151.90348 126.446448,148.197383 C130.759983,144.625857 136.997714,142.733377 144.487799,142.719622 C144.51481,142.719622 144.541135,142.718246 144.568603,142.718246 L151.291619,142.718246 C150.474419,141.676752 149.800515,140.590553 149.283184,139.474551 L146.860655,139.474551 L139.652355,139.474551 C125.872119,139.474551 114.66137,150.445205 114.66137,163.929384 C114.66137,164.95506 113.831352,165.7861 112.807677,165.7861 C111.784002,165.7861 110.953983,164.95506 110.953983,163.929384 C110.953983,148.39775 123.828203,135.761805 139.652584,135.761805 L148.161079,135.761805 C148.076612,135.181109 148.031975,130 148.031975,130 L139.449772,130 C119.871078,129.999771 104,145.894999 104,165.502974 L104,165.502974 Z" id="Shape" fill="#12364D"></path>
                <path d="M110,166.502974 L110,232.89292 C110,234.159082 111.024819,235.185446 112.289076,235.185446 L250.59389,235.185446 C251.858147,235.185446 252.882966,234.159082 252.882966,232.89292 L252.882966,166.502974 C252.882966,146.895229 237.011888,131 217.433652,131 L208.619794,131 C208.619794,131 208.575157,136.181109 208.490691,136.761805 L217.230382,136.761805 C233.054992,136.761805 245.929212,149.39775 245.929212,164.929384 C245.929212,165.95506 245.098964,166.7861 244.075518,166.7861 C243.051615,166.7861 242.221367,165.95506 242.221367,164.929384 C242.221367,151.445205 231.010618,140.474551 217.230611,140.474551 L210.022311,140.474551 L207.934445,140.474551 C207.749717,140.474551 207.571855,140.446582 207.40338,140.396147 C206.881241,141.539659 206.19635,142.65268 205.359693,143.718246 L212.314592,143.718246 C212.341374,143.718246 212.367698,143.719392 212.395167,143.719622 C219.88571,143.733148 226.123441,145.625398 230.436747,149.197383 C234.913035,152.90348 237.279023,158.343644 237.279023,164.929384 C237.279023,165.95506 236.448775,166.7861 235.42533,166.7861 C234.401426,166.7861 233.571178,165.95506 233.571178,164.929384 C233.571178,155.008478 227.400059,148.866801 216.477276,147.656118 C215.156937,147.509855 213.771131,147.431221 212.314363,147.431221 L201.571272,147.431221 C201.099494,147.794586 200.606885,148.147406 200.092758,148.488076 C194.918302,151.919299 188.252971,153.808799 181.32577,153.808799 C174.398111,153.808799 167.733238,151.919299 162.558554,148.488076 C162.044656,148.147406 161.551589,147.794586 161.08004,147.431221 L150.568832,147.431221 C149.112065,147.431221 147.726487,147.510084 146.405919,147.656118 C135.482907,148.866342 129.311788,155.008249 129.311788,164.929384 C129.311788,165.95506 128.481769,166.7861 127.458094,166.7861 C126.43442,166.7861 125.604401,165.95506 125.604401,164.929384 C125.604401,158.343415 127.970389,152.90348 132.446448,149.197383 C136.759983,145.625857 142.997714,143.733377 150.487799,143.719622 C150.51481,143.719622 150.541135,143.718246 150.568603,143.718246 L157.291619,143.718246 C156.474419,142.676752 155.800515,141.590553 155.283184,140.474551 L152.860655,140.474551 L145.652355,140.474551 C131.872119,140.474551 120.66137,151.445205 120.66137,164.929384 C120.66137,165.95506 119.831352,166.7861 118.807677,166.7861 C117.784002,166.7861 116.953983,165.95506 116.953983,164.929384 C116.953983,149.39775 129.828203,136.761805 145.652584,136.761805 L154.161079,136.761805 C154.076612,136.181109 154.031975,131 154.031975,131 L145.449772,131 C125.871078,130.999771 110,146.894999 110,166.502974 L110,166.502974 Z" id="Shape-Copy" fill="#12364D"></path>
                <path d="M103,171.502974 L103,237.89292 C103,239.159082 104.024819,240.185446 105.289076,240.185446 L243.59389,240.185446 C244.858147,240.185446 245.882966,239.159082 245.882966,237.89292 L245.882966,171.502974 C245.882966,151.895229 230.011888,136 210.433652,136 L201.619794,136 C201.619794,136 201.575157,141.181109 201.490691,141.761805 L210.230382,141.761805 C226.054992,141.761805 238.929212,154.39775 238.929212,169.929384 C238.929212,170.95506 238.098964,171.7861 237.075518,171.7861 C236.051615,171.7861 235.221367,170.95506 235.221367,169.929384 C235.221367,156.445205 224.010618,145.474551 210.230611,145.474551 L203.022311,145.474551 L200.934445,145.474551 C200.749717,145.474551 200.571855,145.446582 200.40338,145.396147 C199.881241,146.539659 199.19635,147.65268 198.359693,148.718246 L205.314592,148.718246 C205.341374,148.718246 205.367698,148.719392 205.395167,148.719622 C212.88571,148.733148 219.123441,150.625398 223.436747,154.197383 C227.913035,157.90348 230.279023,163.343644 230.279023,169.929384 C230.279023,170.95506 229.448775,171.7861 228.42533,171.7861 C227.401426,171.7861 226.571178,170.95506 226.571178,169.929384 C226.571178,160.008478 220.400059,153.866801 209.477276,152.656118 C208.156937,152.509855 206.771131,152.431221 205.314363,152.431221 L194.571272,152.431221 C194.099494,152.794586 193.606885,153.147406 193.092758,153.488076 C187.918302,156.919299 181.252971,158.808799 174.32577,158.808799 C167.398111,158.808799 160.733238,156.919299 155.558554,153.488076 C155.044656,153.147406 154.551589,152.794586 154.08004,152.431221 L143.568832,152.431221 C142.112065,152.431221 140.726487,152.510084 139.405919,152.656118 C128.482907,153.866342 122.311788,160.008249 122.311788,169.929384 C122.311788,170.95506 121.481769,171.7861 120.458094,171.7861 C119.43442,171.7861 118.604401,170.95506 118.604401,169.929384 C118.604401,163.343415 120.970389,157.90348 125.446448,154.197383 C129.759983,150.625857 135.997714,148.733377 143.487799,148.719622 C143.51481,148.719622 143.541135,148.718246 143.568603,148.718246 L150.291619,148.718246 C149.474419,147.676752 148.800515,146.590553 148.283184,145.474551 L145.860655,145.474551 L138.652355,145.474551 C124.872119,145.474551 113.66137,156.445205 113.66137,169.929384 C113.66137,170.95506 112.831352,171.7861 111.807677,171.7861 C110.784002,171.7861 109.953983,170.95506 109.953983,169.929384 C109.953983,154.39775 122.828203,141.761805 138.652584,141.761805 L147.161079,141.761805 C147.076612,141.181109 147.031975,136 147.031975,136 L138.449772,136 C118.871078,135.999771 103,151.894999 103,171.502974 L103,171.502974 Z" id="Shape-Copy-2" fill="#12364D"></path>
                <path d="M109,177.502974 L109,243.89292 C109,245.159082 110.024819,246.185446 111.289076,246.185446 L249.59389,246.185446 C250.858147,246.185446 251.882966,245.159082 251.882966,243.89292 L251.882966,177.502974 C251.882966,157.895229 236.011888,142 216.433652,142 L207.619794,142 C207.619794,142 207.575157,147.181109 207.490691,147.761805 L216.230382,147.761805 C232.054992,147.761805 244.929212,160.39775 244.929212,175.929384 C244.929212,176.95506 244.098964,177.7861 243.075518,177.7861 C242.051615,177.7861 241.221367,176.95506 241.221367,175.929384 C241.221367,162.445205 230.010618,151.474551 216.230611,151.474551 L209.022311,151.474551 L206.934445,151.474551 C206.749717,151.474551 206.571855,151.446582 206.40338,151.396147 C205.881241,152.539659 205.19635,153.65268 204.359693,154.718246 L211.314592,154.718246 C211.341374,154.718246 211.367698,154.719392 211.395167,154.719622 C218.88571,154.733148 225.123441,156.625398 229.436747,160.197383 C233.913035,163.90348 236.279023,169.343644 236.279023,175.929384 C236.279023,176.95506 235.448775,177.7861 234.42533,177.7861 C233.401426,177.7861 232.571178,176.95506 232.571178,175.929384 C232.571178,166.008478 226.400059,159.866801 215.477276,158.656118 C214.156937,158.509855 212.771131,158.431221 211.314363,158.431221 L200.571272,158.431221 C200.099494,158.794586 199.606885,159.147406 199.092758,159.488076 C193.918302,162.919299 187.252971,164.808799 180.32577,164.808799 C173.398111,164.808799 166.733238,162.919299 161.558554,159.488076 C161.044656,159.147406 160.551589,158.794586 160.08004,158.431221 L149.568832,158.431221 C148.112065,158.431221 146.726487,158.510084 145.405919,158.656118 C134.482907,159.866342 128.311788,166.008249 128.311788,175.929384 C128.311788,176.95506 127.481769,177.7861 126.458094,177.7861 C125.43442,177.7861 124.604401,176.95506 124.604401,175.929384 C124.604401,169.343415 126.970389,163.90348 131.446448,160.197383 C135.759983,156.625857 141.997714,154.733377 149.487799,154.719622 C149.51481,154.719622 149.541135,154.718246 149.568603,154.718246 L156.291619,154.718246 C155.474419,153.676752 154.800515,152.590553 154.283184,151.474551 L151.860655,151.474551 L144.652355,151.474551 C130.872119,151.474551 119.66137,162.445205 119.66137,175.929384 C119.66137,176.95506 118.831352,177.7861 117.807677,177.7861 C116.784002,177.7861 115.953983,176.95506 115.953983,175.929384 C115.953983,160.39775 128.828203,147.761805 144.652584,147.761805 L153.161079,147.761805 C153.076612,147.181109 153.031975,142 153.031975,142 L144.449772,142 C124.871078,141.999771 109,157.894999 109,177.502974 L109,177.502974 Z" id="Shape-Copy-3" fill="#12364D"></path>
                <path d="M111,164.502974 L111,230.89292 C111,232.159082 112.024819,233.185446 113.289076,233.185446 L251.59389,233.185446 C252.858147,233.185446 253.882966,232.159082 253.882966,230.89292 L253.882966,164.502974 C253.882966,144.895229 238.011888,129 218.433652,129 L209.619794,129 C209.619794,129 209.575157,134.181109 209.490691,134.761805 L218.230382,134.761805 C234.054992,134.761805 246.929212,147.39775 246.929212,162.929384 C246.929212,163.95506 246.098964,164.7861 245.075518,164.7861 C244.051615,164.7861 243.221367,163.95506 243.221367,162.929384 C243.221367,149.445205 232.010618,138.474551 218.230611,138.474551 L211.022311,138.474551 L208.934445,138.474551 C208.749717,138.474551 208.571855,138.446582 208.40338,138.396147 C207.881241,139.539659 207.19635,140.65268 206.359693,141.718246 L213.314592,141.718246 C213.341374,141.718246 213.367698,141.719392 213.395167,141.719622 C220.88571,141.733148 227.123441,143.625398 231.436747,147.197383 C235.913035,150.90348 238.279023,156.343644 238.279023,162.929384 C238.279023,163.95506 237.448775,164.7861 236.42533,164.7861 C235.401426,164.7861 234.571178,163.95506 234.571178,162.929384 C234.571178,153.008478 228.400059,146.866801 217.477276,145.656118 C216.156937,145.509855 214.771131,145.431221 213.314363,145.431221 L202.571272,145.431221 C202.099494,145.794586 201.606885,146.147406 201.092758,146.488076 C195.918302,149.919299 189.252971,151.808799 182.32577,151.808799 C175.398111,151.808799 168.733238,149.919299 163.558554,146.488076 C163.044656,146.147406 162.551589,145.794586 162.08004,145.431221 L151.568832,145.431221 C150.112065,145.431221 148.726487,145.510084 147.405919,145.656118 C136.482907,146.866342 130.311788,153.008249 130.311788,162.929384 C130.311788,163.95506 129.481769,164.7861 128.458094,164.7861 C127.43442,164.7861 126.604401,163.95506 126.604401,162.929384 C126.604401,156.343415 128.970389,150.90348 133.446448,147.197383 C137.759983,143.625857 143.997714,141.733377 151.487799,141.719622 C151.51481,141.719622 151.541135,141.718246 151.568603,141.718246 L158.291619,141.718246 C157.474419,140.676752 156.800515,139.590553 156.283184,138.474551 L153.860655,138.474551 L146.652355,138.474551 C132.872119,138.474551 121.66137,149.445205 121.66137,162.929384 C121.66137,163.95506 120.831352,164.7861 119.807677,164.7861 C118.784002,164.7861 117.953983,163.95506 117.953983,162.929384 C117.953983,147.39775 130.828203,134.761805 146.652584,134.761805 L155.161079,134.761805 C155.076612,134.181109 155.031975,129 155.031975,129 L146.449772,129 C126.871078,128.999771 111,144.894999 111,164.502974 L111,164.502974 Z" id="Shape-Copy-4" fill="#12364D"></path>
                <g id="grande-centro" transform="translate(108.000000, 18.000000)">
                    <g id="Group" fill="#21A8DF">
                        <path d="M35.0841082,59.1814096 C31.4719466,62.0174935 32.2777013,66.6059841 33.8260321,70.2174002 C34.8327677,72.566093 35.9349577,74.883149 36.9911372,77.2130431 C37.8170358,79.0351427 38.519782,81.0456879 39.9083354,82.5825973 C40.8821082,83.6603137 42.4077773,84.4315195 43.9412291,84.637159 C44.0392016,84.9255588 44.1209216,85.2178559 44.16945,85.5053386 C45.113007,91.091995 48.2304993,97.0417876 52.2448516,101.292818 C54.3457653,103.517027 58.0922957,106.106435 57.8123417,109.498456 C57.6843823,111.049809 57.1386667,112.986993 55.3914151,113.445957 C54.2720571,113.740088 53.0870025,113.664664 51.9454404,113.844169 L51.9454404,118.311385 C51.9454404,123.823075 60.8682579,130.229998 72.3722371,130.229998 C83.8762164,130.229998 92.7988049,123.823075 92.7988049,118.311385 L92.7988049,113.810468 C91.7293487,113.672458 90.6283033,113.720143 89.5842558,113.445728 C87.8370043,112.986764 87.2910597,111.049579 87.1637871,109.498227 C86.8838331,106.106206 90.6305924,103.516798 92.7308194,101.292589 C96.7456294,97.0415583 99.8631217,91.0917658 100.80645,85.5051093 C100.855207,85.2176266 100.936469,84.9253295 101.0349,84.6369298 C102.568352,84.4312902 104.094249,83.6600845 105.067564,82.582368 C106.456118,81.0454587 107.159093,79.0349134 107.984763,77.2128138 C109.040713,74.8826905 110.143361,72.5658638 111.149639,70.217171 C112.69797,66.6057549 113.503953,62.0172642 109.891563,59.1811804 C108.875671,58.3836106 107.542513,58.0028221 106.224463,58.0195575 C105.282509,58.0314786 104.176885,50.5702238 104.032902,49.8391372 C103.060503,44.8987439 103.158017,40.4202945 103.497716,35.4012675 C103.522667,35.029649 103.078815,34.8914097 102.773911,35.0163524 L100.488497,35.9510152 C99.032874,30.8288245 97.5770217,25.7068631 96.1218563,20.5846724 C96.0490637,20.3276802 95.6681614,20.1451952 95.4154475,20.3180516 C94.2189476,21.1364834 93.0231344,21.9549151 91.8270923,22.7733469 C89.6618555,18.0445537 87.4966187,13.3159897 85.3309241,8.58719647 C85.194953,8.29054361 84.6393943,8.29971372 84.5002185,8.58719647 C83.6850786,10.269452 82.8701676,11.9519368 82.0554855,13.6341923 C77.6391716,10.1380903 74.4944393,5.53492745 73.0015041,0.315762923 C72.9376389,0.0927001501 72.7059844,-0.0127560425 72.4878355,0.00122836565 C72.2699155,-0.0127560425 72.038261,0.0927001501 71.9743958,0.315762923 C70.4816895,5.53492745 67.3367282,10.1380903 62.9201854,13.6341923 C62.1050455,11.9519368 61.2903634,10.269452 60.4756814,8.58719647 C60.3362767,8.29971372 59.780718,8.29054361 59.6447469,8.58719647 C57.4792812,13.3159897 55.3140444,18.0447829 53.1485787,22.7733469 C51.9525366,21.9549151 50.7567234,21.1364834 49.5604524,20.3180516 C49.3077384,20.1451952 48.9268362,20.3276802 48.8538147,20.5846724 C47.3984203,25.7068631 45.942797,30.8288245 44.4874026,35.9510152 L42.2019893,35.0163524 C41.8968555,34.8916389 41.4530037,35.0298783 41.4781836,35.4012675 C41.8176535,40.4205237 41.9151681,44.8987439 40.9427688,49.8391372 C40.798557,50.5702238 39.6929334,58.0317079 38.7514365,58.0197868 C37.4331578,58.0030513 36.1,58.3838399 35.0841082,59.1814096 Z" id="Shape"></path>
                        <path d="M-1.42108547e-14,149.309425 L-1.42108547e-14,215.699371 C-1.42108547e-14,216.965533 1.02481923,217.991897 2.28907579,217.991897 L140.59389,217.991897 C141.858147,217.991897 142.882966,216.965533 142.882966,215.699371 L142.882966,149.309425 C142.882966,129.70168 127.011888,113.806452 107.433652,113.806452 L98.6197944,113.806452 C98.6197944,113.806452 98.5751574,118.98756 98.4906905,119.568257 L107.230382,119.568257 C123.054992,119.568257 135.929212,132.204201 135.929212,147.735835 C135.929212,148.761511 135.098964,149.592552 134.075518,149.592552 C133.051615,149.592552 132.221367,148.761511 132.221367,147.735835 C132.221367,134.251656 121.010618,123.281003 107.230611,123.281003 L100.022311,123.281003 L97.9344451,123.281003 C97.7497167,123.281003 97.5718555,123.253034 97.4033795,123.202598 C96.8812413,124.34611 96.1963499,125.459132 95.3596927,126.524698 L102.314592,126.524698 C102.341374,126.524698 102.367698,126.525844 102.395167,126.526073 C109.88571,126.539599 116.123441,128.43185 120.436747,132.003835 C124.913035,135.709932 127.279023,141.150096 127.279023,147.735835 C127.279023,148.761511 126.448775,149.592552 125.42533,149.592552 C124.401426,149.592552 123.571178,148.761511 123.571178,147.735835 C123.571178,137.814929 117.400059,131.673252 106.477276,130.462569 C105.156937,130.316306 103.771131,130.237673 102.314363,130.237673 L91.5712722,130.237673 C91.0994937,130.601038 90.6068846,130.953858 90.0927582,131.294527 C84.9183023,134.725751 78.2529715,136.615251 71.3257703,136.615251 C64.3981113,136.615251 57.7332383,134.725751 52.5585536,131.294527 C52.044656,130.953858 51.5515891,130.601038 51.0800395,130.237673 L40.5688324,130.237673 C39.1120646,130.237673 37.726487,130.316536 36.4059192,130.462569 C25.4829073,131.672794 19.3117879,137.8147 19.3117879,147.735835 C19.3117879,148.761511 18.481769,149.592552 17.4580943,149.592552 C16.4344196,149.592552 15.6044007,148.761511 15.6044007,147.735835 C15.6044007,141.149867 17.9703895,135.709932 22.4464483,132.003835 C26.7599827,128.432309 32.9977142,126.539828 40.4877991,126.526073 C40.5148102,126.526073 40.5411346,126.524698 40.5686035,126.524698 L47.2916191,126.524698 C46.474419,125.483203 45.8005151,124.397004 45.283184,123.281003 L42.8606551,123.281003 L35.6523554,123.281003 C21.8721192,123.281003 10.6613705,134.251656 10.6613705,147.735835 C10.6613705,148.761511 9.8313516,149.592552 8.80767691,149.592552 C7.78400222,149.592552 6.95398334,148.761511 6.95398334,147.735835 C6.95398334,132.204201 19.8282034,119.568257 35.6525843,119.568257 L44.161079,119.568257 C44.0766121,118.98756 44.0319751,113.806452 44.0319751,113.806452 L35.4497722,113.806452 C15.8710781,113.806222 -1.42108547e-14,129.701451 -1.42108547e-14,149.309425 L-1.42108547e-14,149.309425 Z" id="Shape"></path>
                    </g>
                    <path d="M56.4877012,73.0968837 C56.3611043,72.9675495 56.3179929,72.7779964 56.3754748,72.6069195 C56.4329566,72.4358426 56.5814513,72.3112986 56.7593713,72.2839263 L59.9099232,71.8028581 L61.3230182,68.7925893 C61.4023979,68.6235653 61.5721062,68.516129 61.7589221,68.516129 C61.9457381,68.516129 62.1154464,68.6235653 62.194826,68.7925893 L63.6079211,71.8028581 L66.758473,72.2839263 C66.9363929,72.3112986 67.0848877,72.4358426 67.1423695,72.6069195 C67.1998514,72.7779964 67.15674,72.9661809 67.0301431,73.0961994 L64.7363442,75.4481644 L65.2796844,78.7718461 C65.3091096,78.9538719 65.2331515,79.1358977 65.0819195,79.2426496 C64.9991183,79.3008158 64.9019466,79.330241 64.804775,79.330241 C64.724711,79.330241 64.644647,79.3110804 64.5721104,79.2707062 L61.7596064,77.7166438 L58.9484711,79.2707062 C58.7883431,79.3603505 58.5898939,79.3494016 58.438662,79.2426496 C58.2881143,79.136582 58.2114719,78.9538719 58.2408971,78.7718461 L58.7821844,75.4481644 L56.4877012,73.0968837 L56.4877012,73.0968837 Z M75.7290605,73.0968837 C75.6017793,72.9675495 75.5593522,72.7779964 75.616834,72.6069195 C75.6743159,72.4358426 75.8228106,72.3112986 76.0007306,72.2839263 L79.1512824,71.8028581 L80.5636932,68.7925893 C80.6430729,68.6235653 80.8127811,68.516129 80.9995971,68.516129 C81.1864131,68.516129 81.3561213,68.6235653 81.4361853,68.7925893 L82.8485961,71.8028581 L85.9991479,72.2839263 C86.1770679,72.3112986 86.3255626,72.4358426 86.3830445,72.6069195 C86.4405263,72.7779964 86.3974149,72.9661809 86.270818,73.0961994 L83.9763349,75.4488487 L84.5196751,78.7725304 C84.5491003,78.9545562 84.4731421,79.136582 84.3219102,79.2433339 C84.239109,79.3015001 84.1419373,79.3309253 84.0447656,79.3309253 C83.9647016,79.3309253 83.885322,79.3117647 83.8121011,79.2713906 L80.9995971,77.7173281 L78.1891461,79.2713906 C78.0290181,79.3610348 77.8305689,79.3500859 77.6793369,79.2433339 C77.5287893,79.1372663 77.4521468,78.9545562 77.4815721,78.7725304 L78.0228593,75.4488487 L75.7290605,73.0968837 L75.7290605,73.0968837 Z M80.9676935,89.1055437 C81.0621822,89.2486976 81.0781671,89.42986 81.0096096,89.5872227 C79.4874896,93.1049715 75.9235622,95.378738 71.9291075,95.378738 C67.8490446,95.378738 64.2634488,93.0943149 62.7949671,89.5595155 C62.7292513,89.4021528 62.7470124,89.2224112 62.841501,89.0806783 C62.9363449,88.9396557 63.0951285,88.8544028 63.2649239,88.8544028 L63.2656343,88.8544028 L80.5428498,88.8764265 C80.7144213,88.8764265 80.8739153,88.9623898 80.9676935,89.1055437 L80.9676935,89.1055437 Z" id="Shape" fill="#17334F"></path>
                </g>
            </g>
        </g>
    </g>
</svg>