<?xml version="1.0" encoding="UTF-8" standalone="no"?>
<svg width="143px" height="70px" viewBox="0 0 143 162" version="1.1" xmlns="http://www.w3.org/2000/svg" xmlns:xlink="http://www.w3.org/1999/xlink" xmlns:sketch="http://www.bohemiancoding.com/sketch/ns">
    <!-- Generator: Sketch Beta 3.4.4 (17258) - http://www.bohemiancoding.com/sketch -->
    <defs></defs>
    <g id="06_profile" stroke="none" stroke-width="1" fill="none" fill-rule="evenodd" sketch:type="MSPage">
        <g id="06_00_profile" sketch:type="MSArtboardGroup" transform="translate(-108.000000, -73.000000)">
            <g id="Bitmap-Copy" sketch:type="MSLayerGroup" transform="translate(0.000000, 55.000000)">
                <g id="sports35" transform="translate(108.000000, 18.000000)" sketch:type="MSShapeGroup">
                    <g id="Group" fill="#21a8df">
                        <path d="M38.7514365,58.0197868 C37.4331578,58.0030513 36.1,58.3838399 35.0841082,59.1814096 C31.4719466,62.0174935 32.2777013,66.6059841 33.8260321,70.2174002 C34.8327677,72.566093 35.9349577,74.883149 36.9911372,77.2130431 C37.8170358,79.0351427 38.519782,81.0456879 39.9083354,82.5825973 C40.8821082,83.6603137 42.4077773,84.4315195 43.9412291,84.637159 C44.0392016,84.9255588 44.1209216,85.2178559 44.16945,85.5053386 C45.113007,91.091995 48.2304993,97.0417876 52.2448516,101.292818 C54.3457653,103.517027 58.0922957,106.106435 57.8123417,109.498456 C57.6843823,111.049809 57.1386667,112.986993 55.3914151,113.445957 C54.2720571,113.740088 53.0870025,113.664664 51.9454404,113.844169 L51.9454404,118.311385 C51.9454404,123.823075 60.8682579,130.229998 72.3722371,130.229998 C83.8762164,130.229998 92.7988049,123.823075 92.7988049,118.311385 L92.7988049,113.810468 C91.7293487,113.672458 90.6283033,113.720143 89.5842558,113.445728 C87.8370043,112.986764 87.2910597,111.049579 87.1637871,109.498227 C86.8838331,106.106206 90.6305924,103.516798 92.7308194,101.292589 C96.7456294,97.0415583 99.8631217,91.0917658 100.80645,85.5051093 C100.855207,85.2176266 100.936469,84.9253295 101.0349,84.6369298 C102.568352,84.4312902 104.094249,83.6600845 105.067564,82.582368 C106.456118,81.0454587 107.159093,79.0349134 107.984763,77.2128138 C109.040713,74.8826905 110.143361,72.5658638 111.149639,70.217171 C112.69797,66.6057549 113.503953,62.0172642 109.891563,59.1811804 C108.875671,58.3836106 107.542513,58.0028221 106.224463,58.0195575 C105.282509,58.0314786 104.176885,50.5702238 104.032902,49.8391372 C103.060503,44.8987439 103.158017,40.4202945 103.497716,35.4012675 C103.522667,35.029649 103.078815,34.8914097 102.773911,35.0163524 L100.488497,35.9510152 C99.032874,30.8288245 97.5770217,25.7068631 96.1218563,20.5846724 C96.0490637,20.3276802 95.6681614,20.1451952 95.4154475,20.3180516 C94.2189476,21.1364834 93.0231344,21.9549151 91.8270923,22.7733469 C89.6618555,18.0445537 87.4966187,13.3159897 85.3309241,8.58719647 C85.194953,8.29054361 84.6393943,8.29971372 84.5002185,8.58719647 C83.6850786,10.269452 82.8701676,11.9519368 82.0554855,13.6341923 C77.6391716,10.1380903 74.4944393,5.53492745 73.0015041,0.315762923 C72.9376389,0.0927001501 72.7059844,-0.0127560425 72.4878355,0.00122836565 C72.2699155,-0.0127560425 72.038261,0.0927001501 71.9743958,0.315762923 C70.4816895,5.53492745 67.3367282,10.1380903 62.9201854,13.6341923 C62.1050455,11.9519368 61.2903634,10.269452 60.4756814,8.58719647 C60.3362767,8.29971372 59.780718,8.29054361 59.6447469,8.58719647 C57.4792812,13.3159897 55.3140444,18.0447829 53.1485787,22.7733469 C51.9525366,21.9549151 50.7567234,21.1364834 49.5604524,20.3180516 C49.3077384,20.1451952 48.9268362,20.3276802 48.8538147,20.5846724 C47.3984203,25.7068631 45.942797,30.8288245 44.4874026,35.9510152 L42.2019893,35.0163524 C41.8968555,34.8916389 41.4530037,35.0298783 41.4781836,35.4012675 C41.8176535,40.4205237 41.9151681,44.8987439 40.9427688,49.8391372 C40.798557,50.5702238 39.6929334,58.0317079 38.7514365,58.0197868 L38.7514365,58.0197868 Z" id="Shape"></path>
                        <path d="M-1.42108547e-14,149.309425 L-1.42108547e-14,215.699371 C-1.42108547e-14,216.965533 1.02481923,217.991897 2.28907579,217.991897 L140.59389,217.991897 C141.858147,217.991897 142.882966,216.965533 142.882966,215.699371 L142.882966,149.309425 C142.882966,129.70168 127.011888,113.806452 107.433652,113.806452 L98.6197944,113.806452 C98.6197944,113.806452 98.5751574,118.98756 98.4906905,119.568257 L107.230382,119.568257 C123.054992,119.568257 135.929212,132.204201 135.929212,147.735835 C135.929212,148.761511 135.098964,149.592552 134.075518,149.592552 C133.051615,149.592552 132.221367,148.761511 132.221367,147.735835 C132.221367,134.251656 121.010618,123.281003 107.230611,123.281003 L100.022311,123.281003 L97.9344451,123.281003 C97.7497167,123.281003 97.5718555,123.253034 97.4033795,123.202598 C96.8812413,124.34611 96.1963499,125.459132 95.3596927,126.524698 L102.314592,126.524698 C102.341374,126.524698 102.367698,126.525844 102.395167,126.526073 C109.88571,126.539599 116.123441,128.43185 120.436747,132.003835 C124.913035,135.709932 127.279023,141.150096 127.279023,147.735835 C127.279023,148.761511 126.448775,149.592552 125.42533,149.592552 C124.401426,149.592552 123.571178,148.761511 123.571178,147.735835 C123.571178,137.814929 117.400059,131.673252 106.477276,130.462569 C105.156937,130.316306 103.771131,130.237673 102.314363,130.237673 L91.5712722,130.237673 C91.0994937,130.601038 90.6068846,130.953858 90.0927582,131.294527 C84.9183023,134.725751 78.2529715,136.615251 71.3257703,136.615251 C64.3981113,136.615251 57.7332383,134.725751 52.5585536,131.294527 C52.044656,130.953858 51.5515891,130.601038 51.0800395,130.237673 L40.5688324,130.237673 C39.1120646,130.237673 37.726487,130.316536 36.4059192,130.462569 C25.4829073,131.672794 19.3117879,137.8147 19.3117879,147.735835 C19.3117879,148.761511 18.481769,149.592552 17.4580943,149.592552 C16.4344196,149.592552 15.6044007,148.761511 15.6044007,147.735835 C15.6044007,141.149867 17.9703895,135.709932 22.4464483,132.003835 C26.7599827,128.432309 32.9977142,126.539828 40.4877991,126.526073 C40.5148102,126.526073 40.5411346,126.524698 40.5686035,126.524698 L47.2916191,126.524698 C46.474419,125.483203 45.8005151,124.397004 45.283184,123.281003 L42.8606551,123.281003 L35.6523554,123.281003 C21.8721192,123.281003 10.6613705,134.251656 10.6613705,147.735835 C10.6613705,148.761511 9.8313516,149.592552 8.80767691,149.592552 C7.78400222,149.592552 6.95398334,148.761511 6.95398334,147.735835 C6.95398334,132.204201 19.8282034,119.568257 35.6525843,119.568257 L44.161079,119.568257 C44.0766121,118.98756 44.0319751,113.806452 44.0319751,113.806452 L35.4497722,113.806452 C15.8710781,113.806222 -1.42108547e-14,129.701451 -1.42108547e-14,149.309425 L-1.42108547e-14,149.309425 Z" id="Shape"></path>
                    </g>
                    <path d="M56.4877012,73.0968837 C56.3611043,72.9675495 56.3179929,72.7779964 56.3754748,72.6069195 C56.4329566,72.4358426 56.5814513,72.3112986 56.7593713,72.2839263 L59.9099232,71.8028581 L61.3230182,68.7925893 C61.4023979,68.6235653 61.5721062,68.516129 61.7589221,68.516129 C61.9457381,68.516129 62.1154464,68.6235653 62.194826,68.7925893 L63.6079211,71.8028581 L66.758473,72.2839263 C66.9363929,72.3112986 67.0848877,72.4358426 67.1423695,72.6069195 C67.1998514,72.7779964 67.15674,72.9661809 67.0301431,73.0961994 L64.7363442,75.4481644 L65.2796844,78.7718461 C65.3091096,78.9538719 65.2331515,79.1358977 65.0819195,79.2426496 C64.9991183,79.3008158 64.9019466,79.330241 64.804775,79.330241 C64.724711,79.330241 64.644647,79.3110804 64.5721104,79.2707062 L61.7596064,77.7166438 L58.9484711,79.2707062 C58.7883431,79.3603505 58.5898939,79.3494016 58.438662,79.2426496 C58.2881143,79.136582 58.2114719,78.9538719 58.2408971,78.7718461 L58.7821844,75.4481644 L56.4877012,73.0968837 L56.4877012,73.0968837 Z M75.7290605,73.0968837 C75.6017793,72.9675495 75.5593522,72.7779964 75.616834,72.6069195 C75.6743159,72.4358426 75.8228106,72.3112986 76.0007306,72.2839263 L79.1512824,71.8028581 L80.5636932,68.7925893 C80.6430729,68.6235653 80.8127811,68.516129 80.9995971,68.516129 C81.1864131,68.516129 81.3561213,68.6235653 81.4361853,68.7925893 L82.8485961,71.8028581 L85.9991479,72.2839263 C86.1770679,72.3112986 86.3255626,72.4358426 86.3830445,72.6069195 C86.4405263,72.7779964 86.3974149,72.9661809 86.270818,73.0961994 L83.9763349,75.4488487 L84.5196751,78.7725304 C84.5491003,78.9545562 84.4731421,79.136582 84.3219102,79.2433339 C84.239109,79.3015001 84.1419373,79.3309253 84.0447656,79.3309253 C83.9647016,79.3309253 83.885322,79.3117647 83.8121011,79.2713906 L80.9995971,77.7173281 L78.1891461,79.2713906 C78.0290181,79.3610348 77.8305689,79.3500859 77.6793369,79.2433339 C77.5287893,79.1372663 77.4521468,78.9545562 77.4815721,78.7725304 L78.0228593,75.4488487 L75.7290605,73.0968837 L75.7290605,73.0968837 Z M80.9676935,89.1055437 C81.0621822,89.2486976 81.0781671,89.42986 81.0096096,89.5872227 C79.4874896,93.1049715 75.9235622,95.378738 71.9291075,95.378738 C67.8490446,95.378738 64.2634488,93.0943149 62.7949671,89.5595155 C62.7292513,89.4021528 62.7470124,89.2224112 62.841501,89.0806783 C62.9363449,88.9396557 63.0951285,88.8544028 63.2649239,88.8544028 L63.2656343,88.8544028 L80.5428498,88.8764265 C80.7144213,88.8764265 80.8739153,88.9623898 80.9676935,89.1055437 L80.9676935,89.1055437 Z" id="Shape" fill="#17334F"></path>
                </g>
            </g>
        </g>
    </g>
</svg>