<?xml version="1.0" encoding="utf-8"?>
<!-- Generator: Adobe Illustrator 16.0.0, SVG Export Plug-In . SVG Version: 6.00 Build 0)  -->
<!DOCTYPE svg PUBLIC "-//W3C//DTD SVG 1.1//EN" "http://www.w3.org/Graphics/SVG/1.1/DTD/svg11.dtd">
<svg version="1.1" id="Layer_1" xmlns="http://www.w3.org/2000/svg" xmlns:xlink="http://www.w3.org/1999/xlink" x="0px" y="0px"
	 width="300px" height="300px" viewBox="0 0 300 300" enable-background="new 0 0 300 300" xml:space="preserve">
<g>
	<path fill="#020202" d="M246.065,8l0.377,8.375c0.234,4.805-0.934,8.479-3.523,11.263c-3.491,3.719-9.16,5.591-13.917,6.434
		c0.177-4.286,0.344-8.606,0.477-13.076H149.94h-0.089H70.324c0.133,4.47,0.312,8.791,0.489,13.076
		c-4.769-0.843-10.427-2.726-13.929-6.446c-2.612-2.772-3.78-6.457-3.546-11.263L53.727,8H11.584l0.145,8.132
		c2.334,139.901,59.329,173.77,85.419,181.937l-4.28,6.317l12.562,9.207l4.291-6.365c8.582,16.611,16.063,27.215,19.253,35.694
		h-5.825v12.673h7.115c-1.979,13.449-20.587,28.363-32.028,36.373c16.441-1.31,33.614-2.034,51.489-2.034
		c18.015,0,35.314,0.736,51.872,2.065c-11.44-8.002-30.099-22.937-32.081-36.404h7.115v-12.673h-5.815
		c3.191-8.467,10.673-19.048,19.255-35.694l4.28,6.365l12.584-9.207l-4.292-6.317c26.102-8.167,83.097-42.036,85.431-181.937
		L288.208,8H246.065z M27.298,26.795h11.238c1.056,5.741,3.558,10.79,7.404,14.867c7.692,8.144,18.731,10.604,25.757,11.367
		c4.102,61.57,15.03,102.682,26.379,131.375C75.743,175.902,31.21,144.274,27.298,26.795z M201.716,184.404
		c11.35-28.693,22.277-69.805,26.38-131.375c7.036-0.763,18.064-3.223,25.745-11.367c3.868-4.078,6.359-9.126,7.415-14.867h11.238
		C268.604,144.274,224.06,175.902,201.716,184.404z"/>
</g>
</svg>
