<?xml version="1.0" encoding="UTF-8" standalone="no"?>
<svg width="120px" height="24px" viewBox="0 0 120 24" version="1.1" xmlns="http://www.w3.org/2000/svg" xmlns:xlink="http://www.w3.org/1999/xlink" xmlns:sketch="http://www.bohemiancoding.com/sketch/ns">
    <!-- Generator: Sketch 3.5.2 (25235) - http://www.bohemiancoding.com/sketch -->
    <title>Artboard 6</title>
    <desc>Created with Sketch.</desc>
    <defs>
        <path id="path-1" d="M0,0.1981 L117.782423,0.1981 L117.782423,21 L0,21"></path>
        <path id="path-3" d="M0,0.1981 L117.782423,0.1981 L117.782423,21 L0,21"></path>
    </defs>
    <g id="13_login" stroke="none" stroke-width="1" fill="none" fill-rule="evenodd" sketch:type="MSPage">
        <g id="Artboard-6" sketch:type="MSArtboardGroup">
            <g id="Page-1" sketch:type="MSLayerGroup" transform="translate(1.000000, 1.000000)">
                <g id="Group-3">
                    <mask id="mask-2" sketch:name="Clip 2" fill="white">
                        <use xlink:href="#path-1"></use>
                    </mask>
                    <g id="Clip-2"></g>
                    <path d="M44.2266565,20.8125867 C43.7012534,20.67492 42.8663917,19.9289533 42.8663917,19.3843533 C42.8663917,18.6460867 47.4772534,10.4068533 47.4772534,9.77032 C47.4772534,9.51552 47.2487158,9.46535333 46.8415458,9.46535333 C46.4597949,9.46535333 46.0780439,9.51552 46.0780439,9.51552 C45.8231545,9.51552 45.7219451,9.36292 45.7219451,9.18465333 C45.7219451,8.90512 46.9429885,6.43528667 48.5462494,6.43528667 C48.902115,6.43528667 49.1567711,6.38465333 49.2076091,6.28268667 C50.2756723,4.14442 50.7089609,2.92245333 51.6758146,1.98048667 C53.0491387,0.631353333 54.8555182,0.198053333 58.4689767,0.198053333 C59.3094352,0.198053333 59.5631585,0.27482 59.5631585,0.52892 C59.5631585,0.732853333 59.0538462,1.82742 58.7236328,2.31135333 C58.4435577,2.74442 57.985783,3.12615333 57.2733522,3.12615333 C56.1791704,3.12615333 55.0852217,3.58418667 54.4742336,4.65355333 C54.4742336,4.65355333 53.7874549,5.92615333 53.7874549,6.18095333 C53.7874549,6.18095333 53.7874549,6.43528667 53.9656209,6.43528667 L54.8555182,6.43528667 C55.6194866,6.43528667 85.9340597,6.05658667 86.1882494,6.05658667 C86.3407632,6.05658667 86.4429055,6.13265333 86.4429055,6.31092 C86.4429055,6.64225333 85.2978858,9.21312 83.6950913,9.21312 C83.4409016,9.21312 53.151281,9.54095333 52.8966249,9.54095333 C52.5148739,9.54095333 52.1846605,9.59205333 52.0321466,9.79575333 C51.5988581,10.4574867 47.6073798,19.3145867 47.5304233,19.46742 C46.7925735,20.9187533 45.5286209,21.1539533 44.2266565,20.8125867" id="Fill-1" fill="#FFFFFF" sketch:type="MSShapeGroup" mask="url(#mask-2)"></path>
                </g>
                <path d="M59.3035818,3.70780667 C59.3035818,2.68930667 60.5246253,1.51820667 62.5091708,1.51820667 C64.0359415,1.51820667 64.7488387,2.20537333 64.7488387,2.99450667 C64.7488387,4.01300667 63.6035858,5.15844 61.567736,5.15844 C59.9898941,5.15844 59.3035818,4.47104 59.3035818,3.70780667 M63.0945067,6.60954 C63.0945067,6.66040667 63.0686213,6.73694 63.0182498,6.81324 C62.8652696,6.99127333 58.6671747,15.7489733 58.6671747,16.3603067 C58.6671747,17.0215733 58.9477162,17.22574 59.5831905,17.22574 C61.3900364,17.22574 64.3337399,14.78064 64.9444949,13.9912733 C64.9444949,13.9912733 64.7915146,13.9912733 64.9444949,13.9912733 C64.9444949,13.9912733 65.3339415,13.9411067 65.3339415,15.31614 C65.3339415,17.0981067 61.9208032,20.89794 57.4687518,20.89794 C54.3634395,20.89794 54.0115383,19.1092067 54.0115383,17.7348733 C54.0115383,16.1052733 57.1914751,10.81024 57.1914751,9.84307333 C57.1914751,9.48630667 56.9878901,9.25740667 56.4540917,9.25740667 C56.0723407,9.25740667 56.0723407,9.13000667 56.0723407,9.02827333" id="Fill-4" fill="#FFFFFF" sketch:type="MSShapeGroup"></path>
                <path d="M68.0427178,16.4939833 C68.0427178,17.20635 68.5000261,17.5883167 69.3654372,17.5883167 C73.5378798,17.5883167 75.7264767,13.94785 76.0823423,13.5406833 C76.0823423,13.5406833 76.1327138,13.4391833 76.2859273,13.4391833 C76.2859273,13.4391833 77.2017099,13.99895 77.2017099,15.32265 C77.2017099,17.15525 73.6645083,20.8979167 67.0243265,20.8979167 C63.9971368,20.8979167 63.1573779,19.57445 63.1573779,18.27595 C63.1573779,16.3920167 66.6679945,10.43455 66.6679945,9.77305 C66.6679945,9.36541667 66.4140379,9.31431667 65.7016071,9.31431667 L64.9896427,9.31431667 C64.65803,9.31431667 64.5820063,9.08565 64.5820063,8.98368333 C64.5820063,8.39848333 70.8411368,2.51778333 72.4698166,2.16078333 C72.7750775,2.08471667 73.1307099,2.05928333 73.4359708,2.05928333 C73.7675834,2.05928333 74.4795478,2.05928333 74.4795478,2.36471667 C74.4795478,2.41558333 74.4538957,2.49211667 74.4284767,2.56818333 C74.3778719,2.61928333 72.7240063,6.00541667 72.7240063,6.10691667 C72.7240063,6.10691667 71.2993779,9.26391667 71.1713502,9.46761667 C70.5358759,10.63825 68.0427178,15.7305167 68.0427178,16.4939833" id="Fill-6" fill="#FFFFFF" sketch:type="MSShapeGroup"></path>
                <path d="M77.2723933,16.4939833 C77.2723933,17.20635 77.730168,17.5883167 78.5960455,17.5883167 C82.7680217,17.5883167 84.9566186,13.94785 85.3124842,13.5406833 C85.3124842,13.5406833 85.3633221,13.4391833 85.5160692,13.4391833 C85.5160692,13.4391833 86.4323182,13.99895 86.4323182,15.32265 C86.4323182,17.15525 82.8960494,20.8979167 76.2549348,20.8979167 C73.2272787,20.8979167 72.3875198,19.57445 72.3875198,18.27595 C72.3875198,16.3920167 75.8986028,10.43455 75.8986028,9.77305 C75.8986028,9.36541667 75.6437134,9.31431667 74.931749,9.31431667 L74.2197846,9.31431667 C73.8886383,9.31431667 73.8126146,9.08565 73.8126146,8.98368333 C73.8126146,8.39848333 80.0708123,2.51778333 81.6999585,2.16078333 C82.004753,2.08471667 82.3608518,2.05928333 82.6665791,2.05928333 C82.9972589,2.05928333 83.7096897,2.05928333 83.7096897,2.36471667 C83.7096897,2.41558333 83.6840375,2.49211667 83.659085,2.56818333 C83.6080138,2.61928333 81.9536818,6.00541667 81.9536818,6.10691667 L81.9536818,6.15801667 C81.9536818,6.25975 81.979334,6.38738333 82.1833854,6.38738333 L80.8086621,9.26391667 C80.8086621,9.26391667 80.5290534,9.26391667 80.4024249,9.46761667 C79.7660178,10.63825 77.2723933,15.7305167 77.2723933,16.4939833" id="Fill-8" fill="#FFFFFF" sketch:type="MSShapeGroup"></path>
                <path d="M93.7413455,8.85642333 C90.5103375,8.85642333 88.4747209,11.6060233 88.4747209,13.2099567 C88.4747209,13.5667233 88.9835668,13.59169 89.6197407,13.59169 C92.6217447,13.59169 95.7513099,12.2171233 95.7513099,10.1040567 C95.7513099,9.23815667 95.0393455,8.85642333 93.7413455,8.85642333 M99.8729146,9.82382333 C99.8729146,14.4060233 93.1054047,16.4178233 89.4413415,16.4178233 C89.1871518,16.4178233 89.0854759,16.5193233 89.0854759,16.62129 C89.0854759,17.4862567 90.840551,18.0719233 93.0284482,18.0719233 C94.6321755,18.0719233 96.4637407,17.7669567 98.0159304,17.0284567 C99.6187249,16.26499 100.865421,15.0936567 101.93395,13.71909 C102.009508,13.6423233 102.061045,13.59169 102.112116,13.59169 C102.112116,13.59169 103.053551,14.1008233 103.053551,15.52649 C103.053551,16.5704233 101.577851,18.6321567 98.6523375,19.87979 C97.2265431,20.4904233 95.0899502,20.8978233 92.9022862,20.8978233 C88.6272348,20.8978233 84.1495312,19.52349 84.1495312,14.6862567 C84.1495312,10.6129567 87.7627565,6.03099 94.5046142,6.03099 C97.9648593,6.03099 99.8729146,7.50682333 99.8729146,9.82382333" id="Fill-10" fill="#FFFFFF" sketch:type="MSShapeGroup"></path>
                <g id="Group-14">
                    <mask id="mask-4" sketch:name="Clip 13" fill="white">
                        <use xlink:href="#path-3"></use>
                    </mask>
                    <g id="Clip-13"></g>
                    <path d="M111.651857,9.69654 C109.234722,9.69654 106.359347,12.5989733 105.672335,13.7703067 C105.036627,14.8644067 103.052082,18.9888067 102.695517,19.85424 C102.313766,20.7196733 100.380291,20.9999067 99.0827577,20.9999067 C98.1926273,20.9999067 97.9125522,20.8722733 97.9125522,20.6436067 C97.9125522,20.5925067 97.9375047,20.5159733 97.9636233,20.46534 C98.2441648,19.9559733 104.044121,7.73654 104.221821,7.38000667 C104.705481,6.38694 106.410185,5.97977333 108.012979,5.97977333 C108.267169,5.97977333 108.699991,6.00544 108.699991,6.26000667 C108.699991,6.54000667 108.165726,7.32914 107.835513,8.06740667 L107.835513,8.11804 C107.835513,8.16914 107.835513,8.27087333 107.936955,8.27087333 C107.962141,8.27087333 107.988026,8.27087333 108.038631,8.24544 C108.038631,8.24544 111.092173,5.95457333 115.290268,5.95457333 C117.122066,5.95457333 117.454378,6.28870667 117.681283,6.61630667 C117.809777,6.80157333 117.972086,7.66887333 117.074726,9.01450667 C115.72239,11.0428733 111.375746,11.89874 111.787113,10.9392733 C111.948256,10.5633733 112.049932,10.2633067 112.058094,10.07874 C112.058094,9.77260667 111.880394,9.69654 111.651857,9.69654" id="Fill-12" fill="#FFFFFF" sketch:type="MSShapeGroup" mask="url(#mask-4)"></path>
                </g>
                <path d="M12.9345957,20.9534033 C10.6732399,20.9534033 10.2154652,19.6563033 10.2154652,17.9021033 C10.2154652,17.6991033 9.9615087,17.8769033 9.9615087,17.8769033 C8.05578538,19.8600033 5.54000672,20.8773367 2.99880909,20.8773367 C0.609892095,20.8773367 6.99604744e-05,19.50417 6.99604744e-05,17.6480033 C6.99604744e-05,15.6651367 3.80032292,8.39843667 4.2830502,7.27960333 C4.68975375,6.28793667 5.18414111,6.05367 6.35318063,6.05367 C7.47114901,6.05367 8.28618854,6.50003667 8.20969842,6.67830333 C8.08306996,6.95807 4.47264308,14.6984367 4.47264308,16.12317 C4.47264308,16.9615367 4.90429921,17.2415367 5.51458775,17.2415367 C8.33516087,17.2415367 11.420651,13.7070033 12.7172518,10.04577 C13.1491411,8.82520333 13.3007221,7.89117 13.4786549,7.56007 C13.9618486,6.69580333 15.018485,6.58753667 16.1366866,6.58753667 C17.3815166,6.58753667 17.7856549,7.15920333 17.7856549,7.15920333 C17.0739237,9.29560333 14.5103387,14.64757 14.5103387,15.9953033 C14.5103387,16.8598033 14.8151332,17.34257 15.5268644,17.34257 C18.2968328,17.34257 22.1847696,13.18247 22.1847696,10.41117 C22.1847696,9.67360333 21.4476194,8.84807 21.4476194,7.85663667 C21.4476194,6.96717 24.014236,6.02613667 26.4537577,6.02613667 C29.1106233,6.02613667 38.1581451,5.90060333 39.0797577,6.14280333 C41.5927379,6.80407 33.044734,8.37137 33.044734,8.74330333 C33.044734,9.20087 26.6316905,8.35153667 26.6316905,9.31823667 C26.6316905,14.1235033 19.4910581,20.9534033 12.9345957,20.9534033" id="Fill-15" fill="#FFFFFF" sketch:type="MSShapeGroup"></path>
                <path d="M37.4270348,8.92728667 C34.1997581,8.92728667 32.1664735,11.67292 32.1664735,13.2742867 C32.1664735,13.6305867 32.674853,13.65602 33.3105605,13.65602 C36.3088332,13.65602 39.4346672,12.2828533 39.4346672,10.1723533 C39.4346672,9.30832 38.722936,8.92728667 37.4270348,8.92728667 M43.5516079,9.89258667 C43.5516079,14.4698867 36.7915605,16.47842 33.1323945,16.47842 C32.8782047,16.47842 32.7765289,16.5796867 32.7765289,16.68142 C32.7765289,17.5461533 34.5299715,18.1313533 36.7155368,18.1313533 C38.3162324,18.1313533 40.1461652,17.8261533 41.6964893,17.0883533 C43.297185,16.32582 44.5422482,15.1563533 45.6096119,13.7829533 C45.686102,13.7066533 45.7367067,13.65602 45.7880111,13.65602 C45.7880111,13.65602 46.7280466,14.1646867 46.7280466,15.5882533 C46.7280466,16.6307867 45.2539794,18.6906533 42.3317304,19.93642 C40.9085012,20.5470533 38.7740071,20.95352 36.5882087,20.95352 C32.3192206,20.95352 27.8466474,19.58012 27.8466474,14.74942 C27.8466474,10.68102 31.4549755,6.10465333 38.189604,6.10465333 C41.645185,6.10465333 43.5516079,7.57932 43.5516079,9.89258667" id="Fill-17" fill="#FFFFFF" sketch:type="MSShapeGroup"></path>
            </g>
        </g>
    </g>
</svg>