<?xml version="1.0" encoding="UTF-8" standalone="no"?>
<svg width="360px" height="219px" viewBox="0 0 360 219" version="1.1" xmlns="http://www.w3.org/2000/svg" xmlns:xlink="http://www.w3.org/1999/xlink" xmlns:sketch="http://www.bohemiancoding.com/sketch/ns">
    <defs></defs>
    <g id="01_dashboard" stroke="none" stroke-width="1" fill="none" fill-rule="evenodd" sketch:type="MSPage">
        <g id="01_04_dashboard" sketch:type="MSArtboardGroup" fill="#EEEEEE">
            <path d="M-7,0 L366,0 L366,219 L-7,219 L-7,0 Z M153.068573,123.541727 C153.573849,116.156528 155.418873,111.221153 157.781932,107.408614 C161.83435,113.793469 170.352755,113.500001 170.352755,113.500001 C164.271925,96.3165359 193.146164,91.7527071 172.200168,76.5 C172.651855,76.7475343 177.709721,79.5546245 183.8598,84.4619284 C197.969256,98.2472929 175.904188,95.7230063 187.826665,112.170003 C187.826665,112.170003 193.460048,115.832437 194.901872,109.572626 C196.241619,103.741534 195.256586,98.1503207 195.256586,98.1503207 C195.256586,98.1503207 199.234998,100.148459 201.659303,104.468825 C204.856834,110.154459 206.987671,116.564832 206.987671,123.544279 C206.990223,138.429512 194.922287,150.5 180.024294,150.5 C165.136509,150.5 152.045261,138.39889 153.068573,123.541727 Z" id="Rectangle-59" sketch:type="MSShapeGroup"></path>
        </g>
    </g>
</svg>