<svg width="62px" height="60px" viewBox="0 0 62 60" version="1.1" xmlns="http://www.w3.org/2000/svg" xmlns:xlink="http://www.w3.org/1999/xlink" xmlns:sketch="http://www.bohemiancoding.com/sketch/ns">
 
    <defs></defs>
    <g id="Page-1" stroke="none" stroke-width="1" fill="none" fill-rule="evenodd" sketch:type="MSPage">
        <g id="noun_26744_cc" sketch:type="MSLayerGroup" transform="translate(-13.000000, 0.000000)" fill="#FFFFFF">
            <path d="M16.584,42.903 C23.777,50.311 38.831,47.359 50.208,36.316 C61.582,25.273 64.974,10.315 57.778,2.905 C56.593,1.682 55.175,0.769 53.608,0.098 C54.205,0.221 54.81,0.29 55.397,0.452 C59.715,1.633 62.912,4.626 66.142,7.952 C69.372,11.279 72.271,14.563 73.321,18.915 C75.801,29.156 72.34,41.162 63.37,49.873 C54.396,58.587 42.291,61.692 32.125,58.912 C27.808,57.729 24.612,54.739 21.382,51.409 C18.157,48.087 15.259,44.813 14.205,40.463 C14.061,39.867 14.005,39.251 13.898,38.642 C14.521,40.229 15.394,41.676 16.584,42.903 L16.584,42.903 Z M63.346,29.545 L66.209,32.408 C67.166,33.361 68.586,33.18 69.385,31.998 C70.186,30.82 70.057,29.09 69.105,28.137 L66.241,25.275 C65.287,24.322 63.864,24.507 63.063,25.685 C62.265,26.866 62.393,28.592 63.346,29.545 L63.346,29.545 Z M58.391,32.8 C58.521,32.93 58.691,33 58.87,33 C59.06,33 59.23,32.93 59.36,32.8 C59.49,32.67 59.56,32.49 59.56,32.31 C59.56,32.13 59.49,31.951 59.36,31.831 C59.12,31.581 58.65,31.57 58.39,31.831 C58.26,31.961 58.19,32.131 58.19,32.31 C58.19,32.49 58.261,32.67 58.391,32.8 L58.391,32.8 Z M57.021,35.02 C57.141,35.11 57.281,35.15 57.421,35.15 C57.631,35.15 57.841,35.05 57.981,34.871 L57.971,34.871 C58.2,34.56 58.131,34.131 57.821,33.911 C57.521,33.681 57.092,33.751 56.871,34.06 C56.641,34.359 56.71,34.79 57.021,35.02 L57.021,35.02 Z M55.381,37.03 C55.5,37.139 55.66,37.189 55.82,37.189 C56.01,37.189 56.21,37.109 56.341,36.95 C56.591,36.66 56.551,36.229 56.261,35.979 C55.971,35.74 55.54,35.769 55.29,36.059 C55.051,36.35 55.091,36.79 55.381,37.03 L55.381,37.03 Z M53.601,38.93 C53.741,39.06 53.911,39.12 54.08,39.12 C54.261,39.12 54.44,39.05 54.58,38.91 C54.841,38.639 54.83,38.21 54.56,37.939 C54.28,37.679 53.85,37.689 53.59,37.96 C53.33,38.229 53.33,38.67 53.601,38.93 L53.601,38.93 Z M51.71,40.71 C51.841,40.859 52.03,40.93 52.221,40.93 C52.381,40.93 52.551,40.87 52.681,40.76 C52.96,40.5 52.981,40.07 52.731,39.79 C52.471,39.51 52.041,39.479 51.761,39.74 C51.48,39.99 51.46,40.43 51.71,40.71 L51.71,40.71 Z M49.7,42.35 C49.83,42.531 50.03,42.61 50.24,42.61 C50.39,42.61 50.54,42.57 50.66,42.47 C50.96,42.23 51.011,41.8 50.77,41.5 C50.54,41.2 50.11,41.149 49.81,41.39 C49.511,41.62 49.46,42.06 49.7,42.35 L49.7,42.35 Z M47.58,43.859 C47.71,44.049 47.931,44.16 48.15,44.16 C48.28,44.16 48.41,44.12 48.53,44.04 C48.85,43.819 48.93,43.39 48.71,43.08 C48.5,42.769 48.07,42.689 47.761,42.899 C47.45,43.12 47.37,43.54 47.58,43.859 L47.58,43.859 Z M45.46,45.35 C45.591,45.48 45.761,45.55 45.95,45.55 C46.131,45.55 46.31,45.48 46.44,45.35 C46.56,45.22 46.64,45.05 46.64,44.86 C46.64,44.69 46.56,44.51 46.44,44.381 C46.17,44.121 45.73,44.121 45.47,44.381 C45.329,44.511 45.26,44.691 45.26,44.86 C45.261,45.05 45.33,45.22 45.46,45.35 L45.46,45.35 Z M23.567,43.902 C21.304,43.565 19.421,42.734 18.128,41.399 C12.948,36.069 13.062,24.589 19.741,14.772 L29.934,24.965 C25.785,30.791 23.634,37.46 23.567,43.902 L23.567,43.902 Z M58.574,9.913 C50.168,9.755 41.27,13.111 34.274,19.906 C33.142,21.005 32.107,22.162 31.153,23.356 L20.927,13.13 C21.897,11.877 22.959,10.653 24.158,9.489 C35.062,-1.099 50.087,-1.926 56.234,4.405 C57.527,5.735 58.303,7.644 58.574,9.913 L58.574,9.913 Z M64.208,26.13 C64.506,25.832 64.977,25.671 65.411,26.104 L68.274,28.966 C68.831,29.522 68.896,30.631 68.414,31.341 C68.359,31.421 68.3,31.494 68.236,31.558 C67.942,31.853 67.472,32.012 67.038,31.579 L64.175,28.715 C63.62,28.16 63.555,27.051 64.032,26.343 C64.087,26.264 64.145,26.193 64.208,26.13 L64.208,26.13 Z" id="Shape" sketch:type="MSShapeGroup"></path>
        </g>
    </g>
</svg>