<?xml version="1.0" encoding="utf-8"?>
<!-- Generator: Adobe Illustrator 16.0.0, SVG Export Plug-In . SVG Version: 6.00 Build 0)  -->
<!DOCTYPE svg PUBLIC "-//W3C//DTD SVG 1.1//EN" "http://www.w3.org/Graphics/SVG/1.1/DTD/svg11.dtd">
<svg version="1.1" id="Calque_1" xmlns="http://www.w3.org/2000/svg" xmlns:xlink="http://www.w3.org/1999/xlink" x="0px" y="0px"
	 width="88.8px" height="88.8px" viewBox="5.6 5.7 88.8 88.8" enable-background="new 5.6 5.7 88.8 88.8" xml:space="preserve">
<g id="Layer_1">
	<path d="M50,5.7C25.5,5.7,5.6,25.6,5.6,50.101C5.6,74.601,25.5,94.5,50,94.5c24.5,0,44.4-19.899,44.4-44.399
		C94.4,25.6,74.5,5.7,50,5.7z M78.3,77.399C70.8,85.201,60.8,89.5,50,89.5C39.2,89.5,29.1,85.201,21.6,77.399L21,76.8
		c0,0,8.6-2,9.2-2.199c6-1.399,13.6-3.102,15.299-6.899c1-2.199,0.801-4.8-0.701-7.699c-6-11.399-7.2-19.4-3.6-25.4
		c0.9-1.5,2-2.7,3.4-3.6l0.2-0.1c3.201-1.9,6.101-1.7,8-1.1c0.9,0.3,1.699,0.7,2.4,1.1c1.5,0.9,2.699,2.2,3.6,3.7
		c3.602,5.9,2.4,14-3.6,25.4c-1.5,2.899-1.801,5.399-0.701,7.699c1.701,3.801,9.301,5.5,15.301,6.899
		c0.602,0.101,9.301,2.199,9.301,2.199L78.3,77.399z M82.5,72.3L72.6,70c-1-0.199-2.101-0.5-3.3-0.699c-6-1.301-9.6-2.2-10.301-3.7
		c-0.299-0.699-0.101-1.8,0.601-3.101c6.899-13,8-22.899,3.5-30.399c-2.2-3.7-5.7-6.3-10.101-7.5c-1-0.2-2-0.3-3-0.3
		c-1.5,0-3.101,0.3-4.601,0.8c-0.399,0.1-1.4,0.6-1.5,0.6c-3,1.4-5.4,3.6-7.1,6.4c-4.5,7.5-3.4,17.5,3.4,30.399
		c0.7,1.399,0.9,2.399,0.6,3.101c-0.7,1.5-4.3,2.399-10.3,3.7c-1.1,0.199-13.2,3-13.2,3L17.2,72c-4.3-6.5-6.6-14-6.6-21.899
		C10.6,28,27.9,10.7,50,10.7c21.701,0,39.4,17.7,39.4,39.4c0,7.799-2.301,15.398-6.699,21.898L82.5,72.3z"/>
</g>
<g id="Layer_2" display="none">
</g>
</svg>
