<?xml version="1.0" encoding="utf-8"?>
<!-- Generator: Adobe Illustrator 16.0.0, SVG Export Plug-In . SVG Version: 6.00 Build 0)  -->
<!DOCTYPE svg PUBLIC "-//W3C//DTD SVG 1.1//EN" "http://www.w3.org/Graphics/SVG/1.1/DTD/svg11.dtd">
<svg version="1.1" id="Calque_1" xmlns="http://www.w3.org/2000/svg" xmlns:xlink="http://www.w3.org/1999/xlink" x="0px" y="0px"
	 width="89.739px" height="62.35px" viewBox="5.1 -69.598 89.739 62.35" enable-background="new 5.1 -69.598 89.739 62.35"
	 xml:space="preserve">
<path d="M15.737-58.791v27.028h22.192v-27.028H15.737z M27.098-55.443c2.906,0,5.265,2.356,5.265,5.26
	c0,2.906-2.356,5.262-5.265,5.262c-2.906,0-5.264-2.355-5.264-5.262C21.833-53.087,24.192-55.443,27.098-55.443z M33.324-35.392
	c0,0.668-0.547,1.214-1.214,1.214H21.558c-0.667,0-1.213-0.546-1.213-1.214v-1.925c0-2.718,2.224-4.942,4.944-4.942h3.092
	c2.719,0,4.943,2.225,4.943,4.942V-35.392z"/>
<g>
	<rect x="44.818" y="-58.776" width="39.168" height="2.426"/>
</g>
<g>
	<rect x="44.818" y="-50.563" width="39.168" height="2.428"/>
</g>
<g>
	<rect x="44.818" y="-42.351" width="39.168" height="2.427"/>
</g>
<g>
	<rect x="44.818" y="-34.137" width="39.168" height="2.428"/>
</g>
<g>
	<path stroke="#000000" stroke-miterlimit="10" d="M88.272-7.749c3.319,0,6.037-2.704,6.062-6.02V-56.49h0.005v-6.542
		c0-3.336-2.729-6.066-6.066-6.066H11.666c-3.336,0-6.066,2.73-6.066,6.066v49.215c0,3.336,2.73,6.066,6.066,6.066h76.605V-7.749z
		 M11.666-11.389c-1.315,0-2.426-1.11-2.426-2.427V-63.03c0-1.315,1.11-2.427,2.426-2.427h76.606c1.315,0,2.428,1.11,2.428,2.427
		v49.214c0,1.315-1.111,2.427-2.428,2.427H11.666z"/>
</g>
</svg>
