<?xml version="1.0" encoding="utf-8"?>
<!-- Generator: Adobe Illustrator 16.0.0, SVG Export Plug-In . SVG Version: 6.00 Build 0)  -->
<!DOCTYPE svg PUBLIC "-//W3C//DTD SVG 1.1//EN" "http://www.w3.org/Graphics/SVG/1.1/DTD/svg11.dtd">
<svg version="1.1" id="Calque_1" xmlns="http://www.w3.org/2000/svg" xmlns:xlink="http://www.w3.org/1999/xlink" x="0px" y="0px"
	 width="89px" height="89px" viewBox="124.969 5.7 89 89" enable-background="new 124.969 5.7 89 89" xml:space="preserve">
<g>
	<path d="M169.469,11.7c21.229,0,38.5,17.271,38.5,38.5c0,21.229-17.271,38.5-38.5,38.5s-38.5-17.271-38.5-38.5
		C130.969,28.971,148.24,11.7,169.469,11.7 M169.469,5.7c-24.576,0-44.5,19.923-44.5,44.5c0,24.577,19.924,44.5,44.5,44.5
		c24.578,0,44.5-19.923,44.5-44.5C213.969,25.624,194.047,5.7,169.469,5.7L169.469,5.7z"/>
</g>
<path d="M156.693,41.339c-0.147-0.028-0.297-0.042-0.444-0.042c-1.15,0-2.14,0.822-2.354,1.956c-0.241,1.296,0.617,2.55,1.916,2.793
	c8.482,1.59,14.64,9.02,14.64,17.667c0,1.321,1.074,2.396,2.396,2.396c1.319,0,2.394-1.075,2.394-2.396
	C175.24,52.763,167.44,43.353,156.693,41.339z"/>
<path d="M154.707,53.857c-1.299-0.243-2.507,0.625-2.741,1.876c-0.115,0.616,0.017,1.241,0.371,1.759
	c0.354,0.518,0.889,0.866,1.505,0.982c2.992,0.561,5.164,3.183,5.164,6.234c0,1.295,1.054,2.349,2.349,2.349
	s2.349-1.054,2.349-2.349C163.703,59.398,159.919,54.835,154.707,53.857z"/>
<path d="M156.524,29.111c-0.091-0.01-0.184-0.015-0.275-0.015c-1.216,0-2.239,0.911-2.38,2.12c-0.15,1.311,0.794,2.502,2.104,2.654
	c15.134,1.752,26.547,14.582,26.547,29.843c0,1.321,1.075,2.396,2.396,2.396c1.32,0,2.395-1.075,2.395-2.396
	C187.312,46.019,174.076,31.144,156.524,29.111z"/>
</svg>
