<?xml version="1.0" encoding="utf-8"?>
<!-- Generator: Adobe Illustrator 16.0.0, SVG Export Plug-In . SVG Version: 6.00 Build 0)  -->
<!DOCTYPE svg PUBLIC "-//W3C//DTD SVG 1.1//EN" "http://www.w3.org/Graphics/SVG/1.1/DTD/svg11.dtd">
<svg version="1.1" id="Layer_1" xmlns="http://www.w3.org/2000/svg" xmlns:xlink="http://www.w3.org/1999/xlink" x="0px" y="0px"
	 width="79.641px" height="88.869px" viewBox="10.284 5.469 79.641 88.869" enable-background="new 10.284 5.469 79.641 88.869"
	 xml:space="preserve">
<rect x="44" y="5.469" width="11" height="53"/>
<path d="M70,19.033v9.759c7.78,5.94,12.042,14.7,12.042,24.841c0,18.554-14.319,33.088-32.6,33.088
	c-17.819,0-31.777-14.534-31.777-33.088c0-10.926,4.148-19.297,12.335-24.909V19.06c-12.593,6.892-19.716,19.26-19.716,34.573
	c0,22.445,18.022,40.705,40.175,40.705c22.13,0,39.466-17.88,39.466-40.705C89.925,38.342,82.726,25.961,70,19.033z"/>
</svg>
