<?xml version="1.0" encoding="utf-8"?>
<!-- Generator: Adobe Illustrator 16.0.0, SVG Export Plug-In . SVG Version: 6.00 Build 0)  -->
<!DOCTYPE svg PUBLIC "-//W3C//DTD SVG 1.1//EN" "http://www.w3.org/Graphics/SVG/1.1/DTD/svg11.dtd">
<svg version="1.1" id="Calque_1" xmlns="http://www.w3.org/2000/svg" xmlns:xlink="http://www.w3.org/1999/xlink" x="0px" y="0px"
	 width="88.8px" height="88.8px" viewBox="5.6 5.7 88.8 88.8" enable-background="new 5.6 5.7 88.8 88.8" xml:space="preserve">
<g id="Layer_2" display="none">
</g>
<path d="M50,10.7c21.726,0,39.4,17.675,39.4,39.4C89.4,71.825,71.725,89.5,50,89.5C28.274,89.5,10.6,71.825,10.6,50.101
	C10.6,28.375,28.274,10.7,50,10.7 M50,5.7C25.479,5.7,5.6,25.579,5.6,50.101C5.6,74.621,25.479,94.5,50,94.5
	c24.521,0,44.4-19.879,44.4-44.399C94.4,25.579,74.521,5.7,50,5.7L50,5.7z"/>
<rect x="34.4" y="33.899" width="5" height="31.667"/>
<rect x="59.4" y="33.899" width="5" height="31.667"/>
</svg>
