<?xml version="1.0" encoding="utf-8"?>
<!-- Generator: Adobe Illustrator 16.0.0, SVG Export Plug-In . SVG Version: 6.00 Build 0)  -->
<!DOCTYPE svg PUBLIC "-//W3C//DTD SVG 1.1//EN" "http://www.w3.org/Graphics/SVG/1.1/DTD/svg11.dtd">
<svg version="1.1" id="Calque_1" xmlns="http://www.w3.org/2000/svg" xmlns:xlink="http://www.w3.org/1999/xlink" x="0px" y="0px"
	 width="91.539px" height="62.557px" viewBox="4.232 18.722 91.539 62.557" enable-background="new 4.232 18.722 91.539 62.557"
	 xml:space="preserve">
<g id="Layer_2">
	<g>
		<g>
			<path d="M70.756,50C70.434,61.559,61.559,70.434,50,70.756C38.444,71.078,29.553,61.073,29.244,50
				C28.922,38.444,38.927,29.553,50,29.244C61.557,28.922,70.447,38.927,70.756,50c0.135,4.826,7.635,4.839,7.5,0
				C77.818,34.303,65.697,22.182,50,21.744C34.307,21.306,22.164,34.961,21.744,50C21.306,65.693,34.961,77.836,50,78.256
				C65.693,78.693,77.836,65.039,78.256,50C78.391,45.161,70.891,45.174,70.756,50z"/>
		</g>
	</g>
	<g>
		<circle cx="50" cy="50" r="9"/>
		<g>
			<path d="M55.25,50c-0.365,6.773-10.135,6.773-10.5,0C44.385,43.223,54.887,43.26,55.25,50c0.259,4.811,7.76,4.835,7.5,0
				C62.361,42.795,57.205,37.638,50,37.25C42.811,36.863,37.607,43.378,37.25,50C36.863,57.189,43.378,62.393,50,62.75
				c7.189,0.387,12.393-6.128,12.75-12.75C63.01,45.165,55.509,45.19,55.25,50z"/>
		</g>
	</g>
	<g>
		<g>
			<path d="M89.384,47.348c-4.265,4.368-8.849,8.445-13.547,12.339C68.949,65.396,59.427,73.484,50,73.77
				c-8.843,0.269-18.555-8.203-24.97-13.373c-5.035-4.057-9.895-8.418-14.415-13.047c0,1.768,0,3.536,0,5.303
				c4.265-4.368,8.849-8.445,13.547-12.339C31.051,34.603,40.573,26.516,50,26.23c8.843-0.268,18.555,8.204,24.971,13.373
				c5.034,4.057,9.895,8.419,14.414,13.047c3.383,3.466,8.684-1.842,5.303-5.302c-5.054-5.176-10.53-9.977-16.193-14.471
				C70.493,26.528,60.66,19.054,50,18.73c-10.007-0.304-20.168,7.645-27.585,13.437c-5.999,4.685-11.782,9.731-17.103,15.181
				c-1.44,1.475-1.44,3.828,0,5.302c5.054,5.177,10.531,9.978,16.194,14.472C29.507,73.473,39.34,80.945,50,81.27
				c10.007,0.305,20.168-7.645,27.585-13.437c5.999-4.685,11.782-9.731,17.103-15.181C98.066,49.19,92.768,43.883,89.384,47.348z"/>
		</g>
	</g>
</g>
</svg>
