<?xml version="1.0" encoding="utf-8"?>
<!-- Generator: Adobe Illustrator 16.0.0, SVG Export Plug-In . SVG Version: 6.00 Build 0)  -->
<!DOCTYPE svg PUBLIC "-//W3C//DTD SVG 1.1//EN" "http://www.w3.org/Graphics/SVG/1.1/DTD/svg11.dtd">
<svg version="1.1" id="Calque_1" xmlns="http://www.w3.org/2000/svg" xmlns:xlink="http://www.w3.org/1999/xlink" x="0px" y="0px"
	 width="221.018px" height="39.979px" viewBox="0 0 221.018 39.979" enable-background="new 0 0 221.018 39.979"
	 xml:space="preserve">
<path d="M3.666,23.929v12.176h12.618c1.366,0,2.661-0.116,3.883-0.35c1.222-0.233,2.299-0.654,3.235-1.265
	c0.935-0.609,1.671-1.426,2.211-2.448c0.54-1.022,0.809-2.304,0.809-3.847c0-2.475-0.872-4.332-2.615-5.569
	c-1.744-1.238-4.251-1.857-7.522-1.857H6.847v-3.12h9.437c1.474,0,2.75-0.17,3.828-0.512c1.079-0.341,1.977-0.807,2.696-1.399
	c0.719-0.592,1.258-1.282,1.618-2.071c0.358-0.789,0.539-1.631,0.539-2.528c0-4.808-2.895-7.211-8.682-7.211H3.666v10.884H0V0.807
	h16.284c1.618,0,3.172,0.153,4.664,0.457c1.492,0.306,2.805,0.826,3.937,1.561c1.132,0.735,2.04,1.704,2.723,2.905
	c0.683,1.203,1.025,2.7,1.025,4.494c0,1.004-0.162,1.982-0.485,2.933c-0.324,0.95-0.782,1.811-1.375,2.582
	c-0.594,0.772-1.294,1.426-2.103,1.964s-1.717,0.915-2.722,1.13v0.107c2.48,0.323,4.457,1.336,5.931,3.041
	c1.473,1.704,2.21,3.811,2.21,6.321c0,0.612-0.053,1.302-0.162,2.073c-0.107,0.772-0.323,1.561-0.647,2.368
	c-0.323,0.807-0.791,1.605-1.401,2.395c-0.612,0.789-1.429,1.479-2.454,2.071c-1.024,0.592-2.284,1.076-3.774,1.453
	c-1.493,0.377-3.281,0.565-5.366,0.565H0V23.929H3.666z"/>
<path d="M62.547,0.807v3.121H39.631v13.883h21.46v3.121h-21.46v15.173h23.186v3.12H35.964V0.807H62.547z"/>
<path d="M92.838,10.385v1.665h-6.243v18.826H84.64V12.05h-7.132v-1.665H92.838z"/>
<path d="M94.291,16.744c0.402-1.281,1.006-2.415,1.811-3.4c0.806-0.986,1.817-1.77,3.036-2.354c1.216-0.583,2.631-0.875,4.241-0.875
	c1.611,0,3.021,0.292,4.228,0.875c1.208,0.584,2.214,1.368,3.019,2.354c0.806,0.985,1.41,2.119,1.812,3.4
	c0.403,1.282,0.604,2.631,0.604,4.047c0,1.416-0.201,2.765-0.604,4.046c-0.402,1.282-1.007,2.411-1.812,3.386
	c-0.805,0.976-1.812,1.755-3.019,2.338c-1.207,0.583-2.617,0.876-4.228,0.876c-1.61,0-3.025-0.293-4.241-0.876
	c-1.219-0.583-2.229-1.363-3.036-2.338c-0.805-0.975-1.408-2.104-1.811-3.386c-0.402-1.281-0.604-2.63-0.604-4.046
	C93.687,19.375,93.889,18.026,94.291,16.744z M96.088,24.077c0.297,1.081,0.757,2.047,1.38,2.897
	c0.622,0.852,1.424,1.537,2.401,2.052c0.979,0.517,2.148,0.775,3.509,0.775c1.361,0,2.526-0.258,3.494-0.775
	c0.968-0.516,1.764-1.201,2.387-2.052c0.623-0.851,1.083-1.817,1.38-2.897c0.298-1.081,0.446-2.176,0.446-3.286
	c0-1.129-0.147-2.229-0.446-3.301c-0.297-1.07-0.757-2.032-1.38-2.883c-0.623-0.851-1.419-1.536-2.387-2.052
	c-0.968-0.517-2.133-0.774-3.494-0.774c-1.361,0-2.53,0.258-3.509,0.774c-0.977,0.517-1.779,1.201-2.401,2.052
	c-0.623,0.851-1.083,1.813-1.38,2.883c-0.296,1.072-0.446,2.172-0.446,3.301C95.642,21.901,95.792,22.996,96.088,24.077z"/>
<path d="M139.776,20.903l-3.574-0.833c-1.115-0.286-2.203-0.646-3.263-1.075c-1.06-0.431-1.986-1.004-2.776-1.722
	c-0.792-0.718-1.429-1.596-1.914-2.637c-0.485-1.04-0.728-2.314-0.728-3.821c0-0.932,0.179-2.026,0.539-3.281
	c0.359-1.255,1.033-2.439,2.021-3.551c0.988-1.112,2.345-2.053,4.07-2.825C135.878,0.386,138.089,0,140.786,0
	c1.905,0,3.72,0.251,5.445,0.754c1.726,0.502,3.236,1.256,4.53,2.259c1.293,1.005,2.328,2.252,3.101,3.74
	c0.772,1.489,1.159,3.22,1.159,5.193h-3.667c-0.072-1.471-0.405-2.753-0.997-3.847c-0.594-1.094-1.368-2.009-2.319-2.745
	c-0.953-0.734-2.05-1.291-3.289-1.667c-1.241-0.377-2.543-0.565-3.91-0.565c-1.258,0-2.472,0.134-3.639,0.404
	c-1.169,0.269-2.193,0.699-3.073,1.291c-0.881,0.592-1.59,1.373-2.13,2.341c-0.539,0.968-0.808,2.171-0.808,3.604
	c0,0.898,0.152,1.677,0.458,2.341c0.305,0.664,0.728,1.23,1.267,1.695c0.54,0.467,1.159,0.843,1.86,1.13
	c0.7,0.288,1.447,0.521,2.237,0.699l2.935,0.857L139.776,20.903z M146.011,18.773c0.804,0.247,3.033,0.966,4.237,1.486
	c1.204,0.52,2.265,1.166,3.182,1.936c0.917,0.771,1.634,1.714,2.157,2.825c0.521,1.112,0.782,2.458,0.782,4.036
	c0,0.43-0.046,1.004-0.135,1.722c-0.09,0.719-0.306,1.479-0.647,2.287c-0.343,0.807-0.828,1.624-1.457,2.449
	c-0.629,0.825-1.492,1.569-2.588,2.233c-1.097,0.664-2.453,1.202-4.071,1.613c-1.617,0.412-3.558,0.619-5.824,0.619
	c-2.264,0-4.366-0.26-6.308-0.78c-1.941-0.52-3.595-1.318-4.96-2.395c-1.368-1.076-2.418-2.457-3.154-4.143
	c-0.737-1.687-1.051-3.713-0.944-6.081h3.667c-0.036,1.974,0.271,3.624,0.917,4.951c0.647,1.328,1.538,2.386,2.669,3.175
	c1.132,0.79,2.472,1.354,4.019,1.696c1.544,0.341,3.198,0.511,4.959,0.511c1.006,0,2.103-0.143,3.29-0.43s2.292-0.745,3.316-1.373
	s1.877-1.434,2.561-2.421c0.683-0.986,1.025-2.179,1.025-3.578c0-1.075-0.242-2.008-0.728-2.797
	c-0.484-0.789-1.114-1.454-1.887-1.992c-0.773-0.538-1.628-0.977-2.561-1.318c-0.936-0.341-1.122-0.427-1.458-0.531L146.011,18.773z
	"/>
<path d="M188.773,0.807v3.121h-22.916v13.883h21.461v3.121h-21.461v15.173h23.187v3.12H162.19V0.807H188.773z"/>
<path d="M220.748,0.807v3.121h-22.916v13.883h21.46v3.121h-21.46v15.173h23.186v3.12h-26.853V0.807H220.748z"/>
<path d="M3.666,15.26"/>
</svg>
