<svg id="Layer_1" xmlns="http://www.w3.org/2000/svg" viewBox="-268 360 74 74" enable-background="new -268 360 74 74"><style>.st0{fill:#06aa9e;stroke:#fff;stroke-width:4}.st1{filter:url(#Adobe_OpacityMaskFilter)}.st2{fill:#fff}.st3{mask:url(#mask-2)}.st4{fill:#9fd5d4}.st5{fill:#6d4760}.st6{stroke:#6d4760}.st6,.st7{fill:none;stroke-width:1.05;stroke-linecap:round}.st7{stroke:#fff}</style><title>live-meditations</title><g id="Page-1"><g id="live-meditations"><g id="Fill-41"><path id="path-1_1_" class="st0" d="M-196 397c0 19.3-15.7 35-35 35s-35-15.7-35-35 15.7-35 35-35 35 15.7 35 35"/></g><defs><filter id="Adobe_OpacityMaskFilter" filterUnits="userSpaceOnUse" x="-251.9" y="380.7" width="41.8" height="32.8"><feColorMatrix values="1 0 0 0 0 0 1 0 0 0 0 0 1 0 0 0 0 0 1 0"/></filter></defs><mask maskUnits="userSpaceOnUse" x="-251.9" y="380.7" width="41.8" height="32.8" id="mask-2"><g class="st1"><path id="path-1" class="st2" d="M-196 397c0 19.3-15.7 35-35 35s-35-15.7-35-35 15.7-35 35-35 35 15.7 35 35"/></g></mask><g id="Group-14" class="st3"><path id="Fill-33" class="st4" d="M-210.1 399s-9.4 11-20.9 11c-11.5 0-20.9-11-20.9-11s9.4-11 20.9-11c11.5 0 20.9 11 20.9 11"/><path id="Fill-34" class="st5" d="M-231 403.1c-2.3 0-4.2-1.9-4.2-4.2 0-2.3 1.9-4.2 4.2-4.2s4.2 1.9 4.2 4.2c-.1 2.4-1.9 4.2-4.2 4.2m7-4.6l-.2-.1c-.2-.1-.4-.1-.6-.1h-.1c-.2 0-.3-.1-.4-.3l-.1-.4c0-.2.1-.4.2-.4h.1c.2-.1.4-.2.5-.3l.1-.1c.1-.1.2-.3.1-.5v-.1c-.1-.2-.3-.3-.4-.3h-.2c-.2 0-.4.1-.6.1h-.1c-.2.1-.4 0-.4-.1l-.2-.3c-.1-.1-.1-.4 0-.5l.1-.1c.1-.1.3-.3.3-.5l.1-.2c.1-.2 0-.4-.1-.5l-.1-.1c-.1-.1-.3-.2-.5-.1l-.2.1c-.2.1-.4.2-.5.3l-.1.1c-.1.1-.3.1-.5 0l-.3-.2c-.1-.1-.2-.3-.1-.5v-.1c.1-.2.1-.4.1-.6v-.2c0-.2-.1-.4-.3-.4h-.1c-.2-.1-.4 0-.5.1l-.1.1c-.1.1-.3.4-.3.5v.1c-.1.2-.3.3-.4.2l-.4-.1c-.2 0-.3-.2-.3-.4v-.1c0-.2-.1-.4-.1-.6l-.1-.2c-.1-.2-.3-.3-.4-.3h-.1c-.2 0-.4.1-.4.3l-.1.2c-.1.2-.1.4-.1.6v.1c0 .2-.1.3-.3.4l-.4.1c-.2 0-.4-.1-.4-.2v-.1c-.1-.2-.2-.4-.3-.5l-.1-.1c-.1-.1-.3-.2-.5-.1h-.1c-.2.1-.3.3-.3.4v.2c0 .2.1.4.1.6v.1c.1.2 0 .4-.1.5l-.3.2c-.1.1-.4.1-.5 0l-.1-.1c-.1-.1-.3-.3-.5-.3l-.2-.1c-.2-.1-.4 0-.5.1l-.1.1c-.1.1-.2.3-.1.5l.1.2c.1.2.2.4.3.5l.1.1c.1.1.1.3 0 .5l-.2.3c-.1.1-.3.2-.4.1h-.1c-.2-.1-.4-.1-.6-.1h-.2c-.2 0-.4.1-.4.3v.1c-.1.2 0 .4.1.5l.1.1c.1.1.4.3.5.3h.1c.2.1.3.3.2.4l-.1.4c0 .2-.2.3-.4.3h-.1c-.2 0-.4.1-.6.1l-.2.1c-.2.1-.3.3-.3.4v.1c0 .2.1.4.3.4l.2.1c.2.1.4.1.6.1h.1c.2 0 .3.1.4.3l.1.4c0 .2-.1.4-.2.4h-.1c-.2.1-.4.2-.5.3l-.1.1c-.1.1-.2.3-.1.5v.1c.1.2.3.3.4.3h.2c.2 0 .4-.1.6-.1h.1c.2-.1.4 0 .5.1l.2.3c.1.1.1.4 0 .5l-.1.1c-.1.1-.3.4-.3.5l-.1.2c-.1.2 0 .4.1.5l.1.1c.1.1.3.2.5.1l.2-.1c.2-.1.4-.2.5-.3l.1-.1c.1-.1.3-.1.5 0l.3.2c.1.1.2.3.1.5v.1c-.1.2-.1.4-.1.6v.2c0 .2.1.4.3.4h.1c.2.1.4 0 .5-.1l.1-.1c.1-.1.3-.4.3-.5v-.1c.1-.2.3-.3.4-.2l.4.1c.2 0 .3.2.3.4v.1c0 .2.1.4.1.6l.1.2c.1.2.3.3.4.3h.1c.2 0 .4-.1.4-.3l.1-.2c.1-.2.1-.4.1-.6v-.1c0-.2.1-.3.3-.4l.4-.1c.2 0 .4.1.4.2v.1c.1.2.2.4.3.5l.1.1c.1.1.3.2.5.1h.1c.2-.1.3-.3.3-.4v-.2c0-.2-.1-.4-.1-.6v-.1c-.1-.2 0-.4.1-.5l.3-.2c.1-.1.4-.1.5 0l.1.1c.1.1.3.3.5.3l.2.1c.2.1.4 0 .5-.1l.1-.1c.1-.1.2-.3.1-.5l-.1-.2c-.1-.2-.2-.4-.3-.5l-.1-.1c-.1-.1-.1-.3 0-.5l.2-.3c.1-.1.3-.2.5-.1h.1c.2.1.4.1.6.1h.2c.2 0 .4-.1.4-.3v-.1c.1-.2 0-.4-.1-.5l-.1-.1c-.1-.1-.4-.3-.5-.3h-.1c-.2-.1-.3-.3-.2-.4l.1-.4c0-.2.2-.3.4-.3h.1c.2 0 .4-.1.6-.1l.2-.1c.2-.1.3-.3.3-.4l-.5-.5m-7 2.8c-1.3 0-2.3-1-2.3-2.3 0-1.3 1-2.3 2.3-2.3 1.3 0 2.3 1 2.3 2.3 0 1.3-1.1 2.3-2.3 2.3"/><path id="Stroke-35" class="st6" d="M-230.9 384.8v-3.6"/><path id="Stroke-36" class="st6" d="M-233.7 385.2l-1.7-3.4"/><path id="Stroke-37" class="st6" d="M-228.4 385.2l1.7-3.4"/><path id="Stroke-38" class="st6" d="M-237.3 386.2l-2.7-2.4"/><path id="Stroke-39" class="st6" d="M-225 386.2l2.4-2.4"/><path id="Stroke-40" class="st7" d="M-237.6 411.8c2.1.7 4.3 1.1 6.6 1.1s4.5-.4 6.6-1.2"/></g></g></g></svg>