<svg id="Layer_1" xmlns="http://www.w3.org/2000/svg" viewBox="-268 360 74 74"><style>.st0{fill:#06aa9e;stroke:#fff;stroke-width:4}.st1{fill:#fff}.st2{fill:#6d4760}.st3{fill:#9fd5d4}.st4{fill:none;stroke:#6d4760;stroke-width:.7}</style><title>Artboard 1 Copy</title><g id="Page-1"><g id="Artboard-1-Copy"><g id="Group"><path id="Fill-41" class="st0" d="M-196 397c0 19.3-15.7 35-35 35s-35-15.7-35-35 15.7-35 35-35 35 15.7 35 35"/><path id="Fill-25" class="st1" d="M-223.1 397.1c-.1 0-.2 0-.2-.1-1.2-1.2-1.9-2.8-1.9-4.5 0-3.4 2.8-6.1 6.1-6.1 3.4 0 6.1 2.8 6.1 6.1 0 .6-.1 1.2-.3 1.8 0 .1-.2.2-.3.2h-.1c-.2-.1-.3-.2-.2-.4.2-.5.2-1.1.2-1.6 0-3-2.5-5.5-5.5-5.5s-5.5 2.5-5.5 5.5c0 1.5.6 3 1.7 4 .1.1.1.3 0 .5.1.1 0 .1-.1.1m6.8 5.7c-.9 0-1.3-.7-1.7-1.5-.2-.4-.4-.9-.7-1.2-1.6-1.7-2.3-3.4-1.8-4.7.3-.8 1.2-1.3 2.4-1.3.9 0 2.1.5 2.7 1.3.1.1.1.3-.1.5-.1.1-.1.1-.2.1s-.2 0-.3-.1c-.5-.6-1.4-1.1-2.2-1.1-1.2 0-1.6.5-1.8.9-.4 1 .2 2.5 1.7 4 .4.4.6.9.9 1.3.3.7.6 1.2 1.1 1.2.3 0 .4-.1.5-.2.4-.4.4-1.2.3-1.5 0-.2.1-.3.3-.4.2 0 .3.1.3.3 0 .1.1 1.3-.5 2-.1.3-.5.4-.9.4m-1.5 7.6c-2.7 0-4.8-2-4.8-4.8 0-2-1.2-3.5-2.6-5.3-1.6-2-3.4-4.3-3.4-7.8 0-2.5 1-4.9 2.8-6.6 1.8-1.8 4.1-2.8 6.6-2.8s4.9 1 6.6 2.8c1.8 1.8 2.8 4.1 2.8 6.6 0 1.5-.4 3.1-1.1 4.4-.1.1-.2.2-.3.2h-.2c-.1 0-.1-.1-.2-.2v-.2c.7-1.3 1-2.7 1-4.1 0-4.8-3.9-8.7-8.7-8.7-4.8 0-8.7 3.9-8.7 8.7 0 3.3 1.7 5.4 3.3 7.4 1.3 1.7 2.7 3.4 2.7 5.7 0 2.4 1.7 4.1 4.1 4.1 2.1 0 3.7-1.7 3.7-3.7 0-.5-.1-1.1-.3-1.6v-.2c0-.1.1-.1.2-.2h.1c.1 0 .2.1.3.2.3.6.4 1.2.4 1.8.1 2.3-1.8 4.3-4.3 4.3"/><path id="Fill-27" class="st2" d="M-247.7 408.4h12.8v-22.8h-12.8v22.8zm6.4 3.4c-.4 0-.8-.4-.8-.8s.4-.8.8-.8.8.4.8.8-.4.8-.8.8zm-1.3-29h2.5c.1 0 .3.1.3.2s-.1.2-.3.2h-2.5c-.1 0-.3-.1-.3-.2.1-.1.2-.2.3-.2zm6.8-2.3h-10.9c-1.3 0-2.4 1-2.4 2.4v28.2c0 1.3 1.1 2.5 2.4 2.5h10.9c1.3 0 2.4-1.1 2.4-2.5v-28.2c0-1.4-1.1-2.4-2.4-2.4z"/><path id="Fill-29" class="st3" d="M-247.7 408.4h12.8v-22.8h-12.8v22.8z"/><path id="Stroke-30" class="st4" d="M-237.1 380.5v-2.9c0-4.7 6.2-4.5 6.2 0v20.5c0 12.4 14.3 12.1 14.3 1.4"/><path id="Fill-31" class="st2" d="M-215 398.2c0 .9-.7 1.6-1.6 1.6-.9 0-1.6-.7-1.6-1.6 0-.9.7-1.6 1.6-1.6.9-.1 1.6.7 1.6 1.6"/></g></g></g></svg>