<svg id="Layer_1" xmlns="http://www.w3.org/2000/svg" viewBox="-268 360 74 74"><style>.st0{fill:#06aa9e;stroke:#fff;stroke-width:4}.st1{fill:#fff}.st2{fill:#6d4760}.st3{fill:#9fd5d4}</style><title>Artboard 1</title><g id="Page-1"><g id="Artboard-1"><g id="Group-6"><path id="Fill-41" class="st0" d="M-196 397c0 19.3-15.7 35-35 35s-35-15.7-35-35 15.7-35 35-35 35 15.7 35 35"/><path id="Fill-42" class="st1" d="M-243.9 397l5.8-23.1h23.2l-.6 3.6h-19.7l-4.3 16c2.6-1.8 5.5-2.6 8.9-2.6 3.9 0 6.9 1.5 9 4.3 2.1 2.8 3 6.4 2.6 10.7-.4 4.8-2.1 8.8-4.9 11.7-2.8 3-6.5 4.4-10.9 4.3-3.8-.1-6.9-1.3-9.1-3.8-2.2-2.4-3.3-5.6-3.3-9.4h3.7c0 3.1.8 5.5 2.3 7.2 1.5 1.7 3.7 2.6 6.5 2.7 3.3.1 6-1 8.1-3.4 2.1-2.3 3.3-5.5 3.7-9.3.3-3.3-.3-6.1-1.8-8.2-1.5-2.1-3.8-3.2-6.7-3.3-3.3-.1-6.4 1-9.3 3.4l-3.2-.8z"/><path id="Fill-43" class="st2" d="M-227.7 405.4c-.3-.1-.6 0-.7.3l-2.2 6.1-2.1-5.8-.6-1.6c-.5-1.1-1-2.5-1-2.9 0-.5.4-1 1-1s1 .4 1 1c0 .3-.3 1.2-.6 2.1l.6 1.5c.5-1.4 1.1-3.1 1.1-3.6 0-1.2-.8-2.1-2.1-2.1s-2.1.8-2.1 2.1c0 .7.9 2.9 1.5 4.5l.6 1.5 2.2 6.1c.1.2.3.4.5.4s.4-.1.5-.4l2.7-7.4c.1-.4 0-.7-.3-.8"/><path id="Fill-44" class="st2" d="M-234.3 406.8l-1.8 4.9-2.2-6.1c-.1-.3-.4-.4-.7-.3-.3.1-.4.4-.3.7l2.7 7.4c.1.2.3.4.5.4s.4-.1.5-.4l1.9-5.2-.6-1.4z"/><g id="Group-5"><g id="Group"><path id="Fill-45" class="st3" d="M-253.6 397.3c0 1.4-1.2 2.6-2.6 2.6-1.4 0-2.6-1.2-2.6-2.6 0-1.4 1.2-2.6 2.6-2.6 1.5 0 2.6 1.1 2.6 2.6"/><path id="Fill-46" class="st3" d="M-251.9 389.6c0 .9-.8 1.7-1.7 1.7s-1.7-.8-1.7-1.7.8-1.7 1.7-1.7 1.7.8 1.7 1.7"/><path id="Fill-47" class="st3" d="M-251.9 404.9c0 .9-.8 1.7-1.7 1.7s-1.7-.8-1.7-1.7.8-1.7 1.7-1.7 1.7.8 1.7 1.7"/></g><g id="Group-4"><path id="Fill-48" class="st3" d="M-207.4 397.3c0-1.4 1.2-2.6 2.6-2.6 1.4 0 2.6 1.2 2.6 2.6 0 1.4-1.2 2.6-2.6 2.6-1.4 0-2.6-1.2-2.6-2.6"/><path id="Fill-49" class="st3" d="M-209 404.9c0-.9.8-1.7 1.7-1.7s1.7.8 1.7 1.7-.8 1.7-1.7 1.7-1.7-.8-1.7-1.7"/><path id="Fill-50" class="st3" d="M-209 389.6c0-.9.8-1.7 1.7-1.7s1.7.8 1.7 1.7-.8 1.7-1.7 1.7-1.7-.8-1.7-1.7"/></g></g></g></g></g></svg>