<svg id="Layer_1" xmlns="http://www.w3.org/2000/svg" viewBox="-268 360 74 74" enable-background="new -268 360 74 74"><style>.st0{fill:#06aa9e;stroke:#fff;stroke-width:4}.st1{filter:url(#Adobe_OpacityMaskFilter)}.st2{fill:#fff}.st3{mask:url(#mask-2)}.st4{filter:url(#Adobe_OpacityMaskFilter_1_)}.st5{mask:url(#mask-4);fill:#6d4760}.st6{fill:none;stroke:#6d4760;stroke-width:.92;stroke-linecap:round}</style><title>Coaching</title><g id="Page-1"><g id="Coaching"><g id="Fill-41"><path id="path-1_1_" class="st0" d="M-196 397c0 19.3-15.7 35-35 35s-35-15.7-35-35 15.7-35 35-35 35 15.7 35 35"/></g><defs><filter id="Adobe_OpacityMaskFilter" filterUnits="userSpaceOnUse" x="-319.6" y="345.5" width="113.7" height="128.5"><feColorMatrix values="1 0 0 0 0 0 1 0 0 0 0 0 1 0 0 0 0 0 1 0"/></filter></defs><mask maskUnits="userSpaceOnUse" x="-319.6" y="345.5" width="113.7" height="128.5" id="mask-2"><g class="st1"><path id="path-1" class="st2" d="M-196 397c0 19.3-15.7 35-35 35s-35-15.7-35-35 15.7-35 35-35 35 15.7 35 35"/></g></mask><g id="Group-22" class="st3"><g id="Group-13" transform="translate(3.917 4.166)"><defs><filter id="Adobe_OpacityMaskFilter_1_" filterUnits="userSpaceOnUse" x="-323.5" y="341.3" width="83.4" height="128.5"><feColorMatrix values="1 0 0 0 0 0 1 0 0 0 0 0 1 0 0 0 0 0 1 0"/></filter></defs><mask maskUnits="userSpaceOnUse" x="-323.5" y="341.3" width="83.4" height="128.5" id="mask-4"><g class="st4"><path id="path-3" class="st2" d="M-240.1 425.4c-15.8-2.7-27.8-16.3-27.8-32.6s12-29.9 27.8-32.6v65.2z"/></g></mask><path id="Fill-11" class="st5" d="M-247.4 398.4l.1-.4s3.2-1 3.3-1.9c0 0 .5-1.8-.5-2.4 0 0-1.6-1.3.2-3.1 0 0 3.6-1.1 4-3.1.4-2-.5-2.2-1.6-3.8-1.2-1.6-3.8-3.9-4.4-4.8-.6-.9-2.9-3.2-2.6-5.5.4-2.2.9-3.9.1-6.3s-3-7.3-3-7.3l-.1-.2s-4.8-7.8-6.9-9.3c-2.2-1.5.6-4.2-12.8-7.8-13.4-3.6-25.2 2.2-26.8 3-1.6.8-8.2 5.6-9.2 9.5 0 0-4.5-5.8-9.9-.8 0 0-5.3 5.6-6 14.4-.7 8.8 1 11.2 3.7 14.6 0 0 2.1 2.3 5.1 1.4 0 0 .7-.3 1.1.3 0 0 2.4 1.5 3.6-1.2 0 0 .8 2.1 1.3 2.6 0 0-.3 4 3.5 9s6.4 7.9 9.5 9c0 0 .5 5 .1 6.9-.4 1.9-2.5 8.7-4.1 11.6-1.6 2.8-7.7 14.7-9.4 17-1.7 2.3-8.3 10.9-9.1 15.5-.8 4.7-.6 14.6-.6 14.6h65.6s-3-5.9-5-7.9c-1.9-2-5.5-6.4-6.2-7.3-.7-1-.7-.2-1-2.8-.3-2.7-1.4-4.1-1.9-4.8-.5-.7-2.3-2.8-2.6-3.1-.3-.3-.7-3.2-3-2.9 0 0-.7-4.5-.6-5.9.1-1.4 1-5.3 3-8.5 0 0 1.7-3.7 2.4-5.6.7-1.8 2.8-5.5 3.2-6.5.4-1 1-3.1 4.4-2.9 0 0 9.6 1.3 11.5-.3 0 0 3.3-2.1 1.9-6.6 0 0-1.2-1.4-.2-1.8 0 0 1.2-1 1.6-.8.2-.1 2.4-3.1-1.7-3.8"/></g><path id="Fill-14" class="st2" d="M-221.383 397.066c-.1 0-.2 0-.3-.1-1.4-1.3-2.2-3.2-2.2-5.1 0-3.9 3.2-7 7.1-7 3.9 0 7.1 3.1 7.1 7 0 .7-.1 1.4-.3 2.1 0 .2-.2.3-.4.3h-.1c-.2-.1-.3-.3-.2-.5.2-.6.3-1.2.3-1.8 0-3.5-2.9-6.3-6.4-6.3-3.5 0-6.4 2.8-6.4 6.3 0 1.7.7 3.4 2 4.6.2.1.2.4 0 .5h-.2m7.9 6.5c-1 0-1.5-.8-2-1.7-.2-.5-.5-1-.9-1.4-1.9-1.9-2.7-3.9-2.1-5.3.4-.9 1.4-1.5 2.8-1.5 1.1 0 2.4.6 3.1 1.5.1.2.1.4-.1.5-.1.1-.2.1-.2.1-.1 0-.2-.1-.3-.1-.6-.7-1.6-1.2-2.5-1.2-1.3 0-1.9.5-2.1 1-.5 1.1.3 2.8 1.9 4.5.5.5.7 1 1 1.5.4.8.7 1.3 1.3 1.3.3 0 .5-.1.6-.2.4-.4.4-1.4.4-1.7 0-.2.1-.4.3-.4.2 0 .4.1.4.3 0 .1.1 1.5-.6 2.3-.1.4-.5.5-1 .5m-1.7 8.7c-3.1 0-5.5-2.3-5.5-5.4 0-2.3-1.4-4-3-6-1.8-2.3-3.9-4.9-3.9-8.9 0-2.9 1.1-5.5 3.2-7.6s4.8-3.1 7.7-3.1c2.9 0 5.6 1.1 7.7 3.1 2.1 2 3.2 4.7 3.2 7.6 0 1.7-.4 3.5-1.3 5-.1.1-.2.2-.3.2h-.2c-.1 0-.2-.1-.2-.2v-.3c.8-1.4 1.2-3 1.2-4.7 0-5.5-4.5-10-10.1-10s-10.1 4.5-10.1 10c0 3.7 1.9 6.1 3.8 8.4 1.5 1.9 3.1 3.9 3.1 6.5 0 2.7 2 4.7 4.8 4.7 2.4 0 4.3-1.9 4.3-4.3 0-.6-.1-1.2-.4-1.8v-.3c0-.1.1-.2.2-.2h.2c.1 0 .3.1.3.2.3.7.5 1.4.5 2.1-.2 2.7-2.4 5-5.2 5"/><path id="Stroke-16" class="st6" d="M-236.683 401.766h6.7"/><path id="Stroke-18" class="st6" d="M-236.683 398.566l5.8-2.3"/><path id="Stroke-20" class="st6" d="M-236.683 404.666l5.8 2.3"/></g></g></g></svg>