<svg id="Layer_1" xmlns="http://www.w3.org/2000/svg" viewBox="-292 387 26 19"><style>.st0{fill:#fff}</style><title>Group 5</title><g id="Page-1"><g id="Drawer"><g id="Group-5"><path id="Rectangle-333" class="st0" d="M-278.1 395.2c6.7 0 12.1.8 12.1 1.8s-5.4 1.8-12.1 1.8c-6.7 0-12.1-.8-12.1-1.8s5.4-1.8 12.1-1.8z"/><path id="Rectangle-333_1_" class="st0" d="M-284.7 399.1c2.6 2.6 4.2 5.3 3.5 6-.7.7-3.4-.8-6-3.5-2.6-2.6-4.2-5.3-3.5-6 .7-.7 3.4.9 6 3.5z"/><path id="Rectangle-333_2_" class="st0" d="M-284.7 394.4c2.6-2.6 4.2-5.3 3.5-6-.7-.7-3.4.8-6 3.5-2.6 2.6-4.2 5.3-3.5 6 .7.7 3.4-.9 6-3.5z"/></g></g></g></svg>