<svg id="Layer_1" xmlns="http://www.w3.org/2000/svg" viewBox="-275 367 60 60"><style>.st0{fill:#fff}</style><title>Artboard 67</title><g id="Page-1"><g id="Artboard-67"><g id="Group-2"><path id="Rectangle-3" class="st0" d="M-254.4 387.6c.9-.9 2.3-.9 3.1 0l15.6 15.6c.9.9.9 2.3 0 3.1-.9.9-2.3.9-3.1 0l-15.6-15.6c-.8-.8-.8-2.2 0-3.1z"/><path id="Rectangle-3_1_" class="st0" d="M-235.6 387.6c-.9-.9-2.3-.9-3.1 0l-15.6 15.6c-.9.9-.9 2.3 0 3.1.9.9 2.3.9 3.1 0l15.6-15.6c.8-.8.8-2.2 0-3.1z"/></g></g></g></svg>