<svg width="350" height="157" viewBox="0 0 350 157" xmlns="http://www.w3.org/2000/svg" xmlns:xlink="http://www.w3.org/1999/xlink"><title>Group 10</title><defs><path id="a" d="M13.14 2.52c-5.65 0-9.555-4.875-12.09-.78-2.536 4.096-.78 15.648 12.09 15.648 12.873 0 14.627-11.552 12.092-15.648-2.535-4.095-6.44.78-12.09.78z"/></defs><g fill="none" fill-rule="evenodd"><path d="M211.906 140.946c0 2.337-20.862 4.232-46.596 4.232-25.734 0-46.596-1.895-46.596-4.232 0-2.338 20.862-4.233 46.596-4.233 25.734 0 46.596 1.895 46.596 4.233" fill-opacity=".1" fill="#000"/><path d="M136.355 76.003s-13.85-14.63-21.7-2.16c-7.848 12.467 5.9 21.514 9.927 7.16 2.93-10.454 7.848.812 7.848.812m61.835-5.812s13.85-14.63 21.7-2.16c7.848 12.467-5.9 21.514-9.926 7.16-2.94-10.454-7.85.812-7.85.812m-36.17-22.28s.53-5.07 7.08-7.788c0 0-6.55 4.08-3.54 8.28m-4.61 1.645s.94-5.588-3.59-9.846c0 0 4.16 5.728.603 9.67" fill="#C44676"/><path d="M163.822 58.042s3.215-4.67 9.43-4.57c0 0-6.976 1.213-7.17 6.517m-3.276-2.82s2.74-4.96-.125-10.477c0 0 2.04 6.782-2.62 9.327m-9.94 69.176s3.26 10.143 1.45 11.954c-1.81 1.813-7.29.38-6.52 2.175 1.09 2.536 5.48 1.81 9.6 1.81 3.44 0 1.63-17.75 1.63-17.75l-6.16 1.81m30.39.07s-3.26 10.143-1.45 11.954c1.81 1.81 7.29.38 6.52 2.17-1.083 2.536-5.48 1.81-9.6 1.81-3.44 0-1.63-17.75-1.63-17.75l6.16 1.81m-38.482-21.355c-3.134 15.02 1.61 28.94-13.273 28.813-14.885-.126-11.266 8.58-1.69 8.58 9.58 0 21.174-3.973 15.946-34.24l-.982-3.153m46.58 0c3.135 15.02-1.61 28.94 13.274 28.813 14.887-.124 11.268 8.58 1.69 8.58s-21.173-3.97-15.945-34.24l.983-3.15" fill="#C44676"/><path d="M165.31 134.066c17.82 0 34.475-31.214 34.475-50.2 0-19.866-17.643-27.978-34.475-27.978S130.836 64 130.836 83.868c0 18.984 16.654 50.198 34.474 50.198" fill="#D6407E"/><path d="M153.337 111.817c-2.405 0-4.355-.975-4.355-2.178 0-1.21 1.95-2.18 4.355-2.18 2.405 0 4.355.97 4.355 2.17s-1.95 2.177-4.355 2.177m23.946.002c-2.405 0-4.355-.976-4.355-2.18 0-1.203 1.95-2.18 4.355-2.18 2.405 0 4.355.977 4.355 2.18s-1.95 2.176-4.355 2.176" fill="#C03971"/><path d="M149.718 96.554l5.637-2.463a.68.68 0 0 0-.544-1.24l-5.63 2.468a.68.68 0 0 0 .547 1.245m31.753-1.016l-5.61-2.735a.68.68 0 1 0-.595 1.22l5.604 2.736a.68.68 0 1 0 .594-1.222m-11.756 22.77c0-2.695-1.5-4.837-4.388-4.837-2.53 0-4.42 1.98-4.42 4.8" fill="#5A4151"/><path d="M165.27 116.83c-1.313 0-2.452.538-3.246 1.45l6.573.022c-.736-.91-1.848-1.473-3.326-1.473" fill="#6C6C8F"/><path d="M177.193 84.376a4.247 4.247 0 0 1-8.494 0c0-2.345 4.24-8.108 4.24-8.108s4.244 5.763 4.244 8.108" fill="#DA538B"/><path d="M158.14 105.41a4.527 4.527 0 1 1-9.054 0 4.527 4.527 0 0 1 9.054 0" fill="#FFF"/><path d="M156.65 106.798a2.502 2.502 0 1 1-5.005 0 2.502 2.502 0 0 1 5.004 0" fill="#5A4151"/><path d="M181.6 105.41a4.527 4.527 0 1 1-9.053 0 4.527 4.527 0 0 1 9.054 0" fill="#FFF"/><path d="M180.11 106.798a2.502 2.502 0 1 1-5.004 0 2.502 2.502 0 0 1 5.004 0" fill="#5A4151"/><path d="M325.747 140.558c0 2.338-15.403 4.233-34.404 4.233-19.004 0-34.407-1.89-34.407-4.23 0-2.33 15.403-4.23 34.407-4.23 19 0 34.404 1.9 34.404 4.23" fill-opacity=".1" fill="#000"/><path d="M274.687 113.902s-59.082-11.632-36.36-53.2c9.068-15.22 26.454-11.686 7.797 22.277-8.785 18.2 22.39 22.18 22.39 22.18m39.482 8.74s59.082-11.63 36.36-53.2c-9.068-15.22-26.455-11.69-7.798 22.27 8.786 18.203-22.39 22.18-22.39 22.18" fill="#35A7C0"/><path d="M291.343 89.96c-11.643 0-19.403 25.034-18.107 35.365 1.292 6.452 18.107 5.806 18.107 5.806s16.812.65 18.104-5.8c1.296-10.33-6.464-35.36-18.104-35.36" fill="#3CBBD6"/><path d="M326.846 87.218c0 17.9-15.897 30.177-35.503 30.177-19.61 0-35.506-12.276-35.506-30.177 0-17.9 15.897-35.765 35.506-35.765 19.606 0 35.503 17.864 35.503 35.765" fill="#3CBBD6"/><path d="M279.382 85.24c-2.403 0-4.352-.974-4.352-2.174 0-1.202 1.95-2.176 4.352-2.176 2.403 0 4.348.974 4.348 2.176 0 1.2-1.945 2.174-4.348 2.174m23.918 0c-2.403 0-4.347-.974-4.347-2.174 0-1.202 1.944-2.176 4.348-2.176s4.36.974 4.36 2.176c0 1.2-1.95 2.174-4.35 2.174" fill="#35A7C0"/><path d="M274.43 125.78s3.26 10.144 1.45 11.956c-1.81 1.81-7.288.38-6.52 2.173 1.086 2.53 5.477 1.81 9.597 1.81 3.442 0 1.63-17.75 1.63-17.75l-6.158 1.81m33.82.07s-3.26 10.14-1.45 11.95c1.81 1.81 7.29.38 6.52 2.17-1.09 2.535-5.48 1.81-9.6 1.81-3.44 0-1.63-17.753-1.63-17.753l6.16 1.812" fill="#3CBBD6"/><path d="M274.146 63.86l6.13-.505a.7.7 0 0 0 .643-.76.7.7 0 0 0-.76-.644l-6.13.51a.703.703 0 1 0 .11 1.41m34.54-1.165l-6.1-.8a.704.704 0 0 0-.184 1.396l6.1.8a.7.7 0 0 0 .79-.606.702.702 0 0 0-.606-.79" fill="#5A4151"/><path d="M285.734 77.754a5.51 5.51 0 1 1-11.02-.002 5.51 5.51 0 0 1 11.02.002" fill="#FFF"/><path d="M283.45 75.88a3.23 3.23 0 1 1-6.457 0 3.23 3.23 0 0 1 6.458 0" fill="#5A4151"/><path d="M282.258 73.62a.968.968 0 1 1-1.937 0 .968.968 0 0 1 1.94 0m25.71 4.134a5.51 5.51 0 0 1-5.51 5.51 5.507 5.507 0 0 1-5.5-5.51 5.507 5.507 0 0 1 5.507-5.51 5.51 5.51 0 0 1 5.51 5.51" fill="#FFF"/><path d="M305.69 75.88a3.23 3.23 0 1 1-6.46-.002 3.23 3.23 0 0 1 6.46 0" fill="#5A4151"/><path d="M304.494 73.62a.967.967 0 1 1-1.935.002.967.967 0 0 1 1.93 0" fill="#FFF"/><path d="M305.635 85.526c0 7.394-6.566 12.464-14.665 12.464-8.1 0-14.66-5.07-14.66-12.464" fill="#5A4151"/><path d="M300.034 95.47c-2.497-1.603-5.64-2.518-9.064-2.518-3.42 0-6.562.915-9.06 2.52 2.498 1.604 5.64 2.518 9.06 2.518 3.425 0 6.567-.914 9.064-2.52" fill="#C44676"/><path d="M291.343 57.982s-.094-.242-.218-.665a18.834 18.834 0 0 1-.412-1.755 26.268 26.268 0 0 1-.33-2.48 28.573 28.573 0 0 1-.095-1.4c-.022-.476-.026-.96-.035-1.444.01-.484.01-.967.035-1.444a27 27 0 0 1 .09-1.4c.077-.906.197-1.753.335-2.48.133-.725.287-1.33.412-1.754.12-.423.218-.665.218-.665s.095.242.215.665c.124.424.28 1.03.412 1.755.137.726.258 1.573.335 2.48.038.454.073.923.09 1.4.026.476.026.96.034 1.443-.01.484-.02.968-.04 1.445a24.08 24.08 0 0 1-.098 1.4 26.268 26.268 0 0 1-.33 2.48 19.61 19.61 0 0 1-.413 1.754c-.124.423-.215.665-.215.665" fill="#3CBBD6"/><path d="M295.88 44.86h-.54a3.992 3.992 0 0 1-1.173 2.826 3.98 3.98 0 0 1-2.824 1.17 3.988 3.988 0 0 1-3.996-3.996 3.99 3.99 0 0 1 3.996-3.995c1.103 0 2.1.446 2.824 1.17a3.993 3.993 0 0 1 1.172 2.825h1.08a5.082 5.082 0 0 0-5.08-5.082 5.083 5.083 0 0 0 0 10.165 5.082 5.082 0 0 0 5.08-5.083h-.548" fill="#3CBBD6"/><path d="M291.343 117.395c-5.545 0-10.077 4.534-10.077 10.075v.28c4.85.94 10.077.74 10.077.74s5.224.2 10.073-.74v-.28c0-5.54-4.532-10.075-10.073-10.075" fill-opacity=".3" fill="#FFF"/><path d="M95.045 141.177c0 2.338-15.932 4.233-35.586 4.233-19.66 0-35.59-1.895-35.59-4.233 0-2.337 15.93-4.232 35.58-4.232s35.585 1.895 35.585 4.232" fill-opacity=".1" fill="#000"/><path d="M47.055 124.69s-3.332 7.22-1.388 14.996c-3.055.555-4.444 2.22-2.777 2.22h5.832c2.22 0 .555-12.227 5.276-11.95 4.72.278-6.943-5.266-6.943-5.266m24.875 0s3.333 7.22 1.39 14.996c3.054.555 4.443 2.22 2.776 2.22h-5.83c-2.223 0-.557-12.227-5.278-11.95-4.72.278 6.943-5.266 6.943-5.266M27.3 99.783s-7.41-2.73-11.312 3.9c-3.9 6.63 1.17 15.212-4.68 17.162-5.85 1.95-6.936-12.253 0-20.282 5.728-6.63 15.992-3.51 15.992-3.51v2.73m.053-12.47s-4.7-6.348-11.597-2.944c-6.9 3.4-7.367 13.36-13.33 11.78-5.96-1.58.923-14.05 11.127-16.96 8.427-2.4 15.297 5.84 15.297 5.84l-1.498 2.28m64.34 12.47s7.41-2.73 11.31 3.9c3.9 6.63-1.17 15.21 4.68 17.16 5.85 1.95 6.937-12.254 0-20.28-5.728-6.63-15.99-3.51-15.99-3.51v2.73m-.054-12.47s4.7-6.35 11.597-2.946c6.9 3.4 7.366 13.36 13.328 11.78s-.92-14.05-11.125-16.96c-8.425-2.4-15.295 5.84-15.295 5.84l1.497 2.283" fill="#12A19F"/><path d="M59.493 51.417c-20.868 0-35.69 24.573-35.69 46.806 0 23.265 15.98 32.763 35.69 32.763 19.71 0 35.69-9.498 35.69-32.763 0-22.233-14.823-46.806-35.69-46.806" fill="#15B4B2"/><path d="M46.617 95.15c-2.587 0-4.684-1.05-4.684-2.343s2.097-2.34 4.684-2.34c2.586 0 4.683 1.047 4.683 2.34s-2.097 2.342-4.683 2.342m25.753 0c-2.587 0-4.684-1.05-4.684-2.35s2.097-2.34 4.683-2.34 4.68 1.046 4.68 2.34-2.1 2.34-4.69 2.34" fill="#12A19F"/><path d="M71.584 99.327c-2.535-4.095-6.44.78-12.09.78-5.653 0-9.557-4.875-12.092-.78-2.536 4.096-.78 15.65 12.09 15.65 12.872 0 14.628-11.554 12.092-15.65" fill="#5A4151"/><path d="M49.78 111.55c2.076 2.01 5.213 3.426 9.713 3.426 4.5 0 7.638-1.415 9.712-3.426-2.074-2.012-5.212-3.426-9.712-3.426s-7.637 1.414-9.712 3.426" fill="#C44676"/><path d="M40.98 73.35l6.6-.544a.758.758 0 1 0-.125-1.51l-6.6.542a.758.758 0 1 0 .124 1.512m37.19-1.253l-6.57-.863a.758.758 0 1 0-.2 1.504l6.563.862a.758.758 0 1 0 .2-1.503" fill="#5A4151"/><path d="M46.623 93.845a4.266 4.266 0 1 1 0-8.53 4.266 4.266 0 0 1 0 8.53zm25.68 0a4.266 4.266 0 1 1 0-8.53 4.266 4.266 0 0 1 0 8.53z" fill="#FFF"/><path d="M48.72 89.61a2.077 2.077 0 1 1-4.156 0 2.077 2.077 0 0 1 4.155 0m25.6-.086a2.077 2.077 0 1 1-4.157 0 2.077 2.077 0 0 1 4.156 0" fill="#5A4151"/><g transform="translate(46.352 97.588)"><mask id="b" fill="#fff"><use xlink:href="#a"/></mask><path d="M13.743 2.066c0 1.89-1.082 3.422-2.418 3.422s-2.42-1.532-2.42-3.422c0-1.89 1.084-3.422 2.42-3.422 1.336 0 2.418 1.532 2.418 3.422" fill="#FFF" mask="url(#b)"/><path d="M9.507 1.408c0 1.882-.903 3.407-2.018 3.407-1.12 0-2.02-1.525-2.02-3.407C5.47-.474 6.37-2 7.49-2 8.603-2 9.506-.474 9.506 1.408" fill="#FFF" mask="url(#b)"/><path d="M5.964.102c0 1.882-.903 3.408-2.018 3.408-1.114 0-2.018-1.526-2.018-3.408s.904-3.407 2.018-3.407c1.115 0 2.018 1.525 2.018 3.407m6.62 2.038c0 1.89 1.083 3.42 2.42 3.42 1.334 0 2.417-1.53 2.417-3.42s-1.08-3.423-2.41-3.423c-1.334 0-2.42 1.532-2.42 3.422" fill="#FFF" mask="url(#b)"/><path d="M16.82 1.408c0 1.882.903 3.407 2.018 3.407 1.114 0 2.018-1.525 2.018-3.407C20.856-.474 19.952-2 18.838-2 17.723-2 16.82-.474 16.82 1.408" fill="#FFF" mask="url(#b)"/><path d="M20.363.102c0 1.882.903 3.408 2.018 3.408 1.12 0 2.02-1.526 2.02-3.408s-.9-3.407-2.02-3.407c-1.11 0-2.01 1.525-2.01 3.407" fill="#FFF" mask="url(#b)"/></g><path d="M47.856 96.008v-.585h-4.294a6.06 6.06 0 0 1-4.294-1.787 6.057 6.057 0 0 1-1.787-4.293 6.06 6.06 0 0 1 1.79-4.294 6.06 6.06 0 0 1 4.3-1.79h4.295a6.06 6.06 0 0 1 4.294 1.78 6.06 6.06 0 0 1 1.787 4.293 6.06 6.06 0 0 1-1.785 4.293 6.06 6.06 0 0 1-4.293 1.787v1.17c3.992 0 7.25-3.26 7.25-7.25s-3.258-7.25-7.25-7.25h-4.3c-3.993 0-7.25 3.26-7.25 7.25s3.257 7.25 7.25 7.25h4.293V96m27.568.003v-.587h-4.3a6.06 6.06 0 0 1-4.29-1.788 6.058 6.058 0 0 1-1.786-4.294 6.06 6.06 0 0 1 1.78-4.295 6.06 6.06 0 0 1 4.296-1.79h4.293a6.06 6.06 0 0 1 4.293 1.786 6.06 6.06 0 0 1 1.787 4.293 6.06 6.06 0 0 1-1.786 4.295 6.06 6.06 0 0 1-4.294 1.79v1.17c3.994 0 7.25-3.26 7.25-7.25s-3.256-7.25-7.25-7.25h-4.29c-3.99 0-7.25 3.26-7.25 7.25s3.26 7.25 7.25 7.25h4.295V96" fill="#5A4151"/><path d="M54.746 88.74h9.494v1.17h-9.494v-1.17z" fill="#5A4151"/><path d="M58.023 51.557s.374-5.116 4.99-7.86c0 0-4.616 4.117-2.495 8.36" fill="#2EB3A5"/><path d="M58.905 53.133s1.844-5.36 7.856-6.933c0 0-6.39 3.04-5.15 8.202" fill="#2EB3A5"/><path d="M148.063 148.832c0 2.337-16.23 4.232-36.25 4.232s-36.248-1.895-36.248-4.232c0-2.338 16.23-4.233 36.25-4.233s36.248 1.89 36.248 4.23" fill-opacity=".1" fill="#000"/><path d="M92.788 82.208a7.304 7.304 0 1 1-14.607 0 7.304 7.304 0 0 1 14.61 0" fill="#9190C9"/><path d="M82.28 86.11a37.15 37.15 0 0 1 7.067-7.152 5.05 5.05 0 1 0-7.067 7.153" fill="#8177AC"/><path d="M130.945 82.208a7.304 7.304 0 1 0 14.607 0 7.304 7.304 0 0 0-14.607 0" fill="#9190C9"/><path d="M141.452 86.11a37.15 37.15 0 0 0-7.066-7.152 5.05 5.05 0 1 1 7.067 7.153M87.188 114c-2.635 7.843-6.58 13.43-12.238 15.828-5.657 2.397-5.388 8.167.37 7.895 5.76-.27 14.934-6.274 15.684-24.247m45.54.525c2.636 7.85 6.58 13.43 12.24 15.83 5.656 2.4 5.387 8.17-.37 7.9-5.76-.27-14.935-6.273-15.685-24.246m-37.6 18.008s-3.334 7.22-1.39 14.998c-3.055.556-4.444 2.222-2.777 2.222h5.83c2.223 0 .557-8.89 5.28-8.61 4.72.28-6.945-8.61-6.945-8.61m33.46 0s3.33 7.22 1.39 14.996c3.05.556 4.44 2.222 2.774 2.222h-5.83c-2.22 0-.555-8.888-5.276-8.61-4.72.28 6.942-8.61 6.942-8.61" fill="#8177AC"/><path d="M144.387 115.752l-14.718 18.914c-9.16 11.764-26.95 11.753-36.09-.023L79.32 116.27c-7.057-9.09-6.246-22.02 1.896-30.16l14.76-14.76c8.922-8.92 23.39-8.92 32.31 0l14.22 14.22c8.15 8.15 8.952 21.09 1.875 30.19" fill="#9190C9"/><path d="M99.996 114.712c-2.455 0-4.445-.996-4.445-2.223 0-1.23 1.99-2.23 4.45-2.23s4.45.992 4.45 2.22c0 1.226-1.99 2.222-4.445 2.222m23.74 0c-2.455 0-4.446-.995-4.446-2.222 0-1.23 1.992-2.224 4.447-2.224s4.448.995 4.448 2.223c0 1.225-1.99 2.22-4.446 2.22" fill="#8177AC"/><path d="M106.866 105.39a6.66 6.66 0 1 1-13.32-.002 6.66 6.66 0 0 1 13.32 0m23.322.002a6.66 6.66 0 1 1-13.32-.002 6.66 6.66 0 0 1 13.32 0" fill="#FFF"/><path d="M127.096 105.39a3.57 3.57 0 1 1-7.137-.002 3.57 3.57 0 0 1 7.13 0m-23.22.002a3.668 3.668 0 1 1-7.34 0 3.668 3.668 0 0 1 7.336 0m15.96 12.328a7.965 7.965 0 1 1-15.93 0 7.965 7.965 0 0 1 15.93 0" fill="#5A4151"/><path d="M115.778 119.435a3.912 3.912 0 1 1-7.823 0 3.912 3.912 0 0 1 7.823 0" fill="#463341"/><path d="M111.866 120.214a7.938 7.938 0 0 0-5.996 2.734 7.937 7.937 0 0 0 5.996 2.735 7.938 7.938 0 0 0 5.997-2.735 7.94 7.94 0 0 0-5.997-2.734" fill="#C44676"/><path d="M94.202 89.115l3.62-1.157a1.284 1.284 0 0 0-.78-2.445l-3.62 1.156a1.284 1.284 0 0 0 .78 2.44m36.165-2.29l-3.602-1.33a1.283 1.283 0 1 0-.89 2.41l3.6 1.33a1.283 1.283 0 1 0 .892-2.408" fill="#FFF"/><path d="M112.54 116.853c0 1.088-.3 1.444-.674 1.444-.37 0-.673-.356-.673-1.444s.673-2.83.673-2.83.674 1.742.674 2.83" fill="#5A4151"/><path d="M111.227 68.708s.53-6.785 7.08-9.504c0 0-6.55 5.796-3.54 9.998m-4.61 1.644s1.71-8.235-4.44-11.563c0 0 5.05 6.475 1.034 11.386" fill="#9190C9"/><path d="M113.028 67.215s3.215-5.955 9.43-5.858c0 0-6.976 2.502-7.17 7.806m-2.418-2.81s.594-5.39-2.27-10.908c0 0 2.46 7.64-2.2 10.185" fill="#9190C9"/><path d="M129.945 112.803l-.44-1.34.815-.267.44 1.34-.815.267m2.64-2.767l-1.166-.87.51-.69 1.16.873-.515.68m1.027-2.5l-1.393-.8.43-.745 1.39.8-.43.744m-1.11-4.277h1.684v.86h-1.68v-.86zm-.6-1.524l-.62-.59 1.342-1.41.62.592-1.342 1.41M129.68 99l-.774-.372.703-1.46.77.373-.7 1.46m-35.9 13.81l-.817-.267.44-1.34.817.27-.442 1.337m-2.64-2.77l-.512-.687 1.166-.873.514.686-1.165.87m-1.022-2.497l-.428-.748 1.39-.8.43.744-1.393.8m-.572-4.278h1.68v.86h-1.68v-.86zm2.284-1.524l-1.345-1.41.62-.59 1.343 1.41-.623.59m2.22-2.74l-.7-1.46.777-.37.7 1.458-.773.373" fill-opacity=".5" fill="#FFF"/><path d="M282.602 149.76c0 3.846-21.487 6.964-47.99 6.964-26.503 0-47.988-3.118-47.988-6.965 0-3.85 21.485-6.97 47.99-6.97 26.5 0 47.988 3.12 47.988 6.96" fill-opacity=".1" fill="#000"/><path d="M262.932 76.86h-57.56a1.98 1.98 0 0 1-1.98-1.98V11.955c0-6.537 5.347-11.886 11.884-11.886h37.753c6.53 0 11.88 5.34 11.88 11.88v62.93c0 1.09-.89 1.98-1.98 1.98" fill="#E36957"/><path d="M262.932 108.15h-57.56a1.98 1.98 0 0 1-1.98-1.98V43.244c0-6.536 5.347-11.885 11.884-11.885h37.753c6.53 0 11.88 5.34 11.88 11.88v62.92c0 1.094-.89 1.98-1.98 1.98m-44.42-97.07l5.58-.46a.798.798 0 0 0-.13-1.59l-5.58.46a.797.797 0 1 0 .13 1.59m31.44-1.37l-5.55-.73a.797.797 0 1 0-.207 1.58l5.556.73a.796.796 0 1 0 .203-1.58" fill="#5A4151"/><path d="M218.513 41.362l5.58-.46a.797.797 0 0 0-.13-1.59l-5.58.46a.797.797 0 1 0 .13 1.59m31.445-1.37l-5.55-.73a.797.797 0 1 0-.207 1.582l5.56.73a.796.796 0 1 0 .207-1.582" fill="#EA8D5F"/><path d="M237.893 56.764a3.17 3.17 0 0 1-.933 2.25 3.17 3.17 0 0 1-2.25.933.642.642 0 0 0 0 1.283c2.466 0 4.465-2 4.465-4.466a.64.64 0 0 0-1.282 0" fill="#FFF"/><path d="M205.58 58.026s-12.306-1.122-18.663 11.387c-6.357 12.51 6.505 16.88 9.33 5.332 2.827-11.547 10.164-8.535 10.164-8.535l-.83-8.184" fill="#5A4151"/><path d="M212.822 148.465h-3.76c-1.807 0-6.51.734-3.85-2.25 2.663-2.984 3.232-6.398 3.232-6.398.212-2.178.92-5.2 2.393-5.2h1.5c1.474 0 2.012 1.614 2.224 3.793l1.2 4.986c.26 2.673-1.12 5.07-2.93 5.07m42.66 0h3.76c1.807 0 6.51.733 3.847-2.25-2.66-2.985-3.23-6.4-3.23-6.4-.213-2.177-.92-5.2-2.395-5.2h-1.5c-1.472 0-2.01 1.615-2.224 3.794l-1.196 4.986c-.258 2.673 1.125 5.07 2.936 5.07" fill="#CA7E59"/><path d="M262.932 139.435h-57.56a1.98 1.98 0 0 1-1.98-1.98V74.527c0-6.537 5.347-11.885 11.884-11.885h37.753c6.53 0 11.88 5.348 11.88 11.885v62.926c0 1.094-.89 1.98-1.98 1.98" fill="#EA8D5F"/><path d="M226.234 151.69h-4.37c-2.1 0-7.568.85-4.474-2.618 3.093-3.468 3.755-7.435 3.755-7.435.246-2.533 1.07-6.046 2.782-6.046h1.743c1.712 0 2.34 1.88 2.585 4.41l1.39 5.8c.303 3.11-1.31 5.898-3.41 5.898m15.055 0h4.37c2.102 0 7.57.85 4.474-2.617-3.09-3.47-3.756-7.435-3.756-7.435-.242-2.532-1.07-6.045-2.78-6.045h-1.743c-1.712 0-2.338 1.88-2.584 4.41l-1.39 5.794c-.3 3.11 1.31 5.895 3.41 5.895" fill="#EA8D5F"/><path d="M220.612 97.687c-2.72 0-4.925-1.102-4.925-2.462s2.205-2.463 4.925-2.463c2.72 0 4.924 1.103 4.924 2.463s-2.204 2.462-4.924 2.462m27.078 0c-2.72 0-4.923-1.102-4.923-2.462s2.204-2.463 4.923-2.463c2.72 0 4.926 1.103 4.926 2.463s-2.206 2.462-4.926 2.462" fill="#CB7E59"/><path d="M220.638 95.35a3.345 3.345 0 0 1-3.335-3.336V88.63c0-1.834 1.5-3.335 3.335-3.335 1.834 0 3.335 1.5 3.335 3.336v3.39c0 1.838-1.5 3.338-3.335 3.338m27.03 0a3.345 3.345 0 0 1-3.337-3.335v-3.39a3.346 3.346 0 0 1 3.34-3.334 3.34 3.34 0 0 1 3.33 3.33v3.385a3.342 3.342 0 0 1-3.333 3.335" fill="#FFF"/><path d="M222.823 87.614a2.185 2.185 0 1 1-4.37 0 2.185 2.185 0 0 1 4.37 0m27.027 0a2.182 2.182 0 0 1-2.183 2.185 2.186 2.186 0 0 1 0-4.37 2.18 2.18 0 0 1 2.182 2.18m-5.33 11.74c0 4.28-4.646 7.754-10.376 7.754s-10.376-3.473-10.376-7.756" fill="#5A4151"/><path d="M241.136 105.08c-1.844-1.26-4.29-2.033-6.984-2.033s-5.14.774-6.984 2.032c1.844 1.25 4.29 2.03 6.984 2.03s5.14-.78 6.984-2.04" fill="#C44676"/><path d="M222.663 62.643h-4.102c-1.69-.39-2.87-1.245-2.87-2.24 0-1.36 2.21-2.462 4.93-2.462s4.925 1.11 4.925 2.47c0 .997-1.18 1.85-2.873 2.24" fill="#523D4B"/><path fill="#CB7E59" d="M220.612 62.866c-.732 0-1.426-.08-2.05-.223h4.1a9.242 9.242 0 0 1-2.05.223"/><path d="M249.744 62.643h-4.103c-1.69-.39-2.87-1.245-2.87-2.24 0-1.36 2.21-2.462 4.93-2.462 2.72 0 4.926 1.11 4.926 2.47 0 .997-1.18 1.85-2.872 2.24" fill="#523D4B"/><path fill="#CB7E59" d="M247.69 62.866c-.732 0-1.426-.08-2.05-.223h4.104a9.284 9.284 0 0 1-2.054.223"/><path d="M220.638 60.528a3.345 3.345 0 0 1-3.335-3.335V53.81c0-1.835 1.5-3.336 3.335-3.336 1.834 0 3.335 1.5 3.335 3.335v3.38c0 1.83-1.5 3.33-3.335 3.33m27.03 0a3.345 3.345 0 0 1-3.337-3.335v-3.38a3.346 3.346 0 0 1 3.34-3.337 3.34 3.34 0 0 1 3.33 3.34v3.38a3.342 3.342 0 0 1-3.33 3.336" fill="#FFF"/><path d="M222.823 57.715a2.185 2.185 0 1 1-4.37 0 2.185 2.185 0 0 1 4.37 0m27.027 0a2.182 2.182 0 0 1-2.183 2.184 2.186 2.186 0 0 1-2.187-2.19c0-1.21.98-2.19 2.187-2.19a2.18 2.18 0 0 1 2.182 2.185" fill="#5A4151"/><path d="M220.612 30.63c-2.72 0-4.925-1.103-4.925-2.463s2.205-2.462 4.925-2.462c2.72 0 4.924 1.102 4.924 2.462s-2.204 2.463-4.924 2.463m27.078 0c-2.72 0-4.923-1.103-4.923-2.463s2.204-2.462 4.923-2.462c2.72 0 4.926 1.102 4.926 2.462s-2.206 2.463-4.926 2.463" fill="#C66253"/><path d="M217.918 24.956v-3.383c0-.748.305-1.425.8-1.92a2.71 2.71 0 0 1 1.92-.8 2.71 2.71 0 0 1 1.92.8c.495.495.8 1.172.8 1.92v3.383h1.23v-3.383a3.96 3.96 0 0 0-3.95-3.95 3.96 3.96 0 0 0-3.95 3.95v3.383h1.23m27.03 0v-3.383a2.7 2.7 0 0 1 .8-1.92 2.71 2.71 0 0 1 1.92-.8c.745 0 1.42.304 1.92.8.494.495.8 1.172.8 1.92v3.383h1.23v-3.383a3.96 3.96 0 0 0-3.95-3.95 3.96 3.96 0 0 0-3.95 3.95v3.383h1.23" fill="#5A4151"/><path d="M205.58 98.562s-12.306-1.123-18.663 11.387c-6.357 12.51 6.505 16.88 9.33 5.33 2.827-11.55 10.164-8.54 10.164-8.54l-.83-8.187m57.15 0s12.31-1.122 18.665 11.388-6.503 16.88-9.332 5.33c-2.823-11.55-10.163-8.535-10.163-8.535l.833-8.185" fill="#EA8D5F"/><path d="M264.88 58s8.915 8.553 3.643 21.556c-5.277 13.003-17.01 6.16-10.145-3.547 6.864-9.71-.224-13.27-.224-13.27L264.88 58" fill="#5A4151"/><path d="M203.953 25.732s-8.53 8.94-2.685 21.696c5.845 12.758 17.264 5.402 9.978-3.992-7.287-9.394-.365-13.266-.365-13.266l-6.92-4.438m58.77 7.164s12.31 1.123 18.665-11.387-6.503-16.88-9.332-5.34c-2.823 11.55-10.163 8.533-10.163 8.533l.833 8.184" fill="#E36957"/><path d="M237.685 57.38h2.153a.616.616 0 0 0 0-1.23h-2.153a.615.615 0 0 0 0 1.23" fill="#FFF"/><path d="M232.18 21.597a2.39 2.39 0 1 0 3.943 0h-3.942m-13.66 54.978l5.58-.46a.798.798 0 1 0-.13-1.59l-5.58.46a.797.797 0 1 0 .13 1.59m31.447-1.37l-5.55-.73a.798.798 0 0 0-.207 1.582l5.554.73a.796.796 0 1 0 .205-1.582" fill="#5A4151"/></g></svg>