<svg id="Layer_1" xmlns="http://www.w3.org/2000/svg" viewBox="-291 385 29 23"><style>.st0{fill:#c03971}.st1{fill:#5a4151}.st2{fill:#6c6c8f}.st3{fill:#fff}</style><title>Group</title><g id="Page-1"><g id="Guided-Meditations"><g id="Group-6"><g id="Group"><path id="Fill-175" class="st0" d="M-286.872 402.004c-2 0-3.7-.8-3.7-1.8s1.6-1.8 3.7-1.8c2 0 3.7.8 3.7 1.8 0 .9-1.7 1.8-3.7 1.8"/><path id="Fill-176" class="st0" d="M-266.672 402.004c-2 0-3.7-.8-3.7-1.8s1.6-1.8 3.7-1.8c2 0 3.7.8 3.7 1.8 0 .9-1.7 1.8-3.7 1.8"/><path id="Fill-179" class="st1" d="M-289.972 389.104l4.8-2.1c.3-.1.4-.5.3-.8-.1-.3-.5-.4-.8-.3l-4.8 2.1c-.3.1-.4.5-.3.8s.5.4.8.3"/><path id="Fill-180" class="st1" d="M-263.172 388.204l-4.7-2.3c-.3-.1-.6 0-.8.3-.1.3 0 .6.3.8l4.7 2.3c.3.1.6 0 .8-.3.1-.3 0-.6-.3-.8"/><path id="Fill-181" class="st1" d="M-273.072 407.404c0-2.3-1.3-4.1-3.7-4.1-2.1 0-3.7 1.7-3.7 4.1"/><path id="Fill-182" class="st2" d="M-276.772 406.204c-1.1 0-2.1.5-2.7 1.2h5.5c-.7-.7-1.6-1.2-2.8-1.2"/><g id="Group-7"><path id="Fill-69" class="st3" d="M-282.878 396.54c0 2.1-1.7 3.8-3.8 3.8-2.1 0-3.8-1.7-3.8-3.8 0-2.1 1.7-3.8 3.8-3.8 2.1 0 3.8 1.7 3.8 3.8"/><path id="Fill-70" class="st1" d="M-284.478 397.74c0 1.2-.9 2.1-2.1 2.1-1.2 0-2.1-.9-2.1-2.1 0-1.2.9-2.1 2.1-2.1 1.2 0 2.1.9 2.1 2.1"/></g><path id="Fill-69_1_" class="st3" d="M-263.072 396.604c0 2.1-1.7 3.8-3.8 3.8-2.1 0-3.8-1.7-3.8-3.8 0-2.1 1.7-3.8 3.8-3.8 2.1-.1 3.8 1.6 3.8 3.8"/><path id="Fill-70_1_" class="st1" d="M-264.672 397.704c0 1.2-.9 2.1-2.1 2.1-1.2 0-2.1-.9-2.1-2.1 0-1.2.9-2.1 2.1-2.1 1.2 0 2.1 1 2.1 2.1"/></g></g></g></g></svg>