<svg id="Layer_1" xmlns="http://www.w3.org/2000/svg" viewBox="-291 384 29 26"><style>.st0{fill:#cb7e59}.st1{fill:#fff}.st2{fill:#5a4151}.st3{fill:#c44676}</style><title>Group 4</title><g id="Page-1"><g id="Guided-Meditations"><g id="Group-9"><g id="Group-10"><g id="Group-4"><path id="Fill-107" class="st0" d="M-286.972 402.27c-2.1 0-3.7-.8-3.7-1.9s1.7-1.9 3.7-1.9 3.7.8 3.7 1.9-1.6 1.9-3.7 1.9"/><path id="Fill-108" class="st0" d="M-266.472 402.27c-2.1 0-3.7-.8-3.7-1.9s1.7-1.9 3.7-1.9c2.1 0 3.7.8 3.7 1.9s-1.6 1.9-3.7 1.9"/><path id="Fill-109" class="st1" d="M-286.972 400.47c-1.4 0-2.5-1.1-2.5-2.5v-2.6c0-1.4 1.1-2.5 2.5-2.5s2.5 1.1 2.5 2.5v2.6c0 1.3-1.1 2.5-2.5 2.5"/><path id="Fill-110" class="st1" d="M-266.472 400.47c-1.4 0-2.5-1.1-2.5-2.5v-2.6c0-1.4 1.1-2.5 2.5-2.5s2.5 1.1 2.5 2.5v2.6c.1 1.3-1.1 2.5-2.5 2.5"/><path id="Fill-111" class="st2" d="M-285.272 394.57c0 .9-.7 1.7-1.7 1.7s-1.7-.7-1.7-1.7.7-1.7 1.7-1.7 1.7.8 1.7 1.7"/><path id="Fill-112" class="st2" d="M-264.772 394.57c0 .9-.7 1.7-1.7 1.7-.9 0-1.7-.7-1.7-1.7s.7-1.7 1.7-1.7c.9.1 1.7.8 1.7 1.7"/><path id="Fill-113" class="st2" d="M-268.872 403.47c0 3.3-3.5 5.9-7.9 5.9-4.3 0-7.9-2.6-7.9-5.9"/><path id="Fill-114" class="st3" d="M-271.372 407.87c-1.4-1-3.3-1.5-5.3-1.5s-3.9.6-5.3 1.5c1.4 1 3.3 1.5 5.3 1.5s3.9-.6 5.3-1.5"/><path id="Fill-134" class="st2" d="M-288.572 386.17l4.2-.3c.3 0 .6-.3.6-.7 0-.3-.3-.6-.7-.6l-4.2.3c-.3 0-.6.3-.6.7.1.4.4.7.7.6"/><path id="Fill-135" class="st2" d="M-264.672 385.17l-4.2-.6c-.3 0-.6.2-.7.5 0 .3.2.6.5.7l4.2.6c.3 0 .6-.2.7-.5 0-.4-.2-.7-.5-.7"/></g></g></g></g></g></svg>