<svg id="Layer_1" xmlns="http://www.w3.org/2000/svg" viewBox="-286 379 39 36"><style>.st0{fill:#8177ac}.st1{fill:#fff}.st2{fill:#5a4151}.st3{fill:#463341}.st4{fill:#c44676}.st5{fill:#fff;fill-opacity:.5}</style><title>Group 2</title><g id="Page-1"><g id="Guided-Meditations"><g id="Group-8"><g id="Group-4"><g id="Group-2"><path id="Fill-66" class="st0" d="M-276.324 404.514c-2.1 0-3.8-.8-3.8-1.9 0-1 1.7-1.9 3.8-1.9 2.1 0 3.8.8 3.8 1.9 0 1.1-1.7 1.9-3.8 1.9"/><path id="Fill-67" class="st0" d="M-256.124 404.514c-2.1 0-3.8-.8-3.8-1.9 0-1 1.7-1.9 3.8-1.9 2.1 0 3.8.8 3.8 1.9 0 1.1-1.7 1.9-3.8 1.9"/><path id="Fill-68" class="st1" d="M-270.224 396.614c0 3.1-2.5 5.6-5.6 5.6-3.1 0-5.6-2.5-5.6-5.6 0-3.1 2.5-5.6 5.6-5.6 3.1 0 5.6 2.5 5.6 5.6"/><path id="Fill-69" class="st1" d="M-250.724 396.614c0 3.1-2.5 5.6-5.6 5.6-3.1 0-5.6-2.5-5.6-5.6 0-3.1 2.5-5.6 5.6-5.6 3.1 0 5.6 2.5 5.6 5.6"/><path id="Fill-70" class="st2" d="M-253.124 396.514c0 1.7-1.4 3-3 3-1.7 0-3-1.4-3-3 0-1.7 1.4-3 3-3 1.7 0 3 1.4 3 3"/><path id="Fill-71" class="st2" d="M-272.724 396.614c0 1.7-1.4 3.1-3.1 3.1-1.7 0-3.1-1.4-3.1-3.1 0-1.7 1.4-3.1 3.1-3.1 1.7 0 3.1 1.4 3.1 3.1"/><path id="Fill-72" class="st2" d="M-259.324 407.114c0 3.7-3 6.8-6.8 6.8-3.7 0-6.8-3-6.8-6.8 0-3.7 3-6.8 6.8-6.8 3.7.1 6.8 3.1 6.8 6.8"/><path id="Fill-73" class="st3" d="M-262.624 408.714c0 1.8-1.5 3.3-3.3 3.3-1.8 0-3.3-1.5-3.3-3.3 0-1.8 1.5-3.3 3.3-3.3 1.8 0 3.3 1.5 3.3 3.3"/><path id="Fill-74" class="st4" d="M-265.924 409.414c-2 0-3.8.9-5.1 2.3 1.2 1.4 3.1 2.3 5.1 2.3 2 0 3.8-.9 5.1-2.3-1.3-1.4-3.1-2.3-5.1-2.3"/><path id="Fill-75" class="st1" d="M-281.224 382.914l3.1-1c.6-.2.9-.8.7-1.4-.2-.6-.8-.9-1.4-.7l-3.1 1c-.6.2-.9.8-.7 1.4.3.6.9.9 1.4.7"/><path id="Fill-76" class="st1" d="M-250.324 381.014l-3.1-1.1c-.6-.2-1.2.1-1.4.6-.2.6.1 1.2.6 1.4l3.1 1.1c.6.2 1.2-.1 1.4-.6.3-.6 0-1.2-.6-1.4"/><path id="Fill-77" class="st2" d="M-265.624 406.414c0 .9-.3 1.2-.6 1.2s-.6-.3-.6-1.2.6-2.4.6-2.4.6 1.5.6 2.4"/><path id="Fill-82" class="st5" d="M-250.824 402.814l-.4-1.1.7-.2.4 1.1-.7.2"/><path id="Fill-83" class="st5" d="M-248.424 400.614l-1-.7.4-.6 1 .7-.4.6"/><path id="Fill-84" class="st5" d="M-247.524 398.414l-1.2-.7.4-.6 1.2.7-.4.6"/><path id="Fill-85" class="st5" d="M-248.724 395.014h1.4v.7h-1.4v-.7z"/><path id="Fill-86" class="st5" d="M-249.224 393.814l-.5-.5 1.1-1.2.5.5-1.1 1.2"/><path id="Fill-87" class="st5" d="M-250.924 391.114l-.7-.3.6-1.2.7.3-.6 1.2"/><path id="Fill-88" class="st5" d="M-281.524 402.814l-.7-.2.4-1.1.7.2-.4 1.1"/><path id="Fill-89" class="st5" d="M-283.624 400.614l-.4-.6 1-.7.4.6-1 .7"/><path id="Fill-90" class="st5" d="M-284.424 398.414l-.4-.6 1.2-.7.4.6-1.2.7"/><path id="Fill-91" class="st5" d="M-285.124 395.014h1.4v.7h-1.4v-.7z"/><path id="Fill-92" class="st5" d="M-283.224 393.814l-1.1-1.2.5-.5 1.1 1.2-.5.5"/><path id="Fill-93" class="st5" d="M-281.324 391.114l-.6-1.2.7-.3.6 1.2-.7.3"/></g></g></g></g></g></svg>