<svg width="40" height="38" viewBox="0 0 40 38" xmlns="http://www.w3.org/2000/svg" xmlns:xlink="http://www.w3.org/1999/xlink"><title>Group 3</title><defs><path id="a" d="M11.07 2.123c-4.76 0-8.05-4.107-10.186-.657-2.136 3.45-.657 13.18 10.185 13.18 10.84 0 12.32-9.73 10.18-13.18-2.14-3.45-5.43.657-10.19.657z"/></defs><g fill="none" fill-rule="evenodd"><path d="M9.173 20.78c-2.18 0-3.945-.883-3.945-1.972 0-1.09 1.766-1.973 3.945-1.973 2.18 0 3.945.883 3.945 1.973s-1.766 1.972-3.945 1.972m21.65 0c-2.18 0-3.946-.883-3.946-1.972 0-1.09 1.766-1.973 3.945-1.973 2.18 0 3.945.883 3.945 1.973S33 20.78 30.822 20.78" fill="#12A19F"/><path d="M30.04 24.35c-2.135-3.45-5.424.656-10.185.656-4.76 0-8.05-4.107-10.184-.657-2.13 3.45-.65 13.18 10.19 13.18s12.32-9.73 10.19-13.18" fill="#5A4151"/><path d="M11.723 34.515c1.747 1.694 4.39 2.886 8.18 2.886s6.434-1.19 8.18-2.88c-1.746-1.69-4.39-2.882-8.18-2.882s-6.433 1.19-8.18 2.886" fill="#C44676"/><path d="M4.476 2.33l5.56-.457A.64.64 0 1 0 9.93.6l-5.56.458a.64.64 0 1 0 .106 1.273m31.18-1l-5.53-.72a.64.64 0 1 0-.167 1.27l5.53.727a.64.64 0 1 0 .16-1.266" fill="#5A4151"/><path d="M9.182 19.69a3.593 3.593 0 1 1 0-7.185 3.593 3.593 0 0 1 0 7.186zm21.648 0a3.593 3.593 0 1 1 .002-7.185 3.593 3.593 0 0 1 0 7.186z" fill="#FFF"/><path d="M10.893 16.06a1.75 1.75 0 1 1-3.5 0 1.75 1.75 0 0 1 3.5 0m21.65 0a1.75 1.75 0 1 1-3.5 0 1.75 1.75 0 0 1 3.5 0" fill="#5A4151"/><g transform="translate(8.836 22.608)"><mask id="b" fill="#fff"><use xlink:href="#a"/></mask><path d="M11.577 1.74c0 1.592-.913 2.882-2.038 2.882-1.13 0-2.04-1.29-2.04-2.882s.91-2.882 2.03-2.882c1.124 0 2.037 1.29 2.037 2.882" fill="#FFF" mask="url(#b)"/><path d="M8.008 1.186c0 1.585-.76 2.87-1.7 2.87-.938 0-1.7-1.285-1.7-2.87 0-1.585.762-2.87 1.7-2.87.94 0 1.7 1.285 1.7 2.87" fill="#FFF" mask="url(#b)"/><path d="M5.024.086c0 1.585-.76 2.87-1.7 2.87s-1.7-1.285-1.7-2.87c0-1.585.76-2.87 1.7-2.87s1.7 1.285 1.7 2.87M10.6 1.802c0 1.592.912 2.882 2.037 2.882s2.037-1.29 2.037-2.882-.912-2.883-2.037-2.883S10.6.21 10.6 1.8" fill="#FFF" mask="url(#b)"/><path d="M14.168 1.186c0 1.585.76 2.87 1.7 2.87.938 0 1.7-1.285 1.7-2.87 0-1.585-.762-2.87-1.7-2.87-.94 0-1.7 1.285-1.7 2.87" fill="#FFF" mask="url(#b)"/><path d="M17.152.086c0 1.585.76 2.87 1.7 2.87s1.7-1.285 1.7-2.87c0-1.585-.76-2.87-1.7-2.87s-1.7 1.285-1.7 2.87" fill="#FFF" mask="url(#b)"/></g><path d="M10.262 21.34v-.492H6.645a5.103 5.103 0 0 1-3.617-1.505 5.102 5.102 0 0 1-1.505-3.617c0-1.408.575-2.686 1.505-3.617a5.103 5.103 0 0 1 3.617-1.51h3.617a5.1 5.1 0 0 1 3.618 1.5 5.1 5.1 0 0 1 1.5 3.614 5.105 5.105 0 0 1-1.507 3.617 5.104 5.104 0 0 1-3.618 1.507v.986c3.362-.004 6.105-2.747 6.107-6.11-.002-3.36-2.745-6.105-6.108-6.106h-3.61C3.28 9.62.54 12.365.536 15.725c.002 3.363 2.745 6.106 6.108 6.11h3.617v-.495m23.097 0v-.497H29.74a5.105 5.105 0 0 1-3.618-1.505 5.103 5.103 0 0 1-1.5-3.617c0-1.404.577-2.682 1.507-3.613a5.105 5.105 0 0 1 3.61-1.506h3.617c1.408 0 2.687.577 3.617 1.507a5.1 5.1 0 0 1 1.505 3.616 5.103 5.103 0 0 1-1.507 3.617 5.104 5.104 0 0 1-3.617 1.5v.985c3.363-.003 6.106-2.746 6.108-6.108-.002-3.363-2.745-6.107-6.108-6.108H29.74c-3.363 0-6.106 2.742-6.108 6.104.002 3.362 2.745 6.105 6.108 6.11h3.617v-.495" fill="#5A4151"/><path d="M16.053 15.392h7.997v.985h-7.997v-.985z" fill="#5A4151"/></g></svg>