<svg id="Layer_1" xmlns="http://www.w3.org/2000/svg" viewBox="-290 381 31 31"><style>.st0{fill:#35a7c0}.st1{fill:#5a4151}.st2{fill:#fff}.st3{fill:#c44676}</style><title>Group 12</title><g id="Page-1"><g id="Guided-Meditations"><g id="Group-11"><g id="Group-10"><g id="Group-12"><path id="Fill-190" class="st0" d="M-284.8 400.7c-2 0-3.7-.8-3.7-1.8s1.6-1.8 3.7-1.8c2 0 3.7.8 3.7 1.8-.1 1-1.7 1.8-3.7 1.8"/><path id="Fill-191" class="st0" d="M-264.7 400.7c-2 0-3.7-.8-3.7-1.8s1.6-1.8 3.7-1.8c2 0 3.7.8 3.7 1.8-.1 1-1.7 1.8-3.7 1.8"/><path id="Fill-194" class="st1" d="M-289.2 382.7l5.2-.4c.3 0 .6-.3.5-.6 0-.3-.3-.6-.6-.5l-5.2.4c-.3 0-.6.3-.5.6 0 .3.3.6.6.5"/><path id="Fill-195" class="st1" d="M-260.2 381.8l-5.1-.7c-.3 0-.6.2-.7.5 0 .3.2.6.5.7l5.1.7c.3 0 .6-.2.7-.5.1-.4-.2-.7-.5-.7"/><path id="Fill-196" class="st2" d="M-279.5 394.4c0 2.6-2.1 4.6-4.6 4.6-2.6 0-4.6-2.1-4.6-4.6 0-2.6 2.1-4.6 4.6-4.6 2.5 0 4.6 2.1 4.6 4.6"/><path id="Fill-197" class="st1" d="M-281.4 392.8c0 1.5-1.2 2.7-2.7 2.7-1.5 0-2.7-1.2-2.7-2.7 0-1.5 1.2-2.7 2.7-2.7 1.5 0 2.7 1.2 2.7 2.7"/><path id="Fill-198" class="st2" d="M-282.4 391.5c0 .4-.4.8-.8.8s-.8-.4-.8-.8.4-.8.8-.8.8.4.8.8"/><path id="Fill-199" class="st2" d="M-260.8 394.4c0 2.6-2.1 4.6-4.6 4.6-2.6 0-4.6-2.1-4.6-4.6 0-2.6 2.1-4.6 4.6-4.6 2.5 0 4.6 2.1 4.6 4.6"/><path id="Fill-200" class="st1" d="M-262.7 392.8c0 1.5-1.2 2.7-2.7 2.7-1.5 0-2.7-1.2-2.7-2.7 0-1.5 1.2-2.7 2.7-2.7 1.5 0 2.7 1.2 2.7 2.7"/><path id="Fill-201" class="st2" d="M-264.4 392.4c-.5 0-.8-.4-.8-.8s.4-.8.8-.8.8.4.8.8-.4.8-.8.8z"/><path id="Fill-202" class="st1" d="M-262.7 401c0 6.2-5.5 10.5-12.3 10.5-6.8 0-12.3-4.3-12.3-10.5"/><path id="Fill-203" class="st3" d="M-267.5 409.3c-2.1-1.3-4.7-2.1-7.6-2.1-2.9 0-5.5.8-7.6 2.1 2.1 1.3 4.7 2.1 7.6 2.1 2.9 0 5.5-.7 7.6-2.1"/></g></g></g></g></g></svg>