<svg id="Layer_1" xmlns="http://www.w3.org/2000/svg" viewBox="-290 380 30 33"><style>.st0{opacity:.5}.st1{fill:#fff}</style><title>Fill 30</title><g id="Page-1" class="st0"><g id="Artboard-62"><path id="Fill-30" class="st1" d="M-273.3 413h-.3c-1.5-.1-3.1-.4-4.6-.9-1.4-.5-2.8-1.2-4.1-2-1.3-.8-2.4-1.8-3.4-3-1-1.1-1.8-2.4-2.5-3.7-.7-1.3-1.1-2.7-1.4-4.2-.2-1.1-.3-2.2-.3-3.3v-1c.1-1.4.4-2.8.8-4.2.4-1.3 1.1-2.6 1.9-3.8.8-1.1 1.7-2.2 2.7-3.1 1-.9 2.2-1.7 3.4-2.3 1.2-.6 2.5-1 3.8-1.3h.2c.9-.2 1.8-.2 2.7-.2h1c1.3.1 2.6.4 3.8.8 1.2.4 2.3 1 3.4 1.7 1 .7 2 1.5 2.8 2.5.8.9 1.5 2 2 3.1s.9 2.2 1.1 3.5c.2.8.2 1.7.2 2.5v1.1c-.1 1.2-.3 2.3-.7 3.4-.4 1.1-.9 2.1-1.6 3.1-.6.9-1.4 1.8-2.3 2.5-.8.7-1.8 1.3-2.8 1.8-1 .5-2 .8-3.1 1-.2 0-.5.1-.7.1-.5.1-.9.1-1.4.1h-1.1c-1-.1-2.1-.3-3.1-.7-1-.4-1.9-.8-2.7-1.4-.8-.6-1.5-1.3-2.2-2-.6-.7-1.1-1.6-1.5-2.5-.4-.9-.7-1.8-.8-2.7-.1-.6-.1-1.1-.1-1.7 0-.4 0-.7.1-1.1.1-.9.3-1.8.6-2.7.3-.8.8-1.6 1.3-2.3.5-.7 1.1-1.3 1.8-1.9.7-.5 1.4-1 2.2-1.3.8-.3 1.6-.6 2.4-.7.2 0 .4-.1.6-.1h1.2c.2 0 .4 0 .5.1.8.1 1.6.3 2.3.6.7.3 1.4.7 2 1.2.6.5 1.1 1 1.6 1.6.4.6.8 1.2 1.1 1.9.3.6.4 1.3.5 2v.8c0 .4 0 .8-.1 1.2-.1.6-.3 1.3-.6 1.9-.3.6-.6 1.1-1 1.6s-.9.9-1.4 1.3c-.5.3-1 .6-1.6.8-.5.2-1.1.3-1.7.3h-.4c-.4 0-.9 0-1.3-.1-.6-.1-1.1-.3-1.6-.6-.4-.2-.9-.5-1.3-.9-.4-.3-.7-.7-.9-1.2-.3-.5-.5-1-.6-1.3-.1-.5-.2-1-.2-1.3 0-.5.1-1 .2-1.4.1-.4.3-.8.5-1.1.2-.3.5-.6.8-.9.3-.2.6-.4 1-.6.3-.1.7-.2 1.1-.3h.7c.1 0 .3 0 .4.1.4.1.7.3 1 .4.3.2.6.5.7.7.2.3.4.7.5.9.1.3.1.6.1.8v.2c0 .3-.2.7-.3 1-.2.3-.5.6-.8.8-.2.1-.4.2-.7.2-.7.2-1.4-.1-1.8-.7v.4c0 .2.1.3.2.5s.2.3.4.4c.2.1.3.3.5.4.2.1.4.2.6.2.1 0 .3 0 .4.1h.4c.3 0 .6-.1.8-.2.3-.1.6-.2.8-.4.3-.2.5-.4.7-.6.2-.3.4-.6.5-.9.2-.3.3-.7.3-1 0-.2.1-.5.1-.7v-.5c0-.4-.1-.8-.3-1.2-.2-.4-.4-.8-.6-1.1-.3-.4-.6-.7-.9-1-.4-.3-.8-.5-1.2-.7-.5-.2-.9-.3-1.4-.4h-.8c-.3 0-.5 0-.8.1-.5.1-1.1.2-1.5.4-.5.2-1 .5-1.4.8-.5.4-.9.8-1.2 1.2-.4.5-.6 1-.9 1.6-.2.6-.4 1.2-.4 1.8v.8c0 .4 0 .8.1 1.1.1.7.3 1.3.6 1.9.3.6.6 1.2 1.1 1.7.5.6 1 1 1.5 1.4.6.4 1.2.8 1.9 1 .7.3 1.4.4 2.2.5h.8c.5 0 1 0 1.4-.1.9-.2 1.6-.4 2.3-.7.7-.4 1.4-.8 2-1.3.6-.5 1.2-1.2 1.7-1.8.5-.7.9-1.5 1.2-2.3.3-.8.5-1.7.5-2.6v-.8c0-.6-.1-1.3-.2-1.9-.2-.9-.5-1.8-.9-2.6-.4-.9-.9-1.7-1.5-2.4s-1.4-1.4-2.1-1.9c-.8-.6-1.7-1-2.6-1.3-1-.3-2-.5-2.9-.6h-.8c-.7 0-1.5.1-2.2.2-1.1.2-2.1.5-3 1-1 .5-1.9 1.1-2.7 1.8-.8.7-1.6 1.6-2.2 2.5-.6.9-1.1 1.9-1.5 3-.4 1.1-.6 2.2-.7 3.3v.8c0 .9.1 1.8.3 2.6.2 1.2.6 2.3 1.1 3.3.5 1.1 1.2 2.1 2 3 .8.9 1.7 1.7 2.8 2.4 1 .7 2.2 1.2 3.3 1.6 1.2.4 2.5.6 3.7.7h.8c1 0 2-.1 2.9-.3 1.4-.3 2.6-.7 3.8-1.3.8-.4 1.6-.9 2.3-1.5.7-.6 1.8-.4 2.4.3.2.3.3.7.3 1 0 .5-.2 1-.7 1.3-.9.7-1.9 1.3-2.8 1.8-1.4.7-2.9 1.3-4.5 1.6-.3.1-.5.1-.7.1-1 .2-2 .2-2.9.2.1.2-.2.2-.4.2z"/></g></g></svg>