<svg id="Layer_1" xmlns="http://www.w3.org/2000/svg" viewBox="-298 383 14 28"><style>.st0{opacity:.5}.st1{fill:#fff}</style><title>Group 8</title><g id="Page-1" class="st0"><g id="Drawer"><g id="Group-8"><path id="Combined-Shape" class="st1" d="M-294.9 383h8.3v1.6h-8.3V383zm-3.1 1.6h14v1.6h-14v-1.6zm0 2h14v20.7h-14v-20.7zm1.6 1.6h2.6v3.1h-2.6v-3.1zm4.1 0h2.6v3.1h-2.6v-3.1zm4.2 0h2.6v3.1h-2.6v-3.1zm-8.3 4.1h2.6v3.1h-2.6v-3.1zm4.1 0h2.6v3.1h-2.6v-3.1zm4.2 0h2.6v3.1h-2.6v-3.1zm-8.3 4.2h2.6v3.1h-2.6v-3.1zm4.1 0h2.6v3.1h-2.6v-3.1zm4.2 0h2.6v3.1h-2.6v-3.1zm-8.3 4.1h2.6v3.1h-2.6v-3.1zm4.1 0h2.6v3.1h-2.6v-3.1zm4.2 0h2.6v3.1h-2.6v-3.1zm-9.9 7.3h5.7v3.1h-5.7v-3.1zm8.3 0h5.7v3.1h-5.7v-3.1z"/></g></g></g></svg>