<svg id="Layer_1" xmlns="http://www.w3.org/2000/svg" viewBox="-290 380 30 33"><style>.st0{opacity:.5}.st1{fill:#fff}</style><title>Fill 25</title><g id="Page-1" class="st0"><g id="Artboard-62-Copy"><path id="Fill-25" class="st1" d="M-286 409.3h22.1l-5.5-10.1c-.8-1.5-.8-3.9 0-5.4l5.5-10.1H-286l5.5 10.1c.8 1.5.8 3.9 0 5.4l-5.5 10.1zm23.1 3.7H-287c-1.1 0-2.1-.5-2.6-1.4-.5-.9-.5-2 .1-3.1l6-11.1c.2-.4.2-1.3 0-1.8l-6-11.1c-.6-1-.6-2.2-.1-3.1.5-.9 1.4-1.4 2.6-1.4h24.1c1.1 0 2.1.5 2.6 1.4.5.9.5 2-.1 3.1l-6 11.1c-.2.4-.2 1.3 0 1.8l6 11.1c.6 1 .6 2.2.1 3.1-.5.9-1.5 1.4-2.6 1.4z"/></g></g></svg>