<svg id="Layer_1" xmlns="http://www.w3.org/2000/svg" viewBox="-291 382 29 29"><style>.st0{fill:#d6407e;stroke:#fff;stroke-width:3}.st1{fill:#fff}</style><title>Group 4</title><g id="Page-1"><g id="_x35_-Days-of-Welzen-Must-Finishe-Prior-Day"><g id="Group-4" transform="translate(2 2)"><circle id="Oval-45" class="st0" cx="-278.5" cy="394.5" r="12.5"/><g id="Group"><path id="Rectangle-3" class="st1" d="M-283.8 389c.5-.5 1.3-.5 1.8 0l8.8 9.2c.5.5.5 1.3 0 1.8s-1.3.5-1.8 0l-8.8-9.2c-.5-.5-.5-1.3 0-1.8z"/><path id="Rectangle-3_1_" class="st1" d="M-273.2 389c-.5-.5-1.3-.5-1.8 0l-8.8 9.2c-.5.5-.5 1.3 0 1.8s1.3.5 1.8 0l8.8-9.2c.5-.5.5-1.3 0-1.8z"/></g></g></g></g></svg>