<svg id="Layer_1" xmlns="http://www.w3.org/2000/svg" viewBox="-298 389 14 16"><style>.st0{opacity:.5}.st1{fill:#fff}</style><title>Fill 394 + Fill 395</title><g id="Page-1" class="st0"><g id="Drawer"><g id="Fill-394-_x2B_-Fill-395"><path id="Fill-394" class="st1" d="M-294 391.7h6.7c.4 0 .7-.3.7-.7v-1.3c0-.4-.3-.7-.7-.7h-6.7c-.4 0-.7.3-.7.7v1.3c0 .4.3.7.7.7"/><path id="Fill-395" class="st1" d="M-284.4 401.1l-3.6-4.4v-4.4h-1.3v.7h-1.3v1.3h1.3v.7h-2v1.3h2v.7c0 .2.1.3.2.4l1.8 2.2h-6.7l1.8-2.2c.1-.1.2-.3.2-.4v-4.7h-1.3v4.4l-3.6 4.4c-.4.6-.5 1.4-.1 2.1.3.7 1 1.1 1.8 1.1h9.3c.7 0 1.4-.4 1.8-1.1.2-.6.2-1.4-.3-2.1"/></g></g></g></svg>