<svg id="Layer_1" xmlns="http://www.w3.org/2000/svg" viewBox="-297 386 17 21"><style>.st0{opacity:.5}.st1{fill:none;stroke:#fff}.st2{fill:#fff}</style><title>Group 6</title><g id="Page-1" class="st0"><g id="Drawer"><g id="Group-6"><path id="Stroke-180" class="st1" d="M-295.9 398.58c0-3 4-8.3 6.1-10.9.6-.8 1.8-.8 2.4 0 2.1 2.6 6.1 7.9 6.1 10.9 0 4-3.3 7.2-7.3 7.2-4.1 0-7.3-3.2-7.3-7.2z"/><path id="Fill-182" class="st2" d="M-284.3 396.18c-.2-.1-.4 0-.5.2l-1.6 4.5-1.6-4.3-.5-1.2c-.4-.8-.7-1.9-.7-2.1 0-.4.3-.7.7-.7.4 0 .7.3.7.7 0 .2-.2.9-.5 1.6l.4 1.1c.4-1.1.8-2.3.8-2.7 0-.9-.6-1.5-1.5-1.5s-1.5.6-1.5 1.5c0 .5.6 2.2 1.1 3.3l.5 1.1 1.6 4.5c.1.2.2.3.4.3s.3-.1.4-.3l2-5.5c.2-.2 0-.4-.2-.5"/><path id="Fill-184" class="st2" d="M-289.1 397.28l-1.3 3.6-1.7-4.5c-.1-.2-.3-.3-.5-.2-.2.1-.3.3-.2.5l2 5.5c.1.2.2.3.4.3s.3-.1.4-.3l1.4-3.8-.5-1.1z"/><path id="Stroke-180_1_" class="st1" d="M-296 398.58c0-3 4-8.3 6.1-10.9.6-.8 1.8-.8 2.4 0 2.1 2.6 6.1 7.9 6.1 10.9 0 4-3.3 7.2-7.3 7.2s-7.3-3.2-7.3-7.2z"/></g></g></g></svg>