<svg id="Layer_1" xmlns="http://www.w3.org/2000/svg" viewBox="-280 372 50 50"><style>.st0{opacity:.5}.st1{fill:#fff}</style><title>Artboard 62 Copy 2</title><g id="Page-1" class="st0"><g id="Artboard-62-Copy-2"><path id="Fill-26" class="st1" d="M-255.1 408.8c-6.4 0-11.6-5.2-11.6-11.6 0-6.4 5.2-11.6 11.6-11.6s11.6 5.2 11.6 11.6c0 6.4-5.2 11.6-11.6 11.6zm0-26.5c-8.2 0-14.8 6.7-14.8 14.8s6.7 14.8 14.8 14.8c8.2 0 14.8-6.7 14.8-14.8s-6.7-14.8-14.8-14.8z"/><path id="Fill-27" class="st1" d="M-255.1 402c-2.7 0-4.9-2.2-4.9-4.9s2.2-4.9 4.9-4.9 4.9 2.2 4.9 4.9-2.2 4.9-4.9 4.9zm0-13.2c-4.6 0-8.4 3.8-8.4 8.4 0 4.6 3.8 8.4 8.4 8.4s8.4-3.8 8.4-8.4c0-4.7-3.8-8.4-8.4-8.4z"/></g></g></svg>