<svg id="Layer_1" xmlns="http://www.w3.org/2000/svg" viewBox="-280 372 50 50"><style>.st0{opacity:.5}.st1{fill:#fff}</style><title>Artboard 62 Copy 4</title><g id="Page-1" class="st0"><g id="Artboard-62-Copy-4"><g id="Group-2"><path id="Fill-28" class="st1" d="M-259.3 403.5c-5.7 0-10.4-4.8-10.4-10.6 0-5.9 4.6-10.6 10.4-10.6 3.5 0 6.8 1.8 8.7 4.8.4.7.2 1.6-.4 2-.7.4-1.5.3-2-.4-1.4-2.2-3.8-3.5-6.3-3.5-4.1 0-7.5 3.5-7.5 7.7s3.4 7.7 7.5 7.7c2.5 0 4.9-1.3 6.3-3.5.4-.7 1.3-.9 2-.4.7.4.8 1.3.4 2-2 3-5.2 4.8-8.7 4.8"/><path id="Fill-29" class="st1" d="M-250.6 411.8c-3.5 0-6.8-1.8-8.7-4.8-.4-.7-.2-1.6.4-2 .7-.4 1.5-.3 2 .4 1.4 2.2 3.8 3.5 6.3 3.5 4.1 0 7.5-3.5 7.5-7.7s-3.4-7.7-7.5-7.7c-2.5 0-4.9 1.3-6.3 3.5-.4.7-1.3.9-2 .4-.7-.4-.8-1.3-.4-2 1.9-3 5.2-4.8 8.7-4.8 5.7 0 10.4 4.8 10.4 10.6s-4.7 10.6-10.4 10.6"/></g></g></g></svg>