<svg id="Layer_1" xmlns="http://www.w3.org/2000/svg" viewBox="-298 389 15 15"><style>.st0{opacity:.5}.st1{fill:#fff}</style><title>Group 12</title><g id="Page-1" class="st0"><g id="Drawer"><g id="Group-12"><path id="Rectangle-333" class="st1" d="M-291.5 394.2c0-2.9.5-5.2 1.1-5.2.6 0 1.1 2.3 1.1 5.2 0 2.9-.5 5.2-1.1 5.2-.6.1-1.1-2.3-1.1-5.2z"/><g id="Group-10"><path id="Rectangle-333_1_" class="st1" d="M-289.016 396.007c1.7-1.7 3.5-2.7 3.9-2.3.4.4-.6 2.2-2.3 3.9-1.7 1.7-3.5 2.7-3.9 2.3-.4-.4.6-2.2 2.3-3.9z"/><path id="Rectangle-333_2_" class="st1" d="M-291.916 396.007c-1.7-1.7-3.5-2.7-3.9-2.3-.4.4.6 2.2 2.3 3.9 1.7 1.7 3.5 2.7 3.9 2.3.4-.4-.6-2.2-2.3-3.9z"/></g><g id="Group-11"><path id="Rectangle-333_3_" class="st1" d="M-290.5 401.15c4.1 0 7.5.5 7.5 1.1 0 .6-3.4 1.1-7.5 1.1s-7.5-.5-7.5-1.1c0-.6 3.4-1.1 7.5-1.1z"/><path id="Rectangle-619" class="st1" d="M-296.9 398.75c.6 0 1.1 1 1.1 2.2 0 1.2-.5 2.2-1.1 2.2-.6 0-1.1-1-1.1-2.2 0-1.2.5-2.2 1.1-2.2z"/><path id="Rectangle-619_1_" class="st1" d="M-284.1 398.75c.6 0 1.1 1 1.1 2.2 0 1.2-.5 2.2-1.1 2.2-.6 0-1.1-1-1.1-2.2 0-1.2.5-2.2 1.1-2.2z"/></g></g></g></g></svg>