<svg id="Layer_1" xmlns="http://www.w3.org/2000/svg" viewBox="-290 382 30 30"><style>.st0{opacity:.5}.st1{fill:#fff}</style><title>Group</title><g id="Page-1" class="st0"><g id="Artboard-62-Copy-3"><g id="Group"><path id="Fill-31" class="st1" d="M-280.7 385c-.6 0-1.3.3-1.7.7l-3.6 3.6c-.5.5-.7 1.1-.7 1.7 0 .6.2 1.3.7 1.7l15 15c.5.5 1.1.7 1.7.7s1.3-.2 1.7-.7l3.6-3.6c.9-.9.9-2.5 0-3.4l-15-15c-.4-.4-1-.7-1.7-.7zm11.5 26.4c-1.4 0-2.8-.6-3.8-1.6l-15-15c-1-1-1.6-2.4-1.6-3.8s.6-2.8 1.6-3.8l3.6-3.6c1-1 2.4-1.6 3.8-1.6s2.8.6 3.8 1.6l15 15c2.1 2.1 2.1 5.5 0 7.7l-3.6 3.6c-1 .9-2.4 1.5-3.8 1.5z"/><path id="Fill-32" class="st1" d="M-269.2 385c-.6 0-1.3.3-1.7.7l-15 15c-.5.5-.7 1.1-.7 1.7 0 .6.2 1.3.7 1.7l3.6 3.6c.5.5 1.1.7 1.7.7.6 0 1.3-.2 1.7-.7l15-15c.9-.9.9-2.5 0-3.4l-3.6-3.6c-.5-.4-1.1-.7-1.7-.7zm-11.5 26.4c-1.4 0-2.8-.6-3.8-1.6l-3.6-3.6c-1-1-1.6-2.4-1.6-3.8s.6-2.8 1.6-3.8l15-15c1-1 2.4-1.6 3.8-1.6s2.8.6 3.8 1.6l3.6 3.6c2.1 2.1 2.1 5.5 0 7.7l-15 15c-1 .9-2.3 1.5-3.8 1.5z"/></g></g></g></svg>