<svg id="Layer_1" xmlns="http://www.w3.org/2000/svg" viewBox="-259 350 93 93"><style>.st0{fill:#9190c9}.st1{fill:#8177ac}.st2{fill:#fff}.st3{fill:#5a4151}.st4{fill:#463341}.st5{fill:#c44676}.st6{fill:#fff;fill-opacity:.5}</style><title>Group 4</title><g id="Page-1"><g id="Guided-Meditations-Detail"><g id="Group-4"><path id="Fill-57" class="st0" d="M-234.1 380.4c0 4.5-3.7 8.2-8.2 8.2-4.5 0-8.2-3.7-8.2-8.2 0-4.5 3.7-8.2 8.2-8.2 4.5-.1 8.2 3.6 8.2 8.2"/><path id="Fill-58" class="st1" d="M-245.9 384.8c2.3-3 5-5.7 8-8.1-1-1.2-2.6-2-4.4-2-3.1 0-5.7 2.5-5.7 5.7 0 1.7.8 3.3 2.1 4.4"/><path id="Fill-59" class="st0" d="M-191.1 380.4c0 4.5 3.7 8.2 8.2 8.2 4.5 0 8.2-3.7 8.2-8.2 0-4.5-3.7-8.2-8.2-8.2-4.5-.1-8.2 3.6-8.2 8.2"/><path id="Fill-60" class="st1" d="M-179.3 384.8c-2.3-3-5-5.7-8-8.1 1-1.2 2.6-2 4.4-2 3.1 0 5.7 2.5 5.7 5.7 0 1.7-.8 3.3-2.1 4.4"/><path id="Fill-61" class="st1" d="M-240.4 416.2c-3 8.8-7.4 15.1-13.8 17.8-6.4 2.7-6.1 9.2.4 8.9 6.5-.3 16.8-7.1 17.7-27.3"/><path id="Fill-62" class="st1" d="M-184.8 416.2c3 8.8 7.4 15.1 13.8 17.8 6.4 2.7 6.1 9.2-.4 8.9-6.5-.3-16.8-7.1-17.7-27.3"/><path id="Fill-65" class="st0" d="M-189.7 435.8l13.7-17.7c8-10.2 7.1-24.8-2.1-34l-16-16c-10-10-26.3-10-36.4 0l-16.6 16.6c-9.2 9.2-10.1 23.7-2.1 34l13.3 17.1h46.2z"/><path id="Fill-66" class="st1" d="M-226 417c-2.8 0-5-1.1-5-2.5s2.2-2.5 5-2.5 5 1.1 5 2.5-2.2 2.5-5 2.5"/><path id="Fill-67" class="st1" d="M-199.2 417c-2.8 0-5-1.1-5-2.5s2.2-2.5 5-2.5 5 1.1 5 2.5-2.3 2.5-5 2.5"/><path id="Fill-68" class="st2" d="M-218.2 406.5c0 4.1-3.4 7.5-7.5 7.5s-7.5-3.4-7.5-7.5 3.4-7.5 7.5-7.5 7.5 3.3 7.5 7.5"/><path id="Fill-69" class="st2" d="M-192 406.5c0 4.1-3.4 7.5-7.5 7.5s-7.5-3.4-7.5-7.5 3.4-7.5 7.5-7.5c4.2 0 7.5 3.3 7.5 7.5"/><path id="Fill-70" class="st3" d="M-195.4 406.5c0 2.2-1.8 4-4 4s-4-1.8-4-4 1.8-4 4-4 4 1.8 4 4"/><path id="Fill-71" class="st3" d="M-221.6 406.5c0 2.3-1.8 4.1-4.1 4.1s-4.1-1.8-4.1-4.1 1.8-4.1 4.1-4.1c2.2-.1 4.1 1.8 4.1 4.1"/><path id="Fill-72" class="st3" d="M-203.6 420.4c0 5-4 9-9 9s-9-4-9-9 4-9 9-9 9 4 9 9"/><path id="Fill-73" class="st4" d="M-208.2 422.3c0 2.4-2 4.4-4.4 4.4-2.4 0-4.4-2-4.4-4.4 0-2.4 2-4.4 4.4-4.4 2.4 0 4.4 2 4.4 4.4"/><path id="Fill-74" class="st5" d="M-212.6 423.2c-2.7 0-5.1 1.2-6.8 3.1 1.6 1.9 4.1 3.1 6.8 3.1s5.1-1.2 6.8-3.1c-1.7-1.9-4.1-3.1-6.8-3.1"/><path id="Fill-75" class="st2" d="M-232.5 388.2l4.1-1.3c.8-.2 1.2-1.1.9-1.8-.2-.8-1.1-1.2-1.8-.9l-4.1 1.3c-.8.2-1.2 1.1-.9 1.8.2.7 1 1.1 1.8.9"/><path id="Fill-76" class="st2" d="M-191.8 385.6l-4.1-1.5c-.7-.3-1.6.1-1.9.9-.3.7.1 1.6.9 1.9l4.1 1.5c.7.3 1.6-.1 1.9-.9.3-.8-.1-1.6-.9-1.9"/><path id="Fill-77" class="st3" d="M-211.8 419.4c0 1.2-.3 1.6-.8 1.6-.4 0-.8-.4-.8-1.6 0-1.2.8-3.2.8-3.2s.8 2 .8 3.2"/><path id="Fill-78" class="st0" d="M-213.3 365.2s.6-7.6 8-10.7c0 0-7.4 6.5-4 11.3"/><path id="Fill-79" class="st0" d="M-214.5 367.6s1.9-9.3-5-13c0 0 5.7 7.3 1.2 12.8"/><path id="Fill-80" class="st0" d="M-211.3 363.5s3.6-6.7 10.6-6.6c0 0-7.9 2.8-8.1 8.8"/><path id="Fill-81" class="st0" d="M-211.5 362.5s.7-6.1-2.6-12.3c0 0 2.8 8.6-2.5 11.5"/><path id="Fill-82" class="st6" d="M-192.2 414.8l-.5-1.5.9-.3.5 1.5-.9.3"/><path id="Fill-83" class="st6" d="M-189.3 411.7l-1.3-1 .6-.8 1.3 1-.6.8"/><path id="Fill-84" class="st6" d="M-188.1 408.9l-1.6-.9.5-.8 1.6.9-.5.8"/><path id="Fill-85" class="st6" d="M-189.4 404.1h1.9v1h-1.9v-1z"/><path id="Fill-86" class="st6" d="M-190 402.4l-.7-.7 1.5-1.6.7.7-1.5 1.6"/><path id="Fill-87" class="st6" d="M-192.5 399.3l-.9-.4.8-1.6.9.4-.8 1.6"/><path id="Fill-88" class="st6" d="M-233 414.8l-.9-.3.5-1.5.9.3-.5 1.5"/><path id="Fill-89" class="st6" d="M-235.9 411.7l-.6-.8 1.3-1 .6.8-1.3 1"/><path id="Fill-90" class="st6" d="M-237.1 408.9l-.5-.8 1.6-.9.5.8-1.6.9"/><path id="Fill-91" class="st6" d="M-237.7 404.1h1.9v1h-1.9v-1z"/><path id="Fill-92" class="st6" d="M-235.2 402.4l-1.5-1.6.7-.7 1.5 1.6-.7.7"/><path id="Fill-93" class="st6" d="M-232.7 399.3l-.8-1.6.9-.4.8 1.6-.9.4"/></g></g></g></svg>