<svg width="350" height="255" viewBox="0 0 350 255" xmlns="http://www.w3.org/2000/svg" xmlns:xlink="http://www.w3.org/1999/xlink"><title>Group 3</title><defs><path id="a" d="M138.218 69.236C138.218 31.118 107.29.19 69.173.19S.127 31.12.127 69.237H10.31c0-32.518 26.345-58.863 58.863-58.863s58.863 26.345 58.863 58.863h10.182z"/><path id="c" d="M23.232 4.455c-9.99 0-16.894-8.62-21.376-1.38-4.483 7.242-1.38 27.667 21.376 27.667S49.092 10.317 44.61 3.076c-4.483-7.24-11.387 1.38-21.378 1.38z"/></defs><g fill="none" fill-rule="evenodd"><path d="M279.02 158.32c-32.008-11.392-68.153-17.437-104.49-17.437-36.336 0-72.48 6.045-104.49 17.436-26.473 9.41-50.273 22.59-69.555 38.3v4.135c42.382-35.636 106.59-56.7 174.046-56.7 60.55 0 118.48 16.97 160.36 46.22a192.683 192.683 0 0 1 13.69 10.48v-4.135c-19.22-15.717-43.02-28.89-69.55-38.31z" fill-opacity=".7" fill="#C2E2F2"/><path d="M348.576 183.328c-18.964-14.382-41.873-26.41-67.2-35.255-32.71-11.39-69.682-17.436-106.845-17.436s-74.07 6.046-106.84 17.436c-25.33 8.847-48.24 20.873-67.2 35.255v2.482c43.464-33.473 107.227-53.137 174.046-53.137 66.82 0 130.583 19.664 174.047 53.137v-2.482z" fill-opacity=".5" fill="#C2E2F2"/><path d="M348.576 170.664c-18.39-12.6-40.027-23.163-63.7-31.118-33.79-11.39-71.973-17.436-110.345-17.436s-76.55 6.045-110.34 17.373c-23.67 7.954-45.31 18.58-63.7 31.117v1.53c44.8-30.8 107.93-48.74 174.05-48.74s129.245 17.944 174.045 48.81v-1.53z" fill-opacity=".2" fill="#C2E2F2"/><path d="M349.618 214.494c-39.263-38.563-102.963-63.636-174.81-63.636-71.844 0-135.544 25.073-174.808 63.636h349.618z" fill="#BCEBEA"/><path d="M44.65 213.746l92.462-7.573-82.536-42.254 88.264 28.5-60.01-70.7 70.7 60.01-28.51-88.266L167.276 176l7.573-92.464L182.42 176l42.25-82.537-28.51 88.262 70.7-60.01-60.01 70.7 88.264-28.508-82.536 42.252 92.464 7.57" fill="#A5DCE8" opacity=".5"/><g transform="translate(105.612 145.02)"><mask id="b" fill="#fff"><use xlink:href="#a"/></mask><path d="M69.173 2.1v17.373M2.036 69.236H19.41m116.963 0H119M21.7 21.764l12.282 12.28m82.728 82.73l-12.346-12.347M21.7 116.773l12.282-12.346m82.728-82.663l-12.346 12.28M43.59 7.19l6.62 16.037M7.127 94.882l16.037-6.618m108.118-44.61l-16.1 6.62M7.19 43.464l16.037 6.68m107.99 44.93l-16.035-6.684M95.01 7.256L88.326 23.29m-56.38-9.926l9.61 14.51M13.3 106.527l14.51-9.672m97.235-64.845L110.6 41.617M3.373 56.064l16.99 3.436m114.673 22.91l-17.054-3.374m-35.637-75.6l-3.372 16.99M13.427 31.818l14.446 9.673m97.045 65.23l-14.382-9.73m-3.88-83.492L96.918 27.94M3.31 82.216l17.054-3.372M135.1 56.318l-17.055 3.373M56.255 3.38l3.372 17.054" stroke="#6C465F" stroke-width="1.295" mask="url(#b)"/></g><path d="M349.618 214.494c-39.263-7.382-102.963-12.154-174.81-12.154-71.844 0-135.544 4.772-174.808 12.154h349.618z" fill="#78CFCD"/><ellipse stroke="#A093BD" stroke-width="7" cx="65.955" cy="73.566" rx="7.955" ry="7.955"/><circle stroke="#77D4D2" stroke-width="6" cx="311.364" cy="130.364" r="6.364"/><ellipse stroke="#FF6676" stroke-width="2" cx="35.227" cy="121.41" rx="9.227" ry="9.227"/><ellipse stroke="#A5DCE8" stroke-width="3" cx="306.576" cy="35.973" rx="9.227" ry="9.227"/><circle stroke="#FF6676" stroke-width="3" cx="302.758" cy="74.409" r="5.409"/><circle fill="#D9C8D4" cx="68.576" cy="28.973" r="5.409"/><circle fill="#C29BB6" opacity=".64" cx="329.364" cy="105.364" r="6.364"/><ellipse fill="#A5DCE8" cx="25.667" cy="74.11" rx="3.5" ry="3.5"/><circle fill="#A093BD" cx="257.576" cy="69.228" r="2.609"/><path d="M238.033 246.668c0 4.133-28.168 7.483-62.914 7.483-34.75 0-62.92-3.35-62.92-7.48 0-4.13 28.17-7.48 62.91-7.48s62.913 3.35 62.913 7.48" fill-opacity=".1" fill="#000"/><path d="M153.19 217.52s-5.89 12.765-2.455 26.512c-5.4.982-7.855 3.927-4.91 3.927h10.31c3.93 0 .983-21.62 9.33-21.13 8.346.49-12.275-9.31-12.275-9.31m43.978 0s5.892 12.76 2.455 26.51c5.4.98 7.855 3.92 4.91 3.92h-10.31c-3.93 0-.982-21.62-9.33-21.13-8.345.49 12.275-9.31 12.275-9.31m-78.91-44.033s-13.1-4.827-19.997 6.896c-6.89 11.722 2.07 26.892-8.27 30.34-10.34 3.447-12.26-21.663 0-35.858 10.13-11.725 28.27-6.208 28.27-6.208v4.825m.09-22.045s-8.3-11.223-20.5-5.204c-12.19 6.02-13.02 23.62-23.56 20.83-10.54-2.793 1.63-24.84 19.67-29.98C108.86 132.833 121 147.4 121 147.4l-2.65 4.037m113.75 22.046s13.102-4.827 19.997 6.896c6.896 11.72-2.068 26.89 8.275 30.34 10.344 3.44 12.263-21.67 0-35.86-10.127-11.728-28.272-6.21-28.272-6.21v4.824m-.093-22.045s8.307-11.223 20.503-5.204c12.196 6.02 13.023 23.62 23.563 20.83 10.54-2.793-1.63-24.84-19.67-29.98-14.898-4.248-27.043 10.32-27.043 10.32l2.647 4.034" fill="#12A19F"/><path d="M175.18 87.98c-36.893 0-63.096 43.443-63.096 82.748 0 41.13 28.25 57.924 63.095 57.924s63.09-16.794 63.09-57.924c0-39.305-26.208-82.748-63.1-82.748" fill="#15B4B2"/><path d="M152.415 165.294c-4.573 0-8.28-1.854-8.28-4.14 0-2.286 3.707-4.14 8.28-4.14 4.573 0 8.28 1.854 8.28 4.14 0 2.286-3.707 4.14-8.28 4.14m45.53 0c-4.574 0-8.28-1.854-8.28-4.14 0-2.286 3.706-4.14 8.28-4.14 4.572 0 8.28 1.854 8.28 4.14 0 2.286-3.708 4.14-8.28 4.14" fill="#12A19F"/><path d="M196.556 172.68c-4.482-7.24-11.386 1.38-21.377 1.38-10 0-16.9-8.62-21.38-1.38-4.49 7.242-1.38 27.666 21.37 27.666s25.86-20.424 21.376-27.665" fill="#5A4151"/><path d="M158.01 194.29c3.667 3.556 9.213 6.056 17.17 6.056 7.955 0 13.502-2.5 17.17-6.057-3.668-3.56-9.215-6.06-17.17-6.06-7.957 0-13.503 2.5-17.17 6.05" fill="#C44676"/><path d="M142.447 126.755l11.67-.96a1.34 1.34 0 1 0-.22-2.674l-11.67.97a1.34 1.34 0 1 0 .22 2.67m65.75-2.213l-11.61-1.525a1.34 1.34 0 1 0-.35 2.66l11.61 1.523a1.34 1.34 0 1 0 .35-2.656" fill="#5A4151"/><path d="M152.425 162.99a7.542 7.542 0 1 1 0-15.084 7.542 7.542 0 0 1 0 15.083zm45.402 0a7.542 7.542 0 1 1 0-15.084 7.542 7.542 0 0 1 0 15.083z" fill="#FFF"/><path d="M156.132 155.502a3.673 3.673 0 1 1-7.346 0 3.673 3.673 0 0 1 7.346 0m45.27-.152a3.673 3.673 0 1 1-7.345 0 3.673 3.673 0 0 1 7.346 0" fill="#5A4151"/><g transform="translate(151.947 169.605)"><mask id="d" fill="#fff"><use xlink:href="#c"/></mask><path d="M24.297 3.653c0 3.34-1.914 6.05-4.276 6.05-2.36 0-4.27-2.71-4.27-6.05 0-3.342 1.92-6.05 4.28-6.05s4.277 2.708 4.277 6.05" fill="#FFF" mask="url(#d)"/><path d="M16.808 2.49c0 3.326-1.597 6.023-3.567 6.023-1.97 0-3.56-2.697-3.56-6.024 0-3.33 1.6-6.03 3.57-6.03 1.97 0 3.568 2.693 3.568 6.02" fill="#FFF" mask="url(#d)"/><path d="M10.545.18c0 3.328-1.598 6.025-3.568 6.025S3.41 3.508 3.41.18s1.596-6.023 3.567-6.023c1.97 0 3.568 2.696 3.568 6.024m11.702 3.61c0 3.34 1.914 6.05 4.277 6.05 2.36 0 4.275-2.71 4.275-6.05s-1.92-6.05-4.28-6.05-4.28 2.71-4.28 6.05" fill="#FFF" mask="url(#d)"/><path d="M29.736 2.49c0 3.326 1.597 6.023 3.568 6.023 1.97 0 3.568-2.697 3.568-6.024 0-3.33-1.598-6.03-3.568-6.03s-3.568 2.7-3.568 6.023" fill="#FFF" mask="url(#d)"/><path d="M36 .18c0 3.328 1.597 6.025 3.568 6.025 1.97 0 3.567-2.697 3.567-6.024s-1.597-6.02-3.567-6.02C37.598-5.84 36-3.14 36 .18" fill="#FFF" mask="url(#d)"/></g><path d="M154.607 166.813v-1.035h-7.593a10.71 10.71 0 0 1-7.59-3.158 10.708 10.708 0 0 1-3.16-7.59c0-2.957 1.206-5.64 3.16-7.593a10.71 10.71 0 0 1 7.59-3.158h7.593a10.71 10.71 0 0 1 7.59 3.15 10.715 10.715 0 0 1 3.16 7.59c0 2.954-1.207 5.637-3.16 7.59a10.713 10.713 0 0 1-7.59 3.16v2.07c7.057-.006 12.814-5.764 12.818-12.82-.004-7.057-5.76-12.815-12.818-12.82h-7.593c-7.058.005-12.815 5.763-12.82 12.82.005 7.056 5.762 12.814 12.82 12.82h7.593v-1.034m48.738.002v-1.038h-7.593c-2.956 0-5.638-1.207-7.592-3.158a10.71 10.71 0 0 1-3.158-7.59 10.71 10.71 0 0 1 3.158-7.594c1.954-1.95 4.636-3.157 7.592-3.157h7.593a10.71 10.71 0 0 1 7.59 3.156 10.71 10.71 0 0 1 3.16 7.59 10.71 10.71 0 0 1-3.16 7.59 10.713 10.713 0 0 1-7.59 3.16v2.07c7.057-.006 12.814-5.764 12.818-12.82-.004-7.057-5.76-12.815-12.818-12.82h-7.593c-7.058.005-12.815 5.763-12.82 12.82.005 7.056 5.762 12.814 12.82 12.82h7.593V166.8" fill="#5A4151"/><path d="M166.787 153.962h16.784v2.07h-16.78v-2.07z" fill="#5A4151"/><path d="M172.58 88.227s.662-9.045 8.824-13.898c0 0-8.162 7.27-4.412 14.78" fill="#2EB3A5"/><path d="M174.14 91.013s3.26-9.475 13.89-12.258c0 0-11.303 5.377-9.116 14.502" fill="#2EB3A5"/><g opacity=".2" fill="#FFF"><path d="M243.132 75.908c-18.172 0-32.955-14.784-32.955-32.957 0-18.17 14.783-32.95 32.955-32.95 18.172 0 32.956 14.79 32.956 32.96 0 18.175-14.784 32.96-32.956 32.96zm0-74.983c-23.174 0-42.026 18.853-42.026 42.026 0 23.18 18.852 42.03 42.026 42.03 23.174 0 42.027-18.85 42.027-42.02 0-23.176-18.86-42.03-42.03-42.03z"/><path d="M243.132 56.795c-7.646 0-13.843-6.198-13.843-13.844 0-7.64 6.19-13.84 13.84-13.84 7.64 0 13.84 6.2 13.84 13.85 0 7.647-6.2 13.845-13.847 13.845zm0-37.664c-13.134 0-23.82 10.69-23.82 23.82 0 13.14 10.686 23.83 23.82 23.83s23.82-10.684 23.82-23.82-10.686-23.82-23.82-23.82z"/></g><g opacity=".1" fill="#FFF"><path d="M109.563 69.598c-8.663 0-15.71-7.05-15.71-15.712 0-8.663 7.047-15.71 15.71-15.71s15.71 7.047 15.71 15.71-7.047 15.712-15.71 15.712zm0-35.748c-11.048 0-20.036 8.988-20.036 20.036 0 11.048 8.988 20.036 20.036 20.036 11.048 0 20.036-8.988 20.036-20.036 0-11.048-8.99-20.036-20.04-20.036z"/><path d="M109.563 60.486a6.6 6.6 0 1 1 0-13.2 6.6 6.6 0 0 1 0 13.2zm0-17.956c-6.262 0-11.356 5.094-11.356 11.356s5.094 11.356 11.356 11.356 11.356-5.094 11.356-11.356-5.1-11.356-11.36-11.356z"/></g></g></svg>