<svg id="Layer_1" xmlns="http://www.w3.org/2000/svg" viewBox="-130 278 350 238"><style>.st0{fill:#9c717b}.st1{fill:#6e444d}.st2{opacity:.3;fill:url(#Shape_31_);fill-opacity:.5;enable-background:new}.st3{fill:url(#Shape_37_)}.st3,.st4{opacity:.3;fill-opacity:.5;enable-background:new}.st4{fill:url(#Shape_38_)}.st5{fill:none;stroke:#c2b8d9;stroke-width:2}.st6{stroke-dasharray:11.9475,11.9475}.st6,.st7{fill:none;stroke:#c2b8d9;stroke-width:2}.st7{stroke-dasharray:9.9566,9.9566}.st8{fill:url(#Shape_39_);enable-background:new}.st8,.st9{opacity:.3;fill-opacity:.5}.st9{fill:url(#Shape_40_)}.st9,.st10{enable-background:new}.st10{opacity:.7;stroke-width:9.375}.st10,.st11{fill:none;stroke:#77c4d4}.st11{stroke-width:4.25}.st12{stroke-width:5.5}.st12,.st13{fill:none;stroke:#a093bd}.st13{stroke-width:4.75}.st14{fill:none;stroke:#77c4d4;stroke-width:2.75}.st15{fill:#362529}.st16{opacity:.2}.st16,.st17{fill:#fff;enable-background:new}.st17{opacity:.1}.st18{fill-opacity:.1}.st19{fill:#c44676}.st20{fill:#d6407e}.st21{fill:#c03971}.st22{fill:#5a4151}.st23{fill:#6c6c8f}.st24{fill:#da538b}.st25{fill:#fff}</style><title>Group 6</title><g id="Page-1"><g id="The-Science-Stress"><g id="Group-6"><g id="Group-5" transform="translate(0 -3)"><g id="Group-4"><path id="Shape" class="st0" d="M-42.358 457.042h247.9c-.6-1.5-1.7-3.9-3.3-6.6-9.7-16.6-14.8-4.8-52.2-30.4-27.4-18.8-34.6-26.9-56.8-27.7-23.9-.9-34.6 11.8-67.9 21.6-17.5 5.1-46.3-3.2-82.6-11"/><g id="Group"><path id="Shape_1_" class="st1" d="M116.266 397.702c-.1 3.8-.7 4.6-.7 4.6h.1c-1 2.5-2.2 5.7-2.2 6.8 0 2 1.6 3.6 3.6 3.6s3.6-1.6 3.6-3.6c0-1.1-1.1-4.2-2.1-6.6h.1c-.5-1.5-.6-2.8-.5-4.2-.8-.1-1.4-.3-1.9-.6z"/><path id="Shape_2_" class="st1" d="M93.566 407.202c1.5 0 2.6-1.2 2.6-2.6 0-.8-.8-3-1.5-4.8h.1c-.6-1.6-.3-2.8-.3-4.6 0-.5.1-1.6.3-2.9-.6 0-1.1.1-1.7.1.1.9.2 1.8.2 2.8 0 3.6-.5 4.4-.5 4.4h.1c-.7 1.8-1.6 4.2-1.6 5-.3 1.4.8 2.6 2.3 2.6z"/><path id="Shape_3_" class="st1" d="M100.066 393.002c.3 1.2.5 2.8.5 4.2 0 2.4-.3 2.9-.3 2.9h.1c-.5 1.2-1.1 2.7-1.1 3.3 0 .9.8 1.7 1.7 1.7.9 0 1.7-.8 1.7-1.7 0-.5-.5-2-1-3.2-.4-1.1-.3-1.8-.3-3-.1-.7.1-2.5.4-4.2-.5.1-1.1.1-1.7 0z"/></g></g><linearGradient id="Shape_31_" gradientUnits="userSpaceOnUse" x1="-258.064" y1="782.611" x2="-258.064" y2="783.349" gradientTransform="matrix(90.5257 0 0 -20.2185 23355.67 16159.1)"><stop offset="0" stop-color="#FFF"/><stop offset="1" stop-color="#FFF" stop-opacity=".008"/></linearGradient><path id="Shape_4_" class="st2" d="M.9 325.4c-9-1.8-9.6-4.7-16.4-4.4-3.1.1-6.4 1.1-13 3.2-8.9 2.8-9.8 4.2-14 4-2.6-.1-4.9-.9-6.7.5-1.4 1.1-2.2 3-1.6 4.4 1.1 2.7 6.8 2.6 9.2 2.6 5.2-.1 6.2-1.6 9.7-1.6 5.7 0 6.4 4 12.7 6 8.3 2.8 17.9-.6 23.7-2.6 5.4-1.9 7.9-3.8 12.1-2.9 3.5.8 4.1 2.6 8.3 3.2 3.8.4 6.9-.7 9.2-1.6 3.1-1.1 4.9-1.8 5.4-3.4.7-2.3-1.6-5.3-4.1-6.8-3.4-2-6.9-.8-11.6 0-.1 0-11.3 1.8-22.9-.6z"/><linearGradient id="Shape_37_" gradientUnits="userSpaceOnUse" x1="-258.064" y1="782.611" x2="-258.064" y2="783.349" gradientTransform="matrix(90.5257 0 0 -20.2185 23498.47 16138.628)"><stop offset="0" stop-color="#FFF"/><stop offset="1" stop-color="#FFF" stop-opacity=".008"/></linearGradient><path id="Shape_5_" class="st3" d="M143.7 305c-9-1.8-9.6-4.7-16.4-4.4-3.1.1-6.4 1.1-13 3.2-8.9 2.8-9.8 4.2-14 4-2.6-.1-4.9-.9-6.7.5-1.4 1.1-2.2 3-1.6 4.4 1.1 2.7 6.8 2.6 9.2 2.6 5.2-.1 6.2-1.6 9.7-1.6 5.7 0 6.4 4 12.7 6 8.3 2.8 17.9-.6 23.7-2.6 5.4-1.9 7.9-3.8 12.1-2.9 3.5.8 4.1 2.6 8.3 3.2 3.8.4 6.9-.7 9.2-1.6 3.1-1.1 4.9-1.8 5.4-3.4.7-2.3-1.6-5.3-4.1-6.8-3.4-2-6.9-.8-11.6 0-.1-.1-11.3 1.7-22.9-.6z"/><linearGradient id="Shape_38_" gradientUnits="userSpaceOnUse" x1="-258.443" y1="781.152" x2="-258.443" y2="781.89" gradientTransform="matrix(122.9426 0 0 -18.2662 31931.625 14614.47)"><stop offset="0" stop-color="#FFF"/><stop offset="1" stop-color="#FFF" stop-opacity=".008"/></linearGradient><path id="Shape_6_" class="st4" d="M96.6 341.3c.3-3.6 9.1-6.9 17-7.1 7.7-.1 9.4 2.8 17 3.4 8.4.6 10.4-2.8 19.9-4.6 15.6-3 16.7 4.9 36.2 3.4 6.4-.5 13.4-1.9 23.3 0 8.6 1.7 9.4 4 9.4 4.6.4 2.4-3.5 4.9-4.4 5.5-1.6 1-6.3 3.6-16.7 2.2-6.4-.9-7.3-2.4-12.9-3.7-9.7-2.2-18.1-.5-26.8 1.3-11.1 2.2-11.3 4.3-18.6 4.3-3.9 0-10.7.1-18-3.4-5.3-2.5-6.6-4.8-10.4-4.6-4.9.3-6.9 4.4-10.7 3.4-2.2-.6-4.5-2.7-4.3-4.7z"/><g id="Group_1_"><g id="Shape_7_"><path class="st5" d="M98.853 320.98l-2.9 2.8"/><path class="st6" d="M90.253 329.38l-100.3 97.6"/><path class="st5" d="M-12.947 429.78l-2.8 2.8"/></g><g id="Shape_8_"><path class="st5" d="M108.928 320.98l-2.4 2.3"/><path class="st7" d="M101.728 327.98l-102.6 99.9"/><path class="st5" d="M-3.272 430.28l-2.4 2.3"/></g><g id="Shape_9_"><path class="st5" d="M129.077 320.98l-2.4 2.3"/><path class="st7" d="M121.877 327.98l-102.7 99.9"/><path class="st5" d="M16.877 430.28l-2.4 2.3"/></g><g id="Shape_10_"><path class="st5" d="M149.247 320.98l-2.4 2.3"/><path class="st7" d="M142.047 327.98l-102.7 99.9"/><path class="st5" d="M36.947 430.28l-2.4 2.3"/></g><g id="Shape_11_"><path class="st5" d="M169.396 320.98l-2.4 2.3"/><path class="st7" d="M162.196 327.98l-102.7 99.9"/><path class="st5" d="M57.096 430.28l-2.4 2.3"/></g><g id="Shape_12_"><path class="st5" d="M119.002 320.98l-2.8 2.8"/><path class="st6" d="M110.402 329.38l-100.3 97.6"/><path class="st5" d="M7.202 429.78l-2.8 2.8"/></g><g id="Shape_13_"><path class="st5" d="M139.173 320.98l-2.8 2.8"/><path class="st6" d="M130.573 329.38l-100.3 97.6"/><path class="st5" d="M27.473 429.78l-2.9 2.8"/></g><g id="Shape_14_"><path class="st5" d="M159.322 320.98l-2.8 2.8"/><path class="st6" d="M150.722 329.38l-100.3 97.6"/><path class="st5" d="M47.622 429.78l-2.9 2.8"/></g></g><linearGradient id="Shape_39_" gradientUnits="userSpaceOnUse" x1="-256.24" y1="772.385" x2="-256.24" y2="773.123" gradientTransform="matrix(39.872 0 0 -11.5592 10117.694 9319.704)"><stop offset="0" stop-color="#FFF"/><stop offset="1" stop-color="#FFF" stop-opacity=".008"/></linearGradient><path id="Shape_15_" class="st8" d="M-88.9 386s-2.4-1.7-6.9-2.8c-3.6-.9-3.9 1.7-10.6 2.3-3.7.4-5.4-.1-8.8 1.1-2.4.9-3.5 1.1-3.7 1.8-.3 1.2 1.3 2.8 2.9 3.6 4.1 2 7-2 12.5-.8 4.1.9 3.6 3.2 6.9 3.4 4.7.1 6.9-4.7 11.4-3.9.6.1 1.9.4 3.5 0 .3-.1 2.4-.7 2.6-1.8.2-1.5-2.5-3.5-4.5-3.1-1.2.3-1.4 1.2-2.6 1.3-1.2.1-2.2-.7-2.7-1.1z"/><linearGradient id="Shape_40_" gradientUnits="userSpaceOnUse" x1="-258.064" y1="782.611" x2="-258.064" y2="783.349" gradientTransform="matrix(90.5257 0 0 -20.2185 23388.86 16131.68)"><stop offset="0" stop-color="#FFF"/><stop offset="1" stop-color="#FFF" stop-opacity=".008"/></linearGradient><path id="Shape_16_" class="st9" d="M50.5 298.9s-5.5-3-15.7-5c-8.2-1.6-8.8 2.9-24.2 4-8.3.7-12.2-.2-19.9 1.8-5.4 1.5-8 1.8-8.5 3.1-.8 2.1 2.9 5 6.6 6.4 9.2 3.5 15.9-3.5 28.3-1.4 9.2 1.5 8.2 5.7 15.7 5.9 10.6.2 15.7-8.2 25.9-6.8 1.4.2 4.3.7 7.9 0 .8-.1 5.5-1.2 6-3.1.5-2.5-5.7-6.1-10.3-5.4-2.6.5-3.2 2.1-6 2.3-2.4.1-4.6-1.1-5.8-1.8z"/><path id="Shape_17_" class="st10" d="M-88 356.3h33.9"/><path id="Shape_18_" class="st11" d="M158.1 379.8h15.4"/><path id="Shape_19_" class="st12" d="M145.9 356.6h19.9"/><path id="Shape_20_" class="st13" d="M-17.8 284H-.6"/><path id="Shape_21_" class="st14" d="M-25.1 383.5h10"/><path id="Shape_22_" class="st14" d="M108.8 304.6h9.9"/><g id="Group-2"><path id="Shape_23_" class="st15" d="M-129.9 468.5c0 .5 349.5 0 349.5 0s-3.6-8-8-12.3c-10.7-10.4-22.9-9.2-43.4-13.2-36.2-7.1-49.1-25.6-84-18-19.3 4.2-19.8 10.5-38.9 13.2-6.2.9-22.5 3.2-39.4-3.5-23.5-9.4-22.9-26.2-43.8-31.2-2-.5-20.1-4.6-34.4 4.8-16.4 10.8-14.1 30.1-30.4 35.2-7.4 2.3-11.4-.5-17.4 3.5-8.7 5.8-9.8 18.5-9.8 21.5z"/><path id="Shape_24_" class="st1" d="M-113 468.5c-.5.1 238.7 0 238.7 0s-1.1-2.4-2.2-4c-10.5-13.9-38-5.3-62.6-4.8-81.3 1.8-85.4-12.3-111.8-10.6-19.2 1.3-26.7 13.7-62.1 19.4z"/><path id="Shape_25_" class="st1" d="M-72 430.3c-1-2.8-.5-4.9-.5-7.9s2.3-15.7 2.3-15.7l-7.4 5.9s2.8 1.5 2.8 9.7c0 6.3-.9 7.5-.9 7.5h.1c-1.3 3.1-2.8 7.2-2.8 8.6 0 2.5 2 4.5 4.6 4.5 2.5 0 4.6-2 4.6-4.5-.1-1.2-1.5-5-2.8-8.1z"/><path id="Shape_26_" class="st1" d="M-47.5 426.2c-.6-1.7-.3-2.9-.3-4.7s1.4-19.2 1.4-19.2h-4.4s1.7 14.3 1.7 19.2c0 3.8-.5 4.5-.5 4.5h.1c-.7 1.8-1.7 4.3-1.7 5.2 0 1.5 1.2 2.7 2.7 2.7s2.7-1.2 2.7-2.7c-.1-.9-.9-3.2-1.7-5z"/><path id="Shape_27_" class="st1" d="M95 440.6c-.7-1.9-.4-3.3-.4-5.3s1.5-12.2 1.5-12.2l-5 .7s1.9 5.9 1.9 11.5c0 4.3-.7 5.1-.7 5.1h.1c-.9 2.1-1.9 4.8-1.9 5.8 0 1.7 1.4 3 3.1 3s3.1-1.4 3.1-3c.1-.9-.9-3.5-1.7-5.6z"/><path id="Shape_28_" class="st1" d="M-59.7 411c-1-2.8-1-5-.9-7.6l-3.1.9c-.3 5.2-1.2 6.3-1.2 6.3h.1c-1.7 4.3-3.9 9.8-3.9 11.8 0 3.4 2.8 6.2 6.3 6.2s6.3-2.8 6.3-6.2c.1-2-1.9-7.3-3.6-11.4z"/><path id="Shape_29_" class="st1" d="M107.3 431.1c1-2.8 1-5 .9-7.6l3.1.9c.3 5.2 1.2 6.3 1.2 6.3h-.1c1.7 4.3 3.9 9.8 3.9 11.8 0 3.4-2.8 6.2-6.3 6.2s-6.3-2.8-6.3-6.2c0-1.9 1.9-7.2 3.6-11.4z"/><path id="Shape_30_" class="st1" d="M157.2 448.8c-.9-2.3-.5-4-.5-6.4 0-.5.1-1.3.2-2.2l-2.1-.7c.1.9.2 1.8.2 2.9 0 5.2-.8 6.1-.8 6.1h.1c-1.1 2.6-2.3 5.9-2.3 7.1 0 2 1.7 3.7 3.8 3.7 2.1 0 3.8-1.7 3.8-3.7-.3-1.2-1.4-4.3-2.4-6.8z"/></g><path id="Fill-30" class="st16" d="M-88.6 343.5c-.2 0-.4 0-.6.1-2.9.3-5.8.3-8.7-.1-2.8-.4-5.6-1.2-8.2-2.3-2.6-1.1-5-2.6-7.3-4.3-2.2-1.7-4.1-3.7-5.8-6-1.6-2.2-3-4.6-4-7.2-.7-1.9-1.3-3.9-1.7-5.9-.1-.6-.2-1.3-.3-1.9-.3-2.6-.2-5.3.2-8 .4-2.6 1.1-5.1 2.2-7.5 1-2.4 2.4-4.6 4-6.6s3.4-3.7 5.5-5.3c2-1.5 4.2-2.7 6.6-3.6.2-.1.2-.1.3-.1 1.6-.6 3.3-1 4.9-1.3.6-.1 1.3-.2 1.9-.3 2.4-.3 4.9-.2 7.3.2 2.3.4 4.6 1.1 6.8 2 2.1 1 4.1 2.2 6 3.7 1.8 1.4 3.4 3.1 4.7 5 1.3 1.8 2.4 3.8 3.2 6 .5 1.4 1 3 1.2 4.5.1.7.2 1.3.3 2 .2 2.2.1 4.4-.2 6.5-.4 2.1-1 4.2-1.9 6.1-.9 1.9-2 3.7-3.4 5.3-1.3 1.6-2.8 3-4.6 4.2-1.6 1.2-3.5 2.1-5.4 2.8-.4.2-.8.3-1.2.4-.9.3-1.7.5-2.6.6-.7.1-1.3.2-2 .3-2 .2-3.9.1-5.9-.3-1.9-.3-3.7-.9-5.4-1.8-1.7-.8-3.3-1.8-4.7-3-1.4-1.2-2.6-2.5-3.7-4.1-1-1.5-1.8-3.1-2.4-4.8-.3-1-.6-2-.8-3.1l-.3-2.1c-.1-1.7 0-3.4.3-5.1.3-1.6.9-3.2 1.6-4.7.7-1.4 1.6-2.8 2.7-4 1-1.2 2.3-2.2 3.6-3.1 1.3-.8 2.7-1.5 4.2-2 .4-.1.8-.2 1.1-.3.4-.1.8-.2 1.2-.2.4-.1.7-.1 1.1-.2.3 0 .7-.1 1-.1 1.5-.1 3 0 4.4.4 1.4.3 2.7.8 4 1.5 1.2.6 2.4 1.4 3.4 2.4 1 .9 1.8 2 2.6 3.1.7 1.1 1.2 2.3 1.6 3.6.1.5.3 1 .4 1.5.1.7.2 1.5.2 2.2 0 1.2-.1 2.5-.4 3.7-.3 1.1-.7 2.3-1.3 3.3-.6 1-1.3 1.9-2.1 2.7-.8.8-1.7 1.5-2.7 2-.9.5-2 .9-3 1.2-.2.1-.4.1-.7.1-.8.1-1.6.2-2.4.2-1.1 0-2.1-.2-3-.5-.9-.3-1.8-.7-2.6-1.2s-1.5-1.1-2.1-1.8c-.7-.8-1.2-1.7-1.5-2.2-.4-.9-.6-1.7-.7-2.3-.1-.9-.2-1.8-.1-2.6.1-.7.3-1.6.6-2.3.3-.7.7-1.3 1.2-1.9.4-.5 1-1 1.6-1.4.6-.4 1.2-.7 1.9-.8.2 0 .3-.1.5-.1.3 0 .5-.1.8-.1h.7c.7 0 1.4.2 1.9.4.6.3 1.2.7 1.6 1 .5.4.9 1.1 1.1 1.5.3.5.4 1.1.4 1.4 0 .2 0 .3.1.4 0 .6-.1 1.4-.3 1.9-.2.6-.8 1.3-1.2 1.6-.4.3-.7.5-1.2.7-1.2.5-2.7.2-3.5-.7 0 .2.1.5.2.6.1.3.3.6.5.8.2.3.5.5.8.7.3.2.7.4 1.1.5.4.1.9.2 1.3.2h1.2c.1 0 .2 0 .3-.1.5-.1 1-.3 1.4-.6.5-.3 1-.6 1.3-1 .4-.4.8-.9 1.1-1.4.3-.6.6-1.2.7-1.8.2-.7.3-1.4.2-2 0-.4-.1-.9-.1-1.3-.1-.3-.1-.6-.2-.8-.2-.7-.5-1.4-.9-2.1-.4-.7-.9-1.3-1.5-1.8-.6-.6-1.3-1.1-2-1.4-.8-.4-1.6-.7-2.5-.9-.9-.2-1.8-.3-2.7-.2-.4 0-.7.1-1 .1-.1 0-.2 0-.3.1-.5.1-1 .2-1.4.4-1 .3-1.9.8-2.7 1.3-.9.6-1.7 1.3-2.3 2-.7.8-1.3 1.7-1.8 2.7-.5 1-.9 2.1-1.1 3.2-.2 1.2-.3 2.3-.2 3.4 0 .5.1 1 .2 1.4.1.7.3 1.4.5 2.1.4 1.2 1 2.3 1.7 3.3.7 1.1 1.6 2 2.5 2.8 1 .9 2.1 1.6 3.3 2.1 1.2.6 2.5 1 3.9 1.2 1.4.2 2.8.3 4.2.2.5 0 1-.1 1.5-.2.9-.2 1.8-.4 2.6-.7 1.5-.6 2.9-1.2 4-2.1 1.3-.9 2.4-1.9 3.3-3.1 1-1.2 1.8-2.5 2.5-3.9.7-1.5 1.1-3 1.4-4.6.3-1.6.3-3.3.2-4.9 0-.5-.1-1-.2-1.5-.2-1.2-.5-2.3-.9-3.4-.6-1.6-1.4-3.1-2.4-4.5s-2.2-2.7-3.6-3.8c-1.4-1.1-2.9-2.1-4.6-2.8-1.7-.8-3.5-1.3-5.3-1.6-1.9-.3-3.8-.3-5.6-.2-.5.1-1 .1-1.5.2-1.4.2-2.7.6-4 1.1-1.9.7-3.6 1.7-5.2 2.8-1.6 1.2-3.1 2.6-4.3 4.1-1.3 1.6-2.4 3.4-3.2 5.2-.8 1.9-1.4 3.9-1.7 6-.3 2.1-.4 4.2-.1 6.3.1.5.1 1 .2 1.5.3 1.6.7 3.2 1.3 4.7.8 2.1 1.9 4 3.2 5.7 1.3 1.8 2.9 3.4 4.6 4.8 1.8 1.4 3.8 2.6 5.8 3.5 2.1.9 4.4 1.6 6.7 1.9 2.4.3 4.7.4 7 .1.2 0 .4-.1.6-.1.3 0 .6-.1.9-.1 1.8-.3 3.6-.8 5.2-1.5 2.4-1 4.6-2.2 6.5-3.6 1.3-1 2.6-2.2 3.8-3.4 1.2-1.3 3.2-1.3 4.4-.2.5.5.8 1.1 1 1.8.2.9-.1 1.9-.8 2.7-1.4 1.6-3 3-4.6 4.2-2.4 1.8-5 3.3-7.8 4.4-.5.2-.9.3-1.3.5-1.7.6-3.5 1.1-5.3 1.4-.1.2-.5.3-1 .3z"/><path id="Fill-30_1_" class="st16" d="M-78 376.1h-.4c-.6 0-1.1-.1-1.7-.3-.5-.2-1.1-.4-1.5-.7-.5-.3-.9-.7-1.3-1.1-.4-.4-.7-.9-.9-1.4-.2-.5-.4-1-.5-1.5-.1-.4-.1-.8-.1-1.2v-.4c0-.5.1-1 .3-1.6.2-.5.4-1 .7-1.4.3-.4.6-.8 1-1.2.4-.3.8-.6 1.3-.8.4-.2.9-.4 1.4-.5h.1c.3-.1.7-.1 1-.1h.4c.5 0 1 .1 1.4.3.4.2.9.4 1.3.6.4.3.7.6 1 .9.3.3.5.7.7 1.1.2.4.3.8.4 1.3.1.3.1.6.1.9v.4c0 .4-.1.9-.3 1.3-.1.4-.3.8-.6 1.1-.2.3-.5.7-.8.9-.3.3-.7.5-1 .7-.4.2-.7.3-1.1.4h-1.1c-.4 0-.8-.1-1.1-.3-.4-.1-.7-.3-1-.5-.3-.2-.6-.5-.8-.8l-.6-.9c-.1-.3-.2-.7-.3-1v-1c0-.3.1-.7.2-1 .1-.3.3-.6.5-.9.2-.3.4-.5.7-.7.2-.2.5-.4.8-.5.3-.1.6-.2.9-.2h.8c.3 0 .6.1.8.2.3.1.5.2.7.4l.6.6c.2.2.3.4.4.7.1.2.2.5.2.8v.7c0 .2-.1.5-.2.7-.1.2-.2.4-.4.6-.1.2-.3.3-.5.5l-.6.3c-.2.1-.4.1-.6.1h-.6c-.2 0-.4-.1-.6-.2-.2-.1-.3-.2-.5-.3-.1-.1-.2-.3-.3-.4-.1-.2-.2-.4-.2-.5-.1-.2-.1-.4-.1-.5 0-.2 0-.3.1-.5 0-.1.1-.3.2-.4l.3-.3c.1-.1.2-.2.4-.2.1 0 .3-.1.4-.1h.4c.1 0 .3.1.4.1.1.1.2.2.3.2.1.1.1.2.2.3v.4c0 .1-.1.3-.1.4l-.3.3c-.1.1-.2.1-.3.1-.3.1-.5 0-.7-.3v.1c0 .1 0 .1.1.2 0 .1.1.1.1.2.1.1.1.1.2.1s.2.1.2.1h.3c.1 0 .2 0 .3-.1.1 0 .2-.1.3-.1.1-.1.2-.2.3-.2.1-.1.2-.2.2-.3.1-.1.1-.3.1-.4v-.5c0-.2-.1-.3-.1-.4-.1-.1-.1-.3-.2-.4-.1-.1-.2-.3-.3-.4-.1-.1-.3-.2-.4-.3-.2-.1-.3-.1-.5-.1h-.6c-.2 0-.4.1-.6.2-.2.1-.4.2-.5.3-.2.1-.3.3-.4.5l-.3.6c-.1.2-.1.4-.2.7v.7c0 .2.1.5.2.7.1.2.2.4.4.6.2.2.4.4.6.5.2.2.5.3.7.4.3.1.5.2.8.2h.8c.3-.1.6-.1.8-.3.3-.1.5-.3.8-.5.2-.2.4-.4.6-.7.2-.3.3-.5.4-.8.1-.3.2-.6.2-.9v-.3c0-.2 0-.5-.1-.7-.1-.3-.2-.7-.3-1-.2-.3-.3-.6-.6-.9-.2-.3-.5-.5-.8-.7-.3-.2-.6-.4-1-.5-.4-.1-.7-.2-1.1-.2h-.3c-.3 0-.6 0-.8.1-.4.1-.8.2-1.1.4-.4.2-.7.4-1 .7-.3.3-.6.6-.8.9-.2.3-.4.7-.5 1.1-.1.4-.2.8-.2 1.2v.3c0 .3 0 .7.1 1 .1.4.2.8.4 1.2.2.4.4.8.7 1.1.3.3.6.6 1 .9.4.3.8.5 1.2.6.4.1.9.2 1.4.3h.3c.4 0 .7 0 1.1-.1.5-.1.9-.3 1.4-.5.3-.1.6-.3.9-.5.3-.2.7-.2.9.1.1.1.1.2.1.4s-.1.4-.2.5c-.3.3-.7.5-1.1.7-.5.3-1.1.5-1.7.6H-78"/><path id="Fill-30_2_" class="st16" d="M81.2 300.7c-.1-.1-.1-.2-.2-.3 0 0 0-.1-.1-.1-.4-.7-.6-1.5-.8-2.4-.1-.8-.2-1.6-.1-2.5.1-.8.2-1.6.5-2.4.3-.8.6-1.5 1.1-2.1.4-.6 1-1.2 1.6-1.8.4-.4.9-.7 1.4-1 .2-.1.3-.2.5-.3.7-.3 1.4-.6 2.1-.7.7-.1 1.5-.2 2.2-.1.7.1 1.4.2 2.1.5.7.2 1.3.6 1.9 1 .6.4 1.1.9 1.6 1.5v.1c.3.4.6.8.8 1.2.1.2.2.3.2.5.3.6.5 1.3.6 2 .1.7.1 1.4.1 2.1-.1.7-.2 1.3-.4 2-.2.6-.5 1.2-.9 1.8-.4.5-.8 1-1.3 1.4-.3.3-.7.5-1.1.8-.2.1-.3.2-.5.3-.6.3-1.2.4-1.8.5-.6.1-1.2.1-1.8.1-.6-.1-1.2-.2-1.7-.4s-1.1-.5-1.5-.8c-.5-.3-.9-.7-1.2-1.2-.1-.1-.1-.2-.2-.3-.1-.2-.3-.4-.4-.6-.1-.2-.2-.3-.3-.5-.2-.5-.4-1.1-.5-1.6-.1-.5-.1-1.1 0-1.6s.2-1.1.4-1.6.4-.9.8-1.4c.3-.4.7-.8 1.1-1.1.2-.2.5-.4.7-.5.2-.1.3-.2.5-.3.4-.2.9-.3 1.4-.4.5-.1.9-.1 1.4 0 .5.1.9.2 1.3.4s.8.4 1.2.7c.3.3.7.6.9 1 .1.1.1.2.2.3.1.1.1.2.2.3.1.1.1.2.1.3 0 .1.1.2.1.3.2.4.3.8.3 1.2v1.2l-.3 1.2c-.2.4-.4.7-.6 1-.2.3-.5.6-.8.8-.1.1-.2.2-.4.2l-.6.3c-.3.1-.7.2-1 .2-.3 0-.7 0-1-.1l-.9-.3c-.3-.1-.5-.3-.8-.5-.2-.2-.4-.4-.6-.7 0-.1-.1-.1-.1-.2l-.3-.6c-.1-.3-.1-.6-.1-.9 0-.3 0-.6.1-.8.1-.3.2-.5.3-.7.2-.3.3-.5.5-.6.2-.2.4-.3.5-.4.2-.1.4-.2.7-.2.2 0 .4-.1.7 0 .2 0 .4.1.6.1.2.1.4.2.5.3l.4.4s0 .1.1.1c0 .1.1.1.1.2s0 .1.1.2c.1.2.1.4.1.6 0 .2-.1.4-.1.5-.1.2-.2.4-.3.5-.1.1-.3.2-.3.2s-.1 0-.1.1c-.2.1-.4.1-.5.1-.2 0-.4-.1-.5-.2l-.3-.3c-.3-.3-.3-.7-.1-1-.1 0-.1.1-.2.1l-.2.2c0 .1-.1.2-.1.3v.3c0 .1 0 .3.1.4 0 .1 0 .1.1.2v.2l.3.3c.1.1.3.2.4.3.2.1.3.1.5.2h.5c.2 0 .4-.1.6-.1.1 0 .2-.1.3-.2.1 0 .1-.1.2-.1.2-.1.3-.3.5-.4.1-.2.3-.4.4-.6.1-.2.2-.5.2-.7v-.8c0-.3-.1-.5-.2-.8 0-.1-.1-.2-.1-.3v-.1c-.1-.1-.1-.2-.2-.4l-.6-.6c-.2-.2-.5-.3-.8-.4-.3-.1-.6-.2-.9-.2h-.9c-.3 0-.6.1-.9.3-.1.1-.2.1-.4.2s-.3.2-.5.3c-.3.2-.5.5-.7.8-.2.3-.4.6-.5 1-.1.4-.2.7-.3 1.1v1.2l.3 1.2c.1.1.1.3.2.4.1.2.3.4.4.6l.9.9c.4.3.7.5 1.1.6.4.2.8.3 1.3.3h1.3c.5-.1.9-.2 1.3-.4.1-.1.3-.1.4-.2.3-.2.6-.4.8-.6.4-.3.7-.7 1-1.1.3-.4.5-.9.7-1.3.2-.5.3-1 .3-1.5s0-1.1-.1-1.6-.3-1.1-.5-1.5c-.1-.1-.1-.3-.2-.4-.2-.4-.4-.7-.7-1-.4-.4-.8-.8-1.2-1.1-.5-.3-1-.6-1.5-.8-.5-.2-1.1-.3-1.7-.4-.6 0-1.2 0-1.8.1-.6.1-1.2.3-1.7.6-.1.1-.3.1-.4.2-.4.2-.8.5-1.1.8-.5.4-.9.9-1.2 1.4-.4.5-.7 1.1-.9 1.7-.2.6-.3 1.3-.4 1.9 0 .7 0 1.3.1 2s.3 1.3.6 1.9c0 .1.1.1.1.2s.1.2.1.2c.3.5.5.9.9 1.3.5.5 1 1 1.5 1.4.4.3.8.5 1.3.7.4.2.7.7.5 1.2-.1.2-.2.3-.4.4-.2.1-.5.2-.8 0-.5-.2-1.1-.5-1.6-.9-.7-.5-1.3-1.1-1.9-1.7-.1-.1-.2-.2-.2-.3-.4-1-.7-1.4-.9-1.9"/><path id="Fill-30_3_" class="st17" d="M120.1 371.6c.1-.2.2-.3.3-.5 0-.1.1-.1.1-.2.7-1 1.5-1.9 2.4-2.7.9-.8 1.9-1.4 3-2 1-.5 2.2-.9 3.3-1.1 1.1-.2 2.3-.3 3.4-.2 1.1.1 2.2.3 3.3.7.8.3 1.6.7 2.3 1.1.2.1.5.3.7.4.9.6 1.7 1.4 2.4 2.2.7.8 1.3 1.8 1.8 2.8.5 1 .8 2 1 3.1.2 1 .2 2.1.1 3.2-.1 1-.3 2.1-.7 3.1v.1c-.2.6-.5 1.3-.9 1.9-.1.2-.3.5-.4.7-.6.8-1.2 1.6-2 2.2-.7.6-1.6 1.2-2.5 1.6-.9.4-1.8.7-2.8.9-.9.2-1.9.2-2.8.1-.9-.1-1.8-.3-2.7-.6-.6-.2-1.2-.5-1.7-.8-.2-.1-.5-.3-.7-.5-.7-.5-1.4-1.2-2-1.9-.6-.7-1-1.5-1.4-2.3-.4-.8-.6-1.7-.7-2.5-.1-.8-.2-1.7-.1-2.6.1-.8.3-1.7.6-2.5.1-.2.1-.3.2-.5.1-.3.3-.7.5-1 .1-.2.3-.5.5-.7.5-.7 1-1.2 1.7-1.8.6-.5 1.3-.9 2-1.2.7-.3 1.4-.5 2.2-.6.7-.1 1.5-.1 2.3 0 .7.1 1.4.3 2.1.6l1.2.6c.2.1.5.3.7.5.6.4 1.1.9 1.5 1.5.4.5.8 1.2 1 1.8.3.6.4 1.3.5 2 .1.7.1 1.3 0 2-.1.6-.3 1.3-.5 1.9-.1.1-.1.3-.2.4-.1.1-.2.3-.2.4-.1.1-.2.3-.2.4-.1.1-.2.2-.2.3-.4.5-.8.9-1.3 1.3s-1 .6-1.5.9c-.5.2-1.1.3-1.7.4-.5.1-1.1 0-1.7 0-.5-.1-1.1-.3-1.5-.5l-.6-.3c-.3-.2-.5-.3-.8-.5-.4-.3-.7-.7-1-1.1-.3-.4-.5-.9-.7-1.3-.2-.4-.3-.9-.3-1.4 0-.5 0-.9.1-1.4.1-.4.2-.9.4-1.3 0-.1.1-.2.1-.3.2-.3.4-.5.6-.8.3-.3.6-.6 1-.8.3-.2.7-.4 1.1-.5.4-.1.7-.2 1.1-.2.5 0 .8.1 1.1.2.4.1.7.3.9.4.3.2.5.4.8.7.2.2.4.5.5.8l.3.9v.9c0 .3-.1.6-.3.8 0 .1-.1.1-.1.2-.1.1-.1.2-.2.3-.1.1-.1.2-.2.2-.2.2-.5.4-.6.5-.3.1-.5.2-.7.2h-.8c-.2-.1-.5-.2-.5-.2-.1 0-.1-.1-.2-.1-.2-.2-.4-.4-.5-.6-.1-.2-.2-.6-.2-.8 0-.2.1-.4.1-.6.2-.5.7-.9 1.2-.9-.1 0-.2-.1-.3-.1-.1 0-.3-.1-.4-.1-.1 0-.3 0-.4.1-.2 0-.3.1-.4.2-.1.1-.3.2-.4.3-.1.1-.1.2-.2.2l-.1.1s0 .1-.1.1c-.1.2-.2.4-.2.6 0 .2-.1.5 0 .7 0 .3.1.5.1.7.1.3.2.5.4.7.2.2.4.5.6.6.1.1.3.2.4.3.1.1.2.1.3.2l.9.3c.3.1.7.1 1 0 .3 0 .7-.1 1-.2.3-.1.7-.3.9-.5.3-.2.6-.5.8-.8.1-.1.2-.2.2-.4 0 0 0-.1.1-.1.1-.2.2-.4.3-.5.2-.4.3-.8.3-1.2.1-.4.1-.9 0-1.3s-.2-.9-.3-1.3c-.2-.4-.4-.8-.7-1.2-.3-.4-.6-.7-1-1-.2-.1-.3-.2-.5-.3-.3-.2-.5-.3-.8-.4-.5-.2-1-.3-1.5-.4-.5-.1-1.1-.1-1.6 0s-1.1.2-1.6.5c-.5.2-1 .5-1.4.9-.5.4-.9.8-1.2 1.3-.1.2-.2.3-.3.5-.2.3-.4.7-.5 1-.2.6-.4 1.2-.4 1.8-.1.6 0 1.3.1 1.9.1.7.3 1.3.6 1.9.3.6.6 1.2 1 1.7s.9 1 1.5 1.4c.2.1.3.2.5.3.4.3.9.5 1.3.6.7.3 1.4.4 2.1.5.7.1 1.5 0 2.2-.1.7-.1 1.4-.4 2.1-.7.7-.3 1.3-.7 1.9-1.2.6-.5 1.1-1.1 1.6-1.7.1-.2.2-.4.3-.5.3-.5.5-1 .7-1.6.3-.8.5-1.6.5-2.4.1-.8 0-1.7-.1-2.5-.2-.8-.4-1.7-.8-2.4-.4-.8-.8-1.5-1.4-2.2-.6-.7-1.2-1.3-1.9-1.8-.2-.1-.4-.2-.5-.4-.6-.4-1.2-.7-1.8-.9-.9-.3-1.8-.5-2.6-.6-.9-.1-1.9 0-2.7.1-.9.2-1.8.5-2.7.9-.9.4-1.7 1-2.4 1.6-.7.6-1.4 1.4-1.9 2.2 0 .1-.1.1-.1.2-.1.1-.1.2-.2.3-.4.7-.7 1.4-1 2.1-.3 1-.5 2-.6 3v2.2c.1.7-.4 1.4-1.1 1.5-.3 0-.6 0-.8-.2-.3-.2-.6-.6-.6-1-.1-.9-.1-1.8-.1-2.6.1-1.2.3-2.5.7-3.7.1-.2.1-.3.2-.5 0-.7.4-1.4.7-2.1"/><g id="Group-9"><g id="Group-3"><g id="Group_2_"><path id="Fill-2" class="st18" d="M128.585 510.973c0 4.3-37.7 7.8-84.1 7.8-46.5 0-84.1-3.5-84.1-7.8s37.7-7.8 84.1-7.8c46.5 0 84.1 3.5 84.1 7.8"/><path id="Fill-164" class="st19" d="M-7.815 391.473s-25-26.9-39.2-4c-14.2 22.9 10.7 39.6 17.9 13.2 5.3-19.2 14.2 1.5 14.2 1.5"/><path id="Fill-165" class="st19" d="M96.785 391.473s25-26.9 39.2-4c14.2 22.9-10.7 39.6-17.9 13.2-5.3-19.2-14.2 1.5-14.2 1.5"/><path id="Fill-166" class="st19" d="M38.585 361.173s1-9.3 12.8-14.3c0 0-11.8 7.5-6.4 15.2"/><path id="Fill-167" class="st19" d="M36.585 365.073s1.7-10.3-6.5-18.1c0 0 7.5 10.5 1.1 17.8"/><path id="Fill-168" class="st19" d="M41.785 358.373s5.8-8.6 17-8.4c0 0-12.6 2.2-12.9 12"/><path id="Fill-169" class="st19" d="M39.985 356.873s4.9-9.1-.2-19.3c0 0 3.7 12.5-4.7 17.2"/><path id="Fill-170" class="st19" d="M17.085 481.973s5.9 18.7 2.6 22c-3.3 3.3-13.2.7-11.8 4 2 4.7 9.9 3.3 17.3 3.3 6.2 0 2.9-32.7 2.9-32.7l-11 3.4"/><path id="Fill-171" class="st19" d="M71.885 482.173s-5.9 18.7-2.6 22c3.3 3.3 13.2.7 11.8 4-2 4.7-9.9 3.3-17.3 3.3-6.2 0-2.9-32.7-2.9-32.7l11 3.4"/><path id="Fill-172" class="st19" d="M2.485 442.873c-5.7 27.6 2.9 53.3-24 53-26.9-.2-20.3 15.8-3 15.8s38.2-7.3 28.8-63l-1.8-5.8"/><path id="Fill-173" class="st19" d="M86.585 442.873c5.7 27.6-2.9 53.3 24 53s20.3 15.8 3 15.8-38.2-7.3-28.8-63l1.8-5.8"/><path id="Fill-174" class="st20" d="M44.485 498.373c32.2 0 62.2-57.4 62.2-92.4 0-36.6-31.9-51.5-62.2-51.5s-62.2 14.9-62.2 51.5c0 34.9 30 92.4 62.2 92.4"/><path id="Fill-175" class="st21" d="M22.885 457.373c-4.3 0-7.9-1.8-7.9-4s3.5-4 7.9-4c4.3 0 7.9 1.8 7.9 4s-3.6 4-7.9 4"/><path id="Fill-176" class="st21" d="M66.085 457.373c-4.3 0-7.9-1.8-7.9-4s3.5-4 7.9-4c4.3 0 7.9 1.8 7.9 4s-3.5 4-7.9 4"/><path id="Fill-179" class="st22" d="M16.385 429.273l10.2-4.5c.6-.3.9-1 .6-1.6-.3-.6-1-.9-1.6-.6l-10.2 4.5c-.6.3-.9 1-.6 1.6s.9.9 1.6.6"/><path id="Fill-180" class="st22" d="M73.685 427.473l-10.1-5c-.6-.3-1.3 0-1.6.6-.3.6 0 1.4.6 1.7l10.1 5c.6.3 1.3 0 1.6-.6.3-.7 0-1.4-.6-1.7"/><path id="Fill-181" class="st22" d="M52.485 469.373c0-5-2.7-8.9-7.9-8.9-4.6 0-8 3.6-8 8.8"/><path id="Fill-182" class="st23" d="M44.385 466.573c-2.4 0-4.4 1-5.9 2.7h11.9c-1.3-1.6-3.3-2.7-6-2.7"/><path id="Fill-183" class="st24" d="M65.985 406.873c0 4.3-3.4 7.8-7.7 7.8s-7.7-3.5-7.7-7.8 7.7-14.9 7.7-14.9 7.7 10.6 7.7 14.9"/></g></g><g id="Group-7"><path id="Fill-69" class="st25" d="M31.507 445.562c0 4.6-3.7 8.3-8.2 8.3-4.5 0-8.2-3.7-8.2-8.3 0-4.6 3.7-8.3 8.2-8.3 4.6 0 8.2 3.7 8.2 8.3"/><path id="Fill-70" class="st22" d="M28.107 448.162c0 2.5-2 4.6-4.5 4.6s-4.5-2.1-4.5-4.6c0-2.5 2-4.6 4.5-4.6s4.5 2 4.5 4.6"/></g><path id="Fill-69_1_" class="st25" d="M73.885 445.573c0 4.6-3.7 8.3-8.2 8.3-4.5 0-8.2-3.7-8.2-8.3 0-4.6 3.7-8.3 8.2-8.3 4.6 0 8.2 3.7 8.2 8.3"/><path id="Fill-70_1_" class="st22" d="M70.485 448.173c0 2.5-2 4.6-4.5 4.6s-4.5-2.1-4.5-4.6c0-2.5 2-4.6 4.5-4.6 2.4 0 4.5 2 4.5 4.6"/></g></g></g></g></g></svg>