<svg id="Layer_1" xmlns="http://www.w3.org/2000/svg" viewBox="-270 340 71 114"><style>.st0{fill:#35a7c0}.st1{fill:#3cbbd6}.st2{fill:#5a4151}.st3{fill:#fff}.st4{fill:#c44676}</style><title>Group 8</title><g id="Page-1"><g id="Guided-Meditations-Detail"><g id="Group-8"><g id="Group-2"><g id="Group"><path id="Fill-184" class="st0" d="M-262.3 382.406s-26.4 62.3 18.9 71.3c17 2.6 24.7-15.8-12.4-23-19.1-5-3.6-36.3-3.6-36.3"/><path id="Fill-184_1_" class="st0" d="M-206.7 382.406s26.4 62.3-18.9 71.3c-17 2.6-24.7-15.8 12.4-23 19.1-5 3.6-36.3 3.6-36.3"/></g><path id="Fill-189" class="st1" d="M-213.2 421.9c7.8-6.1 12.8-15.6 12.8-27.3 0-20.4-15.4-40.8-34.4-40.8s-34.4 20.4-34.4 40.8c0 11.7 5 21.2 12.8 27.3h43.2z"/><path id="Fill-190" class="st0" d="M-246.8 392.3c-2.3 0-4.2-1.1-4.2-2.5s1.9-2.5 4.2-2.5 4.2 1.1 4.2 2.5-1.9 2.5-4.2 2.5"/><path id="Fill-191" class="st0" d="M-223.6 392.3c-2.3 0-4.2-1.1-4.2-2.5s1.9-2.5 4.2-2.5 4.2 1.1 4.2 2.5-1.9 2.5-4.2 2.5"/><path id="Fill-194" class="st2" d="M-251.9 367.9l5.9-.6c.4 0 .7-.4.6-.9 0-.4-.4-.8-.7-.7l-5.9.6c-.4 0-.7.4-.6.9 0 .4.3.7.7.7"/><path id="Fill-195" class="st2" d="M-218.4 366.5l-5.9-.9c-.4-.1-.7.3-.8.7 0 .4.2.8.6.9l5.9.9c.4.1.7-.3.8-.7 0-.4-.3-.8-.6-.9"/><path id="Fill-196" class="st3" d="M-240.7 383.7c0 3.5-2.4 6.3-5.3 6.3s-5.3-2.8-5.3-6.3 2.4-6.3 5.3-6.3c3 0 5.3 2.9 5.3 6.3"/><path id="Fill-197" class="st2" d="M-242.9 381.6c0 2-1.4 3.7-3.1 3.7s-3.1-1.7-3.1-3.7 1.4-3.7 3.1-3.7 3.1 1.7 3.1 3.7"/><path id="Fill-198" class="st3" d="M-244 379c0 .6-.4 1.1-.9 1.1s-.9-.5-.9-1.1c0-.6.4-1.1.9-1.1s.9.5.9 1.1"/><path id="Fill-199" class="st3" d="M-219.1 383.7c0 3.5-2.4 6.3-5.3 6.3s-5.3-2.8-5.3-6.3 2.4-6.3 5.3-6.3 5.3 2.9 5.3 6.3"/><path id="Fill-200" class="st2" d="M-221.3 381.6c0 2-1.4 3.7-3.1 3.7-1.7 0-3.1-1.7-3.1-3.7s1.4-3.7 3.1-3.7c1.7 0 3.1 1.7 3.1 3.7"/><path id="Fill-201" class="st3" d="M-222.5 379c0 .6-.4 1.1-.9 1.1s-.9-.5-.9-1.1c0-.6.4-1.1.9-1.1s.9.5.9 1.1"/><path id="Fill-202" class="st2" d="M-221.4 392.6c0 8.4-6.4 14.2-14.2 14.2s-14.2-5.8-14.2-14.2"/><path id="Fill-203" class="st4" d="M-226.8 404c-2.4-1.8-5.5-2.9-8.8-2.9-3.3 0-6.4 1-8.8 2.9 2.4 1.8 5.5 2.9 8.8 2.9 3.3 0 6.4-1.1 8.8-2.9"/><path id="Fill-204" class="st1" d="M-235.2 361.2s-.1-.3-.2-.8-.3-1.2-.4-2c-.1-.8-.2-1.8-.3-2.8 0-.5-.1-1.1-.1-1.6v-3.2c0-.5 0-1.1.1-1.6.1-1 .2-2 .3-2.8.1-.8.3-1.5.4-2 .1-.5.2-.8.2-.8s.1.3.2.8.3 1.2.4 2c.1.8.2 1.8.3 2.8 0 .5.1 1.1.1 1.6v3.2c0 .5 0 1.1-.1 1.6-.1 1-.2 2-.3 2.8-.1.8-.3 1.5-.4 2s-.2.8-.2.8"/><path id="Fill-205" class="st1" d="M-230.8 346.2h-.5c0 1.3-.4 2.4-1.1 3.2-.7.8-1.7 1.3-2.7 1.3-1.1 0-2-.5-2.7-1.3-.7-.8-1.1-2-1.1-3.2 0-1.3.4-2.4 1.1-3.2.7-.8 1.7-1.3 2.7-1.3 1.1 0 2 .5 2.7 1.3.7.8 1.1 2 1.1 3.2h1.1c0-3.2-2.2-5.8-4.9-5.8s-4.9 2.6-4.9 5.8c0 3.2 2.2 5.8 4.9 5.8s4.9-2.6 4.9-5.8h-.6"/></g></g></g></g></svg>