<svg id="Layer_1" xmlns="http://www.w3.org/2000/svg" viewBox="-240 316 131 162"><style>.st0{fill:#e36957}.st1{fill:#5a4151}.st2{fill:#ea8d5f}.st3{fill:#fff}.st4{fill:#cb7e59}.st5{fill:#c44676}.st6{fill:#523d4b}.st7{fill:#c66253}</style><title>Group 3</title><g id="Page-1"><g id="Guided-Meditations-Detail"><g id="Group-3"><path id="Fill-94" class="st0" d="M-136.4 417.9h-76.3c-1.5 0-2.6-1.2-2.6-2.6v-83.4c0-8.7 7.1-15.8 15.8-15.8h50.1c8.7 0 15.8 7.1 15.8 15.8v83.4c-.2 1.4-1.3 2.6-2.8 2.6"/><path id="Fill-95" class="st1" d="M-136.4 459.4h-76.3c-1.5 0-2.6-1.2-2.6-2.6v-83.4c0-8.7 7.1-15.8 15.8-15.8h50.1c8.7 0 15.8 7.1 15.8 15.8v83.4c-.2 1.4-1.3 2.6-2.8 2.6"/><path id="Fill-96" class="st1" d="M-195.3 330.7l7.4-.6c.6 0 1-.6 1-1.1 0-.6-.6-1-1.1-1l-7.4.6c-.6 0-1 .6-1 1.1 0 .6.5 1 1.1 1"/><path id="Fill-97" class="st1" d="M-153.6 328.9l-7.4-1c-.6-.1-1.1.3-1.2.9-.1.6.3 1.1.9 1.2l7.4 1c.6.1 1.1-.3 1.2-.9.1-.6-.3-1.2-.9-1.2"/><path id="Fill-98" class="st2" d="M-195.3 370.8l7.4-.6c.6 0 1-.6 1-1.1 0-.6-.6-1-1.1-1l-7.4.6c-.6 0-1 .6-1 1.1 0 .7.5 1.1 1.1 1"/><path id="Fill-99" class="st2" d="M-153.6 369l-7.4-1c-.6-.1-1.1.3-1.2.9-.1.6.3 1.1.9 1.2l7.4 1c.6.1 1.1-.3 1.2-.9.1-.6-.3-1.1-.9-1.2"/><path id="Fill-100" class="st3" d="M-169.6 391.3c0 1.2-.5 2.2-1.2 3-.8.8-1.8 1.2-3 1.2-.5 0-.9.4-.9.9s.4.9.9.9c3.3 0 5.9-2.7 5.9-5.9 0-.5-.4-.9-.9-.9-.4-.1-.8.3-.8.8"/><path id="Fill-101" class="st1" d="M-212.4 392.9s-16.3-1.5-24.7 15.1c-8.4 16.6 8.6 22.4 12.4 7.1 3.7-15.3 13.5-11.3 13.5-11.3l-1.2-10.9"/><path id="Fill-102" class="st2" d="M-215.3 470.4v-55.6c0-8.7 7.1-15.8 15.8-15.8h50.1c8.7 0 15.8 7.1 15.8 15.8v55.6h-81.7z"/><path id="Fill-107" class="st4" d="M-192.5 445.5c-3.6 0-6.5-1.5-6.5-3.3s2.9-3.3 6.5-3.3 6.5 1.5 6.5 3.3-2.9 3.3-6.5 3.3"/><path id="Fill-108" class="st4" d="M-156.6 445.5c-3.6 0-6.5-1.5-6.5-3.3s2.9-3.3 6.5-3.3 6.5 1.5 6.5 3.3-2.9 3.3-6.5 3.3"/><path id="Fill-109" class="st3" d="M-192.5 442.4c-2.4 0-4.4-2-4.4-4.4v-4.5c0-2.4 2-4.4 4.4-4.4 2.4 0 4.4 2 4.4 4.4v4.5c0 2.4-1.9 4.4-4.4 4.4"/><path id="Fill-110" class="st3" d="M-156.6 442.4c-2.4 0-4.4-2-4.4-4.4v-4.5c0-2.4 2-4.4 4.4-4.4s4.4 2 4.4 4.4v4.5c0 2.4-2 4.4-4.4 4.4"/><path id="Fill-111" class="st1" d="M-189.6 432.2c0 1.6-1.3 2.9-2.9 2.9-1.6 0-2.9-1.3-2.9-2.9s1.3-2.9 2.9-2.9c1.6 0 2.9 1.3 2.9 2.9"/><path id="Fill-112" class="st1" d="M-153.7 432.2c0 1.6-1.3 2.9-2.9 2.9s-2.9-1.3-2.9-2.9 1.3-2.9 2.9-2.9 2.9 1.3 2.9 2.9"/><path id="Fill-113" class="st1" d="M-160.8 447.7c0 5.7-6.2 10.3-13.8 10.3-7.6 0-13.8-4.6-13.8-10.3"/><path id="Fill-114" class="st5" d="M-165.3 455.3c-2.4-1.7-5.7-2.7-9.3-2.7-3.6 0-6.8 1-9.3 2.7 2.4 1.7 5.7 2.7 9.3 2.7 3.6 0 6.9-1 9.3-2.7"/><path id="Fill-115" class="st6" d="M-189.8 399.1h-5.4c-2.2-.5-3.8-1.7-3.8-3 0-1.8 2.9-3.3 6.5-3.3s6.5 1.5 6.5 3.3c0 1.3-1.5 2.4-3.8 3"/><path id="Fill-116" class="st4" d="M-192.5 399.4c-1 0-1.9-.1-2.7-.3h5.4c-.8.1-1.7.3-2.7.3"/><path id="Fill-117" class="st6" d="M-153.9 399.1h-5.4c-2.2-.5-3.8-1.7-3.8-3 0-1.8 2.9-3.3 6.5-3.3s6.5 1.5 6.5 3.3c0 1.3-1.5 2.4-3.8 3"/><path id="Fill-118" class="st4" d="M-156.6 399.4c-1 0-1.9-.1-2.7-.3h5.4c-.8.1-1.7.3-2.7.3"/><path id="Fill-119" class="st3" d="M-192.5 396.3c-2.4 0-4.4-2-4.4-4.4v-4.5c0-2.4 2-4.4 4.4-4.4 2.4 0 4.4 2 4.4 4.4v4.5c0 2.4-1.9 4.4-4.4 4.4"/><path id="Fill-120" class="st3" d="M-156.6 396.3c-2.4 0-4.4-2-4.4-4.4v-4.5c0-2.4 2-4.4 4.4-4.4s4.4 2 4.4 4.4v4.5c0 2.4-2 4.4-4.4 4.4"/><path id="Fill-121" class="st1" d="M-189.6 392.5c0 1.6-1.3 2.9-2.9 2.9-1.6 0-2.9-1.3-2.9-2.9 0-1.6 1.3-2.9 2.9-2.9 1.6 0 2.9 1.3 2.9 2.9"/><path id="Fill-122" class="st1" d="M-153.7 392.5c0 1.6-1.3 2.9-2.9 2.9s-2.9-1.3-2.9-2.9c0-1.6 1.3-2.9 2.9-2.9s2.9 1.3 2.9 2.9"/><path id="Fill-123" class="st7" d="M-192.5 356.6c-3.6 0-6.5-1.5-6.5-3.3 0-1.8 2.9-3.3 6.5-3.3s6.5 1.5 6.5 3.3c0 1.9-2.9 3.3-6.5 3.3"/><path id="Fill-124" class="st7" d="M-156.6 356.6c-3.6 0-6.5-1.5-6.5-3.3 0-1.8 2.9-3.3 6.5-3.3s6.5 1.5 6.5 3.3c0 1.9-2.9 3.3-6.5 3.3"/><path id="Fill-125" class="st1" d="M-196.1 349.1v-4.5c0-1 .4-1.9 1.1-2.5.7-.7 1.6-1.1 2.5-1.1 1 0 1.9.4 2.5 1.1.7.7 1.1 1.6 1.1 2.5v4.5h1.6v-4.5c0-2.9-2.4-5.2-5.2-5.2-2.9 0-5.2 2.4-5.2 5.2v4.5h1.6"/><path id="Fill-126" class="st1" d="M-160.2 349.1v-4.5c0-1 .4-1.9 1.1-2.5.7-.7 1.6-1.1 2.5-1.1 1 0 1.9.4 2.5 1.1.7.7 1.1 1.6 1.1 2.5v4.5h1.6v-4.5c0-2.9-2.4-5.2-5.2-5.2-2.9 0-5.2 2.4-5.2 5.2v4.5h1.6"/><path id="Fill-127" class="st2" d="M-212.4 446.7s-16.3-1.5-24.7 15.1c-8.4 16.6 8.6 22.4 12.4 7.1 3.7-15.3 13.5-11.3 13.5-11.3l-1.2-10.9"/><path id="Fill-128" class="st2" d="M-136.7 446.7s16.3-1.5 24.7 15.1c8.4 16.6-8.6 22.4-12.4 7.1-3.7-15.3-13.5-11.3-13.5-11.3l1.2-10.9"/><path id="Fill-129" class="st1" d="M-133.8 392.9s11.8 11.3 4.8 28.6c-7 17.2-22.6 8.2-13.5-4.7 9.1-12.9-.3-17.6-.3-17.6l9-6.3"/><path id="Fill-130" class="st0" d="M-214.6 350.1s-11.3 11.9-3.6 28.8c7.7 16.9 22.9 7.2 13.2-5.3s-.5-17.6-.5-17.6l-9.1-5.9"/><path id="Fill-131" class="st0" d="M-136.7 359.6s16.3 1.5 24.7-15.1-8.6-22.4-12.4-7.1c-3.7 15.3-13.5 11.3-13.5 11.3l1.2 10.9"/><path id="Fill-132" class="st3" d="M-169.9 392.1h2.9c.5 0 .8-.4.8-.8 0-.5-.4-.8-.8-.8h-2.9c-.5 0-.8.4-.8.8s.4.8.8.8"/><path id="Fill-133" class="st1" d="M-177.2 344.6c-.3.5-.6 1.1-.6 1.8 0 1.8 1.4 3.2 3.2 3.2 1.8 0 3.2-1.4 3.2-3.2 0-.7-.2-1.3-.6-1.8h-5.2"/><path id="Fill-134" class="st1" d="M-195.3 417.5l7.4-.6c.6 0 1-.6 1-1.1 0-.6-.6-1-1.1-1l-7.4.6c-.6 0-1 .6-1 1.1 0 .6.5 1.1 1.1 1"/><path id="Fill-135" class="st1" d="M-153.6 415.7l-7.4-1c-.6-.1-1.1.3-1.2.9-.1.6.3 1.1.9 1.2l7.4 1c.6.1 1.1-.3 1.2-.9.1-.6-.3-1.1-.9-1.2"/></g></g></g></svg>