<svg id="Layer_1" xmlns="http://www.w3.org/2000/svg" viewBox="-130 277 350 240"><style>.st0{fill:#bfbfd9}.st1{fill:#a093bd}.st2{opacity:.2}.st3{fill:none;stroke:#7574a2;stroke-width:2.9752}.st4{fill:#8c7ea8}.st5{fill:#7f6891}.st6{fill:#a5dce8}.st7{opacity:.5;fill:#fff;enable-background:new}.st8{opacity:.82;fill:#bce0e8}.st8,.st9{enable-background:new}.st9{opacity:.83;fill:#cce3e8}.st10{opacity:.85;fill:#6a6a8a}.st10,.st11{enable-background:new}.st11{opacity:.5;fill:#a093bd}.st12{fill:#db5176}.st13{fill-opacity:.1}.st14{fill:#9190c9}.st15{fill:#8177ac}.st16{fill:#fff}.st17{fill:#5a4151}.st18{fill:#463341}.st19{fill:#c44676}.st20{fill:#a9a8bc}.st21{fill:#fff;fill-opacity:.2}.st22{fill:#fff;fill-opacity:.1}</style><title>Group 3</title><g id="Page-1"><g id="The-Science-Anxiety"><g id="Group-3"><path id="Shape" class="st0" d="M-129.7 471.9h349.3l-20.8-33.8-20.2 21.5-34.5-54-23.4 37.7-128.1-82.6-67 83.3-18.2-18.9-37.1 46.8z"/><path id="Shape_1_" class="st1" d="M-111.5 471.9l52.7-70.9 38.1 40 10.4-11.4 14.6 15.6 35.5-36.4 98.6 63.1h-249.9z"/><g id="Group" class="st2"><path id="Shape_2_" class="st3" d="M28.17 324.21c.4-.5.3-.9-.3-1l-13.2-3.2c-.6-.1-.9.2-.8.8l2 6.5c.2.6 0 1.4-.5 1.8l-4.7 4.9c-.4.5-.3.9.3 1l13.2 3.2c.6.1.9-.2.8-.8l-2-6.5c-.2-.6 0-1.4.5-1.8l4.7-4.9z"/></g><path id="Shape_3_" class="st4" d="M84.4 471.9l35.8-55.9 35.8 44.9 8.5-8.5 7.2 8.5 7.8-8.5 7.2 8.5 7.8-7.8 11.1 18.9H84.4z"/><path id="Shape_4_" class="st5" d="M208.4 471.9l-3.6-2.4-6.4-3.9-6.4 3.9-6.4-3.9-6.4 3.9-6.3-3.9-6.4 3.9-6.4-3.9-6.4 3.9-6.4-3.9-6.4 3.9-6.4-3.9-6.3 3.9-6.4-3.9-6.4 3.9-6.4-3.9-6.4 3.9-6.3-3.9-6.4 3.9-6.4-3.9-6.4 3.9-6.4-3.9-6.3 3.9-6.4-3.9-6.4 3.9-6.4-3.9-6.4 3.9-6.4-3.9-6.3 3.9-6.4-3.9-6.4 3.9-6.4-3.9-6.4 3.9-6.3-3.9-6.4 3.9-6.4-3.9-6.4 3.9-6.4-3.9-6.3 3.9-6.4-3.9-6.4 3.9-6.4-3.9-6.4 3.9-6.3-3.9-6.4 3.9-6.4-3.9-6.4 3.9-6.4-3.9-6.3 3.9-6.4-3.9-6.4 3.9-6.4-3.9-6.4 3.9-3.4 2.3 3.1.1h335.8z"/><path id="Shape_5_" class="st0" d="M-59 425.4l-6.6 9.4-6.6-9.4 6.6-9.4 6.6 9.4z"/><path id="Shape_6_" class="st6" d="M-42.8 434.5l-4.6 6.5-4.6-6.5 4.6-6.5 4.6 6.5z"/><path id="Shape_7_" class="st7" d="M-23.3 411.4l-4.6 6.5-4.6-6.5 4.6-6.5 4.6 6.5z"/><path id="Shape_8_" class="st7" d="M145.1 421.5l-2.5 3.6-2.5-3.6 2.5-3.6 2.5 3.6z"/><path id="Shape_9_" class="st8" d="M83.3 448.2l-2.5 3.6-2.5-3.6 2.5-3.6 2.5 3.6z"/><path id="Shape_10_" class="st7" d="M-12 457.3l-2.5 3.6-2.5-3.6 2.5-3.6 2.5 3.6z"/><path id="Shape_11_" class="st7" d="M123 457.3l-2.5 3.6-2.5-3.6 2.5-3.6 2.5 3.6z"/><path id="Shape_12_" class="st7" d="M-15.6 399.4l-2.5 3.6-2.5-3.6 2.5-3.6 2.5 3.6z"/><path id="Shape_13_" class="st9" d="M-93 438.8l-2.5 3.6-2.5-3.6 2.5-3.6 2.5 3.6z"/><path id="Shape_14_" class="st10" d="M119.5 441l-4.6 6.5-4.6-6.5 4.6-6.5 4.6 6.5z"/><path id="Shape_15_" class="st6" d="M160.1 439.7l-4.6 6.5-4.6-6.5 4.6-6.5 4.6 6.5z"/><path id="Shape_16_" class="st11" d="M-5.8 417.5l-5.8 8.3-5.8-8.3 5.8-8.3 5.8 8.3z"/><path id="Shape_17_" class="st0" d="M-67.7 449.2l-6.6 9.4-6.6-9.4 6.6-9.4 6.6 9.4z"/><path id="Shape_18_" class="st0" d="M135.6 444.3l-6.6 9.4-6.6-9.4 6.6-9.4 6.6 9.4z"/><path id="Shape_19_" class="st4" d="M-52.1 434.9l-6.6 9.4-6.6-9.4 6.6-9.4 6.6 9.4z"/><g id="Group_1_"><path id="Rectangle-path" class="st1" d="M-57.488 327.764l2.9-2.9 8.9 8.9-2.9 2.9-8.9-8.9z"/><path id="Rectangle-path_1_" class="st1" d="M-48.588 324.864l2.9 2.9-8.9 8.9-2.9-2.9 8.9-8.9z"/></g><g id="Group_2_"><path id="Rectangle-path_2_" class="st4" d="M72.423 312l3.6-3.6 11.2 11.2-3.6 3.6-11.2-11.2z"/><path id="Rectangle-path_3_" class="st4" d="M83.623 308.4l3.6 3.6-11.2 11.2-3.6-3.6 11.2-11.2z"/></g><g id="Group_3_"><path id="Rectangle-path_4_" class="st12" d="M131.624 352.133l4.6-4.6 14.5 14.5-4.6 4.6-14.5-14.5z"/><path id="Rectangle-path_5_" class="st12" d="M146.124 347.433l4.6 4.6-14.5 14.5-4.6-4.6 14.5-14.5z"/></g><g id="Group_4_"><path id="Rectangle-path_6_" class="st12" d="M-31.466 382.06l2.3-2.3 7.3 7.3-2.3 2.3-7.3-7.3z"/><path id="Rectangle-path_7_" class="st12" d="M-24.266 379.76l2.3 2.3-7.3 7.3-2.3-2.3 7.3-7.3z"/></g><g id="Group_5_"><path id="Rectangle-path_8_" class="st0" d="M-91.517 364.847l1.7-1.7 5.3 5.3-1.7 1.7-5.3-5.3z"/><path id="Rectangle-path_9_" class="st0" d="M-86.317 363.047l1.7 1.7-5.3 5.3-1.7-1.7 5.3-5.3z"/></g><g id="Group_6_"><path id="Rectangle-path_10_" class="st0" d="M164.152 394.122l1.7-1.7 5.3 5.3-1.7 1.7-5.3-5.3z"/><path id="Rectangle-path_11_" class="st0" d="M169.352 392.322l1.7 1.7-5.3 5.3-1.7-1.7 5.3-5.3z"/></g><g id="Group-4"><path id="Fill-3" class="st13" d="M47.298 516.917c-36.7 0-66.5-3.5-66.5-7.8s29.8-7.8 66.5-7.8 66.5 3.5 66.5 7.8c.1 4.3-29.7 7.8-66.5 7.8z"/><path id="Fill-57" class="st14" d="M12.398 386.917c0 7.4-6 13.4-13.4 13.4s-13.4-6-13.4-13.4 6-13.4 13.4-13.4 13.4 6 13.4 13.4"/><path id="Fill-58" class="st15" d="M-6.902 394.117c3.7-4.9 8.1-9.4 13-13.1-1.7-2-4.2-3.3-7.1-3.3-5.1 0-9.3 4.1-9.3 9.3.1 2.8 1.4 5.4 3.4 7.1"/><path id="Fill-59" class="st14" d="M82.398 386.917c0 7.4 6 13.4 13.4 13.4s13.4-6 13.4-13.4-6-13.4-13.4-13.4-13.4 6-13.4 13.4"/><path id="Fill-60" class="st15" d="M101.698 394.117c-3.7-4.9-8.1-9.4-13-13.1 1.7-2 4.2-3.3 7.1-3.3 5.1 0 9.3 4.1 9.3 9.3 0 2.8-1.3 5.4-3.4 7.1"/><path id="Fill-61" class="st15" d="M2.098 445.217c-4.8 14.4-12.1 24.6-22.5 29-10.4 4.4-9.9 15 .7 14.5s27.4-11.5 28.8-44.5"/><path id="Fill-62" class="st15" d="M92.698 445.217c4.8 14.4 12.1 24.6 22.5 29 10.4 4.4 9.9 15-.7 14.5s-27.4-11.5-28.8-44.5"/><path id="Fill-63" class="st15" d="M16.698 477.317s-6.1 13.2-2.5 27.5c-5.6 1-8.2 4.1-5.1 4.1h10.7c4.1 0 1-16.3 9.7-15.8s-12.8-15.8-12.8-15.8"/><path id="Fill-64" class="st15" d="M78.098 477.317s6.1 13.2 2.5 27.5c5.6 1 8.2 4.1 5.1 4.1h-10.7c-4.1 0-1-16.3-9.7-15.8s12.8-15.8 12.8-15.8"/><path id="Fill-65" class="st14" d="M80.098 483.217c-16.8 21.6-49.4 21.6-66.2 0l-26.2-33.7c-13-16.7-11.5-40.4 3.5-55.4l27.1-27.1c16.4-16.4 42.9-16.4 59.3 0l26.1 26.1c15 15 16.4 38.7 3.4 55.4l-27 34.7z"/><path id="Fill-66" class="st15" d="M25.598 446.517c-4.5 0-8.2-1.8-8.2-4.1s3.7-4.1 8.2-4.1c4.5 0 8.2 1.8 8.2 4.1s-3.6 4.1-8.2 4.1"/><path id="Fill-67" class="st15" d="M69.198 446.517c-4.5 0-8.2-1.8-8.2-4.1s3.7-4.1 8.2-4.1c4.5 0 8.2 1.8 8.2 4.1s-3.7 4.1-8.2 4.1"/><path id="Fill-68" class="st16" d="M38.298 429.417c0 6.7-5.5 12.2-12.2 12.2-6.7 0-12.2-5.5-12.2-12.2 0-6.8 5.5-12.2 12.2-12.2 6.7 0 12.2 5.5 12.2 12.2"/><path id="Fill-69" class="st16" d="M80.998 429.417c0 6.7-5.5 12.2-12.2 12.2-6.7 0-12.2-5.5-12.2-12.2 0-6.8 5.5-12.2 12.2-12.2 6.8 0 12.2 5.5 12.2 12.2"/><path id="Fill-70" class="st17" d="M75.398 429.417c0 3.6-2.9 6.5-6.5 6.5s-6.5-2.9-6.5-6.5 2.9-6.5 6.5-6.5c3.5 0 6.5 2.9 6.5 6.5"/><path id="Fill-71" class="st17" d="M32.798 429.417a6.7 6.7 0 1 1-13.4 0 6.7 6.7 0 0 1 13.4 0"/><path id="Fill-72" class="st17" d="M61.998 452.117c0 8.1-6.5 14.6-14.6 14.6s-14.6-6.5-14.6-14.6 6.5-14.6 14.6-14.6c8.1-.1 14.6 6.5 14.6 14.6"/><path id="Fill-73" class="st18" d="M54.598 455.217c0 4-3.2 7.2-7.2 7.2s-7.2-3.2-7.2-7.2 3.2-7.2 7.2-7.2 7.2 3.2 7.2 7.2"/><path id="Fill-74" class="st19" d="M47.398 456.617c-4.4 0-8.3 1.9-11 5 2.7 3.1 6.6 5 11 5s8.3-1.9 11-5c-2.6-3-6.6-5-11-5"/><path id="Fill-75" class="st16" d="M14.998 399.617l6.6-2.1c1.2-.4 1.9-1.7 1.5-3-.4-1.2-1.7-1.9-3-1.5l-6.6 2.1c-1.2.4-1.9 1.7-1.5 3 .5 1.2 1.8 1.9 3 1.5"/><path id="Fill-76" class="st16" d="M81.398 395.417l-6.6-2.4c-1.2-.5-2.6.2-3 1.4-.5 1.2.2 2.6 1.4 3l6.6 2.4c1.2.5 2.6-.2 3-1.4.4-1.2-.2-2.6-1.4-3"/><path id="Fill-77" class="st17" d="M48.698 450.517c0 2-.6 2.7-1.2 2.7-.7 0-1.2-.7-1.2-2.7s1.2-5.2 1.2-5.2 1.2 3.2 1.2 5.2"/><path id="Fill-78" class="st14" d="M46.298 362.117s1-12.5 13-17.4c0 0-12 10.6-6.5 18.3"/><path id="Fill-79" class="st14" d="M44.298 366.017s3.1-15.1-8.1-21.2c0 0 9.3 11.9 1.9 20.9"/><path id="Fill-80" class="st14" d="M49.598 359.417s5.9-10.9 17.3-10.8c0 0-12.8 4.6-13.2 14.3"/><path id="Fill-81" class="st14" d="M49.298 357.817s1.1-9.9-4.2-20c0 0 4.5 14-4 18.7"/><path id="Fill-82" class="st20" d="M80.598 443.017l-.8-2.5 1.5-.5.8 2.5-1.5.5"/><path id="Fill-83" class="st20" d="M85.398 438.017l-2.1-1.6.9-1.3 2.1 1.6-.9 1.3"/><path id="Fill-84" class="st20" d="M87.298 433.417l-2.6-1.5.8-1.4 2.6 1.5-.8 1.4"/><path id="Fill-85" class="st20" d="M85.298 425.517h3.1v1.6h-3.1v-1.6z"/><path id="Fill-86" class="st20" d="M84.198 422.717l-1.1-1.1 2.5-2.6 1.1 1.1-2.5 2.6"/><path id="Fill-87" class="st20" d="M80.098 417.717l-1.4-.7 1.3-2.7 1.4.7-1.3 2.7"/><path id="Fill-88" class="st20" d="M14.298 443.017l-1.5-.5.8-2.5 1.5.5-.8 2.5"/><path id="Fill-89" class="st20" d="M9.398 438.017l-.9-1.3 2.1-1.6.9 1.3-2.1 1.6"/><path id="Fill-90" class="st20" d="M7.498 433.417l-.8-1.4 2.6-1.5.8 1.4-2.6 1.5"/><path id="Fill-91" class="st20" d="M6.498 425.517h3.1v1.6h-3.1v-1.6z"/><path id="Fill-92" class="st20" d="M10.698 422.717l-2.5-2.6 1.1-1.1 2.5 2.6-1.1 1.1"/><path id="Fill-93" class="st20" d="M14.698 417.717l-1.3-2.7 1.4-.7 1.3 2.7-1.4.7"/></g><path id="Fill-25" class="st21" d="M159.1 286L143 328l22.2-3.5c3.4-.5 7.5 1.1 9.7 3.7l14.1 17.4 16.1-41.9-22.2 3.5c-3.4.5-7.5-1.1-9.7-3.7L159.1 286zm-23.4 41.4l17.6-45.9c.8-2.2 2.5-3.6 4.5-3.9 2-.3 4 .5 5.4 2.3l15.4 19.1c.6.7 2.2 1.4 3.1 1.2l24.2-3.8c2.3-.4 4.3.3 5.6 1.9 1.3 1.6 1.5 3.7.7 5.9l-17.6 45.9c-.8 2.2-2.5 3.6-4.5 3.9-2 .3-4-.5-5.4-2.3l-15.4-19.1c-.6-.7-2.2-1.4-3.1-1.2l-24.2 3.8c-2.3.4-4.3-.3-5.6-1.9-1.3-1.6-1.5-3.7-.7-5.9z"/><path id="Fill-25_1_" class="st22" d="M-67.6 364.3l14.8 12.9 1.9-9.6c.3-1.5 1.6-2.9 3-3.4l9.3-3.2-14.8-12.9-1.9 9.6c-.3 1.5-1.6 2.9-3 3.4l-9.3 3.2zm13.5 15.8L-70.3 366c-.8-.7-1.1-1.5-.9-2.4.2-.9.8-1.6 1.8-1.9l10.1-3.5c.4-.1.9-.7 1-1.1l2-10.5c.2-1 .8-1.7 1.6-2 .8-.3 1.8-.1 2.5.6l16.2 14.1c.8.7 1.1 1.5.9 2.4-.2.9-.8 1.6-1.8 1.9l-10.1 3.5c-.4.1-.9.7-1 1.1l-2 10.5c-.2 1-.8 1.7-1.6 2-.8.3-1.7.1-2.5-.6z"/></g></g></g></svg>