<svg id="Layer_1" xmlns="http://www.w3.org/2000/svg" viewBox="-246 344 118 105"><style>.st0{fill:#c44676}.st1{fill:#d6407e}.st2{fill:#c03971}.st3{fill:#5a4151}.st4{fill:#6c6c8f}.st5{fill:#da538b}.st6{fill:#fff}</style><title>Group 5</title><g id="Page-1"><g id="Guided-Meditations-Detail"><g id="Group-5"><path id="Fill-164" class="st0" d="M-219.1 376.6s-15.3-16.2-24-2.4c-8.7 13.8 6.5 23.8 11 7.9 3.2-11.6 8.7.9 8.7.9"/><path id="Fill-165" class="st0" d="M-155 376.6s15.3-16.2 24-2.4c8.7 13.8-6.5 23.8-11 7.9-3.2-11.6-8.7.9-8.7.9"/><path id="Fill-166" class="st0" d="M-190.7 358.4s.6-5.6 7.8-8.6c0 0-7.2 4.5-3.9 9.2"/><path id="Fill-167" class="st0" d="M-191.9 360.8s1-6.2-4-10.9c0 0 4.6 6.3.7 10.7"/><path id="Fill-168" class="st0" d="M-188.7 356.8s3.6-5.2 10.4-5.1c0 0-7.7 1.3-7.9 7.2"/><path id="Fill-169" class="st0" d="M-189.8 355.8s3-5.5-.1-11.6c0 0 2.2 7.5-2.9 10.3"/><path id="Fill-172" class="st0" d="M-212.8 407.5c-3.5 16.6 1.8 32-14.7 31.9-16.5-.1-12.5 9.5-1.9 9.5s23.4-4.4 17.6-37.9l-1-3.5"/><path id="Fill-173" class="st0" d="M-161.3 407.5c3.5 16.6-1.8 32 14.7 31.9s12.5 9.5 1.9 9.5-23.4-4.4-17.6-37.9l1-3.5"/><path id="Fill-174" class="st1" d="M-167.4 430.1c10.8-11.9 18.5-31.1 18.5-44.7 0-22-19.5-31-38.1-31s-38.1 9-38.1 31c0 13.6 7.7 32.8 18.5 44.7h39.2z"/><path id="Fill-175" class="st2" d="M-200.3 416.3c-2.7 0-4.8-1.1-4.8-2.4 0-1.3 2.2-2.4 4.8-2.4s4.8 1.1 4.8 2.4c0 1.3-2.2 2.4-4.8 2.4"/><path id="Fill-176" class="st2" d="M-173.8 416.3c-2.7 0-4.8-1.1-4.8-2.4 0-1.3 2.2-2.4 4.8-2.4s4.8 1.1 4.8 2.4c0 1.3-2.2 2.4-4.8 2.4"/><path id="Fill-179" class="st3" d="M-204.3 399.4l6.2-2.7c.4-.2.6-.6.4-1-.2-.4-.6-.6-1-.4l-6.2 2.7c-.4.2-.6.6-.4 1 .2.4.6.5 1 .4"/><path id="Fill-180" class="st3" d="M-169.2 398.3l-6.2-3c-.4-.2-.8 0-1 .3-.2.4 0 .8.3 1l6.2 3c.4.2.8 0 1-.3.2-.4.1-.9-.3-1"/><path id="Fill-181" class="st3" d="M-182.2 423.4c0-3-1.7-5.4-4.9-5.4-2.8 0-4.9 2.2-4.9 5.3"/><path id="Fill-182" class="st4" d="M-187.1 421.8c-1.5 0-2.7.6-3.6 1.6h7.3c-.8-1-2.1-1.6-3.7-1.6"/><path id="Fill-183" class="st5" d="M-173.9 385.9c0 2.6-2.1 4.7-4.7 4.7s-4.7-2.1-4.7-4.7 4.7-9 4.7-9 4.7 6.4 4.7 9"/><g id="Group-7"><path id="Fill-69" class="st6" d="M-195.018 409.174c0 2.8-2.2 5-5 5s-5-2.2-5-5 2.2-5 5-5 5 2.2 5 5"/><path id="Fill-70" class="st3" d="M-197.118 410.674c0 1.5-1.2 2.8-2.8 2.8-1.5 0-2.8-1.2-2.8-2.8 0-1.5 1.2-2.8 2.8-2.8 1.6.1 2.8 1.3 2.8 2.8"/></g><path id="Fill-69_1_" class="st6" d="M-169 409.2c0 2.8-2.2 5-5 5s-5-2.2-5-5 2.2-5 5-5c2.7 0 5 2.2 5 5"/><path id="Fill-70_1_" class="st3" d="M-171.2 410.7c0 1.5-1.2 2.8-2.8 2.8-1.5 0-2.8-1.2-2.8-2.8 0-1.5 1.2-2.8 2.8-2.8 1.6 0 2.8 1.3 2.8 2.8"/></g></g></g></svg>