<svg id="Layer_1" xmlns="http://www.w3.org/2000/svg" viewBox="-130 286 350 221"><style>.st0,.st1{fill:#c5e2e8}.st1{opacity:.53;enable-background:new}.st2{fill:#a093bd}.st3{fill:#6c465f}.st4{fill:none;stroke:#a093bd}.st5{fill:#db5176}.st6{fill:#7574a2}.st7{fill:none;stroke:#db5176}.st8{fill:#db8ea3}.st9{fill:#a5dce8}.st10{fill:#77aad1}.st11{opacity:.3}.st12{fill:#ff9659}.st13{opacity:.2}.st14{fill:#fff}.st15{opacity:.1}.st16{opacity:.3;fill:#ff9659;enable-background:new}.st17{fill:#ff6676}.st17,.st18{opacity:.3;enable-background:new}.st18{fill:#a093bd}.st19{stroke-width:9}.st19,.st20{fill:none;stroke:#a093bd}.st20{stroke-width:5.0079}.st21{fill:none;stroke:#ff6676;stroke-width:4.0689}.st22{fill:none;stroke:#ff9659;stroke-width:6.5021}.st23{fill:none;stroke:#ff8359;stroke-width:7.8814}.st24{fill-opacity:.1}.st25{fill:#35a7c0}.st26{fill:#3cbbd6}.st27{fill:#5a4151}.st28{fill:#c44676}.st29{fill:#fff;fill-opacity:.3}</style><title>Group 4</title><g id="Page-1"><g id="The-Science-Creativity"><g id="Group-4" transform="translate(0 -2)"><path id="Shape" class="st0" d="M-108.4 463.6s34.7-19.3 34.7-46.8c0 27.5 34.7 46.8 34.7 46.8h-69.4z"/><path id="Shape_1_" class="st0" d="M102.4 463.6s34.7-19.3 34.7-46.8c0 27.5 34.7 46.8 34.7 46.8h-69.4z"/><path id="Shape_2_" class="st1" d="M-65.6 463.6S-28 442.7-28 412.8c0 29.8 37.6 50.8 37.6 50.8h-75.2z"/><g id="Group" transform="translate(104.537 107.434)"><path id="Rectangle-path" class="st2" d="M-123.4 299h2.1v57h-2.1z"/><ellipse id="Oval" class="st3" cx="-122.3" cy="293.8" rx="7.3" ry="7.3"/><ellipse id="Oval_1_" class="st2" cx="-120.2" cy="289" rx=".7" ry=".7"/><ellipse id="Oval_2_" class="st2" cx="-118.2" cy="292" rx="1.3" ry="1.3"/><path id="Shape_3_" class="st4" d="M-122.9 309.4l-3.6-3.6"/><path id="Shape_4_" class="st4" d="M-122.1 317.2l3-3.1"/></g><g id="Group_1_" transform="translate(36.39 121.302)"><path id="Rectangle-path_1_" class="st5" d="M-122.9 296.6h2.1v45.1h-2.1z"/><path id="Shape_5_" class="st6" d="M-119.3 294.1c9.5 6.6 4.1 12-2.6 2.5-6.6 9.4-12 4.1-2.5-2.5-9.5-6.6-4.1-12 2.5-2.6 6.7-9.5 12.1-4 2.6 2.6z"/><ellipse id="Oval_3_" class="st2" cx="-117.6" cy="289.6" rx="1.3" ry="1.3"/><path id="Shape_6_" class="st7" d="M-122.5 309l-3.6-3.5"/><path id="Shape_7_" class="st7" d="M-121.6 314.8l3-3"/></g><path id="Shape_8_" class="st1" d="M144.8 463.6s37.6-20.9 37.6-50.8c0 29.8 37.6 50.8 37.6 50.8h-75.2z"/><g id="Group_2_" transform="translate(298.393 138.472)"><path id="Rectangle-path_2_" class="st5" d="M-124.4 294.5h1.4v30.1h-1.4z"/><path id="Shape_9_" class="st3" d="M-123.1 291.2c6.2-4.5 8.5.1 1.1 2.2 4.5 6.2-.1 8.5-2.2 1.1-6.2 4.5-8.5-.1-1.1-2.2-4.5-6.4.1-8.5 2.2-1.1z"/><ellipse id="Oval_4_" class="st2" cx="-125.3" cy="288.4" rx=".9" ry=".9"/><path id="Shape_10_" class="st7" d="M-124 302.7l-2.4-2.3"/><path id="Shape_11_" class="st7" d="M-123.5 306.6l2.1-2"/></g><path id="Shape_12_" class="st0" d="M11.6 463.6S42 446.7 42 422.5c0 24.2 30.4 41.1 30.4 41.1H11.6z"/><path id="Shape_13_" class="st1" d="M63.2 463.6s37.6-20.9 37.6-50.8c0 29.8 37.6 50.8 37.6 50.8H63.2z"/><g id="Group_3_" transform="translate(226.276 119.98)"><path id="Rectangle-path_3_" class="st2" d="M-124.5 296.6h1.7v46.9h-1.7z"/><ellipse id="Oval_5_" class="st5" cx="-123.6" cy="292.3" rx="6" ry="5.9"/><ellipse id="Oval_6_" class="st8" cx="-121.9" cy="288.4" rx=".6" ry=".6"/><ellipse id="Oval_7_" class="st8" cx="-120.2" cy="290.8" rx="1.1" ry="1.1"/><path id="Shape_14_" class="st4" d="M-124.1 307.1l-2.9-2.9"/><path id="Shape_15_" class="st4" d="M-123.4 304.3l2.5-2.5"/></g><path id="Shape_16_" class="st9" d="M-130 463.6s28.8-9.8 28.8-32.7c0 22.9 28.8 32.7 28.8 32.7H-130z"/><path id="Shape_17_" class="st9" d="M157.1 463.6s28.8-9.8 28.8-32.7c0 22.9 28.8 32.7 28.8 32.7h-57.6z"/><path id="Shape_18_" class="st9" d="M86 463.6s33.4-41.8 33.4-63.1c0 21.3 33.4 63.1 33.4 63.1H86z"/><path id="Shape_19_" class="st9" d="M20.6 463.6s51.3-29.4 51.3-70.1c0 40.7 51.3 70.1 51.3 70.1H20.6z"/><path id="Shape_20_" class="st9" d="M-89.9 463.6s42.7-24.8 42.7-58.7c0 33.9 42.7 58.7 42.7 58.7h-85.4z"/><path id="Shape_21_" class="st9" d="M-39.4 463.6s49-26.3 49-54.7c0 28.5 49 54.7 49 54.7h-98z"/><path id="Shape_22_" class="st9" d="M113.5 463.6s42.7-15.1 42.7-49c0 33.9 42.7 49 42.7 49h-85.4z"/><path id="Shape_23_" class="st10" d="M219.7 463.6h-349.5l5.3-2.2h340.3l3.9 2.2z"/><path id="Shape_24_" class="st9" d="M-92.5 430.6c-6.4 1.3-7.4 2.3-8.7 8.7-1.3-6.4-2.3-7.4-8.7-8.7 6.4-1.3 7.4-2.3 8.7-8.7 1.3 6.4 2.4 7.5 8.7 8.7z"/><g id="Group_4_" class="st11"><path id="Shape_25_" class="st12" d="M-69.693 337.962c-2.4 3.7-2.4 4.7 0 8.4-3.7-2.4-4.7-2.4-8.4 0 2.4-3.7 2.4-4.7 0-8.4 3.7 2.4 4.7 2.4 8.4 0z"/></g><g id="Group_5_" class="st11"><path id="Shape_26_" class="st5" d="M-11.855 302.802c-3 4.4-3 5.7 0 10.1-4.4-3-5.7-3-10.1 0 3-4.4 3-5.7 0-10.1 4.5 2.9 5.7 2.9 10.1 0z"/></g><g id="Group_6_" class="st11"><path id="Shape_27_" class="st12" d="M111.87 374.583c-3 4.4-3 5.7 0 10.1-4.4-3-5.7-3-10.1 0 3-4.4 3-5.7 0-10.1 4.5 2.9 5.7 2.9 10.1 0z"/></g><g id="Group_7_" class="st11"><path id="Shape_28_" class="st5" d="M182.486 382.047c-2.4 3.7-2.4 4.7 0 8.4-3.7-2.4-4.7-2.4-8.4 0 2.4-3.7 2.4-4.7 0-8.4 3.7 2.4 4.8 2.4 8.4 0z"/></g><g id="Group_8_" class="st11"><path id="Shape_29_" class="st5" d="M57.647 312.708c-1.7 2.4-1.7 3.1 0 5.5-2.4-1.7-3.1-1.7-5.6 0 1.7-2.4 1.7-3.1 0-5.5 2.4 1.7 3.1 1.7 5.6 0z"/></g><g id="Group_9_" class="st11"><path id="Shape_30_" class="st12" d="M160.2 325.515c-1.7 2.4-1.7 3.1 0 5.5-2.4-1.7-3.1-1.7-5.6 0 1.7-2.4 1.7-3.1 0-5.5 2.4 1.6 3.1 1.6 5.6 0z"/></g><g id="Group_10_" class="st11"><path id="Shape_31_" class="st5" d="M-28.364 383.628c-1.7 2.4-1.7 3.1 0 5.5-2.4-1.7-3.1-1.7-5.6 0 1.7-2.4 1.7-3.1 0-5.5 2.4 1.6 3.1 1.6 5.6 0z"/></g><g id="Group-3" class="st13"><path id="Fill-31" class="st14" d="M162.048 300.4c-1.6 0-3.1.6-4.2 1.7l-8.7 8.7c-1.1 1.1-1.7 2.6-1.7 4.2s.6 3.1 1.7 4.2l36.4 36.4c1.1 1.1 2.6 1.7 4.2 1.7s3.1-.6 4.2-1.7l8.7-8.7c2.3-2.3 2.3-6 0-8.3l-36.4-36.4c-1.1-1.2-2.6-1.8-4.2-1.8zm27.8 64.1c-3.5 0-6.8-1.4-9.3-3.8l-36.4-36.4c-2.5-2.5-3.8-5.8-3.8-9.3 0-3.5 1.4-6.8 3.8-9.3l8.7-8.7c2.5-2.5 5.8-3.8 9.3-3.8 3.5 0 6.8 1.4 9.3 3.8l36.4 36.4c5.1 5.1 5.1 13.5 0 18.6l-8.7 8.7c-2.5 2.5-5.8 3.8-9.3 3.8z"/><path id="Fill-32" class="st14" d="M189.848 300.4c-1.6 0-3.1.6-4.2 1.7l-36.4 36.4c-1.1 1.1-1.7 2.6-1.7 4.2s.6 3.1 1.7 4.2l8.7 8.7c1.1 1.1 2.6 1.7 4.2 1.7s3.1-.6 4.2-1.7l36.4-36.4c2.3-2.3 2.3-6 0-8.3l-8.7-8.7c-1.1-1.2-2.6-1.8-4.2-1.8zm-27.8 64.1c-3.5 0-6.8-1.4-9.3-3.8l-8.7-8.7c-2.5-2.5-3.8-5.8-3.8-9.3 0-3.5 1.4-6.8 3.8-9.3l36.4-36.4c2.5-2.5 5.8-3.8 9.3-3.8s6.8 1.4 9.3 3.8l8.7 8.7c5.1 5.1 5.1 13.5 0 18.6l-36.4 36.4c-2.5 2.5-5.8 3.8-9.3 3.8z"/></g><g id="Group-3_1_" class="st15"><path id="Fill-31_1_" class="st14" d="M-113.64 331.694a2.732 2.732 0 0 0-1.357 1.552l-1.798 5.44c-.23.667-.193 1.428.158 2.147.307.63.883 1.127 1.595 1.447l22.82 8.007c.67.23 1.43.193 2.058-.114s1.127-.884 1.357-1.552l1.798-5.43c.51-1.47-.23-3-1.7-3.504l-22.82-8.007c-.755-.41-1.472-.283-2.1.024zm24.833 21.49c-1.438.7-3.14.862-4.654.266l-22.82-8.007c-1.61-.553-2.81-1.638-3.55-3.166-.75-1.528-.87-3.14-.31-4.744l1.79-5.438c.55-1.605 1.638-2.802 3.076-3.503 1.44-.7 3.14-.863 4.654-.267l22.82 8.007c3.208 1.105 4.96 4.7 3.857 7.91l-1.796 5.438c-.462 1.56-1.64 2.8-3.075 3.503z"/><path id="Fill-32_1_" class="st14" d="M-102.046 326.04a2.732 2.732 0 0 0-1.357 1.55l-7.74 22.913c-.23.668-.192 1.43.158 2.148.307.63.884 1.13 1.596 1.45l5.4 1.93a2.73 2.73 0 0 0 2.06-.11 2.732 2.732 0 0 0 1.358-1.55l7.74-22.91c.506-1.47-.24-3-1.71-3.504l-5.392-1.932c-.756-.41-1.473-.282-2.102.025zm1.645 32.798c-1.44.7-3.14.863-4.66.267l-5.397-1.932c-1.604-.552-2.8-1.637-3.546-3.165s-.864-3.14-.31-4.744l7.74-22.912c.55-1.604 1.636-2.8 3.074-3.503s3.14-.87 4.653-.27l5.392 1.93c3.21 1.1 4.96 4.7 3.856 7.91l-7.74 22.91c-.55 1.6-1.636 2.8-3.074 3.5z"/></g><g id="Group-3_2_" class="st13"><path id="Fill-31_2_" class="st14" d="M14.22 291.676c-.27.132-.407.31-.5.577l-.646 2.095c-.092.268-.05.58.082.85.13.27.352.496.62.588l8.735 3.083c.27.09.59.05.77-.04.27-.13.406-.31.5-.58l.646-2.1a1.087 1.087 0 0 0-.657-1.35l-8.738-3.08c-.22-.227-.534-.185-.804-.054zm9.578 8.234a2.342 2.342 0 0 1-1.835.116l-8.735-3.082a2.413 2.413 0 0 1-1.375-1.22 2.342 2.342 0 0 1-.116-1.836l.647-2.096c.184-.535.592-1.067 1.22-1.374s1.167-.346 1.836-.116l8.735 3.082c1.204.415 1.86 1.763 1.49 3.056l-.646 2.096c-.28.58-.69 1.11-1.23 1.374z"/><path id="Fill-32_2_" class="st14" d="M18.713 289.484c-.27.132-.406.31-.498.577l-2.95 8.79c-.09.27-.05.58.082.85s.353.497.62.59l2.05.78c.268.093.58.05.76-.036.27-.132.407-.31.5-.577l2.948-8.78a1.087 1.087 0 0 0-.658-1.35l-2.05-.78c-.31-.18-.534-.183-.804-.052zm.59 12.618a2.342 2.342 0 0 1-1.834.116l-2.05-.78a2.413 2.413 0 0 1-1.38-1.22 2.342 2.342 0 0 1-.12-1.836l2.95-8.782a2.413 2.413 0 0 1 1.22-1.374 2.342 2.342 0 0 1 1.835-.116l2.05.78c1.203.415 1.86 1.763 1.49 3.056l-2.95 8.782c-.273.58-.59 1.067-1.22 1.374z"/></g><path id="Shape_32_" class="st9" d="M166.9 413c-7.9 1.6-9.2 2.8-10.8 10.8-1.6-7.9-2.8-9.2-10.8-10.8 7.9-1.6 9.2-2.8 10.8-10.8 1.6 7.9 2.9 9.3 10.8 10.8z"/><path id="Shape_33_" class="st9" d="M-38.5 406.6c-6.4 1.3-7.4 2.3-8.7 8.7-1.3-6.4-2.3-7.4-8.7-8.7 6.4-1.3 7.4-2.3 8.7-8.7 1.3 6.4 2.4 7.5 8.7 8.7z"/><path id="Shape_34_" class="st9" d="M128.1 399.4c-6.4 1.3-7.4 2.3-8.7 8.7-1.3-6.4-2.3-7.4-8.7-8.7 6.4-1.3 7.4-2.3 8.7-8.7 1.3 6.4 2.3 7.4 8.7 8.7z"/><ellipse id="Oval_8_" class="st5" cx="-39.6" cy="430.9" rx="3.1" ry="3.1"/><ellipse id="Oval_9_" class="st16" cx="-67.8" cy="392.8" rx="3.1" ry="3.1"/><ellipse id="Oval_10_" class="st17" cx="102.9" cy="331.4" rx="3.1" ry="3.1"/><ellipse id="Oval_11_" class="st18" cx="139.9" cy="402.7" rx="3.1" ry="3.1"/><ellipse id="Oval_12_" class="st5" cx="114.8" cy="444.9" rx="3.1" ry="3.1"/><ellipse id="Oval_13_" class="st2" cx="182.8" cy="453.3" rx="3.1" ry="3.1"/><ellipse id="Oval_14_" class="st2" cx="-6.1" cy="448" rx="3.1" ry="3.1"/><ellipse id="Oval_15_" class="st2" cx="-53.9" cy="439.5" rx="2.1" ry="2.1"/><ellipse id="Oval_16_" class="st5" cx="-105.7" cy="447.5" rx="2.1" ry="2.1"/><ellipse id="Oval_17_" class="st5" cx="116.1" cy="423.3" rx="2.1" ry="2.1"/><ellipse id="Oval_18_" class="st5" cx="159.8" cy="448.9" rx="2.1" ry="2.1"/><ellipse id="Oval_19_" class="st2" cx="123.2" cy="436.2" rx="2.1" ry="2.1"/><ellipse id="Oval_20_" class="st5" cx="-39.6" cy="450.2" rx="2.1" ry="2.1"/><ellipse id="Oval_21_" class="st2" cx="152.4" cy="433.1" rx="2.1" ry="2.1"/><ellipse id="Oval_22_" class="st5" cx="190.8" cy="447.1" rx="2.1" ry="2.1"/><path id="Shape_35_" class="st19" d="M80.4 307.8c6.4 0 6.4 7.9 12.8 7.9s6.4-7.9 12.8-7.9 6.4 7.9 12.8 7.9"/><path id="Shape_36_" class="st20" d="M-37 354.2c3.2 0 3.2 4 6.4 4s3.2-4 6.4-4 3.2 4 6.4 4"/><path id="Shape_37_" class="st21" d="M-61.6 315c2.6 0 2.6 3.2 5.2 3.2s2.6-3.2 5.2-3.2 2.6 3.2 5.2 3.2"/><path id="Shape_38_" class="st22" d="M126.8 357.8c4.2 0 4.2 5.2 8.3 5.2s4.2-5.2 8.3-5.2c4.2 0 4.2 5.2 8.3 5.2"/><path id="Shape_39_" class="st23" d="M-97.8 364.6c5 0 5 6.3 10.1 6.3 5 0 5-6.3 10.1-6.3 5 0 5 6.3 10.1 6.3"/><g id="Group-6"><path id="Fill-5" class="st24" d="M44.5 508.6c-30.2 0-54.7-3.2-54.7-7.2s24.5-7.2 54.7-7.2c30.2 0 54.7 3.2 54.7 7.2-.1 3.9-24.5 7.2-54.7 7.2z"/><path id="Fill-184" class="st25" d="M18 455.9s-93.9-19.8-57.8-90.7c14.4-25.9 42-19.9 12.4 38-14 31 35.6 37.8 35.6 37.8"/><path id="Fill-186" class="st25" d="M70.9 455.9s93.9-19.8 57.8-90.7c-14.4-25.9-42-19.9-12.4 38 14 31-35.6 37.8-35.6 37.8"/><path id="Fill-192" class="st26" d="M17.6 476.2s5.2 17.3 2.3 20.4c-2.9 3.1-11.6.6-10.4 3.7 1.7 4.3 8.7 3.1 15.2 3.1 5.5 0 2.6-30.3 2.6-30.3l-9.7 3.1"/><path id="Fill-193" class="st26" d="M71.4 476.3s-5.2 17.3-2.3 20.4c2.9 3.1 11.6.6 10.4 3.7-1.7 4.3-8.7 3.1-15.2 3.1-5.5 0-2.6-30.3-2.6-30.3l9.7 3.1"/><path id="Fill-188" class="st26" d="M44.5 415.1c-18.5 0-30.8 42.7-28.8 60.3 2.1 11 28.8 9.9 28.8 9.9s26.7 1.1 28.8-9.9c2-17.6-10.3-60.3-28.8-60.3"/><path id="Fill-189" class="st26" d="M100.9 410.4c0 30.5-25.3 51.4-56.4 51.4-31.2 0-56.4-20.9-56.4-51.4s25.3-61 56.4-61c31.1 0 56.4 30.5 56.4 61"/><path id="Fill-190" class="st25" d="M25.5 407.1c-3.8 0-6.9-1.7-6.9-3.7s3.1-3.7 6.9-3.7c3.8 0 6.9 1.7 6.9 3.7s-3.1 3.7-6.9 3.7"/><path id="Fill-191" class="st25" d="M63.5 407.1c-3.8 0-6.9-1.7-6.9-3.7s3.1-3.7 6.9-3.7c3.8 0 6.9 1.7 6.9 3.7s-3.1 3.7-6.9 3.7"/><path id="Fill-194" class="st27" d="M17.2 370.6l9.7-.9c.6-.1 1.1-.6 1-1.3 0-.7-.6-1.2-1.2-1.1l-9.7.9c-.6.1-1.1.6-1 1.3 0 .7.6 1.2 1.2 1.1"/><path id="Fill-195" class="st27" d="M72 368.6l-9.7-1.4c-.6-.1-1.2.4-1.3 1-.1.7.3 1.3 1 1.3l9.7 1.4c.6.1 1.2-.4 1.3-1 .1-.6-.3-1.2-1-1.3"/><path id="Fill-196" class="st14" d="M35.6 394.3c0 5.2-3.9 9.4-8.8 9.4s-8.8-4.2-8.8-9.4 3.9-9.4 8.8-9.4 8.8 4.2 8.8 9.4"/><path id="Fill-197" class="st27" d="M32 391.1c0 3-2.3 5.5-5.1 5.5s-5.1-2.5-5.1-5.5 2.3-5.5 5.1-5.5 5.1 2.5 5.1 5.5"/><path id="Fill-198" class="st14" d="M30.1 387.2c0 .9-.7 1.6-1.5 1.6s-1.5-.7-1.5-1.6c0-.9.7-1.6 1.5-1.6s1.5.7 1.5 1.6"/><path id="Fill-199" class="st14" d="M70.9 394.3c0 5.2-3.9 9.4-8.8 9.4-4.8 0-8.7-4.2-8.7-9.4s3.9-9.4 8.7-9.4c4.9 0 8.8 4.2 8.8 9.4"/><path id="Fill-200" class="st27" d="M67.3 391.1c0 3-2.3 5.5-5.1 5.5s-5.1-2.5-5.1-5.5 2.3-5.5 5.1-5.5 5.1 2.5 5.1 5.5"/><path id="Fill-201" class="st14" d="M65.4 387.2c0 .9-.7 1.6-1.5 1.6-.9 0-1.5-.7-1.5-1.6 0-.9.7-1.6 1.5-1.6s1.5.7 1.5 1.6"/><path id="Fill-202" class="st27" d="M67.2 407.5c0 12.6-10.4 21.3-23.3 21.3s-23.3-8.6-23.3-21.3"/><path id="Fill-203" class="st28" d="M58.3 424.5c-4-2.7-9-4.3-14.4-4.3s-10.4 1.6-14.4 4.3c4 2.7 9 4.3 14.4 4.3s10.4-1.6 14.4-4.3"/><path id="Fill-204" class="st26" d="M44.5 360.6s-.2-.4-.3-1.1c-.2-.7-.4-1.8-.7-3-.2-1.2-.4-2.7-.5-4.2-.1-.8-.1-1.6-.2-2.4 0-.8 0-1.6-.1-2.5 0-.8 0-1.6.1-2.5 0-.8.1-1.6.1-2.4.1-1.5.3-3 .5-4.2.2-1.2.5-2.3.7-3 .2-.7.3-1.1.3-1.1s.2.4.3 1.1c.2.7.4 1.8.7 3 .2 1.2.4 2.7.5 4.2.1.8.1 1.6.1 2.4 0 .8 0 1.6.1 2.5 0 .8 0 1.6-.1 2.5 0 .8-.1 1.6-.2 2.4-.1 1.5-.3 3-.5 4.2-.2 1.2-.5 2.3-.7 3 0 .7-.1 1.1-.1 1.1"/><path id="Fill-205" class="st26" d="M51.7 338.2h-.9c0 1.9-.7 3.6-1.9 4.8-1.2 1.2-2.7 2-4.5 2-1.8 0-3.3-.8-4.5-2-1.1-1.2-1.9-2.9-1.9-4.8s.7-3.6 1.9-4.8c1.2-1.2 2.7-2 4.5-2 1.8 0 3.3.8 4.5 2 1.2 1.2 1.9 2.9 1.9 4.8h1.7c0-4.8-3.6-8.7-8.1-8.7s-8.1 3.9-8.1 8.7 3.6 8.7 8.1 8.7 8.1-3.9 8.1-8.7h-.8"/><path id="Fill-206" class="st29" d="M44.5 461.9c-8.8 0-16 7.7-16 17.2v.5c7.7 1.6 16 1.3 16 1.3s8.3.3 16-1.3v-.6c0-9.4-7.2-17.1-16-17.1"/></g></g></g></g></svg>