<svg width="117" height="80" viewBox="0 0 117 80" xmlns="http://www.w3.org/2000/svg" xmlns:xlink="http://www.w3.org/1999/xlink"><title>Group 6</title><defs><path id="a" d="M58.172 55.34c-5.526 0-9.344-4.767-11.823-.762-2.48 4.005-.77 15.3 11.82 15.3s14.3-11.295 11.82-15.3c-2.48-4.005-6.3.763-11.827.763z"/></defs><g fill="none" fill-rule="evenodd"><path d="M26.69 59.21s-7.246-2.668-11.06 3.815c-3.813 6.484 1.145 14.875-4.576 16.78-5.72 1.908-6.782-11.98 0-19.83 5.6-6.484 15.636-3.433 15.636-3.433v2.67m.052-12.194s-4.594-6.207-11.34-2.878C8.657 47.47 8.2 57.204 2.37 55.66c-5.83-1.544.902-13.738 10.88-16.58 8.24-2.35 14.956 5.706 14.956 5.706l-1.464 2.232m62.91 12.192s7.247-2.668 11.06 3.815c3.815 6.484-1.143 14.875 4.578 16.78 5.72 1.908 6.782-11.98 0-19.83-5.6-6.484-15.637-3.433-15.637-3.433v2.67m-.05-12.194s4.593-6.207 11.34-2.878c6.744 3.33 7.2 13.064 13.03 11.52 5.83-1.544-.9-13.738-10.88-16.58-8.24-2.35-14.955 5.706-14.955 5.706l1.464 2.232" fill="#12A19F"/><path d="M30.326 74.974c-4.426-5.09-7.05-12.152-7.05-21.476 0-21.74 14.492-45.766 34.896-45.766S93.068 31.76 93.068 53.498c0 9.324-2.625 16.387-7.05 21.476H30.325z" fill="#15B4B2"/><path d="M69.995 54.578c-2.48-4.005-6.297.763-11.823.763-5.526 0-9.344-4.76-11.823-.76-2.48 4.01-.77 15.3 11.82 15.3 12.58 0 14.3-11.29 11.82-15.3" fill="#5A4151"/><mask id="b" fill="#fff"><use xlink:href="#a"/></mask><path d="M58.76 54.897c0 1.847-1.058 3.345-2.364 3.345-1.306 0-2.365-1.498-2.365-3.345 0-1.848 1.06-3.346 2.37-3.346s2.37 1.5 2.37 3.35" fill="#FFF" mask="url(#b)"/><path d="M54.62 54.253c0 1.84-.884 3.332-1.974 3.332-1.09 0-1.974-1.492-1.974-3.332 0-1.84.884-3.332 1.974-3.332 1.09 0 1.973 1.5 1.973 3.34" fill="#FFF" mask="url(#b)"/><path d="M51.155 52.976c0 1.84-.884 3.332-1.974 3.332-1.08 0-1.97-1.49-1.97-3.332 0-1.84.89-3.33 1.98-3.33 1.09 0 1.975 1.49 1.975 3.33m6.47 1.992c0 1.848 1.06 3.346 2.365 3.346 1.305 0 2.364-1.498 2.364-3.346s-1.06-3.346-2.367-3.346-2.365 1.498-2.365 3.346" fill="#FFF" mask="url(#b)"/><path d="M61.77 54.253c0 1.84.882 3.332 1.972 3.332 1.09 0 1.973-1.492 1.973-3.332 0-1.84-.883-3.332-1.973-3.332s-1.972 1.5-1.972 3.34" fill="#FFF" mask="url(#b)"/><path d="M65.233 52.976c0 1.84.884 3.332 1.973 3.332 1.09 0 1.974-1.49 1.974-3.332 0-1.84-.884-3.33-1.974-3.33-1.09 0-1.973 1.49-1.973 3.33" fill="#FFF" mask="url(#b)"/><path d="M45.582 50.492c-2.53 0-4.58-1.025-4.58-2.29 0-1.264 2.05-2.29 4.58-2.29 2.528 0 4.58 1.026 4.58 2.29 0 1.265-2.052 2.29-4.58 2.29m25.18 0c-2.53 0-4.58-1.025-4.58-2.29 0-1.264 2.05-2.29 4.58-2.29 2.53 0 4.58 1.026 4.58 2.29 0 1.265-2.05 2.29-4.58 2.29" fill="#12A19F"/><path d="M48.676 66.53c2.028 1.966 5.096 3.35 9.496 3.35s7.468-1.384 9.496-3.35c-2.028-1.97-5.096-3.35-9.496-3.35s-7.468 1.38-9.496 3.35" fill="#C44676"/><path d="M40.07 29.177l6.452-.53a.74.74 0 0 0-.12-1.48l-6.455.532a.742.742 0 1 0 .122 1.47m36.36-1.226l-6.42-.844a.74.74 0 1 0-.2 1.47l6.42.845a.74.74 0 1 0 .192-1.47" fill="#5A4151"/><path d="M45.587 49.217a4.17 4.17 0 1 1 0-8.342 4.17 4.17 0 0 1 0 8.342zm25.11 0a4.17 4.17 0 1 1 0-8.342 4.17 4.17 0 0 1 0 8.342z" fill="#FFF"/><path d="M47.637 45.076a2.03 2.03 0 1 1-4.062 0 2.03 2.03 0 0 1 4.062 0m25.038-.084a2.03 2.03 0 1 1-4.062 0 2.03 2.03 0 0 1 4.062 0" fill="#5A4151"/><path d="M46.794 51.332v-.572h-4.2a5.924 5.924 0 0 1-4.198-1.747 5.922 5.922 0 0 1-1.747-4.198 5.92 5.92 0 0 1 1.74-4.2 5.924 5.924 0 0 1 4.2-1.746h4.2c1.63 0 3.12.66 4.2 1.74a5.926 5.926 0 0 1 1.742 4.2 5.926 5.926 0 0 1-1.748 4.194 5.925 5.925 0 0 1-4.2 1.747v1.15c3.903-.002 7.087-3.186 7.09-7.09-.003-3.902-3.187-7.087-7.09-7.09h-4.2c-3.903.003-7.087 3.188-7.09 7.09.003 3.904 3.187 7.088 7.09 7.09h4.2v-.572m26.96 0v-.57h-4.2a5.926 5.926 0 0 1-4.2-1.75A5.924 5.924 0 0 1 63.6 44.81a5.93 5.93 0 0 1 1.747-4.2 5.926 5.926 0 0 1 4.2-1.744h4.2c1.635 0 3.12.666 4.2 1.745a5.924 5.924 0 0 1 1.746 4.2 5.924 5.924 0 0 1-1.747 4.2 5.925 5.925 0 0 1-4.2 1.748V51.9c3.902-.002 7.09-3.186 7.09-7.09s-3.188-7.087-7.09-7.09h-4.2c-3.904.003-7.09 3.188-7.09 7.09 0 3.904 3.186 7.088 7.09 7.09h4.2v-.572" fill="#5A4151"/><path d="M53.53 44.225h9.283v1.144H53.53v-1.15z" fill="#5A4151"/><path d="M56.734 7.87s.366-5.005 4.88-7.69c0 0-4.514 4.026-2.44 8.175" fill="#15B4B2"/><path d="M57.597 9.41S59.4 4.17 65.28 2.63c0 0-6.252 2.974-5.043 8.02" fill="#15B4B2"/></g></svg>