<svg id="Layer_1" xmlns="http://www.w3.org/2000/svg" viewBox="-130 255 350 284"><style>.st0{fill:#d9c8d4}.st1{fill:none;stroke:#a093bd;stroke-width:2}.st2{opacity:.64;fill:#c29bb6;enable-background:new}.st3{fill:#a093bd}.st4{fill:#db5176}.st5{opacity:.5;fill:#fff;enable-background:new}.st6{fill:#875877}.st7{opacity:.5;fill:#db5176;enable-background:new}.st8{fill:#26b4b1}.st9{fill:#77c4d4}.st10{fill:#d4437e}.st11{fill:#a5dce8}.st12{fill:#ff6676}.st13{fill:#bcebea}.st14{fill:#c29bb6}.st15{fill-opacity:.1}.st16{fill:#e36957}.st17{fill:#5a4151}.st18{fill:#ea8d5f}.st19{fill:#fff}.st20{fill:#cb7e59}.st21{fill:#c44676}.st22{fill:#523d4b}.st23{fill:#c66253}.st24{opacity:.1}.st25{opacity:.2}</style><title>Group 3</title><g id="Page-1"><g id="The-Science-Relationships"><g id="Group-3" transform="translate(0 -7)"><path id="Shape" class="st0" d="M219.6 487.5v-25.9c0-11.8-9.6-21.4-21.4-21.4-5.8 0-11 2.3-14.9 6-3.4-10.8-13.5-18.7-25.4-18.7-5.1 0-9.8 1.4-13.9 3.9-6.3-11.2-18.3-18.8-32-18.8-14.6 0-27.3 8.7-33.2 21.1-5.9-12.5-18.6-21.1-33.2-21.1-16.9 0-31.3 11.6-35.4 27.2-3.9-4.1-9.4-6.7-15.5-6.7-6.2 0-11.9 2.7-15.9 7-4-15.8-18.5-27.6-35.5-27.6-16.2 0-30.1 10.7-34.9 25.3-3.5-1.8-7.6-2.8-11.8-2.8-14.6 0-26.6 11.9-26.6 26.6v25.7l349.6.2z"/><path id="Shape_1_" class="st1" d="M-69.6 486.4c3.3-7.8 22.6-54.9-1.3-97-6.4-11.3-14.4-19.7-21.8-25.7"/><path id="Shape_2_" class="st1" d="M139.1 486.4c-5.1-10.2-20.4-43.8-10.9-85.4 6.1-26.6 19.7-44.8 27.6-53.9"/><path id="Shape_3_" class="st1" d="M187.2 486.4c-3.9-9.6-4.6-10.5-5.8-27-1.7-23.1 10.7-44.2 13.5-47.5"/><path id="Shape_4_" class="st1" d="M-109.4 486.4c-4-7.9-16.7-35.3-7.1-66.1 3.1-10 7.8-17.9 12.2-23.8"/><path id="Shape_5_" class="st1" d="M165.7 486.4c2.8-7.6 5.9-18.8 6.2-32.4.4-24.7-8.9-43.2-14-51.7"/><path id="Shape_6_" class="st2" d="M194 460.1c-4.1 0-8 1-11.4 2.7-4.6-14.1-18-24.5-33.7-24.5-16.4 0-30.4 11.4-34.3 26.7-3.8-4.2-9.2-6.8-15.3-6.8-5.8 0-11.2 2.5-15 6.4-4-15.1-17.9-26.3-34.2-26.3-14.1 0-26.3 8.3-32 20.4-5.7-12-17.9-20.4-32-20.4-13.2 0-24.8 7.3-30.9 18.1-3.9-2.4-8.5-3.8-13.4-3.8-11.4 0-21.2 7.6-24.5 18-3.7-3.6-8.8-5.8-14.4-5.8-11.4.1-20.7 9.4-20.7 20.8v1.4h337.4v-1.2c0-14.1-11.5-25.7-25.6-25.7z"/><path id="Shape_7_" class="st3" d="M219.6 480.9c-.8.2-1.6.3-2.6.3-6.6 0-6.6-3.9-13.2-3.9s-6.6 3.9-13.2 3.9-6.6-3.9-13.2-3.9-6.6 3.9-13.2 3.9-6.6-3.9-13.2-3.9-6.6 3.9-13.2 3.9-6.6-3.9-13.2-3.9-6.6 3.9-13.2 3.9-6.6-3.9-13.2-3.9-6.6 3.9-13.2 3.9-6.6-3.9-13.2-3.9-6.6 3.9-13.2 3.9-6.6-3.9-13.2-3.9-6.6 3.9-13.2 3.9-6.6-3.9-13.2-3.9-6.6 3.9-13.2 3.9-6.6-3.9-13.2-3.9-6.6 3.9-13.2 3.9-6.6-3.9-13.2-3.9-6.6 3.9-13.2 3.9-6.6-3.9-13.2-3.9-6.6 3.9-13.2 3.9-6.6-3.9-13.2-3.9-6.6 3.9-13.2 3.9-6.6-3.9-13.2-3.9-6.6 3.9-13.2 3.9c-1 0-1.9-.1-2.6-.3v6.7h349v-6.7h-.6z"/><path id="Shape_8_" class="st4" d="M-108.2 467.1c-1.8 0-3.2-1.5-3.2-3.2v-30.8c0-1.8 1.4-3.2 3.2-3.2 1.8 0 3.2 1.5 3.2 3.2v30.8c0 1.8-1.4 3.2-3.2 3.2z"/><path id="Shape_9_" class="st4" d="M191.1 469.7c-1.8 0-3.2-1.5-3.2-3.2v-25.8c0-1.8 1.5-3.2 3.2-3.2 1.8 0 3.2 1.5 3.2 3.2v25.8c0 1.8-1.4 3.2-3.2 3.2z"/><path id="Shape_10_" class="st3" d="M-77.7 448.5c-3 0-5.5-2.4-5.5-5.5v-28.3c0-3 2.4-5.5 5.5-5.5 3 0 5.5 2.4 5.5 5.5V443c0 3.1-2.4 5.5-5.5 5.5z"/><path id="Shape_11_" class="st5" d="M-92.8 472.3c-1.4 0-2.6-1.2-2.6-2.6v-11.6c0-1.4 1.2-2.6 2.6-2.6 1.4 0 2.6 1.2 2.6 2.6v11.6c0 1.4-1.1 2.6-2.6 2.6z"/><path id="Shape_12_" class="st6" d="M156.4 476.8c-1.4 0-2.6-1.2-2.6-2.6v-11.6c0-1.4 1.2-2.6 2.6-2.6 1.4 0 2.6 1.2 2.6 2.6v11.6c0 1.4-1.2 2.6-2.6 2.6z"/><path id="Shape_13_" class="st7" d="M166.1 459.3c-1.4 0-2.6-1.2-2.6-2.6v-7.4c0-1.4 1.2-2.6 2.6-2.6 1.4 0 2.6 1.2 2.6 2.6v7.4c-.1 1.4-1.2 2.6-2.6 2.6z"/><path id="Shape_14_" class="st5" d="M207.8 471c-1.4 0-2.6-1.2-2.6-2.6V461c0-1.4 1.2-2.6 2.6-2.6 1.4 0 2.6 1.2 2.6 2.6v7.4c0 1.4-1.2 2.6-2.6 2.6z"/><ellipse id="Oval" class="st8" cx="-100.8" cy="394.9" rx="4.8" ry="4.8"/><ellipse id="Oval_1_" class="st9" cx="157.4" cy="347" rx="3.6" ry="3.6"/><ellipse id="Oval_2_" class="st6" cx="196.9" cy="409.3" rx="4.9" ry="4.9"/><ellipse id="Oval_3_" class="st8" cx="155.4" cy="399.7" rx="3.6" ry="3.6"/><ellipse id="Oval_4_" class="st10" cx="-94.7" cy="363.4" rx="5.7" ry="5.7"/><path id="Shape_15_" class="st11" d="M-57.2 368.9l8.4 8.4 1.9 1.9 1.9-1.9 8.4-8.4-1.9-1.9-8.4 8.4-8.4-8.4-1.9 1.9z"/><path id="Shape_16_" class="st12" d="M-76.1 342.4l5.3 5.3 1.2 1.2 1.2-1.2 5.3-5.3-1.2-1.2-5.3 5.3-5.3-5.3-1.2 1.2z"/><path id="Shape_17_" class="st4" d="M185.4 352.5l4.6 4.6 1 1.1 1-1.1 4.6-4.6-1.1-1-4.6 4.6-4.6-4.6-.9 1z"/><path id="Shape_18_" class="st13" d="M-23.7 334.8l4.6 4.6 1.1 1 1-1 4.6-4.6-1-1.1-4.6 4.6-4.6-4.6-1.1 1.1z"/><path id="Shape_19_" class="st0" d="M166.2 383.8l8.2 8.2 1.9 1.9 1.9-1.9 8.2-8.2-1.9-1.9-8.2 8.2-8.2-8.2-1.9 1.9z"/><path id="Shape_20_" class="st14" d="M113.8 338.2l10.6 10.6 2.4 2.4 2.4-2.4 10.6-10.6-2.4-2.4-10.6 10.6-10.6-10.6-2.4 2.4z"/><g id="Group-5"><path id="Fill-4" class="st15" d="M115.1 533.9c0 6.1-31.4 11.1-70.2 11.1-38.8 0-70.2-5-70.2-11.1s31.4-11.1 70.2-11.1c38.7 0 70.2 5 70.2 11.1"/><path id="Fill-94" class="st16" d="M90.6 417.7H-1.3c-1.7 0-3.2-1.4-3.2-3.2V314.1c0-10.4 8.5-19 19-19h60.3c10.4 0 19 8.5 19 19v100.5c-.1 1.7-1.5 3.1-3.2 3.1"/><path id="Fill-95" class="st17" d="M90.6 467.7H-1.3c-1.7 0-3.2-1.4-3.2-3.2V364.1c0-10.4 8.5-19 19-19h60.3c10.4 0 19 8.5 19 19v100.5c-.1 1.7-1.5 3.1-3.2 3.1"/><path id="Fill-96" class="st17" d="M19.6 312.7l8.9-.7c.7-.1 1.2-.7 1.2-1.4-.1-.7-.7-1.2-1.4-1.2l-8.9.7c-.7.1-1.2.7-1.2 1.4.1.7.7 1.2 1.4 1.2"/><path id="Fill-97" class="st17" d="M69.9 310.5l-8.9-1.2c-.7-.1-1.3.4-1.4 1.1-.1.7.4 1.3 1.1 1.4l8.9 1.2c.7.1 1.3-.4 1.4-1.1 0-.7-.4-1.3-1.1-1.4"/><path id="Fill-98" class="st18" d="M19.6 361l8.9-.7c.7-.1 1.2-.7 1.2-1.4-.1-.7-.7-1.2-1.4-1.2l-8.9.7c-.7.1-1.2.7-1.2 1.4.1.8.7 1.3 1.4 1.2"/><path id="Fill-99" class="st18" d="M69.9 358.9l-8.9-1.2c-.7-.1-1.3.4-1.4 1.1-.1.7.4 1.3 1.1 1.4l8.9 1.2c.7.1 1.3-.4 1.4-1.1 0-.7-.4-1.3-1.1-1.4"/><path id="Fill-100" class="st19" d="M50.6 385.6c0 1.4-.6 2.7-1.5 3.6-.9.9-2.2 1.5-3.6 1.5-.6 0-1 .5-1 1 0 .6.5 1 1 1 3.9 0 7.1-3.2 7.1-7.1 0-.6-.5-1-1-1-.6 0-1 .5-1 1"/><path id="Fill-101" class="st17" d="M-1 387.7s-19.6-1.8-29.8 18.2 10.4 27 14.9 8.5S.3 400.8.3 400.8L-1 387.7"/><path id="Fill-102" class="st18" d="M90.6 517.7H-1.3c-1.7 0-3.2-1.4-3.2-3.2V414c0-10.4 8.5-19 19-19h60.3c10.4 0 19 8.5 19 19v100.5c-.1 1.7-1.5 3.2-3.2 3.2"/><path id="Fill-103" class="st18" d="M10.6 532.1h-6c-2.9 0-10.4 1.2-6.1-3.6 4.3-4.8 5.2-10.2 5.2-10.2.3-3.5 1.5-8.3 3.8-8.3h2.4c2.4 0 3.2 2.6 3.6 6.1l1.9 8c.3 4.1-2 8-4.8 8"/><path id="Fill-104" class="st18" d="M32 537.2h-7c-3.4 0-12.1 1.4-7.1-4.2 4.9-5.5 6-11.9 6-11.9.4-4 1.7-9.7 4.4-9.7h2.8c2.7 0 3.7 3 4.1 7l2.2 9.3c.5 5.1-2.1 9.5-5.4 9.5"/><path id="Fill-105" class="st18" d="M78.7 532.1h6c2.9 0 10.4 1.2 6.1-3.6-4.2-4.8-5.2-10.2-5.2-10.2-.3-3.5-1.5-8.3-3.8-8.3h-2.4c-2.4 0-3.2 2.6-3.6 6.1l-1.9 8c-.3 4.1 1.9 8 4.8 8"/><path id="Fill-106" class="st18" d="M56 537.2h7c3.4 0 12.1 1.4 7.1-4.2-4.9-5.5-6-11.9-6-11.9-.4-4-1.7-9.7-4.4-9.7h-2.8c-2.7 0-3.7 3-4.1 7l-2.2 9.3c-.5 5.1 2.1 9.5 5.4 9.5"/><path id="Fill-107" class="st20" d="M23 451c-4.3 0-7.9-1.8-7.9-3.9s3.5-3.9 7.9-3.9 7.9 1.8 7.9 3.9-3.6 3.9-7.9 3.9"/><path id="Fill-108" class="st20" d="M66.2 451c-4.3 0-7.9-1.8-7.9-3.9s3.5-3.9 7.9-3.9c4.3 0 7.9 1.8 7.9 3.9s-3.5 3.9-7.9 3.9"/><path id="Fill-109" class="st19" d="M23 447.3c-2.9 0-5.3-2.4-5.3-5.3v-5.4c0-2.9 2.4-5.3 5.3-5.3s5.3 2.4 5.3 5.3v5.4c.1 2.9-2.3 5.3-5.3 5.3"/><path id="Fill-110" class="st19" d="M66.2 447.3c-2.9 0-5.3-2.4-5.3-5.3v-5.4c0-2.9 2.4-5.3 5.3-5.3s5.3 2.4 5.3 5.3v5.4c0 2.9-2.4 5.3-5.3 5.3"/><path id="Fill-111" class="st17" d="M26.5 434.9c0 1.9-1.6 3.5-3.5 3.5s-3.5-1.6-3.5-3.5 1.6-3.5 3.5-3.5 3.5 1.6 3.5 3.5"/><path id="Fill-112" class="st17" d="M69.7 434.9c0 1.9-1.6 3.5-3.5 3.5s-3.5-1.6-3.5-3.5 1.6-3.5 3.5-3.5 3.5 1.6 3.5 3.5"/><path id="Fill-113" class="st17" d="M61.2 453.7c0 6.8-7.4 12.4-16.6 12.4-9.1 0-16.6-5.5-16.6-12.4"/><path id="Fill-114" class="st21" d="M55.8 462.8c-2.9-2-6.9-3.2-11.2-3.2-4.3 0-8.2 1.2-11.2 3.2 2.9 2 6.9 3.2 11.2 3.2 4.3 0 8.2-1.2 11.2-3.2"/><path id="Fill-115" class="st22" d="M26.3 395h-6.5c-2.7-.6-4.6-2-4.6-3.6 0-2.2 3.5-3.9 7.9-3.9s7.9 1.8 7.9 3.9c-.1 1.6-2 3-4.7 3.6"/><path id="Fill-116" class="st20" d="M23 395.4c-1.2 0-2.3-.1-3.3-.4h6.5c-.9.3-2 .4-3.2.4"/><path id="Fill-117" class="st22" d="M69.5 395H63c-2.7-.6-4.6-2-4.6-3.6 0-2.2 3.5-3.9 7.9-3.9 4.3 0 7.9 1.8 7.9 3.9-.1 1.6-2 3-4.7 3.6"/><path id="Fill-118" class="st20" d="M66.2 395.4c-1.2 0-2.3-.1-3.3-.4h6.6c-1 .3-2.1.4-3.3.4"/><path id="Fill-119" class="st19" d="M23 391.7c-2.9 0-5.3-2.4-5.3-5.3V381c0-2.9 2.4-5.3 5.3-5.3s5.3 2.4 5.3 5.3v5.4c.1 2.9-2.3 5.3-5.3 5.3"/><path id="Fill-120" class="st19" d="M66.2 391.7c-2.9 0-5.3-2.4-5.3-5.3V381c0-2.9 2.4-5.3 5.3-5.3s5.3 2.4 5.3 5.3v5.4c0 2.9-2.4 5.3-5.3 5.3"/><path id="Fill-121" class="st17" d="M26.5 387.2c0 1.9-1.6 3.5-3.5 3.5s-3.5-1.6-3.5-3.5 1.6-3.5 3.5-3.5 3.5 1.5 3.5 3.5"/><path id="Fill-122" class="st17" d="M69.7 387.2c0 1.9-1.6 3.5-3.5 3.5s-3.5-1.6-3.5-3.5 1.6-3.5 3.5-3.5 3.5 1.5 3.5 3.5"/><path id="Fill-123" class="st23" d="M23 343.9c-4.3 0-7.9-1.8-7.9-3.9 0-2.2 3.5-3.9 7.9-3.9s7.9 1.8 7.9 3.9c0 2.1-3.6 3.9-7.9 3.9"/><path id="Fill-124" class="st23" d="M66.2 343.9c-4.3 0-7.9-1.8-7.9-3.9 0-2.2 3.5-3.9 7.9-3.9 4.3 0 7.9 1.8 7.9 3.9 0 2.1-3.5 3.9-7.9 3.9"/><path id="Fill-125" class="st17" d="M18.7 334.9v-5.4c0-1.2.5-2.3 1.3-3.1.8-.8 1.9-1.3 3.1-1.3 1.2 0 2.3.5 3.1 1.3.8.8 1.3 1.9 1.3 3.1v5.4h2v-5.4c0-3.5-2.8-6.3-6.3-6.3s-6.3 2.8-6.3 6.3v5.4h1.8"/><path id="Fill-126" class="st17" d="M61.9 334.9v-5.4c0-1.2.5-2.3 1.3-3.1.8-.8 1.9-1.3 3.1-1.3 1.2 0 2.3.5 3.1 1.3.8.8 1.3 1.9 1.3 3.1v5.4h2v-5.4c0-3.5-2.8-6.3-6.3-6.3s-6.3 2.8-6.3 6.3v5.4h1.8"/><path id="Fill-127" class="st18" d="M-1 452.4s-19.6-1.8-29.8 18.2 10.4 27 14.9 8.5C-11.4 460.7.3 465.5.3 465.5L-1 452.4"/><path id="Fill-128" class="st18" d="M90.2 452.4s19.7-1.8 29.8 18.2c10.1 20-10.4 27-14.9 8.5-4.5-18.4-16.2-13.6-16.2-13.6l1.3-13.1"/><path id="Fill-129" class="st17" d="M93.7 387.6s14.2 13.7 5.8 34.4c-8.4 20.8-27.2 9.8-16.2-5.7s-.4-21.2-.4-21.2l10.8-7.5"/><path id="Fill-130" class="st16" d="M-3.6 336.1s-13.6 14.3-4.3 34.6c9.3 20.4 27.6 8.6 15.9-6.4-11.6-15-.6-21.2-.6-21.2l-11-7"/><path id="Fill-131" class="st16" d="M90.2 347.5s19.7 1.8 29.8-18.2-10.4-27-14.9-8.5c-4.5 18.4-16.2 13.6-16.2 13.6l1.3 13.1"/><path id="Fill-132" class="st19" d="M50.3 386.6h3.4c.5 0 1-.4 1-1 0-.5-.4-1-1-1h-3.4c-.5 0-1 .4-1 1s.4 1 1 1"/><path id="Fill-133" class="st17" d="M41.5 329.5c-.4.6-.7 1.4-.7 2.2 0 2.1 1.7 3.8 3.8 3.8 2.1 0 3.8-1.7 3.8-3.8 0-.8-.2-1.5-.7-2.2h-6.2"/><path id="Fill-134" class="st17" d="M19.6 417.3l8.9-.7c.7-.1 1.2-.7 1.2-1.4-.1-.7-.7-1.2-1.4-1.2l-8.9.7c-.7.1-1.2.7-1.2 1.4.1.7.7 1.2 1.4 1.2"/><path id="Fill-135" class="st17" d="M69.9 415.1l-8.9-1.2c-.7-.1-1.3.4-1.4 1.1-.1.7.4 1.3 1.1 1.4l8.9 1.2c.7.1 1.3-.4 1.4-1.1 0-.7-.4-1.3-1.1-1.4"/></g><g id="Group-2" class="st24"><path id="Fill-28" class="st19" d="M-61.202 316.52c-7.727-1.643-12.656-9.234-11.014-16.96 1.643-7.728 9.233-12.658 16.96-11.015 4.794 1.018 8.696 4.302 10.387 8.853.4 1.005-.14 2.116-1.14 2.516-1.003.4-2.115-.143-2.514-1.148-1.235-3.33-4.11-5.68-7.533-6.407-5.576-1.19-11.15 2.43-12.335 8.01-1.184 5.57 2.436 11.15 8.01 12.33a10.462 10.462 0 0 0 9.488-2.79c.774-.758 2.01-.8 2.766-.028.756.774.8 2.01.026 2.766-3.397 3.47-8.298 4.88-13.09 3.863"/><path id="Fill-29" class="st19" d="M-51.695 329.99c-4.793-1.018-8.695-4.3-10.386-8.852-.4-1.005.14-2.117 1.14-2.517 1.003-.39 2.115.15 2.515 1.15 1.234 3.33 4.11 5.68 7.532 6.41 5.575 1.19 11.15-2.43 12.334-8.01 1.186-5.57-2.434-11.15-8.01-12.33a10.462 10.462 0 0 0-9.486 2.79c-.772.754-2.01.8-2.764.024-.755-.774-.8-2.01-.025-2.765 3.494-3.45 8.395-4.863 13.09-3.865 7.727 1.64 12.657 9.233 11.014 16.96-1.525 7.65-9.136 12.678-16.96 11.015"/></g><g id="Group-2_1_" class="st25"><path id="Fill-28_1_" class="st19" d="M180.694 312.292c-2.032 14.458-15.472 24.586-29.93 22.554s-24.586-15.472-22.554-29.93c1.253-8.913 6.864-16.506 14.973-20.314 1.836-.853 3.945-.05 4.798 1.785.86 1.837.06 3.946-1.78 4.798-5.942 2.8-9.95 8.296-10.85 14.733-1.475 10.497 5.844 20.21 16.34 21.685s20.21-5.844 21.686-16.34c.905-6.438-1.53-12.84-6.374-17.155-1.53-1.326-1.62-3.56-.394-5.104 1.327-1.53 3.56-1.62 5.106-.394 6.945 5.924 10.246 14.77 8.99 23.682"/><path id="Fill-29_1_" class="st19" d="M204.197 293.076a26.44 26.44 0 0 1-14.973 20.314c-1.836.853-3.945.05-4.798-1.785-.852-1.837-.05-3.946 1.785-4.8 5.95-2.798 9.96-8.294 10.86-14.73 1.48-10.498-5.84-20.21-16.34-21.686s-20.21 5.84-21.68 16.34c-.903 6.43 1.53 12.83 6.376 17.15 1.53 1.32 1.62 3.56.393 5.1-1.327 1.53-3.56 1.62-5.105.393-6.745-5.896-10.046-14.74-8.794-23.654 2.033-14.458 15.473-24.586 29.93-22.554s24.39 15.443 22.357 29.9"/></g></g></g></g></svg>