<svg width="1075" height="274" viewBox="0 0 1075 274" xmlns="http://www.w3.org/2000/svg"><title>logo-white</title><g fill="none" fill-rule="evenodd"><path d="M3.12 167.55c0-42.473 57.687-119.388 87.32-156.094 8.788-10.884 25.474-10.884 34.26 0 29.63 36.706 87.32 113.62 87.32 156.094 0 57.154-46.765 103.485-104.45 103.485-57.686 0-104.45-46.33-104.45-103.485z" stroke="#FFF" stroke-width="5"/><path d="M170.043 133.463a5.81 5.81 0 0 0-7.344 3.41l-23.52 63.997-22.59-61.144v-.003l-6.57-16.747.005-.057c-5.14-11.34-10.277-26.57-10.277-30.41 0-5.68 4.662-10.3 10.396-10.3 5.73 0 10.395 4.62 10.395 10.3 0 2.97-3.085 12.78-6.865 22.32l6.31 16.25c5.86-15.12 12.16-32.722 12.16-38.526 0-13.208-8.665-21.795-21.996-21.795-13.33 0-22 8.586-22 21.794 0 6.96 9.065 30.906 15.56 47.166l6.442 15.757.015-.04 23.62 63.955c.803 2.27 2.982 3.75 5.39 3.75 2.41 0 4.59-1.48 5.394-3.75l28.915-78.66c1.146-2.96-.46-6.14-3.443-7.277zm-69.616 15.2L81.24 200.87l-23.637-63.996a5.805 5.805 0 0 0-7.34-3.41c-2.986 1.135-4.59 4.318-3.444 7.273L75.84 219.4c.802 2.273 2.982 3.75 5.392 3.75 2.406 0 4.472-1.477 5.39-3.75l20.065-54.59-6.27-16.148zm293.457 71.92c-3.657 0-6.96-2.256-8.18-5.72l-35.837-97.603-35.665 97.603c-1.392 3.464-4.522 5.72-8.18 5.72-3.656 0-6.95-2.256-8.178-5.72l-44.01-119.97c-1.745-4.497.692-9.356 5.215-11.087 4.52-1.56 9.39.69 11.13 5.195l35.84 97.61L341.69 89c1.22-3.463 4.53-5.712 8.18-5.712 3.648 0 6.96 2.25 8.17 5.713l35.846 97.61L429.55 89c1.738-4.505 6.606-6.754 11.136-5.194 4.514 1.73 6.952 6.59 5.214 11.088l-43.837 119.97c-1.226 3.463-4.53 5.72-8.18 5.72zm87.305-18.03h74.46c4.86 0 8.69 3.82 8.69 8.67s-3.83 8.667-8.7 8.667h-83.16c-4.694 0-8.697-3.817-8.697-8.667V92.476c0-4.86 4.002-8.675 8.697-8.675h81.423c4.867 0 8.69 3.82 8.69 8.68 0 4.85-3.823 8.67-8.69 8.67h-72.72v101.41zM914 160.247h-41.29c-4.867 0-8.697-3.99-8.697-8.667 0-4.86 3.83-8.668 8.698-8.668h41.3c4.88 0 8.7 3.81 8.7 8.668 0 4.678-3.82 8.667-8.7 8.667zm-368.7 0h-41.29c-4.867 0-8.697-3.99-8.697-8.667 0-4.86 3.83-8.668 8.698-8.668h41.3c4.88 0 8.7 3.81 8.7 8.668 0 4.678-3.82 8.667-8.7 8.667zm127.93 59.816h-75.85c-4.695 0-8.7-3.816-8.7-8.667V92.47c0-4.852 4.005-8.668 8.7-8.668 4.87 0 8.7 3.816 8.7 8.667v110.26h67.154c4.868 0 8.69 3.81 8.69 8.66s-3.822 8.664-8.69 8.664zm125.947-.174h-94.81c-3.31 0-6.268-1.91-7.833-5.03-1.392-2.95-1.046-6.59 1.046-9.19l83.506-104.53H707.15c-4.696 0-8.707-3.82-8.707-8.67 0-4.86 4.01-8.676 8.705-8.676h92.03c3.303 0 6.268 1.91 7.825 4.86 1.4 3.114 1.046 6.59-1.046 9.18l-83.5 104.717h76.725c4.695 0 8.698 3.817 8.698 8.668 0 4.68-4.003 8.67-8.698 8.67zm50.43-17.34h74.46c4.87 0 8.7 3.813 8.7 8.67 0 4.85-3.83 8.662-8.7 8.662h-83.16c-4.696 0-8.7-3.818-8.7-8.668V92.474c0-4.86 4.004-8.674 8.7-8.674h81.42c4.87 0 8.7 3.82 8.7 8.68 0 4.85-3.83 8.667-8.7 8.667h-72.72V202.56zm215.71 18.03c-2.61 0-5.04-1.22-6.78-3.12l-84.03-100.727v95.002c0 4.85-3.83 8.667-8.697 8.667-4.876 0-8.706-3.815-8.706-8.666V92.82c0-3.644 2.264-6.936 5.74-8.143 3.484-1.222 7.306-.18 9.57 2.594l84.205 100.55V92.99c0-4.85 3.83-8.667 8.695-8.667 4.697 0 8.7 3.816 8.7 8.667v118.927c0 3.636-2.43 6.763-5.74 8.142-1.046.35-2.084.52-2.957.52z" fill="#FFF"/></g></svg>