<?xml version="1.0" encoding="utf-8"?>
<!-- Generator: Adobe Illustrator 19.0.0, SVG Export Plug-In . SVG Version: 6.00 Build 0)  -->
<svg version="1.1" id="Layer_1" xmlns="http://www.w3.org/2000/svg" xmlns:xlink="http://www.w3.org/1999/xlink" x="0px" y="0px"
	 viewBox="-145 277 60 60" style="enable-background:new -145 277 60 60;" xml:space="preserve">
<style type="text/css">
	.st0{fill:#fff;}
</style>
<g id="XMLID_203_">
	<path id="XMLID_209_" class="st0" d="M-115.2,285.5"/>
	<path class="st0" id="XMLID_207_" d="M-123.6,319c-0.1,0-0.2,0-0.4,0c-0.8-0.2-1.3-1-1.1-1.8c0,0,0.9-4.1-1.7-7.4c-2.2-2.8-4.7-6.6-4.7-11.4
		c0-9,7.3-16.4,16.4-16.4s16.4,7.3,16.4,16.4c0,4.8-2.5,8.6-4.7,11.4c-2.6,3.3-1.7,7.4-1.7,7.4c0.2,0.8-0.3,1.6-1.1,1.8
		c-0.8,0.2-1.6-0.3-1.8-1.1c0-0.2-1.2-5.5,2.2-9.9c2-2.6,4-5.7,4-9.6c0-7.4-6-13.4-13.4-13.4c-7.4,0-13.4,6-13.4,13.4
		c0,3.9,2,7,4,9.6c3.5,4.5,2.3,9.7,2.2,9.9C-122.3,318.6-122.9,319-123.6,319z"/>
	<path class="st0" id="XMLID_206_" d="M-107.5,322.4h-15.1c-0.5,0-1-0.5-1-1c0-0.5,0.5-1,1-1h15.1c0.5,0,1,0.5,1,1
		C-106.5,322-106.9,322.4-107.5,322.4z"/>
	<path class="st0" id="XMLID_205_" d="M-107,325.4H-123c-0.5,0-1-0.5-1-1s0.5-1,1-1h16.1c0.5,0,1,0.5,1,1C-106,325-106.4,325.4-107,325.4z"/>
	<path class="st0" id="XMLID_210_" d="M-109,328.5h-12.5c-0.5,0-1-0.5-1-1c0-0.5,0.5-1,1-1h12.5c0.5,0,1,0.5,1,1C-108,328-108.4,328.5-109,328.5
		z"/>
	<path class="st0" id="XMLID_204_" d="M-111.1,329.7c-0.3,1.6-1.8,2.3-4.1,2.3s-3.6-0.8-4.1-2.3"/>
</g>
</svg>
