<?xml version="1.0" encoding="utf-8"?>
<!-- Generator: Adobe Illustrator 19.0.0, SVG Export Plug-In . SVG Version: 6.00 Build 0)  -->
<svg version="1.1" id="Layer_1" xmlns="http://www.w3.org/2000/svg" xmlns:xlink="http://www.w3.org/1999/xlink" x="0px" y="0px"
	 viewBox="-105 277 60 60" style="enable-background:new -105 277 60 60;" xml:space="preserve">
	 	 <style type="text/css">
          	.st0{fill:#fff;}
          </style>
<g>
	<path class="st0" d="M-75,332c-11.5,0-21-9.4-21-21c0-11.5,9.4-21,21-21s21,9.4,21,21S-63.5,332-75,332z M-75,292.7c-10.1,0-18.4,8.2-18.4,18.4
		s8.2,18.4,18.4,18.4s18.4-8.2,18.4-18.4S-64.9,292.7-75,292.7z"/>
	<circle class="st0" cx="-74.8" cy="312" r="2.3"/>
	<path class="st0" d="M-74.1,308.1h-1c-0.2,0-0.4-0.1-0.4-0.2v-10.6c0-0.1,0.2-0.2,0.4-0.2h1c0.2,0,0.4,0.1,0.4,0.2v10.6
		C-73.7,307.9-73.9,308.1-74.1,308.1z"/>
	<path class="st0" d="M-71,310.8l-0.6-1c-0.1-0.2-0.1-0.4,0-0.5l4.4-2.6c0.1-0.1,0.4,0,0.5,0.2l0.6,1c0.1,0.2,0.1,0.4,0,0.5l-4.4,2.6
		C-70.6,311.1-70.8,311-71,310.8z"/>
	<path class="st0" d="M-76.9,285.8v1.8c0,1.2,0.9,2.1,2.1,2.1c1.2,0,2.1-0.9,2.1-2.1v-1.8H-76.9z"/>
	<path class="st0" d="M-68.5,283.2c0,0.7-0.5,1.2-1.2,1.2h-9.7c-0.7,0-1.2-0.5-1.2-1.2l0,0c0-0.7,0.5-1.2,1.2-1.2h9.7
		C-69,282-68.5,282.5-68.5,283.2L-68.5,283.2z"/>
</g>
</svg>
