<?xml version="1.0" encoding="utf-8"?>
<!-- Generator: Adobe Illustrator 16.0.0, SVG Export Plug-In . SVG Version: 6.00 Build 0)  -->
<!DOCTYPE svg PUBLIC "-//W3C//DTD SVG 1.1//EN" "http://www.w3.org/Graphics/SVG/1.1/DTD/svg11.dtd">
<svg version="1.1" id="Layer_1" xmlns="http://www.w3.org/2000/svg" xmlns:xlink="http://www.w3.org/1999/xlink" x="0px" y="0px"
	 width="96.167px" height="105.656px" viewBox="0 0 96.167 105.656" enable-background="new 0 0 96.167 105.656"
	 xml:space="preserve">
<g>
	<path fill="#282829" d="M48.225,0.081c-12.399,0-22.449,10.122-22.449,22.609c0,12.486,10.05,22.607,22.449,22.607
		c12.399,0,22.448-10.122,22.448-22.607C70.673,10.203,60.625,0.081,48.225,0.081L48.225,0.081z M48.369,31.042
		c-9.597,0-16.038-4.371-16.038-4.371c-1.036-0.703-1.604-2.269-1.262-3.479l1.651-5.846c0.342-1.21,1.405-1.539,2.362-0.73
		c0,0,3.976,3.358,13.286,3.358c9.023,0,12.866-3.301,12.866-3.301c0.952-0.816,2.015-0.495,2.363,0.713l1.801,6.24
		c0.349,1.208-0.222,2.76-1.268,3.45C64.131,27.078,58.118,31.042,48.369,31.042L48.369,31.042z"/>
	<polygon fill="#282829" points="1.243,62.968 7.281,82.171 13.794,82.171 16.18,74.33 18.722,82.171 24.92,82.171 30.479,62.956 
		24.124,62.956 21.582,71.772 18.722,62.968 13.271,62.968 10.762,71.743 7.916,62.968 1.243,62.968 	"/>
	<polygon fill="#282829" points="75.228,62.928 75.228,82.171 81.93,82.171 81.93,74.971 87.649,82.171 94.482,82.171 87.649,71.93 
		93.371,62.968 86.696,62.968 81.928,69.529 81.928,62.928 75.228,62.928 	"/>
	<path fill="#282829" d="M41.676,62.764c-5.932,0-10.742,4.437-10.742,9.909c0,5.471,4.81,9.908,10.742,9.908
		s10.741-4.438,10.741-9.908C52.417,67.2,47.608,62.764,41.676,62.764L41.676,62.764z M41.676,77.008
		c-2.325,0-4.21-1.941-4.21-4.335c0-2.396,1.885-4.337,4.21-4.337c2.327,0,4.21,1.941,4.21,4.337
		C45.887,75.066,44.003,77.008,41.676,77.008L41.676,77.008z"/>
	<path fill="#282829" d="M68.655,74.489c0,0,3.219,0.016,3.219-5.413c0-5.432-5.188-6.148-8.4-6.148c-3.213,0-8.537,0-8.537,0v19.27
		h6.409v-5.543h1.404c0,0,1.389-0.044,1.979,1.779c0.579,1.796,0.907,3.737,0.907,3.737h6.991
		C72.626,82.171,72.486,75.629,68.655,74.489L68.655,74.489z M63.568,71.776l-2.338-0.004V68.01c0,0,1.094-0.01,1.291-0.018
		c0.976-0.034,2.92,0.021,2.92,1.898C65.441,71.805,63.568,71.776,63.568,71.776L63.568,71.776z"/>
	<polygon fill="#282829" points="3.271,85.364 3.271,104.47 8.854,104.47 8.854,95.582 15.345,104.566 21.384,104.566 
		21.384,85.364 15.982,85.364 15.982,93.187 10.103,85.364 3.271,85.364 	"/>
	<polygon fill="#282829" points="35.181,85.347 35.181,104.454 40.764,104.454 40.764,95.566 47.257,104.552 53.293,104.552 
		53.293,85.347 47.893,85.347 47.893,93.17 42.011,85.347 35.181,85.347 	"/>
	<polygon fill="#282829" points="31.462,104.477 25.135,104.477 25.135,85.364 31.462,85.364 31.462,104.477 	"/>
	<path fill="#282829" d="M88.197,104.409h7.046l-6.935-19.045h-8.581l-6.673,19.043h7.025l0.883-2.866h6.296L88.197,104.409
		L88.197,104.409z M82.393,96.886l1.625-5.28l1.723,5.28H82.393L82.393,96.886z"/>
	<path fill="#282829" d="M64.91,85.364v11.989c-0.148,1.079-0.643,2.629-2.218,2.498c-2.03-0.169-3.113-2.158-3.113-2.158
		l-4.077,2.786c0,0,1.425,4.602,7.951,4.602c7.037,0,7.951-4.135,7.951-6.374c0-0.927,0-1.821,0-1.821V85.364H64.91L64.91,85.364z"
		/>
	<path fill="#282829" d="M52.176,21.924c-0.455,0.767-0.646,1.696-0.433,2.634c0.438,1.933,2.352,3.15,4.274,2.706
		c1.924-0.44,3.126-2.372,2.691-4.306c-0.213-0.943-0.789-1.698-1.535-2.189L52.176,21.924L52.176,21.924z"/>
	<path fill="#282829" d="M44.27,21.924c0.455,0.767,0.648,1.696,0.435,2.634c-0.439,1.933-2.354,3.15-4.275,2.706
		c-1.923-0.44-3.128-2.372-2.691-4.306c0.213-0.943,0.788-1.698,1.533-2.189L44.27,21.924L44.27,21.924z"/>
	<polygon fill="#282829" points="30.935,37.109 48.225,58.472 65.303,37.321 30.935,37.109 	"/>
</g>
</svg>
