<?xml version="1.0" encoding="UTF-8" standalone="no"?>
<!-- Created with Inkscape (http://www.inkscape.org/) -->

<svg
   xmlns:dc="http://purl.org/dc/elements/1.1/"
   xmlns:cc="http://creativecommons.org/ns#"
   xmlns:rdf="http://www.w3.org/1999/02/22-rdf-syntax-ns#"
   xmlns:svg="http://www.w3.org/2000/svg"
   xmlns="http://www.w3.org/2000/svg"
   version="1.1"
   width="44.896999"
   height="58.390999"
   viewBox="0 0 44.896998 58.390999"
   id="Layer_1"
   xml:space="preserve"><metadata
     id="metadata3091"><rdf:RDF><cc:Work
         rdf:about=""><dc:format>image/svg+xml</dc:format><dc:type
           rdf:resource="http://purl.org/dc/dcmitype/StillImage" /><dc:title></dc:title></cc:Work></rdf:RDF></metadata><defs
     id="defs3089" /><g
     transform="translate(-25.776001,-0.081)"
     id="g3059"><path
       d="m 48.225,0.081 c -12.399,0 -22.449,10.122 -22.449,22.609 0,12.486 10.05,22.607 22.449,22.607 12.399,0 22.448,-10.122 22.448,-22.607 0,-12.487 -10.048,-22.609 -22.448,-22.609 l 0,0 z m 0.144,30.961 c -9.597,0 -16.038,-4.371 -16.038,-4.371 -1.036,-0.703 -1.604,-2.269 -1.262,-3.479 l 1.651,-5.846 c 0.342,-1.21 1.405,-1.539 2.362,-0.73 0,0 3.976,3.358 13.286,3.358 9.023,0 12.866,-3.301 12.866,-3.301 0.952,-0.816 2.015,-0.495 2.363,0.713 l 1.801,6.24 c 0.349,1.208 -0.222,2.76 -1.268,3.45 0.001,0.002 -6.012,3.966 -15.761,3.966 l 0,0 z"
       id="path3061"
       style="fill:#282829" /><path
       d="m 52.176,21.924 c -0.455,0.767 -0.646,1.696 -0.433,2.634 0.438,1.933 2.352,3.15 4.274,2.706 1.924,-0.44 3.126,-2.372 2.691,-4.306 -0.213,-0.943 -0.789,-1.698 -1.535,-2.189 l -4.997,1.155 0,0 z"
       id="path3081"
       style="fill:#282829" /><path
       d="m 44.27,21.924 c 0.455,0.767 0.648,1.696 0.435,2.634 -0.439,1.933 -2.354,3.15 -4.275,2.706 -1.923,-0.44 -3.128,-2.372 -2.691,-4.306 0.213,-0.943 0.788,-1.698 1.533,-2.189 l 4.998,1.155 0,0 z"
       id="path3083"
       style="fill:#282829" /><polygon
       points="48.225,58.472 65.303,37.321 30.935,37.109 30.935,37.109 "
       id="polygon3085"
       style="fill:#282829" /></g></svg>