<?xml version="1.0" encoding="utf-8"?>
<!-- Generator: Adobe Illustrator 18.1.1, SVG Export Plug-In . SVG Version: 6.00 Build 0)  -->
<svg version="1.1" id="Layer_1" xmlns="http://www.w3.org/2000/svg" xmlns:xlink="http://www.w3.org/1999/xlink" x="0px" y="0px"
	 viewBox="0 0 512 512" enable-background="new 0 0 512 512" xml:space="preserve">
<g id="V1" display="none">
	<path display="inline" fill="#FFFFFF" d="M543.5,39.5H173.9c-18.5,0-33.6,15-33.6,33.6v50.3H73.2c-18.5,0-33.6,15-33.6,33.6V409
		c0,18.5,15,33.6,33.6,33.6h58.7c4.6,0,8.4,3.8,8.4,8.4v92.4c0,13.5,8.2,25.8,20.7,31.1c4.1,1.7,8.5,2.6,12.9,2.6
		c8.8,0,17.3-3.4,23.8-9.9l118.8-118.8c0,0,4.4-5.6,14-5.6c9.8,0,128.8,0,128.8,0c18.5,0,33.6-15,33.6-33.6V342h50.3
		c18.5,0,33.6-15,33.6-33.6V73.1C577,54.5,562,39.5,543.5,39.5z M476.3,409c0,9.3-7.6,16.8-16.8,16.8c0,0-123.3,0-128.8,0
		c-16.3,0-22.3,8.4-22.3,8.4S207.6,535,190.8,551.9c-18,18-33.6,3.3-33.6-8.4c0-8.4,0-100.8,0-100.8c0-9.3-7.6-16.8-16.8-16.8H73.2
		c-9.3,0-16.8-7.6-16.8-16.8V157.1c0-9.3,7.6-16.8,16.8-16.8h386.3c9.3,0,16.8,7.6,16.8,16.8L476.3,409L476.3,409z M560.3,308.2
		c0,9.3-7.6,16.8-16.8,16.8h-50.3V157.1c0-18.5-15-33.6-33.6-33.6H157.1V73.1c0-9.3,7.6-16.8,16.8-16.8h369.5
		c9.3,0,16.8,7.6,16.8,16.8V308.2z"/>
	<g display="inline">
		<path fill="#FFFFFF" d="M1455-18.4h-211.1c-10.6,0-19.3,8.5-19.3,19.3v28.8h-38.4c-10.6,0-19.3,8.5-19.3,19.3v143.9
			c0,10.6,8.5,19.3,19.3,19.3h33.6c2.7,0,4.8,2.2,4.8,4.8v52.8c0,7.8,4.6,14.7,11.8,17.8c2.4,1,4.9,1.5,7.3,1.5c5,0,9.9-2,13.5-5.6
			l67.9-67.9c0,0,2.4-3.2,8-3.2c5.6,0,73.6,0,73.6,0c10.6,0,19.3-8.5,19.3-19.3v-38.4h28.8c10.6,0,19.3-8.5,19.3-19.3V0.9
			C1474.1-9.7,1465.6-18.4,1455-18.4z M1416.6,192.8c0,5.4-4.3,9.6-9.6,9.6c0,0-70.4,0-73.6,0c-9.4,0-12.8,4.8-12.8,4.8
			s-57.5,57.5-67.2,67.2c-10.2,10.2-19.3,1.8-19.3-4.8c0-4.8,0-57.5,0-57.5c0-5.4-4.3-9.6-9.6-9.6h-38.4c-5.4,0-9.6-4.3-9.6-9.6
			V48.8c0-5.4,4.3-9.6,9.6-9.6h220.7c5.4,0,9.6,4.3,9.6,9.6L1416.6,192.8L1416.6,192.8z M1464.6,135.2c0,5.4-4.3,9.6-9.6,9.6h-28.8
			v-96c0-10.6-8.5-19.3-19.3-19.3h-172.8V0.9c0-5.4,4.3-9.6,9.6-9.6h211.1c5.4,0,9.6,4.3,9.6,9.6v134.3H1464.6z"/>
		<path fill="#FFFFFF" d="M1229.4,96.8h62.4c2.7,0,4.8-2.2,4.8-4.8c0-2.6-2.2-4.8-4.8-4.8h-62.4c-2.7,0-4.8,2.2-4.8,4.8
			C1224.6,94.6,1226.7,96.8,1229.4,96.8z"/>
		<path fill="#FFFFFF" d="M1363.8,116h-134.4c-2.7,0-4.8,2.2-4.8,4.8c0,2.6,2.2,4.8,4.8,4.8h134.4c2.7,0,4.8-2.2,4.8-4.8
			C1368.6,118.2,1366.4,116,1363.8,116z"/>
		<path fill="#FFFFFF" d="M1330.2,144.8h-100.8c-2.7,0-4.8,2.2-4.8,4.8s2.2,4.8,4.8,4.8h100.8c2.7,0,4.8-2.2,4.8-4.8
			S1332.9,144.8,1330.2,144.8z"/>
	</g>
	<g display="inline">
		<path fill="#FFFFFF" d="M1395.9,531c-1.1,0-2.3-0.5-3.2-1.3l-34.1-34.1h-100.1c-2.4,0-4.4-2-4.4-4.4V367.1c0-2.4,1.9-4.4,4.4-4.4
			h159.5c2.4,0,4.4,2,4.4,4.4v124.1c0,2.4-1.9,4.4-4.4,4.4h-17.7v31c0,1.8-1.1,3.4-2.7,4.1C1397.1,530.9,1396.5,531,1395.9,531z
			 M1263,486.7h97.5c1.2,0,2.3,0.5,3.2,1.3l27.9,27.9v-24.7c0-2.4,1.9-4.4,4.4-4.4h17.7V371.6H1263V486.7z"/>
	</g>
	<g display="inline">
		<g>
			<path fill="#FFFFFF" d="M1356,460.1h-35.5c-1.2,0-2.3-0.5-3.2-1.3l-13.3-13.3c-1.7-1.7-1.7-4.5,0-6.2c1.7-1.7,4.5-1.7,6.2,0
				l11.9,11.9h31.8l11.9-11.9c1.7-1.7,4.5-1.7,6.2,0c1.7,1.7,1.7,4.5,0,6.2l-13,13.3C1358.3,459.6,1357.2,460.1,1356,460.1z"/>
		</g>
		<g>
			<path fill="#FFFFFF" d="M1320.6,420.2c-2.4,0-4.4-2-4.4-4.4v-8.9c0-2.4,1.9-4.4,4.4-4.4s4.4,2,4.4,4.4v8.9
				C1325.1,418.3,1323,420.2,1320.6,420.2z"/>
		</g>
		<g>
			<path fill="#FFFFFF" d="M1356,420.2c-2.4,0-4.4-2-4.4-4.4v-8.9c0-2.4,1.9-4.4,4.4-4.4s4.4,2,4.4,4.4v8.9
				C1360.4,418.3,1358.5,420.2,1356,420.2z"/>
		</g>
	</g>
	<g display="inline">
		<g>
			<path fill="#FFFFFF" d="M310.2,358.3H224c-2.8,0-5.6-1.1-7.7-3.2l-32.3-32.3c-4.3-4.3-4.3-11,0-15.2c4.3-4.3,11-4.3,15.2,0
				l29.1,29.1h77.3l29.1-29.1c4.3-4.3,11-4.3,15.2,0c4.3,4.3,4.3,11,0,15.2l-32.2,32.3C315.8,357.2,313.1,358.3,310.2,358.3z"/>
		</g>
		<g>
			<path fill="#FFFFFF" d="M224,261.3c-6,0-10.7-4.9-10.7-10.7V229c0-6,4.9-10.7,10.7-10.7c6,0,10.7,4.9,10.7,10.7v21.6
				C234.8,256.6,230,261.3,224,261.3z"/>
		</g>
		<g>
			<path fill="#FFFFFF" d="M310.2,261.3c-6,0-10.7-4.9-10.7-10.7V229c0-6,4.9-10.7,10.7-10.7c6,0,10.7,4.9,10.7,10.7v21.6
				C320.9,256.6,316.2,261.3,310.2,261.3z"/>
		</g>
	</g>
	<g display="inline">
		<path fill="#FFFFFF" d="M1227.6,575.3c-0.6,0-1.1-0.1-1.7-0.4c-1.7-0.7-2.7-2.3-2.7-4.1v-31h-8.9c-2.4,0-4.4-2-4.4-4.4V429.1
			c0-2.4,1.9-4.4,4.4-4.4h44.4v8.9h-39.9v97.5h8.9c2.4,0,4.4,2,4.4,4.4v24.7l27.9-27.9c0.9-0.9,1.9-1.3,3.2-1.3h79.7v-39.9h8.9v44.4
			c0,2.4-1.9,4.4-4.4,4.4H1265l-34.1,34.1C1229.9,574.9,1228.7,575.3,1227.6,575.3z"/>
	</g>
</g>
<g id="V2" display="none">
	<g display="inline">
		<path fill="#FFFFFF" d="M549.6,50.8c9.4,0,17.1,7.7,17.1,17.1v245.7c0,9.4-7.7,17.1-17.1,17.1H169.2c-9.4,0-17.1-7.7-17.1-17.1
			V67.9c0-9.4,7.7-17.1,17.1-17.1H549.6 M549.6,48.4H169.2c-10.7,0-19.5,8.8-19.5,19.5v245.7c0,10.7,8.8,19.5,19.5,19.5h380.4
			c10.7,0,19.5-8.8,19.5-19.5V67.9C569.1,57.2,560.3,48.4,549.6,48.4L549.6,48.4z"/>
	</g>
	<g display="inline" opacity="0.9">
		<path fill="#001021" d="M465,435.7H69.3c-10.7,0-19.5-8.8-19.5-19.5V150.4c0-10.7,8.8-19.5,19.5-19.5H465
			c10.7,0,19.5,8.8,19.5,19.5v265.8C484.5,426.9,475.7,435.7,465,435.7z"/>
	</g>
	<g display="inline">
		<g>
			<path fill="#FFFFFF" d="M310.2,358.3H224c-2.8,0-5.6-1.1-7.7-3.2l-32.3-32.3c-4.3-4.3-4.3-11,0-15.2c4.3-4.3,11-4.3,15.2,0
				l29.1,29.1h77.3l29.1-29.1c4.3-4.3,11-4.3,15.2,0c4.3,4.3,4.3,11,0,15.2l-32.2,32.3C315.8,357.2,313.1,358.3,310.2,358.3z"/>
		</g>
		<g>
			<path fill="#FFFFFF" d="M224,261.3c-6,0-10.7-4.9-10.7-10.7V229c0-6,4.9-10.7,10.7-10.7c6,0,10.7,4.9,10.7,10.7v21.6
				C234.8,256.6,230,261.3,224,261.3z"/>
		</g>
		<g>
			<path fill="#FFFFFF" d="M310.2,261.3c-6,0-10.7-4.9-10.7-10.7V229c0-6,4.9-10.7,10.7-10.7c6,0,10.7,4.9,10.7,10.7v21.6
				C320.9,256.6,316.2,261.3,310.2,261.3z"/>
		</g>
	</g>
	<defs>
		<filter id="Adobe_OpacityMaskFilter" filterUnits="userSpaceOnUse" x="49.8" y="130.9" width="434.7" height="304.8">
			<feColorMatrix  type="matrix" values="1 0 0 0 0  0 1 0 0 0  0 0 1 0 0  0 0 0 1 0"/>
		</filter>
	</defs>
	<mask maskUnits="userSpaceOnUse" x="49.8" y="130.9" width="434.7" height="304.8" id="SVGID_1_" display="inline">
		<g filter="url(#Adobe_OpacityMaskFilter)">
			
				<linearGradient id="SVGID_2_" gradientUnits="userSpaceOnUse" x1="229.05" y1="107" x2="229.05" y2="357.1" gradientTransform="matrix(1.2188 0 0 1.2188 -10.6972 0.4904)">
				<stop  offset="0" style="stop-color:#FFFFFF"/>
				<stop  offset="5.845184e-02" style="stop-color:#E5E5E5"/>
				<stop  offset="0.207" style="stop-color:#A9A9A9"/>
				<stop  offset="0.355" style="stop-color:#767676"/>
				<stop  offset="0.4989" style="stop-color:#4B4B4B"/>
				<stop  offset="0.6378" style="stop-color:#2B2B2B"/>
				<stop  offset="0.7704" style="stop-color:#131313"/>
				<stop  offset="0.8941" style="stop-color:#050505"/>
				<stop  offset="1" style="stop-color:#000000"/>
			</linearGradient>
			<rect x="28.9" y="130.9" fill="url(#SVGID_2_)" width="479.1" height="304.8"/>
		</g>
	</mask>
	<path display="inline" mask="url(#SVGID_1_)" fill="#FFFFFF" d="M465,133.3c9.4,0,17.1,7.7,17.1,17.1v265.8
		c0,9.4-7.7,17.1-17.1,17.1H69.3c-9.4,0-17.1-7.7-17.1-17.1V150.4c0-9.4,7.7-17.1,17.1-17.1H465 M465,130.9H69.3
		c-10.7,0-19.5,8.8-19.5,19.5v265.8c0,10.7,8.8,19.5,19.5,19.5H465c10.7,0,19.5-8.8,19.5-19.5V150.4
		C484.5,139.7,475.7,130.9,465,130.9L465,130.9z"/>
	
		<linearGradient id="SVGID_3_" gradientUnits="userSpaceOnUse" x1="33.1959" y1="301.8388" x2="33.1959" y2="150.5167" gradientTransform="matrix(0.7804 0 0 -0.7651 242.0056 662.8782)">
		<stop  offset="0" style="stop-color:#010621"/>
		<stop  offset="1" style="stop-color:#18E598"/>
	</linearGradient>
	<polygon display="inline" fill="url(#SVGID_3_)" points="248.2,547.7 483.6,431.9 52.2,431.9 	"/>
	<g display="inline">
		<path fill="none" stroke="#FFFFFF" stroke-width="2" stroke-miterlimit="10" d="M507.3,590.2L453.6,487c-1.7-3.3-9.5-6.3-17.4-6.3
			H107.9c-7.8,0-15.7,3.4-17.4,6.7L36.8,589.9c-2.9,5.7,3.2,10.2,13.8,10.2h442.8C504,600.1,510.2,596,507.3,590.2z"/>
		<polygon fill="none" stroke="#FFFFFF" stroke-width="2" stroke-miterlimit="10" points="442.2,586.7 406,491.6 125.4,491.6 
			86,586.7 		"/>
		<path fill="none" stroke="#FFFFFF" stroke-width="2" stroke-miterlimit="10" d="M452.1,541c8.5,0,13.8-3.3,11.7-7.3
			c-2-3.9-10.2-7.1-18.4-7.1c-8.2,0-13.5,3.2-11.8,7.1C435.2,537.7,443.5,541,452.1,541z"/>
	</g>
</g>
<g id="V3_sad" display="none">
	<polygon display="inline" fill="none" stroke="#FFFFFF" stroke-width="2" stroke-miterlimit="10" points="51.3,469.2 96.3,469.2 
		96.3,540 168.1,469.2 379.5,469.2 379.5,213.4 51.3,213.4 	"/>
	<polygon display="inline" fill="#001021" stroke="#FFFFFF" stroke-width="4" stroke-miterlimit="10" points="557.2,367.3 
		502.8,367.3 502.8,453 415.9,367.3 159.9,367.3 159.9,57.8 557.2,57.8 	"/>
	<g display="inline">
		<path fill="#FFFFFF" d="M314.7,192.3c-6.1,0-11-4.9-11-11v-22.1c0-6.1,4.9-11,11-11c6.1,0,11,4.9,11,11v22.1
			C325.7,187.4,320.8,192.3,314.7,192.3z"/>
	</g>
	<g display="inline">
		<path fill="#FFFFFF" d="M402.7,192.3c-6.1,0-11-4.9-11-11v-22.1c0-6.1,4.9-11,11-11s11,4.9,11,11v22.1
			C413.7,187.4,408.8,192.3,402.7,192.3z"/>
	</g>
	<polyline display="inline" fill="none" stroke="#FFFFFF" stroke-width="4" stroke-miterlimit="10" points="302.5,255.2 
		314.7,246.7 402.5,246.7 414.6,255.2 	"/>
</g>
<g id="V3_happy">
	<polygon fill="none" stroke="#18E598" stroke-width="4" stroke-miterlimit="10" points="3,426.3 48,426.3 48,497.1 119.8,426.3 
		331.3,426.3 331.3,170.5 3,170.5 	"/>
	<polygon fill="#001021" stroke="#18E598" stroke-width="6" stroke-miterlimit="10" points="509,324.4 454.5,324.4 454.5,410.1 
		367.6,324.4 111.6,324.4 111.6,14.9 509,14.9 	"/>
	<g>
		<path fill="#18E598" d="M266.4,149.4c-6.1,0-11-4.9-11-11v-22.1c0-6.1,4.9-11,11-11s11,4.9,11,11v22.1
			C277.4,144.5,272.5,149.4,266.4,149.4z"/>
	</g>
	<g>
		<path fill="#18E598" d="M354.4,149.4c-6.1,0-11-4.9-11-11v-22.1c0-6.1,4.9-11,11-11s11,4.9,11,11v22.1
			C365.4,144.5,360.5,149.4,354.4,149.4z"/>
	</g>
	<polyline fill="none" stroke="#18E598" stroke-width="6" stroke-miterlimit="10" points="366.4,203.8 354.2,212.3 266.4,212.3 
		254.2,203.8 	"/>
</g>
<g id="V4" display="none">
	<path display="inline" fill="#001021" stroke="#FFFFFF" stroke-width="2" stroke-miterlimit="10" d="M92.4,288.4
		c0,25,6.5,48.5,17.8,68.9c4,7.2-3.9,36.2-27.1,47.3c30.8,6.1,51.6-14.6,57.6-9.1c25.1,22.1,57.9,35.5,94,35.5
		c78.6,0,142.4-63.7,142.4-142.4s-63.7-142.4-142.4-142.4S92.4,209.8,92.4,288.4z"/>
	<path display="inline" fill="#001021" stroke="#FFFFFF" stroke-width="4" stroke-miterlimit="10" d="M528,214.4
		c0,29.4-7.6,57-20.8,81c-4.8,8.5,4.6,42.7,31.8,55.6c-36.3,7.1-60.7-17.2-67.9-10.8c-29.5,26-68.3,41.7-110.7,41.7
		c-92.5,0.1-167.6-75-167.6-167.5S267.9,46.8,360.4,46.8S528,121.9,528,214.4z"/>
	<g display="inline">
		<path fill="#FFFFFF" d="M314.7,191.1c-6.1,0-11-4.9-11-11v-22.1c0-6.1,4.9-11,11-11c6.1,0,11,4.9,11,11v22.1
			C325.7,186.2,320.8,191.1,314.7,191.1z"/>
	</g>
	<g display="inline">
		<path fill="#FFFFFF" d="M402.7,191.1c-6.1,0-11-4.9-11-11v-22.1c0-6.1,4.9-11,11-11s11,4.9,11,11v22.1
			C413.7,186.2,408.8,191.1,402.7,191.1z"/>
	</g>
	<path display="inline" fill="none" stroke="#FFFFFF" stroke-width="4" stroke-miterlimit="10" d="M273.2,264.4
		c47.7,47.7,124.7,47.7,172.3,0"/>
</g>
</svg>
