<?xml version="1.0" encoding="utf-8"?>
<!-- Generator: Adobe Illustrator 18.1.1, SVG Export Plug-In . SVG Version: 6.00 Build 0)  -->
<svg version="1.1" id="Layer_2" xmlns="http://www.w3.org/2000/svg" xmlns:xlink="http://www.w3.org/1999/xlink" x="0px" y="0px"
	 viewBox="0 0 512 512" enable-background="new 0 0 512 512" xml:space="preserve">
<linearGradient id="SVGID_1_" gradientUnits="userSpaceOnUse" x1="154.4413" y1="238.4436" x2="452.931" y2="238.4436">
	<stop  offset="0" style="stop-color:#010621"/>
	<stop  offset="1" style="stop-color:#18E598"/>
</linearGradient>
<polygon fill="url(#SVGID_1_)" points="154.4,128.9 452.9,348 315.4,348 154.5,152 "/>
<g>
	<path fill="#FFFFFF" d="M-651.9,24c19.2,0,34.9,15.7,34.9,34.9v497.2c0,19.2-15.7,34.9-34.9,34.9h-207.2
		c-19.2,0-34.9-15.7-34.9-34.9V58.9c0-19.2,15.7-34.9,34.9-34.9H-651.9 M-651.9,19h-207.2c-22,0-39.9,17.9-39.9,39.9v497.2
		c0,22,17.9,39.9,39.9,39.9h207.2c22,0,39.9-17.9,39.9-39.9V58.9C-612,36.9-629.9,19-651.9,19L-651.9,19z"/>
</g>
<g>
	<path fill="#FFFFFF" d="M-636,95v430h-240V95H-636 M-631,90h-250v440h250V90L-631,90z"/>
</g>
<circle fill="none" stroke="#FFFFFF" stroke-width="5" stroke-miterlimit="10" cx="-756.5" cy="558.5" r="17.5"/>
<g>
	<g>
		<path fill="#FFFFFF" d="M-501.1,712.3c16.5,0,29.9,13.4,29.9,29.9v308.9c0,16.5-13.4,29.9-29.9,29.9h-120.8
			c-16.5,0-29.9-13.4-29.9-29.9V742.2c0-16.5,13.4-29.9,29.9-29.9H-501.1 M-501.1,707.3h-120.8c-19.2,0-34.9,15.7-34.9,34.9v308.9
			c0,19.2,15.7,34.9,34.9,34.9h120.8c19.2,0,34.9-15.7,34.9-34.9V742.2C-466.2,723-481.9,707.3-501.1,707.3L-501.1,707.3z"/>
	</g>
	<g>
		<path fill="#FFFFFF" d="M-493,749.8v285.4h-137.7V749.8H-493 M-490,746.8h-143.7v291.4H-490V746.8L-490,746.8z"/>
	</g>
	<circle fill="none" stroke="#FFFFFF" stroke-width="3" stroke-miterlimit="10" cx="-562.2" cy="1059.3" r="11.7"/>
</g>
<path fill="none" stroke="#FFFFFF" stroke-width="5" stroke-miterlimit="10" d="M146.2,449L61.6,405c-2.7-1.4-5.1-7.8-5.1-14.3
	V121.3c0-6.4,2.5-12.9,5.3-14.3L146,63c4.7-2.4,8.5,2.6,8.5,11.3v363.3C154.5,446.3,150.9,451.4,146.2,449z"/>
<polygon fill="none" stroke="#FFFFFF" stroke-width="2" stroke-miterlimit="10" points="143,395.6 65,365.9 65,135.7 143,103.3 "/>
<path fill="none" stroke="#FFFFFF" stroke-width="2" stroke-miterlimit="10" d="M105.5,403.7c0,7-2.7,11.3-6,9.6
	c-3.2-1.6-5.8-8.4-5.8-15.1c0-6.7,2.6-11.1,5.8-9.7C102.8,389.9,105.5,396.7,105.5,403.7z"/>
<rect x="315.4" y="291" fill="none" stroke="#FFFFFF" stroke-width="2" stroke-miterlimit="10" width="137.6" height="101.2"/>
<g id="Layer_x0020_1">
	<rect x="328.4" y="304" fill="#FFFFFF" width="6.1" height="75.1"/>
	<rect x="339.3" y="304" fill="#FFFFFF" width="6.1" height="60.6"/>
	<rect x="349" y="304" fill="#FFFFFF" width="13.3" height="60.6"/>
	<rect x="370.8" y="304" fill="#FFFFFF" width="4.8" height="60.6"/>
	<rect x="381.1" y="304" fill="#FFFFFF" width="9.7" height="60.6"/>
	<rect x="413.1" y="304" fill="#FFFFFF" width="7.3" height="60.6"/>
	<rect x="395.1" y="304" fill="#FFFFFF" width="4.8" height="60.6"/>
	<rect x="424.1" y="304" fill="#FFFFFF" width="4.8" height="60.6"/>
	<rect x="432.6" y="304" fill="#FFFFFF" width="7.3" height="75.1"/>
	<rect x="339.3" y="374.2" fill="#FFFFFF" width="4.8" height="4.8"/>
	<rect x="349" y="374.2" fill="#FFFFFF" width="4.8" height="4.8"/>
	<rect x="358.7" y="374.2" fill="#FFFFFF" width="4.8" height="4.8"/>
	<rect x="368.4" y="374.2" fill="#FFFFFF" width="4.8" height="4.8"/>
	<rect x="378.1" y="374.2" fill="#FFFFFF" width="4.8" height="4.8"/>
	<rect x="387.8" y="374.2" fill="#FFFFFF" width="4.8" height="4.8"/>
	<rect x="397.5" y="374.2" fill="#FFFFFF" width="4.8" height="4.8"/>
	<rect x="407.2" y="374.2" fill="#FFFFFF" width="4.8" height="4.8"/>
	<rect x="416.9" y="374.2" fill="#FFFFFF" width="4.8" height="4.8"/>
</g>
<rect x="241" y="76.1" fill="none" stroke="#FFFFFF" stroke-width="2" stroke-miterlimit="10" width="230" height="336.9"/>
</svg>
