<?xml version="1.0" encoding="iso-8859-1"?>
<!-- Generator: Adobe Illustrator 18.1.1, SVG Export Plug-In . SVG Version: 6.00 Build 0)  -->
<svg xmlns="http://www.w3.org/2000/svg" xmlns:xlink="http://www.w3.org/1999/xlink" version="1.1" id="Capa_1" x="0px" y="0px" viewBox="0 0 492.458 492.458" style="enable-background:new 0 0 492.458 492.458;" xml:space="preserve" width="64px" height="64px">
<g>
	<g>
		<path d="M368.073,76.687c5.582-3.609,9.879-7.793,12.639-12.697c7.119-13.386,5.025-27.927-5.658-43.308    l-0.689-0.97C363.543,6.542,350.469,0,337.602,0c-24.215,0-44.423,22.351-64,44.025c-9.644,10.692-18.884,20.858-27.372,26.85    c-8.489-5.992-17.729-16.157-27.372-26.85C199.281,22.35,179.073,0,154.858,0c-12.866,0-25.94,6.542-36.763,19.712l-0.689,0.97    c-10.684,15.381-12.778,29.922-5.659,43.308c2.76,4.904,7.057,9.088,12.639,12.697H21.489v98.672h224.74h224.74V76.687H368.073z     M123.684,57.275c-4.897-9.51-0.955-20.848,5.093-28.955c8.766-9.837,17.321-14.626,26.063-14.626    c18.122,0,36.254,20.115,53.83,39.526c7.623,8.459,15.018,16.644,22.398,23.142c-1.505,0.095-3.146,0.212-4.739,0.332h-49.475    C149.093,76.347,129.589,67.787,123.684,57.275z M271.561,162.083h-25.332h-25.332V95.357h25.332h25.332V162.083z M315.604,76.694    h-49.475c-1.594-0.12-3.234-0.237-4.739-0.332c7.38-6.498,14.774-14.683,22.397-23.142c17.576-19.411,35.709-39.526,53.83-39.526    c8.742,0,17.297,4.789,26.063,14.626c6.048,8.107,9.989,19.445,5.093,28.955C362.87,67.787,343.365,76.347,315.604,76.694z" fill="#FFFFFF"/>
		<polygon points="271.568,478.776 246.229,478.776 220.89,478.776 220.89,189.98 47.36,189.98     47.36,492.458 246.229,492.458 445.098,492.458 445.098,189.98 271.568,189.98   " fill="#FFFFFF"/>
	</g>
</g>
<g>
</g>
<g>
</g>
<g>
</g>
<g>
</g>
<g>
</g>
<g>
</g>
<g>
</g>
<g>
</g>
<g>
</g>
<g>
</g>
<g>
</g>
<g>
</g>
<g>
</g>
<g>
</g>
<g>
</g>
</svg>
