<svg width="32px" height="32px" viewBox="0 0 32 32" version="1.1" xmlns="http://www.w3.org/2000/svg" xmlns:xlink="http://www.w3.org/1999/xlink" xmlns:sketch="http://www.bohemiancoding.com/sketch/ns">
    <defs></defs>
    <g id="Page-1" stroke="none" stroke-width="1" fill="none" fill-rule="evenodd" sketch:type="MSPage">
        <g id="cycling" sketch:type="MSArtboardGroup" fill="#FFFFFF">
            <path d="M25.5822414,13.4255965 C25.1800335,13.4255965 24.7927725,13.4767741 24.4184202,13.564606 L21.3359585,6.61067353 C21.1722218,6.23928997 20.8094194,6 20.4078909,6 L18.4804182,6 C17.91855,6 17.4613102,6.46405656 17.4613102,7.03738425 C17.4613102,7.61002037 17.91855,8.07476851 18.4804182,8.07476851 L19.7488678,8.07476851 L20.600842,9.99600415 L11.9948154,9.99600415 L11.424115,8.70964767 L11.9030957,8.70964767 C12.4656433,8.70964767 12.9222036,8.24489953 12.9222036,7.67226342 C12.9222036,7.09893572 12.4656433,6.63487917 11.9030957,6.63487917 L8.16229031,6.63487917 C7.59974279,6.63487917 7.14318243,7.09893572 7.14318243,7.67226342 C7.14318243,8.24489953 7.59974279,8.70964767 8.16229031,8.70964767 L9.18819228,8.70964767 L10.1678947,10.9206593 L8.21596335,13.842625 C7.5943075,13.5735966 6.91150521,13.4249049 6.19405327,13.4249049 C3.33036007,13.4249049 1,15.7970569 1,18.7121067 C1,21.6271564 3.33036007,24 6.19405327,24 C8.70853219,24 10.8119709,22.1700542 11.2868752,19.7494909 L12.1599109,19.7494909 C12.6484033,21.0074922 13.9616937,21.7675491 15.3075955,21.481231 C16.8084017,21.1610251 17.7704396,19.6616591 17.4585926,18.1325547 C17.4164695,17.9306105 17.3532848,17.7397318 17.2737944,17.5585354 L21.8441536,12.8003996 L22.5629644,14.4201022 C21.249674,15.3800284 20.3915851,16.9430207 20.3915851,18.7121067 C20.3915851,21.6271564 22.7226246,24 25.5863178,24 C28.4506904,24 30.7810505,21.627848 30.7810505,18.7121067 C30.7742564,15.7956737 28.4445758,13.4255965 25.5822414,13.4255965 L25.5822414,13.4255965 L25.5822414,13.4255965 Z M12.7462376,16.7383102 C12.4901019,17.006647 12.2903567,17.3275445 12.1558345,17.6747224 L11.2875545,17.6747224 C11.0857712,16.6504784 10.5932024,15.7313559 9.89952959,15.0121028 L11.1509941,13.1385868 L12.7462376,16.7383102 L12.7462376,16.7383102 L12.7462376,16.7383102 Z M8.71057037,16.7922542 C8.90691849,17.0578246 9.05978471,17.3538249 9.16713073,17.6733392 L8.12152602,17.6733392 L8.71057037,16.7922542 L8.71057037,16.7922542 L8.71057037,16.7922542 Z M6.19473268,21.9238483 C4.45477578,21.9238483 3.03889521,20.4832674 3.03889521,18.7107235 C3.03889521,16.9381796 4.45477578,15.4975987 6.19473268,15.4975987 C6.48415932,15.4975987 6.75728024,15.5501595 7.02428652,15.6248511 L5.35294955,18.1256388 C5.1402957,18.4430783 5.11719592,18.8552657 5.29452069,19.1941445 C5.47184547,19.533715 5.81834216,19.7467245 6.19473268,19.7467245 L9.16713073,19.7467245 C8.73978482,21.0088754 7.57732238,21.9238483 6.19473268,21.9238483 L6.19473268,21.9238483 L6.19473268,21.9238483 Z M15.8164701,16.106889 C15.4421178,15.9471318 15.031757,15.8745149 14.6091669,15.894571 L12.9147302,12.0707727 L19.6931565,12.0707727 L15.8164701,16.106889 L15.8164701,16.106889 L15.8164701,16.106889 Z M25.5822414,21.9238483 C23.8416051,21.9238483 22.4257245,20.4832674 22.4257245,18.7107235 C22.4257245,17.7881431 22.8136649,16.9616936 23.4298855,16.3752257 L24.6555326,19.136051 C24.8253839,19.5212664 25.1970186,19.7481077 25.5836002,19.7481077 C25.7242371,19.7481077 25.8662328,19.7183694 26.000755,19.6547431 C26.5150648,19.4189111 26.743345,18.8047797 26.510309,18.2840128 L25.2894177,15.5294118 C25.3886109,15.5197295 25.4816894,15.4996734 25.5836002,15.4996734 C27.3242365,15.4996734 28.740117,16.9402544 28.740117,18.7127983 C28.7360406,20.4825758 27.32016,21.9238483 25.5822414,21.9238483 L25.5822414,21.9238483 L25.5822414,21.9238483 Z" id="Shape" sketch:type="MSShapeGroup"></path>
        </g>
    </g>
</svg>