<svg width="32px" height="32px" viewBox="0 0 32 32" version="1.1" xmlns="http://www.w3.org/2000/svg" xmlns:xlink="http://www.w3.org/1999/xlink" xmlns:sketch="http://www.bohemiancoding.com/sketch/ns">
    <defs></defs>
    <g id="Page-1" stroke="none" stroke-width="1" fill="none" fill-rule="evenodd" sketch:type="MSPage">
        <g id="daily-activity" sketch:type="MSArtboardGroup" fill="#FFFFFF">
            <path d="M22.9534202,2.87401817 C19.9298014,2.87401817 17.2977765,4.51894038 15.9400368,6.94386396 C14.5790873,4.51894038 11.9502722,2.87401817 8.92665335,2.87401817 C6.03142592,2.87401817 3.40261079,4.53466622 2.01598303,6.99418663 C0.366152777,9.91604655 0.931075198,13.1366973 2.25029744,16.0679927 C2.25350723,16.0742516 2.25671701,16.0805734 2.2599268,16.0868637 L8.81110099,16.0868637 L10.3132811,13.4355196 C10.6182108,12.8976646 11.4109959,12.894551 11.7159257,13.432343 L14.4731323,18.2633506 L18.7389706,9.4662877 C19.0439003,8.83410918 19.9779482,8.87814152 20.2186821,9.53548137 L22.6452808,16.0837186 L29.616937,16.0837186 C29.6201789,16.0774597 29.6233566,16.0711379 29.6265663,16.0648475 C30.9489984,13.1335207 31.510711,9.91286993 29.8640906,6.99104146 C28.4774628,4.53466622 25.8454378,2.87401817 22.9534202,2.87401817 Z M20.7547165,17.939367 L19.2653756,13.9135535 L15.3173382,22.0564217 C15.0380868,22.6351324 14.2099619,22.6602623 13.8889832,22.1035992 L11.0194662,17.0744776 L10.4641411,18.0526244 C10.3229425,18.3010926 10.0532884,18.4583509 9.7612299,18.4583509 L3.70757261,18.4583509 C7.02649183,22.9150208 13.4685333,27.5038505 15.3879856,28.8185302 C15.7185936,29.0449508 16.1615441,29.0449508 16.4921842,28.8185302 C18.4116366,27.5007054 24.8536781,22.9118756 28.1725652,18.4583509 L21.5122582,18.4583509 C21.1719888,18.4583195 20.8702688,18.2507384 20.7547165,17.939367 Z" id="Shape" sketch:type="MSShapeGroup"></path>
        </g>
    </g>
</svg>