<svg width="32px" height="32px" viewBox="0 0 32 32" version="1.1" xmlns="http://www.w3.org/2000/svg" xmlns:xlink="http://www.w3.org/1999/xlink" xmlns:sketch="http://www.bohemiancoding.com/sketch/ns">
    <defs></defs>
    <g id="Page-1" stroke="none" stroke-width="1" fill="none" fill-rule="evenodd" sketch:type="MSPage">
        <g id="delete-user" sketch:type="MSArtboardGroup" fill="#FFFFFF">
            <g sketch:type="MSLayerGroup" transform="translate(3.000000, 2.000000)" id="Shape">
                <path d="M20.4825017,14.9658461 C18.8186422,14.9658461 17.3766068,15.6314078 16.2673523,16.7406623 C15.4908786,16.4078815 14.8253169,16.1860573 14.3816241,16.0751007 L14.3816241,15.7423198 C19.3732471,15.298627 19.4841592,14.6330653 19.4841592,14.1893724 C19.5950713,13.5238108 18.8185976,13.3019866 18.5967734,13.19103 C16.6001331,12.5254683 17.043826,11.0834776 17.043826,10.8616088 C17.598431,6.97924029 17.1547381,4.20612627 15.7127473,2.76409092 C14.7144049,1.76574846 13.4942383,1.76574846 12.9396333,1.76574846 C11.7194667,0.989274748 9.16817684,0.212801039 7.06062447,2.32035342 C5.84045787,3.76238877 5.7295458,5.53716032 5.7295458,7.53380063 C5.61863373,9.64135301 5.50767705,11.74895 3.95472963,13.4128095 C3.84381756,13.5237216 3.73286088,13.7455903 3.84381756,13.9674144 C3.95472963,14.1892832 4.5093792,15.6312739 7.72618611,15.7422306 L7.72618611,15.9640994 C6.61693158,16.4077923 3.17825592,17.7389155 1.6253085,18.6263013 C1.51439643,18.7372134 1.40343975,18.8481701 1.40343975,18.9590821 C1.40343975,19.0699942 0.183273151,22.2868457 0.737878109,24.6162222 C0.737878109,24.838091 1.07065893,25.0599151 1.29248307,25.0599151 L15.7127027,25.0599151 C15.8236148,25.0599151 16.0454835,24.9490031 16.1563956,24.9490031 C17.2656501,26.1691697 18.8185976,26.9456434 20.5933691,26.9456434 C23.9210881,26.9456434 26.58329,24.2834414 26.58329,20.9557224 C26.58329,17.6280035 23.8102653,14.9658461 20.4825017,14.9658461 L20.4825017,14.9658461 Z M8.39174775,16.8515744 C8.6136165,16.7406623 8.72452857,16.5187936 8.72452857,16.2969694 L8.72452857,15.5204957 C8.83544064,15.4095836 8.94639732,15.298627 8.94639732,15.0768028 C8.94639732,14.744022 8.72452857,14.5221979 8.39179236,14.5221979 C6.28423999,14.5221979 5.3968096,14.078505 5.06407339,13.7457242 C6.61702081,11.970908 6.72793288,9.64153147 6.83888956,7.64484654 C6.94980163,5.87003037 6.94980163,4.20617088 7.94814409,3.20787304 C10.0556965,1.10032066 12.4960743,2.87509222 12.6069863,2.87509222 C12.7178984,2.98600429 12.9397672,2.98600429 13.0506792,2.98600429 C13.0506792,2.98600429 14.1599338,2.76413553 15.0473195,3.65156593 C15.8237933,4.42803964 16.711179,6.31376788 16.045662,10.6398293 C15.7128812,11.416303 15.8237933,13.1911192 17.8204782,14.078505 C16.9330924,14.3003737 15.2691883,14.5221979 13.8271976,14.6331099 C13.4944167,14.6331099 13.2725926,14.8549787 13.2725926,15.1877149 L13.2725926,16.4078815 C13.2725926,16.6297502 13.3835047,16.8515744 13.6053734,16.9624864 C13.6053734,16.9624864 14.1599784,17.1843552 14.82554,17.4061793 C13.3835047,18.737258 11.9415139,19.4028196 10.4994786,19.2919076 C8.72466241,19.1809955 7.28267168,18.071741 6.61711004,17.5170914 C7.72618611,17.1843552 8.39174775,16.9624864 8.39174775,16.8515744 L8.39174775,16.8515744 Z M1.6253085,23.9507498 C1.40343975,22.2868903 2.06900139,20.1792933 2.29087014,19.5137763 C3.06734385,19.0700834 4.39842252,18.5154339 5.61858912,17.9608289 C5.95136994,18.4045218 7.83709818,20.29025 10.6102122,20.4011621 L10.8320809,20.4011621 C12.2741163,20.4011621 13.605195,19.8465571 14.9362736,18.8482147 C14.7144049,19.5137763 14.6034928,20.1792933 14.6034928,20.9557671 C14.6034928,22.0650216 14.9362736,23.0633194 15.4908786,23.9507498 L1.6253085,23.9507498 L1.6253085,23.9507498 Z M20.4825017,25.8364781 C17.8202997,25.8364781 15.6018353,23.617969 15.6018353,20.9558117 C15.6018353,18.2936543 17.8203443,16.0751007 20.4825017,16.0751007 C23.144659,16.0751007 25.3631681,18.2936097 25.3631681,20.9557671 C25.3631681,23.6179244 23.1447036,25.8364781 20.4825017,25.8364781 L20.4825017,25.8364781 Z" sketch:type="MSShapeGroup"></path>
                <path d="M22.8119228,18.8482147 C22.590054,18.6263459 22.2573178,18.6263459 22.0354491,18.8482147 L20.5934137,20.29025 L19.1513784,18.8482147 C18.9295096,18.6263459 18.5967734,18.6263459 18.3749047,18.8482147 C18.1530359,19.0700834 18.1530359,19.4028196 18.3749047,19.6246884 L19.81694,21.0667237 L18.3749047,22.5087591 C18.1530359,22.7306278 18.1530359,23.063364 18.3749047,23.2852328 C18.4858167,23.3961449 18.5967734,23.3961449 18.8185976,23.3961449 C19.0404217,23.3961449 19.1513784,23.3961449 19.2622905,23.2852328 L20.7043258,21.8431975 L22.1463612,23.2852328 C22.2572732,23.3961449 22.3682299,23.3961449 22.590054,23.3961449 C22.8118782,23.3961449 22.9228349,23.3961449 23.0337469,23.2852328 C23.2556157,23.063364 23.2556157,22.7306278 23.0337469,22.5087591 L21.5917116,21.0667237 L23.0337469,19.6246884 C23.0337915,19.4028196 23.0337915,19.0700388 22.8119228,18.8482147 L22.8119228,18.8482147 Z" sketch:type="MSShapeGroup"></path>
            </g>
        </g>
    </g>
</svg>