<svg width="32px" height="32px" viewBox="0 0 32 32" version="1.1" xmlns="http://www.w3.org/2000/svg" xmlns:xlink="http://www.w3.org/1999/xlink" xmlns:sketch="http://www.bohemiancoding.com/sketch/ns">
    <defs></defs>
    <g id="Page-1" stroke="none" stroke-width="1" fill="none" fill-rule="evenodd" sketch:type="MSPage">
        <g id="mountain-biking" sketch:type="MSArtboardGroup" fill="#FFFFFF">
            <path d="M25.7629694,13.3687664 C25.3578044,13.3687664 24.9676963,13.4195523 24.5905918,13.506712 L21.4854679,6.60599988 C21.3205274,6.23745862 20.9550577,6 20.5505772,6 L18.6089337,6 C18.0429347,6 17.5823333,6.46050501 17.5823333,7.02944487 C17.5823333,7.59769845 18.0429347,8.05888975 18.6089337,8.05888975 L19.8867089,8.05888975 L20.7449468,9.96542165 L12.075649,9.96542165 L11.5007528,8.68891001 L11.983255,8.68891001 C12.5499384,8.68891001 13.0098554,8.22771871 13.0098554,7.65946514 C13.0098554,7.09052527 12.5499384,6.63002026 11.983255,6.63002026 L8.21494727,6.63002026 C7.64826392,6.63002026 7.18834694,7.09052527 7.18834694,7.65946514 C7.18834694,8.22771871 7.64826392,8.68891001 8.21494727,8.68891001 L9.24839164,8.68891001 L10.2352968,10.8830002 L8.26901491,13.7826033 C7.64278867,13.5156339 6.95496643,13.3680801 6.23223981,13.3680801 C3.34749281,13.3680801 1,15.7220774 1,18.6148175 C1,21.5075576 3.34749281,23.8622411 6.23223981,23.8622411 C8.76520511,23.8622411 10.8841082,22.0463004 11.362504,19.6442624 L12.2419583,19.6442624 C12.7340421,20.8926358 14.0569877,21.6468758 15.4127846,21.362749 C16.9246247,21.0449937 17.8937355,19.5571027 17.5795957,18.0397009 C17.5371629,17.8393024 17.4735137,17.6498845 17.3934389,17.4700748 L21.9973992,12.7483543 L22.7214947,14.3556609 C21.3985491,15.3082405 20.5341515,16.8592709 20.5341515,18.6148175 C20.5341515,21.5075576 22.8823288,23.8622411 25.7670757,23.8622411 C28.6525071,23.8622411 31,21.5082439 31,18.6148175 C30.993156,15.7207048 28.6463476,13.3687664 25.7629694,13.3687664 L25.7629694,13.3687664 L25.7629694,13.3687664 Z M12.8325957,16.656127 C12.5745768,16.9224101 12.3733631,17.2408517 12.2378519,17.5853726 L11.3631884,17.5853726 C11.1599215,16.5689674 10.6637314,15.6568792 9.96495869,14.9431308 L11.225624,13.0839533 L12.8325957,16.656127 L12.8325957,16.656127 L12.8325957,16.656127 Z M8.76725828,16.7096582 C8.96504994,16.9731961 9.11904003,17.266931 9.22717525,17.584 L8.17388329,17.584 L8.76725828,16.7096582 L8.76725828,16.7096582 L8.76725828,16.7096582 Z M6.23292421,21.8019788 C4.4801752,21.8019788 3.05388511,20.372423 3.05388511,18.6134449 C3.05388511,16.8544667 4.4801752,15.424911 6.23292421,15.424911 C6.52447871,15.424911 6.79960761,15.4770695 7.06857691,15.5511895 L5.38495232,18.032838 C5.17073504,18.3478481 5.14746544,18.7568808 5.32609389,19.0931662 C5.50472236,19.4301378 5.85376648,19.6415172 6.23292421,19.6415172 L9.22717525,19.6415172 C8.79668751,20.8940084 7.62567868,21.8019788 6.23292421,21.8019788 L6.23292421,21.8019788 L6.23292421,21.8019788 Z M15.9254004,16.0295383 C15.5482958,15.8710037 15.1349181,15.7989426 14.7092212,15.8188452 L13.002327,12.0243114 L19.8305881,12.0243114 L15.9254004,16.0295383 L15.9254004,16.0295383 L15.9254004,16.0295383 Z M25.7629694,21.8019788 C24.009536,21.8019788 22.5832459,20.372423 22.5832459,18.6134449 C22.5832459,17.6979253 22.9740384,16.8778008 23.5947894,16.2958213 L24.8294474,19.0355173 C25.0005475,19.4177845 25.3749144,19.6428898 25.7643382,19.6428898 C25.906009,19.6428898 26.0490487,19.613379 26.1845599,19.5502397 C26.7026509,19.3162126 26.9326094,18.7067812 26.6978601,18.1899999 L25.4679928,15.4564806 C25.5679153,15.4468724 25.6616781,15.4269699 25.7643382,15.4269699 C27.5177716,15.4269699 28.9440616,16.8565256 28.9440616,18.6155038 C28.9399552,20.3717367 27.5136651,21.8019788 25.7629694,21.8019788 L25.7629694,21.8019788 L25.7629694,21.8019788 Z" id="Shape" sketch:type="MSShapeGroup"></path>
        </g>
    </g>
</svg>