<svg width="32px" height="32px" viewBox="0 0 32 32" version="1.1" xmlns="http://www.w3.org/2000/svg" xmlns:xlink="http://www.w3.org/1999/xlink" xmlns:sketch="http://www.bohemiancoding.com/sketch/ns">
    <defs></defs>
    <g id="Page-1" stroke="none" stroke-width="1" fill="none" fill-rule="evenodd" sketch:type="MSPage">
        <g id="others-sports" sketch:type="MSArtboardGroup" fill="#FFFFFF">
            <path d="M15.6768409,11.3685159 C17.1552194,11.3685159 18.3536819,10.1667327 18.3536819,8.68425796 C18.3536819,7.20178323 17.1552194,6 15.6768409,6 C14.1984625,6 13,7.20178323 13,8.68425796 C13,10.1667327 14.1984625,11.3685159 15.6768409,11.3685159 Z M28.5153326,2.67155568 C28.2748484,2.67155568 28.0608987,2.78310124 27.9206666,2.9571311 L27.9206666,2.4468398 C27.9206666,2.02389389 27.5790311,1.68101062 27.157134,1.68101062 C26.8484552,1.68101062 26.583059,1.86461262 26.4626967,2.12869778 L26.4626967,1.76576889 C26.4626967,1.34294356 26.1208215,1.00006028 25.6991641,1.00006028 C25.2772075,1.00006028 24.9352118,1.34294356 24.9352118,1.76576889 L24.9352118,4.1559584 L22.1191035,4.1559584 C21.9371503,3.74336687 21.5096707,3.47452652 21.0375277,3.52268423 C20.6440253,3.56409954 20.327723,3.8173495 20.1783058,4.1559584 L11.1009189,4.1559584 C10.9515627,3.8173495 10.6350796,3.56409954 10.2416374,3.52268423 C9.76949447,3.47446623 9.34213474,3.74330659 9.1601212,4.1559584 L6.34395341,4.1559584 L6.34395341,1.7657086 C6.34395341,1.34288327 6.0019577,1 5.5800606,1 C5.1584642,1 4.81664861,1.34288327 4.81664861,1.7657086 L4.81664861,2.12863749 C4.69598632,1.86455233 4.43052988,1.68095034 4.12209145,1.68095034 C3.70037448,1.68095034 3.35843832,2.02377405 3.35843832,2.44677951 L3.35843832,2.9571311 C3.21832673,2.78304095 3.00425647,2.67155568 2.76389281,2.67155568 C2.34217584,2.67155568 2,3.01437867 2,3.43738485 L2,6.40582859 C2,6.82865392 2.34211628,7.1715372 2.76389281,7.1715372 C3.00425647,7.1715372 3.21832673,7.06005192 3.35843832,6.88590149 L3.35843832,7.39637365 C3.35843832,7.81919898 3.70031419,8.16208226 4.12209145,8.16208226 C4.43059016,8.16208226 4.69604661,7.97848026 4.81664861,7.7143951 L4.81664861,8.07726443 C4.81664861,8.50008904 5.15840391,8.84297231 5.5800606,8.84297231 C6.00189742,8.84297231 6.34395341,8.50014932 6.34395341,8.07726443 L6.34395341,5.68731533 L8.97660709,5.68731533 C8.87251354,7.60297011 8.89454491,10.9815984 10.1740428,12.3880455 C11.1404196,13.4501647 12.19174,14.0606848 12.8927802,14.3838835 L12.8927802,19.8038585 C11.35575,20.2310781 10.16948,21.0793769 9.15219708,22.4392323 C7.77995148,24.274223 7.73829067,27.8823224 7.74381286,28.5870516 C7.74993643,29.369735 8.38470247,30 9.16366345,30 L9.17524893,30 C9.95985266,29.9937391 10.5905368,29.3510744 10.5844735,28.5643571 C10.5739085,27.2506134 10.8337215,24.9385596 11.4246659,24.148531 C12.2675587,23.0221211 13.2689942,22.322389 15.6394925,22.3154062 C18.0104717,22.3223287 19.0115462,23.0221211 19.8544397,24.148531 C20.4452636,24.9385596 20.7050766,27.2506134 20.6945115,28.5643571 C20.6884483,29.3509539 21.3190728,29.9936193 22.1037361,30 L22.1153216,30 C22.8944627,30 23.5292287,29.369735 23.5351722,28.5870516 C23.5408149,27.8823224 23.4990931,24.274223 22.1269078,22.4392323 C21.1096851,21.0793769 19.923235,20.2310178 18.3862651,19.8038585 L18.3862651,14.3838835 C19.0871848,14.0606246 20.1386257,13.4501052 21.1048827,12.3880455 C22.3845004,10.9815984 22.4064715,7.60297011 22.3024382,5.68731533 L24.9350316,5.68731533 L24.9350316,8.07750484 C24.9350316,8.50033017 25.2769075,8.84321345 25.6989847,8.84321345 C26.1205209,8.84321345 26.4625173,8.50039046 26.4625173,8.07750484 L26.4625173,7.71463624 C26.5829392,7.97866111 26.8483956,8.16232267 27.1569539,8.16232267 C27.5787311,8.16232267 27.9204864,7.81943939 27.9204864,7.39661406 L27.9204864,6.88620218 C28.0607186,7.06035262 28.2746087,7.17183789 28.5151525,7.17183789 C28.9369291,7.17183789 29.2789248,6.82895462 29.2789248,6.40613001 L29.2789248,3.43738485 C29.2791049,3.01437867 28.937229,2.67155568 28.5153326,2.67155568 L28.5153326,2.67155568 L28.5153326,2.67155568 Z M19.5312331,10.9482488 C18.8636303,11.6820532 17.7522188,12.3390453 17.6420025,12.3742607 C17.5317853,12.4094762 16.8787096,12.2088384 15.6395528,12.2088384 C14.4002152,12.2088384 13.8344246,12.3891895 13.6371032,12.3742607 C13.4397818,12.3593313 12.4155952,11.6820532 11.7478718,10.9482488 C11.1655124,10.3081719 10.9827181,7.90227074 11.110284,5.68731533 L20.1688209,5.68731533 C20.2965066,7.90227074 20.1135925,10.3081719 19.5312331,10.9482488 L19.5312331,10.9482488 L19.5312331,10.9482488 Z" id="Shape" sketch:type="MSShapeGroup"></path>
        </g>
    </g>
</svg>