<svg width="32px" height="32px" viewBox="0 0 32 32" version="1.1" xmlns="http://www.w3.org/2000/svg" xmlns:xlink="http://www.w3.org/1999/xlink" xmlns:sketch="http://www.bohemiancoding.com/sketch/ns">
    <!-- Generator: Sketch Beta 3.5.1 (25233) - http://www.bohemiancoding.com/sketch -->
    <title>running</title>
    <desc>Created with Sketch Beta.</desc>
    <defs></defs>
    <g id="Page-1" stroke="none" stroke-width="1" fill="none" fill-rule="evenodd" sketch:type="MSPage">
        <g id="running" sketch:type="MSArtboardGroup" fill="#FFFFFF">
            <path d="M3.18053092,22.1219258 C2.39186655,22.2738033 1.87515542,23.0392661 2.02624055,23.8320972 C2.15919546,24.5307338 2.76957937,25.0167419 3.45248414,25.0167419 C3.54313522,25.0167419 3.636808,25.0075989 3.72745908,24.989404 L9.71043012,23.8351347 C10.0518825,23.7683086 10.3570744,23.583018 10.574637,23.3096385 L13.1430842,20.0533842 L12.2849509,19.6129393 C11.6503934,19.290959 11.2091945,18.7077492 11.0581095,18 L8.63470401,21.0709637 L3.18053092,22.1219258 Z M24.1848745,9.40315672 C25.9438321,9.40315672 27.3697489,7.96976126 27.3697489,6.20157836 C27.3697489,4.43339546 25.9438321,3 24.1848745,3 C22.4259169,3 21,4.43339546 21,6.20157836 C21,7.96976126 22.4259169,9.40315672 24.1848745,9.40315672 Z M16.9155827,5.48297056 C16.5801737,5.13668978 16.2689686,5 15.9275162,5 C15.8035962,5 15.6797365,5.01822531 15.5467514,5.04860081 L10.0805218,6.35171003 C9.32509615,6.53092552 8.85975396,7.29335073 9.03803442,8.04970084 C9.19214122,8.69973667 9.76626469,9.13714396 10.4038439,9.13714396 C10.5126554,9.13714396 10.6214065,9.12499376 10.730218,9.0976558 L15.3866616,7.98894982 C15.6888319,8.32611794 17.2027049,9.97550791 17.4776798,10.2671128 C15.5528553,12.3387224 13.6280308,14.4072943 11.703176,16.4789038 C11.672959,16.5123473 11.6457939,16.5457299 11.6185684,16.579143 C11.0565317,17.2990425 11.228799,18.4290113 12.0748757,18.857306 L13.0992026,19.3828326 L17.9762305,21.8857439 L14.9122241,26.8764397 C14.4922377,27.5629564 14.7037569,28.4620411 15.3866314,28.8872982 C15.6253459,29.0361381 15.888234,29.1060018 16.1481004,29.1060018 C16.6345946,29.1060018 17.1119933,28.8599602 17.3869985,28.4134402 L21.2789514,22.0740721 C21.4934923,21.7247538 21.5509046,21.3025342 21.4391016,20.9106902 C21.3272986,20.5158086 21.0583671,20.1877531 20.6927411,20.0024625 L16.6950286,17.958191 L20.8982471,13.4383156 L24.0710347,16.1417357 C24.3338927,16.3664841 24.6572148,16.4758663 24.9775455,16.4758663 C25.3219894,16.4758663 25.6664936,16.3482891 25.935395,16.09921 L29.5765466,12.6880406 C30.1446568,12.1564693 30.1778653,11.2634294 29.6490674,10.6923699 C29.3710708,10.3946899 28.9963797,10.2428124 28.6216885,10.2428124 C28.2802362,10.2428124 27.9357621,10.3673519 27.6668305,10.6194687 L24.9412549,13.1679736 C24.9382029,13.1710112 18.1091552,6.71317856 16.9155827,5.48297056 Z" id="Shape" sketch:type="MSShapeGroup"></path>
        </g>
    </g>
</svg>