<svg width="32px" height="32px" viewBox="0 0 32 32" version="1.1" xmlns="http://www.w3.org/2000/svg" xmlns:xlink="http://www.w3.org/1999/xlink">      
    <defs></defs>
    <g id="Symbols" stroke="none" stroke-width="1" fill="none" fill-rule="evenodd">
        <g id="Icons" fill="#FFFFFF">
            <g id="swimming27" transform="translate(2.000000, 5.000000)">
                <g id="Group">
                    <path d="M11.0308698,10.8242808 C12.7210939,11.0335993 14.2971137,11.5737557 15.7582947,12.2507007 C16.4669961,12.5828109 17.2258204,13.0179899 17.8203174,13.3577348 C18.4154489,13.7095681 19.0200974,14.0270451 19.6310906,14.3362512 L15.9270634,6.9827451 L15.1447637,5.60340601 L12.3803843,0.747088989 C11.9901862,0.0618730289 11.1215988,-0.176711916 10.4376417,0.21329494 C9.75178122,0.606482929 9.51575893,1.47747703 9.90659154,2.16269299 L12.9634609,7.53753462 L12.1811612,8.23356643 L7.50830052,10.9057178 L7.40044087,10.9661593 C8.60402766,10.7123049 9.8469515,10.6747676 11.0308698,10.8242808 L11.0308698,10.8242808 Z" id="Shape"></path>
                    <path d="M22.6308578,10.5252544 C24.1066316,9.68098176 24.6199166,7.79520636 23.7798803,6.31661593 C22.938575,4.84057041 21.0599137,4.32331825 19.5847744,5.16759084 C18.1115385,6.01186343 17.5925432,7.89827506 18.4351174,9.37368435 C19.2751538,10.8554559 21.1588908,11.3695269 22.6308578,10.5252544 L22.6308578,10.5252544 Z" id="Shape"></path>
                    <path d="M28.4578167,12.8296668 C28.0213024,14.2821719 27.3322696,15.6309722 26.3507467,16.3276402 C25.3958716,17.0249445 24.3064892,17.0682079 23.1079781,16.8264418 C21.912005,16.5744961 20.671619,16.0616975 19.4572462,15.4477389 C18.8424462,15.1366242 18.2377977,14.8185109 17.6413973,14.464769 C17.0469003,14.125024 16.2861725,13.6904813 15.5774712,13.358371 C14.1175591,12.6820623 12.5402704,12.1406335 10.8487773,11.931315 C9.17060805,11.7200878 7.36491063,11.8594214 5.73496099,12.5083724 C4.10120454,13.1465076 2.71679422,14.2669025 1.75874675,15.5851639 C0.816560991,16.9186946 0.163692879,18.3960126 0,19.9420431 C1.83171063,17.5103853 4.16782374,15.7664884 6.59276244,15.358031 C9.01008751,14.9133087 11.5263897,15.6436967 13.9665556,16.7946305 C14.6022931,17.0841135 15.1377845,17.3761415 15.8382378,17.7527876 C16.5431323,18.1084382 17.2632541,18.4551817 18.0043133,18.7446647 C19.4927765,19.3198135 21.0935406,19.7918936 22.8567286,19.8039819 C23.7329296,19.8065268 24.662426,19.6843713 25.539896,19.3198135 C26.4237106,18.9635267 27.2142584,18.3349349 27.7281779,17.5822789 C28.7331761,16.034976 28.8372289,14.3171644 28.4578167,12.8296668 L28.4578167,12.8296668 Z" id="Shape"></path>
                </g>
            </g>
        </g>
    </g>
</svg>