<svg width="32px" height="32px" viewBox="0 0 32 32" version="1.1" xmlns="http://www.w3.org/2000/svg" xmlns:xlink="http://www.w3.org/1999/xlink" xmlns:sketch="http://www.bohemiancoding.com/sketch/ns">
    <defs></defs>
    <g id="Page-1" stroke="none" stroke-width="1" fill="none" fill-rule="evenodd" sketch:type="MSPage">
        <g id="hiking" sketch:type="MSArtboardGroup" fill="#FFFFFF">
            <path d="M22.5305263,14.3644826 L19.1726316,12.5329036 L16.4252632,8.13711417 C15.89612,7.48586575 15.2449326,7.16027206 14.4715789,7.16027206 C13.9424358,7.16027206 13.4336842,7.38415206 12.9452632,7.83185101 L8.79368421,12.0444826 C8.67157895,12.20731 8.59019579,12.3904679 8.54947368,12.5939563 L8,17.2950089 L8,17.4171142 C8,17.7019857 8.10177474,17.9461963 8.30526316,18.1497457 C8.50875158,18.3531731 8.75296211,18.4550089 9.03789474,18.4550089 C9.32282737,18.4550089 9.55684211,18.3531731 9.74,18.1497457 C9.92315789,17.9461963 10.0350674,17.7223773 10.0757895,17.4781668 L10.5031579,13.4486931 L11.968421,11.98343 L10.6252632,23.2171142 L8.24421053,28.5287542 C8.16282737,28.7729647 8.12210526,28.9962952 8.12210526,29.2004552 C8.12210526,29.6474826 8.27473684,30.0246657 8.58,30.3299289 C8.88526316,30.6351921 9.26177474,30.76731 9.70947368,30.726771 C10.32,30.726771 10.7676989,30.4411668 11.0526316,29.8720342 L13.6168421,24.1329647 C13.6168421,24.0920594 13.6371726,24.0209331 13.6778947,23.9192805 C13.7186779,23.8173226 13.7594,23.7257436 13.8,23.6445436 C13.8407221,23.5630384 13.8610526,23.4815331 13.8610526,23.4003331 L14.1663158,20.6529036 L16.791579,29.6888763 C17.0765116,30.4215079 17.5852632,30.7674321 18.3178947,30.726771 C18.7249326,30.726771 19.0810526,30.5741394 19.3863158,30.2688763 C19.6915789,29.9636131 19.8442105,29.58643 19.8442105,29.1394026 C19.8442105,29.0980089 19.8340147,29.0478236 19.8136842,28.986771 C19.7933537,28.9257184 19.7831579,28.8746784 19.7831579,28.8340173 L16.12,16.3181668 L16.5473684,12.2276405 L17.5852632,13.8760615 C17.6666463,13.9981668 17.7684211,14.0999415 17.8905263,14.1813247 L21.4926316,16.1960615 C21.7368421,16.2774447 21.8996695,16.3181668 21.9810526,16.3181668 C22.2659853,16.3181668 22.5101958,16.2062573 22.7136842,15.9823773 C22.9171726,15.7584363 23.0189474,15.504091 23.0189474,15.2192194 C23.0189474,14.8529036 22.85612,14.567971 22.5305263,14.3644826 L22.5305263,14.3644826 Z M14.8073684,6.64132469 C15.4382253,6.62099417 15.9673684,6.37678364 16.3947368,5.90869311 C16.8221053,5.44060259 17.0255937,4.8911289 17.0052632,4.26027206 C16.9849326,3.62929311 16.7508568,3.09001522 16.3031579,2.64237732 C15.8554589,2.19467838 15.31612,1.98099417 14.6852632,2.00132469 C14.0544063,2.02165522 13.5252632,2.26586575 13.0978947,2.73395627 C12.6705263,3.2020468 12.4568421,3.75152048 12.4568421,4.38237732 C12.4568421,5.01323417 12.6908568,5.55257311 13.1589474,6.00027206 C13.6270379,6.44797101 14.1765116,6.66165522 14.8073684,6.64132469 L14.8073684,6.64132469 Z" id="Shape" sketch:type="MSShapeGroup"></path>
        </g>
    </g>
</svg>