<?xml version="1.0" encoding="utf-8"?>
<!DOCTYPE svg PUBLIC "-//W3C//DTD SVG 1.1//EN" "http://www.w3.org/Graphics/SVG/1.1/DTD/svg11.dtd">
<svg version="1.1" id="svg-intro-quicker" xmlns="http://www.w3.org/2000/svg" xmlns:xlink="http://www.w3.org/1999/xlink" 
     x="0px" y="0px" viewBox="0 0 3200 2400" enable-background="new 0 0 3200 2400" xml:space="preserve">
    
    <path fill="#ffffff" d="M2084.3,881.5c-7.7-9.5-19.2-15.3-31.4-15.8c-12.3-0.5-24.1,4.4-32.5,13.3l-1.1,1.2
            c-14.6,15.5-15.5,39.4-2.2,55.9c119.4,147.9,185.2,333.9,185.2,523.9c0,460.5-374.7,835.2-835.2,835.2
            c-460.5,0-835.2-374.7-835.2-835.2c0-460.5,374.7-835.2,835.2-835.2c175.8,0,344.1,54.2,486.7,156.8c17.3,12.4,41.1,10.2,55.7-5.3
            l1.1-1.2c8.4-8.9,12.6-21,11.4-33.2c-1.2-12.2-7.5-23.3-17.5-30.5c-55.4-39.9-115.6-73.7-178.8-100.4
            c-113.6-48.1-234.3-72.4-358.7-72.4c-124.4,0-245,24.4-358.7,72.4c-109.7,46.4-208.3,112.8-292.9,197.5
            c-84.6,84.6-151,183.1-197.5,292.9C470,1215,445.6,1335.6,445.6,1460c0,124.4,24.4,245.1,72.4,358.7
            c46.4,109.7,112.8,208.3,197.5,292.9c84.6,84.6,183.1,151,292.9,197.5c113.6,48.1,234.3,72.4,358.7,72.4
            c124.4,0,245-24.4,358.7-72.4c109.7-46.4,208.3-112.8,292.9-197.5c84.6-84.6,151-183.1,197.5-292.9
            c48.1-113.6,72.4-234.3,72.4-358.7c0-124.4-24.4-245-72.4-358.7C2182.5,1022.1,2138.2,948.1,2084.3,881.5z
            M1695.2,1002.8l1-1.1c8.8-9.3,12.9-22.1,11.3-34.8c-1.7-12.7-9-24-19.9-30.7c-26-15.9-53.4-30-81.6-41.9
            c-75.7-32-156.1-48.3-239-48.3c-82.9,0-163.3,16.2-239,48.3c-73.1,30.9-138.8,75.2-195.1,131.5c-56.4,56.4-100.6,122-131.5,195.1
            c-32,75.7-48.3,156.1-48.3,239c0,82.9,16.2,163.3,48.3,239c30.9,73.1,75.2,138.8,131.5,195.1c56.4,56.4,122,100.6,195.1,131.5
            c75.7,32,156.1,48.3,239,48.3c82.9,0,163.3-16.2,239-48.3c73.1-30.9,138.8-75.2,195.1-131.5c56.4-56.4,100.6-122,131.5-195.1
            c32-75.7,48.3-156.1,48.3-239c0-82.9-16.2-163.3-48.3-239c-16.4-38.8-36.9-76-60.7-110.4c-7.3-10.5-19-17.2-31.7-18.2
            c-12.8-1-25.3,3.9-34.1,13.2l-1,1.1c-13.8,14.6-15.5,36.9-4.1,53.4c61.3,88.4,93.7,192.1,93.7,299.9c0,291-236.7,527.7-527.7,527.7
            c-291,0-527.7-236.7-527.7-527.7c0-291,236.7-527.7,527.7-527.7c97.3,0,192.4,26.8,275.1,77.5
            C1659.2,1020.4,1681.4,1017.5,1695.2,1002.8z
            M1367,1217.7c26.8,0,53.2,4.4,78.4,13c15.8,5.4,33.3,1.1,44.7-11l1-1c9.9-10.5,13.8-25.3,10.4-39.4
            c-3.5-14-13.8-25.3-27.5-30c-34.4-11.8-70.4-17.8-107-17.8c-87.7,0-170.2,34.2-232.3,96.2c-62,62-96.2,144.5-96.2,232.3
            s34.2,170.2,96.2,232.3c62,62,144.5,96.2,232.3,96.2c87.7,0,170.2-34.2,232.3-96.2c62-62,96.2-144.5,96.2-232.3
            c0-43.1-8.2-84.9-24.3-124.3c-5.5-13.4-17.3-23.1-31.5-25.7c-14.2-2.7-28.8,2.1-38.7,12.6l-1,1.1c-11.5,12.1-14.8,29.8-8.5,45.3
            c11.8,29,17.8,59.6,17.8,91.1c0,133.6-108.7,242.3-242.3,242.3s-242.3-108.7-242.3-242.3S1233.4,1217.7,1367,1217.7z
            M2754.4,279.6L2553.6,237l-96.4,95.2c-2-5.5-5.3-10.7-9.8-15c-1.8-1.7-3.7-3.2-5.7-4.4l92.4-93.5
            l-42.6-200.8L2211,310.1l29.5,169.2l-901.9,953.9c-14.8,15.6-14.1,40.3,1.5,55.1c7.5,7.1,17.2,10.7,26.8,10.7
            c10.3,0,20.7-4.1,28.3-12.2l903.3-955.4l164.3,28.7L2754.4,279.6z"/>
</svg>
