<?xml version="1.0" encoding="utf-8"?>
<!DOCTYPE svg PUBLIC "-//W3C//DTD SVG 1.1//EN" "http://www.w3.org/Graphics/SVG/1.1/DTD/svg11.dtd">
<svg version="1.1" id="svg-intro-friendlier" xmlns="http://www.w3.org/2000/svg" xmlns:xlink="http://www.w3.org/1999/xlink" 
     x="0px" y="0px" viewBox="-272 395.9 50 50" enable-background="new -272 395.9 50 50" xml:space="preserve">
    
    <path fill="#ffffff" d="M-252.1,400.3c-4.7,0.1-7.7,2-8.9,4.9c-1.2,2.8-0.9,6.3-0.1,10c-0.5,0.6-0.9,1.3-0.7,2.4c0.1,1.2,0.5,2.1,1,2.7
            c0.3,0.3,0.6,0.4,0.9,0.5c0.2,1,0.5,2.1,0.9,3c0.3,0.5,0.5,1,0.8,1.3c0.1,0.2,0.3,0.3,0.4,0.4c0,1.2,0,2.3-0.1,3.6
            c-0.3,0.8-1.1,1.4-2.3,2c-1.3,0.6-2.9,1.2-4.6,1.9c-1.7,0.7-3.4,1.6-4.8,3c-1.4,1.4-2.3,3.3-2.5,5.8l-0.1,1.1h1.1h38h1.1l-0.1-1.1
            c-0.1-1.7-0.6-3.2-1.3-4.3h10.3h1.1l-0.1-1.1c-0.1-2.1-1-3.8-2.1-5c-1.2-1.2-2.6-1.9-4-2.5c-1.4-0.6-2.8-1.1-3.8-1.6
            c-1-0.5-1.6-1-1.8-1.6c-0.1-1.1-0.1-1.9-0.1-2.9c0.1-0.1,0.3-0.2,0.3-0.3c0.2-0.3,0.5-0.7,0.7-1.2c0.4-0.7,0.6-1.6,0.8-2.5
            c0.3-0.1,0.5-0.2,0.8-0.4c0.4-0.5,0.7-1.3,0.8-2.3v0c0.1-0.9-0.2-1.5-0.6-2c0.4-1.4,0.9-3.5,0.8-5.7c-0.1-1.2-0.4-2.5-1.2-3.5
            c-0.7-1-1.9-1.7-3.3-2c-1-1.1-2.5-1.5-4.2-1.5c-2.4,0-4.3,0.6-5.7,1.7c-0.6-0.4-1.4-0.7-2.2-0.8C-248,400.8-249.9,400.3-252.1,400.3
            L-252.1,400.3z M-252.1,402.3C-252.1,402.3-252.1,402.3-252.1,402.3c2,0,3.3,0.6,3.7,1.2l0.2,0.4l0.5,0.1c1.4,0.2,2.2,0.8,2.8,1.5
            c0.6,0.8,0.9,1.9,1,3.1c0.2,2.4-0.5,5.2-0.9,6.5l-0.2,0.8l0.7,0.4c0,0,0.4,0.3,0.3,1.1c-0.1,1-0.4,1.5-0.5,1.7
            c-0.2,0.2-0.3,0.2-0.3,0.2l-0.8,0.1l-0.1,0.8c-0.1,0.9-0.4,1.9-0.8,2.8c-0.2,0.4-0.4,0.8-0.6,1c-0.2,0.3-0.4,0.4-0.3,0.3l-0.5,0.3
            v0.6c0,1.4-0.1,2.6,0.1,4.3v0.1l0.1,0.1c0.6,1.5,1.9,2.5,3.3,3.2c1.5,0.7,3.1,1.3,4.7,1.9c1.3,0.6,2.6,1.3,3.6,2.1c0,0,0,0,0,0
            c0,0,0.1,0.1,0.2,0.1c0.1,0.1,0.1,0.1,0.2,0.2c0,0,0,0,0,0c0,0,0.1,0.1,0.1,0.1c0.8,0.9,1.4,2,1.7,3.4h-35.5
            c0.3-1.4,0.8-2.5,1.7-3.4c1.1-1.1,2.5-1.9,4.1-2.6c1.6-0.7,3.2-1.2,4.7-1.9c1.5-0.7,2.8-1.7,3.4-3.2l0-0.1l0-0.1
            c0.2-1.7,0.1-2.9,0.1-4.3v-0.6l-0.5-0.3c0.1,0-0.1-0.1-0.3-0.3s-0.4-0.6-0.6-1c-0.4-0.8-0.8-1.9-0.8-2.8l-0.1-0.8l-0.8-0.1
            c0,0-0.1,0-0.3-0.2c-0.2-0.2-0.4-0.7-0.5-1.7c-0.1-0.8,0.3-1.1,0.3-1.1l0.7-0.4l-0.2-0.7c-0.9-3.6-1.1-6.9-0.1-9.2
            C-258.2,403.8-256.3,402.4-252.1,402.3z M-239.1,403.3C-239.1,403.3-239.1,403.3-239.1,403.3c1.7,0,2.7,0.5,3,1l0.2,0.4l0.5,0.1
            c1.1,0.2,1.8,0.6,2.2,1.2c0.4,0.6,0.7,1.5,0.8,2.5c0.2,2-0.4,4.3-0.8,5.4l-0.2,0.8l0.7,0.4c-0.1-0.1,0.3,0.1,0.2,0.8
            c-0.1,0.8-0.3,1.2-0.4,1.4c-0.1,0.2-0.2,0.1-0.1,0.1l-0.8,0.1l-0.1,0.8c-0.1,0.7-0.4,1.6-0.7,2.2c-0.2,0.3-0.3,0.6-0.5,0.8
            c-0.1,0.1-0.2,0.2-0.2,0.2h0c0,0,0,0,0,0l-0.5,0.2v0.6c0,1.2,0,2.2,0.1,3.7v0.1l0.1,0.1c0.5,1.3,1.7,2.2,2.9,2.8
            c1.2,0.6,2.6,1.1,3.9,1.7c1.3,0.6,2.5,1.2,3.4,2.1c0.7,0.7,1.1,1.6,1.3,2.6h-10.9c-1.2-1-2.7-1.8-4.1-2.4c-1.7-0.7-3.3-1.3-4.6-1.9
            c-1.2-0.6-2-1.2-2.3-2c-0.1-1.3-0.1-2.3-0.1-3.6c0.1-0.1,0.3-0.2,0.4-0.4c0.3-0.4,0.5-0.8,0.8-1.3c0.4-0.9,0.7-1.9,0.9-3
            c0.3-0.2,0.6-0.2,0.9-0.5c0.5-0.6,0.8-1.5,1-2.7c0.1-1.1-0.2-1.8-0.7-2.4c0.5-1.6,1.1-4.2,0.9-6.8c-0.1-1.4-0.5-2.9-1.3-4.1
            c0,0,0,0,0,0C-242.3,403.7-241,403.3-239.1,403.3z"/>
</svg>
