<?xml version="1.0" encoding="utf-8"?>
<!DOCTYPE svg PUBLIC "-//W3C//DTD SVG 1.1//EN" "http://www.w3.org/Graphics/SVG/1.1/DTD/svg11.dtd">
<svg version="1.1" id="svg-intro-smarter" xmlns="http://www.w3.org/2000/svg" xmlns:xlink="http://www.w3.org/1999/xlink" 
     x="0px" y="0px" viewBox="0 0 595 595" enable-background="new 0 0 595 595" xml:space="preserve">

    <path fill="#ffffff" d="M276.5,464.6V239.2c-10.4-2.5-19.7-8.3-26.6-16.5c-9.5,11.2-23.6,17.9-38.4,17.9
        c-13.8,0-26.4-5.6-35.5-14.7c-9.1-9.1-14.7-21.6-14.7-35.5h23.5c0,14.7,11.9,26.6,26.6,26.6c14.7,0,26.6-11.9,26.6-26.6h23.5
        c0,14.7,11.9,26.6,26.6,26.6c14.7,0,26.6-11.9,26.6-26.6h23.5c0,14.7,11.9,26.6,26.6,26.6c14.7,0,26.6-11.9,26.6-26.6h23.5
        c0,27.7-22.5,50.2-50.2,50.2c-14.9,0-28.8-6.5-38.4-17.9c-6.9,8.2-16.2,14-26.6,16.5v225.4H276.5L276.5,464.6z M192.1,464.7
        l23.5-0.3l-1.1-88.7l-0.1-7.1l-6.3-3.2c-29.2-14.9-53.6-37.6-70.6-65.3c-16.4-26.8-25.9-58.4-25.9-92.2c0-48.8,19.8-93,51.8-125
        c32-32,76.2-51.8,125-51.8s93,19.8,125,51.8c32,32,51.8,76.2,51.8,125c0,33.8-9.5,65.4-25.9,92.2c-17,27.7-41.5,50.4-70.6,65.3
        l-6.5,3.3l0.1,7.3l1.1,88.7l23.5-0.3l-1-81.5c30.2-16.8,55.5-41.2,73.5-70.6c18.7-30.4,29.4-66.2,29.4-104.5
        c0-55.3-22.4-105.4-58.7-141.6C393.7,30,343.6,7.6,288.3,7.6C233,7.6,182.9,30,146.7,66.3C110.4,102.5,88,152.6,88,207.9
        c0,38.2,10.8,74,29.4,104.5c18,29.4,43.5,53.9,73.7,70.7L192.1,464.7L192.1,464.7z M373.8,529.7h-171v-23.5h171V529.7L373.8,529.7z
         M353.7,581.9H222.9v-23.5h130.8V581.9z"/>
</svg>
