<?xml version="1.0" encoding="utf-8"?>
<!DOCTYPE svg PUBLIC "-//W3C//DTD SVG 1.1//EN" "http://www.w3.org/Graphics/SVG/1.1/DTD/svg11.dtd">
<svg version="1.1" id="svg-intro-safer" xmlns="http://www.w3.org/2000/svg" xmlns:xlink="http://www.w3.org/1999/xlink" 
     x="0px" y="0px" viewBox="-272 395.9 50 50" enable-background="new -272 395.9 50 50" xml:space="preserve">
    
    <path fill="#ffffff" d="M-272,395.9v1v6c0,0.6,0.4,1,1,1c0.6,0,1-0.4,1-1c0,0,0,0,0,0v-5h5c0.6,0,1-0.4,1-1c0-0.6-0.4-1-1-1c0,0,0,0,0,0h-6H-272z
             M-229.3,395.9c-0.6,0.1-0.9,0.6-0.9,1.1c0.1,0.6,0.6,0.9,1.1,0.9h5v5c0,0.6,0.4,1,1,1s1-0.4,1-1c0,0,0,0,0,0v-6v-1h-1h-6
            c0,0-0.1,0-0.1,0C-229.1,395.9-229.2,395.9-229.3,395.9C-229.2,395.9-229.3,395.9-229.3,395.9z M-247,396.9c-7.3,0-12.1,2.7-15,6.1
            c-2.9,3.4-4,7.5-4,10.3c0,4.6,0.5,7.6,1.2,9.3c-0.7,0.7-1.2,1.8-1.2,3.2h-5c0,0-0.1,0-0.1,0c0,0-0.1,0-0.1,0c-0.6,0.1-1,0.5-0.9,1.1
            c0.1,0.6,0.5,1,1.1,0.9l0,0h17h14h17c0.6,0,1-0.4,1-1s-0.4-1-1-1c0,0,0,0,0,0h-5c0-1.1-0.3-2-0.8-2.7c0.2-0.9,0.8-3.7,0.8-8.1
            c0-3.4-0.7-7.9-3.4-11.6C-234.2,399.8-239,396.9-247,396.9z M-247,398.9c7.5,0,11.6,2.5,14,5.8c2.4,3.3,3,7.4,3,10.5
            c0,3.2-0.3,5.3-0.5,6.6c-0.5-0.2-1-0.3-1.5-0.3v-2.7c0-1.1-0.4-2.2-1.1-2.8c-0.7-0.7-1.6-1-2.5-1.2c-1.9-0.4-4.2-0.3-6.4-0.4
            c-2.3-0.1-4.6-0.4-6.3-1.5c-1.8-1-3.1-2.8-3.7-6.1c-0.1-0.5-0.6-0.9-1.1-0.8c-0.5,0-0.8,0.4-0.9,0.8c-0.3,2.3-1,3.7-1.7,4.6
            c-0.7,0.9-1.5,1.4-2.3,1.8s-1.8,0.7-2.6,1.4c-0.8,0.7-1.4,1.8-1.4,3.4v3.7c-0.4,0-0.6,0-1,0.1c-0.5-1.4-1-4.2-1-8.3
            c0-2.4,0.9-6,3.5-9C-257.9,401.3-253.8,398.9-247,398.9z M-252.9,410.4c0.9,1.9,2.1,3.3,3.6,4.1c2.2,1.3,4.8,1.6,7.2,1.8
            c2.4,0.1,4.7,0.1,6.2,0.4c0.7,0.2,1.2,0.4,1.5,0.7c0.3,0.3,0.5,0.6,0.5,1.4v3.7c0,0.6,0.4,1,1,1c0,0,0.1,0,0.1,0
            c0,0,1.3-0.1,2.1,0.5c0.4,0.3,0.8,0.8,0.8,2h-7.2c0.1-0.3,0.2-0.6,0.2-1c0-1.7-1.3-3-3-3s-3,1.3-3,3c0,0.4,0.1,0.7,0.2,1h-8.4
            c0.1-0.3,0.2-0.6,0.2-1c0-1.7-1.3-3-3-3s-3,1.3-3,3c0,0.4,0.1,0.7,0.2,1h-7.2c0-1.1,0.3-1.6,0.7-1.9c0,0,0,0,0,0c0,0,0,0,0.1,0
            c0.2,0,0.3-0.1,0.4-0.2c0,0,0,0,0,0c0,0,0.1,0,0.1-0.1c0.7-0.3,1.6-0.2,1.6-0.2c0.5,0.1,1-0.4,1.1-0.9c0,0,0-0.1,0-0.1v-4.5
            c0-1.2,0.3-1.5,0.7-1.9c0.4-0.4,1.2-0.7,2.2-1.1c1-0.5,2.1-1.1,3.1-2.3C-253.6,412-253.2,411.2-252.9,410.4z M-233.1,429.8
            c-0.4,0.1-0.7,0.3-0.8,0.7c-1.4,3.4-3.2,6.6-5.3,8.8c-2.2,2.2-4.6,3.6-7.7,3.6s-5.6-1.3-7.7-3.6c-2.2-2.2-3.9-5.4-5.3-8.8
            c-0.2-0.5-0.6-0.7-1.1-0.6c-0.5,0.1-0.9,0.6-0.8,1.2c0,0.1,0,0.1,0.1,0.2c1.5,3.6,3.3,6.9,5.8,9.4c2.4,2.5,5.5,4.2,9.2,4.2
            s6.7-1.7,9.2-4.2c2.4-2.5,4.3-5.9,5.8-9.4c0.3-0.5,0.1-1.1-0.4-1.4C-232.7,429.8-232.9,429.8-233.1,429.8z M-271.1,437.9
            c0,0-0.1,0-0.1,0c-0.5,0.1-0.8,0.5-0.8,1v6v1h1h6c0.6,0,1-0.4,1-1c0-0.6-0.4-1-1-1c0,0,0,0,0,0h-5v-5c0-0.6-0.4-1-1-1
            C-271,437.9-271.1,437.9-271.1,437.9z M-223.1,437.9c0,0-0.1,0-0.1,0c-0.5,0.1-0.8,0.5-0.8,1v5h-5c-0.6,0-1,0.4-1,1s0.4,1,1,1
            c0,0,0,0,0,0h6h1v-1v-6c0-0.6-0.4-1-1-1C-223,437.9-223.1,437.9-223.1,437.9z"/>
</svg>
