<?xml version="1.0" encoding="utf-8"?>
<!-- Generator: Adobe Illustrator 15.0.0, SVG Export Plug-In . SVG Version: 6.00 Build 0)  -->
<!DOCTYPE svg PUBLIC "-//W3C//DTD SVG 1.1//EN" "http://www.w3.org/Graphics/SVG/1.1/DTD/svg11.dtd">
<svg version="1.1" id="Layer_1" xmlns="http://www.w3.org/2000/svg" xmlns:xlink="http://www.w3.org/1999/xlink" x="0px" y="0px"
	 width="360px" height="360px" viewBox="40 85 360 360" enable-background="new 0 0 360 360" xml:space="preserve">

<path fill="#FFF" stroke="#FFF" stroke-width="2" stroke-miterlimit="10" d="M286.998,130.209
	c-1.845,0.166-3.198,0.795-4.964,1.035c-0.934,0.284-1.617,0.801-2.234,1.384c-0.844,3.288-2.193,7.737-1.611,11.975
	c0.308,2.243,1.883,4.03,2.48,5.756c0.228,4.589,0.456,9.204,1.615,12.894c0.869,2.785,3.845,6.027,1.858,9.327
	c-1.698,2.829-6.376,2.505-7.442,6.099c-0.339,2.84-0.21,6.255,0.496,9.213c1.624,6.822,5.014,13.284,7.445,19.576
	c0.816,2.114,1.26,4.486,3.226,5.754c3.704-0.29,6.222,0.52,7.322,2.65c0.154,3.635-2.585,4.584-5.337,5.524
	c-1.827,2.166-1.436,5.251-1.738,8.406c-0.508,5.364-2.736,9.823-3.227,15.081c-0.083,0.904-0.071,1.863,0,2.649
	c0.145,1.593,0.845,2.831,1.242,4.489c0.432,1.809,0.389,3.56,1.119,5.525c0.357,0.579,4.249,5.713,1.488,6.449
	c-1.59,0.422-3.34-1.355-4.222-2.07c-1.152-0.946-2.662-2.21-4.092-2.071c-0.866,0.077-1.347,0.992-1.984,1.726
	c-1.815,2.064-4.604,2.906-6.952,4.259c-1.879,1.085-3.306,2.823-4.837,4.142c-1.648,1.424-3.347,2.313-5.707,3.223
	c-4.598,1.106-9.657,0.863-14.393,1.384c-2.69,0.3-5.097,1.387-7.571,1.843c-2.946,0.545-6.401,0.459-9.43,0.229
	c-4.089-0.309-7.815-1.196-12.036-1.605c-2.049-0.203-4.209-0.166-6.08,0c-1.871,0.16-3.525,1.06-5.463,1.377
	c-0.807,0.129-1.72,0.104-2.607,0.229c-2.262,0.332-4.573,0.141-6.822-0.229c-2.034-0.333-3.957-1.295-6.822-0.922
	c-3.069,0.398-5.861,2.682-9.06,2.765c-0.425,0.013-0.927-0.19-1.362-0.231c-5.916-0.512-12.35-0.213-17.746-0.689
	c-2.524-0.223-5.436-0.839-8.687-0.346c-1.707,0.256-3.321,0.693-4.961,1.267c-2.829,0.306-6.16,0.57-9.309,0.921
	c-2.943,0.327-5.846,1.106-9.056,1.378c-2.573,0.226-5.874-0.188-7.568-0.915c-1.75-0.746-2.761-2.768-4.967-3.227
	c-0.419-0.09-0.964,0.07-1.488,0c-0.65-0.083-1.297-0.416-1.735-0.456c-1.649-0.167-3.359,0.12-5.091,0
	c-2.567-0.185-5.01-0.512-7.315-0.693c-3.99-0.321-6.582,1.688-11.044,1.149c-2.668-0.32-5.269-1.689-8.067-0.922
	c-1.959,0.537-3.701,2.064-5.833,2.765c-2.027,0.663-4.339,0.69-6.08,1.494c-1.078,0.505-2.064,1.295-3.103,1.96
	c-3.085,1.979-6.228,3.787-9.802,5.408c-2.238-0.068-4.789,0.145-6.822-0.111c-0.913-3.63,0.958-6.598,2.231-8.751
	c0.905-1.532,1.836-3.091,2.853-4.145c0.86-0.89,2.099-1.442,2.73-2.306c1.104-1.49,1.122-3.885,3.476-3.913
	c2.172-0.03,2.97,2.037,4.462,2.765c2.391-0.004,4.973-0.342,6.828-1.039c2.718-1.017,1.688-5.574,3.476-7.596
	c0.583-0.659,2.077-1.633,3.347-1.957c1.882-0.482,4.246-0.425,6.329-1.037c2.539-0.746,4.825-1.847,7.198-2.303
	c4.937-0.942,12.438-0.145,16.255-2.305c1.759-0.992,2.862-2.49,4.468-3.565c1.655-1.118,3.583-1.821,5.087-2.881
	c1.876-1.321,2.81-3.165,3.723-4.948c1.337-2.627,2.28-6.2,5.337-7.488c7.42-2.438,11.414,5.09,18.488,4.03
	c2.148-0.321,4.894-1.235,6.946-1.956c2.212-0.771,4.277-1.831,5.959-2.762c3.214-1.784,7.291-4.465,8.314-8.982
	c1.097-4.856-0.21-9.972-1.368-14.159c-0.66-2.388-0.74-4.955-1.615-7.026c-1.023-2.424-3.494-4.205-3.969-6.791
	c-0.481-2.619,0.333-4.973,0.496-7.254c1.8-4.884,3.972-10.461,5.833-15.77c1.104-3.15,3.199-5.981,2.108-10.021
	c-0.398-1.488-1.452-3.082-2.357-4.604c-0.869-1.457-1.741-3.045-2.604-4.373c-1.245-1.913-3.384-3.162-4.345-4.951
	c-0.792-1.738-0.721-3.684-1.119-5.643c-1.216-1.42-2.936-2.438-4.465-3.568c-1.546-1.149-3.288-2.104-4.837-3.227
	c-1.874-1.414-5.479-2.742-8.81-3.454c-1.14-0.24-2.345-0.579-3.349-0.688c-2.059-0.225-3.646,0.216-3.229,2.299
	c-0.98,0.943-1.381,2.179-3.593,1.843c-0.746-0.107-3.683-1.91-4.225-2.533c-0.33-0.379-0.376-0.883-0.496-1.152
	c-1.454-0.024-3.309,0.854-4.838,0.463c-0.853-0.219-0.869-0.912-1.488-1.381c-0.385-1.383,0.595-2.768,0.619-4.145
	c0.019-0.928-0.45-1.732-0.246-2.418c0.425-1.437,2.354-1.701,4.222-2.074c0.659-0.527,0.807-1.049,1.362-1.492
	c1.149-0.937,2.859-1.001,4.092-1.849c1.032-0.706,1.549-2.249,2.856-2.875c4.367-2.095,12.477-0.357,18.489-1.152
	c3.112-0.413,6.425-2.179,9.306-2.188c1.519-0.007,3.245,0.742,4.714,0.349c1.181-0.318,2.61-2.869,4.838-2.999
	c0.946-0.052,1.488,0.24,2.606,0.462c0.916-0.406,1.192-1.004,2.234-1.035c1.719-0.053,3.211,1.531,3.472,2.995
	c2.009-1.014,2.524-3.417,4.964-4.03c4.351,0.389,5.288-2.389,7.321-4.145c0.956-0.309,1.807-0.377,2.73-0.576
	c2.878-0.616,3.815-3.294,7.199-2.646c2.443,0.461,4.949,1.771,7.567,2.301c1.633,0.33,3.144,0.287,5.211,0.457
	c0.866,0.076,1.679,0.396,2.483,0.465c0.838,0.068,1.649-0.068,2.478,0c2.526,0.2,4.859,0.639,7.447,0.462
	c0.882-0.064,1.793-0.376,2.73-0.462c2.977-0.268,6.262-0.389,9.06-0.922c4.838-0.924,8.908-3.73,14.144-4.605
	c2.015-0.336,4.486-0.586,6.945-0.574c1.852,0.01,3.914,0.207,5.46-0.348c0.826-0.293,1.812-1.078,2.856-1.492
	c2.678-0.693,5.118,0.317,7.445-0.465c1.809-0.61,3.008-2.397,4.964-2.646c3.417-0.336,5.651,0.949,8.314,1.263
	c4.872,0.579,11.494-0.576,15.755,0c0.447,0.067,0.94,0.336,1.615,0.462c1.254,0.238,4.188,0.342,4.465,1.387
	c0.323,1.199-1.319,3.547-1.985,4.719c-0.955,1.682-1.879,2.748-2.854,3.799c-2.055,2.215-4.098,5.198-5.333,7.941
	C296.637,121.984,293.553,127.6,286.998,130.209z"/>

</svg>
