<?xml version="1.0" encoding="utf-8"?>
<!-- Generator: Adobe Illustrator 15.0.0, SVG Export Plug-In . SVG Version: 6.00 Build 0)  -->
<!DOCTYPE svg PUBLIC "-//W3C//DTD SVG 1.1//EN" "http://www.w3.org/Graphics/SVG/1.1/DTD/svg11.dtd">
<svg version="1.1" id="Layer_1" xmlns="http://www.w3.org/2000/svg" xmlns:xlink="http://www.w3.org/1999/xlink" x="0px" y="0px"
	 width="360px" height="360px" viewBox="40 85 360 360" enable-background="new 0 0 360 360" xml:space="preserve">



<path fill="#FFFFFF" stroke="#FFF" stroke-width="2" stroke-miterlimit="10" d="M299.684,97.372
	c3.771,3.499,7.009,7.511,9.593,12.177V122.9c-2.685,7.4-7.634,11.733-6.394,20.029c1.131,7.554,6.125,13.092,4.791,20.418
	c-0.984,5.451-7.012,11.449-14.38,10.602c-3.442-0.395-7.814-3.311-11.991-2.354c-5,1.138-3.723,13.038-13.182,11.785
	c-4.215-0.562-6.91-7.966-11.191-7.857c-3.422,0.084-5.607,6.46-7.193,10.211c-3.373,7.992-5.35,15.252-13.98,18.062
	c-3.108-0.307-5.078,0.506-7.994,0.391c-12.119,3.014-10.482,19.541-21.579,23.561c-9.048-0.451-16.646,3.777-24.771,3.143
	c-4.444-0.342-8.472-2.654-13.587-1.571c-2.74,1.494-2.898,5.534-3.198,9.425c-1.229,0.883-2.298,1.931-3.195,3.143
	c-10.382,2.489-25.19,0.639-35.163,3.537c-8.202,3.719-10.598,13.143-18.779,16.887c0.311,1.613-0.614,2.015-0.401,3.533
	c-4.459,5.287-13.698,10.001-22.774,6.674c-5.328-1.956-11.16-3.933-15.584-7.068c-1.896-1.348-3.244-4.078-5.191-4.322
	c-2.061-0.256-3.227,1.603-5.197,1.574c-4.099-0.059-7.961-4.508-7.591-8.248c0.511-5.203,7.319-5.454,11.587-7.07
	c0.861-5.699,8.037-5.193,10.391-9.422c-0.412-4.725,0.346-8.296,1.195-11.785c3.065-3.463,5.129-7.084,8.792-10.601
	c3.163-3.03,7.64-5.263,10.388-9.03c4.299-5.88,4.738-15.972,11.59-18.849c2.951-1.239,6.02-0.981,8.789-1.962
	c3.217-1.383,4.334-4.1,7.197-5.892c6.166-3.872,17.525-4.292,20.375-10.604c1.299-2.881,1.693-6.578,3.596-9.03
	c5.137-6.628,17.491-9.784,25.97-13.747c4.63-2.162,8.024-4.285,13.192-6.285c12.264,1.818,14.246-7.121,22.773-9.422
	c2.832-0.764,4.931,0.031,7.99-1.965c2.514-2.138,2.321-4.533,3.998-6.678c6.016-7.699,20.234-5.475,25.57-13.743
	c4.291-1.354,12.68-1.567,17.982,0c4.638,1.376,6.842,7.497,11.587,6.677c3.575-0.619,3.768-5.389,4.396-10.211
	C285.717,102.76,288.633,96.066,299.684,97.372z"/>
</svg>
