<?xml version="1.0" encoding="utf-8"?>
<!-- Generator: Adobe Illustrator 18.0.0, SVG Export Plug-In . SVG Version: 6.00 Build 0)  -->
<!DOCTYPE svg PUBLIC "-//W3C//DTD SVG 1.1//EN" "http://www.w3.org/Graphics/SVG/1.1/DTD/svg11.dtd">
<svg version="1.1" id="Layer_1" xmlns="http://www.w3.org/2000/svg" xmlns:xlink="http://www.w3.org/1999/xlink" x="0px" y="0px"
	 viewBox="0 0 90 90" enable-background="new 0 0 90 90" xml:space="preserve">
<g>
	<linearGradient id="SVGID_1_" gradientUnits="userSpaceOnUse" x1="24.55" y1="24.25" x2="73.05" y2="72.75">
		<stop  offset="0" style="stop-color:#141517"/>
		<stop  offset="0.5" style="stop-color:#141517"/>
		<stop  offset="1" style="stop-color:#232629;stop-opacity:0"/>
	</linearGradient>
	<polygon fill="url(#SVGID_1_)" points="56.8,89 89.3,56.5 57.8,25 23.8,25 23.8,55 32.8,64 32.8,65 	"/>
	<g>
		<path opacity="0.5" fill="none" d="M45,0C20.1,0,0,20.1,0,45c0,24.9,20.1,45,45,45c24.9,0,45-20.1,45-45C90,20.1,69.9,0,45,0"/>
		<g>
			<path fill="#5B5F64" d="M32.8,35v30h34V35H32.8z M37.8,62h-3v-3h3V62z M37.8,55h-3v-3h3V55z M37.8,48h-3v-3h3V48z M37.8,41h-3v-3
				h3V41z M45.1,56.6V43.4L56.5,50L45.1,56.6z M64.8,62h-3v-3h3V62z M64.8,55h-3v-3h3V55z M64.8,48h-3v-3h3V48z M64.8,41h-3v-3h3V41
				z"/>
			<path fill="#5B5F64" d="M30.8,33h27v-8h-34v30h7V33z M52.8,28h3v3h-3V28z M28.8,52h-3v-3h3V52z M28.8,45h-3v-3h3V45z M28.8,38h-3
				v-3h3V38z M25.8,31v-3h3v3H25.8z"/>
		</g>
	</g>
</g>
</svg>
