<?xml version="1.0" encoding="utf-8"?>
<!-- Generator: Adobe Illustrator 18.0.0, SVG Export Plug-In . SVG Version: 6.00 Build 0)  -->
<!DOCTYPE svg PUBLIC "-//W3C//DTD SVG 1.1//EN" "http://www.w3.org/Graphics/SVG/1.1/DTD/svg11.dtd">
<svg version="1.1" id="Layer_1" xmlns="http://www.w3.org/2000/svg" xmlns:xlink="http://www.w3.org/1999/xlink" x="0px" y="0px"
	 viewBox="0 0 90 90" enable-background="new 0 0 90 90" xml:space="preserve">
<g>
	<linearGradient id="SVGID_1_" gradientUnits="userSpaceOnUse" x1="31.1333" y1="38.6" x2="68.6665" y2="76.1332">
		<stop  offset="0" style="stop-color:#141517"/>
		<stop  offset="0.5" style="stop-color:#141517"/>
		<stop  offset="1" style="stop-color:#232629;stop-opacity:0"/>
	</linearGradient>
	<polygon fill="url(#SVGID_1_)" points="45,24.7 23.4,47.6 29,53.2 29,64.2 54.8,90 82.5,62.3 	"/>
	<polygon fill="#FFFFFF" points="45,24.7 23.4,47.6 29,47.6 29,64.2 41,64.2 41,48.2 49,48.2 49,64.2 61,64.2 61,47.6 66.6,47.6 	
		"/>
	<path opacity="0.5" fill="none" d="M45,0C20.1,0,0,20.1,0,45c0,24.9,20.1,45,45,45c24.9,0,45-20.1,45-45C90,20.1,69.9,0,45,0"/>
</g>
</svg>
