<?xml version="1.0" encoding="utf-8"?>
<!-- Generator: Adobe Illustrator 18.0.0, SVG Export Plug-In . SVG Version: 6.00 Build 0)  -->
<!DOCTYPE svg PUBLIC "-//W3C//DTD SVG 1.1//EN" "http://www.w3.org/Graphics/SVG/1.1/DTD/svg11.dtd">
<svg version="1.1" id="Layer_1" xmlns="http://www.w3.org/2000/svg" xmlns:xlink="http://www.w3.org/1999/xlink" x="0px" y="0px"
	 viewBox="0 0 90 90" enable-background="new 0 0 90 90" xml:space="preserve">
<g>
	<linearGradient id="SVGID_1_" gradientUnits="userSpaceOnUse" x1="30.75" y1="30.75" x2="74.9" y2="74.9">
		<stop  offset="0" style="stop-color:#141517"/>
		<stop  offset="0.5" style="stop-color:#141517"/>
		<stop  offset="1" style="stop-color:#232629;stop-opacity:0"/>
	</linearGradient>
	<polygon fill="url(#SVGID_1_)" points="60,31.5 30,31.5 30,34.5 39,43.5 30,43.5 30,46.5 39,55.5 30,55.5 30,58.5 60.7,89.2 
		89.2,60.6 	"/>
	<g>
		<g>
			<rect x="30" y="43.5" fill="#FFFFFF" width="30" height="3"/>
		</g>
		<g>
			<rect x="30" y="31.5" fill="#FFFFFF" width="30" height="3"/>
		</g>
		<g>
			<rect x="30" y="55.5" fill="#FFFFFF" width="30" height="3"/>
		</g>
	</g>
	<path opacity="0.5" fill="none" d="M45,0C20.1,0,0,20.1,0,45c0,24.9,20.1,45,45,45c24.9,0,45-20.1,45-45C90,20.1,69.9,0,45,0"/>
</g>
</svg>
