<?xml version="1.0" encoding="utf-8"?>
<!-- Generator: Adobe Illustrator 18.0.0, SVG Export Plug-In . SVG Version: 6.00 Build 0)  -->
<!DOCTYPE svg PUBLIC "-//W3C//DTD SVG 1.1//EN" "http://www.w3.org/Graphics/SVG/1.1/DTD/svg11.dtd">
<svg version="1.1" id="Layer_1" xmlns="http://www.w3.org/2000/svg" xmlns:xlink="http://www.w3.org/1999/xlink" x="0px" y="0px"
	 viewBox="0 0 90 90" enable-background="new 0 0 90 90" xml:space="preserve">
<g>
	<linearGradient id="SVGID_1_" gradientUnits="userSpaceOnUse" x1="30.8578" y1="30.8579" x2="75.8577" y2="75.8578">
		<stop  offset="0" style="stop-color:#141517"/>
		<stop  offset="0.5" style="stop-color:#141517"/>
		<stop  offset="1" style="stop-color:#232629;stop-opacity:0"/>
	</linearGradient>
	<path fill="url(#SVGID_1_)" d="M59.1,30.9c-7.8-7.8-20.5-7.8-28.3,0c-7.8,7.8-7.8,20.5,0,28.3C33,61.3,43.1,71.4,61.7,90L90,61.7
		C73.4,45.1,61.2,33,59.1,30.9z"/>
	<path fill="#5B5F64" d="M45,25c-11,0-20,9-20,20c0,11,9,20,20,20s20-9,20-20C65,34,56,25,45,25z M45,54.5c-5.2,0-9.5-4.3-9.5-9.5
		c0-5.2,4.3-9.5,9.5-9.5s9.5,4.3,9.5,9.5C54.5,50.2,50.2,54.5,45,54.5z"/>
	<circle fill="#E96B5C" cx="45" cy="45" r="7"/>
	<path opacity="0.5" fill="none" d="M45,0C20.1,0,0,20.1,0,45c0,24.9,20.1,45,45,45c24.9,0,45-20.1,45-45C90,20.1,69.9,0,45,0"/>
</g>
</svg>
