<?xml version="1.0" encoding="utf-8"?>
<!-- Generator: Adobe Illustrator 18.0.0, SVG Export Plug-In . SVG Version: 6.00 Build 0)  -->
<!DOCTYPE svg PUBLIC "-//W3C//DTD SVG 1.1//EN" "http://www.w3.org/Graphics/SVG/1.1/DTD/svg11.dtd">
<svg version="1.1" id="Layer_1" xmlns="http://www.w3.org/2000/svg" xmlns:xlink="http://www.w3.org/1999/xlink" x="0px" y="0px"
	 viewBox="0 0 90 90" enable-background="new 0 0 90 90" xml:space="preserve">
<g>
	<linearGradient id="SVGID_1_" gradientUnits="userSpaceOnUse" x1="30.1938" y1="33.6006" x2="71.7869" y2="75.1937">
		<stop  offset="0" style="stop-color:#141517"/>
		<stop  offset="0.5" style="stop-color:#141517"/>
		<stop  offset="1" style="stop-color:#232629;stop-opacity:0"/>
	</linearGradient>
	<path fill="url(#SVGID_1_)" d="M48.3,22c-1.8-1.8-4.7-1.8-6.5,0s-1.8,4.7,0,6.5c0,0,0,0,0.1,0c-5.9,1.8-9.9,8.5-9.9,14.2
		c0,6.7,0,3.4,0,5.4s-1.7,9.2-5.4,10.2v1.1L57,90l29.6-29.6L48.3,22z"/>
	<g>
		<path fill="#FFFFFF" d="M58,48.2c0-2,0,1.3,0-5.4c0-6.7-5.4-14.7-13-14.7s-13,8-13,14.7c0,6.7,0,3.4,0,5.4s-1.7,9.2-5.4,10.2v1.1
			h12.6c0,3.2,2.6,5.8,5.8,5.8s5.8-2.6,5.8-5.8h12.6v-1.1C59.7,57.5,58,50.3,58,48.2z"/>
		<path fill="#FFFFFF" d="M45,29.9c-2.5,0-4.6-2.1-4.6-4.6s2.1-4.6,4.6-4.6c2.5,0,4.6,2.1,4.6,4.6S47.5,29.9,45,29.9z M45,22.8
			c-1.4,0-2.5,1.1-2.5,2.5c0,1.4,1.1,2.5,2.5,2.5s2.5-1.1,2.5-2.5C47.5,23.9,46.4,22.8,45,22.8z"/>
	</g>
	<path opacity="0.5" fill="none" d="M45,0C20.1,0,0,20.1,0,45c0,24.9,20.1,45,45,45c24.9,0,45-20.1,45-45C90,20.1,69.9,0,45,0"/>
</g>
</svg>
