<?xml version="1.0" encoding="utf-8"?>
<!-- Generator: Adobe Illustrator 16.0.0, SVG Export Plug-In . SVG Version: 6.00 Build 0)  -->
<!DOCTYPE svg PUBLIC "-//W3C//DTD SVG 1.1//EN" "http://www.w3.org/Graphics/SVG/1.1/DTD/svg11.dtd">
<svg version="1.1" id="Layer_1" xmlns="http://www.w3.org/2000/svg" xmlns:xlink="http://www.w3.org/1999/xlink" x="0px" y="0px"
	 width="850.394px" height="725.273px" viewBox="-1529.833 114.666 850.394 725.273"
	 enable-background="new -1529.833 114.666 850.394 725.273" xml:space="preserve">
<g>
	<path fill="#1C1C1C" d="M-1441.671,601.759c0,5.844,0.875,9.365,3.512,10.391c0.441,0.441,0.441,1.32-0.145,1.762
		c-1.758,0-4.395,0.578-7.178,1.314c-7.76,2.053-18.307,3.811-26.215,3.811c-17.428,0-33.385-4.832-44.663-16.256
		c-8.789-8.787-13.475-20.357-13.475-33.24c0-12.451,4.104-25.043,13.178-34.707c9.813-10.254,24.313-17.137,46.426-17.137
		c8.348,0,16.109,1.611,18.598,2.197c2.781,0.586,7.32,1.594,9.078,1.318c0,4.832,0.883,12.445,2.199,21.23
		c-0.441,1.176-3.074,1.32-3.957,0.43c-4.098-15.805-15.08-20.797-30.02-20.797c-28.41,0-40.859,20.219-40.859,42.172
		c0,28.137,14.502,50.25,43.938,50.25c9.078,0,14.496-1.906,16.109-4.398c0.73-1.023,1.465-3.66,1.465-8.338v-5.861
		c0-12.303-0.441-13.18-9.52-14.201l-6.441-0.738c-1.172-0.586-1.023-3.221,0-3.658c4.25,0.293,12.301,0.438,20.941,0.438
		c5.715,0,10.691-0.166,15.523-0.438c1.023,0.582,1.172,2.773,0.148,3.658l-2.348,0.295c-6.148,0.736-6.293,4.832-6.293,12.303
		v8.209L-1441.671,601.759L-1441.671,601.759z"/>
	<path fill="#1C1C1C" d="M-1403.315,593.993c-3.367,0-3.805,0.145-4.98,3.516l-3.365,9.373c-1.611,4.686-1.174,5.268,1.607,5.854
		l3.957,0.734c1.172,0.734,1.023,3.367-0.441,3.66c-3.664-0.293-7.469-0.441-11.568-0.441c-4.104,0-7.615,0.293-10.252,0.441
		c-1.316-0.586-1.316-2.926-0.293-3.66l3.367-0.734c4.539-1.02,6.148-2.637,9.082-9.662l14.055-33.682
		c2.488-6.004,3.516-9.52,3.809-12.303c2.633-1.025,5.418-3.826,6.148-5.566c1.172-0.436,2.051-0.162,2.34,0.732
		c0.59,1.469,2.93,9.078,6.301,18.008l13.18,35.012c1.758,4.824,3.07,6.73,8.348,7.748l2.34,0.443c1.32,0.73,1.031,3.365-0.438,3.66
		c-3.809-0.295-7.176-0.445-12.156-0.445c-5.266,0-9.516,0.156-13.176,0.445c-1.469-0.445-1.613-3.072-0.293-3.66l2.93-0.443
		c3.805-0.58,3.66-1.463,1.898-5.998l-3.516-9.504c-1.172-3.365-1.605-3.52-4.977-3.52L-1403.315,593.993L-1403.315,593.993z
		 M-1391.749,589.304c3.809,0,4.246-0.299,2.641-4.535l-4.543-12.455c-1.176-3.367-1.758-4.549-2.195-5.27h-0.293
		c-0.445,0.586-1.027,1.906-2.348,4.984l-5.27,13.035c-1.609,3.959-1.316,4.24,1.906,4.24H-1391.749z"/>
	<path fill="#1C1C1C" d="M-1344.893,570.267c0-9.52-0.145-12.006-3.516-12.449l-4.096-0.586c-1.174-0.148-1.467-3.223,0-3.664
		c8.053-0.58,16.248-0.887,24.307-0.887c13.621,0,28.41,2.193,28.41,17.57c0,9.387-7.32,13.633-13.031,15.666
		c-0.586,0.58-0.441,1.467,0,2.182c7.32,12.313,13.766,19.477,18.598,23.441c2.637,2.188,5.422,2.926,7.762,3.076
		c0.586,0.588,0.586,1.91,0,2.344c-1.316,0.428-3.367,0.729-6.148,0.729c-8.789,0-14.059-2.777-20.504-10.977
		c-3.66-4.682-7.613-11.137-10.688-15.813c-1.172-1.758-3.516-2.34-5.859-2.34c-3.809,0-4.102,0.297-4.102,2.34v10.402
		c0,10.102,0.586,10.818,6.887,11.711l3.367,0.438c1.027,0.732,0.879,3.227-0.293,3.664c-6.148-0.293-10.98-0.438-15.523-0.438
		c-4.684,0-9.223,0.154-14.352,0.438c-1.465-0.438-1.609-3.078-0.293-3.664l2.199-0.438c6.295-1.314,6.883-1.596,6.883-11.711
		v-31.043L-1344.893,570.267L-1344.893,570.267z M-1333.764,580.958c0,3.66,0.152,3.66,7.324,3.66
		c9.516,0,14.496-3.809,14.496-13.91c0-7.32-5.125-13.766-15.379-13.766c-5.418,0-6.441,0.297-6.441,4.098V580.958z"/>
	<path fill="#1C1C1C" d="M-1223.35,575.685c0-14.645-0.879-18.445-6.301-18.891l-4.688-0.432c-1.023-0.885-0.879-2.936,0.293-3.666
		c5.422,0.297,8.789,0.438,13.035,0.438s7.465-0.145,12.152-0.438c1.176,0.73,1.176,2.93,0.148,3.666l-4.395,0.432
		c-3.809,0.445-4.98,4.396-4.98,18.891v24.605c0,2.926,0,14.797,0.441,16.988c-0.441,0.883-1.754,1.605-3.074,1.32
		c-1.609-2.055-4.539-5.129-13.617-14.939l-22.258-23.725c-5.566-5.852-9.375-9.662-11.281-11.277c-0.582,0-0.582,1.594-0.582,6.152
		v19.313c0,14.646,0.879,18.469,6.297,18.891l4.688,0.438c1.168,0.891,0.879,2.918-0.297,3.664
		c-5.422-0.293-8.789-0.438-13.035-0.438s-7.023,0.16-12.156,0.438c-1.172-0.588-1.172-2.932-0.145-3.664l4.395-0.438
		c3.809-0.422,4.98-4.395,4.98-18.891v-26.215c0-4.813-0.152-6.881-3.082-9.059c-1.168-0.891-3.953-1.76-5.414-2.066l-2.199-0.441
		c-1.023-0.881-1.023-3.074,0.297-3.664c5.563,0.441,9.52,0.441,12.594,0.441c2.051,0,4.102-0.145,5.859-0.441
		c2.93,5.584,8.344,11.875,14.352,18.016l13.766,14.203c3.219,3.238,11.715,12.459,13.328,13.641
		c0.879-0.301,0.879-2.344,0.879-5.857V575.685z"/>
	<path fill="#1C1C1C" d="M-1188.948,568.515c0-10.111-0.59-10.549-6.152-11.721l-2.047-0.438c-1.027-0.586-0.879-3.074,0.289-3.66
		c4.25,0.297,8.793,0.434,13.625,0.434h20.787c6.445,0,12.305-0.143,13.617-0.434c0.148,1.754,0.887,8.637,1.613,14.941
		c-0.586,1.17-2.93,1.32-3.809,0.297c-0.879-3.814-1.754-5.715-2.637-7.027c-2.34-3.52-8.926-3.52-12.441-3.52h-6.447
		c-5.125,0-5.27,0.156-5.27,4.68v16.242c0,2.648,0,2.93,2.785,2.93h6.877c7.762,0,8.496-1.17,9.668-5.564l0.73-2.775
		c0.734-1.02,2.926-0.891,3.66,0.293c-0.293,4.25-0.293,6.883-0.293,10.242c0,3.654,0,6.309,0.293,10.555
		c-0.734,1.174-2.926,1.316-3.66,0.293l-0.73-2.777c-1.176-4.398-1.906-5.566-9.668-5.566h-6.877c-2.785,0-2.785,0.438-2.785,3.365
		v10.547c0,4.412,0.293,8.93,1.609,10.561c1.32,1.477,3.957,2.059,12.299,2.059c9.375,0,14.793-0.432,19.039-12.148
		c1.023-1.023,3.367-0.74,3.809,0.574c-0.734,6.164-2.785,13.488-4.395,16.254c-9.23-0.295-16.988-0.438-24.898-0.438h-12.881
		c-4.688,0-9.227,0.16-16.262,0.438c-1.172-0.438-1.313-2.934-0.285-3.664l3.953-0.434c6.293-0.734,6.879-1.6,6.879-11.719
		L-1188.948,568.515L-1188.948,568.515z"/>
	<path fill="#1C1C1C" d="M-1109.727,561.19c0-3.811-0.148-3.811-3.078-3.811h-4.539c-8.934,0-12.738,0.881-16.25,10.982
		c-1.469,0.881-3.082,0.436-3.664-0.729c1.613-6.301,3.219-13.625,3.953-17.283c0.586-0.588,2.051-0.588,2.637,0
		c0.145,2.916,2.195,2.775,8.055,2.775h40.719c5.414,0,6.438-0.148,7.617-2.775c1.012-0.588,2.184-0.295,2.637,0.422
		c-1.172,3.822-1.754,11.572-1.469,17.131c-0.59,1.174-3.074,1.338-3.66,0.164c-1.023-9.516-4.832-10.691-13.629-10.691h-4.98
		c-2.777,0-3.234,0-3.234,3.803v40.127c0,10.105,0.59,10.988,6.902,11.717l3.957,0.436c1.012,0.734,0.883,3.223-0.297,3.668
		c-6.004-0.295-11.57-0.445-16.117-0.445c-4.688,0-9.961,0.15-16.105,0.445c-1.176-0.445-1.32-2.934-0.301-3.668l3.961-0.436
		c6.293-0.729,6.879-1.605,6.879-11.717V561.19H-1109.727z"/>
	<path fill="#1C1C1C" d="M-1014.844,542.147c0-13.904-0.434-16.4-6.438-17.131l-4.676-0.586c-1.012-0.73-1.012-3.072,0.152-3.66
		c8.207-0.73,18.309-1.172,32.657-1.172c9.066,0,17.723,0.73,24.457,4.391c7.023,3.664,12.145,10.25,12.145,20.504
		c0,13.91-10.984,21.527-18.301,24.457c-0.734,0.883,0,2.34,0.738,3.512c11.719,18.891,19.48,30.609,29.434,38.955
		c2.496,2.186,6.156,3.803,10.102,4.078c0.738,0.295,0.887,1.477,0.152,2.068c-1.316,0.428-3.656,0.734-6.434,0.734
		c-12.457,0-19.91-3.664-30.313-18.457c-3.813-5.418-9.813-15.531-14.352-22.113c-2.188-3.238-4.543-4.689-10.395-4.689
		c-6.586,0-6.898,0.154-6.898,3.234v18.447c0,15.379,0.301,17.133,8.801,18.303l3.082,0.443c0.879,0.73,0.582,3.215-0.297,3.66
		c-6.582-0.295-11.566-0.445-17.422-0.445c-6.152,0-11.422,0.156-18.305,0.445c-0.887-0.445-1.172-2.641-0.293-3.66l3.656-0.443
		c8.497-1.018,8.793-2.924,8.793-18.303v-52.574L-1014.844,542.147L-1014.844,542.147z M-1002.836,563.095
		c0,2.633,0,4.246,0.434,4.834c0.434,0.434,2.645,0.729,10.098,0.729c5.273,0,10.844-0.586,15.086-3.809
		c3.961-3.074,7.32-8.205,7.32-18.156c0-11.566-7.176-22.555-23.434-22.555c-9.082,0-9.516,0.59-9.516,4.684L-1002.836,563.095
		L-1002.836,563.095z"/>
	<path fill="#1C1C1C" d="M-862.554,584.618c0,19.773-14.945,34.123-35.602,34.123c-22.7,0-36.172-14.811-36.172-33.248
		c0-19.477,14.941-34.414,36.172-34.414C-874.554,551.087-862.554,566.755-862.554,584.618z M-921.273,583.161
		c0,15.074,6.887,31.336,23.872,31.336c11.137,0,21.813-7.617,21.813-27.678c0-15.668-7.469-31.486-23.57-31.486
		C-909.703,555.333-921.273,562.509-921.273,583.161z"/>
	<path fill="#1C1C1C" d="M-779.671,584.618c0,19.773-14.938,34.123-35.594,34.123c-22.699,0-36.176-14.811-36.176-33.248
		c0-19.477,14.941-34.414,36.176-34.414C-791.687,551.087-779.671,566.755-779.671,584.618z M-838.398,583.161
		c0,15.074,6.891,31.336,23.871,31.336c11.137,0,21.82-7.617,21.82-27.678c0-15.668-7.477-31.486-23.57-31.486
		C-826.831,555.333-838.398,562.509-838.398,583.161z"/>
	<path fill="#1C1C1C" d="M-729.741,590.915c1.02,1.904,4.676,8.5,5.262,8.934c0.586-0.301,3.23-4.98,6.008-10.25l7.324-14.059
		c7.023-13.473,7.742-15.961,10.098-22.855c3.242,0.293,6.148,0.441,8.492,0.441c3.516,0,7.766-0.148,12.004-0.441
		c1.32,0.441,1.473,2.93,0.43,3.672l-3.223,0.428c-6.738,0.885-7.031,3.658-7.031,12.303c0,15.529,0,27.969,0.738,36.766
		c0.293,3.223,0.293,6.738,4.84,7.164l4.234,0.439c1.012,0.586,1.012,3.076-0.156,3.666c-5.254-0.293-10.98-0.445-14.637-0.445
		c-4.246,0-8.793,0.16-12.895,0.445c-1.016-0.75-1.168-3.08-0.148-3.666l3.223-0.439c4.688-0.586,4.688-1.762,4.688-7.617v-33.84
		c0-1.756,0-3.959-0.438-4.246c-0.43,0-4.25,7.318-6.301,11.145l-8.93,16.832c-1.172,2.191-8.789,17.422-10.398,22.113
		c-0.734,0.586-1.906,0.586-2.773,0c-1.602-5.266-6.145-14.645-8.637-19.473l-9.516-18.459c-1.605-3.217-4.688-10.979-5.855-11.416
		c-0.578,0.738-0.734,10.547-0.883,14.65c-0.152,5.848-0.293,11.998-0.293,19.195c0,7.467,0.148,10.689,4.242,11.127l4.828,0.438
		c1.027,0.588,0.891,3.078-0.148,3.664c-3.813-0.293-8.051-0.441-12.004-0.441c-3.223,0-7.617,0.16-12.145,0.441
		c-1.016-0.586-1.172-2.934,0-3.664l3.074-0.438c4.828-0.73,5.262-2.186,6-7.324c1.168-7.906,2.063-31.477,2.063-41.441
		c0-4.678-1.609-6.881-6.586-7.469l-3.516-0.426c-0.879-0.742-1.02-3.09,0.293-3.672c3.953,0.293,7.324,0.438,11.281,0.438
		c2.922,0,5.996,0,10.688-0.438c0,6.445,2.637,11.133,7.613,20.801L-729.741,590.915z"/>
</g>
<linearGradient id="SVGID_1_" gradientUnits="userSpaceOnUse" x1="-2572.8806" y1="-2269.5918" x2="-2572.8806" y2="-1986.1274" gradientTransform="matrix(1 0 0 -1 1468.2441 -1871.4609)">
	<stop  offset="0" style="stop-color:#330516"/>
	<stop  offset="1" style="stop-color:#800D36"/>
</linearGradient>
<path fill="url(#SVGID_1_)" d="M-1183.9,328.189l-59.73,59.727c-0.301,0.299-0.715,0.473-1.133,0.473
	c-0.207,0-0.418-0.047-0.613-0.121c-0.598-0.246-0.992-0.832-0.992-1.482V126.014c0-0.648,0.395-1.23,0.992-1.475
	c0.602-0.248,1.289-0.117,1.746,0.35l59.73,59.727c0.301,0.299,0.469,0.709,0.469,1.137v141.311
	C-1183.431,327.484-1183.599,327.891-1183.9,328.189z M-1176.427,177.139c0.301,0.299,0.711,0.469,1.133,0.469h141.313
	c0.426,0,0.844-0.17,1.133-0.469l59.723-59.732c0.457-0.461,0.598-1.146,0.352-1.746c-0.238-0.602-0.828-0.994-1.477-0.994h-260.766
	c-0.648,0-1.238,0.393-1.484,0.994c-0.246,0.594-0.105,1.285,0.352,1.746L-1176.427,177.139z M-1171.251,188.176
	c-0.887,0-1.605,0.719-1.605,1.609v133.236c0,0.881,0.719,1.605,1.605,1.605h133.23c0.891,0,1.602-0.725,1.602-1.605V189.785
	c0-0.891-0.723-1.609-1.602-1.609H-1171.251z M-963.899,124.539c-0.598-0.248-1.289-0.117-1.738,0.35l-59.727,59.727
	c-0.293,0.299-0.473,0.709-0.473,1.137v141.311c0,0.424,0.18,0.828,0.473,1.133l59.727,59.721c0.293,0.299,0.715,0.473,1.125,0.473
	c0.191,0,0.414-0.045,0.613-0.121c0.598-0.246,0.996-0.832,0.996-1.477V126.014C-962.903,125.365-963.302,124.785-963.899,124.539z
	 M-1032.845,335.664c-0.293-0.303-0.711-0.467-1.137-0.467h-141.305c-0.426,0-0.832,0.164-1.133,0.467l-59.727,59.734
	c-0.461,0.455-0.594,1.146-0.348,1.74c0.246,0.602,0.836,0.992,1.48,0.992h260.766c0.652,0,1.242-0.391,1.48-0.992
	c0.246-0.594,0.109-1.285-0.352-1.74L-1032.845,335.664z"/>
<g>
	<path fill="#1C1C1C" d="M-1322.748,755.69c1.957-6.396,1.238-7.309-1.75-7.717l-4.117-0.529c-0.621-0.416-0.727-1.945,0-2.463
		c1.541-0.203,10.5-1.041,19.156-1.041c29.66,0,37.078,15.039,37.078,28.127c0,13.387-6.492,24.518-16.271,31.211
		c-11.646,7.93-25.029,9.27-34.404,9.27c-3.086,0-6.797-0.311-12.871-0.311c-4.227,0-7.727,0.102-11.332,0.311
		c-0.824-0.529-0.824-1.955-0.104-2.572l2.678-0.314c4.74-0.514,5.875-1.748,9.066-12.254L-1322.748,755.69z M-1328.932,800.505
		c-1.854,6.07,0.313,8.439,9.375,8.439c29.762,0,38.006-25.023,38.006-36.148c0-9.785-1.549-25.645-27.193-25.645
		c-3.191,0-3.809,0.715-4.844,4.018L-1328.932,800.505z"/>
	<path fill="#1C1C1C" d="M-1232.412,767.849c1.75-0.811,4.43,0.201,5.047,1.555c-1.547,3.803-10.504,26.574-13.801,35.955
		c-0.617,1.752-0.105,2.369,0.719,2.369c1.75,0,4.738-1.752,10.609-6.895c0.723,0,1.441,0.514,1.441,1.338
		c-4.324,5.766-11.637,11.531-17.301,11.531c-2.367,0-2.988-1.951-2.988-2.789c0-0.711,0.211-1.652,1.035-4.021l3.395-9.268
		l-0.309-0.098c-7.313,9.066-17.818,16.176-22.66,16.176c-2.883,0-4.535-2.883-4.535-5.777c0-2.369,2.27-10.617,9.07-19.977
		c4.934-6.791,9.367-10.906,13.594-13.281c4.016-2.275,6.59-2.994,9.27-2.994c1.129,0,1.855,0.309,2.473,0.617
		c0.414,0.205,1.543,1.146,2.059,2.178L-1232.412,767.849z M-1250.33,779.593c-6.594,5.873-12.875,19.361-12.875,26.674
		c0,1.232,0.613,1.955,1.551,1.955c1.027,0,4.121-1.338,9.992-6.693c7.832-7.309,12.152-16.166,13.805-22.244
		c-0.723-1.957-2.473-3.709-5.152-3.709C-1245.494,775.575-1247.143,776.71-1250.33,779.593z"/>
	<path fill="#1C1C1C" d="M-1204.291,775.675l-9.574,28.018c-0.625,1.955-0.105,2.57,0.719,2.57c1.543,0,8.34-5.359,11.738-9.268
		c1.027,0,1.645,0.617,1.441,1.85c-5.773,8.553-15.453,14.84-19.777,14.84c-1.438,0-2.781-1.549-2.781-2.789
		c0-1.332,0.41-2.775,1.445-5.867l9.988-29.354h-8.031c-0.203-1.047,0.098-2.475,1.129-2.883l8.242-1.443l5.766-10.193
		c1.035-0.623,3.094-0.426,3.914,0.615l-2.984,10.092h11.227c0.723,1.031,0.102,3.09-1.238,3.813H-1204.291L-1204.291,775.675z"/>
	<path fill="#1C1C1C" d="M-1160.102,776.401c0,7.824-10.193,12.977-25.029,17.096c-0.723,1.748-1.441,5.043-1.441,9.166
		c0,3.5,2.164,5.867,4.945,5.867c3.703,0,6.281-2.055,10.816-5.973c0.924,0,1.545,0.82,1.336,1.754
		c-6.277,7.727-12.152,9.373-16.477,9.373c-6.18,0-8.344-5.77-8.344-10.813c0-6.492,4.121-19.057,15.344-27.707
		c5.359-4.123,9.373-4.947,12.361-4.947C-1162.475,770.218-1160.102,773.718-1160.102,776.401z M-1176.483,778.353
		c-4.016,4.324-6.383,9.066-7.621,12.051c6.805-2.057,9.992-4.018,13.809-7.623c3.188-2.986,4.018-6.07,4.018-7.004
		c0-1.039-0.523-2.379-2.371-2.379C-1170.092,773.415-1172.772,774.339-1176.483,778.353z"/>
	<path fill="#1C1C1C" d="M-1118.996,778.769c0.512-1.133,0.512-1.959-0.207-1.959c-0.723,0-3.398,1.238-8.553,5.459
		c-0.926-0.088-1.543-0.926-1.338-1.752c5.664-6.486,13.598-10.299,16.994-10.299c0.721,0,1.238,0.621,1.645,1.047
		c0.623,0.617,0.623,1.551-0.615,4.533l-12.256,29.25c-0.42,1.029-0.518,2.268,0.307,2.268c1.752,0,7.203-3.605,10.715-7.629
		c1.031,0.094,1.545,0.818,1.545,1.754c-1.545,2.986-12.154,12.244-19.258,12.244c-0.514,0-1.135-0.311-1.65-0.93
		c-0.617-0.717-0.926-1.648-0.414-2.779L-1118.996,778.769z M-1106.742,752.917c0,3.191-2.271,6.385-5.357,6.385
		c-2.674,0-3.605-2.047-3.605-3.797c0-2.266,1.443-6.488,5.459-6.488C-1107.873,748.999-1106.742,750.649-1106.742,752.917z"/>
	<path fill="#1C1C1C" d="M-1090.567,792.462l0.309,0.209c7.318-11.123,17.51-22.453,25.23-22.453c4.029,0,5.777,2.162,5.777,5.559
		c0,1.65-0.818,4.844-1.65,7.213c-1.854,5.15-9.266,21.922-9.58,22.76c-0.414,1.029-0.518,1.955,0.203,1.955
		c1.75,0,6.695-3.408,9.686-7.014c1.43-0.195,1.648,0.619,1.648,1.43c-3.912,6.594-12.055,11.535-17.711,11.535
		c-0.93,0-2.477-1.334-2.477-2.564c0-0.934,0.307-1.656,2.477-6.795c2.174-5.035,5.977-15.139,8.342-20.301
		c0.818-1.855,2.176-5.461,2.176-7.516c0-1.24-0.105-2.473-1.664-2.473c-2.471,0-8.539,5.154-14.221,12.252
		c-5.455,6.799-9.674,14.838-15.748,26.162c-0.518,0.928-0.93,1.234-1.854,1.234c-1.135,0-3.912-0.311-2.982-2.672
		c0.512-1.34,11.43-31.004,11.941-32.445c0.516-1.34,0.516-2.375-0.309-2.375c-2.373,0-5.977,2.168-9.379,5.15
		c-0.818,0-1.336-0.709-1.23-1.553c3.912-5.352,10.195-9.578,15.334-9.578c2.471,0,3.605,1.859,2.674,4.227L-1090.567,792.462z"/>
	<path fill="#1C1C1C" d="M-1002.084,776.089c0,1.648-1.035,2.785-1.855,3.195c-0.723,0.189-1.34,0-1.957-0.824
		c-1.754-1.75-3.09-3.295-6.273-3.295c-2.996,0-4.227,2.572-4.227,4.119c0,2.172,0.516,4.326,3.504,9.379
		c2.57,4.324,4.125,6.891,3.914,11.434c-0.105,2.787-1.555,6.594-5.363,9.879c-2.672,2.379-6.489,3.709-10.395,3.709
		c-3.908,0-6.275-3.092-6.275-5.463c0-1.023,0.414-2.168,1.551-3.402c0.82-0.713,1.955-0.713,2.791,0
		c1.336,1.553,4.414,4.125,7.109,4.125c2.465,0,4.938-2.572,4.938-5.875c0-1.75-1.234-4.936-3.809-9.063
		c-2.676-4.32-3.609-7.83-3.609-9.582c0-4.023,1.758-7.012,6.184-10.813c2.988-2.576,6.281-3.406,7.621-3.406
		C-1004.451,770.218-1002.084,773.515-1002.084,776.089z"/>
	<path fill="#1C1C1C" d="M-980.658,775.675l-9.578,28.018c-0.625,1.955-0.113,2.57,0.719,2.57c1.547,0,8.34-5.359,11.738-9.268
		c1.027,0,1.645,0.617,1.434,1.85c-5.777,8.553-15.465,14.84-19.789,14.84c-1.43,0-2.785-1.549-2.785-2.789
		c0-1.332,0.41-2.775,1.438-5.867l9.992-29.354h-8.016c-0.211-1.047,0.086-2.475,1.129-2.883l8.242-1.443l5.781-10.193
		c1.027-0.623,3.09-0.426,3.91,0.615l-2.988,10.092h11.234c0.719,1.031,0.102,3.09-1.238,3.813H-980.658L-980.658,775.675z"/>
	<path fill="#1C1C1C" d="M-952.752,787.726c0.105,6.588-0.098,14.098-1.539,22.664h0.41c3.406-5.051,6.391-11.436,8.652-17.719
		c2.168-5.973,3.703-16.377,3.793-19.053c0.211-2.988,1.758-3.191,2.473-3.191c0.719,0,2.055,0.412,2.887,0.936
		c0.625,0.41,0.938,0.928,0.938,2.053c0.086,2.568-2.68,15.854-11.965,31.404c-5.031,8.545-8.746,15.344-16.984,24.718
		c-7.629,8.758-12.762,10.402-16.074,10.402c-3.297,0-5.359-2.168-5.359-4.734c0-2.574,1.859-4.432,4.125-4.432
		c1.031,0,2.059,0.621,2.793,1.66c0.305,0.508,1.234,1.85,2.887,1.85c1.332,0,3.188-0.814,5.652-2.889
		c2.566-2.166,7.113-8.645,9.066-15.45c1.43-5.266,2.164-14.73,2.055-23.494c-0.199-11.426-1.957-15.455-3.914-15.455
		c-2.055,0-3.801,3.512-5.973,7.836c-1.129,0.309-1.746-0.418-1.949-1.34c2.164-6.891,6.695-13.285,11.742-13.285
		C-953.783,770.218-952.951,780.517-952.752,787.726z"/>
	<path fill="#1C1C1C" d="M-924.83,805.546c-0.824,2.369-0.719,3.398,0.406,3.398c2.281,0,7.117-5.035,11.855-10.396
		c1.035-0.094,1.656,0.42,1.656,1.439c-2.672,5.15-9.172,13.697-17.711,13.697c-3.09,0-4.023-1.428-4.023-3.092
		c0-1.648,0.516-3.5,2.266-8.756l16.383-48.713c2.465-7.213,1.43-8.242-0.105-8.963l-1.855-0.826c-0.516-0.41-0.516-1.336,0-1.646
		c1.855-0.723,8.25-2.674,12.984-3.088l0.524,0.615c-1.344,3.709-2.372,6.592-6.083,17.719L-924.83,805.546z"/>
	<path fill="#1C1C1C" d="M-873.439,776.401c0,7.824-10.195,12.977-25.027,17.096c-0.723,1.748-1.434,5.043-1.434,9.166
		c0,3.5,2.176,5.867,4.938,5.867c3.707,0,6.281-2.055,10.824-5.973c0.93,0,1.543,0.82,1.328,1.754
		c-6.277,7.727-12.152,9.373-16.48,9.373c-6.172,0-8.344-5.77-8.344-10.813c0-6.492,4.125-19.057,15.348-27.707
		c5.355-4.123,9.379-4.947,12.359-4.947C-875.802,770.218-873.439,773.718-873.439,776.401z M-889.81,778.353
		c-4.016,4.324-6.398,9.066-7.637,12.051c6.801-2.057,10-4.018,13.813-7.623c3.18-2.986,4.023-6.07,4.023-7.004
		c0-1.039-0.523-2.379-2.367-2.379C-883.423,773.415-886.107,774.339-889.81,778.353z"/>
	<path fill="#1C1C1C" d="M-861.38,807.093c0,4.115-2.883,6.592-5.871,6.592c-2.895,0-4.535-1.854-4.535-4.838
		c0-3.697,2.883-6.391,5.875-6.391C-862.927,802.456-861.38,804.722-861.38,807.093z"/>
</g>
</svg>
