<?xml version="1.0" encoding="utf-8"?>
<!-- Generator: Adobe Illustrator 16.0.0, SVG Export Plug-In . SVG Version: 6.00 Build 0)  -->
<!DOCTYPE svg PUBLIC "-//W3C//DTD SVG 1.1//EN" "http://www.w3.org/Graphics/SVG/1.1/DTD/svg11.dtd">
<svg version="1.1" id="Layer_1" xmlns="http://www.w3.org/2000/svg" xmlns:xlink="http://www.w3.org/1999/xlink" x="0px" y="0px"
	 width="100px" height="13.583px" viewBox="0 0 100 13.583" enable-background="new 0 0 100 13.583" xml:space="preserve">
<linearGradient id="SVGID_1_" gradientUnits="userSpaceOnUse" x1="-1156.0796" y1="594.3218" x2="-1156.0796" y2="580.7358" gradientTransform="matrix(1 0 0 1 1206.0801 -580.7373)">
	<stop  offset="0" style="stop-color:#330516"/>
	<stop  offset="1" style="stop-color:#800D36"/>
</linearGradient>
<path fill="url(#SVGID_1_)" d="M12.91,9.864c0,0.602,0,2.98,0.06,3.5c-0.04,0.121-0.16,0.221-0.38,0.221
	c-0.24-0.34-0.82-1.039-2.561-3.021L5.387,5.282c-0.54-0.621-1.9-2.261-2.321-2.701h-0.04c-0.081,0.24-0.1,0.7-0.1,1.3v4.362
	c0,0.939,0.02,3.541,0.36,4.143c0.12,0.222,0.521,0.34,1.021,0.381l0.62,0.063c0.121,0.157,0.101,0.397-0.04,0.5
	c-0.9-0.041-1.601-0.063-2.341-0.063c-0.84,0-1.381,0.021-2.081,0.063c-0.14-0.103-0.161-0.381-0.04-0.5l0.54-0.063
	c0.46-0.063,0.78-0.184,0.881-0.398c0.279-0.723,0.26-3.16,0.26-4.121V2.46c0-0.56-0.021-0.979-0.441-1.44
	c-0.279-0.28-0.76-0.42-1.24-0.48L0.085,0.5c-0.12-0.12-0.12-0.42,0.04-0.5c0.84,0.06,1.901,0.06,2.261,0.06
	c0.32,0,0.66-0.02,0.92-0.06c0.4,1.021,2.76,3.661,3.421,4.402l1.94,2.181c1.381,1.541,2.361,2.66,3.301,3.621h0.04
	c0.081-0.1,0.081-0.42,0.081-0.84V5.082c0-0.94-0.021-3.542-0.401-4.141c-0.12-0.181-0.439-0.301-1.24-0.401l-0.34-0.04
	c-0.14-0.12-0.121-0.44,0.04-0.5c0.92,0.04,1.601,0.06,2.36,0.06c0.861,0,1.381-0.02,2.061-0.06c0.16,0.1,0.16,0.38,0.04,0.5
	L14.33,0.54c-0.64,0.1-1.041,0.261-1.121,0.42c-0.34,0.72-0.3,3.201-0.3,4.121L12.91,9.864L12.91,9.864z M17.359,6.682
	c0-1.38-0.082-1.441-0.841-1.601l-0.28-0.06c-0.14-0.08-0.121-0.42,0.039-0.5c0.582,0.04,1.2,0.06,1.862,0.06h2.839
	c0.881,0,1.681-0.02,1.862-0.06c0.02,0.24,0.119,1.18,0.22,2.042c-0.08,0.159-0.401,0.18-0.521,0.039
	c-0.119-0.521-0.239-0.78-0.36-0.96c-0.319-0.48-1.22-0.48-1.701-0.48h-0.88c-0.7,0-0.72,0.021-0.72,0.64v2.221
	c0,0.36,0,0.399,0.379,0.399h0.94c1.061,0,1.162-0.16,1.321-0.76l0.099-0.38c0.101-0.141,0.401-0.121,0.5,0.041
	c-0.039,0.579-0.039,0.938-0.039,1.399c0,0.5,0,0.858,0.039,1.438c-0.099,0.162-0.399,0.182-0.5,0.041L21.52,9.823
	c-0.16-0.6-0.261-0.76-1.321-0.76h-0.94c-0.379,0-0.379,0.061-0.379,0.46v1.44c0,0.601,0.039,1.221,0.22,1.438
	c0.181,0.2,0.541,0.279,1.681,0.279c1.28,0,2.02-0.062,2.6-1.661c0.14-0.141,0.461-0.102,0.52,0.081
	c-0.099,0.839-0.379,1.841-0.6,2.224C22.04,13.284,20.98,13.26,19.9,13.26h-1.76c-0.642,0-1.261,0.021-2.222,0.064
	c-0.16-0.064-0.179-0.4-0.039-0.5l0.54-0.064c0.86-0.102,0.941-0.221,0.941-1.604L17.359,6.682L17.359,6.682z M25.187,5.942
	c-0.222-0.44-0.441-0.66-0.942-0.8l-0.42-0.121c-0.119-0.1-0.119-0.4,0.041-0.5c0.42,0.04,1.061,0.06,1.5,0.06
	c0.601,0,1.101-0.02,1.761-0.06c0.179,0.1,0.14,0.4,0.02,0.5l-0.261,0.06c-0.539,0.12-0.418,0.241,0.082,1.261l1.861,3.721
	c0.319,0.641,0.579,1.16,0.739,1.439c0.159-0.299,0.36-0.68,0.741-1.459l0.339-0.721c0.14-0.281,0.161-0.343,0-0.683l-1.46-2.981
	c-0.2-0.4-0.42-0.5-0.86-0.58l-0.36-0.06c-0.14-0.08-0.121-0.42,0.039-0.5c0.4,0.04,0.98,0.06,1.541,0.06
	c0.58,0,1.121-0.02,1.52-0.06c0.16,0.1,0.16,0.42,0.021,0.5l-0.241,0.06c-0.36,0.101-0.399,0.18-0.179,0.641l0.179,0.38
	c0.36,0.761,0.52,1.101,0.72,1.501c0.201-0.4,0.401-0.761,0.602-1.181l0.339-0.74c0.2-0.46,0.12-0.521-0.319-0.601l-0.36-0.06
	c-0.159-0.08-0.159-0.4,0.02-0.5c0.28,0.04,0.8,0.06,1.36,0.06c0.48,0,1.041-0.02,1.382-0.06c0.159,0.1,0.159,0.42,0.02,0.5
	l-0.341,0.06c-0.659,0.12-0.86,0.54-1.14,1c-0.28,0.481-0.82,1.458-1.04,1.86c-0.161,0.304-0.181,0.358,0,0.741l0.539,1.102
	c0.401,0.819,0.701,1.358,0.86,1.721c0.161-0.359,0.321-0.66,0.802-1.799l1.421-3.325c0.479-1.14,0.559-1.22,0-1.3l-0.401-0.06
	c-0.159-0.14-0.12-0.379,0-0.5c0.539,0.04,0.98,0.06,1.501,0.06c0.5,0,0.939-0.02,1.5-0.06c0.159,0.1,0.181,0.42,0.02,0.5
	L37.77,5.142c-0.6,0.12-0.72,0.32-1.339,1.66l-1.901,4.103c-0.4,0.859-0.761,1.739-1.141,2.561c-0.06,0.063-0.14,0.08-0.239,0.08
	c-0.081,0-0.161-0.021-0.241-0.08c-0.22-0.58-1.439-3.221-1.739-3.682c-0.641,1.301-1.582,3.121-1.802,3.682
	c-0.059,0.063-0.141,0.08-0.239,0.08c-0.08,0-0.16-0.021-0.24-0.08c-0.181-0.521-0.76-1.721-0.961-2.102L25.187,5.942z
	 M50.824,7.922c0.462,0.938,0.9,1.859,1.382,2.74h0.039c0.541-0.939,1.041-1.979,1.541-3l1.88-3.824
	c0.9-1.82,1.48-2.921,1.521-3.841c0.68,0.06,1.1,0.06,1.5,0.06c0.5,0,1.16-0.02,1.778-0.06c0.12,0.08,0.12,0.42,0.021,0.5
	l-0.422,0.04c-1.258,0.121-1.42,0.5-1.396,1.901c0.039,2.121,0.061,5.819,0.221,8.702c0.062,1.001,0.038,1.541,0.979,1.619
	l0.641,0.064c0.118,0.118,0.101,0.42-0.041,0.5c-0.819-0.041-1.641-0.064-2.358-0.064c-0.7,0-1.604,0.021-2.422,0.064
	c-0.142-0.103-0.16-0.382-0.041-0.5l0.58-0.064c0.979-0.1,0.979-0.42,0.979-1.698l-0.06-8.342h-0.039
	c-0.143,0.22-0.9,1.821-1.301,2.603l-1.781,3.5c-0.898,1.76-1.801,3.641-2.16,4.563c-0.04,0.061-0.12,0.078-0.2,0.078
	c-0.039,0-0.14-0.021-0.179-0.078c-0.342-1.061-1.302-3.021-1.762-4.002l-1.8-3.861c-0.42-0.92-0.841-1.96-1.28-2.881h-0.041
	c-0.079,1.241-0.14,2.401-0.2,3.561c-0.061,1.22-0.14,3.001-0.14,4.703c0,1.479,0.12,1.801,0.9,1.859l0.761,0.063
	c0.141,0.118,0.119,0.438-0.021,0.5c-0.68-0.041-1.46-0.063-2.221-0.063c-0.641,0-1.36,0.021-2.041,0.063
	c-0.119-0.103-0.16-0.4-0.039-0.5l0.439-0.063c0.841-0.12,1.121-0.239,1.239-1.643c0.121-1.32,0.222-2.42,0.341-4.401
	c0.102-1.661,0.181-3.361,0.22-4.461c0.043-1.26-0.116-1.559-1.337-1.72L44.183,0.5c-0.099-0.12-0.079-0.42,0.08-0.5
	c0.602,0.04,1.08,0.06,1.58,0.06c0.461,0,1.001,0,1.662-0.06c-0.08,0.78,0.42,2.021,1.039,3.301L50.824,7.922z M64.561,10.163
	c-0.461,0-0.52,0.021-0.681,0.48l-0.46,1.279c-0.22,0.642-0.158,0.722,0.221,0.801l0.539,0.102c0.161,0.1,0.141,0.459-0.059,0.5
	c-0.5-0.041-1.021-0.061-1.582-0.061c-0.559,0-1.039,0.041-1.398,0.061c-0.182-0.08-0.182-0.4-0.041-0.5l0.461-0.102
	c0.619-0.141,0.84-0.359,1.239-1.318l1.921-4.603c0.34-0.82,0.48-1.3,0.521-1.681c0.357-0.14,0.74-0.521,0.841-0.76
	C66.242,4.3,66.361,4.34,66.402,4.46c0.08,0.201,0.397,1.241,0.858,2.461l1.802,4.781c0.237,0.66,0.42,0.922,1.142,1.063
	l0.319,0.063c0.181,0.1,0.142,0.459-0.062,0.5c-0.521-0.041-0.979-0.063-1.662-0.063c-0.72,0-1.3,0.021-1.8,0.063
	c-0.2-0.063-0.22-0.422-0.039-0.5l0.398-0.063c0.521-0.08,0.5-0.2,0.262-0.821l-0.48-1.3c-0.158-0.459-0.221-0.479-0.68-0.479h-1.9
	V10.163L64.561,10.163z M66.141,9.523c0.521,0,0.58-0.039,0.36-0.62l-0.621-1.7c-0.159-0.46-0.239-0.62-0.3-0.721h-0.039
	c-0.061,0.081-0.141,0.261-0.32,0.68L64.5,8.943c-0.221,0.541-0.182,0.58,0.262,0.58H66.141z M73.328,5.682
	c0-0.521-0.021-0.521-0.42-0.521h-0.621c-1.221,0-1.739,0.121-2.221,1.5c-0.2,0.121-0.42,0.061-0.5-0.099
	C69.787,5.701,70.006,4.7,70.105,4.2c0.082-0.08,0.277-0.08,0.357,0c0.021,0.4,0.305,0.38,1.104,0.38h5.563
	c0.741,0,0.881-0.02,1.041-0.38c0.141-0.08,0.301-0.04,0.359,0.061c-0.159,0.521-0.24,1.58-0.2,2.34
	c-0.079,0.16-0.42,0.181-0.5,0.02c-0.14-1.299-0.659-1.46-1.86-1.46h-0.681c-0.38,0-0.44,0-0.44,0.521v5.48
	c0,1.381,0.08,1.502,0.94,1.602l0.541,0.061c0.14,0.1,0.12,0.439-0.041,0.5c-0.819-0.041-1.58-0.061-2.201-0.061
	c-0.64,0-1.358,0.02-2.2,0.061c-0.16-0.061-0.18-0.4-0.039-0.5l0.539-0.061c0.861-0.1,0.941-0.221,0.941-1.602V5.682z M87.457,4.682
	c0,0.42,0.061,1.4,0.18,2.201c-0.08,0.16-0.38,0.2-0.521,0.04c-0.3-1.1-0.979-2.041-2.78-2.041c-1.721,0-3.421,1.161-3.421,3.88
	c0,2.682,1.72,4.203,3.601,4.203s2.662-1.5,2.881-2.021c0.103-0.179,0.42-0.179,0.521,0.021c-0.102,0.879-0.42,1.8-0.659,2.16
	c-0.579,0.1-1.319,0.42-2.7,0.42c-1.262,0-2.5-0.221-3.521-0.92c-1.08-0.74-1.897-1.963-1.897-3.563c0-1.621,0.68-2.82,1.68-3.601
	C81.798,4.7,83.178,4.3,84.719,4.3C86.016,4.301,87.296,4.682,87.457,4.682z M96.266,8.422c0.643,0,0.721,0,0.721-0.521v-1.22
	c0-1.38-0.078-1.46-0.939-1.601l-0.38-0.06c-0.144-0.1-0.121-0.44,0.041-0.5c0.778,0.04,1.397,0.06,2.039,0.06
	c0.644,0,1.261-0.02,2.041-0.06c0.157,0.06,0.181,0.4,0.041,0.5l-0.384,0.06c-0.857,0.14-0.938,0.22-0.938,1.601v4.479
	c0,1.381,0.08,1.479,0.938,1.602l0.464,0.063c0.14,0.1,0.116,0.438-0.041,0.5c-0.843-0.041-1.5-0.063-2.121-0.063
	c-0.642,0-1.261,0.021-2.039,0.063c-0.162-0.063-0.185-0.4-0.041-0.5l0.38-0.063c0.861-0.141,0.939-0.221,0.939-1.602v-1.58
	c0-0.5-0.041-0.521-0.721-0.521h-3.521c-0.683,0-0.722,0.021-0.722,0.521v1.58c0,1.381,0.08,1.502,0.938,1.602l0.541,0.063
	c0.142,0.1,0.119,0.438-0.041,0.5c-0.92-0.041-1.58-0.063-2.198-0.063c-0.643,0-1.262,0.021-1.882,0.063
	c-0.159-0.063-0.182-0.4-0.041-0.5l0.222-0.063c0.84-0.221,0.939-0.221,0.939-1.602V6.681c0-1.38-0.081-1.48-0.939-1.601
	l-0.459-0.06c-0.143-0.1-0.121-0.44,0.039-0.5c0.859,0.04,1.479,0.06,2.121,0.06c0.639,0,1.26-0.02,1.961-0.06
	c0.157,0.06,0.181,0.4,0.039,0.5l-0.302,0.06c-0.841,0.16-0.938,0.22-0.938,1.601v1.221c0,0.521,0.08,0.521,0.722,0.521H96.266
	L96.266,8.422z"/>
</svg>
