<?xml version="1.0" encoding="utf-8"?>
<!-- Generator: Adobe Illustrator 16.0.3, SVG Export Plug-In . SVG Version: 6.00 Build 0)  -->
<!DOCTYPE svg PUBLIC "-//W3C//DTD SVG 1.1//EN" "http://www.w3.org/Graphics/SVG/1.1/DTD/svg11.dtd">
<svg version="1.1" id="Layer_1" xmlns="http://www.w3.org/2000/svg" xmlns:xlink="http://www.w3.org/1999/xlink" x="0px" y="0px"
	 width="512px" height="61.012px" viewBox="0 0 512 61.012" enable-background="new 0 0 512 61.012" xml:space="preserve">
<g>
	<path fill="#FFFFFF" d="M53.077,50.609c0,3.525,0.529,5.641,2.116,6.258c0.264,0.266,0.264,0.794-0.088,1.06
		c-1.058,0-2.645,0.352-4.32,0.793c-4.673,1.235-11.021,2.292-15.782,2.292c-10.492,0-20.102-2.909-26.891-9.786
		C2.821,45.936,0,38.971,0,31.211c0-7.495,2.469-15.077,7.935-20.896C13.842,4.144,22.571,0,35.884,0
		c5.026,0,9.699,0.97,11.198,1.322c1.675,0.353,4.408,0.97,5.466,0.793c0,2.91,0.529,7.494,1.323,12.784
		c-0.265,0.706-1.852,0.794-2.381,0.265c-2.469-9.522-9.081-12.52-18.075-12.52c-17.104,0-24.599,12.167-24.599,25.392
		c0,16.929,8.729,30.241,26.451,30.241c5.466,0,8.728-1.146,9.699-2.645c0.44-0.617,0.881-2.204,0.881-5.024v-3.528
		c0-7.405-0.264-7.935-5.73-8.552l-3.879-0.44c-0.706-0.353-0.617-1.94,0-2.204c2.557,0.176,7.406,0.264,12.608,0.264
		c3.439,0,6.437-0.088,9.346-0.264c0.617,0.353,0.706,1.675,0.089,2.204l-1.411,0.177c-3.703,0.439-3.791,2.908-3.791,7.405V50.609z
		"/>
	<path fill="#FFFFFF" d="M76.171,45.936c-2.028,0-2.292,0.088-2.998,2.117l-2.028,5.642c-0.97,2.821-0.706,3.173,0.97,3.527
		l2.381,0.439c0.706,0.441,0.617,2.028-0.264,2.205c-2.205-0.177-4.498-0.266-6.965-0.266c-2.469,0-4.586,0.178-6.173,0.266
		c-0.792-0.353-0.792-1.764-0.176-2.205l2.028-0.439c2.732-0.617,3.702-1.588,5.466-5.82l8.464-20.278
		c1.499-3.615,2.116-5.731,2.292-7.407c1.587-0.617,3.262-2.292,3.703-3.351c0.705-0.264,1.234-0.088,1.41,0.441
		c0.353,0.881,1.764,5.466,3.792,10.845l7.935,21.072c1.058,2.909,1.851,4.056,5.026,4.673l1.411,0.264
		c0.793,0.441,0.617,2.028-0.265,2.205c-2.292-0.177-4.32-0.266-7.318-0.266c-3.173,0-5.73,0.089-7.935,0.266
		c-0.881-0.266-0.97-1.851-0.176-2.205l1.764-0.264c2.292-0.353,2.204-0.882,1.146-3.615l-2.117-5.729
		c-0.704-2.029-0.97-2.117-2.998-2.117H76.171z M83.136,43.113c2.292,0,2.557-0.176,1.587-2.732l-2.733-7.494
		c-0.706-2.028-1.058-2.733-1.322-3.174h-0.176c-0.266,0.353-0.617,1.146-1.411,2.999l-3.175,7.847
		c-0.97,2.38-0.793,2.556,1.146,2.556H83.136z"/>
	<path fill="#FFFFFF" d="M111.346,31.652c0-5.731-0.089-7.23-2.117-7.494l-2.468-0.353c-0.706-0.089-0.881-1.94,0-2.205
		c4.849-0.353,9.786-0.529,14.636-0.529c8.199,0,17.104,1.323,17.104,10.581c0,5.643-4.407,8.199-7.846,9.434
		c-0.353,0.353-0.265,0.882,0,1.323c4.409,7.405,8.288,11.726,11.197,14.106c1.587,1.323,3.262,1.763,4.673,1.852
		c0.353,0.353,0.353,1.146,0,1.411c-0.792,0.264-2.028,0.439-3.703,0.439c-5.29,0-8.463-1.674-12.344-6.612
		c-2.204-2.821-4.584-6.7-6.436-9.521c-0.706-1.059-2.117-1.41-3.527-1.41c-2.292,0-2.468,0.176-2.468,1.41v6.26
		c0,6.084,0.353,6.523,4.144,7.054l2.028,0.264c0.617,0.441,0.53,1.939-0.176,2.205c-3.703-0.177-6.612-0.266-9.346-0.266
		c-2.821,0-5.554,0.089-8.64,0.266c-0.881-0.266-0.97-1.851-0.176-2.205l1.322-0.264c3.791-0.793,4.144-0.97,4.144-7.054V31.652z
		 M118.046,38.089c0,2.204,0.088,2.204,4.409,2.204c5.73,0,8.728-2.293,8.728-8.376c0-4.409-3.085-8.288-9.258-8.288
		c-3.262,0-3.879,0.177-3.879,2.469V38.089z"/>
	<path fill="#FFFFFF" d="M184.521,34.914c0-8.816-0.53-11.108-3.792-11.374l-2.821-0.264c-0.617-0.529-0.53-1.764,0.176-2.205
		c3.262,0.177,5.29,0.265,7.848,0.265c2.557,0,4.496-0.088,7.317-0.265c0.706,0.441,0.706,1.764,0.089,2.205l-2.646,0.264
		c-2.292,0.265-2.998,2.645-2.998,11.374v14.813c0,1.764,0,8.906,0.264,10.229c-0.264,0.528-1.057,0.969-1.851,0.793
		c-0.97-1.234-2.733-3.087-8.199-8.994l-13.402-14.283c-3.351-3.525-5.643-5.818-6.79-6.789c-0.352,0-0.352,0.97-0.352,3.704v11.638
		c0,8.817,0.529,11.109,3.791,11.374l2.822,0.264c0.705,0.53,0.528,1.764-0.177,2.205c-3.262-0.177-5.29-0.266-7.847-0.266
		c-2.556,0-4.231,0.089-7.318,0.266c-0.706-0.353-0.706-1.764-0.088-2.205l2.645-0.264c2.292-0.265,2.998-2.646,2.998-11.374V30.242
		c0-2.91-0.088-4.144-1.851-5.466c-0.705-0.529-2.38-1.059-3.262-1.235l-1.324-0.264c-0.617-0.529-0.617-1.852,0.177-2.205
		c3.351,0.265,5.731,0.265,7.583,0.265c1.234,0,2.469-0.088,3.526-0.265c1.764,3.351,5.025,7.142,8.64,10.845l8.289,8.552
		c1.939,1.94,7.053,7.495,8.022,8.2c0.53-0.177,0.53-1.41,0.53-3.527V34.914z"/>
	<path fill="#FFFFFF" d="M205.235,30.594c0-6.084-0.353-6.348-3.703-7.054l-1.234-0.264c-0.617-0.353-0.529-1.852,0.176-2.205
		c2.558,0.177,5.291,0.265,8.2,0.265h12.52c3.879,0,7.407-0.088,8.199-0.265c0.088,1.059,0.53,5.202,0.97,8.994
		c-0.353,0.705-1.762,0.793-2.292,0.176c-0.529-2.292-1.057-3.438-1.587-4.232c-1.411-2.116-5.378-2.116-7.494-2.116h-3.88
		c-3.085,0-3.173,0.088-3.173,2.821v9.787c0,1.587,0,1.764,1.675,1.764h4.143c4.673,0,5.114-0.706,5.82-3.352l0.441-1.675
		c0.44-0.616,1.762-0.528,2.204,0.177c-0.177,2.557-0.177,4.144-0.177,6.172c0,2.203,0,3.791,0.177,6.348
		c-0.441,0.706-1.764,0.794-2.204,0.176l-0.441-1.675c-0.706-2.646-1.147-3.351-5.82-3.351h-4.143c-1.675,0-1.675,0.265-1.675,2.027
		v6.349c0,2.646,0.176,5.379,0.97,6.349c0.794,0.883,2.381,1.234,7.406,1.234c5.643,0,8.905-0.265,11.461-7.318
		c0.617-0.617,2.028-0.44,2.292,0.353c-0.44,3.703-1.675,8.112-2.645,9.787c-5.555-0.177-10.228-0.266-14.989-0.266h-7.758
		c-2.822,0-5.555,0.089-9.787,0.266c-0.706-0.266-0.793-1.764-0.176-2.205l2.381-0.264c3.791-0.441,4.143-0.97,4.143-7.054V30.594z"
		/>
	<path fill="#FFFFFF" d="M252.93,26.186c0-2.292-0.088-2.292-1.851-2.292h-2.734c-5.378,0-7.67,0.529-9.786,6.612
		c-0.883,0.529-1.853,0.265-2.205-0.44c0.97-3.792,1.939-8.2,2.381-10.404c0.353-0.353,1.234-0.353,1.586,0
		c0.089,1.763,1.323,1.675,4.85,1.675h24.511c3.263,0,3.879-0.088,4.585-1.675c0.617-0.353,1.322-0.176,1.587,0.264
		c-0.706,2.292-1.058,6.965-0.882,10.316c-0.353,0.706-1.851,0.793-2.203,0.088c-0.618-5.731-2.911-6.436-8.201-6.436h-2.997
		c-1.676,0-1.939,0-1.939,2.292v24.158c0,6.084,0.353,6.612,4.145,7.054l2.38,0.264c0.617,0.441,0.529,1.939-0.177,2.205
		c-3.614-0.177-6.965-0.266-9.699-0.266c-2.821,0-5.996,0.089-9.698,0.266c-0.706-0.266-0.794-1.764-0.177-2.205l2.381-0.264
		c3.791-0.441,4.144-0.97,4.144-7.054V26.186z"/>
	<path fill="#FFFFFF" d="M310.058,14.724c0-8.375-0.265-9.875-3.879-10.315l-2.822-0.353c-0.617-0.441-0.617-1.852,0.089-2.204
		c4.937-0.441,11.021-0.706,19.661-0.706c5.466,0,10.669,0.441,14.724,2.645c4.233,2.204,7.318,6.172,7.318,12.344
		c0,8.375-6.613,12.961-11.021,14.724c-0.44,0.529,0,1.411,0.441,2.116c7.054,11.374,11.727,18.427,17.722,23.453
		c1.499,1.322,3.703,2.292,6.083,2.468c0.441,0.177,0.53,0.883,0.089,1.235c-0.793,0.264-2.204,0.441-3.879,0.441
		c-7.495,0-11.991-2.205-18.251-11.11c-2.292-3.262-5.907-9.346-8.641-13.313c-1.322-1.939-2.733-2.821-6.26-2.821
		c-3.968,0-4.145,0.089-4.145,1.94v11.109c0,9.257,0.177,10.316,5.29,11.021l1.853,0.264c0.528,0.441,0.353,1.939-0.178,2.205
		c-3.967-0.177-6.965-0.266-10.491-0.266c-3.703,0-6.877,0.089-11.021,0.266c-0.528-0.266-0.705-1.588-0.176-2.205l2.204-0.264
		c5.114-0.617,5.29-1.764,5.29-11.021V14.724z M317.287,27.332c0,1.587,0,2.557,0.265,2.91c0.265,0.264,1.588,0.44,6.084,0.44
		c3.174,0,6.523-0.353,9.081-2.292c2.381-1.852,4.408-4.938,4.408-10.933c0-6.965-4.32-13.578-14.106-13.578
		c-5.467,0-5.731,0.353-5.731,2.821V27.332z"/>
	<path fill="#FFFFFF" d="M401.747,40.293c0,11.902-8.993,20.543-21.426,20.543c-13.666,0-21.777-8.904-21.777-20.014
		c0-11.727,8.993-20.72,21.777-20.72C394.518,20.102,401.747,29.536,401.747,40.293z M366.391,39.411
		c0,9.081,4.145,18.867,14.372,18.867c6.701,0,13.137-4.584,13.137-16.663c0-9.434-4.496-18.956-14.195-18.956
		C373.356,22.659,366.391,26.979,366.391,39.411z"/>
	<path fill="#FFFFFF" d="M451.646,40.293c0,11.902-8.993,20.543-21.426,20.543c-13.666,0-21.776-8.904-21.776-20.014
		c0-11.727,8.993-20.72,21.776-20.72C444.416,20.102,451.646,29.536,451.646,40.293z M416.289,39.411
		c0,9.081,4.145,18.867,14.372,18.867c6.701,0,13.137-4.584,13.137-16.663c0-9.434-4.496-18.956-14.195-18.956
		C423.255,22.659,416.289,26.979,416.289,39.411z"/>
	<path fill="#FFFFFF" d="M481.707,44.084c0.617,1.146,2.82,5.114,3.173,5.378c0.354-0.176,1.94-2.997,3.615-6.172l4.409-8.464
		c4.231-8.111,4.673-9.61,6.082-13.754c1.941,0.177,3.703,0.265,5.114,0.265c2.117,0,4.674-0.088,7.229-0.265
		c0.794,0.265,0.883,1.764,0.265,2.205l-1.939,0.264c-4.055,0.529-4.231,2.205-4.231,7.407c0,9.346,0,16.84,0.44,22.13
		c0.176,1.939,0.176,4.056,2.91,4.32l2.556,0.264c0.617,0.354,0.617,1.853-0.087,2.205c-3.175-0.177-6.613-0.266-8.817-0.266
		c-2.557,0-5.29,0.089-7.76,0.266c-0.616-0.441-0.704-1.851-0.087-2.205l1.939-0.264c2.821-0.353,2.821-1.059,2.821-4.585V32.445
		c0-1.058,0-2.38-0.265-2.557c-0.265,0-2.557,4.408-3.791,6.701l-5.378,10.14c-0.706,1.323-5.29,10.492-6.26,13.313
		c-0.441,0.353-1.146,0.353-1.676,0c-0.97-3.175-3.703-8.816-5.202-11.727l-5.73-11.108c-0.97-1.939-2.821-6.613-3.527-6.877
		c-0.353,0.441-0.44,6.348-0.528,8.817c-0.089,3.527-0.177,7.23-0.177,11.551c0,4.496,0.088,6.436,2.558,6.7l2.909,0.264
		c0.617,0.354,0.528,1.853-0.089,2.205c-2.292-0.177-4.849-0.266-7.229-0.266c-1.939,0-4.584,0.089-7.317,0.266
		c-0.617-0.353-0.706-1.764,0-2.205l1.851-0.264c2.91-0.441,3.175-1.323,3.616-4.409c0.704-4.76,1.233-18.955,1.233-24.951
		c0-2.821-0.97-4.144-3.967-4.497l-2.117-0.264c-0.528-0.44-0.616-1.852,0.178-2.205c2.379,0.177,4.407,0.265,6.788,0.265
		c1.764,0,3.614,0,6.437-0.265c0,3.88,1.587,6.701,4.585,12.52L481.707,44.084z"/>
</g>
</svg>
