<?xml version="1.0" encoding="utf-8"?>
<!-- Generator: Adobe Illustrator 16.0.0, SVG Export Plug-In . SVG Version: 6.00 Build 0)  -->
<!DOCTYPE svg PUBLIC "-//W3C//DTD SVG 1.1//EN" "http://www.w3.org/Graphics/SVG/1.1/DTD/svg11.dtd">
<svg version="1.1" id="Calque_1" xmlns="http://www.w3.org/2000/svg" xmlns:xlink="http://www.w3.org/1999/xlink" x="0px" y="0px"
	 width="468.072px" height="75.889px" viewBox="0 0 468.072 75.889" enable-background="new 0 0 468.072 75.889"
	 xml:space="preserve" fill="white">
<g>
	<polygon points="79.151,41.719 113.423,41.719 113.423,32.538 79.151,32.538 79.151,11.016 115.973,11.016 115.973,1.836
		69.359,1.836 69.359,74.053 117.809,74.053 117.809,64.872 79.151,64.872 	"/>
	<polygon points="128.62,11.016 151.876,11.016 151.876,74.053 161.668,74.053 161.668,11.016 184.924,11.016 184.924,1.836
		128.62,1.836 	"/>
	<polygon points="361.994,41.719 396.265,41.719 396.265,32.538 361.994,32.538 361.994,11.016 398.816,11.016 398.816,1.836
		352.201,1.836 352.201,74.053 400.652,74.053 400.652,64.872 361.994,64.872 	"/>
	<polygon points="429.414,64.872 429.414,41.719 463.685,41.719 463.685,32.538 429.414,32.538 429.414,11.016 466.236,11.016
		466.236,1.836 419.623,1.836 419.623,74.053 468.072,74.053 468.072,64.872 	"/>
	<path d="M206.496,10.914c-3.299,3.401-5.883,7.412-7.752,12.036c-1.871,4.625-2.805,9.623-2.805,14.994
		c0,5.372,0.934,10.37,2.805,14.994c1.869,4.625,4.453,8.636,7.752,12.036c3.297,3.4,7.258,6.068,11.883,8.007
		c2.926,1.227,6.031,2.062,9.312,2.513V66.14c-1.881-0.382-3.66-0.957-5.334-1.727c-3.333-1.53-6.188-3.586-8.568-6.171
		c-2.381-2.584-4.217-5.626-5.508-9.129c-1.293-3.502-1.938-7.225-1.938-11.169c0-3.942,0.645-7.666,1.938-11.169
		c1.291-3.502,3.126-6.544,5.508-9.129c2.379-2.584,5.235-4.641,8.568-6.172c1.674-0.769,3.453-1.344,5.334-1.727V0.395
		c-3.281,0.45-6.386,1.286-9.312,2.513C213.753,4.846,209.793,7.515,206.496,10.914z"/>
	<path d="M260.658,10.914c-3.299-3.399-7.26-6.068-11.883-8.007c-2.967-1.243-6.115-2.082-9.444-2.528v9.347
		c1.929,0.382,3.753,0.963,5.466,1.749c3.332,1.531,6.188,3.588,8.568,6.172c2.379,2.585,4.215,5.627,5.508,9.129
		c1.291,3.503,1.938,7.227,1.938,11.169c0,3.944-0.646,7.667-1.938,11.169c-1.293,3.503-3.129,6.545-5.508,9.129
		c-2.381,2.585-5.236,4.641-8.568,6.171c-1.713,0.787-3.537,1.368-5.466,1.75v9.347c3.329-0.446,6.478-1.285,9.444-2.528
		c4.623-1.938,8.584-4.606,11.883-8.007c3.297-3.4,5.881-7.411,7.752-12.036c1.869-4.624,2.805-9.622,2.805-14.994
		c0-5.371-0.936-10.369-2.805-14.994C266.539,18.326,263.955,14.315,260.658,10.914z"/>
	<path d="M295.847,37.944c2.438,1.521,5.094,2.719,7.947,3.619V30.079c-1.559-0.816-2.943-1.756-4.123-2.845
		c-1.77-1.633-2.652-3.979-2.652-7.038c0-1.087,0.221-2.277,0.664-3.569c0.441-1.291,1.205-2.5,2.295-3.621
		c1.086-1.123,2.531-2.041,4.334-2.754c1.801-0.715,4.062-1.072,6.783-1.072c2.855,0,5.406,0.579,7.65,1.734
		c2.244,1.157,3.979,2.688,5.201,4.59l7.957-7.242c-2.721-3.33-5.883-5.541-9.486-6.629C318.812,0.545,315.039,0,311.095,0
		c-4.352,0-8.076,0.663-11.168,1.989c-3.096,1.326-5.629,2.976-7.6,4.946c-1.973,1.974-3.418,4.149-4.336,6.529
		c-0.918,2.381-1.377,4.625-1.377,6.731c0,4.692,0.883,8.415,2.652,11.169C291.035,34.119,293.228,36.312,295.847,37.944z"/>
	<path d="M323.386,37.383c-2.441-1.362-5.098-2.433-7.951-3.234v11.549c1.559,0.765,2.945,1.624,4.127,2.6
		c1.768,1.463,2.652,3.588,2.652,6.375c0,1.974-0.443,3.707-1.326,5.202c-0.885,1.497-2.025,2.755-3.418,3.774
		c-1.395,1.02-2.941,1.785-4.641,2.295c-1.701,0.51-3.365,0.765-4.998,0.765c-2.924,0-5.764-0.628-8.518-1.887
		c-2.754-1.257-5.016-3.213-6.783-5.865l-8.057,6.937c2.447,3.4,5.744,5.916,9.893,7.548s8.533,2.448,13.158,2.448
		c3.469,0,6.732-0.51,9.793-1.53c3.059-1.021,5.711-2.481,7.955-4.386c2.244-1.903,4.029-4.25,5.355-7.039
		c1.326-2.787,1.988-5.916,1.988-9.383c0-4.352-0.885-7.769-2.65-10.252C328.197,40.818,326.003,38.846,323.386,37.383z"/>
	<path d="M45.645,41.565c-1.395-1.597-3.044-2.89-4.947-3.876c-1.904-0.985-3.944-1.547-6.12-1.684v-0.203
		c3.672-1.225,6.664-3.145,8.976-5.764c2.311-2.617,3.468-6,3.468-10.148c0-3.061-0.561-5.729-1.683-8.008
		c-1.122-2.277-2.652-4.146-4.59-5.609c-1.938-1.461-4.25-2.566-6.936-3.315c-2.688-0.747-5.594-1.122-8.721-1.122H0v26.61h9.792
		V10.404h15.402c3.943,0,6.834,1.055,8.67,3.162c1.836,2.108,2.754,4.59,2.754,7.445c0,1.974-0.357,3.639-1.071,4.998
		c-0.714,1.361-1.683,2.483-2.907,3.367c-1.224,0.884-2.652,1.514-4.284,1.887c-1.632,0.374-3.366,0.561-5.202,0.561H19.19v8.568
		h5.085c4.759,0,8.533,1.07,11.322,3.213c2.788,2.142,4.182,5.355,4.182,9.639c0,2.585-0.545,4.658-1.632,6.223
		c-1.089,1.564-2.415,2.805-3.978,3.723c-1.565,0.918-3.248,1.529-5.049,1.836c-1.802,0.306-3.452,0.459-4.947,0.459H9.792V44.44H0
		v29.612h24.786c3.535,0,6.834-0.441,9.894-1.326c3.06-0.883,5.746-2.176,8.058-3.877c2.311-1.698,4.131-3.789,5.457-6.272
		c1.326-2.481,1.989-5.354,1.989-8.619c0-2.448-0.408-4.726-1.224-6.834C48.144,45.018,47.038,43.164,45.645,41.565z"/>
</g>
</svg>
