<?xml version="1.0" encoding="utf-8"?>
<!-- Generator: Adobe Illustrator 16.0.0, SVG Export Plug-In . SVG Version: 6.00 Build 0)  -->
<!DOCTYPE svg PUBLIC "-//W3C//DTD SVG 1.1//EN" "http://www.w3.org/Graphics/SVG/1.1/DTD/svg11.dtd">
<svg version="1.1" id="Calque_1" xmlns="http://www.w3.org/2000/svg" xmlns:xlink="http://www.w3.org/1999/xlink" x="0px" y="0px"
	 width="470.81px" height="75.888px" viewBox="0 0 470.81 75.888" enable-background="new 0 0 470.81 75.888" xml:space="preserve">
<path fill="#FFFFFF" d="M206.496,10.914c-3.299,3.401-5.883,7.412-7.752,12.036c-1.871,4.625-2.805,9.623-2.805,14.994
	c0,5.372,0.934,10.37,2.805,14.994c1.869,4.625,4.453,8.636,7.752,12.036c3.297,3.401,7.258,6.069,11.883,8.007
	c2.926,1.227,6.031,2.063,9.312,2.513v-9.355c-1.883-0.381-3.66-0.955-5.334-1.726c-3.334-1.53-6.189-3.586-8.568-6.171
	c-2.381-2.584-4.217-5.626-5.508-9.129c-1.293-3.502-1.937-7.224-1.937-11.169c0-3.942,0.644-7.666,1.937-11.169
	c1.291-3.502,3.127-6.544,5.508-9.129c2.379-2.584,5.234-4.64,8.568-6.171c1.674-0.769,3.451-1.344,5.334-1.727V0.394
	c-3.281,0.451-6.386,1.287-9.312,2.513C213.754,4.846,209.793,7.515,206.496,10.914"/>
<path fill="#FFFFFF" d="M260.658,10.914c-3.299-3.399-7.26-6.068-11.883-8.007c-2.967-1.243-6.115-2.082-9.444-2.528v9.347
	c1.929,0.381,3.753,0.962,5.466,1.749c3.332,1.531,6.188,3.587,8.568,6.171c2.379,2.585,4.215,5.627,5.508,9.129
	c1.291,3.503,1.938,7.227,1.938,11.169c0,3.945-0.646,7.667-1.938,11.169c-1.293,3.503-3.129,6.545-5.508,9.129
	c-2.381,2.585-5.236,4.641-8.568,6.171c-1.713,0.787-3.537,1.368-5.466,1.75v9.347c3.329-0.447,6.478-1.286,9.444-2.529
	c4.623-1.938,8.584-4.606,11.883-8.007c3.297-3.4,5.881-7.411,7.752-12.036c1.869-4.624,2.805-9.622,2.805-14.994
	c0-5.371-0.936-10.369-2.805-14.994C266.539,18.326,263.955,14.314,260.658,10.914"/>
<path fill="#FFFFFF" d="M295.848,37.944c2.438,1.521,5.094,2.719,7.947,3.619V30.079c-1.559-0.817-2.943-1.756-4.123-2.845
	c-1.77-1.633-2.652-3.978-2.652-7.038c0-1.087,0.221-2.277,0.664-3.569c0.441-1.291,1.205-2.5,2.295-3.621
	c1.086-1.124,2.531-2.041,4.334-2.754c1.801-0.715,4.062-1.073,6.783-1.073c2.855,0,5.406,0.579,7.65,1.735
	c2.244,1.157,3.979,2.688,5.201,4.59l7.957-7.243c-2.721-3.33-5.883-5.541-9.486-6.629C318.812,0.545,315.039,0,311.096,0
	c-4.352,0-8.076,0.663-11.168,1.989c-3.096,1.326-5.629,2.976-7.6,4.946c-1.973,1.974-3.417,4.15-4.336,6.53
	c-0.918,2.38-1.377,4.625-1.377,6.731c0,4.692,0.883,8.415,2.652,11.169C291.036,34.119,293.229,36.312,295.848,37.944"/>
<path fill="#FFFFFF" d="M323.387,37.382c-2.441-1.362-5.098-2.433-7.951-3.234v11.548c1.559,0.765,2.945,1.624,4.127,2.6
	c1.768,1.463,2.652,3.588,2.652,6.375c0,1.974-0.443,3.707-1.326,5.202c-0.885,1.497-2.025,2.755-3.418,3.775
	c-1.395,1.019-2.941,1.785-4.641,2.295c-1.701,0.509-3.365,0.764-4.998,0.764c-2.926,0-5.764-0.628-8.518-1.886
	c-2.754-1.257-5.016-3.213-6.783-5.866l-8.057,6.937c2.447,3.4,5.744,5.916,9.891,7.548c4.15,1.632,8.535,2.448,13.16,2.448
	c3.469,0,6.732-0.51,9.793-1.53c3.059-1.021,5.711-2.482,7.955-4.386c2.244-1.903,4.029-4.25,5.355-7.039
	c1.326-2.787,1.986-5.916,1.986-9.383c0-4.352-0.883-7.769-2.648-10.252C328.197,40.818,326.004,38.845,323.387,37.382"/>
<path fill="#FFFFFF" d="M45.645,41.565c-1.395-1.597-3.044-2.89-4.947-3.876c-1.904-0.985-3.944-1.547-6.12-1.684v-0.203
	c3.672-1.224,6.664-3.145,8.976-5.763c2.311-2.618,3.468-6,3.468-10.149c0-3.06-0.561-5.728-1.683-8.008
	c-1.122-2.277-2.652-4.146-4.59-5.609c-1.938-1.461-4.25-2.566-6.936-3.315c-2.687-0.747-5.594-1.122-8.721-1.122H0v26.61h9.792
	V10.404h15.402c3.943,0,6.834,1.055,8.67,3.162c1.836,2.108,2.754,4.59,2.754,7.445c0,1.974-0.357,3.639-1.071,4.998
	c-0.714,1.362-1.683,2.484-2.907,3.368c-1.224,0.883-2.652,1.513-4.284,1.886c-1.632,0.374-3.366,0.561-5.202,0.561h-3.963v8.568
	h5.085c4.759,0,8.533,1.07,11.322,3.213c2.788,2.142,4.182,5.356,4.182,9.639c0,2.585-0.545,4.658-1.632,6.222
	c-1.088,1.565-2.414,2.805-3.978,3.723c-1.565,0.918-3.248,1.529-5.049,1.836c-1.802,0.306-3.452,0.459-4.947,0.459H9.792V44.44H0
	v29.612h24.786c3.535,0,6.834-0.441,9.894-1.326c3.06-0.883,5.746-2.176,8.058-3.877c2.311-1.698,4.131-3.789,5.457-6.272
	c1.326-2.482,1.989-5.355,1.989-8.619c0-2.449-0.408-4.726-1.224-6.834C48.144,45.017,47.038,43.164,45.645,41.565"/>
<rect x="86.563" y="32.537" fill="#FFFFFF" width="29.86" height="9.181"/>
<polygon fill="#FFFFFF" points="82.151,30.762 82.151,11.015 118.973,11.015 118.973,1.836 72.359,1.836 72.359,30.762 "/>
<polygon fill="#FFFFFF" points="82.151,64.872 82.151,44.762 72.359,44.762 72.359,74.053 120.81,74.053 120.81,64.872 "/>
<rect x="368.98" y="32.287" fill="#FFFFFF" width="29.86" height="9.181"/>
<polygon fill="#FFFFFF" points="364.568,30.512 364.568,10.765 401.39,10.765 401.39,1.586 354.776,1.586 354.776,30.512 "/>
<polygon fill="#FFFFFF" points="364.568,64.622 364.568,44.512 354.776,44.512 354.776,73.803 403.226,73.803 403.226,64.622 "/>
<rect x="436.563" y="32.287" fill="#FFFFFF" width="29.86" height="9.181"/>
<polygon fill="#FFFFFF" points="432.151,30.512 432.151,10.765 468.974,10.765 468.974,1.586 422.359,1.586 422.359,30.512 "/>
<polygon fill="#FFFFFF" points="432.151,64.622 432.151,44.512 422.359,44.512 422.359,73.803 470.81,73.803 470.81,64.622 "/>
<rect x="154.876" y="20.595" fill="#FFFFFF" width="9.792" height="53.457"/>
<polygon fill="#FFFFFF" points="131.621,11.015 154.876,11.015 154.876,11.033 164.668,11.033 164.668,11.015 187.925,11.015 
	187.925,1.835 131.621,1.835 "/>
</svg>
