<?xml version="1.0" encoding="utf-8"?>
<!-- Generator: Adobe Illustrator 16.0.0, SVG Export Plug-In . SVG Version: 6.00 Build 0)  -->
<!DOCTYPE svg PUBLIC "-//W3C//DTD SVG 1.1//EN" "http://www.w3.org/Graphics/SVG/1.1/DTD/svg11.dtd">
<svg version="1.1" id="Layer_1" xmlns="http://www.w3.org/2000/svg" xmlns:xlink="http://www.w3.org/1999/xlink" x="0px" y="0px"
	 width="164.405px" height="165.09px" viewBox="0 0 164.405 165.09" enable-background="new 0 0 164.405 165.09"
	 xml:space="preserve">
<g enable-background="new    ">
	<g>
		<defs>
			<rect id="SVGID_1_" x="7.405" y="7" width="152" height="152"/>
		</defs>
		<clipPath id="SVGID_2_">
			<use xlink:href="#SVGID_1_"  overflow="visible"/>
		</clipPath>
		<g clip-path="url(#SVGID_2_)">
			<defs>
				<rect id="SVGID_3_" x="-246.595" y="-187" width="640" height="1136"/>
			</defs>
			<clipPath id="SVGID_4_">
				<use xlink:href="#SVGID_3_"  overflow="visible"/>
			</clipPath>
			<g clip-path="url(#SVGID_4_)">
				<defs>
					<circle id="SVGID_5_" cx="83.405" cy="83" r="76"/>
				</defs>
				<clipPath id="SVGID_6_">
					<use xlink:href="#SVGID_5_"  overflow="visible"/>
				</clipPath>
				<g clip-path="url(#SVGID_6_)">
					<defs>
						<rect id="SVGID_7_" x="7.405" y="7" width="152" height="152"/>
					</defs>
					<clipPath id="SVGID_8_">
						<use xlink:href="#SVGID_7_"  overflow="visible"/>
					</clipPath>
					<rect x="2.405" y="2" clip-path="url(#SVGID_8_)" fill="#3BB985" width="162" height="162"/>
				</g>
			</g>
		</g>
		<g clip-path="url(#SVGID_2_)">
			<defs>
				<rect id="SVGID_9_" x="-246.595" y="-187" width="640" height="1136"/>
			</defs>
			<clipPath id="SVGID_10_">
				<use xlink:href="#SVGID_9_"  overflow="visible"/>
			</clipPath>
			<g clip-path="url(#SVGID_10_)">
				<defs>
					<rect id="SVGID_11_" x="7.405" y="7" width="152" height="152"/>
				</defs>
				<clipPath id="SVGID_12_">
					<use xlink:href="#SVGID_11_"  overflow="visible"/>
				</clipPath>
				<g clip-path="url(#SVGID_12_)">
					<path fill="#FFFFFF" d="M82.905,68l-0.3,5.6c-0.4,3.734-1,7.734-1.8,12c-0.8,4.268-1.7,8.567-2.7,12.9
						c-1,4.334-2.05,8.6-3.15,12.8c-1.1,4.2-2.184,8.101-3.25,11.7l-13.1,1.2c-2.135-5.466-4.117-10.983-5.95-16.55
						c-1.834-5.566-3.55-11.266-5.15-17.101c-1.6-5.833-3.134-11.85-4.6-18.05c-1.467-6.2-2.9-12.7-4.3-19.5l13.6-1.2
						c1.666,9.935,3.55,20.035,5.65,30.3c2.1,10.268,4.416,20.135,6.95,29.601c1.2-4.333,2.266-8.716,3.2-13.15
						c0.933-4.433,1.833-8.95,2.7-13.55c0.866-4.6,1.7-9.3,2.5-14.1c0.8-4.8,1.666-9.766,2.6-14.9l15.1-1.2
						c1.533,9.4,3.2,18.984,5,28.75c1.8,9.768,3.833,19.15,6.1,28.15c2.533-9.133,4.801-18.5,6.801-28.101
						c2-9.6,3.865-19.8,5.6-30.6l13.7-1.2c-1.4,6.734-2.817,13.185-4.25,19.35c-1.435,6.167-2.95,12.15-4.55,17.95
						c-1.601,5.801-3.317,11.5-5.15,17.101c-1.834,5.6-3.85,11.2-6.05,16.8l-13.101,1.2c-1.066-3.666-2.184-7.633-3.35-11.9
						c-1.167-4.266-2.268-8.633-3.3-13.1c-1.034-4.466-1.968-8.883-2.8-13.25c-0.835-4.366-1.484-8.483-1.95-12.351l-0.3-5.6H82.905
						z"/>
				</g>
			</g>
		</g>
	</g>
</g>
<g>
</g>
<g>
</g>
<g>
</g>
<g>
</g>
<g>
</g>
<g>
</g>
</svg>
