<?xml version="1.0" standalone="no"?>
<!DOCTYPE svg PUBLIC "-//W3C//DTD SVG 1.1//EN" "http://www.w3.org/Graphics/SVG/1.1/DTD/svg11.dtd" >
<svg xmlns="http://www.w3.org/2000/svg">
<metadata>Generated by IcoMoon</metadata>
<defs>
<font id="icomoon" horiz-adv-x="1024">
<font-face units-per-em="1024" ascent="960" descent="-64" />
<missing-glyph horiz-adv-x="1024" />
<glyph unicode="&#x20;" horiz-adv-x="512" d="" />
<glyph unicode="&#xe900;" glyph-name="badge" horiz-adv-x="1041" d="M516.096-61.718l-57.96 57.841-70.643-41.729-41.628 70.318-78.889-22.992-22.694 78.387-82.178-2.82-2.329 81.513-80.294 17.548 18.189 79.525-73.374 36.794 37.552 72.552-61.848 53.73 54.568 61.009-46.433 67.303 68.15 45.627-28.089 76.638 77.451 27.392-7.99 81.156 81.878 7.432 12.606 80.579 81.176-13.004 32.414 74.939 75.361-32.615 50.192 64.594 64.811-50.189 64.819 50.189 50.192-64.594 75.353 32.615 32.422-74.939 81.176 13.004 12.606-80.579 81.878-7.432-7.99-81.156 77.451-27.392-28.098-76.638 68.15-45.627-46.424-67.303 54.56-61.009-61.839-53.73 37.552-72.552-73.374-36.794 18.189-79.525-80.302-17.548-2.329-81.513-82.169 2.82-22.694-78.387-78.889 22.992-41.637-70.318-70.634 41.729-57.968-57.841z" />
<glyph unicode="&#xe901;" glyph-name="superhero" d="M798.4 854.4h-571.2l-187.2-270.4 473.6-542.4 472 542.4-187.2 270.4zM100.8 572.8l168 244.8h494.4l166.4-244.8-416-470.4-412.8 470.4zM740.8 792h-456l-148.8-217.6 377.6-433.6 377.6 433.6-150.4 217.6zM609.6 364.8c-4.8-11.2-11.2-20.8-19.2-28.8s-17.6-14.4-28.8-17.6-24-6.4-38.4-6.4c-17.6 0-32 1.6-44.8 6.4-11.2 4.8-20.8 11.2-28.8 19.2-6.4 8-11.2 16-14.4 27.2-3.2 9.6-4.8 20.8-4.8 30.4 0 8 0 16 1.6 24 1.6 6.4 3.2 14.4 4.8 22.4h46.4v-19.2c0-11.2 0-19.2 1.6-28.8s3.2-14.4 6.4-20.8 6.4-9.6 11.2-12.8c4.8-3.2 11.2-4.8 17.6-4.8 11.2 0 20.8 3.2 25.6 9.6 6.4 6.4 9.6 16 9.6 27.2 0 6.4 0 11.2-1.6 17.6-1.6 4.8-1.6 9.6-4.8 16s-4.8 11.2-8 16-8 11.2-14.4 19.2l-62.4 73.6c-11.2 14.4-19.2 28.8-25.6 43.2s-9.6 30.4-9.6 46.4c0 12.8 1.6 25.6 6.4 35.2s9.6 20.8 17.6 28.8 17.6 14.4 28.8 19.2c11.2 4.8 24 6.4 38.4 6.4 17.6 0 32-3.2 43.2-8s20.8-11.2 27.2-19.2c6.4-8 11.2-17.6 14.4-27.2s4.8-19.2 4.8-30.4c0-8 0-16-1.6-24s-3.2-14.4-4.8-24h-46.4v20.8c0 20.8-3.2 36.8-9.6 48s-16 16-28.8 16c-11.2 0-19.2-3.2-25.6-9.6-4.8-6.4-8-14.4-8-25.6 0-4.8 0-11.2 1.6-14.4 1.6-4.8 1.6-8 3.2-12.8 1.6-3.2 3.2-8 6.4-11.2 1.6-3.2 4.8-8 8-11.2l68.8-83.2c12.8-16 22.4-32 28.8-48 6.4-14.4 9.6-30.4 9.6-48 4.8-12.8 3.2-25.6-1.6-36.8z" />
<glyph unicode="&#xe902;" glyph-name="fail" horiz-adv-x="1125" d="M804.075 342.94c41.263 100.529 81.010 244.546 95.978 460.218 25.688 2.579 65.789 11.277 93.652 39.696 14.007 14.26 23.11 32.009 27.054 52.186h40.909c-14.26-411.471-176.229-522.316-257.593-552.1v0zM965.437 950.918l1.416-29.228c0.759-16.991-3.388-29.835-12.844-39.494-12.642-13.047-33.375-19.57-50.77-22.553 0.809 15.019 1.365 30.037 1.77 45.865h-146.040l-163.031-350.891h84.904l-170.818-371.826c12.895-21.441 23.312-39.19 29.38-54.613h-21.188v-44.247h25.891c-10.468-68.722-149.074-147.911-149.074-147.911h440.851c0 0-138.455 79.189-148.922 147.911h25.84v44.247h-21.137c11.479 29.633 38.735 66.8 69.935 125.054l15.625-22.3 45.815 32.161-15.625 22.149c95.017 28.621 302.447 147.153 310.942 637.257l0.405 28.419h-153.322zM64.15 816.817l40.555 5.562c6.624-19.418 18.002-35.802 33.88-48.040 31.554-24.374 72.464-27.509 98.102-26.649 44.095-211.627 102.956-348.919 157.519-442.924-84.499 18.508-260.222 106.344-330.057 512.051v0zM386.268 222.998l49.759-25.638 12.389 24.273c18.508-25.537 35.347-46.118 49.708-64.070l102.4 372.23-85.713-11.681 125.864 388.21-422.697-57.9c2.63-15.625 5.259-30.391 7.939-45.157-17.648 0.556-38.836 4.248-53.197 15.474-10.67 8.243-16.789 20.581-18.255 37.37l-2.63 29.127-151.855-20.783 4.45-28.116c74.891-484.39 296.378-573.693 394.227-589.217l-12.389-24.121z" />
<glyph unicode="&#xe903;" glyph-name="unattend" horiz-adv-x="956" d="M439.784 429.824c144.732 0.008 196.808 142.311 210.44 259.203 16.793 143.998-52.552 252.375-210.44 252.375-157.867 0-227.248-108.368-210.442-252.375 13.645-116.892 65.706-259.212 210.442-259.203v0 0zM752.446 372.372c4.657 0 9.284-0.137 13.879-0.387-6.887 9.648-14.86 18.157-24.19 24.999-27.81 20.383-63.829 27.070-95.67 39.356-15.5 5.978-29.379 11.917-42.409 18.679-43.975-47.357-101.321-72.13-168.1-72.136-66.758 0-124.099 24.773-168.068 72.136-13.029-6.764-26.912-12.701-42.409-18.679-31.841-12.289-67.857-18.974-95.67-39.356-48.097-35.251-60.527-114.554-70.292-168.647-8.060-44.654-13.474-90.223-15.055-135.579-1.224-35.132 16.44-40.059 46.373-50.665 37.477-13.273 76.174-23.127 115.131-31.204 75.236-15.602 152.787-27.589 230.004-28.126 37.416 0.262 74.907 3.226 112.175 7.97-27.595 39.263-43.78 86.822-43.78 138.030 0.002 134.328 111.289 243.61 248.081 243.61v0-0.001zM755.561 327.023c-109.606 0-198.465-87.258-198.465-194.887s88.858-194.887 198.465-194.887c109.608 0 198.468 87.258 198.468 194.887-0.002 107.631-88.861 194.887-198.468 194.887v0 0zM789.612 98.7h-120.879c-18.806 0-34.053 14.969-34.053 33.439 0 18.468 15.245 33.439 34.053 33.439h173.657c18.806 0 34.053-14.972 34.053-33.439-0.002-18.471-15.245-33.439-34.053-33.439h-52.778z" />
<glyph unicode="&#xe904;" glyph-name="mobile" d="M736 960h-448c-52.8 0-96-43.2-96-96v-832c0-52.8 43.2-96 96-96h448c52.8 0 96 43.2 96 96v832c0 52.8-43.2 96-96 96zM384 912h256v-32h-256v32zM512 0c-35.346 0-64 28.654-64 64s28.654 64 64 64 64-28.654 64-64-28.654-64-64-64zM768 192h-512v640h512v-640z" />
<glyph unicode="&#xe905;" glyph-name="swim" d="M397.16 408.711c55.952-6.948 108.124-24.877 156.494-47.347 23.46-11.024 48.58-25.469 68.26-36.746 19.701-11.678 39.717-22.216 59.943-32.48l-122.616 244.084-25.897 45.784-91.51 161.195c-12.917 22.744-41.67 30.664-64.311 17.718-22.704-13.051-30.517-41.962-17.58-64.706l101.193-178.407-25.897-23.103-158.258-90.703c39.843 8.426 80.988 9.672 120.18 4.709v0zM781.159 418.636c48.853 28.024 65.845 90.618 38.037 139.697-27.85 48.994-90.040 66.163-138.872 38.139-48.769-28.024-65.95-90.639-38.058-139.613 27.808-49.184 90.166-66.248 138.893-38.224v0zM974.052 342.146c-14.45-48.213-37.259-92.983-69.751-116.108-31.61-23.146-67.672-24.582-107.347-16.557-39.591 8.363-80.652 25.384-120.852 45.763-20.352 10.327-40.368 20.886-60.111 32.628-19.68 11.277-44.863 25.701-68.323 36.725-48.328 22.449-100.542 40.42-156.536 47.368-55.553 7.011-115.328 2.386-169.285-19.154-54.083-21.182-99.912-58.371-131.626-102.128-31.19-44.264-52.802-93.3-58.221-144.618 60.636 80.714 137.969 138.599 218.243 152.157 80.022 14.762 163.32-9.482 244.098-47.685 21.045-9.609 38.772-19.302 61.959-31.804 23.334-11.805 47.173-23.315 71.705-32.923 49.273-19.091 102.264-34.761 160.632-35.162 29.005-0.084 59.775 3.97 88.822 16.071 29.257 11.826 55.427 32.691 72.44 57.674 33.269 51.359 36.713 108.379 24.154 157.753v0z" />
<glyph unicode="&#xe906;" glyph-name="tennis" d="M474.497 910.178c-105.302-9.847-208.097-55.299-288.884-136.264-80.787-80.942-126.068-184.022-135.864-289.754 115.627-13.444 238.568-72.709 339.5-173.922 100.978-101.235 160.149-224.608 173.441-340.464 105.601 9.824 208.143 55.253 288.999 136.172 80.764 80.919 125.999 184.045 135.749 289.754-115.351 13.421-238.499 72.686-339.431 173.922-100.863 101.212-160.034 224.608-173.51 340.556v0zM989.324 454.251c-3.427 116.109-49.236 231.135-137.497 319.756-88.307 88.621-203.153 134.396-318.941 137.994 13.016-101.397 66.713-210.357 156.722-300.639s198.53-144.035 299.716-157.111v0zM48.023 425.656c3.404-116.063 49.236-231.111 137.589-319.686 88.284-88.529 202.992-134.534 318.757-137.901-13.016 101.258-66.644 210.15-156.699 300.431-89.963 90.235-198.599 144.012-299.647 157.157v0z" />
<glyph unicode="&#xe907;" glyph-name="time" d="M818.817 638.856l24.384 31.921c12.862 16.821 9.6 40.809-7.298 53.616l-62.782 47.595c-16.898 12.807-40.993 9.557-53.858-7.263l-24.382-31.825c39.936-19.688 76.127-45.588 107.902-77.222 5.665-5.543 10.945-11.086 16.034-16.821v0zM512.288 775.524c16.993 0 33.793-1.051 50.4-3.058v43.963h30.336c21.218 0 38.4 17.107 38.4 38.229v19.114c0 21.121-17.182 38.229-38.4 38.229h-161.471c-21.217 0-38.4-17.107-38.4-38.229v-19.114c0-21.121 17.183-38.229 38.4-38.229h30.336v-43.963c16.607 2.007 33.407 3.058 50.399 3.058v0zM895.903 366.286c0 95.858-35.422 183.402-93.982 250.398-34.178 39.184-76.32 71.296-123.84 94.042-35.713 17.107-74.593 28.767-115.393 34.119-16.511 2.198-33.311 3.249-50.4 3.249s-33.888-1.147-50.4-3.249c-188.064-24.562-333.216-184.74-333.216-378.559 0-210.926 171.744-381.904 383.616-381.904s383.615 170.977 383.615 381.904zM617.983 632.166c49.538-19.497 92.258-52.278 123.84-94.042 28.224-37.273 47.52-81.714 54.624-130.073 2.016-13.667 3.073-27.716 3.073-41.956h-289.056v286.141h1.824c13.728 0 27.264-0.956 40.415-2.867 22.754-3.154 44.545-8.984 65.28-17.203z" />
<glyph unicode="&#xe908;" glyph-name="trophy" d="M775.863 912l1.019-21.564c0.629-12.373-2.516-21.832-9.496-29-9.406-9.577-24.684-14.396-37.505-16.567 0.479 11.035 0.929 22.159 1.288 33.67h-428.881c0.359-11.511 0.839-22.635 1.318-33.67-12.851 2.171-28.099 7.019-37.535 16.597-7.040 7.138-10.185 16.627-9.556 29l1.048 21.534h-113.563l0.389-20.939c6.291-360.225 159.875-447.433 230.182-468.462l-11.533-16.27 33.85-23.706 11.563 16.389c23.126-42.771 43.286-70.076 51.884-91.908h-15.697v-32.629h19.172c-7.759-50.386-110.358-108.743-110.358-108.743v-30.755h-25.163v-174.773h376.787v174.773h-25.103v30.755c0 0-102.629 58.357-110.388 108.743h19.172v32.629h-15.667c8.597 21.802 28.758 49.047 51.884 91.908l11.533-16.389 33.91 23.706-11.563 16.27c70.337 21.029 223.921 108.237 230.212 468.462l0.359 20.939h-113.563zM186.328 870.865h30.286c2.846-14.783 9.586-27.781 19.951-38.28 20.73-20.969 50.476-27.305 69.408-29.268 11.054-158.533 40.501-264.391 71.086-338.274-60.182 21.891-180.186 103.329-190.73 405.822v0zM656.338 465.043c30.585 73.883 60.032 179.741 71.086 338.274 18.962 1.963 48.679 8.298 69.378 29.268 10.425 10.499 17.135 23.497 19.981 38.28h30.286c-10.485-302.492-130.518-383.93-190.73-405.822v0z" />
<glyph unicode="&#xe909;" glyph-name="ultra-fast" d="M766.062 413.23c12.681 0 14.751 11.814 13.978 17.64-17.459 131.496-125.875 234.264-259.941 242.974-6.109 0.396-18.483 0.010-18.483-12.256v-231.090c0 0 0-17.266 17.263-17.266 61.795-0.002 247.182-0.002 247.182-0.002v0zM829.255 653.345l18.773 18.768c1.609 1.609 3.329 1.531 4.28 1.614 5.995 0.522 12.585 1.147 20.167 2.543 27.43 5.053 13.604 35.029-14.162 62.795-27.768 27.768-58.020 41.645-62.793 14.162-1.43-8.23-2.019-14.162-2.541-20.157-0.060-0.715 0.002-1.986-1.319-3.307l-18.102-18.102c-3.524-3.524-6.283-0.855-7.763 0.372-56.152 46.633-124.831 78.686-200.25 90.384-1.848 0.285-5.551 0.775-5.551 4.551v11.172c0 2.717 2.118 3.727 3.15 4.186 17.766 7.952 30.181 19.618 41.8 33.022 26.459 30.522-46.109 49.8-102.976 49.8-56.87 0-129.433-19.273-102.971-49.797 11.297-13.029 23.343-24.423 40.329-32.355 1.275-0.597 3.911-1.232 3.911-5.307v-10.116c0-3.925-3.556-4.829-5.329-5.101-96.689-14.942-182.332-63.338-244.687-133.032-65.558-73.213-105.413-169.904-105.413-275.895 0-228.552 185.264-413.818 413.794-413.818 217.416 0 395.676 167.658 412.511 380.775 0.867 10.896 1.307 21.908 1.307 33.046 0 95.092-32.085 182.682-86 252.564-1.072 1.389-3.283 4.116-0.164 7.234v0zM835.465 360.79c-16.447-169.904-159.638-302.707-333.864-302.707-185.269 0-335.463 150.194-335.463 335.46 0 85.942 32.321 164.324 85.462 223.675 61.425 68.597 150.675 111.786 250.001 111.786 185.288 0 335.458-150.194 335.458-335.46 0.002-11.041-0.527-21.983-1.594-32.754v0z" />
<glyph unicode="&#xe90a;" glyph-name="unisex" d="M565.024 503.554c0 131.526-108.715 238.532-242.342 238.532s-242.343-107.006-242.343-238.532c0-116.058 84.655-213.005 196.372-234.208v-62.063h-73.553c-25.388 0-45.971-20.259-45.971-45.248s20.583-45.248 45.971-45.248h73.553v-82.986c0-24.991 20.583-45.248 45.971-45.248s45.971 20.259 45.971 45.248v82.986h73.553c25.388 0 45.971 20.259 45.971 45.248s-20.583 45.248-45.971 45.248h-73.553v62.063c111.718 21.202 196.371 118.15 196.371 234.208v0zM172.281 503.554c0 81.627 67.468 148.036 150.4 148.036s150.4-66.407 150.4-148.036c0-81.627-67.468-148.035-150.4-148.035-82.93 0-150.4 66.407-150.4 148.035v0zM898.344 912h-166.568c-25.018 0-45.302-19.964-45.302-44.587s20.283-44.587 45.302-44.587h57.203l-126.961-124.963c-39.185 26.199-85.391 40.295-133.804 40.295-63.788 0-123.758-24.45-168.864-68.845-93.11-91.649-93.11-240.771 0-332.416 45.105-44.396 105.075-68.847 168.864-68.847s123.758 24.45 168.864 68.847c82.16 80.867 91.805 206.478 28.972 297.874l126.997 124.997v-56.304c0-24.625 20.283-44.587 45.3-44.587 25.020 0 45.3 19.964 45.3 44.587v163.949c0 24.624-20.283 44.587-45.301 44.587v0zM633.013 399.953c-27.993-27.553-65.211-42.727-104.798-42.727s-76.805 15.174-104.798 42.727c-57.785 56.878-57.785 149.423 0 206.302 27.993 27.553 65.211 42.725 104.798 42.725s76.807-15.174 104.798-42.725c57.784-56.88 57.784-149.427 0-206.302v0z" />
<glyph unicode="&#xe90b;" glyph-name="weight" d="M989.543 103.211l-150.569 483.34c-6.657 21.369-25.818 35.845-47.443 35.845h-158.897c12.88 22.096 20.436 47.894 20.436 75.556 0 80.781-63.288 146.51-141.071 146.51-77.782 0-141.071-65.728-141.071-146.51 0-27.661 7.556-53.459 20.438-75.556h-158.894c-21.625 0-40.786-14.476-47.443-35.845l-150.569-483.34c-10.42-33.447 13.594-67.727 47.443-67.727h860.197c33.851-0.002 57.863 34.278 47.445 67.727v0zM437.415 697.952c0 42.717 33.454 77.461 74.585 77.461s74.585-34.744 74.585-77.461c0-36.989-25.122-67.904-58.552-75.556h-32.064c-33.432 7.65-58.554 38.567-58.554 75.556v0zM446.058 203.7l-43.098 85.945h-20.536v-85.945h-49.929v211.871h49.929v-81.794h20.536l42.238 81.794h53.644l-55.085-101.338v-0.603l58.221-109.93h-55.92zM708.657 203.7h-41.658v5.936c0 4.441 0.279 8.879 0.279 8.879h-0.557c0 0-19.702-18.362-53.644-18.362-52.226 0-100.157 40.584-100.157 109.93 0 61.624 44.792 109.037 107.010 109.037 52.204 0 78.458-28.136 78.458-28.136l-23.976-38.823c0 0-20.817 19.544-49.647 19.544-42.795 0-60.196-28.447-60.196-59.837 0-40.32 26.811-64.304 58.5-64.304 23.953 0 41.352 15.393 41.352 15.393v16.312h-28.808v44.155h73.043v-119.726z" />
<glyph unicode="&#xe90c;" glyph-name="comment" d="M985.175 476.572c0 230.861-211.462 418.628-471.579 418.628s-471.428-187.691-471.428-418.552c0-107.435 47.376-211.266 130.773-288.971-18.725-45.496-43.541-88.517-73.845-127.93-8.949-11.563-10.302-27.328-3.535-40.316 6.542-12.387 19.402-20.121 33.314-20.121h1.805c39.781 1.878 118.891 28.304 202.665 81.383 44.818-7.883 145.211-22.748 180.255-22.748 264.474 0.076 471.575 183.862 471.575 418.628v0z" />
<glyph unicode="&#xe90d;" glyph-name="delete" d="M904.727 928h-785.455c-21.639 0-39.273-20.644-39.273-45.977v-91.954c0-25.333 17.633-45.977 39.273-45.977h8.601l90.484-633.147c15.905-90.115 68.57-148.321 134.156-148.321h319.052c67.392 0 120.135 58.575 134.431 150.022l90.209 631.446h8.522c21.639 0 39.273 20.644 39.273 45.977v91.954c0 25.333-17.633 45.977-39.273 45.977v0zM712.369 723.173l-17.83 20.919h35.699l-17.869-20.919zM453.955 54.486l-22.268 26.069 78.585 92 78.585-92-22.228-26.069h-112.673zM290.345 744.093h35.699l-17.83-20.919-17.869 20.919zM684.604 690.713l-67.981-79.586-78.624 92.046 35.031 40.965h65.978l45.596-53.425zM381.575 744.093h65.939l34.992-40.965-78.585-92-67.942 79.54 45.596 53.425zM510.272 735.633l-7.226 8.46h14.452l-7.226-8.46zM510.272 670.668l78.624-92.046-78.585-91.954-78.624 92 78.585 92zM482.545 454.117l-78.585-92-78.624 92.046 78.585 92 78.624-92.046zM510.311 421.611l78.585-92-78.585-92.046-78.624 92.046 78.624 92zM538.077 454.117l78.585 92 78.585-92-78.585-92-78.585 92zM376.156 578.622l-78.585-92-64.172 75.126-1.1 7.586 75.875 88.827 67.981-79.54zM244.553 483.726l25.252-29.563-17.987-21.057-7.265 50.621zM276.128 262.669l-16.377 114.666 37.82 44.276 78.624-92.046-78.624-92-21.443 25.103zM403.921 297.106l78.624-92.046-78.585-92-78.624 92.046 78.585 92zM538.077 205.014l78.585 92.046 78.585-92-78.624-92.046-78.545 92zM644.428 329.565l78.585 92 40.765-47.724-15.199-106.298-25.567-29.931-78.585 91.954zM750.778 454.117l29.415 34.437-8.444-58.988-20.972 24.552zM723.012 486.622l-78.585 92 67.981 79.586 78.585-92-67.981-79.586zM234.813 744.093l45.635-53.425-56.081-65.655-17.005 119.080h27.452zM295.372 127.911l-5.145 36.092 7.344 8.598 78.624-92.046-22.268-26.069h-1.453c-40.922 0-54.236 57.517-57.103 73.425v0zM728.746 128.554c-1.964-12.322-13.824-74.069-57.22-74.069h-4.831l-22.268 26.069 78.624 92.046 10.289-12.046-4.595-32zM799.201 621.564l-59.066 69.149 45.635 53.379h30.947l-17.516-122.528z" />
<glyph unicode="&#xe90e;" glyph-name="edit" d="M633.822 755.5l191.696-191.694-485.236-485.236-191.587 191.694 485.127 485.236zM970.979 801.732l-85.489 85.489c-33.039 33.039-86.686 33.039-119.837 0l-81.89-81.89 191.696-191.696 95.52 95.52c25.625 25.627 25.625 66.952 0 92.577v0zM48.377 0.822c-3.489-15.701 10.687-29.769 26.389-25.951l213.613 51.793-191.587 191.694-48.415-217.536z" />
<glyph unicode="&#xe90f;" glyph-name="badge-o" d="M507.904-45.825l55.251 55.13 67.323-39.773 39.685 67.022 75.192-21.914 21.63 74.713 78.318-2.688 2.22 77.692 76.538 16.725-17.337 75.798 69.935 35.069-35.792 69.151 58.94 51.212-52.002 58.15 44.248 64.148-64.956 43.489 26.781 73.045-73.82 26.108 7.615 77.352-78.040 7.084-12.015 76.801-77.371-12.394-30.903 71.426-71.82-31.086-47.839 61.566-61.781-47.836-61.773 47.836-47.839-61.566-71.829 31.086-30.894-71.426-77.371 12.394-12.015-76.801-78.040-7.084 7.615-77.352-73.82-26.108 26.772-73.045-64.956-43.489 44.256-64.148-52.010-58.15 58.948-51.212-35.792-69.151 69.935-35.069-17.337-75.798 76.53-16.725 2.22-77.692 78.326 2.688 21.63-74.713 75.192 21.914 39.677-67.022 67.331 39.773 55.243-55.13zM507.904-20.14l-52.329 52.222-63.78-37.675-37.584 63.487-71.225-20.758-20.489 70.772-74.194-2.546-2.103 73.594-72.493 15.843 16.422 71.799-66.246 33.22 33.904 65.504-55.839 48.51 49.267 55.082-41.922 60.764 61.53 41.195-25.36 69.192 69.926 24.731-7.214 73.272 73.924 6.71 11.381 72.75 73.29-11.74 29.265 67.658 68.040-29.447 45.316 58.318 58.514-45.313 58.522 45.313 45.316-58.318 68.032 29.447 29.273-67.658 73.29 11.74 11.381-72.75 73.924-6.71-7.214-73.272 69.926-24.731-25.368-69.192 61.53-41.195-41.914-60.764 49.259-55.082-55.831-48.51 33.904-65.504-66.246-33.22 16.422-71.799-72.501-15.843-2.103-73.594-74.186 2.546-20.489-70.772-71.225 20.758-37.592-63.487-63.772 37.675-52.336-52.222z" />
<glyph unicode="&#xe910;" glyph-name="globe" d="M512 928c-265.095 0-480-214.902-480-480s214.905-480 480-480c265.095 0 480 214.902 480 480s-214.905 480-480 480v0zM326.213 815.562c-8.598-11.909-16.832-24.697-24.633-38.4-11.916-20.93-22.548-43.461-31.865-67.274-19.85 5.465-39.604 11.601-59.234 18.42 32.99 35.463 72.135 65.127 115.732 87.254v0zM160.734 662.907c28.155-10.567 56.556-19.83 85.147-27.798-11.766-46.607-19.062-96.448-21.526-147.906h-122.388c6.065 63.916 26.784 123.623 58.767 175.705v0zM160.734 233.093c-31.985 52.084-52.704 111.788-58.767 175.705h122.388c2.466-51.458 9.76-101.3 21.526-147.906-28.591-7.968-56.992-17.231-85.147-27.798v0zM210.481 167.69c19.631 6.818 39.385 12.96 59.232 18.42 9.319-23.813 19.951-46.343 31.867-67.274 7.798-13.701 16.034-26.491 24.633-38.4-43.596 22.129-82.742 51.791-115.732 87.254v0zM472.798 56.443c-50.198 18.826-94.666 72.844-125.662 147.431 41.676 7.692 83.636 12.453 125.662 14.277v-161.708zM472.798 296.729c-50.334-2.014-100.583-7.929-150.442-17.701-10.24 40.258-17.004 84.012-19.483 129.772h169.925v-112.071zM472.798 487.202h-169.925c2.479 45.76 9.243 89.514 19.483 129.772 49.856-9.775 100.108-15.687 150.442-17.701v-112.071zM472.798 677.851c-42.026 1.824-83.983 6.585-125.662 14.277 30.996 74.587 75.463 128.603 125.662 147.431v-161.708zM863.269 662.9c31.983-52.079 52.699-111.783 58.762-175.697h-122.388c-2.464 51.454-9.76 101.295-21.524 147.897 28.593 7.968 56.997 17.228 85.15 27.801v0zM813.526 728.3c-19.631-6.818-39.385-12.96-59.237-18.422-9.319 23.818-19.951 46.353-31.87 67.286-7.801 13.701-16.034 26.491-24.63 38.4 43.599-22.132 82.745-51.798 115.737-87.264v0zM551.202 839.557c50.198-18.826 94.668-72.849 125.664-147.441-41.676-7.69-83.636-12.448-125.664-14.27v161.711zM551.202 599.269c50.338 2.011 100.591 7.924 150.444 17.694 10.24-40.256 17.002-84.007 19.481-129.762h-169.925v112.069zM551.202 408.798h169.925c-2.479-45.755-9.241-89.506-19.481-129.762-49.854 9.772-100.106 15.682-150.444 17.696v112.066zM551.202 56.443v161.708c42.031-1.824 83.99-6.58 125.664-14.272-30.996-74.587-75.466-128.61-125.664-147.436v0zM697.79 80.438c8.598 11.909 16.832 24.697 24.63 38.4 11.919 20.933 22.55 43.468 31.87 67.284 19.85-5.465 39.604-11.604 59.237-18.422-32.992-35.466-72.138-65.132-115.737-87.262v0zM863.269 233.098c-28.153 10.575-56.556 19.835-85.147 27.806 11.764 46.602 19.057 96.441 21.524 147.894h122.388c-6.065-63.914-26.782-123.618-58.764-175.7v0z" />
<glyph unicode="&#xe911;" glyph-name="tap" d="M319.234 799.35c0 51.459 40.725 91.891 92.555 91.891s92.555-40.433 92.555-91.891v-88.216c22.211 22.054 37.022 55.136 37.022 88.216 0.002 69.839-59.234 128.65-129.575 128.65s-129.579-58.811-129.579-128.65c0-36.757 14.809-66.162 37.022-88.216v88.216zM856.055 597.189c-29.618 0-55.534-25.731-55.534-55.136v-91.891h-37.022v128.648c0 29.405-25.917 55.136-55.534 55.136s-55.534-25.731-55.534-55.136v-91.891h-37.022v128.65c0 29.405-25.917 55.136-55.534 55.136s-55.532-25.731-55.532-55.136v-165.406h-37.022v349.188c0 29.405-25.917 55.136-55.534 55.136s-55.534-25.731-55.534-55.136v-378.594c-77.748 80.865-177.707 169.081-218.43 128.65-40.725-40.433 62.937-150.704 207.324-393.298 66.64-110.27 148.089-183.784 288.771-183.784 151.79 0 277.668 124.973 277.668 275.677v294.054c0.006 29.403-25.911 55.134-55.528 55.134v0z" />
<glyph unicode="&#xe912;" glyph-name="health" d="M718.639 836.71c-93.138 0-174.214-50.787-216.038-125.658-41.922 74.87-122.899 125.658-216.038 125.658-89.183 0-170.16-51.273-212.874-127.211-50.821-90.213-33.419-189.652 7.218-280.156 0.099-0.193 0.198-0.388 0.297-0.583h201.8l46.273 81.861c9.393 16.606 33.814 16.703 43.207 0.098l84.932-149.159 131.403 271.612c9.393 19.519 38.165 18.159 45.58-2.136l74.748-202.179h214.752c0.1 0.193 0.198 0.388 0.297 0.583 40.736 90.506 58.038 189.944 7.317 280.156-42.713 75.841-123.789 127.114-212.874 127.114v0zM650.911 371.564l-45.877 124.298-121.614-251.413c-8.602-17.868-34.111-18.644-43.999-1.457l-88.392 155.276-17.106-30.201c-4.349-7.672-12.656-12.527-21.652-12.527h-186.475c102.235-137.601 300.673-279.282 359.799-319.873 10.184-6.991 23.828-6.991 34.013 0 59.126 40.688 257.564 182.37 359.798 319.873h-205.162c-10.482 0.001-19.776 6.41-23.335 16.024v0z" />
<glyph unicode="&#xe913;" glyph-name="calorie" d="M163.542 319.9c6.446 94.211 29.982 157.171 60.127 205.806 51.696-81.45 160.363-77.706 160.363-77.706-77.572 219.205 290.77 277.425 23.567 472 5.762-3.158 70.284-38.967 148.739-101.568 179.991-175.857-101.488-143.655 50.604-353.465 0 0 71.864-46.721 90.257 33.134 17.091 74.386 4.525 145.712 4.525 145.712s50.752-25.49 81.678-80.604c40.79-72.53 67.973-154.306 67.973-243.341 0.033-189.887-153.915-343.868-343.965-343.868-189.92 0-356.922 154.371-343.868 343.9z" />
<glyph unicode="&#xe914;" glyph-name="kick" d="M265.721 664.329c0-64.102-52.279-116.067-116.768-116.067s-116.768 51.965-116.768 116.067c0 64.102 52.279 116.067 116.768 116.067s116.768-51.965 116.768-116.067zM970.206 910.612c-30.565 30.019-79.849 12.6-110.084-17.763l-279.2-283.223-100.801-12.134c-10.286-3.15-25.768-0.758-34.618 5.335l-13.94 9.589 197.689 153.092c29.665 22.961 34.998 65.513 11.863 95.014-23.084 29.487-65.892 34.753-95.571 11.81l-209.188-161.993c-12.901-10.001-20.902-23.753-24.261-38.453-0.069-0.137-0.19-0.223-0.261-0.362 0 0-77.25-123.847-77.198-127.477-15.55-20.485-18.806-48.799-5.768-72.846l113.512-209.551c12.312-22.704 35.776-35.614 60.021-35.614 10.909 0 21.975 2.599 32.243 8.107 33.111 17.73 45.492 58.782 27.673 91.711l-50.063 92.416 116.473-6.712v-373.072c0-42.706 17.524-77.357 60.505-77.357s60.523 34.651 60.523 77.357v454.506c0 1.067-0.275 2.065-0.311 3.132l298.059 309.316c30.202 30.363 53.25 75.102 22.703 105.171v0z" />
<glyph unicode="&#xe915;" glyph-name="people" d="M503.726 445.826c82.701 0 147.023 85.775 147.023 174.567v27.817c0 88.789-64.322 151.79-147.023 151.79-82.704 0-147.026-62.998-147.026-151.79v-27.817c0-88.792 64.322-174.567 147.026-174.567v0zM209.167 417.109c23.647 0 88.357 30.68 88.357 94.34v47.172c0 63.663-46.681 94.343-88.357 94.343-40.293 0-88.354-30.68-88.354-94.343v-47.172c0-63.66 65.966-94.34 88.354-94.34v0zM738.566 299.159c-0.046 0.461-0.184 0.899-0.231 1.357-0.692 5.554-1.753 10.987-3.225 16.307 0 0.049 0 0.092-0.046 0.138-3.087 11.309-8.295 22.204-16.076 32.937v0.046c-12.762 17.664-32.014 35.681-63.294 53.25-16.538 9.287-23.818 13.543-34.040 13.543-16.261 0-30.45-12.644-54.353-34.594h-0.049l-21.743-19.99c-0.784-0.741-24.227-33.859-41.779-33.859s-40.998 33.121-41.782 33.859l-21.743 19.99h-0.046c-23.904 21.95-38.092 34.594-54.353 34.594-10.226 0-19.351-4.256-34.040-13.543-30.328-19.143-50.538-35.562-63.248-53.2l-0.049-0.023c-0.046-0.046-0.046-0.119-0.089-0.158-7.696-10.644-12.854-21.469-15.938-32.709-0.043-0.092-0.096-0.208-0.132-0.32-1.433-5.281-2.494-10.641-3.182-16.146-0.046-0.511-0.184-0.992-0.234-1.499-0.646-5.851-1.011-11.817-1.011-18.010 0-0.689-0.013-129.121 0-129.721 0-41.917 15.8-58.962 58.962-58.962h353.778c43.535 0 58.962 16.126 58.962 58.962 0.013 0.6-0.003 129.032-0.003 129.721-0.003 6.19-0.372 12.156-1.015 18.030v0zM798.803 417.109c23.643 0 88.361 30.68 88.361 94.34v47.172c0 63.663-46.681 94.343-88.361 94.343-40.296 0-88.357-30.68-88.357-94.343v-47.172c0-63.66 65.966-94.34 88.357-94.34v0zM99.093 353.262c-54.867-31.234-67.073-81.031-67.073-113.414 0-0.504-0.046-58.504 0-58.962 0-42.793 14.373-58.965 58.962-58.965h117.927v176.893l-29.481 29.481c-31.191 27.501-57.486 37.957-80.336 24.968v0zM208.91 298.813c0.875-0.56 0 14.001 0 0v0 0zM975.435 239.848c0 32.387-12.209 82.184-67.073 113.414-22.849 12.99-49.145 2.533-80.336-24.971l-29.481-29.481v-176.893h117.927c44.589 0 58.962 16.172 58.962 58.965 0.046 0.461 0 58.458 0 58.965v0zM798.643 298.813c0 14.001-0.871-0.56 0 0v0 0z" />
<glyph unicode="&#xe916;" glyph-name="premium-two" d="M199.294 261.562l-66.267-188.185c-3.926-11.174-1.169-23.579 7.103-32.020 8.242-8.441 20.62-11.414 31.83-7.66l98.246 32.861 55.956-87.439c6.384-9.912 17.863-15.409 29.582-14.058s21.639 9.312 25.566 20.456l67.346 191.309-84.010 73.261-165.352 11.474zM799.289 261.562l-165.352-11.444-84.010-73.352 67.316-191.189c3.926-11.204 13.877-19.134 25.595-20.516 11.719-1.352 23.138 4.085 29.522 14.058l55.867 87.439 98.276-32.861c11.179-3.755 23.498-0.781 31.83 7.66 8.212 8.441 10.969 20.876 7.043 32.020l-66.087 188.185zM706.168 311.754c30.511 2.133 54.608 26.433 56.826 56.951l6.564 95.129 62.4 71.88c20.111 23.069 20.111 57.432 0.060 80.5l-62.46 71.91-6.564 95.069c-2.068 30.518-26.345 54.818-56.826 56.921l-94.889 6.578-71.781 62.538c-22.988 20.095-57.275 20.095-80.323-0.030l-71.721-62.568-94.889-6.548c-30.451-2.103-54.668-26.373-56.766-56.921l-6.594-95.099-62.43-71.91c-20.021-23.069-20.021-57.402 0-80.47l62.43-71.88 6.564-95.129c2.098-30.518 26.345-54.698 56.796-56.891l94.979-6.608 71.721-62.568c22.988-20.095 57.275-20.095 80.293 0l71.721 62.568 94.889 6.578zM587.272 508.86l6.893-63.199c1.289-11.865-6.534-17.542-17.263-12.646l-57.875 26.223c-10.85 4.896-28.593 4.896-39.442 0l-57.785-26.223c-10.85-4.896-18.672 0.781-17.293 12.646l6.923 63.199c1.379 11.835-4.136 28.806-12.138 37.607l-42.769 47.009c-8.002 8.771-5.005 17.992 6.624 20.425l62.16 12.856c11.659 2.403 26.045 12.856 31.919 23.219l31.38 55.239c5.874 10.393 15.495 10.393 21.34 0l31.44-55.239c5.814-10.393 20.291-20.846 31.86-23.219l62.16-12.856c11.659-2.433 14.566-11.625 6.624-20.425l-42.739-47.009c-7.942-8.801-13.427-25.742-12.018-37.607v0z" />
<glyph unicode="&#xe917;" glyph-name="premium" d="M937.781 114.427c0 0-109.523 182.654-129.168 215.413 22.352 6.616 46.163 12.459 56.056 29.035 16.488 27.62-12.861 72.929-5.155 102.534 7.939 30.469 54.803 56.834 54.803 87.805 0 30.174-48.451 65.425-56.395 95.715-7.76 29.6 21.501 74.958 4.96 102.544-16.541 27.589-71.637 25.322-94.317 46.499-23.336 21.793-23.264 75.113-51.411 89.717-28.261 14.659-74.192-14.967-105.571-7.949-31.021 6.937-58.736 52.259-91.139 52.259-32.883 0-85.184-51.41-93.387-53.261-31.363-7.075-77.352 22.478-105.584 7.758-28.12-14.654-27.947-67.979-51.24-89.808-22.643-21.216-77.741-19.047-94.232-46.667-16.488-27.615 12.861-72.913 5.157-102.534-7.725-29.695-56.221-59.784-56.221-94.127 0-30.974 46.981-57.256 54.968-87.709 7.763-29.6-21.499-74.952-4.957-102.549 9.005-15.021 29.437-21.187 49.843-27.115 2.381-0.691 6.885-3.276 3.835-7.589-13.96-23.382-126.32-211.549-126.32-211.549-8.939-14.967-1.68-27.796 16.125-28.523l87.155-3.527c17.805-0.727 40.141-13.282 49.645-27.91l46.507-71.609c9.504-14.628 24.584-14.353 33.52 0.611 0 0 130.125 217.995 130.179 218.057 2.611 2.96 5.235 2.352 6.491 1.317 14.237-11.763 34.085-23.498 50.651-23.498 16.245 0 31.288 11.046 46.168 23.366 1.211 1.001 4.157 3.053 6.312-1.206 0.035-0.067 130.016-216.869 130.016-216.869 8.96-14.946 24.043-15.2 33.517-0.554l46.376 71.695c9.477 14.638 31.789 27.242 49.595 27.995l87.147 3.685c17.797 0.758 25.032 13.606 16.072 28.549v0zM664.48 310.518c-96.363-54.399-212.029-48.569-300.376 5.504-129.453 80.461-172.048 246.906-94.227 377.241 78.709 131.838 251.731 178.358 388.821 105.908 0.72-0.38 1.432-0.774 2.147-1.162 1.016-0.546 2.029-1.1 3.040-1.659 42.293-23.661 78.968-58.001 105.229-101.801 80.261-133.872 33.325-306.149-104.635-384.031v0zM642.443 756.952c-0.4 0.225-0.805 0.435-1.205 0.657-73.232 41.127-166.571 44.134-244.797-0.028-116.085-65.534-155.587-210.488-88.051-323.129 20.608-34.374 48.848-61.813 81.429-81.504 2.771-1.703 5.573-3.377 8.437-4.986 116.211-65.329 265.515-26.738 332.837 86.022 67.32 112.765 27.56 257.64-88.651 322.969v0zM671.515 572.609l-40.691-38.485c-12.603-11.918-20.48-35.445-17.501-52.277l9.605-54.342c2.976-16.832-7.333-24.101-22.912-16.154l-50.296 25.659c-15.579 7.947-41.069 7.947-56.648 0l-50.293-25.659c-15.579-7.947-25.891-0.678-22.915 16.154l9.605 54.342c2.976 16.832-4.901 40.359-17.504 52.277l-40.688 38.485c-12.605 11.918-8.664 23.682 8.752 26.14l56.229 7.928c17.416 2.456 38.040 16.995 45.829 32.309l25.147 49.441c7.789 15.313 20.536 15.313 28.323 0l25.149-49.441c7.789-15.313 28.411-29.853 45.829-32.309l56.229-7.928c17.413-2.458 21.352-14.221 8.749-26.14v0z" />
<glyph unicode="&#xe918;" glyph-name="profile" d="M306.806 577.783c-8.26 0.106-16.613-2.298-22.979-7.332-22.633-17.901-17.584-46.863-7.883-69.658 6.308-14.825 13.214-29.45 19.832-44.156 5.175-11.501 9.578-24.191 18.278-33.892 6.101-6.802 15.661-11.67 25.269-12.968 0.614-1.82 1.126-3.665 1.43-5.48 5.912-35.263 25.445-72.817 50.598-99.649 13.164-14.039 36.639-30.383 34.884-51.793-0.802-9.792-4.221-22.019-15.169-24.916-7.014-1.857-14.439-1.38-21.592-2.513v-28.197c0-34.789 55.908-75.229 127.989-75.229s127.987 40.44 127.987 75.229v28.409c-6.701 0.871-13.6 0.57-20.142 2.302-10.948 2.897-14.369 15.124-15.166 24.916-1.754 21.41 21.722 37.754 34.882 51.793 25.156 26.832 44.689 64.387 50.6 99.649 0.306 1.815 0.815 3.66 1.431 5.48 9.608 1.298 19.169 6.166 25.268 12.968 8.7 9.701 13.105 22.391 18.278 33.892 6.616 14.708 13.525 29.331 19.83 44.156 9.701 22.795 14.752 51.757-7.883 69.658-6.365 5.034-14.719 7.438-22.977 7.332-5.902-0.075-12.83 47.020-13.732 51.634-6.093 31.183-5.482 59.451-3.353 91.131 0.156 2.346-2.625 3.218-4.535 2.43l-14.32-5.9c-9.121 32.331-18.243 64.66-27.36 96.991-0.456 1.622-2.843 2.774-4.426 1.683-7.497-5.166-14.99-10.332-22.484-15.498-13.567 29.848-27.134 59.694-40.703 89.542-0.852 1.872-4.333 1.815-5.205 0-5.107-10.618-10.213-21.238-15.318-31.856-27.671 22.067-47.376 51.122-56.73 84.065-0.4 1.408-1.852 2.074-3.219 1.985-1.365 0.088-2.817-0.577-3.217-1.985-9.353-32.943-29.058-61.998-56.731-84.065-5.107 10.618-10.212 21.238-15.317 31.856-0.873 1.815-4.354 1.872-5.206 0-13.568-29.848-27.135-59.696-40.703-89.542-7.494 5.166-14.987 10.332-22.482 15.498-1.583 1.091-3.97-0.061-4.428-1.683-9.119-32.331-18.24-64.66-27.359-96.991l-14.32 5.9c-1.912 0.787-4.693-0.085-4.535-2.43 2.127-31.681 2.738-59.947-3.355-91.131-0.904-4.615-7.831-51.711-13.73-51.636zM417.937 482.618c-0.793 0.816-1.063 2.013-0.703 3.093s1.291 1.866 2.405 2.039l19.741 3.036 8.854 19.001c0.497 1.067 1.561 1.745 2.731 1.745s2.234-0.678 2.731-1.745l8.854-19.001 19.741-3.036c1.115-0.173 2.045-0.959 2.405-2.039s0.090-2.268-0.703-3.088l-14.372-14.845 3.404-20.979c0.184-1.149-0.292-2.298-1.239-2.972-0.519-0.367-1.128-0.553-1.737-0.553-0.502 0-1.003 0.121-1.458 0.376l-17.622 9.809-17.614-9.809c-1.003-0.566-2.247-0.497-3.194 0.177-0.943 0.669-1.424 1.823-1.239 2.972l3.392 20.979-14.377 14.841zM538.498 482.618c-0.798 0.816-1.063 2.013-0.703 3.093s1.291 1.866 2.405 2.039l19.741 3.036 8.85 19.001c0.497 1.067 1.561 1.745 2.731 1.745s2.234-0.678 2.736-1.745l8.85-19.001 19.741-3.036c1.115-0.173 2.045-0.959 2.405-2.039s0.090-2.268-0.703-3.088l-14.377-14.85 3.404-20.979c0.184-1.149-0.292-2.298-1.239-2.972-0.519-0.367-1.128-0.553-1.737-0.553-0.502 0-0.999 0.121-1.458 0.376l-17.622 9.809-17.61-9.809c-1.003-0.566-2.247-0.497-3.194 0.177-0.943 0.669-1.424 1.823-1.239 2.972l3.392 20.979-14.372 14.845zM571.322 381.572c0.592-0.904 0.692-2.047 0.263-3.040-9.537-22.204-31.868-36.556-56.896-36.556-25.565 0-48.031 14.419-57.232 36.731-0.412 0.993-0.3 2.128 0.292 3.022 0.594 0.89 1.589 1.428 2.653 1.428h0.004l108.254-0.139c1.075 0 2.074-0.543 2.662-1.446zM64-64h895.267v65.57c0 123.763-99.444 224.092-222.116 224.092h-55.225c0 0-0.28-32.703-0.809-36.368h54.761c99.153 0 179.819-79.757 179.819-177.792 0-6.474-5.202-11.719-11.615-11.719-6.416 0-11.618 5.245-11.618 11.719 0 85.111-70.244 154.357-156.585 154.357h-58.247c-1.157 0-2.272 0.177-3.328 0.495-3.272-7.218-7.563-14.243-12.805-20.969h43.578c47.439-0.094 86.523-12.038 113.549-34.584 28.047-23.393 42.872-57.731 42.872-99.299 0-6.474-5.202-11.719-11.615-11.719-6.416 0-11.618 5.245-11.618 11.719 0 62.62-38.667 101.386-107.106 109.028-8.273 0.923-16.956 1.42-26.084 1.42h-67.313c-2.956-2.294-6.043-4.521-9.264-6.671-32.422-21.658-74.185-33.584-117.589-33.584-43.407 0-85.167 11.926-117.59 33.584-3.22 2.15-6.309 4.377-9.264 6.671h-65.86c-9.128 0-17.809-0.498-26.084-1.42-68.441-7.639-107.107-46.406-107.107-109.028 0-6.474-5.201-11.719-11.615-11.719s-11.615 5.245-11.615 11.719c0 41.57 14.825 75.907 42.87 99.299 27.027 22.543 66.111 34.488 113.042 34.575 0.169 0 42.631 0.009 42.631 0.009-5.12 6.574-9.343 13.43-12.584 20.474h-60.344c-86.343 0-156.587-69.246-156.587-154.357 0-6.474-5.201-11.719-11.615-11.719s-11.615 5.245-11.615 11.719c0 98.035 80.666 177.792 179.818 177.792h53.312c-0.529 3.665-0.809 36.368-0.809 36.368h-53.774c-122.675 0.001-222.119-100.328-222.119-224.092v-65.57z" />
<glyph unicode="&#xe919;" glyph-name="rocket" d="M404.239 49.888h213.98v-65.46h-213.98v65.46zM227.044 32.674c4.602-12.508 15.929-21.234 29.085-22.396 13.156-1.191 25.84 5.361 32.595 16.857 19.941 34.070 50.914 72.37 95.309 90.209-39.941 89.137-63.687 168.506-77.728 233.073-52.861-39.104-145.603-137.89-79.262-317.742v0zM713.469 349.939c-14.1-64.448-37.787-143.727-77.757-232.715 44.070-17.988 74.837-56.139 94.719-90.001 6.726-11.555 19.41-18.018 32.566-16.857 13.156 1.221 24.454 9.947 29.056 22.455 66.017 178.899-25.722 277.537-78.583 317.117v0zM697.835 525.265c1.976 198.168-105.161 330.697-159.939 385.407-8.259 8.25-19.498 12.836-31.18 12.747-11.622-0.119-22.743-4.914-30.885-13.342-53.067-55.007-155.868-187.357-153.922-384.781 0 0-9.793-182.384 113.037-432.849h149.851c122.801 250.465 113.037 432.819 113.037 432.819v0zM460.876 684.896c-1.799-2.978-33.864-58.104-20.501-145.276 2.979-19.596-10.354-37.912-29.764-40.95-1.799-0.268-3.599-0.417-5.428-0.417-17.227 0-32.36 12.657-35.073 30.377-17.699 115.553 28.584 191.199 30.531 194.356 10.501 16.737 32.477 21.741 49.055 11.168 16.43-10.513 21.504-32.552 11.18-49.259v0zM492.085 854.056c21.829 0 39.557-17.869 39.557-39.967s-17.758-39.997-39.557-39.997c-21.917 0-39.646 17.899-39.646 39.997s17.728 39.967 39.646 39.967v0z" />
<glyph unicode="&#xe91a;" glyph-name="run" d="M839.597 523.305l-117.213 69.87c0 0-28.352 16.192-53.533 42.644-49.931 52.447-95.442 77.899-171.64 73.054l-151.805-13.702-7.563-1.652c-20.586-4.533-36.461-22.414-37.6-44.564l-8.48-164.797c-1.025-19.603 12.209-37.632 31.931-41.929 21.909-4.773 43.522 9.193 48.274 31.188l25.534 118.209 51.853 4.577c0 0-49.525-191.295-50.74-196.714l-25.824-115.369-167.031-63.112c-26.771-10.206-41.994-39.543-34.037-67.726 8.402-29.779 39.257-47.077 68.913-38.641l207.961 59.171c18.756 5.491 34.851 20.188 40.939 40.36l1.473 4.868 29.626 98.115 74.382-92.814 4.482-210.704c0.691-28.907 23.42-53.105 52.669-54.747 30.774-1.728 57.119 21.917 58.84 52.811l13.101 235.052c0.691 12.411-2.579 25.179-10.19 36.179l-74.877 108.248c10.453 28.037 25.345 70.137 37.897 113.87l121.453-58.827c20.134-9.676 44.827-2.561 56.441 17.083 12.299 20.792 5.478 47.655-15.235 60v0zM655.301 683.329c66.417-23.263 139.022 11.928 162.194 78.612 23.165 66.67-11.877 139.588-78.285 162.847-66.415 23.265-139.031-11.932-162.198-78.607-23.167-66.687 11.875-139.588 78.29-162.851v0z" />
<glyph unicode="&#xe91b;" glyph-name="sad-face" d="M983.452 194.177c13.368-30.499-0.833-65.911-31.734-79.105-30.901-13.234-66.738 0.822-80.106 31.341-58.815 134.107-197.675 220.832-353.946 220.832-159.826 0-299.58-86.624-355.998-220.712-9.731-23.080-32.424-37.096-56.296-37.096-7.781 0-15.704 1.464-23.343 4.592-31.084 12.773-45.813 47.984-32.912 78.644 75.393 179.124 259.314 294.824 468.569 294.824 204.887 0.020 387.732-115.138 465.766-293.32v0zM411.675 679.059c0-49.121-40.345-88.941-90.113-88.941s-90.113 39.82-90.113 88.941c0 49.121 40.345 88.941 90.113 88.941s90.113-39.82 90.113-88.941zM772.125 679.059c0-49.121-40.345-88.941-90.113-88.941s-90.113 39.82-90.113 88.941c0 49.121 40.345 88.941 90.113 88.941s90.113-39.82 90.113-88.941z" />
<glyph unicode="&#xe91c;" glyph-name="shared" d="M812.356 318.282c-55.54 0-104.531-26.46-136.536-66.98l-296.869 151.818c3.886 14.496 6.681 29.473 6.681 45.235 0 17.16-3.318 33.315-7.947 49.034l295.559 151.12c31.831-42.354 82.088-70.036 139.156-70.036 96.671 0 174.873 78.201 174.873 174.785 0 96.497-78.201 174.742-174.873 174.742-96.453 0-174.742-78.245-174.742-174.742 0-15.806 2.794-30.826 6.724-45.366l-296.825-151.818c-32.049 40.563-81.127 67.111-136.754 67.111-96.584 0-174.742-78.289-174.742-174.829s78.158-174.785 174.742-174.785c57.156 0 107.369 27.77 139.331 70.167l295.428-151.12c-4.628-15.675-7.99-31.962-7.99-49.165 0-96.54 78.289-174.785 174.742-174.785 96.671 0 174.873 78.245 174.873 174.785 0.044 96.628-78.158 174.829-174.829 174.829v0z" />
<glyph unicode="&#xe91d;" glyph-name="spiner" d="M947.825 497.42c-18.799 18.835-41.167 28.469-67.081 28.469s-47.77-9.2-66.581-27.928c-18.799-18.726-27.951-41.133-27.951-67.003s9.021-47.845 27.442-66.464c18.669-18.835 41.167-27.928 67.090-27.928s48.282 9.201 67.081 27.928c18.801 18.835 27.952 40.592 27.952 66.464s-9.151 47.736-27.952 66.462v0zM766.393 249.322c-24.394 0-44.724-8.118-61.498-24.896-16.772-16.669-24.903-36.479-24.903-60.294 0-23.921 8.001-44.272 24.903-61.484 16.643-16.778 37.103-24.787 61.498-24.787 23.884 0 43.704 8.118 60.477 24.787 17.282 17.319 25.923 37.563 25.923 61.484 0 23.815-8.761 43.515-25.923 60.294-16.904 16.669-36.593 24.896-60.477 24.896v0zM779.101 588.779c27.951 0 52.345 10.175 72.675 30.417 20.33 20.349 30.489 44.706 30.489 73.066 0 28.903-10.17 53.257-30.489 73.607-19.82 19.808-44.214 29.876-72.675 29.876-28.971 0-53.365-10.067-73.185-29.876-20.33-20.349-30.489-44.706-30.489-73.607 0-28.36 10.17-52.715 30.489-73.066 20.328-20.242 44.724-30.417 73.185-30.417v0zM498.048 139.237c-21.349 0-39.769-7.469-54.882-22.84-14.865-15.046-22.357-33.447-22.357-55.313 0-21.324 7.503-39.726 22.357-54.232 15.125-14.937 33.546-22.407 54.882-22.407 21.857 0 40.019 7.794 54.884 22.407 15.124 14.83 22.865 32.906 22.865 54.232 0 21.865-7.622 40.59-22.865 55.854-14.734 14.721-33.025 22.299-54.884 22.299v0zM498.048 912c-30.998 0-57.432-10.716-79.278-32.474-21.857-21.865-32.527-47.736-32.527-78.694s10.668-57.804 32.527-79.667c21.857-21.758 48.28-32.474 79.278-32.474s57.432 10.716 79.278 32.474c21.857 21.865 33.036 48.711 33.036 79.667s-11.178 56.829-33.036 78.694c-21.847 21.758-48.28 32.474-79.278 32.474v0zM230.213 641.062c13.726 0 26.412 4.546 36.592 14.721 20.34 20.242 20.34 53.257 0 73.498-10.181 10.175-22.865 14.721-36.592 14.721-13.216 0-25.739-4.655-36.083-14.721-21.174-20.458-21.174-53.040 0-73.498 10.344-10.067 22.878-14.721 36.083-14.721v0zM230.213 238.713c-18.799 0-34.814-7.361-48.79-20.891-13.466-12.88-20.33-28.901-20.33-47.629 0-18.834 6.603-35.071 20.33-48.711 13.726-13.748 29.99-20.783 48.79-20.783s35.064 7.036 48.79 20.783c13.726 13.639 20.33 29.877 20.33 48.711 0 18.728-6.862 34.747-20.33 47.629-13.976 13.53-29.978 20.891-48.79 20.891v0zM151.956 473.606c-11.689 11.691-25.415 17.751-42.187 17.751s-31.507-6.061-43.195-17.751c-11.689-11.691-17.282-25.871-17.282-42.647 0-16.669 5.594-31.392 17.282-43.082 11.689-11.689 26.423-17.319 43.195-17.319s30.488 5.63 42.187 17.319c11.687 11.691 17.791 26.413 17.791 43.082-0.011 16.777-6.104 30.958-17.791 42.647v0z" />
<glyph unicode="&#xe91e;" glyph-name="star" d="M976.423 525.253c10.323 9.027 14.189 23.303 9.83 36.262-4.359 12.963-16.106 22.044-29.798 23.060l-272.939 20.286c-12.677 0.959-23.746 8.806-28.747 20.408l-108.399 250.258c-5.445 12.524-17.904 20.62-31.629 20.47-13.694-0.126-25.997-8.408-31.197-21.056l-103.72-252.222c-4.791-11.702-15.741-19.766-28.382-20.932l-272.538-25.305c-13.656-1.261-25.224-10.56-29.338-23.582-4.11-13.024 0.033-27.25 10.478-36.079l208.846-176.183c9.682-8.192 14.005-21.026 11.227-33.343l-60.041-265.915c-3.003-13.332 2.283-27.153 13.475-35.095 11.194-7.912 26.030-8.406 37.719-1.198l232.772 143.365c10.791 6.643 24.397 6.773 35.337 0.304l235.403-139.024c11.781-6.958 26.647-6.221 37.653 1.907 11.010 8.127 16.081 22.076 12.8 35.337l-64.928 264.753c-3.030 12.285 1.050 25.215 10.574 33.551l205.541 179.971z" />
<glyph unicode="&#xe91f;" glyph-name="days-streak" d="M1008 368h-201.6c12.8 33.6 20.8 70.4 20.8 107.2 0 166.4-136 300.8-304 300.8s-304-134.4-304-300.8c0-36.8 6.4-73.6 19.2-107.2h-201.6l40-88-40-84.8h971.2l-40 91.2 40 81.6zM265.6 475.2c0 139.2 115.2 252.8 256 252.8s256-113.6 256-252.8c0-36.8-8-73.6-24-107.2h-464c-14.4 33.6-24 68.8-24 107.2z" />
<glyph unicode="&#xe920;" glyph-name="scale" d="M257.6 950.4v-92.8h289.6v-67.2h-289.6v-88h121.6v-51.2h-121.6v-86.4h289.6v-67.2h-289.6v-96h121.6v-33.6h-121.6v-96h289.6v-67.2h-289.6v-88h121.6v-49.6h-121.6v-121.6h515.2v1004.8z" />
<glyph unicode="&#xe921;" glyph-name="yoga" d="M916.8 321.6l-179.2 131.2-56 139.2c-9.6 27.2-35.2 43.2-62.4 41.6v0h-204.8c-27.2 0-52.8-16-62.4-41.6l-56-139.2-179.2-131.2c-30.4-22.4-35.2-62.4-16-94.4 14.4-19.2 33.6-27.2 54.4-27.2 14.4 0 27.2 3.2 40 14.4l193.6 140.8-4.8-51.2-184-187.2c-25.6-27.2-32-67.2-19.2-100.8 14.4-33.6 48-56 84.8-56h88c-22.4 20.8-36.8 51.2-36.8 84.8 0 60.8 46.4 112 104 112h100.8c32 0 57.6-27.2 57.6-27.2h-158.4c-44.8 0-80-36.8-80-84.8s35.2-84.8 80-84.8h153.6c1.6 0 3.2 0 4.8 0h185.6c36.8 0 70.4 22.4 84.8 56s6.4 73.6-19.2 100.8l-179.2 187.2-4.8 51.2 193.6-140.8c11.2-8 25.6-14.4 40-14.4 20.8 0 41.6 9.6 54.4 27.2 17.6 30.4 11.2 72-17.6 94.4v0zM676.8 804.8c0-85.715-73.783-155.2-164.8-155.2s-164.8 69.485-164.8 155.2c0 85.715 73.783 155.2 164.8 155.2s164.8-69.485 164.8-155.2z" />
<glyph unicode="&#xe922;" glyph-name="accept" d="M440.040 716.231c12.665-12.812 28.117-21.187 44.429-25.131l-0.668-115.762c14.276 1.543 28.674 1.471 43.054-0.234l0.668 115.747c16.357 3.754 31.904 11.953 44.715 24.616 36.717 36.294 37.057 95.481 0.763 132.198s-95.483 37.058-132.198 0.763c-36.716-36.295-37.058-95.483-0.763-132.198v0zM251.688 160.257c4.561 17.427 3.887 34.991-1.040 51.032l99.906 58.452c-8.666 11.603-15.927 24.034-21.73 37.169l-99.919-58.46c-11.571 12.154-26.552 21.348-43.979 25.911-49.945 13.073-101.031-16.816-114.105-66.76s16.816-101.031 66.76-114.105c49.946-13.072 101.032 16.817 114.106 66.761v0zM670.349 288.683c-3.621-6.271-7.567-12.281-11.807-18.041l100.268-57.89c-4.834-16.069-5.416-33.633-0.752-51.033 13.362-49.869 64.619-79.462 114.489-66.1 49.868 13.361 79.462 64.619 66.1 114.489s-64.619 79.462-114.489 66.1c-17.399-4.662-32.321-13.949-43.82-26.168l-100.268 57.89c-2.869-6.553-6.101-12.977-9.721-19.246v0zM526.604 531.704c-14.379 2.184-28.883 2.215-43.055 0.216-43.766-6.173-84.347-31.698-108.159-72.942s-25.627-89.151-9.090-130.139c5.354-13.272 12.633-25.818 21.714-37.179 11.255-14.081 25.274-26.344 41.829-35.902 64.822-37.425 146.095-20.516 191.108 36.586 4.397 5.577 8.454 11.532 12.111 17.865s6.785 12.824 9.416 19.421c26.945 67.537 0.953 146.376-63.868 183.8-16.554 9.558-34.183 15.567-52.007 18.274z" />
<glyph unicode="&#xe923;" glyph-name="activity-run" d="M79.077 244.23c-26.663-5.091-44.133-30.749-39.025-57.325 4.495-23.418 25.131-39.709 48.219-39.709 3.065 0 6.232 0.306 9.296 0.916l202.274 38.691c11.544 2.24 21.862 8.451 29.217 17.615l86.835 109.15-29.012 14.764c-21.453 10.793-36.369 30.342-41.477 54.066l-81.931-102.939-184.396-35.228zM907.174 777.15c0-59.27-48.208-107.317-107.675-107.317s-107.675 48.048-107.675 107.317c0 59.27 48.208 107.317 107.675 107.317s107.675-48.048 107.675-107.317zM564.534 804.030c-11.34 11.607-21.861 16.189-33.405 16.189-4.19 0-8.377-0.611-12.873-1.629l-184.804-43.68c-25.54-6.007-41.272-31.564-35.245-56.917 5.21-21.789 24.62-36.451 46.176-36.451 3.679 0 7.355 0.407 11.034 1.324l157.426 37.164c10.216-11.302 61.397-66.59 70.694-76.364v0c-65.075-69.441-130.15-138.779-195.226-208.22-1.022-1.121-1.94-2.24-2.86-3.36-19.002-24.131-13.177-62.008 15.427-76.364l199.515-101.514-103.589-167.289c-14.199-23.012-7.048-53.15 16.039-67.404 8.071-4.989 16.958-7.331 25.744-7.331v0c16.448 0 32.588 8.247 41.885 23.215l131.58 212.496c7.253 11.709 9.194 25.862 5.414 38.997-3.78 13.236-12.872 24.233-25.233 30.444l-135.156 68.524 142.104 151.507 107.267-90.619c8.887-7.534 19.818-11.2 30.648-11.2 11.645 0 23.292 4.276 32.383 12.626l123.101 114.343c19.207 17.818 20.33 47.753 2.452 66.895-9.399 9.978-22.066 15.069-34.734 15.069-11.544 0-23.19-4.175-32.282-12.626l-92.147-85.426c-0.103-0.102-230.982 216.365-271.334 257.602v0z" />
<glyph unicode="&#xe924;" glyph-name="age" d="M506.541 466.5c0-11.739 9.625-21.193 21.459-21.193s21.459 9.514 21.459 21.193c0.020 24.828 8.941 48.962 25.136 67.95 36.027 42.228 63.032 88.012 80.131 136.079 2.311 6.495 1.306 13.685-2.713 19.307-4.039 5.621-10.549 8.958-17.521 8.958h-213.006c-6.972 0-13.503-3.337-17.541-8.958-4.019-5.621-5.023-12.811-2.713-19.307 17.139-48.068 44.104-93.851 80.131-136.079 16.215-18.989 25.156-43.142 25.177-67.95v0zM549.459 381.468c0 11.719-9.625 21.193-21.459 21.193s-21.459-9.514-21.459-21.193c-0.020-30.628-18.526-60.919-52.101-85.489-71.812-52.418-125.561-109.364-159.76-169.23-3.757-6.594-3.697-14.619 0.181-21.094 3.818-6.535 10.89-10.527 18.526-10.527h429.267c7.615 0 14.668 3.992 18.526 10.527 3.838 6.475 3.898 14.5 0.161 21.094-34.178 59.866-87.947 116.812-159.74 169.23-33.616 24.57-52.121 54.861-52.141 85.489v0zM903.579 63.288h-12.839c-14.748 165.118-112.561 291.882-188.593 381.92 76.052 90.018 173.825 216.801 188.633 381.92h12.839c23.71 0 42.919 19.009 42.919 42.447s-19.209 42.427-42.919 42.427h-751.218c-23.71 0-42.919-19.009-42.919-42.427 0-23.438 19.209-42.447 42.919-42.447h12.839c14.768-165.138 112.541-291.922 188.593-381.92-76.032-90.018-173.825-216.781-188.613-381.92h-12.819c-23.71 0-42.919-18.969-42.919-42.407 0-23.458 19.209-42.466 42.919-42.466h751.218c23.71 0 42.919 19.009 42.919 42.466 0 23.438-19.229 42.407-42.959 42.407v0zM251.279 63.288c16.135 149.189 114.249 264.074 187.568 349.921l3.918 4.588c13.503 15.791 13.503 38.911 0 54.722l-3.898 4.568c-73.299 85.866-171.454 200.752-187.588 349.961h553.442c-16.135-149.208-114.289-264.094-187.588-349.961l-3.878-4.568c-13.503-15.791-13.503-38.911 0-54.722l3.918-4.588c73.299-85.847 171.414-200.732 187.548-349.921h-553.442z" />
<glyph unicode="&#xe925;" glyph-name="arrow-up" d="M549.1 463.259h227.718l-256.818 434.615-256.818-434.615h227.718v-471.319h58.2v471.319z" />
<glyph unicode="&#xe926;" glyph-name="attend" d="M447.581 441.59c134.556 0.008 182.97 135.31 195.644 246.451 15.612 136.914-48.857 239.959-195.644 239.959-146.767 0-211.27-103.037-195.645-239.959 12.686-111.141 61.086-246.46 195.645-246.451v0zM738.259 386.965c4.33 0 8.631-0.13 12.903-0.368-6.403 9.173-13.815 17.264-22.489 23.769-25.855 19.38-59.341 25.738-88.943 37.42-14.41 5.684-27.313 11.331-39.427 17.76-40.883-45.027-94.197-68.581-156.281-68.587-62.064 0-115.373 23.554-156.251 68.587-12.113-6.431-25.020-12.076-39.427-17.76-29.602-11.684-63.086-18.041-88.943-37.42-44.715-33.517-56.271-108.918-65.35-160.35-7.493-42.457-12.527-85.784-13.996-128.909-1.138-33.404 15.284-38.088 43.112-48.172 34.842-12.62 70.818-21.989 107.036-29.669 69.946-14.834 142.044-26.232 213.832-26.742 34.785 0.249 69.64 3.067 104.288 7.578-25.655 37.331-40.702 82.551-40.702 131.239 0.002 127.72 103.464 231.625 230.638 231.625v0zM741.155 343.847c-101.899 0-184.511-82.965-184.511-185.299s82.61-185.299 184.511-185.299c101.901 0 184.513 82.965 184.513 185.299-0.002 102.336-82.613 185.299-184.513 185.299v0zM821.879 126.756h-49.067v-49.275c0-17.559-14.173-31.794-31.656-31.794-17.484 0-31.659 14.235-31.659 31.794v49.275h-49.065c-17.484 0-31.659 14.233-31.659 31.794 0 17.559 14.173 31.794 31.659 31.794h49.065v49.275c0 17.559 14.174 31.794 31.659 31.794s31.656-14.235 31.656-31.794v-49.275h49.067c17.484 0 31.659-14.235 31.659-31.794-0.002-17.562-14.173-31.794-31.659-31.794v0z" />
<glyph unicode="&#xe927;" glyph-name="bar-chart" d="M301.444 433.057h-179.171c-13.841 0-25.060-11.501-25.060-25.689v-426.486c0-14.188 11.219-25.689 25.060-25.689h179.171c13.841 0 25.060 11.501 25.060 25.689v426.486c0 14.185-11.219 25.689-25.060 25.689v0zM602.167 912h-179.171c-13.841 0-25.060-11.501-25.060-25.689v-905.437c0-14.183 11.219-25.689 25.060-25.689h179.171c13.841 0 25.060 11.506 25.060 25.689v905.437c0 14.188-11.217 25.689-25.060 25.689v0zM902.89 615.92h-179.171c-13.841 0-25.060-11.501-25.060-25.689v-609.357c0-14.183 11.219-25.689 25.060-25.689h179.171c13.841 0 25.060 11.506 25.060 25.689v609.357c0 14.188-11.217 25.689-25.060 25.689v0z" />
<glyph unicode="&#xe928;" glyph-name="basket" d="M840.597 88.695c-20.987 14.6-40.837 31.156-59.297 49.614-76.732 76.734-120.937 177.32-125.723 285.036h-118.922v-459.734c116.952 4.696 223.127 51.233 303.942 125.084v0zM694.776 423.344c6.321-127.693 74.1-239.473 174.283-306.352 75.144 81.112 122.586 188.229 127.33 306.352h-301.613zM536.656 462.507h118.92c4.786 107.716 48.991 208.302 125.723 285.036 18.459 18.459 38.311 35.014 59.297 49.614-80.813 73.851-186.987 120.387-303.94 125.084v-459.734zM694.776 462.507h301.613c-4.745 118.125-52.187 225.242-127.328 306.352-100.185-66.879-167.964-178.657-174.285-306.352v0zM193.555 797.156c20.985-14.6 40.835-31.156 59.295-49.614 76.734-76.734 120.937-177.318 125.723-285.036h118.922v459.734c-116.95-4.698-223.125-51.235-303.94-125.084v0zM497.493 423.344h-118.922c-4.786-107.716-48.989-208.302-125.723-285.036-18.459-18.459-38.309-35.014-59.295-49.614 80.815-73.85 186.989-120.387 303.94-125.084v459.734zM339.372 462.507c-6.321 127.693-74.1 239.473-174.283 306.352-75.144-81.112-122.586-188.229-127.33-306.352h301.613zM339.372 423.344h-301.613c4.745-118.123 52.187-225.24 127.33-306.352 100.185 66.88 167.964 178.657 174.283 306.352v0z" />
<glyph unicode="&#xe929;" glyph-name="bike" d="M824.595 504.342c-12.706 0-24.941-1.586-36.767-4.307l-97.38 215.449c-5.173 11.506-16.634 18.92-29.319 18.92h-60.892c-17.75 0-32.195-14.378-32.195-32.141 0-17.742 14.445-32.141 32.195-32.141h40.073l26.915-59.524h-271.879l-18.029 39.854h15.132c17.772 0 32.195 14.399 32.195 32.141 0 17.763-14.424 32.141-32.195 32.141h-118.178c-17.772 0-32.195-14.378-32.195-32.141 0-17.742 14.424-32.141 32.195-32.141h32.41l30.95-68.502-61.665-90.529c-19.639 8.335-41.21 12.942-63.876 12.942-90.469 0-164.089-73.495-164.089-163.81s73.62-163.831 164.089-163.831c79.437 0 145.888 56.696 160.891 131.691h27.581c15.432-38.976 56.921-62.524 99.441-53.653 47.413 9.921 77.805 56.375 67.954 103.75-1.331 6.257-3.327 12.171-5.838 17.784l144.385 147.418 22.708-50.182c-41.489-29.741-68.598-78.166-68.598-132.976 0-90.315 73.642-163.831 164.111-163.831 90.49 0 164.111 73.495 164.111 163.831-0.215 90.358-73.813 163.788-164.239 163.788v0zM419.084 401.707c-8.092-8.314-14.402-18.256-18.652-29.012h-27.43c-6.375 31.733-21.936 60.21-43.85 82.494l39.536 58.046 50.396-111.528zM291.59 400.036c6.203-8.228 11.032-17.399 14.424-27.298h-33.032l18.609 27.298zM212.111 241.047c-54.968 0-99.698 44.633-99.698 99.55s44.73 99.55 99.698 99.55c9.143 0 17.772-1.628 26.207-3.943l-52.8-77.48c-6.718-9.835-7.448-22.606-1.846-33.105 5.602-10.521 16.548-17.12 28.439-17.12h93.903c-13.501-39.104-50.225-67.452-93.903-67.452v0zM516.078 421.27c-11.826 4.95-24.79 7.199-38.141 6.578l-53.53 118.47h214.142l-122.471-125.048zM824.595 241.047c-54.99 0-99.72 44.633-99.72 99.55 0 28.584 12.256 54.189 31.723 72.359l38.72-85.537c5.366-11.935 17.106-18.963 29.319-18.963 4.443 0 8.929 0.921 13.179 2.893 16.248 7.307 23.46 26.334 16.098 42.468l-38.57 85.344c3.134 0.3 6.074 0.921 9.294 0.921 54.99 0 99.72-44.633 99.72-99.55-0.129-54.832-44.859-99.486-99.763-99.486v0z" />
<glyph unicode="&#xe92a;" glyph-name="boxing" d="M424.628 223.157c-0.066-0.063-0.147-0.138-0.229-0.21l9.048-51.216 51.517-8.976c0.077 0.063 0.141 0.138 0.218 0.225l-9.835 50.401-50.719 9.776zM880.866 616.471c-199.952 198.74-314.714 96.623-333.234 27.299-8.853-33.13-8.005-46.9-8.005-46.9-30.056 14.71-106.771 35.386-172.649-204.919l-141.689-173.392c31.755-54.477 68.178-102.113 110.352-144.043 42.178-41.91 90.116-78.124 144.906-109.688l174.435 140.834c56.605 26.145 148.622 36.498 207.451 94.989 120.607 119.894 199.418 235.926 18.433 415.82v0zM598.248 189.804c-11.892-11.814-31.161-11.814-43.048 0-2.812 2.791-4.944 6.011-6.418 9.442l-37.188 7.164 7.2-36.961c3.447-1.49 6.688-3.604 9.499-6.397 11.892-11.814 11.892-30.97 0-42.79-11.889-11.818-31.157-11.818-43.046 0-2.681 2.665-4.717 5.713-6.19 8.961l-39.309 6.843 6.895-39.068c3.263-1.455 6.332-3.477 9.011-6.152 11.887-11.814 11.887-30.972-0.002-42.79s-31.159-11.814-43.046 0c-11.889 11.818-11.889 30.976 0 42.79 0.099 0.109 0.213 0.183 0.314 0.288l-9.044 51.205-51.521 8.998c-0.094-0.107-0.182-0.214-0.281-0.319-11.892-11.818-31.159-11.818-43.051 0.004-11.887 11.814-11.889 30.972 0 42.786 11.892 11.818 31.159 11.818 43.051 0 2.681-2.656 4.722-5.709 6.187-8.95l39.32-6.862-6.908 39.075c-3.259 1.457-6.324 3.497-9.004 6.155-11.885 11.816-11.892 30.972 0 42.79 11.889 11.816 31.159 11.816 43.046 0 2.819-2.798 4.944-6.004 6.425-9.448l37.191-7.153-7.211 36.956c-3.447 1.483-6.682 3.595-9.501 6.397-11.885 11.82-11.883 30.974 0 42.79 11.887 11.82 31.159 11.816 43.046 0 11.865-11.796 11.885-30.891 0.075-42.716l9.828-50.404 50.715-9.778c11.896 11.75 31.109 11.707 42.967-0.066 11.885-11.816 11.887-30.97 0-42.79v0zM287.168 342.824l-12.896 16.516-49.689-14.054c-0.029-0.109-0.073-0.197-0.101-0.306l30.909-41.041 31.777 38.885zM173.195 286.51c3.603-1.173 6.805-2.97 9.598-5.213l38.179 11.547-23.917 31.756c-3.568-0.157-7.227 0.264-10.83 1.446-15.976 5.205-24.684 22.288-19.45 38.173 5.236 15.885 22.427 24.542 38.406 19.333 3.777-1.23 7.145-3.154 10.022-5.539l36.428 10.315-23.227 29.732c-3.742-0.236-7.596 0.19-11.375 1.426-15.976 5.202-24.682 22.29-19.448 38.175 5.236 15.88 22.427 24.529 38.403 19.333 15.93-5.181 24.633-22.21 19.472-38.062l31.684-40.571 49.68 14.072c1.551 4.637 4.14 8.627 7.403 11.864 28.011 91.361 57.533 141.23 57.533 141.23s-30.469 80.924-123.283 44.889c109.898 51.756 30.069 134.547 30.069 134.547s94.506-71.517 185.81-110.533c4.502 0.668 9.053 1.040 13.658 1.040 1.96 0 3.911-0.061 5.862-0.188 1.090 4.949 2.408 10.387 3.999 16.348 12.731 47.641 56.254 98.47 124.162 109.329-22.577 50.351-76.528 103.4-189.212 140.096-243.224 79.211-311.759-43.111-364.875-204.209-25.901-78.606 6.368-164.881 8.49-226.888l-47.59-218.305c53.085-34.329 107.226-60.47 163.908-78.93 1.914-0.631 3.836-1.217 5.757-1.824-6.792 10.486-13.41 21.249-19.865 32.324l-10.641 18.254 28.019 34.292-23.271-7.033c-0.046-0.127-0.064-0.266-0.11-0.397-5.236-15.885-22.427-24.536-38.408-19.329-15.974 5.202-24.682 22.286-19.446 38.169 5.232 15.887 22.429 24.544 38.406 19.331v0z" />
<glyph unicode="&#xe92b;" glyph-name="check" d="M512-32c-263.45 0-477.019 214.903-477.019 480s213.569 480 477.019 480c263.45 0 477.019-214.903 477.019-480s-213.569-480-477.019-480zM739.553 658.124c-23.359 29.392-49.564 15.407-65.911 0-37.502-36.591-229.309-251.567-244.695-280.454-34.619 33.703-58.797 50.125-97.262 79.973-11.885 9.028-78.839 17.848-63.685-33.299 20.402-68.863 124.897-184.923 159.025-184.37 59.476 0.963 271.179 285.023 312.53 337.983 25.964 32.739 23.359 50.775 0 80.167z" />
<glyph unicode="&#xe92c;" glyph-name="coins" d="M138.553 427.822c-6.514 0-11.8 4.885-11.8 11.375v0.802c0 41.229 6.348 81.845 18.88 120.714 2.006 6.207 8.661 9.558 14.844 7.623 6.207-2.006 9.605-8.661 7.623-14.844-11.776-36.533-17.747-74.718-17.747-113.492 0-6.49-5.263-12.178-11.8-12.178v0zM634.554 88.454c-36.769-11.942-75.166-18.054-114.13-18.101-6.514 0-11.8-5.334-11.8-11.8s5.286-11.8 11.8-11.8v0c41.442 0.047 82.34 6.514 121.446 19.234 6.207 1.982 9.558 8.661 7.528 14.868-2.006 6.183-8.685 9.605-14.844 7.599v0zM168.549 325.115c-2.006 6.207-8.59 9.582-14.868 7.552-6.183-2.006-9.582-8.685-7.552-14.868 12.791-39.176 31.648-76.016 56.074-109.48 2.313-3.186 5.9-4.838 9.534-4.838 2.407 0 4.862 0.708 6.938 2.289 5.263 3.847 6.419 11.234 2.572 16.473-22.916 31.435-40.663 66.056-52.699 102.872v0zM633.138 792.018c36.887-11.847 71.579-29.406 103.132-52.203 2.1-1.51 4.508-2.242 6.891-2.242 3.658 0 7.269 1.699 9.558 4.885 3.823 5.286 2.62 12.673-2.62 16.473-33.559 24.261-70.47 42.952-109.74 55.554-6.207 1.959-12.815-1.44-14.844-7.623-1.982-6.207 1.416-12.862 7.623-14.844v0zM210.84 651.692c3.658 0 7.269 1.699 9.558 4.885 22.774 31.459 50.197 59.024 81.562 81.963 5.263 3.847 6.396 11.234 2.549 16.496-3.823 5.263-11.21 6.396-16.496 2.549-33.347-24.379-62.516-53.714-86.73-87.155-3.823-5.286-2.643-12.65 2.643-16.473 2.1-1.558 4.531-2.266 6.915-2.266v0zM401.103 790.743c1.204 0 2.454 0.189 3.682 0.59 36.722 12.036 75.119 18.196 114.106 18.29 6.49 0.024 11.8 5.31 11.776 11.824-0.024 6.49-5.334 11.776-11.8 11.776h-0.024c-41.465-0.118-82.317-6.679-121.398-19.47-6.183-2.030-9.558-8.685-7.528-14.892 1.605-4.956 6.207-8.118 11.186-8.118v0zM406.154 88.218c-36.863 11.942-71.532 29.547-103.038 52.416-5.263 3.87-12.673 2.643-16.473-2.572-3.823-5.334-2.643-12.697 2.62-16.52 33.512-24.284 70.399-43.046 109.622-55.72 1.204-0.425 2.431-0.543 3.634-0.543 4.98 0 9.605 3.186 11.234 8.166 2.006 6.112-1.392 12.768-7.599 14.774v0zM819.154 222.833c-22.845-31.388-50.339-58.906-81.727-81.774-5.263-3.847-6.396-11.234-2.572-16.496 2.336-3.162 5.9-4.862 9.534-4.862 2.407 0 4.838 0.732 6.938 2.266 33.394 24.332 62.611 53.596 86.919 87.037 3.87 5.31 2.667 12.65-2.549 16.473-5.357 3.823-12.72 2.62-16.544-2.643v0zM901.447 452.555c-6.514 0-11.8-6.018-11.8-12.555 0-38.987-6.042-77.432-18.007-114.2-1.982-6.207 1.416-12.838 7.599-14.868 1.204-0.425 2.431-0.566 3.587-0.566 4.98 0 9.605 3.162 11.257 8.189 12.72 39.082 19.163 80.004 19.163 121.446v1.51c0 6.514-5.286 11.045-11.8 11.045v0zM871.215 555.569c1.628-4.956 6.254-8.118 11.234-8.118 1.251 0 2.454 0.189 3.682 0.59 6.183 2.030 9.534 8.708 7.505 14.892-12.886 39.176-31.86 75.968-56.333 109.339-3.87 5.263-11.281 6.396-16.473 2.525-5.239-3.87-6.396-11.234-2.502-16.496 22.986-31.341 40.781-65.915 52.888-102.731v0zM992 440c0-260.237-211.763-472-472-472-260.261 0-472 211.763-472 472 0 260.261 211.739 472 472 472 260.237 0 472-211.739 472-472v0zM944.8 440c0 234.23-190.57 424.8-424.8 424.8s-424.8-190.57-424.8-424.8c0-234.23 190.57-424.8 424.8-424.8s424.8 190.57 424.8 424.8v0zM860.69 440c0-188.163-152.527-340.69-340.69-340.69-188.139 0-340.666 152.527-340.666 340.69 0 188.139 152.527 340.666 340.666 340.666 188.163 0 340.69-152.527 340.69-340.666zM520 356.706c46.002 0 83.294 37.292 83.294 83.294s-37.292 83.294-83.294 83.294c-46.002 0-83.294-37.292-83.294-83.294s37.292-83.294 83.294-83.294z" />
<glyph unicode="&#xe92d;" glyph-name="distance-shoe" d="M138.862 254.692c5.85 0 12.072 0.083 18.67 0.171 7.506 0.102 15.27 0.206 23.6 0.206 13.358 0 24.542-0.297 35.216-0.936 55.159-3.166 478.814-16.16 564.636-16.16 43.567 0 91.724 11.657 128.823 31.184 42.686 22.467 66.193 52.695 66.193 85.115 0 47.022-53.647 62.207-110.445 78.287-30.968 8.765-62.99 17.83-90.049 32.335-12.188 6.548-30.771 16.037-53.417 27.379 0.037 0.655 0.1 1.306 0.1 1.97 0 19.36-15.749 35.109-35.109 35.109-8.69 0-16.636-3.19-22.772-8.44-8.202 4.033-16.611 8.159-25.165 12.349-0.765 18.687-16.164 33.664-35.035 33.664-7.622 0-14.664-2.468-20.424-6.611-7.671 3.73-15.354 7.461-23.014 11.179 0.163 1.367 0.271 2.751 0.271 4.161 0 19.358-15.749 35.107-35.107 35.107-9.716 0-18.518-3.97-24.88-10.367-74.834 36.136-136.186 65.487-141.684 68.115-3.349 2.285-7.083 3.492-10.831 3.492-6.043 0-11.852-2.938-15.545-7.87l-41.337-55.433c-5.538-7.502-7.714-15.063-6.466-22.479 2.47-14.695 17.629-25.104 29.808-33.467 4.849-3.331 12.060-8.281 13.217-10.684-0.016-0.016-0.035-0.035-0.051-0.051-6.737-6.586-28.36-16.389-60.325-16.389-18.477 0-37.947 3.53-56.306 10.214-22.465 8.179-31.747 30.622-39.204 48.656-6.236 15.083-11.624 28.107-23.594 28.107-9.081 0-19.588-8.147-35.186-27.306-53.018-67.389-50.54-170.355-48.729-245.537 0.193-8.051 0.38-15.789 0.488-23.132 0.842-57.494 31.058-61.936 73.654-61.936v0zM583.225 463.592c0 0 6.8 6.731 15.205 4.214 7.315-2.189 24.612-6.849 35.194-9.478 9.048-2.248 0.879-9.362 0.879-9.362l-137.381-125.746c-0.11-0.079-5.697-5.176-14.176-5.176-13.687 0-40.222 0.104-51.034 0.104-8.987 0-1.53 7.583-1.53 7.583s152.824 137.861 152.842 137.861v0zM478.621 493.272c0.037 0.033 10.603 10.454 23.326 6.428 6.45-2.041 21.588-5.799 31.243-8.501 8.257-2.309-0.499-10.827-0.503-10.835l-170.058-154.179c-0.118-0.087-4.051-7.195-17.305-7.195-14.957 0-43.498-0.684-55.175-0.684-6.601 0-0.732 7.099-0.739 7.095l189.21 167.87z" />
<glyph unicode="&#xe92e;" glyph-name="distance" d="M111.128 559.101c90.189-53.268 210.073-86.391 342.28-87.909 5.563 25.605 8.397 51.18 8.883 76.347-128.418 0.058-246.422 29.181-339.491 77.822-5.457-20.802-9.368-42.962-11.672-66.26v0zM312.106 815.938c-45.777 2.628-92.872-23.298-130.267-69.881 74.425-30.758 161.765-49.502 255.987-52.392-27.133 70.129-73.546 119.251-125.72 122.273v0zM166.545 725.037c-14.264-21.736-26.632-46.684-36.152-74.742 89.871-47.954 205.571-76.961 331.928-77.034-1.425 33.283-6.897 65.136-15.537 94.318-103.392 1.985-199.099 22.831-280.239 57.458v0zM112.552 455.894c81.716-47.881 187.503-79.311 304.734-85.836 3.047 6.788 5.987 13.459 9.459 20.817 8.397 17.941 14.733 36.32 20.069 54.757-128.584 2.467-246.104 33.794-337.415 84.683-0.849-23.824 0.136-48.64 3.153-74.42v0zM900.657 820.909c-81.155-34.612-176.847-55.472-280.239-57.487-8.625-29.196-14.173-61.078-15.552-94.318 126.417 0.058 242.117 29.079 331.928 77.019-9.504 28.101-21.888 53.049-36.136 74.785v0zM944.372 721.219c-93.054-48.611-211.089-77.763-339.507-77.822 0.515-25.182 3.365-50.757 8.898-76.347 132.253 1.504 252.121 34.656 342.265 87.909-2.259 23.313-6.169 45.473-11.656 66.26v0zM755.080 911.81c-52.234-2.993-98.602-52.115-125.72-122.273 94.237 2.89 181.576 21.634 255.987 52.392-37.395 46.597-84.445 72.508-130.267 69.881v0zM620.387 541.503c5.336-18.452 11.656-36.816 20.054-54.757 3.486-7.357 6.427-13.999 9.474-20.788 117.201 6.511 223.018 37.969 304.719 85.821 2.971 25.78 4.017 50.597 3.153 74.45-91.326-50.932-208.815-82.26-337.4-84.727v0zM406.57 344.847c-109.288 7.328-209.118 35.721-289.622 78.873 15.795-92.157 40.441-168.884 33.575-266.15-7.048-99.865 34.696-194.095 141.939-193.89 90.402 0.131 163.144 88.975 117.625 202.488-30.892 77.004-27.496 119.178-3.517 178.679v0zM238.090 61.369c-16.067 0-29.118 12.54-29.118 28.043s13.066 28.028 29.118 28.028c16.113 0 29.149-12.54 29.149-28.028 0.030-15.518-13.036-28.043-29.149-28.043v0zM296.372 117.44c-16.098 0-29.118 12.583-29.118 28.116 0 15.459 13.036 28.028 29.118 28.028 16.113 0 29.149-12.569 29.149-28.028 0-15.532-13.036-28.116-29.149-28.116v0zM354.654 61.369c-16.098 0-29.133 12.54-29.133 28.043s13.066 28.028 29.133 28.028c16.083 0 29.149-12.54 29.149-28.028 0-15.518-13.066-28.043-29.149-28.043v0zM660.632 440.719c23.919-59.501 27.315-101.66-3.562-178.679-45.489-113.514 27.254-202.357 117.64-202.488 107.257-0.204 148.987 94.026 141.923 193.89-6.806 97.266 17.78 173.979 33.575 266.15-80.428-43.137-180.273-71.545-289.576-78.873v0zM712.532 157.241c-16.083 0-29.149 12.554-29.149 28.043 0 15.518 13.066 28.043 29.149 28.043 16.113 0 29.149-12.554 29.149-28.043 0-15.518-13.081-28.043-29.149-28.043v0zM770.829 213.326c-16.098 0-29.149 12.583-29.149 28.101 0 15.459 13.036 28.043 29.149 28.043 16.083 0 29.118-12.583 29.118-28.043-0.045-15.518-13.081-28.101-29.118-28.101v0zM829.081 157.241c-16.098 0-29.149 12.554-29.149 28.043 0 15.518 13.066 28.043 29.149 28.043s29.149-12.554 29.149-28.043c-0.030-15.518-13.066-28.043-29.149-28.043v0z" />
<glyph unicode="&#xe92f;" glyph-name="filters" d="M50.525 779.938v-73.676h508.235v73.676h-508.235zM746.995 779.938v-73.676h225.882v73.676h-225.882zM50.525 483.92v-73.676h150.588v73.676h-150.588zM728.172 187.902v-73.676h245.303v73.676h-245.303zM389.348 483.92v-73.676h584.127v73.676h-584.127zM643.85 597.175c-73.85 0-133.718 59.737-133.718 133.427s59.867 133.427 133.718 133.427c73.85 0 133.718-59.737 133.718-133.427s-59.867-133.427-133.718-133.427zM643.85 648.353c45.524 0 82.428 36.824 82.428 82.248s-36.904 82.248-82.428 82.248c-45.524 0-82.428-36.824-82.428-82.248s36.904-82.248 82.428-82.248zM636.306 30.886c-73.85 0-133.718 59.737-133.718 133.427s59.867 133.427 133.718 133.427c73.85 0 133.718-59.737 133.718-133.427s-59.867-133.427-133.718-133.427zM636.306 82.064c45.524 0 82.428 36.824 82.428 82.248s-36.904 82.248-82.428 82.248c-45.524 0-82.428-36.824-82.428-82.248s36.904-82.248 82.428-82.248zM297.482 312.625c-73.85 0-133.718 59.737-133.718 133.427s59.867 133.427 133.718 133.427c73.85 0 133.718-59.737 133.718-133.427s-59.867-133.427-133.718-133.427zM297.482 363.803c45.524 0 82.428 36.824 82.428 82.248s-36.904 82.248-82.428 82.248c-45.524 0-82.428-36.824-82.428-82.248s36.904-82.248 82.428-82.248zM50.525 779.938v-73.676h508.235v73.676h-508.235zM746.995 779.938v-73.676h225.882v73.676h-225.882zM50.525 483.92v-73.676h150.588v73.676h-150.588zM50.525 187.902v-73.676h489.412v73.676h-489.412zM389.348 483.92v-73.676h584.127v73.676h-584.127z" />
<glyph unicode="&#xe930;" glyph-name="fitness" d="M609.007 667.898c0-55.056-45.196-99.689-100.949-99.689s-100.949 44.632-100.949 99.689c0 55.056 45.196 99.689 100.949 99.689s100.949-44.632 100.949-99.689zM938.698 871.173c-8.043 0-15.199-3.674-19.889-9.406v16.807c0 13.93-11.426 25.224-25.537 25.224-10.324 0-19.2-6.047-23.226-14.745v11.954c0 13.927-11.434 25.22-25.537 25.22-14.113 0-25.551-11.293-25.551-25.22v-78.725h-94.187c-6.086 13.589-20.383 22.444-36.174 20.858-13.161-1.364-23.74-9.705-28.737-20.858h-303.6c-4.995 11.153-15.58 19.494-28.739 20.858-15.791 1.588-30.085-7.267-36.172-20.858h-94.189v78.727c0 13.927-11.438 25.22-25.549 25.22-14.101 0-25.533-11.293-25.533-25.22v-11.954c-4.036 8.698-12.914 14.745-23.23 14.745-14.105 0-25.541-11.292-25.541-25.224v-16.809c-4.686 5.734-11.846 9.406-19.885 9.406-14.105 0-25.549-11.292-25.549-25.224v-97.771c0-13.927 11.442-25.22 25.549-25.22 8.039 0 15.199 3.672 19.885 9.408v-16.813c0-13.927 11.434-25.22 25.541-25.22 10.318 0 19.196 6.047 23.23 14.745v-11.952c0-13.927 11.43-25.22 25.533-25.22 14.109 0 25.549 11.292 25.549 25.22v78.717h88.051c-3.481-63.096-2.745-174.377 40.049-220.701 32.321-34.983 67.483-55.091 90.93-65.737v-178.517c-51.407-14.071-91.083-42.012-125.107-86.801-45.896-60.439-47.289-179.278-47.104-202.49 0.205-25.779 21.435-46.538 47.488-46.538h0.388c26.242 0.206 47.335 21.374 47.133 47.286-0.353 43.271 8.336 119.422 28.101 145.443 28.191 37.1 61.685 60.147 140.968 60.377 79.299-0.228 112.781-23.277 140.972-60.377 19.761-26.021 28.45-102.173 28.097-145.443-0.203-25.908 20.889-47.075 47.133-47.286h0.388c26.059 0 47.289 20.759 47.488 46.538 0.189 23.212-1.207 142.051-47.1 202.49-34.022 44.789-73.704 72.732-125.109 86.801v178.517c23.443 10.647 58.609 30.756 90.926 65.737 42.798 46.324 43.533 157.605 40.053 220.701h88.049v-78.725c0-13.927 11.434-25.22 25.551-25.22 14.099 0 25.537 11.292 25.537 25.22v11.952c4.028-8.696 12.906-14.745 23.226-14.745 14.107 0 25.537 11.293 25.537 25.22v16.811c4.69-5.736 11.844-9.408 19.889-9.408 14.107 0 25.545 11.293 25.545 25.22v97.781c0.006 13.932-11.428 25.224-25.539 25.224v0zM638.218 598.565c-22.328-24.169-59.5-45.808-63.187-46.968s-25.529 5.448-66.973 5.448c-41.451 0-60.374-5.94-66.973-5.448s-40.854 22.799-63.187 46.968c-19.477 21.082-25.591 100.325-21.325 173.279h302.97c4.271-72.954-1.847-152.197-21.325-173.279v0z" />
<glyph unicode="&#xe931;" glyph-name="challenges" d="M670.673 649.269l43.382 61.283c7.89 11.129 5.251 26.513-5.87 34.393l-65.437 46.338c-11.118 7.859-26.503 5.228-34.393-5.88l-44.458-62.806c-32.83 15.374-68.068 26.401-105.018 32.261v25.538c0 16.349 13.393 29.734 29.734 29.734h16.419c16.338 0 29.724 13.372 29.724 29.711v90.427c0 16.341-13.383 29.734-29.724 29.734h-217.331c-16.37 0-29.724-13.393-29.724-29.734v-90.427c0-16.338 13.354-29.711 29.724-29.711h16.398c16.359 0 29.734-13.385 29.734-29.734v-25.528c-39.584-6.307-77.236-18.491-112.016-35.622l-44.060 62.195c-7.879 11.131-23.264 13.741-34.385 5.88l-65.437-46.335c-11.118-7.879-13.749-23.274-5.867-34.403l44.417-62.746c-71.925-71.772-116.485-170.975-116.485-280.389 0-218.537 177.807-396.356 396.367-396.356 218.547 0 396.354 177.817 396.354 396.356 0 112.209-46.873 213.652-122.048 285.822v0 0zM396.367 62.209c-166.111 0-301.238 135.147-301.238 301.238 0 166.098 135.127 301.235 301.238 301.235 166.098 0 301.227-135.137 301.227-301.235 0-166.090-135.129-301.238-301.227-301.238v0 0zM524.438 364.725h-134.006v161.133c0 13.549-10.973 24.543-24.55 24.543-13.544 0-24.548-10.994-24.548-24.543v-185.683c0-13.58 11.004-24.543 24.548-24.543h158.557c13.578 0 24.574 10.965 24.574 24.543 0 13.549-10.996 24.55-24.574 24.55v0 0z" />
<glyph unicode="&#xe933;" glyph-name="rewards" d="M895.706 678.321l-184.074 0.079c27.948 25.781 41.742 55.528 41.742 84.644 0 65.447-50.125 118.449-115.569 118.449-47.053 0-98.796-63-129.164-110.787-30.481 47.787-82.224 110.787-129.277 110.787-65.444 0-115.565-53.002-115.565-118.449 0-29.116 13.793-58.863 41.738-84.644l-0.201-0.079h-177.698c0 0-22.33 3.663-25.194-20.869v-196.164c0 0 0.959-22.941 20.19-22.941h53.637v-373.197c0 0 1.205-32.901 31.966-32.901h613.461c0 0 19.2 2.116 19.2 21.367v384.734h60.573c0 0 13.254 4.461 13.254 18.524v201.537c0 0-0.761 19.91-19.019 19.91zM550.82 700.945c17.128 41.376 64.539 100.41 85.453 106.732 23.528-0.72 42.551-19.753 43.271-43.175-5.591-18.48-78.964-86.098-134.045-86.098-0.089 10.103 3.697 18.295 5.321 22.542zM380.887 807.677c20.934-6.321 68.328-65.352 85.477-106.639 1.703-4.338 5.4-12.53 5.308-22.637-54.088 0-128.355 67.427-133.967 86.098 0.748 23.426 19.664 42.458 43.182 43.179zM471.675 106.080h-221.587v332.271h221.583v-332.271zM471.675 512.266h-295.4v92.218h295.4v-92.218zM767.3 106.329h-221.573v332.271h221.573v-332.271zM840.899 512.266h-295.4v92.218h295.4v-92.218z" />
<glyph unicode="&#xe934;" glyph-name="leaderboard" d="M77.295 380.74h253.058v-339.838h-253.058v339.838zM680.018 468.047h253.037v-427.182h-253.037v427.182zM378.542 594.831h253.242v-553.929h-253.242v553.929zM808.602 725.586l35.686-72.625 80.333-11.66-57.921-56.709 13.629-79.957-71.731 37.816-71.912-37.816 13.807 79.957-58.102 56.706 80.166 11.66 36.045 72.629zM506.634 851.654l35.84-72.81 80.343-11.677-58.102-56.644 13.626-79.824-71.707 37.683-71.759-37.683 13.629 79.824-58.122 56.644 80.34 11.677 35.912 72.81zM199.417 640.737l35.84-72.625 80.343-11.834-58.081-56.47 13.827-79.978-71.929 37.837-71.711-37.837 13.629 79.978-57.945 56.47 80.159 11.834 35.867 72.625z" />
<glyph unicode="&#xe935;" glyph-name="help" d="M512 960c-282.77 0-512-229.23-512-512s229.23-512 512-512 512 229.23 512 512-229.23 512-512 512zM320 448c0 106.040 85.96 192 192 192s192-85.96 192-192-85.96-192-192-192-192 85.96-192 192zM925.98 276.524v0l-177.42 73.49c12.518 30.184 19.44 63.276 19.44 97.986s-6.922 67.802-19.44 97.986l177.42 73.49c21.908-52.822 34.020-110.73 34.020-171.476s-12.114-118.654-34.020-171.476v0zM683.478 861.98v0 0l-73.49-177.42c-30.184 12.518-63.276 19.44-97.988 19.44s-67.802-6.922-97.986-19.44l-73.49 177.422c52.822 21.904 110.732 34.018 171.476 34.018 60.746 0 118.654-12.114 171.478-34.020zM98.020 619.476l177.422-73.49c-12.518-30.184-19.442-63.276-19.442-97.986s6.922-67.802 19.44-97.986l-177.42-73.49c-21.906 52.822-34.020 110.73-34.020 171.476s12.114 118.654 34.020 171.476zM340.524 34.020l73.49 177.42c30.184-12.518 63.276-19.44 97.986-19.44s67.802 6.922 97.986 19.44l73.49-177.42c-52.822-21.904-110.73-34.020-171.476-34.020-60.744 0-118.654 12.114-171.476 34.020z" />
<glyph unicode="&#xe936;" glyph-name="settings" d="M933.79 349.75c-53.726 93.054-21.416 212.304 72.152 266.488l-100.626 174.292c-28.75-16.854-62.176-26.518-97.846-26.518-107.536 0-194.708 87.746-194.708 195.99h-201.258c0.266-33.41-8.074-67.282-25.958-98.252-53.724-93.056-173.156-124.702-266.862-70.758l-100.624-174.292c28.97-16.472 54.050-40.588 71.886-71.478 53.638-92.908 21.512-211.92-71.708-266.224l100.626-174.292c28.65 16.696 61.916 26.254 97.4 26.254 107.196 0 194.144-87.192 194.7-194.958h201.254c-0.086 33.074 8.272 66.57 25.966 97.218 53.636 92.906 172.776 124.594 266.414 71.012l100.626 174.29c-28.78 16.466-53.692 40.498-71.434 71.228zM512 240.668c-114.508 0-207.336 92.824-207.336 207.334 0 114.508 92.826 207.334 207.336 207.334 114.508 0 207.332-92.826 207.332-207.334-0.002-114.51-92.824-207.334-207.332-207.334z" />
<glyph unicode="&#xe937;" glyph-name="home" d="M93.768 376.873h72.933v-291.724c0-17.19 14.066-31.259 31.263-31.259h213.579c17.183 0 31.249 14.070 31.249 31.259v213.586h130.236v-213.583c0-17.19 14.056-31.259 31.249-31.259h203.168c17.19 0 31.249 14.070 31.249 31.259v291.724h88.559c12.506 0 23.965 7.806 28.648 19.272 4.697 11.455 2.082 24.999-6.765 33.853l-407.368 413.102c-11.988 11.977-31.775 12.496-43.752 0.512l-425.605-413.095c-9.373-8.851-11.984-22.398-7.291-34.372 4.687-11.984 16.145-19.275 28.648-19.275v0zM518.847 776.943l333.397-337.562h-44.797c-17.193 0-31.263-14.063-31.263-31.259v-291.721h-140.646v213.583c0 17.193-14.066 31.256-31.259 31.256h-192.734c-17.193 0-31.259-14.063-31.259-31.256v-213.583h-151.074v291.721c0 17.196-14.066 31.259-31.249 31.259h-27.095l347.979 337.562z" />
<glyph unicode="&#xe938;" glyph-name="used-app" horiz-adv-x="1058" d="M61.167 227.789c122.761-126.43 379.682-76.049 573.85 112.418 194.116 188.467 252.006 443.75 129.195 570.214-20.224 20.873-44.425 36.454-71.168 47.906 10.189-2.099 20.514-3.277 30.532-6.042 73.694-20.156 128.256-71.236 183.381-128 55.125-56.781 104.602-112.828 122.522-187.102 42.325-174.78-16.742-379.682-169.83-528.35-153.156-148.719-359.748-201.711-533.248-154.266-73.677 20.19-128.222 71.219-183.347 128.051-55.040 56.695-104.499 112.572-122.487 186.812-2.458 10.172-3.413 20.685-5.239 31.078 10.633-27.085 25.532-51.78 45.841-72.721v0zM859.238 455.765l48.862-48.862c16.333-16.265 40.567-13.175 54.204 6.997 13.67 20.105 11.469 49.63-4.779 65.894l-48.879 48.845c-16.282 16.265-40.567 13.107-54.238-6.997-13.619-20.156-11.435-49.613 4.83-65.877v0zM774.673 400.213c2.219-2.219 5.12-3.413 8.175-3.413 3.243 0 6.144 1.195 8.363 3.413s3.413 5.291 3.413 8.363c0 3.072-1.195 6.127-3.413 8.175-4.096 4.267-12.117 4.454-16.555 0-2.219-2.219-3.413-5.12-3.413-8.175 0-3.072 1.212-6.144 3.43-8.363v0zM751.292 362.325c2.048-1.536 4.437-2.219 6.827-2.219 3.584 0 7.168 1.707 9.557 4.762h-0.171c3.908 5.308 2.731 12.629-2.56 16.384-5.12 3.925-12.442 2.731-16.213-2.543-3.925-5.103-2.748-12.459 2.56-16.384v0zM723.302 328.021c2.031-1.86 4.762-2.714 7.492-2.714 3.243 0 6.656 1.365 8.892 4.079 4.267 4.949 3.584 12.305-1.365 16.572-4.949 4.079-12.305 3.584-16.572-1.365-4.079-4.966-3.396-12.476 1.553-16.572v0zM692.924 295.595c2.389-2.219 5.291-3.243 8.175-3.243 3.089 0 6.144 1.195 8.533 3.584 4.454 4.625 4.267 11.947-0.341 16.572-4.779 4.437-12.117 4.267-16.555-0.358-4.437-4.591-4.437-12.117 0.188-16.555v0zM660.651 265.216c2.236-2.543 5.461-3.755 8.721-3.755 2.731 0 5.632 1.024 7.851 2.901 4.762 4.437 5.12 11.776 0.853 16.555-4.437 4.779-11.776 5.308-16.555 0.853-4.796-4.267-5.137-11.776-0.87-16.555v0zM626.347 237.227c2.219-3.089 5.632-4.437 9.216-4.437 2.56 0 5.12 0.683 7.168 2.389 5.12 4.096 5.99 11.435 1.877 16.555-3.925 5.12-11.264 5.99-16.384 1.877-5.103-3.925-5.973-11.435-1.877-16.384v0zM590.165 211.473c2.219-3.243 5.99-5.137 9.728-5.137 2.219 0 4.437 0.683 6.485 2.048 5.461 3.772 6.827 11.093 3.072 16.384-3.584 5.308-10.923 6.673-16.196 3.089-5.308-3.772-6.673-10.94-3.089-16.384v0zM553.984 186.027c2.236-2.219 5.137-3.413 8.363-3.413 3.089 0 6.144 1.195 8.363 3.413 2.048 2.219 3.413 5.12 3.413 8.363 0 2.901-1.365 5.973-3.413 8.175-4.608 4.437-12.117 4.437-16.555 0-2.406-2.219-3.584-5.291-3.584-8.175 0.017-3.243 1.195-6.144 3.413-8.363v0zM180.343 210.739c-38.622 5.751-70.758 19.934-92.826 42.718-88.405 90.965-86.46 286.891 27.529 454.434l173.961-173.961c-70.81-99.43-107.52-213.248-108.663-323.191v0zM777.796 790.818c-143.462 2.697-295.322-54.579-414.72-170.547-19.319-18.756-36.983-38.502-53.265-58.88l-174.524 174.524c16.555 21.385 34.679 42.274 55.142 62.14 186.095 180.702 442.522 194.816 547.43 86.767 22.067-22.699 35.311-55.279 39.936-94.003v0zM873.95 514.048c5.086 5.086 13.124 7.834 20.531 0.444l48.862-48.845c9.506-9.489 10.615-28.416 2.389-40.533-0.939-1.365-1.946-2.611-3.038-3.703-5.018-5.035-13.039-7.748-20.446-0.358l-48.862 48.879c-9.472 9.472-10.581 28.399-2.441 40.482 0.939 1.348 1.929 2.56 3.004 3.635v0z" />
<glyph unicode="&#xe939;" glyph-name="user" horiz-adv-x="853" d="M422.665 455.010c118.565 0 210.781 122.3 210.781 248.902v39.662c0 126.597-92.216 216.426-210.781 216.426-118.569 0-210.785-89.824-210.785-216.426v-39.662c0-126.602 92.216-248.902 210.785-248.902v0 0zM759.345 245.889c-0.066 0.657-0.264 1.282-0.331 1.935-0.992 7.919-2.513 15.666-4.624 23.251 0 0.070 0 0.131-0.066 0.197-4.426 16.125-11.892 31.659-23.047 46.962v0.066c-18.296 25.186-45.897 50.875-90.742 75.925-23.71 13.242-34.147 19.31-48.802 19.31-23.313 0-43.655-18.028-77.924-49.325h-0.070l-31.172-28.502c-1.124-1.057-34.733-48.277-59.897-48.277s-58.777 47.225-59.901 48.277l-31.172 28.502h-0.066c-34.27 31.297-54.611 49.325-77.924 49.325-14.661 0-27.743-6.068-48.802-19.31-43.48-27.295-72.454-50.705-90.676-75.854l-0.070-0.033c-0.066-0.066-0.066-0.17-0.128-0.225-11.033-15.176-18.428-30.611-22.85-46.637-0.062-0.131-0.138-0.297-0.189-0.456-2.054-7.53-3.576-15.172-4.562-23.021-0.066-0.729-0.264-1.414-0.335-2.137-0.926-8.342-1.449-16.849-1.449-25.679 0-0.982-0.019-184.104 0-184.959 0-59.766 22.652-84.069 84.531-84.069h507.196c62.414 0 84.531 22.993 84.531 84.069 0.019 0.855-0.004 183.977-0.004 184.959-0.004 8.826-0.533 17.332-1.455 25.708v0h-0.001zM0 245.396c2.844-0.798 0 19.963 0 0v0 0 0zM846.179 245.396c0 19.963-2.831-0.798 0 0v0 0 0z" />
<glyph unicode="&#xe93a;" glyph-name="team-shirt" d="M30.151 626.625c5.666-22.205 25.618-37.707 48.546-37.707 4.047 0 8.096 0.497 12.050 1.476l82.992 20.613c9.403 2.257 11.846-5.062 11.846-9.256v-526.245c0-27.475 22.381-49.85 49.871-49.85h553.473c27.504 0 49.898 22.375 49.898 49.85v526.123c0 3.64 1.046 9.74 8.195 9.74 1.112 0 2.379-0.168 3.619-0.484l82.613-20.507c3.939-0.979 8.007-1.478 12.058-1.478 22.933 0 42.887 15.505 48.534 37.707l28.586 112.044c3.297 12.93 1.358 26.338-5.485 37.775-6.824 11.416-17.709 19.482-30.654 22.693l-262.056 65.060c-15.768 4.011-32.029 6.062-48.422 6.062l-64.119 0.105-3.061-12.665c-10.852-45.171-50.846-76.712-97.265-76.712-46.428 0-86.43 31.538-97.27 76.712l-3.059 12.665h-60.152l-2.954-0.122c-16.254 0-32.502-2.051-48.165-6.028l-262.050-65.074c-12.959-3.211-23.832-11.277-30.675-22.693-6.826-11.42-8.78-24.845-5.472-37.775l28.578-112.027zM35.406 759.45c2.282 3.817 5.916 6.514 10.264 7.573l87.915 21.832 16.892-66.481 104.138 26.464-16.749 65.898 70.016 17.389c13.105 3.337 26.573 5.038 40.973 5.038l36.844 0.122c18.436-53.229 68.399-89.376 125.704-89.376 57.314 0 107.271 36.147 125.681 89.376l38.922-0.122c13.441 0 26.982-1.701 40.188-5.066l262.14-65.074c4.329-1.076 7.957-3.773 10.235-7.573 2.295-3.803 2.937-8.279 1.821-12.631l-28.586-112.044c-2.261-8.881-11.652-14.585-20.577-12.319l-82.596 20.507c-3.872 0.962-7.778 1.438-11.593 1.438-23.533 0-41.253-18.394-41.253-42.79v-526.142c0-9.262-7.559-16.791-16.823-16.791h-553.507c-9.273 0-16.812 7.527-16.812 16.791v526.264c0 24.398-17.749 42.792-41.289 42.792-3.8 0-7.717-0.476-11.58-1.438l-82.992-20.613c-9.096-2.253-18.335 3.438-20.613 12.319l-28.578 112.044c-1.107 4.333-0.472 8.809 1.815 12.612zM378.54 359.143h56.524v280.603h-46.068c0-2.447-0.71-6.196-2.131-11.226-2.447-8.378-6.036-15.082-10.816-20.129-6.94-7.354-15.964-12.269-27.022-14.715-6.94-1.548-19.095-2.708-36.476-3.485v-37.539h65.99v-193.51zM614.631 352.167c35.743 0 60.811 12.496 75.189 37.53 14.404 25.034 21.583 60.691 21.583 107.026 0 46.325-7.18 82.047-21.583 107.203-14.345 25.156-39.446 37.737-75.189 37.737-35.732 0-60.783-12.58-75.187-37.737-14.368-25.156-21.562-60.893-21.562-107.203 0-46.336 7.194-81.992 21.562-107.026 14.404-25.036 39.455-37.53 75.187-37.53zM582.122 571.815c5.3 16.263 16.16 24.371 32.509 24.371 16.404 0 27.138-8.125 32.225-24.371 5.097-16.273 7.653-41.289 7.653-75.090 0-32.252-2.556-56.941-7.653-74.035-5.106-17.078-15.821-25.643-32.225-25.643-16.351 0-27.192 8.563-32.509 25.643-5.291 17.094-7.923 41.769-7.923 74.035 0 33.799 2.632 58.817 7.923 75.090zM259.108 149.621l51.153-0.482-0.627-62.598-51.153 0.516 0.627 62.565z" />
</font>
</defs>
</svg>
