<?xml version="1.0" encoding="utf-8"?>
<!-- Generator: Adobe Illustrator 18.0.0, SVG Export Plug-In . SVG Version: 6.00 Build 0)  -->
<!DOCTYPE svg PUBLIC "-//W3C//DTD SVG 1.1//EN" "http://www.w3.org/Graphics/SVG/1.1/DTD/svg11.dtd">
<svg version="1.1" id="Layer_1" xmlns="http://www.w3.org/2000/svg" xmlns:xlink="http://www.w3.org/1999/xlink" x="0px" y="0px"
	 viewBox="0 0 36 22" enable-background="new 0 0 36 22" xml:space="preserve">
<g>
	<path fill="#AE252A" d="M4.9,16.8V12L0.3,5.1h2.8L6,9.8l2.9-4.7h2.8L7.3,12v4.8H4.9z"/>
	<path fill="#AE252A" d="M12.5,16.8V5.1h8.2v2.2h-5.8v2.4h5.6v2.2h-5.6v2.7h5.8v2.2C20.7,16.8,12.5,16.8,12.5,16.8z"/>
	<path fill="#AE252A" d="M21.9,15.1l1.3-1.9c0.8,0.9,2.1,1.6,3.7,1.6c1.3,0,2-0.6,2-1.3c0-2-6.7-0.6-6.7-5c0-2,1.6-3.5,4.5-3.5
		c1.9,0,3.4,0.5,4.5,1.6l-1.4,1.8c-0.9-0.9-2.2-1.3-3.4-1.3c-1.1,0-1.6,0.5-1.6,1.2c0,1.9,6.7,0.6,6.7,4.9c0,2.1-1.5,3.8-4.7,3.8
		C24.6,17,23,16.2,21.9,15.1z"/>
	<path fill="#AE252A" d="M32.9,15.6c0-0.8,0.6-1.4,1.4-1.4s1.4,0.6,1.4,1.4c0,0.8-0.6,1.4-1.4,1.4S32.9,16.3,32.9,15.6z M33.3,13
		l-0.3-7.9h2.7L35.2,13H33.3z"/>
</g>
</svg>
