<?xml version="1.0" encoding="utf-8"?>
<!-- Generator: Adobe Illustrator 18.1.1, SVG Export Plug-In . SVG Version: 6.00 Build 0)  -->
<svg version="1.1" id="Layer_1" xmlns="http://www.w3.org/2000/svg" xmlns:xlink="http://www.w3.org/1999/xlink" x="0px" y="0px"
	 viewBox="0 0 561.5 561.5" enable-background="new 0 0 561.5 561.5" xml:space="preserve">
<linearGradient id="SVGID_1_" gradientUnits="userSpaceOnUse" x1="117.7409" y1="434.1482" x2="422.2409" y2="129.6482">
	<stop  offset="0" style="stop-color:#653D3B"/>
	<stop  offset="3.717807e-03" style="stop-color:#6C433E"/>
	<stop  offset="2.615326e-02" style="stop-color:#94664D"/>
	<stop  offset="4.933833e-02" style="stop-color:#B4835A"/>
	<stop  offset="7.310779e-02" style="stop-color:#CE9964"/>
	<stop  offset="9.771115e-02" style="stop-color:#E0A96B"/>
	<stop  offset="0.1237" style="stop-color:#EBB26F"/>
	<stop  offset="0.1532" style="stop-color:#EEB570"/>
	<stop  offset="0.2518" style="stop-color:#F9E99C"/>
	<stop  offset="0.335" style="stop-color:#F5E283"/>
	<stop  offset="0.3586" style="stop-color:#F5E289"/>
	<stop  offset="0.3889" style="stop-color:#F5E299"/>
	<stop  offset="0.4231" style="stop-color:#F4E3B3"/>
	<stop  offset="0.4597" style="stop-color:#F4E3D8"/>
	<stop  offset="0.4922" style="stop-color:#F3E4FF"/>
	<stop  offset="0.5126" style="stop-color:#F3E4EE"/>
	<stop  offset="0.5533" style="stop-color:#F2E5C0"/>
	<stop  offset="0.6069" style="stop-color:#F1E67C"/>
	<stop  offset="0.7217" style="stop-color:#FFFCB3"/>
	<stop  offset="0.91" style="stop-color:#E0BD61"/>
	<stop  offset="1" style="stop-color:#CD8F52"/>
</linearGradient>
<path fill="url(#SVGID_1_)" d="M303.2,293.6v14.9c3,0.6,9.3,1.5,15.9,2.8c6.6,1.3,11.8,3,16.2,5c5.7,2.6,9.3,5.7,11.2,9.3
	c1.9,3.6,2.7,8,2.7,13.2v63c-6,5.1-13.3,9.6-23.3,13.5c-10,3.9-21.4,5.8-34.2,5.8c-27.4,0-48.6-12.9-63.6-38.8
	c-15-25.8-22.4-61.6-22.4-107.3c0-43.1,7.6-76.9,22.9-101.4c15.2-24.5,36.9-36.8,64.9-36.8c23.6,0,43.2,8.2,58.6,24.8
	c15.5,16.5,28.7,41.8,39.8,75.8h19.3l-2-112h-19L376.7,137c-5.4-2.7-11.5-6-18.5-8.6V65.6h-61v50.3c-4-0.1-4.6-0.1-6.7-0.1
	c-17.4,0-34.3,1.8-49.3,5.4V70.6h-62v78.3c-3,4-10,8.4-14.7,13.1c-15.2,14.9-26.5,32.6-34.5,53.2c-8,20.6-11.9,43-11.9,67.2
	c0,26,4.3,49,12.9,69.2c8.5,20.1,19.8,37,34.6,50.6c4.5,4.1,10.7,8,13.7,11.5v82h62v-56.2c13,2.6,26.3,3.9,40.1,3.9
	c5.1,0,9.9-0.2,15.9-0.5v52.8h61v-63.4c0-0.2,1.1-0.3,1.8-0.5c28.5-7.7,50-16,64.6-24.7c-0.3-6.6-0.2-12.1-0.4-16.5
	c-0.1-4.4,0-10.3,0-17.6v-36.1c0-4.8,0.6-9.4,2.5-13.8c1.9-4.4,5.7-7.5,11.7-9.4c5.3-1.8,9.4-2.9,12.9-3.5c3.5-0.6,6.8-1.1,11.8-1.5
	v-14.9H303.2z"/>
<linearGradient id="SVGID_2_" gradientUnits="userSpaceOnUse" x1="82.2244" y1="479.2388" x2="479.2388" y2="82.2244">
	<stop  offset="0" style="stop-color:#653D3B"/>
	<stop  offset="3.717807e-03" style="stop-color:#6C433E"/>
	<stop  offset="2.615326e-02" style="stop-color:#94664D"/>
	<stop  offset="4.933833e-02" style="stop-color:#B4835A"/>
	<stop  offset="7.310779e-02" style="stop-color:#CE9964"/>
	<stop  offset="9.771115e-02" style="stop-color:#E0A96B"/>
	<stop  offset="0.1237" style="stop-color:#EBB26F"/>
	<stop  offset="0.1532" style="stop-color:#EEB570"/>
	<stop  offset="0.2518" style="stop-color:#F9E99C"/>
	<stop  offset="0.335" style="stop-color:#F5E283"/>
	<stop  offset="0.3586" style="stop-color:#F5E289"/>
	<stop  offset="0.3889" style="stop-color:#F5E299"/>
	<stop  offset="0.4231" style="stop-color:#F4E3B3"/>
	<stop  offset="0.4597" style="stop-color:#F4E3D8"/>
	<stop  offset="0.4922" style="stop-color:#F3E4FF"/>
	<stop  offset="0.5126" style="stop-color:#F3E4EE"/>
	<stop  offset="0.5533" style="stop-color:#F2E5C0"/>
	<stop  offset="0.6069" style="stop-color:#F1E67C"/>
	<stop  offset="0.7217" style="stop-color:#FFFCB3"/>
	<stop  offset="0.91" style="stop-color:#E0BD61"/>
	<stop  offset="1" style="stop-color:#CD8F52"/>
</linearGradient>
<circle fill="none" stroke="url(#SVGID_2_)" stroke-width="40" stroke-miterlimit="10" cx="280.7" cy="280.7" r="260.7"/>
</svg>
