<?xml version="1.0" encoding="utf-8"?>
<!-- Generator: Adobe Illustrator 18.1.1, SVG Export Plug-In . SVG Version: 6.00 Build 0)  -->
<svg version="1.1" id="Layer_1" xmlns="http://www.w3.org/2000/svg" xmlns:xlink="http://www.w3.org/1999/xlink" x="0px" y="0px"
	 viewBox="0 0 512 512" enable-background="new 0 0 512 512" xml:space="preserve">
<g id="Layer_2" display="none">
	<rect display="inline" fill="#010621" width="512" height="512"/>
</g>
<g>
	<g>
		<path fill="#18E598" d="M288.7,36.9l71.6,63.3L456,74.1l-41,90.6l50.7,81l-95.2-9.1l-61.4,73.2l-20.7-93.2l-88.6-35.8l82.3-48.6
			L288.7,36.9 M281.8,20.2l-1.1,16.2l-6.3,91.1L195.7,174l-13.9,8.2l15,6.1l84.7,34.2l19.8,89.1l3.5,15.8l10.4-12.4l58.7-70l91,8.7
			l16.2,1.5l-8.6-13.8L424.1,164l39.2-86.7l7-15.5l-16.4,4.5l-91.5,25L294,30.9L281.8,20.2L281.8,20.2z"/>
	</g>
	<line fill="none" stroke="#18E598" stroke-width="10" stroke-miterlimit="10" x1="284" y1="220" x2="38.7" y2="456.1"/>
</g>
<polygon fill="#18E598" points="418.4,310.3 427.4,328.8 447.8,331.7 433.1,346 436.5,366.4 418.4,356.8 400.1,366.4 403.6,346 
	388.9,331.7 409.2,328.8 "/>
<polygon fill="#18E598" points="446.9,392.3 453.2,405 467,406.9 457,416.7 459.3,430.6 446.9,424.1 434.5,430.6 436.9,416.7 
	426.8,406.9 440.7,405 "/>
<polygon fill="#18E598" points="338.5,372.7 342.6,381.1 351.8,382.4 345.1,388.9 346.7,398.1 338.5,393.7 330.3,398.1 331.8,388.9 
	325.2,382.4 334.4,381.1 "/>
<polygon fill="#18E598" points="139.9,202.1 146.2,214.7 160,216.7 150,226.5 152.3,240.3 139.9,233.8 127.6,240.3 129.9,226.5 
	119.8,216.7 133.7,214.7 "/>
<polygon fill="#18E598" points="91.5,279.3 95.6,287.6 104.8,288.9 98.2,295.4 99.8,304.6 91.5,300.2 83.3,304.6 84.8,295.4 
	78.2,288.9 87.4,287.6 "/>
</svg>
