<?xml version="1.0" encoding="utf-8"?>
<!-- Generator: Adobe Illustrator 18.1.1, SVG Export Plug-In . SVG Version: 6.00 Build 0)  -->
<svg version="1.1" id="Layer_2" xmlns="http://www.w3.org/2000/svg" xmlns:xlink="http://www.w3.org/1999/xlink" x="0px" y="0px"
	 viewBox="0 0 512 512" enable-background="new 0 0 512 512" xml:space="preserve">
<g>
	<path fill="#18E598" d="M247.9,249.8c12.8,0,21.6,7.2,44.3,7.2s31.5-7.2,44.5-7.2c3.4,0,7,0.5,11.3,1.8
		c20.5,6.1,30.8,27.7,40.5,68.2s7.9,69.8-3.5,75.3c-1.9,0.9-3.7,1.3-5.7,1.3c-10,0-20.6-10.9-31-23.8c-10.8-12.5-15-12.8-56.1-12.8
		c-41.2,0-46.1,0.8-56.1,12.8c-10.3,13-21.1,23.8-31,23.8c-2,0-3.8-0.4-5.7-1.3c-11.4-5.5-13.3-34.7-3.5-75.3
		c9.7-40.5,20-62,40.5-68.2C240.9,250.3,244.5,249.8,247.9,249.8 M336.3,297.9c4.9,0,8.9-4,8.9-8.9c0-4.9-4-8.9-8.9-8.9
		c-4.8,0-8.9,4-8.9,8.9C327.4,293.9,331.5,297.9,336.3,297.9 M233.8,326.5c10,0,18-8.1,18-18.1c0-10-8-18.1-18-18.1s-18,8.1-18,18.1
		C215.8,318.4,223.9,326.5,233.8,326.5 M355.6,317.3c4.9,0,8.9-4,8.9-8.9s-4-8.9-8.9-8.9c-4.8,0-8.9,4-8.9,8.9
		C346.8,313.4,350.8,317.3,355.6,317.3 M317,317.3c4.9,0,8.9-4,8.9-8.9s-4-8.9-8.9-8.9c-4.8,0-8.9,4-8.9,8.9S312,317.3,317,317.3
		 M336.3,336.7c4.9,0,8.9-4,8.9-8.9c0-4.9-4-8.9-8.9-8.9c-4.8,0-8.9,4-8.9,8.9C327.4,332.8,331.5,336.7,336.3,336.7 M247.9,240.7
		L247.9,240.7c-4.5,0-9.1,0.8-14.1,2.2c-25.9,7.7-37.1,34.2-46.8,74.8c-4.9,20.5-7.1,39.1-6.4,53.5c0.9,17.1,5.9,28,14.9,32.3
		c3.1,1.4,6.3,2.2,9.7,2.2c14.4,0,27.3-13.7,38.1-27.1c6.9-8.3,7.9-9.4,49-9.4c40.7,0,41.3,0.5,49.1,9.6c6.4,8,11.7,13.7,16.9,18
		c7.5,6.1,14.4,9.1,21.2,9.1c3.3,0,6.6-0.8,9.7-2.2c9-4.3,14.1-15.1,14.9-32.3c0.8-14.4-1.4-32.8-6.4-53.3
		c-9.8-40.5-21-67.1-46.9-74.9l0,0l0,0c-4.9-1.4-9.4-2.2-13.9-2.2c-6.8,0-12.3,1.5-18.2,3.2c-7.1,2-14.5,4.1-26.2,4.1
		s-19.1-2.1-26.2-4.1C260.2,242.2,254.7,240.7,247.9,240.7L247.9,240.7z M233.8,317.4c-4.8,0-8.9-4.1-8.9-9s4-9,8.9-9s8.9,4.1,8.9,9
		S238.7,317.4,233.8,317.4L233.8,317.4z"/>
</g>
<path fill="none" stroke="#18E598" stroke-width="10" stroke-miterlimit="10" d="M450.8,166.4c0-27.4,2.4-50.9-34-50.9
	s-124.5,0-124.5,0s-27.4,1.3-27.4-27.7c0-32.2-10.2-48.1-31.1-48.1s-145.7,0-181.9,0s-36.2,5.2-36.2,33.7s0,346.9,0,368.1
	s19.9,31.8,36.8,31.8s35.7-4.9,35.7-31.2V205.5c0,0,2-38.4,39.3-38.4s299.6,0,327.3,0s40.6,18.7,40.6,37.3s0,210,0,230.5
	c0,20.5-16.7,38.4-40.8,38.4c-24.2,0-399.8,0.1-399.8,0.1"/>
</svg>
