<?xml version="1.0" encoding="utf-8"?>
<!-- Generator: Adobe Illustrator 18.1.1, SVG Export Plug-In . SVG Version: 6.00 Build 0)  -->
<svg version="1.1" id="Money_Bag" xmlns="http://www.w3.org/2000/svg" xmlns:xlink="http://www.w3.org/1999/xlink" x="0px" y="0px"
	 viewBox="0 0 512 512" enable-background="new 0 0 512 512" xml:space="preserve">
<path fill="none" stroke="#0CEF92" stroke-width="8" stroke-miterlimit="10" d="M293,230.5c0,0-12.2-20-28.6-24s-37.7-23.5-6.6-39.5
	s16.2-30,16.2-30"/>
<path fill="none" stroke="#0CEF92" stroke-width="8" stroke-miterlimit="10" d="M287,136c0,0,20,32,20,59s20,49,36,59"/>
<g>
	<g>
		<path fill="#0CEF92" stroke="#0CEF92" stroke-width="5" stroke-miterlimit="10" d="M324,354.4c-1.4,0.2-3.4,0.5-5.8,0.9
			c-2.4,0.4-4.4,0.9-5.9,1.7c-1.8,0.9-3.1,2.2-3.8,3.8c-0.8,1.7-1.1,3.6-1.1,5.8v9.9c0,7.2,0,12.1,0.1,14.6c0.1,2.5,0.2,4.6,0.3,6.2
			c-8,3.6-16,6.4-24,8.3c-8,1.9-15.8,2.9-23.4,2.9c-8.2,0-16.1-1.5-23.7-4.6s-14.2-7.4-19.9-13.1c-5.7-5.7-10.3-12.7-13.6-20.9
			c-3.4-8.2-5.1-17.4-5.1-27.5c0-9.8,1.6-18.8,4.8-27.2c3.2-8.4,7.8-15.6,13.7-21.8c5.7-6,12.5-10.7,20.5-14.1
			c7.9-3.3,16.4-5,25.4-5c7.2,0,13.5,0.9,18.9,2.6c5.4,1.7,10.1,3.9,14.2,6.3l3.7-6.1h7.2l0.8,44.8h-7.4c-1.3-4.9-2.8-9.8-4.7-14.6
			c-1.9-4.8-4.3-9.1-7.2-12.9c-3-3.8-6.6-6.8-10.8-9.1c-4.3-2.3-9.3-3.4-15.2-3.4c-6.5,0-12.2,1.3-17.3,3.9
			c-5.1,2.6-9.5,6.5-13.2,11.7c-3.7,5-6.5,11.2-8.5,18.7c-2,7.5-3,15.8-3,25.1c0,8.1,1,15.8,2.9,23c2,7.2,4.8,13.4,8.6,18.7
			c3.7,5.4,8.4,9.6,14,12.7c5.6,3.1,12,4.6,19.1,4.6c5.3,0,10.2-0.8,14.5-2.4c4.4-1.6,7.5-3.3,9.3-5.2c0.5-3.1,0.7-6.3,0.8-9.5
			c0-3.2,0-5.9,0-8.1v-7c0-2.5-0.3-4.8-1-6.7c-0.7-2-2.1-3.4-4.3-4.3c-2-0.9-4.7-1.6-8.1-2c-3.4-0.5-6.1-0.7-8-0.9v-6.6H324V354.4z"
			/>
	</g>
	<rect x="237.2" y="248.6" fill="#0CEF92" width="14.6" height="33.3"/>
	<rect x="265.6" y="248.6" fill="#0CEF92" width="14.6" height="33.3"/>
	<rect x="237.2" y="400.1" fill="#0CEF92" width="14.6" height="33.3"/>
	<rect x="265.6" y="400.1" fill="#0CEF92" width="14.6" height="33.3"/>
</g>
<path fill="none" stroke="#0CEF92" stroke-width="8" stroke-miterlimit="10" d="M198,137c0,0-136.4,67.4-136.4,336.2
	c0,30,26.8,32.8,26.8,32.8h332.1c0,0,28.9-0.5,28.9-29.6S470.4,252,312,137C221.6,137,198,137,198,137z"/>
<path fill="none" stroke="#0CEF92" stroke-width="8" stroke-miterlimit="10" d="M149.2,17.8c0,0,6.7,8.3,21.5,8.3
	c14.8,0,11.4-7.7,28.6-7.7s15.8,18.1,38.8,18.1s30.6-15.9,51.6-15.9s18.9,11.9,44.8,11.9c25.9,0,18-6.8,26.2-14.6
	c0,41.1-22.2,99.2-48.6,99.2c-26.3,0-113.5,0-113.5,0S149.2,94.4,149.2,17.8z"/>
</svg>
