<?xml version="1.0" encoding="utf-8"?>
<!-- Generator: Adobe Illustrator 19.0.0, SVG Export Plug-In . SVG Version: 6.00 Build 0)  -->
<svg version="1.1" id="Layer_1" xmlns="http://www.w3.org/2000/svg" xmlns:xlink="http://www.w3.org/1999/xlink" x="0px" y="0px"
	 viewBox="0 0 537.2 513.4" enable-background="new 0 0 537.2 513.4" xml:space="preserve">
<g>
	<linearGradient id="XMLID_57_" gradientUnits="userSpaceOnUse" x1="80.8027" y1="486.4612" x2="456.4324" y2="110.8315">
		<stop  offset="0" style="stop-color:#653D3B"/>
		<stop  offset="3.717807e-03" style="stop-color:#6C433E"/>
		<stop  offset="2.615326e-02" style="stop-color:#94664D"/>
		<stop  offset="4.933833e-02" style="stop-color:#B4835A"/>
		<stop  offset="7.310779e-02" style="stop-color:#CE9964"/>
		<stop  offset="9.771115e-02" style="stop-color:#E0A96B"/>
		<stop  offset="0.1237" style="stop-color:#EBB26F"/>
		<stop  offset="0.1532" style="stop-color:#EEB570"/>
		<stop  offset="0.2518" style="stop-color:#F9E99C"/>
		<stop  offset="0.335" style="stop-color:#F5E283"/>
		<stop  offset="0.3586" style="stop-color:#F5E289"/>
		<stop  offset="0.3889" style="stop-color:#F5E299"/>
		<stop  offset="0.4231" style="stop-color:#F4E3B3"/>
		<stop  offset="0.4597" style="stop-color:#F4E3D8"/>
		<stop  offset="0.4922" style="stop-color:#F3E4FF"/>
		<stop  offset="0.5126" style="stop-color:#F3E4EE"/>
		<stop  offset="0.5533" style="stop-color:#F2E5C0"/>
		<stop  offset="0.6069" style="stop-color:#F1E67C"/>
		<stop  offset="0.7217" style="stop-color:#FFFCB3"/>
		<stop  offset="0.91" style="stop-color:#E0BD61"/>
		<stop  offset="1" style="stop-color:#CD8F52"/>
	</linearGradient>
	<path id="XMLID_2_" fill="url(#XMLID_57_)" d="M268.6,10c6.3,0,11.6,3.7,14.1,9.1c27,59.8,67.6,149.6,67.6,149.6
		s97.9,10.8,163.2,18.1c5.9,0.7,11.1,4.6,13,10.6c1.9,5.9,0,12.2-4.3,16.2c-48.5,44.2-121.4,110.4-121.4,110.4s19.9,96.4,33.2,160.8
		c1.1,5.8-1,12-6,15.6c-2.7,2-5.8,2.9-9,2.9c-2.7,0-5.4-0.7-7.8-2c-57-32.5-142.6-81.3-142.6-81.3s-85.5,48.8-142.7,81.3
		c-2.4,1.3-5,2-7.7,2c-3.1,0-6.2-0.9-8.9-2.9c-5.1-3.7-7.2-9.8-6.1-15.7c13.3-64.3,33.2-160.7,33.3-160.7c0,0-72.9-66.3-121.4-110.5
		c-4.3-3.9-6.3-10.2-4.3-16.1c2-6,7.2-9.9,13-10.6c65.3-7.2,163.2-18.1,163.2-18.1s40.5-89.8,67.6-149.6C257,13.8,262.3,10,268.6,10
		 M268.6,0c-9.9,0-19,5.9-23.1,15c-23,50.9-56.2,124.4-65.3,144.4c-21.8,2.4-101.6,11.3-157.5,17.5l0,0l0,0
		c-9.9,1.2-18.3,8-21.3,17.4c-3.1,9.5-0.3,19.9,7.1,26.6c41.2,37.6,100.9,91.9,117.1,106.7c-0.6,2.7-1.3,6.2-2.2,10.5
		c-2.1,10-5,24.1-8.3,40.2c-7,34-15.3,74.1-21.6,104.5l0,0.1l0,0.1c-1.9,10,1.9,19.8,10,25.6c4.3,3.1,9.4,4.8,14.8,4.8
		c4.4,0,8.8-1.2,12.6-3.3c48.6-27.6,118.7-67.6,137.7-78.5c19.1,10.9,89.1,50.8,137.6,78.5l0.1,0l0.1,0c3.9,2.1,8.2,3.2,12.6,3.2
		c5.4,0,10.5-1.7,14.9-4.8c8-5.8,11.9-15.9,10-25.7l0,0l0,0c-11.3-54.8-27.6-133.7-32-155.2c16.2-14.8,75.9-69,117.2-106.6l0.1,0
		l0,0c7.3-6.8,10-17.3,7-26.6c-3-9.4-11.4-16.3-21.4-17.4c-55.6-6.2-135.7-15.1-157.6-17.5c-9-20-42.1-93.1-65.3-144.4l0-0.1l0-0.1
		C287.4,5.7,278.5,0,268.6,0L268.6,0z"/>
	<linearGradient id="SVGID_1_" gradientUnits="userSpaceOnUse" x1="78.7284" y1="470.236" x2="406.9954" y2="141.969">
		<stop  offset="0" style="stop-color:#653D3B"/>
		<stop  offset="3.717807e-03" style="stop-color:#6C433E"/>
		<stop  offset="2.615326e-02" style="stop-color:#94664D"/>
		<stop  offset="4.933833e-02" style="stop-color:#B4835A"/>
		<stop  offset="7.310779e-02" style="stop-color:#CE9964"/>
		<stop  offset="9.771115e-02" style="stop-color:#E0A96B"/>
		<stop  offset="0.1237" style="stop-color:#EBB26F"/>
		<stop  offset="0.1532" style="stop-color:#EEB570"/>
		<stop  offset="0.2518" style="stop-color:#F9E99C"/>
		<stop  offset="0.335" style="stop-color:#F5E283"/>
		<stop  offset="0.3586" style="stop-color:#F5E289"/>
		<stop  offset="0.3889" style="stop-color:#F5E299"/>
		<stop  offset="0.4231" style="stop-color:#F4E3B3"/>
		<stop  offset="0.4597" style="stop-color:#F4E3D8"/>
		<stop  offset="0.4922" style="stop-color:#F3E4FF"/>
		<stop  offset="0.5126" style="stop-color:#F3E4EE"/>
		<stop  offset="0.5533" style="stop-color:#F2E5C0"/>
		<stop  offset="0.6069" style="stop-color:#F1E67C"/>
		<stop  offset="0.7217" style="stop-color:#FFFCB3"/>
		<stop  offset="0.91" style="stop-color:#E0BD61"/>
		<stop  offset="1" style="stop-color:#CD8F52"/>
	</linearGradient>
	<path fill="url(#SVGID_1_)" d="M398.3,174c-28-3.1-47.8-5.3-47.8-5.3s-40.7-89.8-67.7-149.6c-2.5-5.4-7.9-9.1-14.2-9.1
		s-11.6,3.8-14.1,9.1C227.5,78.9,187,168.7,187,168.7s-97.9,10.8-163.2,18.1c-5.9,0.7-11.1,4.6-13,10.6c-2,6,0,12.2,4.3,16.1
		c48.5,44.3,121.4,110.5,121.4,110.5c-0.1,0-20,96.4-33.3,160.7c-1.1,5.8,1,12,6.1,15.7c5,3.7,11.6,3.7,16.7,0.9
		c57.1-32.5,142.8-81.3,142.8-81.3s73.5,41.8,129.5,73.8V174z"/>
</g>
</svg>
